<?xml version="1.0" encoding="us-ascii" standalone="no"?><svg xmlns="http://www.w3.org/2000/svg" xmlns:xlink="http://www.w3.org/1999/xlink" contentStyleType="text/css" height="787px" preserveAspectRatio="none" style="width:2117px;height:787px;background:#FFFFFF;" version="1.1" viewBox="0 0 2117 787" width="2117px" zoomAndPan="magnify"><defs/><g><text fill="#000000" font-family="sans-serif" font-size="14" font-weight="bold" lengthAdjust="spacing" textLength="303" x="900.22" y="22.9951">Overview of the Class Model Elements</text><!--class overarch_element--><g id="elem_overarch_element"><rect codeLine="6" fill="#F1F1F1" height="64.2969" id="overarch_element" rx="2.5" ry="2.5" style="stroke:#181818;stroke-width:0.5;" width="95" x="661.83" y="52.7969"/><ellipse cx="679.53" cy="68.7969" fill="#A9DCDF" rx="11" ry="11" style="stroke:#181818;stroke-width:1.0;"/><path d="M679.6394,64.1406 L678.4831,69.2188 L680.8113,69.2188 L679.6394,64.1406 Z M678.155,61.9063 L681.1394,61.9063 L684.4988,74.2969 L682.0456,74.2969 L681.28,71.2344 L677.9988,71.2344 L677.2488,74.2969 L674.8113,74.2969 L678.155,61.9063 Z " fill="#000000"/><text fill="#000000" font-family="sans-serif" font-size="14" font-style="italic" lengthAdjust="spacing" textLength="57" x="694.13" y="73.6436">element</text><line style="stroke:#181818;stroke-width:0.5;" x1="662.83" x2="755.83" y1="84.7969" y2="84.7969"/><text fill="#000000" font-family="sans-serif" font-size="14" lengthAdjust="spacing" textLength="83" x="667.83" y="101.792">el : keyword</text><line style="stroke:#181818;stroke-width:0.5;" x1="662.83" x2="755.83" y1="109.0938" y2="109.0938"/></g><!--class overarch_identifiableElement--><g id="elem_overarch_identifiableElement"><rect codeLine="9" fill="#F1F1F1" height="64.2969" id="overarch_identifiableElement" rx="2.5" ry="2.5" style="stroke:#181818;stroke-width:0.5;" width="168" x="530.33" y="193.7969"/><ellipse cx="545.33" cy="209.7969" fill="#A9DCDF" rx="11" ry="11" style="stroke:#181818;stroke-width:1.0;"/><path d="M545.4394,205.1406 L544.2831,210.2188 L546.6113,210.2188 L545.4394,205.1406 Z M543.955,202.9063 L546.9394,202.9063 L550.2988,215.2969 L547.8456,215.2969 L547.08,212.2344 L543.7988,212.2344 L543.0488,215.2969 L540.6113,215.2969 L543.955,202.9063 Z " fill="#000000"/><text fill="#000000" font-family="sans-serif" font-size="14" font-style="italic" lengthAdjust="spacing" textLength="136" x="559.33" y="214.6436">identifiable-element</text><line style="stroke:#181818;stroke-width:0.5;" x1="531.33" x2="697.33" y1="225.7969" y2="225.7969"/><text fill="#000000" font-family="sans-serif" font-size="14" lengthAdjust="spacing" textLength="83" x="536.33" y="242.792">id : keyword</text><line style="stroke:#181818;stroke-width:0.5;" x1="531.33" x2="697.33" y1="250.0938" y2="250.0938"/></g><!--class overarch_namedElement--><g id="elem_overarch_namedElement"><rect codeLine="12" fill="#F1F1F1" height="80.5938" id="overarch_namedElement" rx="2.5" ry="2.5" style="stroke:#181818;stroke-width:0.5;" width="142" x="733.33" y="185.2969"/><ellipse cx="748.33" cy="201.2969" fill="#A9DCDF" rx="11" ry="11" style="stroke:#181818;stroke-width:1.0;"/><path d="M748.4394,196.6406 L747.2831,201.7188 L749.6113,201.7188 L748.4394,196.6406 Z M746.955,194.4063 L749.9394,194.4063 L753.2988,206.7969 L750.8456,206.7969 L750.08,203.7344 L746.7988,203.7344 L746.0488,206.7969 L743.6113,206.7969 L746.955,194.4063 Z " fill="#000000"/><text fill="#000000" font-family="sans-serif" font-size="14" font-style="italic" lengthAdjust="spacing" textLength="110" x="762.33" y="206.1436">named-element</text><line style="stroke:#181818;stroke-width:0.5;" x1="734.33" x2="874.33" y1="217.2969" y2="217.2969"/><text fill="#000000" font-family="sans-serif" font-size="14" lengthAdjust="spacing" textLength="91" x="739.33" y="234.292">name : string</text><text fill="#000000" font-family="sans-serif" font-size="14" lengthAdjust="spacing" textLength="86" x="739.33" y="250.5889">desc : string</text><line style="stroke:#181818;stroke-width:0.5;" x1="734.33" x2="874.33" y1="257.8906" y2="257.8906"/></g><!--class overarch_identifiableNamedElement--><g id="elem_overarch_identifiableNamedElement"><rect codeLine="16" fill="#F1F1F1" height="48" id="overarch_identifiableNamedElement" rx="2.5" ry="2.5" style="stroke:#181818;stroke-width:0.5;" width="221" x="227.83" y="326.2969"/><ellipse cx="242.83" cy="342.2969" fill="#A9DCDF" rx="11" ry="11" style="stroke:#181818;stroke-width:1.0;"/><path d="M242.9394,337.6406 L241.7831,342.7188 L244.1112,342.7188 L242.9394,337.6406 Z M241.455,335.4063 L244.4394,335.4063 L247.7987,347.7969 L245.3456,347.7969 L244.58,344.7344 L241.2987,344.7344 L240.5487,347.7969 L238.1112,347.7969 L241.455,335.4063 Z " fill="#000000"/><text fill="#000000" font-family="sans-serif" font-size="14" font-style="italic" lengthAdjust="spacing" textLength="189" x="256.83" y="347.1436">identifiable-named-element</text><line style="stroke:#181818;stroke-width:0.5;" x1="228.83" x2="447.83" y1="358.2969" y2="358.2969"/><line style="stroke:#181818;stroke-width:0.5;" x1="228.83" x2="447.83" y1="366.2969" y2="366.2969"/></g><!--class overarch_relationalElement--><g id="elem_overarch_relationalElement"><rect codeLine="17" fill="#F1F1F1" height="80.5938" id="overarch_relationalElement" rx="2.5" ry="2.5" style="stroke:#181818;stroke-width:0.5;" width="156" x="1139.33" y="434.2969"/><ellipse cx="1154.33" cy="450.2969" fill="#A9DCDF" rx="11" ry="11" style="stroke:#181818;stroke-width:1.0;"/><path d="M1154.4394,445.6406 L1153.2831,450.7188 L1155.6113,450.7188 L1154.4394,445.6406 Z M1152.955,443.4063 L1155.9394,443.4063 L1159.2988,455.7969 L1156.8456,455.7969 L1156.08,452.7344 L1152.7988,452.7344 L1152.0488,455.7969 L1149.6113,455.7969 L1152.955,443.4063 Z " fill="#000000"/><text fill="#000000" font-family="sans-serif" font-size="14" font-style="italic" lengthAdjust="spacing" textLength="124" x="1168.33" y="455.1436">relational-element</text><line style="stroke:#181818;stroke-width:0.5;" x1="1140.33" x2="1294.33" y1="466.2969" y2="466.2969"/><text fill="#000000" font-family="sans-serif" font-size="14" lengthAdjust="spacing" textLength="102" x="1145.33" y="483.292">from : keyword</text><text fill="#000000" font-family="sans-serif" font-size="14" lengthAdjust="spacing" textLength="85" x="1145.33" y="499.5889">to : keyword</text><line style="stroke:#181818;stroke-width:0.5;" x1="1140.33" x2="1294.33" y1="506.8906" y2="506.8906"/></g><!--class overarch_namedRelationalElement--><g id="elem_overarch_namedRelationalElement"><rect codeLine="21" fill="#F1F1F1" height="48" id="overarch_namedRelationalElement" rx="2.5" ry="2.5" style="stroke:#181818;stroke-width:0.5;" width="209" x="1606.83" y="575.2969"/><ellipse cx="1621.83" cy="591.2969" fill="#A9DCDF" rx="11" ry="11" style="stroke:#181818;stroke-width:1.0;"/><path d="M1621.9394,586.6406 L1620.7831,591.7188 L1623.1113,591.7188 L1621.9394,586.6406 Z M1620.455,584.4063 L1623.4394,584.4063 L1626.7988,596.7969 L1624.3456,596.7969 L1623.58,593.7344 L1620.2988,593.7344 L1619.5488,596.7969 L1617.1113,596.7969 L1620.455,584.4063 Z " fill="#000000"/><text fill="#000000" font-family="sans-serif" font-size="14" font-style="italic" lengthAdjust="spacing" textLength="177" x="1635.83" y="596.1436">named-relational-element</text><line style="stroke:#181818;stroke-width:0.5;" x1="1607.83" x2="1814.83" y1="607.2969" y2="607.2969"/><line style="stroke:#181818;stroke-width:0.5;" x1="1607.83" x2="1814.83" y1="615.2969" y2="615.2969"/></g><!--class overarch_technicalElement--><g id="elem_overarch_technicalElement"><rect codeLine="22" fill="#F1F1F1" height="80.5938" id="overarch_technicalElement" rx="2.5" ry="2.5" style="stroke:#181818;stroke-width:0.5;" width="156" x="792.33" y="44.2969"/><ellipse cx="807.33" cy="60.2969" fill="#A9DCDF" rx="11" ry="11" style="stroke:#181818;stroke-width:1.0;"/><path d="M807.4394,55.6406 L806.2831,60.7188 L808.6113,60.7188 L807.4394,55.6406 Z M805.955,53.4063 L808.9394,53.4063 L812.2988,65.7969 L809.8456,65.7969 L809.08,62.7344 L805.7988,62.7344 L805.0488,65.7969 L802.6113,65.7969 L805.955,53.4063 Z " fill="#000000"/><text fill="#000000" font-family="sans-serif" font-size="14" font-style="italic" lengthAdjust="spacing" textLength="124" x="821.33" y="65.1436">technical-element</text><line style="stroke:#181818;stroke-width:0.5;" x1="793.33" x2="947.33" y1="76.2969" y2="76.2969"/><text fill="#000000" font-family="sans-serif" font-size="14" lengthAdjust="spacing" textLength="108" x="798.33" y="93.292">subtype : string</text><text fill="#000000" font-family="sans-serif" font-size="14" lengthAdjust="spacing" textLength="83" x="798.33" y="109.5889">tech : string</text><line style="stroke:#181818;stroke-width:0.5;" x1="793.33" x2="947.33" y1="116.8906" y2="116.8906"/></g><!--class overarch_classModelElement--><g id="elem_overarch_classModelElement"><rect codeLine="26" fill="#F1F1F1" height="48" id="overarch_classModelElement" rx="2.5" ry="2.5" style="stroke:#181818;stroke-width:0.5;" width="175" x="520.83" y="450.7969"/><ellipse cx="535.83" cy="466.7969" fill="#A9DCDF" rx="11" ry="11" style="stroke:#181818;stroke-width:1.0;"/><path d="M535.9394,462.1406 L534.7831,467.2188 L537.1113,467.2188 L535.9394,462.1406 Z M534.455,459.9063 L537.4394,459.9063 L540.7988,472.2969 L538.3456,472.2969 L537.58,469.2344 L534.2988,469.2344 L533.5488,472.2969 L531.1113,472.2969 L534.455,459.9063 Z " fill="#000000"/><text fill="#000000" font-family="sans-serif" font-size="14" font-style="italic" lengthAdjust="spacing" textLength="143" x="549.83" y="471.6436">class-model-element</text><line style="stroke:#181818;stroke-width:0.5;" x1="521.83" x2="694.83" y1="482.7969" y2="482.7969"/><line style="stroke:#181818;stroke-width:0.5;" x1="521.83" x2="694.83" y1="490.7969" y2="490.7969"/></g><!--class overarch_package--><g id="elem_overarch_package"><rect codeLine="27" fill="#F1F1F1" height="48" id="overarch_package" rx="2.5" ry="2.5" style="stroke:#181818;stroke-width:0.5;" width="91" x="104.83" y="575.2969"/><ellipse cx="119.83" cy="591.2969" fill="#ADD1B2" rx="11" ry="11" style="stroke:#181818;stroke-width:1.0;"/><path d="M122.7988,596.9375 Q122.2206,597.2344 121.58,597.375 Q120.9394,597.5313 120.2363,597.5313 Q117.7363,597.5313 116.4081,595.8906 Q115.0956,594.2344 115.0956,591.1094 Q115.0956,587.9844 116.4081,586.3281 Q117.7363,584.6719 120.2363,584.6719 Q120.9394,584.6719 121.58,584.8281 Q122.2363,584.9844 122.7988,585.2813 L122.7988,588 Q122.1738,587.4219 121.58,587.1563 Q120.9863,586.875 120.3613,586.875 Q119.0175,586.875 118.33,587.9531 Q117.6425,589.0156 117.6425,591.1094 Q117.6425,593.2031 118.33,594.2813 Q119.0175,595.3438 120.3613,595.3438 Q120.9863,595.3438 121.58,595.0781 Q122.1738,594.7969 122.7988,594.2188 L122.7988,596.9375 Z " fill="#000000"/><text fill="#000000" font-family="sans-serif" font-size="14" lengthAdjust="spacing" textLength="59" x="133.83" y="596.1436">package</text><line style="stroke:#181818;stroke-width:0.5;" x1="105.83" x2="194.83" y1="607.2969" y2="607.2969"/><line style="stroke:#181818;stroke-width:0.5;" x1="105.83" x2="194.83" y1="615.2969" y2="615.2969"/></g><!--class overarch_namespace--><g id="elem_overarch_namespace"><rect codeLine="28" fill="#F1F1F1" height="48" id="overarch_namespace" rx="2.5" ry="2.5" style="stroke:#181818;stroke-width:0.5;" width="113" x="230.83" y="575.2969"/><ellipse cx="245.83" cy="591.2969" fill="#ADD1B2" rx="11" ry="11" style="stroke:#181818;stroke-width:1.0;"/><path d="M248.7987,596.9375 Q248.2206,597.2344 247.58,597.375 Q246.9394,597.5313 246.2362,597.5313 Q243.7362,597.5313 242.4081,595.8906 Q241.0956,594.2344 241.0956,591.1094 Q241.0956,587.9844 242.4081,586.3281 Q243.7362,584.6719 246.2362,584.6719 Q246.9394,584.6719 247.58,584.8281 Q248.2362,584.9844 248.7987,585.2813 L248.7987,588 Q248.1737,587.4219 247.58,587.1563 Q246.9862,586.875 246.3612,586.875 Q245.0175,586.875 244.33,587.9531 Q243.6425,589.0156 243.6425,591.1094 Q243.6425,593.2031 244.33,594.2813 Q245.0175,595.3438 246.3612,595.3438 Q246.9862,595.3438 247.58,595.0781 Q248.1737,594.7969 248.7987,594.2188 L248.7987,596.9375 Z " fill="#000000"/><text fill="#000000" font-family="sans-serif" font-size="14" lengthAdjust="spacing" textLength="81" x="259.83" y="596.1436">namespace</text><line style="stroke:#181818;stroke-width:0.5;" x1="231.83" x2="342.83" y1="607.2969" y2="607.2969"/><line style="stroke:#181818;stroke-width:0.5;" x1="231.83" x2="342.83" y1="615.2969" y2="615.2969"/></g><!--class overarch_interface--><g id="elem_overarch_interface"><rect codeLine="29" fill="#F1F1F1" height="48" id="overarch_interface" rx="2.5" ry="2.5" style="stroke:#181818;stroke-width:0.5;" width="92" x="379.33" y="575.2969"/><ellipse cx="394.33" cy="591.2969" fill="#ADD1B2" rx="11" ry="11" style="stroke:#181818;stroke-width:1.0;"/><path d="M397.2988,596.9375 Q396.7206,597.2344 396.08,597.375 Q395.4394,597.5313 394.7363,597.5313 Q392.2363,597.5313 390.9081,595.8906 Q389.5956,594.2344 389.5956,591.1094 Q389.5956,587.9844 390.9081,586.3281 Q392.2363,584.6719 394.7363,584.6719 Q395.4394,584.6719 396.08,584.8281 Q396.7363,584.9844 397.2988,585.2813 L397.2988,588 Q396.6738,587.4219 396.08,587.1563 Q395.4863,586.875 394.8613,586.875 Q393.5175,586.875 392.83,587.9531 Q392.1425,589.0156 392.1425,591.1094 Q392.1425,593.2031 392.83,594.2813 Q393.5175,595.3438 394.8613,595.3438 Q395.4863,595.3438 396.08,595.0781 Q396.6738,594.7969 397.2988,594.2188 L397.2988,596.9375 Z " fill="#000000"/><text fill="#000000" font-family="sans-serif" font-size="14" lengthAdjust="spacing" textLength="60" x="408.33" y="596.1436">interface</text><line style="stroke:#181818;stroke-width:0.5;" x1="380.33" x2="470.33" y1="607.2969" y2="607.2969"/><line style="stroke:#181818;stroke-width:0.5;" x1="380.33" x2="470.33" y1="615.2969" y2="615.2969"/></g><!--class overarch_protocol--><g id="elem_overarch_protocol"><rect codeLine="30" fill="#F1F1F1" height="48" id="overarch_protocol" rx="2.5" ry="2.5" style="stroke:#181818;stroke-width:0.5;" width="89" x="506.83" y="575.2969"/><ellipse cx="521.83" cy="591.2969" fill="#ADD1B2" rx="11" ry="11" style="stroke:#181818;stroke-width:1.0;"/><path d="M524.7987,596.9375 Q524.2206,597.2344 523.58,597.375 Q522.9394,597.5313 522.2362,597.5313 Q519.7362,597.5313 518.4081,595.8906 Q517.0956,594.2344 517.0956,591.1094 Q517.0956,587.9844 518.4081,586.3281 Q519.7362,584.6719 522.2362,584.6719 Q522.9394,584.6719 523.58,584.8281 Q524.2362,584.9844 524.7987,585.2813 L524.7987,588 Q524.1737,587.4219 523.58,587.1563 Q522.9862,586.875 522.3612,586.875 Q521.0175,586.875 520.33,587.9531 Q519.6425,589.0156 519.6425,591.1094 Q519.6425,593.2031 520.33,594.2813 Q521.0175,595.3438 522.3612,595.3438 Q522.9862,595.3438 523.58,595.0781 Q524.1737,594.7969 524.7987,594.2188 L524.7987,596.9375 Z " fill="#000000"/><text fill="#000000" font-family="sans-serif" font-size="14" lengthAdjust="spacing" textLength="57" x="535.83" y="596.1436">protocol</text><line style="stroke:#181818;stroke-width:0.5;" x1="507.83" x2="594.83" y1="607.2969" y2="607.2969"/><line style="stroke:#181818;stroke-width:0.5;" x1="507.83" x2="594.83" y1="615.2969" y2="615.2969"/></g><!--class overarch_class--><g id="elem_overarch_class"><rect codeLine="31" fill="#F1F1F1" height="48" id="overarch_class" rx="2.5" ry="2.5" style="stroke:#181818;stroke-width:0.5;" width="67" x="630.83" y="575.2969"/><ellipse cx="645.83" cy="591.2969" fill="#ADD1B2" rx="11" ry="11" style="stroke:#181818;stroke-width:1.0;"/><path d="M648.7988,596.9375 Q648.2206,597.2344 647.58,597.375 Q646.9394,597.5313 646.2363,597.5313 Q643.7363,597.5313 642.4081,595.8906 Q641.0956,594.2344 641.0956,591.1094 Q641.0956,587.9844 642.4081,586.3281 Q643.7363,584.6719 646.2363,584.6719 Q646.9394,584.6719 647.58,584.8281 Q648.2363,584.9844 648.7988,585.2813 L648.7988,588 Q648.1738,587.4219 647.58,587.1563 Q646.9863,586.875 646.3613,586.875 Q645.0175,586.875 644.33,587.9531 Q643.6425,589.0156 643.6425,591.1094 Q643.6425,593.2031 644.33,594.2813 Q645.0175,595.3438 646.3613,595.3438 Q646.9863,595.3438 647.58,595.0781 Q648.1738,594.7969 648.7988,594.2188 L648.7988,596.9375 Z " fill="#000000"/><text fill="#000000" font-family="sans-serif" font-size="14" lengthAdjust="spacing" textLength="35" x="659.83" y="596.1436">class</text><line style="stroke:#181818;stroke-width:0.5;" x1="631.83" x2="696.83" y1="607.2969" y2="607.2969"/><line style="stroke:#181818;stroke-width:0.5;" x1="631.83" x2="696.83" y1="615.2969" y2="615.2969"/></g><!--class overarch_enum--><g id="elem_overarch_enum"><rect codeLine="32" fill="#F1F1F1" height="48" id="overarch_enum" rx="2.5" ry="2.5" style="stroke:#181818;stroke-width:0.5;" width="72" x="733.33" y="575.2969"/><ellipse cx="748.33" cy="591.2969" fill="#ADD1B2" rx="11" ry="11" style="stroke:#181818;stroke-width:1.0;"/><path d="M751.2988,596.9375 Q750.7206,597.2344 750.08,597.375 Q749.4394,597.5313 748.7363,597.5313 Q746.2363,597.5313 744.9081,595.8906 Q743.5956,594.2344 743.5956,591.1094 Q743.5956,587.9844 744.9081,586.3281 Q746.2363,584.6719 748.7363,584.6719 Q749.4394,584.6719 750.08,584.8281 Q750.7363,584.9844 751.2988,585.2813 L751.2988,588 Q750.6738,587.4219 750.08,587.1563 Q749.4863,586.875 748.8613,586.875 Q747.5175,586.875 746.83,587.9531 Q746.1425,589.0156 746.1425,591.1094 Q746.1425,593.2031 746.83,594.2813 Q747.5175,595.3438 748.8613,595.3438 Q749.4863,595.3438 750.08,595.0781 Q750.6738,594.7969 751.2988,594.2188 L751.2988,596.9375 Z " fill="#000000"/><text fill="#000000" font-family="sans-serif" font-size="14" lengthAdjust="spacing" textLength="40" x="762.33" y="596.1436">enum</text><line style="stroke:#181818;stroke-width:0.5;" x1="734.33" x2="804.33" y1="607.2969" y2="607.2969"/><line style="stroke:#181818;stroke-width:0.5;" x1="734.33" x2="804.33" y1="615.2969" y2="615.2969"/></g><!--class overarch_field--><g id="elem_overarch_field"><rect codeLine="33" fill="#F1F1F1" height="96.8906" id="overarch_field" rx="2.5" ry="2.5" style="stroke:#181818;stroke-width:0.5;" width="136" x="641.33" y="683.2969"/><ellipse cx="691.08" cy="699.2969" fill="#ADD1B2" rx="11" ry="11" style="stroke:#181818;stroke-width:1.0;"/><path d="M694.0488,704.9375 Q693.4706,705.2344 692.83,705.375 Q692.1894,705.5313 691.4863,705.5313 Q688.9863,705.5313 687.6581,703.8906 Q686.3456,702.2344 686.3456,699.1094 Q686.3456,695.9844 687.6581,694.3281 Q688.9863,692.6719 691.4863,692.6719 Q692.1894,692.6719 692.83,692.8281 Q693.4863,692.9844 694.0488,693.2813 L694.0488,696 Q693.4238,695.4219 692.83,695.1563 Q692.2363,694.875 691.6113,694.875 Q690.2675,694.875 689.58,695.9531 Q688.8925,697.0156 688.8925,699.1094 Q688.8925,701.2031 689.58,702.2813 Q690.2675,703.3438 691.6113,703.3438 Q692.2363,703.3438 692.83,703.0781 Q693.4238,702.7969 694.0488,702.2188 L694.0488,704.9375 Z " fill="#000000"/><text fill="#000000" font-family="sans-serif" font-size="14" lengthAdjust="spacing" textLength="28" x="711.58" y="704.1436">field</text><line style="stroke:#181818;stroke-width:0.5;" x1="642.33" x2="776.33" y1="715.2969" y2="715.2969"/><text fill="#000000" font-family="sans-serif" font-size="14" lengthAdjust="spacing" textLength="82" x="647.33" y="732.292">type : string</text><text fill="#000000" font-family="sans-serif" font-size="14" lengthAdjust="spacing" textLength="122" x="647.33" y="748.5889">visibility : keyword</text><text fill="#000000" font-family="sans-serif" font-size="14" lengthAdjust="spacing" textLength="124" x="647.33" y="764.8857">optional : boolean</text><line style="stroke:#181818;stroke-width:0.5;" x1="642.33" x2="776.33" y1="772.1875" y2="772.1875"/></g><!--class overarch_method--><g id="elem_overarch_method"><rect codeLine="38" fill="#F1F1F1" height="80.5938" id="overarch_method" rx="2.5" ry="2.5" style="stroke:#181818;stroke-width:0.5;" width="134" x="438.33" y="691.2969"/><ellipse cx="474.93" cy="707.2969" fill="#ADD1B2" rx="11" ry="11" style="stroke:#181818;stroke-width:1.0;"/><path d="M477.8988,712.9375 Q477.3206,713.2344 476.68,713.375 Q476.0394,713.5313 475.3363,713.5313 Q472.8363,713.5313 471.5081,711.8906 Q470.1956,710.2344 470.1956,707.1094 Q470.1956,703.9844 471.5081,702.3281 Q472.8363,700.6719 475.3363,700.6719 Q476.0394,700.6719 476.68,700.8281 Q477.3363,700.9844 477.8988,701.2813 L477.8988,704 Q477.2738,703.4219 476.68,703.1563 Q476.0863,702.875 475.4613,702.875 Q474.1175,702.875 473.43,703.9531 Q472.7425,705.0156 472.7425,707.1094 Q472.7425,709.2031 473.43,710.2813 Q474.1175,711.3438 475.4613,711.3438 Q476.0863,711.3438 476.68,711.0781 Q477.2738,710.7969 477.8988,710.2188 L477.8988,712.9375 Z " fill="#000000"/><text fill="#000000" font-family="sans-serif" font-size="14" lengthAdjust="spacing" textLength="54" x="493.73" y="712.1436">method</text><line style="stroke:#181818;stroke-width:0.5;" x1="439.33" x2="571.33" y1="723.2969" y2="723.2969"/><text fill="#000000" font-family="sans-serif" font-size="14" lengthAdjust="spacing" textLength="122" x="444.33" y="740.292">visibility : keyword</text><text fill="#000000" font-family="sans-serif" font-size="14" lengthAdjust="spacing" textLength="82" x="444.33" y="756.5889">type : string</text><line style="stroke:#181818;stroke-width:0.5;" x1="439.33" x2="571.33" y1="763.8906" y2="763.8906"/></g><!--class overarch_implementation--><g id="elem_overarch_implementation"><rect codeLine="42" fill="#F1F1F1" height="48" id="overarch_implementation" rx="2.5" ry="2.5" style="stroke:#181818;stroke-width:0.5;" width="139" x="840.83" y="575.2969"/><ellipse cx="855.83" cy="591.2969" fill="#ADD1B2" rx="11" ry="11" style="stroke:#181818;stroke-width:1.0;"/><path d="M858.7988,596.9375 Q858.2206,597.2344 857.58,597.375 Q856.9394,597.5313 856.2363,597.5313 Q853.7363,597.5313 852.4081,595.8906 Q851.0956,594.2344 851.0956,591.1094 Q851.0956,587.9844 852.4081,586.3281 Q853.7363,584.6719 856.2363,584.6719 Q856.9394,584.6719 857.58,584.8281 Q858.2363,584.9844 858.7988,585.2813 L858.7988,588 Q858.1738,587.4219 857.58,587.1563 Q856.9863,586.875 856.3613,586.875 Q855.0175,586.875 854.33,587.9531 Q853.6425,589.0156 853.6425,591.1094 Q853.6425,593.2031 854.33,594.2813 Q855.0175,595.3438 856.3613,595.3438 Q856.9863,595.3438 857.58,595.0781 Q858.1738,594.7969 858.7988,594.2188 L858.7988,596.9375 Z " fill="#000000"/><text fill="#000000" font-family="sans-serif" font-size="14" lengthAdjust="spacing" textLength="107" x="869.83" y="596.1436">implementation</text><line style="stroke:#181818;stroke-width:0.5;" x1="841.83" x2="978.83" y1="607.2969" y2="607.2969"/><line style="stroke:#181818;stroke-width:0.5;" x1="841.83" x2="978.83" y1="615.2969" y2="615.2969"/></g><!--class overarch_inheritance--><g id="elem_overarch_inheritance"><rect codeLine="43" fill="#F1F1F1" height="48" id="overarch_inheritance" rx="2.5" ry="2.5" style="stroke:#181818;stroke-width:0.5;" width="109" x="1014.83" y="575.2969"/><ellipse cx="1029.83" cy="591.2969" fill="#ADD1B2" rx="11" ry="11" style="stroke:#181818;stroke-width:1.0;"/><path d="M1032.7988,596.9375 Q1032.2206,597.2344 1031.58,597.375 Q1030.9394,597.5313 1030.2363,597.5313 Q1027.7363,597.5313 1026.4081,595.8906 Q1025.0956,594.2344 1025.0956,591.1094 Q1025.0956,587.9844 1026.4081,586.3281 Q1027.7363,584.6719 1030.2363,584.6719 Q1030.9394,584.6719 1031.58,584.8281 Q1032.2363,584.9844 1032.7988,585.2813 L1032.7988,588 Q1032.1738,587.4219 1031.58,587.1563 Q1030.9863,586.875 1030.3613,586.875 Q1029.0175,586.875 1028.33,587.9531 Q1027.6425,589.0156 1027.6425,591.1094 Q1027.6425,593.2031 1028.33,594.2813 Q1029.0175,595.3438 1030.3613,595.3438 Q1030.9863,595.3438 1031.58,595.0781 Q1032.1738,594.7969 1032.7988,594.2188 L1032.7988,596.9375 Z " fill="#000000"/><text fill="#000000" font-family="sans-serif" font-size="14" lengthAdjust="spacing" textLength="77" x="1043.83" y="596.1436">inheritance</text><line style="stroke:#181818;stroke-width:0.5;" x1="1015.83" x2="1122.83" y1="607.2969" y2="607.2969"/><line style="stroke:#181818;stroke-width:0.5;" x1="1015.83" x2="1122.83" y1="615.2969" y2="615.2969"/></g><!--class overarch_composition--><g id="elem_overarch_composition"><rect codeLine="44" fill="#F1F1F1" height="48" id="overarch_composition" rx="2.5" ry="2.5" style="stroke:#181818;stroke-width:0.5;" width="117" x="1158.83" y="575.2969"/><ellipse cx="1173.83" cy="591.2969" fill="#ADD1B2" rx="11" ry="11" style="stroke:#181818;stroke-width:1.0;"/><path d="M1176.7988,596.9375 Q1176.2206,597.2344 1175.58,597.375 Q1174.9394,597.5313 1174.2363,597.5313 Q1171.7363,597.5313 1170.4081,595.8906 Q1169.0956,594.2344 1169.0956,591.1094 Q1169.0956,587.9844 1170.4081,586.3281 Q1171.7363,584.6719 1174.2363,584.6719 Q1174.9394,584.6719 1175.58,584.8281 Q1176.2363,584.9844 1176.7988,585.2813 L1176.7988,588 Q1176.1738,587.4219 1175.58,587.1563 Q1174.9863,586.875 1174.3613,586.875 Q1173.0175,586.875 1172.33,587.9531 Q1171.6425,589.0156 1171.6425,591.1094 Q1171.6425,593.2031 1172.33,594.2813 Q1173.0175,595.3438 1174.3613,595.3438 Q1174.9863,595.3438 1175.58,595.0781 Q1176.1738,594.7969 1176.7988,594.2188 L1176.7988,596.9375 Z " fill="#000000"/><text fill="#000000" font-family="sans-serif" font-size="14" lengthAdjust="spacing" textLength="85" x="1187.83" y="596.1436">composition</text><line style="stroke:#181818;stroke-width:0.5;" x1="1159.83" x2="1274.83" y1="607.2969" y2="607.2969"/><line style="stroke:#181818;stroke-width:0.5;" x1="1159.83" x2="1274.83" y1="615.2969" y2="615.2969"/></g><!--class overarch_aggregation--><g id="elem_overarch_aggregation"><rect codeLine="45" fill="#F1F1F1" height="48" id="overarch_aggregation" rx="2.5" ry="2.5" style="stroke:#181818;stroke-width:0.5;" width="115" x="1310.83" y="575.2969"/><ellipse cx="1325.83" cy="591.2969" fill="#ADD1B2" rx="11" ry="11" style="stroke:#181818;stroke-width:1.0;"/><path d="M1328.7988,596.9375 Q1328.2206,597.2344 1327.58,597.375 Q1326.9394,597.5313 1326.2363,597.5313 Q1323.7363,597.5313 1322.4081,595.8906 Q1321.0956,594.2344 1321.0956,591.1094 Q1321.0956,587.9844 1322.4081,586.3281 Q1323.7363,584.6719 1326.2363,584.6719 Q1326.9394,584.6719 1327.58,584.8281 Q1328.2363,584.9844 1328.7988,585.2813 L1328.7988,588 Q1328.1738,587.4219 1327.58,587.1563 Q1326.9863,586.875 1326.3613,586.875 Q1325.0175,586.875 1324.33,587.9531 Q1323.6425,589.0156 1323.6425,591.1094 Q1323.6425,593.2031 1324.33,594.2813 Q1325.0175,595.3438 1326.3613,595.3438 Q1326.9863,595.3438 1327.58,595.0781 Q1328.1738,594.7969 1328.7988,594.2188 L1328.7988,596.9375 Z " fill="#000000"/><text fill="#000000" font-family="sans-serif" font-size="14" lengthAdjust="spacing" textLength="83" x="1339.83" y="596.1436">aggregation</text><line style="stroke:#181818;stroke-width:0.5;" x1="1311.83" x2="1424.83" y1="607.2969" y2="607.2969"/><line style="stroke:#181818;stroke-width:0.5;" x1="1311.83" x2="1424.83" y1="615.2969" y2="615.2969"/></g><!--class overarch_association--><g id="elem_overarch_association"><rect codeLine="46" fill="#F1F1F1" height="48" id="overarch_association" rx="2.5" ry="2.5" style="stroke:#181818;stroke-width:0.5;" width="110" x="1461.33" y="575.2969"/><ellipse cx="1476.33" cy="591.2969" fill="#ADD1B2" rx="11" ry="11" style="stroke:#181818;stroke-width:1.0;"/><path d="M1479.2988,596.9375 Q1478.7206,597.2344 1478.08,597.375 Q1477.4394,597.5313 1476.7363,597.5313 Q1474.2363,597.5313 1472.9081,595.8906 Q1471.5956,594.2344 1471.5956,591.1094 Q1471.5956,587.9844 1472.9081,586.3281 Q1474.2363,584.6719 1476.7363,584.6719 Q1477.4394,584.6719 1478.08,584.8281 Q1478.7363,584.9844 1479.2988,585.2813 L1479.2988,588 Q1478.6738,587.4219 1478.08,587.1563 Q1477.4863,586.875 1476.8613,586.875 Q1475.5175,586.875 1474.83,587.9531 Q1474.1425,589.0156 1474.1425,591.1094 Q1474.1425,593.2031 1474.83,594.2813 Q1475.5175,595.3438 1476.8613,595.3438 Q1477.4863,595.3438 1478.08,595.0781 Q1478.6738,594.7969 1479.2988,594.2188 L1479.2988,596.9375 Z " fill="#000000"/><text fill="#000000" font-family="sans-serif" font-size="14" lengthAdjust="spacing" textLength="78" x="1490.33" y="596.1436">association</text><line style="stroke:#181818;stroke-width:0.5;" x1="1462.33" x2="1570.33" y1="607.2969" y2="607.2969"/><line style="stroke:#181818;stroke-width:0.5;" x1="1462.33" x2="1570.33" y1="615.2969" y2="615.2969"/></g><!--reverse link overarch_element to overarch_identifiableElement--><g id="link_overarch_element_overarch_identifiableElement"><path codeLine="47" d="M676.66,133.6069 C663.06,153.4969 647.67,176.0169 635.58,193.7069 " fill="none" id="overarch_element-backto-overarch_identifiableElement" style="stroke:#181818;stroke-width:1.0;"/><polygon fill="none" points="670.95,129.5569,688.01,116.9869,682.5,137.4569,670.95,129.5569" style="stroke:#181818;stroke-width:1.0;"/></g><!--reverse link overarch_element to overarch_namedElement--><g id="link_overarch_element_overarch_namedElement"><path codeLine="48" d="M742.04,133.6469 C753.53,150.4769 766.31,169.1769 777.29,185.2369 " fill="none" id="overarch_element-backto-overarch_namedElement" style="stroke:#181818;stroke-width:1.0;"/><polygon fill="none" points="736.16,137.4569,730.65,116.9869,747.71,129.5569,736.16,137.4569" style="stroke:#181818;stroke-width:1.0;"/></g><!--reverse link overarch_identifiableElement to overarch_identifiableNamedElement--><g id="link_overarch_identifiableElement_overarch_identifiableNamedElement"><path codeLine="49" d="M526.04,265.9869 C481.32,285.8269 428.57,309.2469 390.39,326.1869 " fill="none" id="overarch_identifiableElement-backto-overarch_identifiableNamedElement" style="stroke:#181818;stroke-width:1.0;"/><polygon fill="none" points="523.21,259.5869,544.33,257.8669,528.89,272.3769,523.21,259.5869" style="stroke:#181818;stroke-width:1.0;"/></g><!--reverse link overarch_namedElement to overarch_identifiableNamedElement--><g id="link_overarch_namedElement_overarch_identifiableNamedElement"><path codeLine="50" d="M713.83,266.2069 C615.31,297.7069 520.54,317.7769 449.19,330.9569 " fill="none" id="overarch_namedElement-backto-overarch_identifiableNamedElement" style="stroke:#181818;stroke-width:1.0;"/><polygon fill="none" points="711.74,259.5269,732.93,259.9669,716.09,272.8269,711.74,259.5269" style="stroke:#181818;stroke-width:1.0;"/></g><!--reverse link overarch_identifiableElement to overarch_relationalElement--><g id="link_overarch_identifiableElement_overarch_relationalElement"><path codeLine="51" d="M708.74,265.4669 C827.31,314.0369 1028.57,396.4769 1139.02,441.7169 " fill="none" id="overarch_identifiableElement-backto-overarch_relationalElement" style="stroke:#181818;stroke-width:1.0;"/><polygon fill="none" points="705.94,271.8869,690.09,257.8269,711.25,258.9369,705.94,271.8869" style="stroke:#181818;stroke-width:1.0;"/></g><!--reverse link overarch_namedElement to overarch_namedRelationalElement--><g id="link_overarch_namedElement_overarch_namedRelationalElement"><path codeLine="52" d="M894.39,263.3869 C996.15,304.7669 1166.71,374.2069 1313.33,434.2969 C1435.55,484.3869 1578.73,543.4869 1655.66,575.2769 " fill="none" id="overarch_namedElement-backto-overarch_namedRelationalElement" style="stroke:#181818;stroke-width:1.0;"/><polygon fill="none" points="891.49,269.7669,875.6,255.7469,896.76,256.7969,891.49,269.7669" style="stroke:#181818;stroke-width:1.0;"/></g><!--reverse link overarch_relationalElement to overarch_namedRelationalElement--><g id="link_overarch_relationalElement_overarch_namedRelationalElement"><path codeLine="53" d="M1314.85,499.9769 C1402.87,521.8069 1531.5,553.7069 1618.16,575.1869 " fill="none" id="overarch_relationalElement-backto-overarch_namedRelationalElement" style="stroke:#181818;stroke-width:1.0;"/><polygon fill="none" points="1313.06,506.7469,1295.33,495.1369,1316.43,493.1569,1313.06,506.7469" style="stroke:#181818;stroke-width:1.0;"/></g><!--reverse link overarch_identifiableNamedElement to overarch_classModelElement--><g id="link_overarch_identifiableNamedElement_overarch_classModelElement"><path codeLine="54" d="M407.56,382.7069 C454.3,403.9069 514.96,431.4369 557.31,450.6469 " fill="none" id="overarch_identifiableNamedElement-backto-overarch_classModelElement" style="stroke:#181818;stroke-width:1.0;"/><polygon fill="none" points="404.44,388.9769,389.12,374.3369,410.22,376.2269,404.44,388.9769" style="stroke:#181818;stroke-width:1.0;"/></g><!--reverse link overarch_classModelElement to overarch_package--><g id="link_overarch_classModelElement_overarch_package"><path codeLine="55" d="M501.06,496.5369 C417.08,515.0269 298.22,543.9569 196.33,575.2969 C196.22,575.3269 196.11,575.3669 196,575.3969 " fill="none" id="overarch_classModelElement-backto-overarch_package" style="stroke:#181818;stroke-width:1.0;"/><polygon fill="none" points="499.8,489.6469,520.83,492.2369,502.77,503.3269,499.8,489.6469" style="stroke:#181818;stroke-width:1.0;"/></g><!--link overarch_package to overarch_classModelElement--><g id="link_overarch_package_overarch_classModelElement"><path codeLine="56" d="M208.15,582.9369 C216.02,580.2569 223.88,577.5869 231.33,575.2969 C324.3,546.6969 431.39,520.1069 507.8,501.6269 " fill="none" id="overarch_package-overarch_classModelElement" style="stroke:#181818;stroke-width:1.0;"/><polygon fill="#181818" points="195.83,587.1269,202.7987,588.9807,207.1902,583.261,200.2215,581.4072,195.83,587.1269" style="stroke:#181818;stroke-width:1.0;"/><polygon fill="#181818" points="520.75,498.4969,511.062,496.7242,515.8901,499.672,512.9423,504.5001,520.75,498.4969" style="stroke:#181818;stroke-width:1.0;"/><line style="stroke:#181818;stroke-width:1.0;" x1="515.8901" x2="508.11" y1="499.672" y2="501.5519"/><text fill="#000000" font-family="sans-serif" font-size="13" lengthAdjust="spacing" textLength="24" x="488.8147" y="496.86">0..n</text></g><!--reverse link overarch_classModelElement to overarch_namespace--><g id="link_overarch_classModelElement_overarch_namespace"><path codeLine="57" d="M518.91,505.6769 C460.31,527.1069 386.04,555.5669 337.49,575.2569 " fill="none" id="overarch_classModelElement-backto-overarch_namespace" style="stroke:#181818;stroke-width:1.0;"/><polygon fill="none" points="516.54,499.0869,537.73,498.8369,521.32,512.2469,516.54,499.0869" style="stroke:#181818;stroke-width:1.0;"/></g><!--link overarch_namespace to overarch_classModelElement--><g id="link_overarch_namespace_overarch_classModelElement"><path codeLine="58" d="M356.47,575.9969 C413.12,555.6869 492.2,525.6169 546.72,503.7169 " fill="none" id="overarch_namespace-overarch_classModelElement" style="stroke:#181818;stroke-width:1.0;"/><polygon fill="#181818" points="344.02,580.4269,351.0132,582.1862,355.3269,576.4075,348.3336,574.6483,344.02,580.4269" style="stroke:#181818;stroke-width:1.0;"/><polygon fill="#181818" points="558.78,498.8369,548.9369,498.4996,554.1441,500.7099,551.9338,505.9171,558.78,498.8369" style="stroke:#181818;stroke-width:1.0;"/><line style="stroke:#181818;stroke-width:1.0;" x1="554.1441" x2="546.725" y1="500.7099" y2="503.7069"/><text fill="#000000" font-family="sans-serif" font-size="13" lengthAdjust="spacing" textLength="24" x="519.0078" y="519.0029">0..n</text></g><!--reverse link overarch_classModelElement to overarch_interface--><g id="link_overarch_classModelElement_overarch_interface"><path codeLine="59" d="M557.13,510.0669 C526.1,530.8369 487.34,556.7869 459.91,575.1469 " fill="none" id="overarch_classModelElement-backto-overarch_interface" style="stroke:#181818;stroke-width:1.0;"/><polygon fill="none" points="553.4,504.1469,573.91,498.8369,561.18,515.7769,553.4,504.1469" style="stroke:#181818;stroke-width:1.0;"/></g><!--link overarch_interface to overarch_method--><g id="link_overarch_interface_overarch_method"><path codeLine="60" d="M446.38,634.6369 C454.85,648.4469 464.79,664.6669 474.07,679.8069 " fill="none" id="overarch_interface-overarch_method" style="stroke:#181818;stroke-width:1.0;"/><polygon fill="#181818" points="439.45,623.3269,439.1708,630.5326,445.7149,633.5617,445.994,626.356,439.45,623.3269" style="stroke:#181818;stroke-width:1.0;"/><polygon fill="#181818" points="481,691.1069,479.7038,681.3437,478.3856,686.8448,472.8845,685.5267,481,691.1069" style="stroke:#181818;stroke-width:1.0;"/><line style="stroke:#181818;stroke-width:1.0;" x1="478.3856" x2="474.21" y1="686.8448" y2="680.0269"/><text fill="#000000" font-family="sans-serif" font-size="13" lengthAdjust="spacing" textLength="24" x="450.9828" y="680.2369">0..n</text></g><!--reverse link overarch_classModelElement to overarch_protocol--><g id="link_overarch_classModelElement_overarch_protocol"><path codeLine="61" d="M589.09,517.1369 C580.13,536.4069 569.79,558.6269 562.2,574.9469 " fill="none" id="overarch_classModelElement-backto-overarch_protocol" style="stroke:#181818;stroke-width:1.0;"/><polygon fill="none" points="582.82,514.0169,597.61,498.8369,595.52,519.9269,582.82,514.0169" style="stroke:#181818;stroke-width:1.0;"/></g><!--link overarch_protocol to overarch_method--><g id="link_overarch_protocol_overarch_method"><path codeLine="62" d="M538.87,635.6369 C534.2,648.8969 528.79,664.2569 523.69,678.7169 " fill="none" id="overarch_protocol-overarch_method" style="stroke:#181818;stroke-width:1.0;"/><polygon fill="#181818" points="543.21,623.3269,537.4448,627.6585,539.2258,634.6462,544.991,630.3146,543.21,623.3269" style="stroke:#181818;stroke-width:1.0;"/><polygon fill="#181818" points="519.32,691.1069,526.0887,683.9525,520.985,686.3922,518.5452,681.2885,519.32,691.1069" style="stroke:#181818;stroke-width:1.0;"/><line style="stroke:#181818;stroke-width:1.0;" x1="520.985" x2="523.64" y1="686.3922" y2="678.8519"/><text fill="#000000" font-family="sans-serif" font-size="13" lengthAdjust="spacing" textLength="24" x="495.6496" y="680.2369">0..n</text></g><!--reverse link overarch_classModelElement to overarch_class--><g id="link_overarch_classModelElement_overarch_class"><path codeLine="63" d="M627.23,517.1369 C636.04,536.4069 646.2,558.6269 653.65,574.9469 " fill="none" id="overarch_classModelElement-backto-overarch_class" style="stroke:#181818;stroke-width:1.0;"/><polygon fill="none" points="620.81,519.9369,618.86,498.8369,633.54,514.1169,620.81,519.9369" style="stroke:#181818;stroke-width:1.0;"/></g><!--link overarch_class to overarch_field--><g id="link_overarch_class_overarch_field"><path codeLine="64" d="M676.6,635.8869 C680.33,646.6969 684.53,658.8869 688.65,670.8369 " fill="none" id="overarch_class-overarch_field" style="stroke:#181818;stroke-width:1.0;"/><polygon fill="#181818" points="672.27,623.3269,670.4405,630.302,676.1754,634.6736,678.0049,627.6984,672.27,623.3269" style="stroke:#181818;stroke-width:1.0;"/><polygon fill="#181818" points="692.9,683.1369,693.743,673.3242,691.2678,678.4108,686.1812,675.9356,692.9,683.1369" style="stroke:#181818;stroke-width:1.0;"/><line style="stroke:#181818;stroke-width:1.0;" x1="691.2678" x2="688.66" y1="678.4108" y2="670.8519"/><text fill="#000000" font-family="sans-serif" font-size="13" lengthAdjust="spacing" textLength="24" x="664.902" y="672.3233">0..n</text></g><!--link overarch_class to overarch_method--><g id="link_overarch_class_overarch_method"><path codeLine="65" d="M626.1,631.6769 C607.5,646.9469 584.72,665.6369 563.99,682.6569 " fill="none" id="overarch_class-overarch_method" style="stroke:#181818;stroke-width:1.0;"/><polygon fill="#181818" points="636.27,623.3269,629.0945,624.0427,626.9954,630.9415,634.1709,630.2257,636.27,623.3269" style="stroke:#181818;stroke-width:1.0;"/><polygon fill="#181818" points="553.68,691.1069,563.1745,688.4889,557.5449,687.9347,558.0991,682.3051,553.68,691.1069" style="stroke:#181818;stroke-width:1.0;"/><line style="stroke:#181818;stroke-width:1.0;" x1="557.5449" x2="563.735" y1="687.9347" y2="682.8619"/><text fill="#000000" font-family="sans-serif" font-size="13" lengthAdjust="spacing" textLength="24" x="535.7005" y="680.2369">0..n</text></g><!--reverse link overarch_classModelElement to overarch_enum--><g id="link_overarch_classModelElement_overarch_enum"><path codeLine="66" d="M654.9,511.2369 C681.94,531.8069 715.22,557.1269 738.91,575.1469 " fill="none" id="overarch_classModelElement-backto-overarch_enum" style="stroke:#181818;stroke-width:1.0;"/><polygon fill="none" points="650.29,516.5169,638.61,498.8369,658.77,505.3769,650.29,516.5169" style="stroke:#181818;stroke-width:1.0;"/></g><!--reverse link overarch_relationalElement to overarch_implementation--><g id="link_overarch_relationalElement_overarch_implementation"><path codeLine="67" d="M1120.39,514.4769 C1070.33,534.4569 1010.93,558.1569 968.09,575.2469 " fill="none" id="overarch_relationalElement-backto-overarch_implementation" style="stroke:#181818;stroke-width:1.0;"/><polygon fill="none" points="1117.9,507.9369,1139.07,507.0269,1123.09,520.9369,1117.9,507.9369" style="stroke:#181818;stroke-width:1.0;"/></g><!--reverse link overarch_classModelElement to overarch_implementation--><g id="link_overarch_classModelElement_overarch_implementation"><path codeLine="68" d="M683.71,506.3769 C736.35,527.7269 805.51,555.7769 853.52,575.2569 " fill="none" id="overarch_classModelElement-backto-overarch_implementation" style="stroke:#181818;stroke-width:1.0;"/><polygon fill="none" points="681.04,512.8469,665.13,498.8369,686.3,499.8669,681.04,512.8469" style="stroke:#181818;stroke-width:1.0;"/></g><!--reverse link overarch_relationalElement to overarch_inheritance--><g id="link_overarch_relationalElement_overarch_inheritance"><path codeLine="69" d="M1153.78,528.3969 C1134.04,544.7369 1113.3,561.9069 1097.31,575.1369 " fill="none" id="overarch_relationalElement-backto-overarch_inheritance" style="stroke:#181818;stroke-width:1.0;"/><polygon fill="none" points="1149.41,522.9269,1169.28,515.5669,1158.34,533.7169,1149.41,522.9269" style="stroke:#181818;stroke-width:1.0;"/></g><!--reverse link overarch_classModelElement to overarch_inheritance--><g id="link_overarch_classModelElement_overarch_inheritance"><path codeLine="70" d="M715.76,501.4769 C794.13,520.6469 902.72,548.1169 997.33,575.2969 C1003.01,576.9269 1008.91,578.6969 1014.79,580.5069 " fill="none" id="overarch_classModelElement-backto-overarch_inheritance" style="stroke:#181818;stroke-width:1.0;"/><polygon fill="none" points="713.79,508.1969,696.02,496.6669,717.11,494.5969,713.79,508.1969" style="stroke:#181818;stroke-width:1.0;"/></g><!--reverse link overarch_relationalElement to overarch_composition--><g id="link_overarch_relationalElement_overarch_composition"><path codeLine="71" d="M1217.33,535.7169 C1217.33,549.7469 1217.33,563.8669 1217.33,575.1369 " fill="none" id="overarch_relationalElement-backto-overarch_composition" style="stroke:#181818;stroke-width:1.0;"/><polygon fill="none" points="1210.33,535.5669,1217.33,515.5669,1224.33,535.5669,1210.33,535.5669" style="stroke:#181818;stroke-width:1.0;"/></g><!--reverse link overarch_classModelElement to overarch_composition--><g id="link_overarch_classModelElement_overarch_composition"><path codeLine="72" d="M715.98,492.3469 C824.16,509.7969 995.34,539.6869 1141.33,575.2969 C1146.96,576.6669 1152.78,578.2069 1158.59,579.8269 " fill="none" id="overarch_classModelElement-backto-overarch_composition" style="stroke:#181818;stroke-width:1.0;"/><polygon fill="none" points="714.84,499.2469,696.2,489.1769,717.06,485.4269,714.84,499.2469" style="stroke:#181818;stroke-width:1.0;"/></g><!--reverse link overarch_relationalElement to overarch_aggregation--><g id="link_overarch_relationalElement_overarch_aggregation"><path codeLine="73" d="M1282.17,528.3969 C1302.3,544.7369 1323.47,561.9069 1339.79,575.1369 " fill="none" id="overarch_relationalElement-backto-overarch_aggregation" style="stroke:#181818;stroke-width:1.0;"/><polygon fill="none" points="1277.48,533.6069,1266.36,515.5669,1286.3,522.7369,1277.48,533.6069" style="stroke:#181818;stroke-width:1.0;"/></g><!--reverse link overarch_classModelElement to overarch_aggregation--><g id="link_overarch_classModelElement_overarch_aggregation"><path codeLine="74" d="M715.94,486.2669 C851.64,500.6469 1091.61,529.9969 1293.33,575.2969 C1298.91,576.5469 1304.68,578.0069 1310.42,579.5769 " fill="none" id="overarch_classModelElement-backto-overarch_aggregation" style="stroke:#181818;stroke-width:1.0;"/><polygon fill="none" points="715.05,493.2069,695.89,484.1669,716.51,479.2869,715.05,493.2069" style="stroke:#181818;stroke-width:1.0;"/></g><!--reverse link overarch_relationalElement to overarch_association--><g id="link_overarch_relationalElement_overarch_association"><path codeLine="75" d="M1314.05,515.4269 C1362.79,535.3869 1420.11,558.8769 1461.26,575.7369 " fill="none" id="overarch_relationalElement-backto-overarch_association" style="stroke:#181818;stroke-width:1.0;"/><polygon fill="none" points="1311.35,521.8869,1295.5,507.8269,1316.66,508.9269,1311.35,521.8869" style="stroke:#181818;stroke-width:1.0;"/></g><!--reverse link overarch_classModelElement to overarch_association--><g id="link_overarch_classModelElement_overarch_association"><path codeLine="76" d="M716.25,482.1969 C876.39,493.1469 1185.76,519.8869 1443.33,575.2969 C1449.18,576.5569 1455.22,578.0769 1461.22,579.7469 " fill="none" id="overarch_classModelElement-backto-overarch_association" style="stroke:#181818;stroke-width:1.0;"/><polygon fill="none" points="715.55,489.1669,696.06,480.8469,716.49,475.1969,715.55,489.1669" style="stroke:#181818;stroke-width:1.0;"/></g><!--reverse link overarch_namedElement to overarch_field--><g id="link_overarch_namedElement_overarch_field"><path codeLine="77" d="M895.55,230.5669 C1194.56,245.9369 2110.44,318.4269 1833.33,623.2969 C1762.09,701.6769 1010.02,724.3369 777.46,729.4869 " fill="none" id="overarch_namedElement-backto-overarch_field" style="stroke:#181818;stroke-width:1.0;"/><polygon fill="none" points="895.15,237.5569,875.52,229.5769,895.84,223.5769,895.15,237.5569" style="stroke:#181818;stroke-width:1.0;"/></g><!--reverse link overarch_namedElement to overarch_method--><g id="link_overarch_namedElement_overarch_method"><path codeLine="78" d="M714.92,267.1969 C526.75,352.6269 105.55,546.1769 87.33,575.2969 C6,705.2569 300.53,727.2069 438.16,730.4769 " fill="none" id="overarch_namedElement-backto-overarch_method" style="stroke:#181818;stroke-width:1.0;"/><polygon fill="none" points="712.08,260.7969,733.19,258.9069,717.87,273.5469,712.08,260.7969" style="stroke:#181818;stroke-width:1.0;"/></g><!--SRC=[hLNBYjmm4BpxAyGS5xpa748kOO_PG7uWo7RRRbQMZAITPTZatwEHNx8UVi2S1bTrLycjdh96pO3ykeAy8dmGKHFT0ld1g5BafwY0aHS67N2jCbeeBMcfIMdP2mp4XL15X16Wicp_Z23vp0WnpL_96zm-XAooVq4_LgOGQwG5WpmgvbQyEC9ORGfpsa4LLxIKAtK7Z9WHGDwOvmfKkJpl77h3oArxTKm3GGcCQXISihZGmhl7hgNed1aGeiM1aUnvsQhVlc4Wfg5iEPOfbPbs3wpU2tthLwE-rssDslxatNq9uqQsm2xfTDAniwVb6srWNJs2cJCHPJ08Hs3XgGwv1ba7TJCyUqgXHIcOPpgYcVjEaRUOUE3ldVU7CiZ4rWYiMjCMiXFsntj5XGKorBVLeeX-k5m35a8meDoCVjJlGBV2CnWmwv1GN1lFOjZrmwtORVAcj-AMKRSWKLCU3dicva6AhXSAGsc7c6ffqqXe8iTmYBbMAL5Yh7OXiY3jlltDyytOscjnSodRpB-qrMjKOvLuPvlt3n34qo7dHD1iXDwv_jIRUJ9XWAGfhtLA4nyWJtd-dP3Bb-Tdiq2FS5eIAOGUxxRaMWWbt8Q4E36wAHC3v446GwAk7nFIDZwFbPuzXGtkmnlj9UBn-qhqxVevaNfYEI9DUqvk81-_mbZJdfCRvuUTeasxJh6FmQvJh6aZ9BtTtAWSLlC_]--></g></svg>