<?xml version="1.0" encoding="us-ascii" standalone="no"?><svg xmlns="http://www.w3.org/2000/svg" xmlns:xlink="http://www.w3.org/1999/xlink" contentStyleType="text/css" height="1905px" preserveAspectRatio="none" style="width:1593px;height:1905px;background:#FFFFFF;" version="1.1" viewBox="0 0 1593 1905" width="1593px" zoomAndPan="magnify"><defs/><g><text fill="#000000" font-family="sans-serif" font-size="14" font-weight="bold" lengthAdjust="spacing" textLength="297" x="641" y="22.9951">Overview of the Overarch Data Model</text><!--class overarch_element--><g id="elem_overarch_element"><rect codeLine="6" fill="#F1F1F1" height="64.2969" id="overarch_element" rx="2.5" ry="2.5" style="stroke:#181818;stroke-width:0.5;" width="95" x="37.5" y="603.2969"/><ellipse cx="55.2" cy="619.2969" fill="#A9DCDF" rx="11" ry="11" style="stroke:#181818;stroke-width:1.0;"/><path d="M55.3094,614.6406 L54.1531,619.7188 L56.4813,619.7188 L55.3094,614.6406 Z M53.825,612.4063 L56.8094,612.4063 L60.1688,624.7969 L57.7156,624.7969 L56.95,621.7344 L53.6688,621.7344 L52.9188,624.7969 L50.4813,624.7969 L53.825,612.4063 Z " fill="#000000"/><text fill="#000000" font-family="sans-serif" font-size="14" font-style="italic" lengthAdjust="spacing" textLength="57" x="69.8" y="624.1436">element</text><line style="stroke:#181818;stroke-width:0.5;" x1="38.5" x2="131.5" y1="635.2969" y2="635.2969"/><text fill="#000000" font-family="sans-serif" font-size="14" lengthAdjust="spacing" textLength="83" x="43.5" y="652.292">el : keyword</text><line style="stroke:#181818;stroke-width:0.5;" x1="38.5" x2="131.5" y1="659.5938" y2="659.5938"/></g><!--class overarch_identifiableElement--><g id="elem_overarch_identifiableElement"><rect codeLine="9" fill="#F1F1F1" height="64.2969" id="overarch_identifiableElement" rx="2.5" ry="2.5" style="stroke:#181818;stroke-width:0.5;" width="168" x="223" y="549.2969"/><ellipse cx="238" cy="565.2969" fill="#A9DCDF" rx="11" ry="11" style="stroke:#181818;stroke-width:1.0;"/><path d="M238.1094,560.6406 L236.9531,565.7188 L239.2813,565.7188 L238.1094,560.6406 Z M236.625,558.4063 L239.6094,558.4063 L242.9688,570.7969 L240.5156,570.7969 L239.75,567.7344 L236.4688,567.7344 L235.7188,570.7969 L233.2813,570.7969 L236.625,558.4063 Z " fill="#000000"/><text fill="#000000" font-family="sans-serif" font-size="14" font-style="italic" lengthAdjust="spacing" textLength="136" x="252" y="570.1436">identifiable-element</text><line style="stroke:#181818;stroke-width:0.5;" x1="224" x2="390" y1="581.2969" y2="581.2969"/><text fill="#000000" font-family="sans-serif" font-size="14" lengthAdjust="spacing" textLength="83" x="229" y="598.292">id : keyword</text><line style="stroke:#181818;stroke-width:0.5;" x1="224" x2="390" y1="605.5938" y2="605.5938"/></g><!--class overarch_namedElement--><g id="elem_overarch_namedElement"><rect codeLine="12" fill="#F1F1F1" height="80.5938" id="overarch_namedElement" rx="2.5" ry="2.5" style="stroke:#181818;stroke-width:0.5;" width="142" x="236" y="648.7969"/><ellipse cx="251" cy="664.7969" fill="#A9DCDF" rx="11" ry="11" style="stroke:#181818;stroke-width:1.0;"/><path d="M251.1094,660.1406 L249.9531,665.2188 L252.2813,665.2188 L251.1094,660.1406 Z M249.625,657.9063 L252.6094,657.9063 L255.9688,670.2969 L253.5156,670.2969 L252.75,667.2344 L249.4688,667.2344 L248.7188,670.2969 L246.2813,670.2969 L249.625,657.9063 Z " fill="#000000"/><text fill="#000000" font-family="sans-serif" font-size="14" font-style="italic" lengthAdjust="spacing" textLength="110" x="265" y="669.6436">named-element</text><line style="stroke:#181818;stroke-width:0.5;" x1="237" x2="377" y1="680.7969" y2="680.7969"/><text fill="#000000" font-family="sans-serif" font-size="14" lengthAdjust="spacing" textLength="91" x="242" y="697.792">name : string</text><text fill="#000000" font-family="sans-serif" font-size="14" lengthAdjust="spacing" textLength="86" x="242" y="714.0889">desc : string</text><line style="stroke:#181818;stroke-width:0.5;" x1="237" x2="377" y1="721.3906" y2="721.3906"/></g><!--class overarch_identifiableNamedElement--><g id="elem_overarch_identifiableNamedElement"><rect codeLine="16" fill="#F1F1F1" height="48" id="overarch_identifiableNamedElement" rx="2.5" ry="2.5" style="stroke:#181818;stroke-width:0.5;" width="221" x="451" y="611.2969"/><ellipse cx="466" cy="627.2969" fill="#A9DCDF" rx="11" ry="11" style="stroke:#181818;stroke-width:1.0;"/><path d="M466.1094,622.6406 L464.9531,627.7188 L467.2813,627.7188 L466.1094,622.6406 Z M464.625,620.4063 L467.6094,620.4063 L470.9688,632.7969 L468.5156,632.7969 L467.75,629.7344 L464.4688,629.7344 L463.7188,632.7969 L461.2813,632.7969 L464.625,620.4063 Z " fill="#000000"/><text fill="#000000" font-family="sans-serif" font-size="14" font-style="italic" lengthAdjust="spacing" textLength="189" x="480" y="632.1436">identifiable-named-element</text><line style="stroke:#181818;stroke-width:0.5;" x1="452" x2="671" y1="643.2969" y2="643.2969"/><line style="stroke:#181818;stroke-width:0.5;" x1="452" x2="671" y1="651.2969" y2="651.2969"/></g><!--class overarch_relationalElement--><g id="elem_overarch_relationalElement"><rect codeLine="17" fill="#F1F1F1" height="80.5938" id="overarch_relationalElement" rx="2.5" ry="2.5" style="stroke:#181818;stroke-width:0.5;" width="156" x="766.5" y="837.7969"/><ellipse cx="781.5" cy="853.7969" fill="#A9DCDF" rx="11" ry="11" style="stroke:#181818;stroke-width:1.0;"/><path d="M781.6094,849.1406 L780.4531,854.2188 L782.7813,854.2188 L781.6094,849.1406 Z M780.125,846.9063 L783.1094,846.9063 L786.4688,859.2969 L784.0156,859.2969 L783.25,856.2344 L779.9688,856.2344 L779.2188,859.2969 L776.7813,859.2969 L780.125,846.9063 Z " fill="#000000"/><text fill="#000000" font-family="sans-serif" font-size="14" font-style="italic" lengthAdjust="spacing" textLength="124" x="795.5" y="858.6436">relational-element</text><line style="stroke:#181818;stroke-width:0.5;" x1="767.5" x2="921.5" y1="869.7969" y2="869.7969"/><text fill="#000000" font-family="sans-serif" font-size="14" lengthAdjust="spacing" textLength="102" x="772.5" y="886.792">from : keyword</text><text fill="#000000" font-family="sans-serif" font-size="14" lengthAdjust="spacing" textLength="85" x="772.5" y="903.0889">to : keyword</text><line style="stroke:#181818;stroke-width:0.5;" x1="767.5" x2="921.5" y1="910.3906" y2="910.3906"/></g><!--class overarch_namedRelationalElement--><g id="elem_overarch_namedRelationalElement"><rect codeLine="21" fill="#F1F1F1" height="48" id="overarch_namedRelationalElement" rx="2.5" ry="2.5" style="stroke:#181818;stroke-width:0.5;" width="209" x="1017" y="688.2969"/><ellipse cx="1032" cy="704.2969" fill="#A9DCDF" rx="11" ry="11" style="stroke:#181818;stroke-width:1.0;"/><path d="M1032.1094,699.6406 L1030.9531,704.7188 L1033.2813,704.7188 L1032.1094,699.6406 Z M1030.625,697.4063 L1033.6094,697.4063 L1036.9688,709.7969 L1034.5156,709.7969 L1033.75,706.7344 L1030.4688,706.7344 L1029.7188,709.7969 L1027.2813,709.7969 L1030.625,697.4063 Z " fill="#000000"/><text fill="#000000" font-family="sans-serif" font-size="14" font-style="italic" lengthAdjust="spacing" textLength="177" x="1046" y="709.1436">named-relational-element</text><line style="stroke:#181818;stroke-width:0.5;" x1="1018" x2="1225" y1="720.2969" y2="720.2969"/><line style="stroke:#181818;stroke-width:0.5;" x1="1018" x2="1225" y1="728.2969" y2="728.2969"/></g><!--class overarch_technicalElement--><g id="elem_overarch_technicalElement"><rect codeLine="22" fill="#F1F1F1" height="64.2969" id="overarch_technicalElement" rx="2.5" ry="2.5" style="stroke:#181818;stroke-width:0.5;" width="156" x="7" y="765.2969"/><ellipse cx="22" cy="781.2969" fill="#A9DCDF" rx="11" ry="11" style="stroke:#181818;stroke-width:1.0;"/><path d="M22.1094,776.6406 L20.9531,781.7188 L23.2813,781.7188 L22.1094,776.6406 Z M20.625,774.4063 L23.6094,774.4063 L26.9688,786.7969 L24.5156,786.7969 L23.75,783.7344 L20.4688,783.7344 L19.7188,786.7969 L17.2813,786.7969 L20.625,774.4063 Z " fill="#000000"/><text fill="#000000" font-family="sans-serif" font-size="14" font-style="italic" lengthAdjust="spacing" textLength="124" x="36" y="786.1436">technical-element</text><line style="stroke:#181818;stroke-width:0.5;" x1="8" x2="162" y1="797.2969" y2="797.2969"/><text fill="#000000" font-family="sans-serif" font-size="14" lengthAdjust="spacing" textLength="83" x="13" y="814.292">tech : string</text><line style="stroke:#181818;stroke-width:0.5;" x1="8" x2="162" y1="821.5938" y2="821.5938"/></g><!--class overarch_architectureModelElement--><g id="elem_overarch_architectureModelElement"><rect codeLine="25" fill="#F1F1F1" height="48" id="overarch_architectureModelElement" rx="2.5" ry="2.5" style="stroke:#181818;stroke-width:0.5;" width="225" x="732" y="340.2969"/><ellipse cx="747" cy="356.2969" fill="#A9DCDF" rx="11" ry="11" style="stroke:#181818;stroke-width:1.0;"/><path d="M747.1094,351.6406 L745.9531,356.7188 L748.2813,356.7188 L747.1094,351.6406 Z M745.625,349.4063 L748.6094,349.4063 L751.9688,361.7969 L749.5156,361.7969 L748.75,358.7344 L745.4688,358.7344 L744.7188,361.7969 L742.2813,361.7969 L745.625,349.4063 Z " fill="#000000"/><text fill="#000000" font-family="sans-serif" font-size="14" font-style="italic" lengthAdjust="spacing" textLength="193" x="761" y="361.1436">architecture-model-element</text><line style="stroke:#181818;stroke-width:0.5;" x1="733" x2="956" y1="372.2969" y2="372.2969"/><line style="stroke:#181818;stroke-width:0.5;" x1="733" x2="956" y1="380.2969" y2="380.2969"/></g><!--class overarch_deploymentModelElement--><g id="elem_overarch_deploymentModelElement"><rect codeLine="27" fill="#F1F1F1" height="48" id="overarch_deploymentModelElement" rx="2.5" ry="2.5" style="stroke:#181818;stroke-width:0.5;" width="225" x="732" y="83.2969"/><ellipse cx="747" cy="99.2969" fill="#A9DCDF" rx="11" ry="11" style="stroke:#181818;stroke-width:1.0;"/><path d="M747.1094,94.6406 L745.9531,99.7188 L748.2813,99.7188 L747.1094,94.6406 Z M745.625,92.4063 L748.6094,92.4063 L751.9688,104.7969 L749.5156,104.7969 L748.75,101.7344 L745.4688,101.7344 L744.7188,104.7969 L742.2813,104.7969 L745.625,92.4063 Z " fill="#000000"/><text fill="#000000" font-family="sans-serif" font-size="14" font-style="italic" lengthAdjust="spacing" textLength="193" x="761" y="104.1436">deployment-model-element</text><line style="stroke:#181818;stroke-width:0.5;" x1="733" x2="956" y1="115.2969" y2="115.2969"/><line style="stroke:#181818;stroke-width:0.5;" x1="733" x2="956" y1="123.2969" y2="123.2969"/></g><!--class overarch_stateMachineElement--><g id="elem_overarch_stateMachineElement"><rect codeLine="28" fill="#F1F1F1" height="48" id="overarch_stateMachineElement" rx="2.5" ry="2.5" style="stroke:#181818;stroke-width:0.5;" width="192" x="1025.5" y="1684.2969"/><ellipse cx="1040.5" cy="1700.2969" fill="#A9DCDF" rx="11" ry="11" style="stroke:#181818;stroke-width:1.0;"/><path d="M1040.6094,1695.6406 L1039.4531,1700.7188 L1041.7813,1700.7188 L1040.6094,1695.6406 Z M1039.125,1693.4063 L1042.1094,1693.4063 L1045.4688,1705.7969 L1043.0156,1705.7969 L1042.25,1702.7344 L1038.9688,1702.7344 L1038.2188,1705.7969 L1035.7813,1705.7969 L1039.125,1693.4063 Z " fill="#000000"/><text fill="#000000" font-family="sans-serif" font-size="14" font-style="italic" lengthAdjust="spacing" textLength="160" x="1054.5" y="1705.1436">state-machine-element</text><line style="stroke:#181818;stroke-width:0.5;" x1="1026.5" x2="1216.5" y1="1716.2969" y2="1716.2969"/><line style="stroke:#181818;stroke-width:0.5;" x1="1026.5" x2="1216.5" y1="1724.2969" y2="1724.2969"/></g><!--class overarch_classModelElement--><g id="elem_overarch_classModelElement"><rect codeLine="29" fill="#F1F1F1" height="48" id="overarch_classModelElement" rx="2.5" ry="2.5" style="stroke:#181818;stroke-width:0.5;" width="175" x="757" y="1144.2969"/><ellipse cx="772" cy="1160.2969" fill="#A9DCDF" rx="11" ry="11" style="stroke:#181818;stroke-width:1.0;"/><path d="M772.1094,1155.6406 L770.9531,1160.7188 L773.2813,1160.7188 L772.1094,1155.6406 Z M770.625,1153.4063 L773.6094,1153.4063 L776.9688,1165.7969 L774.5156,1165.7969 L773.75,1162.7344 L770.4688,1162.7344 L769.7188,1165.7969 L767.2813,1165.7969 L770.625,1153.4063 Z " fill="#000000"/><text fill="#000000" font-family="sans-serif" font-size="14" font-style="italic" lengthAdjust="spacing" textLength="143" x="786" y="1165.1436">class-model-element</text><line style="stroke:#181818;stroke-width:0.5;" x1="758" x2="931" y1="1176.2969" y2="1176.2969"/><line style="stroke:#181818;stroke-width:0.5;" x1="758" x2="931" y1="1184.2969" y2="1184.2969"/></g><!--class overarch_useCaseModelElement--><g id="elem_overarch_useCaseModelElement"><rect codeLine="30" fill="#F1F1F1" height="48" id="overarch_useCaseModelElement" rx="2.5" ry="2.5" style="stroke:#181818;stroke-width:0.5;" width="204" x="742.5" y="514.2969"/><ellipse cx="757.5" cy="530.2969" fill="#A9DCDF" rx="11" ry="11" style="stroke:#181818;stroke-width:1.0;"/><path d="M757.6094,525.6406 L756.4531,530.7188 L758.7813,530.7188 L757.6094,525.6406 Z M756.125,523.4063 L759.1094,523.4063 L762.4688,535.7969 L760.0156,535.7969 L759.25,532.7344 L755.9688,532.7344 L755.2188,535.7969 L752.7813,535.7969 L756.125,523.4063 Z " fill="#000000"/><text fill="#000000" font-family="sans-serif" font-size="14" font-style="italic" lengthAdjust="spacing" textLength="172" x="771.5" y="535.1436">use-case-model-element</text><line style="stroke:#181818;stroke-width:0.5;" x1="743.5" x2="945.5" y1="546.2969" y2="546.2969"/><line style="stroke:#181818;stroke-width:0.5;" x1="743.5" x2="945.5" y1="554.2969" y2="554.2969"/></g><!--class overarch_ref--><g id="elem_overarch_ref"><rect codeLine="31" fill="#F1F1F1" height="64.2969" id="overarch_ref" rx="2.5" ry="2.5" style="stroke:#181818;stroke-width:0.5;" width="101" x="34.5" y="864.2969"/><ellipse cx="72.45" cy="880.2969" fill="#ADD1B2" rx="11" ry="11" style="stroke:#181818;stroke-width:1.0;"/><path d="M75.4188,885.9375 Q74.8406,886.2344 74.2,886.375 Q73.5594,886.5313 72.8563,886.5313 Q70.3563,886.5313 69.0281,884.8906 Q67.7156,883.2344 67.7156,880.1094 Q67.7156,876.9844 69.0281,875.3281 Q70.3563,873.6719 72.8563,873.6719 Q73.5594,873.6719 74.2,873.8281 Q74.8563,873.9844 75.4188,874.2813 L75.4188,877 Q74.7938,876.4219 74.2,876.1563 Q73.6063,875.875 72.9813,875.875 Q71.6375,875.875 70.95,876.9531 Q70.2625,878.0156 70.2625,880.1094 Q70.2625,882.2031 70.95,883.2813 Q71.6375,884.3438 72.9813,884.3438 Q73.6063,884.3438 74.2,884.0781 Q74.7938,883.7969 75.4188,883.2188 L75.4188,885.9375 Z " fill="#000000"/><text fill="#000000" font-family="sans-serif" font-size="14" lengthAdjust="spacing" textLength="18" x="91.55" y="885.1436">ref</text><line style="stroke:#181818;stroke-width:0.5;" x1="35.5" x2="134.5" y1="896.2969" y2="896.2969"/><text fill="#000000" font-family="sans-serif" font-size="14" lengthAdjust="spacing" textLength="89" x="40.5" y="913.292">ref : keyword</text><line style="stroke:#181818;stroke-width:0.5;" x1="35.5" x2="134.5" y1="920.5938" y2="920.5938"/></g><!--class overarch_person--><g id="elem_overarch_person"><rect codeLine="34" fill="#F1F1F1" height="48" id="overarch_person" rx="2.5" ry="2.5" style="stroke:#181818;stroke-width:0.5;" width="81" x="1081" y="340.2969"/><ellipse cx="1096" cy="356.2969" fill="#ADD1B2" rx="11" ry="11" style="stroke:#181818;stroke-width:1.0;"/><path d="M1098.9688,361.9375 Q1098.3906,362.2344 1097.75,362.375 Q1097.1094,362.5313 1096.4063,362.5313 Q1093.9063,362.5313 1092.5781,360.8906 Q1091.2656,359.2344 1091.2656,356.1094 Q1091.2656,352.9844 1092.5781,351.3281 Q1093.9063,349.6719 1096.4063,349.6719 Q1097.1094,349.6719 1097.75,349.8281 Q1098.4063,349.9844 1098.9688,350.2813 L1098.9688,353 Q1098.3438,352.4219 1097.75,352.1563 Q1097.1563,351.875 1096.5313,351.875 Q1095.1875,351.875 1094.5,352.9531 Q1093.8125,354.0156 1093.8125,356.1094 Q1093.8125,358.2031 1094.5,359.2813 Q1095.1875,360.3438 1096.5313,360.3438 Q1097.1563,360.3438 1097.75,360.0781 Q1098.3438,359.7969 1098.9688,359.2188 L1098.9688,361.9375 Z " fill="#000000"/><text fill="#000000" font-family="sans-serif" font-size="14" lengthAdjust="spacing" textLength="49" x="1110" y="361.1436">person</text><line style="stroke:#181818;stroke-width:0.5;" x1="1082" x2="1161" y1="372.2969" y2="372.2969"/><line style="stroke:#181818;stroke-width:0.5;" x1="1082" x2="1161" y1="380.2969" y2="380.2969"/></g><!--class overarch_system--><g id="elem_overarch_system"><rect codeLine="35" fill="#F1F1F1" height="48" id="overarch_system" rx="2.5" ry="2.5" style="stroke:#181818;stroke-width:0.5;" width="82" x="1080.5" y="423.2969"/><ellipse cx="1095.5" cy="439.2969" fill="#ADD1B2" rx="11" ry="11" style="stroke:#181818;stroke-width:1.0;"/><path d="M1098.4688,444.9375 Q1097.8906,445.2344 1097.25,445.375 Q1096.6094,445.5313 1095.9063,445.5313 Q1093.4063,445.5313 1092.0781,443.8906 Q1090.7656,442.2344 1090.7656,439.1094 Q1090.7656,435.9844 1092.0781,434.3281 Q1093.4063,432.6719 1095.9063,432.6719 Q1096.6094,432.6719 1097.25,432.8281 Q1097.9063,432.9844 1098.4688,433.2813 L1098.4688,436 Q1097.8438,435.4219 1097.25,435.1563 Q1096.6563,434.875 1096.0313,434.875 Q1094.6875,434.875 1094,435.9531 Q1093.3125,437.0156 1093.3125,439.1094 Q1093.3125,441.2031 1094,442.2813 Q1094.6875,443.3438 1096.0313,443.3438 Q1096.6563,443.3438 1097.25,443.0781 Q1097.8438,442.7969 1098.4688,442.2188 L1098.4688,444.9375 Z " fill="#000000"/><text fill="#000000" font-family="sans-serif" font-size="14" lengthAdjust="spacing" textLength="50" x="1109.5" y="444.1436">system</text><line style="stroke:#181818;stroke-width:0.5;" x1="1081.5" x2="1161.5" y1="455.2969" y2="455.2969"/><line style="stroke:#181818;stroke-width:0.5;" x1="1081.5" x2="1161.5" y1="463.2969" y2="463.2969"/></g><!--class overarch_container--><g id="elem_overarch_container"><rect codeLine="36" fill="#F1F1F1" height="48" id="overarch_container" rx="2.5" ry="2.5" style="stroke:#181818;stroke-width:0.5;" width="97" x="1301.5" y="269.2969"/><ellipse cx="1316.5" cy="285.2969" fill="#ADD1B2" rx="11" ry="11" style="stroke:#181818;stroke-width:1.0;"/><path d="M1319.4688,290.9375 Q1318.8906,291.2344 1318.25,291.375 Q1317.6094,291.5313 1316.9063,291.5313 Q1314.4063,291.5313 1313.0781,289.8906 Q1311.7656,288.2344 1311.7656,285.1094 Q1311.7656,281.9844 1313.0781,280.3281 Q1314.4063,278.6719 1316.9063,278.6719 Q1317.6094,278.6719 1318.25,278.8281 Q1318.9063,278.9844 1319.4688,279.2813 L1319.4688,282 Q1318.8438,281.4219 1318.25,281.1563 Q1317.6563,280.875 1317.0313,280.875 Q1315.6875,280.875 1315,281.9531 Q1314.3125,283.0156 1314.3125,285.1094 Q1314.3125,287.2031 1315,288.2813 Q1315.6875,289.3438 1317.0313,289.3438 Q1317.6563,289.3438 1318.25,289.0781 Q1318.8438,288.7969 1319.4688,288.2188 L1319.4688,290.9375 Z " fill="#000000"/><text fill="#000000" font-family="sans-serif" font-size="14" lengthAdjust="spacing" textLength="65" x="1330.5" y="290.1436">container</text><line style="stroke:#181818;stroke-width:0.5;" x1="1302.5" x2="1397.5" y1="301.2969" y2="301.2969"/><line style="stroke:#181818;stroke-width:0.5;" x1="1302.5" x2="1397.5" y1="309.2969" y2="309.2969"/></g><!--class overarch_component--><g id="elem_overarch_component"><rect codeLine="37" fill="#F1F1F1" height="48" id="overarch_component" rx="2.5" ry="2.5" style="stroke:#181818;stroke-width:0.5;" width="112" x="1474" y="231.2969"/><ellipse cx="1489" cy="247.2969" fill="#ADD1B2" rx="11" ry="11" style="stroke:#181818;stroke-width:1.0;"/><path d="M1491.9688,252.9375 Q1491.3906,253.2344 1490.75,253.375 Q1490.1094,253.5313 1489.4063,253.5313 Q1486.9063,253.5313 1485.5781,251.8906 Q1484.2656,250.2344 1484.2656,247.1094 Q1484.2656,243.9844 1485.5781,242.3281 Q1486.9063,240.6719 1489.4063,240.6719 Q1490.1094,240.6719 1490.75,240.8281 Q1491.4063,240.9844 1491.9688,241.2813 L1491.9688,244 Q1491.3438,243.4219 1490.75,243.1563 Q1490.1563,242.875 1489.5313,242.875 Q1488.1875,242.875 1487.5,243.9531 Q1486.8125,245.0156 1486.8125,247.1094 Q1486.8125,249.2031 1487.5,250.2813 Q1488.1875,251.3438 1489.5313,251.3438 Q1490.1563,251.3438 1490.75,251.0781 Q1491.3438,250.7969 1491.9688,250.2188 L1491.9688,252.9375 Z " fill="#000000"/><text fill="#000000" font-family="sans-serif" font-size="14" lengthAdjust="spacing" textLength="80" x="1503" y="252.1436">component</text><line style="stroke:#181818;stroke-width:0.5;" x1="1475" x2="1585" y1="263.2969" y2="263.2969"/><line style="stroke:#181818;stroke-width:0.5;" x1="1475" x2="1585" y1="271.2969" y2="271.2969"/></g><!--class overarch_node--><g id="elem_overarch_node"><rect codeLine="38" fill="#F1F1F1" height="48" id="overarch_node" rx="2.5" ry="2.5" style="stroke:#181818;stroke-width:0.5;" width="68" x="1087.5" y="44.2969"/><ellipse cx="1102.5" cy="60.2969" fill="#ADD1B2" rx="11" ry="11" style="stroke:#181818;stroke-width:1.0;"/><path d="M1105.4688,65.9375 Q1104.8906,66.2344 1104.25,66.375 Q1103.6094,66.5313 1102.9063,66.5313 Q1100.4063,66.5313 1099.0781,64.8906 Q1097.7656,63.2344 1097.7656,60.1094 Q1097.7656,56.9844 1099.0781,55.3281 Q1100.4063,53.6719 1102.9063,53.6719 Q1103.6094,53.6719 1104.25,53.8281 Q1104.9063,53.9844 1105.4688,54.2813 L1105.4688,57 Q1104.8438,56.4219 1104.25,56.1563 Q1103.6563,55.875 1103.0313,55.875 Q1101.6875,55.875 1101,56.9531 Q1100.3125,58.0156 1100.3125,60.1094 Q1100.3125,62.2031 1101,63.2813 Q1101.6875,64.3438 1103.0313,64.3438 Q1103.6563,64.3438 1104.25,64.0781 Q1104.8438,63.7969 1105.4688,63.2188 L1105.4688,65.9375 Z " fill="#000000"/><text fill="#000000" font-family="sans-serif" font-size="14" lengthAdjust="spacing" textLength="36" x="1116.5" y="65.1436">node</text><line style="stroke:#181818;stroke-width:0.5;" x1="1088.5" x2="1154.5" y1="76.2969" y2="76.2969"/><line style="stroke:#181818;stroke-width:0.5;" x1="1088.5" x2="1154.5" y1="84.2969" y2="84.2969"/></g><!--class overarch_actor--><g id="elem_overarch_actor"><rect codeLine="39" fill="#F1F1F1" height="48" id="overarch_actor" rx="2.5" ry="2.5" style="stroke:#181818;stroke-width:0.5;" width="67" x="1088" y="605.2969"/><ellipse cx="1103" cy="621.2969" fill="#ADD1B2" rx="11" ry="11" style="stroke:#181818;stroke-width:1.0;"/><path d="M1105.9688,626.9375 Q1105.3906,627.2344 1104.75,627.375 Q1104.1094,627.5313 1103.4063,627.5313 Q1100.9063,627.5313 1099.5781,625.8906 Q1098.2656,624.2344 1098.2656,621.1094 Q1098.2656,617.9844 1099.5781,616.3281 Q1100.9063,614.6719 1103.4063,614.6719 Q1104.1094,614.6719 1104.75,614.8281 Q1105.4063,614.9844 1105.9688,615.2813 L1105.9688,618 Q1105.3438,617.4219 1104.75,617.1563 Q1104.1563,616.875 1103.5313,616.875 Q1102.1875,616.875 1101.5,617.9531 Q1100.8125,619.0156 1100.8125,621.1094 Q1100.8125,623.2031 1101.5,624.2813 Q1102.1875,625.3438 1103.5313,625.3438 Q1104.1563,625.3438 1104.75,625.0781 Q1105.3438,624.7969 1105.9688,624.2188 L1105.9688,626.9375 Z " fill="#000000"/><text fill="#000000" font-family="sans-serif" font-size="14" lengthAdjust="spacing" textLength="35" x="1117" y="626.1436">actor</text><line style="stroke:#181818;stroke-width:0.5;" x1="1089" x2="1154" y1="637.2969" y2="637.2969"/><line style="stroke:#181818;stroke-width:0.5;" x1="1089" x2="1154" y1="645.2969" y2="645.2969"/></g><!--class overarch_useCase--><g id="elem_overarch_useCase"><rect codeLine="40" fill="#F1F1F1" height="64.2969" id="overarch_useCase" rx="2.5" ry="2.5" style="stroke:#181818;stroke-width:0.5;" width="114" x="1064.5" y="506.2969"/><ellipse cx="1087.6" cy="522.2969" fill="#ADD1B2" rx="11" ry="11" style="stroke:#181818;stroke-width:1.0;"/><path d="M1090.5688,527.9375 Q1089.9906,528.2344 1089.35,528.375 Q1088.7094,528.5313 1088.0063,528.5313 Q1085.5063,528.5313 1084.1781,526.8906 Q1082.8656,525.2344 1082.8656,522.1094 Q1082.8656,518.9844 1084.1781,517.3281 Q1085.5063,515.6719 1088.0063,515.6719 Q1088.7094,515.6719 1089.35,515.8281 Q1090.0063,515.9844 1090.5688,516.2813 L1090.5688,519 Q1089.9438,518.4219 1089.35,518.1563 Q1088.7563,517.875 1088.1313,517.875 Q1086.7875,517.875 1086.1,518.9531 Q1085.4125,520.0156 1085.4125,522.1094 Q1085.4125,524.2031 1086.1,525.2813 Q1086.7875,526.3438 1088.1313,526.3438 Q1088.7563,526.3438 1089.35,526.0781 Q1089.9438,525.7969 1090.5688,525.2188 L1090.5688,527.9375 Z " fill="#000000"/><text fill="#000000" font-family="sans-serif" font-size="14" lengthAdjust="spacing" textLength="64" x="1103.4" y="527.1436">use-case</text><line style="stroke:#181818;stroke-width:0.5;" x1="1065.5" x2="1177.5" y1="538.2969" y2="538.2969"/><text fill="#000000" font-family="sans-serif" font-size="14" lengthAdjust="spacing" textLength="102" x="1070.5" y="555.292">level : keyword</text><line style="stroke:#181818;stroke-width:0.5;" x1="1065.5" x2="1177.5" y1="562.5938" y2="562.5938"/></g><!--class overarch_package--><g id="elem_overarch_package"><rect codeLine="43" fill="#F1F1F1" height="48" id="overarch_package" rx="2.5" ry="2.5" style="stroke:#181818;stroke-width:0.5;" width="91" x="1076" y="1435.2969"/><ellipse cx="1091" cy="1451.2969" fill="#ADD1B2" rx="11" ry="11" style="stroke:#181818;stroke-width:1.0;"/><path d="M1093.9688,1456.9375 Q1093.3906,1457.2344 1092.75,1457.375 Q1092.1094,1457.5313 1091.4063,1457.5313 Q1088.9063,1457.5313 1087.5781,1455.8906 Q1086.2656,1454.2344 1086.2656,1451.1094 Q1086.2656,1447.9844 1087.5781,1446.3281 Q1088.9063,1444.6719 1091.4063,1444.6719 Q1092.1094,1444.6719 1092.75,1444.8281 Q1093.4063,1444.9844 1093.9688,1445.2813 L1093.9688,1448 Q1093.3438,1447.4219 1092.75,1447.1563 Q1092.1563,1446.875 1091.5313,1446.875 Q1090.1875,1446.875 1089.5,1447.9531 Q1088.8125,1449.0156 1088.8125,1451.1094 Q1088.8125,1453.2031 1089.5,1454.2813 Q1090.1875,1455.3438 1091.5313,1455.3438 Q1092.1563,1455.3438 1092.75,1455.0781 Q1093.3438,1454.7969 1093.9688,1454.2188 L1093.9688,1456.9375 Z " fill="#000000"/><text fill="#000000" font-family="sans-serif" font-size="14" lengthAdjust="spacing" textLength="59" x="1105" y="1456.1436">package</text><line style="stroke:#181818;stroke-width:0.5;" x1="1077" x2="1166" y1="1467.2969" y2="1467.2969"/><line style="stroke:#181818;stroke-width:0.5;" x1="1077" x2="1166" y1="1475.2969" y2="1475.2969"/></g><!--class overarch_namespace--><g id="elem_overarch_namespace"><rect codeLine="44" fill="#F1F1F1" height="48" id="overarch_namespace" rx="2.5" ry="2.5" style="stroke:#181818;stroke-width:0.5;" width="113" x="1065" y="1518.2969"/><ellipse cx="1080" cy="1534.2969" fill="#ADD1B2" rx="11" ry="11" style="stroke:#181818;stroke-width:1.0;"/><path d="M1082.9688,1539.9375 Q1082.3906,1540.2344 1081.75,1540.375 Q1081.1094,1540.5313 1080.4063,1540.5313 Q1077.9063,1540.5313 1076.5781,1538.8906 Q1075.2656,1537.2344 1075.2656,1534.1094 Q1075.2656,1530.9844 1076.5781,1529.3281 Q1077.9063,1527.6719 1080.4063,1527.6719 Q1081.1094,1527.6719 1081.75,1527.8281 Q1082.4063,1527.9844 1082.9688,1528.2813 L1082.9688,1531 Q1082.3438,1530.4219 1081.75,1530.1563 Q1081.1563,1529.875 1080.5313,1529.875 Q1079.1875,1529.875 1078.5,1530.9531 Q1077.8125,1532.0156 1077.8125,1534.1094 Q1077.8125,1536.2031 1078.5,1537.2813 Q1079.1875,1538.3438 1080.5313,1538.3438 Q1081.1563,1538.3438 1081.75,1538.0781 Q1082.3438,1537.7969 1082.9688,1537.2188 L1082.9688,1539.9375 Z " fill="#000000"/><text fill="#000000" font-family="sans-serif" font-size="14" lengthAdjust="spacing" textLength="81" x="1094" y="1539.1436">namespace</text><line style="stroke:#181818;stroke-width:0.5;" x1="1066" x2="1177" y1="1550.2969" y2="1550.2969"/><line style="stroke:#181818;stroke-width:0.5;" x1="1066" x2="1177" y1="1558.2969" y2="1558.2969"/></g><!--class overarch_interface--><g id="elem_overarch_interface"><rect codeLine="45" fill="#F1F1F1" height="48" id="overarch_interface" rx="2.5" ry="2.5" style="stroke:#181818;stroke-width:0.5;" width="92" x="1075.5" y="1601.2969"/><ellipse cx="1090.5" cy="1617.2969" fill="#ADD1B2" rx="11" ry="11" style="stroke:#181818;stroke-width:1.0;"/><path d="M1093.4688,1622.9375 Q1092.8906,1623.2344 1092.25,1623.375 Q1091.6094,1623.5313 1090.9063,1623.5313 Q1088.4063,1623.5313 1087.0781,1621.8906 Q1085.7656,1620.2344 1085.7656,1617.1094 Q1085.7656,1613.9844 1087.0781,1612.3281 Q1088.4063,1610.6719 1090.9063,1610.6719 Q1091.6094,1610.6719 1092.25,1610.8281 Q1092.9063,1610.9844 1093.4688,1611.2813 L1093.4688,1614 Q1092.8438,1613.4219 1092.25,1613.1563 Q1091.6563,1612.875 1091.0313,1612.875 Q1089.6875,1612.875 1089,1613.9531 Q1088.3125,1615.0156 1088.3125,1617.1094 Q1088.3125,1619.2031 1089,1620.2813 Q1089.6875,1621.3438 1091.0313,1621.3438 Q1091.6563,1621.3438 1092.25,1621.0781 Q1092.8438,1620.7969 1093.4688,1620.2188 L1093.4688,1622.9375 Z " fill="#000000"/><text fill="#000000" font-family="sans-serif" font-size="14" lengthAdjust="spacing" textLength="60" x="1104.5" y="1622.1436">interface</text><line style="stroke:#181818;stroke-width:0.5;" x1="1076.5" x2="1166.5" y1="1633.2969" y2="1633.2969"/><line style="stroke:#181818;stroke-width:0.5;" x1="1076.5" x2="1166.5" y1="1641.2969" y2="1641.2969"/></g><!--class overarch_protocol--><g id="elem_overarch_protocol"><rect codeLine="46" fill="#F1F1F1" height="48" id="overarch_protocol" rx="2.5" ry="2.5" style="stroke:#181818;stroke-width:0.5;" width="89" x="1077" y="1186.2969"/><ellipse cx="1092" cy="1202.2969" fill="#ADD1B2" rx="11" ry="11" style="stroke:#181818;stroke-width:1.0;"/><path d="M1094.9688,1207.9375 Q1094.3906,1208.2344 1093.75,1208.375 Q1093.1094,1208.5313 1092.4063,1208.5313 Q1089.9063,1208.5313 1088.5781,1206.8906 Q1087.2656,1205.2344 1087.2656,1202.1094 Q1087.2656,1198.9844 1088.5781,1197.3281 Q1089.9063,1195.6719 1092.4063,1195.6719 Q1093.1094,1195.6719 1093.75,1195.8281 Q1094.4063,1195.9844 1094.9688,1196.2813 L1094.9688,1199 Q1094.3438,1198.4219 1093.75,1198.1563 Q1093.1563,1197.875 1092.5313,1197.875 Q1091.1875,1197.875 1090.5,1198.9531 Q1089.8125,1200.0156 1089.8125,1202.1094 Q1089.8125,1204.2031 1090.5,1205.2813 Q1091.1875,1206.3438 1092.5313,1206.3438 Q1093.1563,1206.3438 1093.75,1206.0781 Q1094.3438,1205.7969 1094.9688,1205.2188 L1094.9688,1207.9375 Z " fill="#000000"/><text fill="#000000" font-family="sans-serif" font-size="14" lengthAdjust="spacing" textLength="57" x="1106" y="1207.1436">protocol</text><line style="stroke:#181818;stroke-width:0.5;" x1="1078" x2="1165" y1="1218.2969" y2="1218.2969"/><line style="stroke:#181818;stroke-width:0.5;" x1="1078" x2="1165" y1="1226.2969" y2="1226.2969"/></g><!--class overarch_class--><g id="elem_overarch_class"><rect codeLine="47" fill="#F1F1F1" height="48" id="overarch_class" rx="2.5" ry="2.5" style="stroke:#181818;stroke-width:0.5;" width="67" x="1088" y="1269.2969"/><ellipse cx="1103" cy="1285.2969" fill="#ADD1B2" rx="11" ry="11" style="stroke:#181818;stroke-width:1.0;"/><path d="M1105.9688,1290.9375 Q1105.3906,1291.2344 1104.75,1291.375 Q1104.1094,1291.5313 1103.4063,1291.5313 Q1100.9063,1291.5313 1099.5781,1289.8906 Q1098.2656,1288.2344 1098.2656,1285.1094 Q1098.2656,1281.9844 1099.5781,1280.3281 Q1100.9063,1278.6719 1103.4063,1278.6719 Q1104.1094,1278.6719 1104.75,1278.8281 Q1105.4063,1278.9844 1105.9688,1279.2813 L1105.9688,1282 Q1105.3438,1281.4219 1104.75,1281.1563 Q1104.1563,1280.875 1103.5313,1280.875 Q1102.1875,1280.875 1101.5,1281.9531 Q1100.8125,1283.0156 1100.8125,1285.1094 Q1100.8125,1287.2031 1101.5,1288.2813 Q1102.1875,1289.3438 1103.5313,1289.3438 Q1104.1563,1289.3438 1104.75,1289.0781 Q1105.3438,1288.7969 1105.9688,1288.2188 L1105.9688,1290.9375 Z " fill="#000000"/><text fill="#000000" font-family="sans-serif" font-size="14" lengthAdjust="spacing" textLength="35" x="1117" y="1290.1436">class</text><line style="stroke:#181818;stroke-width:0.5;" x1="1089" x2="1154" y1="1301.2969" y2="1301.2969"/><line style="stroke:#181818;stroke-width:0.5;" x1="1089" x2="1154" y1="1309.2969" y2="1309.2969"/></g><!--class overarch_enum--><g id="elem_overarch_enum"><rect codeLine="48" fill="#F1F1F1" height="48" id="overarch_enum" rx="2.5" ry="2.5" style="stroke:#181818;stroke-width:0.5;" width="72" x="1085.5" y="1352.2969"/><ellipse cx="1100.5" cy="1368.2969" fill="#ADD1B2" rx="11" ry="11" style="stroke:#181818;stroke-width:1.0;"/><path d="M1103.4688,1373.9375 Q1102.8906,1374.2344 1102.25,1374.375 Q1101.6094,1374.5313 1100.9063,1374.5313 Q1098.4063,1374.5313 1097.0781,1372.8906 Q1095.7656,1371.2344 1095.7656,1368.1094 Q1095.7656,1364.9844 1097.0781,1363.3281 Q1098.4063,1361.6719 1100.9063,1361.6719 Q1101.6094,1361.6719 1102.25,1361.8281 Q1102.9063,1361.9844 1103.4688,1362.2813 L1103.4688,1365 Q1102.8438,1364.4219 1102.25,1364.1563 Q1101.6563,1363.875 1101.0313,1363.875 Q1099.6875,1363.875 1099,1364.9531 Q1098.3125,1366.0156 1098.3125,1368.1094 Q1098.3125,1370.2031 1099,1371.2813 Q1099.6875,1372.3438 1101.0313,1372.3438 Q1101.6563,1372.3438 1102.25,1372.0781 Q1102.8438,1371.7969 1103.4688,1371.2188 L1103.4688,1373.9375 Z " fill="#000000"/><text fill="#000000" font-family="sans-serif" font-size="14" lengthAdjust="spacing" textLength="40" x="1114.5" y="1373.1436">enum</text><line style="stroke:#181818;stroke-width:0.5;" x1="1086.5" x2="1156.5" y1="1384.2969" y2="1384.2969"/><line style="stroke:#181818;stroke-width:0.5;" x1="1086.5" x2="1156.5" y1="1392.2969" y2="1392.2969"/></g><!--class overarch_field--><g id="elem_overarch_field"><rect codeLine="49" fill="#F1F1F1" height="80.5938" id="overarch_field" rx="2.5" ry="2.5" style="stroke:#181818;stroke-width:0.5;" width="136" x="17" y="963.7969"/><ellipse cx="66.75" cy="979.7969" fill="#ADD1B2" rx="11" ry="11" style="stroke:#181818;stroke-width:1.0;"/><path d="M69.7188,985.4375 Q69.1406,985.7344 68.5,985.875 Q67.8594,986.0313 67.1563,986.0313 Q64.6563,986.0313 63.3281,984.3906 Q62.0156,982.7344 62.0156,979.6094 Q62.0156,976.4844 63.3281,974.8281 Q64.6563,973.1719 67.1563,973.1719 Q67.8594,973.1719 68.5,973.3281 Q69.1563,973.4844 69.7188,973.7813 L69.7188,976.5 Q69.0938,975.9219 68.5,975.6563 Q67.9063,975.375 67.2813,975.375 Q65.9375,975.375 65.25,976.4531 Q64.5625,977.5156 64.5625,979.6094 Q64.5625,981.7031 65.25,982.7813 Q65.9375,983.8438 67.2813,983.8438 Q67.9063,983.8438 68.5,983.5781 Q69.0938,983.2969 69.7188,982.7188 L69.7188,985.4375 Z " fill="#000000"/><text fill="#000000" font-family="sans-serif" font-size="14" lengthAdjust="spacing" textLength="28" x="87.25" y="984.6436">field</text><line style="stroke:#181818;stroke-width:0.5;" x1="18" x2="152" y1="995.7969" y2="995.7969"/><text fill="#000000" font-family="sans-serif" font-size="14" lengthAdjust="spacing" textLength="122" x="23" y="1012.792">visibility : keyword</text><text fill="#000000" font-family="sans-serif" font-size="14" lengthAdjust="spacing" textLength="124" x="23" y="1029.0889">optional : boolean</text><line style="stroke:#181818;stroke-width:0.5;" x1="18" x2="152" y1="1036.3906" y2="1036.3906"/></g><!--class overarch_method--><g id="elem_overarch_method"><rect codeLine="53" fill="#F1F1F1" height="64.2969" id="overarch_method" rx="2.5" ry="2.5" style="stroke:#181818;stroke-width:0.5;" width="134" x="240" y="765.2969"/><ellipse cx="276.6" cy="781.2969" fill="#ADD1B2" rx="11" ry="11" style="stroke:#181818;stroke-width:1.0;"/><path d="M279.5688,786.9375 Q278.9906,787.2344 278.35,787.375 Q277.7094,787.5313 277.0063,787.5313 Q274.5063,787.5313 273.1781,785.8906 Q271.8656,784.2344 271.8656,781.1094 Q271.8656,777.9844 273.1781,776.3281 Q274.5063,774.6719 277.0063,774.6719 Q277.7094,774.6719 278.35,774.8281 Q279.0063,774.9844 279.5688,775.2813 L279.5688,778 Q278.9438,777.4219 278.35,777.1563 Q277.7563,776.875 277.1313,776.875 Q275.7875,776.875 275.1,777.9531 Q274.4125,779.0156 274.4125,781.1094 Q274.4125,783.2031 275.1,784.2813 Q275.7875,785.3438 277.1313,785.3438 Q277.7563,785.3438 278.35,785.0781 Q278.9438,784.7969 279.5688,784.2188 L279.5688,786.9375 Z " fill="#000000"/><text fill="#000000" font-family="sans-serif" font-size="14" lengthAdjust="spacing" textLength="54" x="295.4" y="786.1436">method</text><line style="stroke:#181818;stroke-width:0.5;" x1="241" x2="373" y1="797.2969" y2="797.2969"/><text fill="#000000" font-family="sans-serif" font-size="14" lengthAdjust="spacing" textLength="122" x="246" y="814.292">visibility : keyword</text><line style="stroke:#181818;stroke-width:0.5;" x1="241" x2="373" y1="821.5938" y2="821.5938"/></g><!--class overarch_implementation--><g id="elem_overarch_implementation"><rect codeLine="56" fill="#F1F1F1" height="48" id="overarch_implementation" rx="2.5" ry="2.5" style="stroke:#181818;stroke-width:0.5;" width="139" x="1052" y="1020.2969"/><ellipse cx="1067" cy="1036.2969" fill="#ADD1B2" rx="11" ry="11" style="stroke:#181818;stroke-width:1.0;"/><path d="M1069.9688,1041.9375 Q1069.3906,1042.2344 1068.75,1042.375 Q1068.1094,1042.5313 1067.4063,1042.5313 Q1064.9063,1042.5313 1063.5781,1040.8906 Q1062.2656,1039.2344 1062.2656,1036.1094 Q1062.2656,1032.9844 1063.5781,1031.3281 Q1064.9063,1029.6719 1067.4063,1029.6719 Q1068.1094,1029.6719 1068.75,1029.8281 Q1069.4063,1029.9844 1069.9688,1030.2813 L1069.9688,1033 Q1069.3438,1032.4219 1068.75,1032.1563 Q1068.1563,1031.875 1067.5313,1031.875 Q1066.1875,1031.875 1065.5,1032.9531 Q1064.8125,1034.0156 1064.8125,1036.1094 Q1064.8125,1038.2031 1065.5,1039.2813 Q1066.1875,1040.3438 1067.5313,1040.3438 Q1068.1563,1040.3438 1068.75,1040.0781 Q1069.3438,1039.7969 1069.9688,1039.2188 L1069.9688,1041.9375 Z " fill="#000000"/><text fill="#000000" font-family="sans-serif" font-size="14" lengthAdjust="spacing" textLength="107" x="1081" y="1041.1436">implementation</text><line style="stroke:#181818;stroke-width:0.5;" x1="1053" x2="1190" y1="1052.2969" y2="1052.2969"/><line style="stroke:#181818;stroke-width:0.5;" x1="1053" x2="1190" y1="1060.2969" y2="1060.2969"/></g><!--class overarch_inheritance--><g id="elem_overarch_inheritance"><rect codeLine="57" fill="#F1F1F1" height="48" id="overarch_inheritance" rx="2.5" ry="2.5" style="stroke:#181818;stroke-width:0.5;" width="109" x="1067" y="1103.2969"/><ellipse cx="1082" cy="1119.2969" fill="#ADD1B2" rx="11" ry="11" style="stroke:#181818;stroke-width:1.0;"/><path d="M1084.9688,1124.9375 Q1084.3906,1125.2344 1083.75,1125.375 Q1083.1094,1125.5313 1082.4063,1125.5313 Q1079.9063,1125.5313 1078.5781,1123.8906 Q1077.2656,1122.2344 1077.2656,1119.1094 Q1077.2656,1115.9844 1078.5781,1114.3281 Q1079.9063,1112.6719 1082.4063,1112.6719 Q1083.1094,1112.6719 1083.75,1112.8281 Q1084.4063,1112.9844 1084.9688,1113.2813 L1084.9688,1116 Q1084.3438,1115.4219 1083.75,1115.1563 Q1083.1563,1114.875 1082.5313,1114.875 Q1081.1875,1114.875 1080.5,1115.9531 Q1079.8125,1117.0156 1079.8125,1119.1094 Q1079.8125,1121.2031 1080.5,1122.2813 Q1081.1875,1123.3438 1082.5313,1123.3438 Q1083.1563,1123.3438 1083.75,1123.0781 Q1084.3438,1122.7969 1084.9688,1122.2188 L1084.9688,1124.9375 Z " fill="#000000"/><text fill="#000000" font-family="sans-serif" font-size="14" lengthAdjust="spacing" textLength="77" x="1096" y="1124.1436">inheritance</text><line style="stroke:#181818;stroke-width:0.5;" x1="1068" x2="1175" y1="1135.2969" y2="1135.2969"/><line style="stroke:#181818;stroke-width:0.5;" x1="1068" x2="1175" y1="1143.2969" y2="1143.2969"/></g><!--class overarch_composition--><g id="elem_overarch_composition"><rect codeLine="58" fill="#F1F1F1" height="48" id="overarch_composition" rx="2.5" ry="2.5" style="stroke:#181818;stroke-width:0.5;" width="117" x="1063" y="771.2969"/><ellipse cx="1078" cy="787.2969" fill="#ADD1B2" rx="11" ry="11" style="stroke:#181818;stroke-width:1.0;"/><path d="M1080.9688,792.9375 Q1080.3906,793.2344 1079.75,793.375 Q1079.1094,793.5313 1078.4063,793.5313 Q1075.9063,793.5313 1074.5781,791.8906 Q1073.2656,790.2344 1073.2656,787.1094 Q1073.2656,783.9844 1074.5781,782.3281 Q1075.9063,780.6719 1078.4063,780.6719 Q1079.1094,780.6719 1079.75,780.8281 Q1080.4063,780.9844 1080.9688,781.2813 L1080.9688,784 Q1080.3438,783.4219 1079.75,783.1563 Q1079.1563,782.875 1078.5313,782.875 Q1077.1875,782.875 1076.5,783.9531 Q1075.8125,785.0156 1075.8125,787.1094 Q1075.8125,789.2031 1076.5,790.2813 Q1077.1875,791.3438 1078.5313,791.3438 Q1079.1563,791.3438 1079.75,791.0781 Q1080.3438,790.7969 1080.9688,790.2188 L1080.9688,792.9375 Z " fill="#000000"/><text fill="#000000" font-family="sans-serif" font-size="14" lengthAdjust="spacing" textLength="85" x="1092" y="792.1436">composition</text><line style="stroke:#181818;stroke-width:0.5;" x1="1064" x2="1179" y1="803.2969" y2="803.2969"/><line style="stroke:#181818;stroke-width:0.5;" x1="1064" x2="1179" y1="811.2969" y2="811.2969"/></g><!--class overarch_aggregation--><g id="elem_overarch_aggregation"><rect codeLine="59" fill="#F1F1F1" height="48" id="overarch_aggregation" rx="2.5" ry="2.5" style="stroke:#181818;stroke-width:0.5;" width="115" x="1064" y="854.2969"/><ellipse cx="1079" cy="870.2969" fill="#ADD1B2" rx="11" ry="11" style="stroke:#181818;stroke-width:1.0;"/><path d="M1081.9688,875.9375 Q1081.3906,876.2344 1080.75,876.375 Q1080.1094,876.5313 1079.4063,876.5313 Q1076.9063,876.5313 1075.5781,874.8906 Q1074.2656,873.2344 1074.2656,870.1094 Q1074.2656,866.9844 1075.5781,865.3281 Q1076.9063,863.6719 1079.4063,863.6719 Q1080.1094,863.6719 1080.75,863.8281 Q1081.4063,863.9844 1081.9688,864.2813 L1081.9688,867 Q1081.3438,866.4219 1080.75,866.1563 Q1080.1563,865.875 1079.5313,865.875 Q1078.1875,865.875 1077.5,866.9531 Q1076.8125,868.0156 1076.8125,870.1094 Q1076.8125,872.2031 1077.5,873.2813 Q1078.1875,874.3438 1079.5313,874.3438 Q1080.1563,874.3438 1080.75,874.0781 Q1081.3438,873.7969 1081.9688,873.2188 L1081.9688,875.9375 Z " fill="#000000"/><text fill="#000000" font-family="sans-serif" font-size="14" lengthAdjust="spacing" textLength="83" x="1093" y="875.1436">aggregation</text><line style="stroke:#181818;stroke-width:0.5;" x1="1065" x2="1178" y1="886.2969" y2="886.2969"/><line style="stroke:#181818;stroke-width:0.5;" x1="1065" x2="1178" y1="894.2969" y2="894.2969"/></g><!--class overarch_association--><g id="elem_overarch_association"><rect codeLine="60" fill="#F1F1F1" height="48" id="overarch_association" rx="2.5" ry="2.5" style="stroke:#181818;stroke-width:0.5;" width="110" x="1066.5" y="937.2969"/><ellipse cx="1081.5" cy="953.2969" fill="#ADD1B2" rx="11" ry="11" style="stroke:#181818;stroke-width:1.0;"/><path d="M1084.4688,958.9375 Q1083.8906,959.2344 1083.25,959.375 Q1082.6094,959.5313 1081.9063,959.5313 Q1079.4063,959.5313 1078.0781,957.8906 Q1076.7656,956.2344 1076.7656,953.1094 Q1076.7656,949.9844 1078.0781,948.3281 Q1079.4063,946.6719 1081.9063,946.6719 Q1082.6094,946.6719 1083.25,946.8281 Q1083.9063,946.9844 1084.4688,947.2813 L1084.4688,950 Q1083.8438,949.4219 1083.25,949.1563 Q1082.6563,948.875 1082.0313,948.875 Q1080.6875,948.875 1080,949.9531 Q1079.3125,951.0156 1079.3125,953.1094 Q1079.3125,955.2031 1080,956.2813 Q1080.6875,957.3438 1082.0313,957.3438 Q1082.6563,957.3438 1083.25,957.0781 Q1083.8438,956.7969 1084.4688,956.2188 L1084.4688,958.9375 Z " fill="#000000"/><text fill="#000000" font-family="sans-serif" font-size="14" lengthAdjust="spacing" textLength="78" x="1095.5" y="958.1436">association</text><line style="stroke:#181818;stroke-width:0.5;" x1="1067.5" x2="1175.5" y1="969.2969" y2="969.2969"/><line style="stroke:#181818;stroke-width:0.5;" x1="1067.5" x2="1175.5" y1="977.2969" y2="977.2969"/></g><!--class overarch_stateMachine--><g id="elem_overarch_stateMachine"><rect codeLine="61" fill="#F1F1F1" height="48" id="overarch_stateMachine" rx="2.5" ry="2.5" style="stroke:#181818;stroke-width:0.5;" width="131" x="779" y="1684.2969"/><ellipse cx="794" cy="1700.2969" fill="#ADD1B2" rx="11" ry="11" style="stroke:#181818;stroke-width:1.0;"/><path d="M796.9688,1705.9375 Q796.3906,1706.2344 795.75,1706.375 Q795.1094,1706.5313 794.4063,1706.5313 Q791.9063,1706.5313 790.5781,1704.8906 Q789.2656,1703.2344 789.2656,1700.1094 Q789.2656,1696.9844 790.5781,1695.3281 Q791.9063,1693.6719 794.4063,1693.6719 Q795.1094,1693.6719 795.75,1693.8281 Q796.4063,1693.9844 796.9688,1694.2813 L796.9688,1697 Q796.3438,1696.4219 795.75,1696.1563 Q795.1563,1695.875 794.5313,1695.875 Q793.1875,1695.875 792.5,1696.9531 Q791.8125,1698.0156 791.8125,1700.1094 Q791.8125,1702.2031 792.5,1703.2813 Q793.1875,1704.3438 794.5313,1704.3438 Q795.1563,1704.3438 795.75,1704.0781 Q796.3438,1703.7969 796.9688,1703.2188 L796.9688,1705.9375 Z " fill="#000000"/><text fill="#000000" font-family="sans-serif" font-size="14" lengthAdjust="spacing" textLength="99" x="808" y="1705.1436">state-machine</text><line style="stroke:#181818;stroke-width:0.5;" x1="780" x2="909" y1="1716.2969" y2="1716.2969"/><line style="stroke:#181818;stroke-width:0.5;" x1="780" x2="909" y1="1724.2969" y2="1724.2969"/></g><!--class overarch_startState--><g id="elem_overarch_startState"><rect codeLine="62" fill="#F1F1F1" height="48" id="overarch_startState" rx="2.5" ry="2.5" style="stroke:#181818;stroke-width:0.5;" width="103" x="1298.5" y="1684.2969"/><ellipse cx="1313.5" cy="1700.2969" fill="#ADD1B2" rx="11" ry="11" style="stroke:#181818;stroke-width:1.0;"/><path d="M1316.4688,1705.9375 Q1315.8906,1706.2344 1315.25,1706.375 Q1314.6094,1706.5313 1313.9063,1706.5313 Q1311.4063,1706.5313 1310.0781,1704.8906 Q1308.7656,1703.2344 1308.7656,1700.1094 Q1308.7656,1696.9844 1310.0781,1695.3281 Q1311.4063,1693.6719 1313.9063,1693.6719 Q1314.6094,1693.6719 1315.25,1693.8281 Q1315.9063,1693.9844 1316.4688,1694.2813 L1316.4688,1697 Q1315.8438,1696.4219 1315.25,1696.1563 Q1314.6563,1695.875 1314.0313,1695.875 Q1312.6875,1695.875 1312,1696.9531 Q1311.3125,1698.0156 1311.3125,1700.1094 Q1311.3125,1702.2031 1312,1703.2813 Q1312.6875,1704.3438 1314.0313,1704.3438 Q1314.6563,1704.3438 1315.25,1704.0781 Q1315.8438,1703.7969 1316.4688,1703.2188 L1316.4688,1705.9375 Z " fill="#000000"/><text fill="#000000" font-family="sans-serif" font-size="14" lengthAdjust="spacing" textLength="71" x="1327.5" y="1705.1436">start-state</text><line style="stroke:#181818;stroke-width:0.5;" x1="1299.5" x2="1400.5" y1="1716.2969" y2="1716.2969"/><line style="stroke:#181818;stroke-width:0.5;" x1="1299.5" x2="1400.5" y1="1724.2969" y2="1724.2969"/></g><!--class overarch_state--><g id="elem_overarch_state"><rect codeLine="63" fill="#F1F1F1" height="48" id="overarch_state" rx="2.5" ry="2.5" style="stroke:#181818;stroke-width:0.5;" width="67" x="1316.5" y="1767.2969"/><ellipse cx="1331.5" cy="1783.2969" fill="#ADD1B2" rx="11" ry="11" style="stroke:#181818;stroke-width:1.0;"/><path d="M1334.4688,1788.9375 Q1333.8906,1789.2344 1333.25,1789.375 Q1332.6094,1789.5313 1331.9063,1789.5313 Q1329.4063,1789.5313 1328.0781,1787.8906 Q1326.7656,1786.2344 1326.7656,1783.1094 Q1326.7656,1779.9844 1328.0781,1778.3281 Q1329.4063,1776.6719 1331.9063,1776.6719 Q1332.6094,1776.6719 1333.25,1776.8281 Q1333.9063,1776.9844 1334.4688,1777.2813 L1334.4688,1780 Q1333.8438,1779.4219 1333.25,1779.1563 Q1332.6563,1778.875 1332.0313,1778.875 Q1330.6875,1778.875 1330,1779.9531 Q1329.3125,1781.0156 1329.3125,1783.1094 Q1329.3125,1785.2031 1330,1786.2813 Q1330.6875,1787.3438 1332.0313,1787.3438 Q1332.6563,1787.3438 1333.25,1787.0781 Q1333.8438,1786.7969 1334.4688,1786.2188 L1334.4688,1788.9375 Z " fill="#000000"/><text fill="#000000" font-family="sans-serif" font-size="14" lengthAdjust="spacing" textLength="35" x="1345.5" y="1788.1436">state</text><line style="stroke:#181818;stroke-width:0.5;" x1="1317.5" x2="1382.5" y1="1799.2969" y2="1799.2969"/><line style="stroke:#181818;stroke-width:0.5;" x1="1317.5" x2="1382.5" y1="1807.2969" y2="1807.2969"/></g><!--class overarch_endState--><g id="elem_overarch_endState"><rect codeLine="64" fill="#F1F1F1" height="48" id="overarch_endState" rx="2.5" ry="2.5" style="stroke:#181818;stroke-width:0.5;" width="99" x="1300.5" y="1850.2969"/><ellipse cx="1315.5" cy="1866.2969" fill="#ADD1B2" rx="11" ry="11" style="stroke:#181818;stroke-width:1.0;"/><path d="M1318.4688,1871.9375 Q1317.8906,1872.2344 1317.25,1872.375 Q1316.6094,1872.5313 1315.9063,1872.5313 Q1313.4063,1872.5313 1312.0781,1870.8906 Q1310.7656,1869.2344 1310.7656,1866.1094 Q1310.7656,1862.9844 1312.0781,1861.3281 Q1313.4063,1859.6719 1315.9063,1859.6719 Q1316.6094,1859.6719 1317.25,1859.8281 Q1317.9063,1859.9844 1318.4688,1860.2813 L1318.4688,1863 Q1317.8438,1862.4219 1317.25,1862.1563 Q1316.6563,1861.875 1316.0313,1861.875 Q1314.6875,1861.875 1314,1862.9531 Q1313.3125,1864.0156 1313.3125,1866.1094 Q1313.3125,1868.2031 1314,1869.2813 Q1314.6875,1870.3438 1316.0313,1870.3438 Q1316.6563,1870.3438 1317.25,1870.0781 Q1317.8438,1869.7969 1318.4688,1869.2188 L1318.4688,1871.9375 Z " fill="#000000"/><text fill="#000000" font-family="sans-serif" font-size="14" lengthAdjust="spacing" textLength="67" x="1329.5" y="1871.1436">end-state</text><line style="stroke:#181818;stroke-width:0.5;" x1="1301.5" x2="1398.5" y1="1882.2969" y2="1882.2969"/><line style="stroke:#181818;stroke-width:0.5;" x1="1301.5" x2="1398.5" y1="1890.2969" y2="1890.2969"/></g><!--class overarch_fork--><g id="elem_overarch_fork"><rect codeLine="65" fill="#F1F1F1" height="48" id="overarch_fork" rx="2.5" ry="2.5" style="stroke:#181818;stroke-width:0.5;" width="58" x="1321" y="1419.2969"/><ellipse cx="1336" cy="1435.2969" fill="#ADD1B2" rx="11" ry="11" style="stroke:#181818;stroke-width:1.0;"/><path d="M1338.9688,1440.9375 Q1338.3906,1441.2344 1337.75,1441.375 Q1337.1094,1441.5313 1336.4063,1441.5313 Q1333.9063,1441.5313 1332.5781,1439.8906 Q1331.2656,1438.2344 1331.2656,1435.1094 Q1331.2656,1431.9844 1332.5781,1430.3281 Q1333.9063,1428.6719 1336.4063,1428.6719 Q1337.1094,1428.6719 1337.75,1428.8281 Q1338.4063,1428.9844 1338.9688,1429.2813 L1338.9688,1432 Q1338.3438,1431.4219 1337.75,1431.1563 Q1337.1563,1430.875 1336.5313,1430.875 Q1335.1875,1430.875 1334.5,1431.9531 Q1333.8125,1433.0156 1333.8125,1435.1094 Q1333.8125,1437.2031 1334.5,1438.2813 Q1335.1875,1439.3438 1336.5313,1439.3438 Q1337.1563,1439.3438 1337.75,1439.0781 Q1338.3438,1438.7969 1338.9688,1438.2188 L1338.9688,1440.9375 Z " fill="#000000"/><text fill="#000000" font-family="sans-serif" font-size="14" lengthAdjust="spacing" textLength="26" x="1350" y="1440.1436">fork</text><line style="stroke:#181818;stroke-width:0.5;" x1="1322" x2="1378" y1="1451.2969" y2="1451.2969"/><line style="stroke:#181818;stroke-width:0.5;" x1="1322" x2="1378" y1="1459.2969" y2="1459.2969"/></g><!--class overarch_join--><g id="elem_overarch_join"><rect codeLine="66" fill="#F1F1F1" height="48" id="overarch_join" rx="2.5" ry="2.5" style="stroke:#181818;stroke-width:0.5;" width="56" x="1322" y="1502.2969"/><ellipse cx="1337" cy="1518.2969" fill="#ADD1B2" rx="11" ry="11" style="stroke:#181818;stroke-width:1.0;"/><path d="M1339.9688,1523.9375 Q1339.3906,1524.2344 1338.75,1524.375 Q1338.1094,1524.5313 1337.4063,1524.5313 Q1334.9063,1524.5313 1333.5781,1522.8906 Q1332.2656,1521.2344 1332.2656,1518.1094 Q1332.2656,1514.9844 1333.5781,1513.3281 Q1334.9063,1511.6719 1337.4063,1511.6719 Q1338.1094,1511.6719 1338.75,1511.8281 Q1339.4063,1511.9844 1339.9688,1512.2813 L1339.9688,1515 Q1339.3438,1514.4219 1338.75,1514.1563 Q1338.1563,1513.875 1337.5313,1513.875 Q1336.1875,1513.875 1335.5,1514.9531 Q1334.8125,1516.0156 1334.8125,1518.1094 Q1334.8125,1520.2031 1335.5,1521.2813 Q1336.1875,1522.3438 1337.5313,1522.3438 Q1338.1563,1522.3438 1338.75,1522.0781 Q1339.3438,1521.7969 1339.9688,1521.2188 L1339.9688,1523.9375 Z " fill="#000000"/><text fill="#000000" font-family="sans-serif" font-size="14" lengthAdjust="spacing" textLength="24" x="1351" y="1523.1436">join</text><line style="stroke:#181818;stroke-width:0.5;" x1="1323" x2="1377" y1="1534.2969" y2="1534.2969"/><line style="stroke:#181818;stroke-width:0.5;" x1="1323" x2="1377" y1="1542.2969" y2="1542.2969"/></g><!--class overarch_choice--><g id="elem_overarch_choice"><rect codeLine="67" fill="#F1F1F1" height="64.2969" id="overarch_choice" rx="2.5" ry="2.5" style="stroke:#181818;stroke-width:0.5;" width="128" x="1286" y="1585.2969"/><ellipse cx="1323.5" cy="1601.2969" fill="#ADD1B2" rx="11" ry="11" style="stroke:#181818;stroke-width:1.0;"/><path d="M1326.4688,1606.9375 Q1325.8906,1607.2344 1325.25,1607.375 Q1324.6094,1607.5313 1323.9063,1607.5313 Q1321.4063,1607.5313 1320.0781,1605.8906 Q1318.7656,1604.2344 1318.7656,1601.1094 Q1318.7656,1597.9844 1320.0781,1596.3281 Q1321.4063,1594.6719 1323.9063,1594.6719 Q1324.6094,1594.6719 1325.25,1594.8281 Q1325.9063,1594.9844 1326.4688,1595.2813 L1326.4688,1598 Q1325.8438,1597.4219 1325.25,1597.1563 Q1324.6563,1596.875 1324.0313,1596.875 Q1322.6875,1596.875 1322,1597.9531 Q1321.3125,1599.0156 1321.3125,1601.1094 Q1321.3125,1603.2031 1322,1604.2813 Q1322.6875,1605.3438 1324.0313,1605.3438 Q1324.6563,1605.3438 1325.25,1605.0781 Q1325.8438,1604.7969 1326.4688,1604.2188 L1326.4688,1606.9375 Z " fill="#000000"/><text fill="#000000" font-family="sans-serif" font-size="14" lengthAdjust="spacing" textLength="46" x="1342.5" y="1606.1436">choice</text><line style="stroke:#181818;stroke-width:0.5;" x1="1287" x2="1413" y1="1617.2969" y2="1617.2969"/><text fill="#000000" font-family="sans-serif" font-size="14" lengthAdjust="spacing" textLength="116" x="1292" y="1634.292">condition : string</text><line style="stroke:#181818;stroke-width:0.5;" x1="1287" x2="1413" y1="1641.5938" y2="1641.5938"/></g><!--class overarch_transition--><g id="elem_overarch_transition"><rect codeLine="70" fill="#F1F1F1" height="48" id="overarch_transition" rx="2.5" ry="2.5" style="stroke:#181818;stroke-width:0.5;" width="96" x="1302" y="1012.2969"/><ellipse cx="1317" cy="1028.2969" fill="#ADD1B2" rx="11" ry="11" style="stroke:#181818;stroke-width:1.0;"/><path d="M1319.9688,1033.9375 Q1319.3906,1034.2344 1318.75,1034.375 Q1318.1094,1034.5313 1317.4063,1034.5313 Q1314.9063,1034.5313 1313.5781,1032.8906 Q1312.2656,1031.2344 1312.2656,1028.1094 Q1312.2656,1024.9844 1313.5781,1023.3281 Q1314.9063,1021.6719 1317.4063,1021.6719 Q1318.1094,1021.6719 1318.75,1021.8281 Q1319.4063,1021.9844 1319.9688,1022.2813 L1319.9688,1025 Q1319.3438,1024.4219 1318.75,1024.1563 Q1318.1563,1023.875 1317.5313,1023.875 Q1316.1875,1023.875 1315.5,1024.9531 Q1314.8125,1026.0156 1314.8125,1028.1094 Q1314.8125,1030.2031 1315.5,1031.2813 Q1316.1875,1032.3438 1317.5313,1032.3438 Q1318.1563,1032.3438 1318.75,1032.0781 Q1319.3438,1031.7969 1319.9688,1031.2188 L1319.9688,1033.9375 Z " fill="#000000"/><text fill="#000000" font-family="sans-serif" font-size="14" lengthAdjust="spacing" textLength="64" x="1331" y="1033.1436">transition</text><line style="stroke:#181818;stroke-width:0.5;" x1="1303" x2="1397" y1="1044.2969" y2="1044.2969"/><line style="stroke:#181818;stroke-width:0.5;" x1="1303" x2="1397" y1="1052.2969" y2="1052.2969"/></g><!--class overarch_view--><g id="elem_overarch_view"><rect codeLine="71" fill="#F1F1F1" height="64.2969" id="overarch_view" rx="2.5" ry="2.5" style="stroke:#181818;stroke-width:0.5;" width="63" x="53.5" y="334.2969"/><ellipse cx="68.5" cy="350.2969" fill="#A9DCDF" rx="11" ry="11" style="stroke:#181818;stroke-width:1.0;"/><path d="M68.6094,345.6406 L67.4531,350.7188 L69.7813,350.7188 L68.6094,345.6406 Z M67.125,343.4063 L70.1094,343.4063 L73.4688,355.7969 L71.0156,355.7969 L70.25,352.7344 L66.9688,352.7344 L66.2188,355.7969 L63.7813,355.7969 L67.125,343.4063 Z " fill="#000000"/><text fill="#000000" font-family="sans-serif" font-size="14" font-style="italic" lengthAdjust="spacing" textLength="31" x="82.5" y="355.1436">view</text><line style="stroke:#181818;stroke-width:0.5;" x1="54.5" x2="115.5" y1="366.2969" y2="366.2969"/><text fill="#000000" font-family="sans-serif" font-size="14" lengthAdjust="spacing" textLength="25" x="59.5" y="383.292">title</text><line style="stroke:#181818;stroke-width:0.5;" x1="54.5" x2="115.5" y1="390.5938" y2="390.5938"/></g><!--class overarch_architectureView--><g id="elem_overarch_architectureView"><rect codeLine="74" fill="#F1F1F1" height="48" id="overarch_architectureView" rx="2.5" ry="2.5" style="stroke:#181818;stroke-width:0.5;" width="151" x="231.5" y="217.2969"/><ellipse cx="246.5" cy="233.2969" fill="#A9DCDF" rx="11" ry="11" style="stroke:#181818;stroke-width:1.0;"/><path d="M246.6094,228.6406 L245.4531,233.7188 L247.7813,233.7188 L246.6094,228.6406 Z M245.125,226.4063 L248.1094,226.4063 L251.4688,238.7969 L249.0156,238.7969 L248.25,235.7344 L244.9688,235.7344 L244.2188,238.7969 L241.7813,238.7969 L245.125,226.4063 Z " fill="#000000"/><text fill="#000000" font-family="sans-serif" font-size="14" font-style="italic" lengthAdjust="spacing" textLength="119" x="260.5" y="238.1436">architecture-view</text><line style="stroke:#181818;stroke-width:0.5;" x1="232.5" x2="381.5" y1="249.2969" y2="249.2969"/><line style="stroke:#181818;stroke-width:0.5;" x1="232.5" x2="381.5" y1="257.2969" y2="257.2969"/></g><!--class overarch_systemLandscapeView--><g id="elem_overarch_systemLandscapeView"><rect codeLine="75" fill="#F1F1F1" height="48" id="overarch_systemLandscapeView" rx="2.5" ry="2.5" style="stroke:#181818;stroke-width:0.5;" width="193" x="465" y="93.2969"/><ellipse cx="480" cy="109.2969" fill="#ADD1B2" rx="11" ry="11" style="stroke:#181818;stroke-width:1.0;"/><path d="M482.9688,114.9375 Q482.3906,115.2344 481.75,115.375 Q481.1094,115.5313 480.4063,115.5313 Q477.9063,115.5313 476.5781,113.8906 Q475.2656,112.2344 475.2656,109.1094 Q475.2656,105.9844 476.5781,104.3281 Q477.9063,102.6719 480.4063,102.6719 Q481.1094,102.6719 481.75,102.8281 Q482.4063,102.9844 482.9688,103.2813 L482.9688,106 Q482.3438,105.4219 481.75,105.1563 Q481.1563,104.875 480.5313,104.875 Q479.1875,104.875 478.5,105.9531 Q477.8125,107.0156 477.8125,109.1094 Q477.8125,111.2031 478.5,112.2813 Q479.1875,113.3438 480.5313,113.3438 Q481.1563,113.3438 481.75,113.0781 Q482.3438,112.7969 482.9688,112.2188 L482.9688,114.9375 Z " fill="#000000"/><text fill="#000000" font-family="sans-serif" font-size="14" lengthAdjust="spacing" textLength="161" x="494" y="114.1436">system-landscape-view</text><line style="stroke:#181818;stroke-width:0.5;" x1="466" x2="657" y1="125.2969" y2="125.2969"/><line style="stroke:#181818;stroke-width:0.5;" x1="466" x2="657" y1="133.2969" y2="133.2969"/></g><!--class overarch_contextView--><g id="elem_overarch_contextView"><rect codeLine="76" fill="#F1F1F1" height="48" id="overarch_contextView" rx="2.5" ry="2.5" style="stroke:#181818;stroke-width:0.5;" width="119" x="502" y="176.2969"/><ellipse cx="517" cy="192.2969" fill="#ADD1B2" rx="11" ry="11" style="stroke:#181818;stroke-width:1.0;"/><path d="M519.9688,197.9375 Q519.3906,198.2344 518.75,198.375 Q518.1094,198.5313 517.4063,198.5313 Q514.9063,198.5313 513.5781,196.8906 Q512.2656,195.2344 512.2656,192.1094 Q512.2656,188.9844 513.5781,187.3281 Q514.9063,185.6719 517.4063,185.6719 Q518.1094,185.6719 518.75,185.8281 Q519.4063,185.9844 519.9688,186.2813 L519.9688,189 Q519.3438,188.4219 518.75,188.1563 Q518.1563,187.875 517.5313,187.875 Q516.1875,187.875 515.5,188.9531 Q514.8125,190.0156 514.8125,192.1094 Q514.8125,194.2031 515.5,195.2813 Q516.1875,196.3438 517.5313,196.3438 Q518.1563,196.3438 518.75,196.0781 Q519.3438,195.7969 519.9688,195.2188 L519.9688,197.9375 Z " fill="#000000"/><text fill="#000000" font-family="sans-serif" font-size="14" lengthAdjust="spacing" textLength="87" x="531" y="197.1436">context-view</text><line style="stroke:#181818;stroke-width:0.5;" x1="503" x2="620" y1="208.2969" y2="208.2969"/><line style="stroke:#181818;stroke-width:0.5;" x1="503" x2="620" y1="216.2969" y2="216.2969"/></g><!--class overarch_containerView--><g id="elem_overarch_containerView"><rect codeLine="77" fill="#F1F1F1" height="48" id="overarch_containerView" rx="2.5" ry="2.5" style="stroke:#181818;stroke-width:0.5;" width="147" x="233.5" y="864.2969"/><ellipse cx="248.5" cy="880.2969" fill="#ADD1B2" rx="11" ry="11" style="stroke:#181818;stroke-width:1.0;"/><path d="M251.4688,885.9375 Q250.8906,886.2344 250.25,886.375 Q249.6094,886.5313 248.9063,886.5313 Q246.4063,886.5313 245.0781,884.8906 Q243.7656,883.2344 243.7656,880.1094 Q243.7656,876.9844 245.0781,875.3281 Q246.4063,873.6719 248.9063,873.6719 Q249.6094,873.6719 250.25,873.8281 Q250.9063,873.9844 251.4688,874.2813 L251.4688,877 Q250.8438,876.4219 250.25,876.1563 Q249.6563,875.875 249.0313,875.875 Q247.6875,875.875 247,876.9531 Q246.3125,878.0156 246.3125,880.1094 Q246.3125,882.2031 247,883.2813 Q247.6875,884.3438 249.0313,884.3438 Q249.6563,884.3438 250.25,884.0781 Q250.8438,883.7969 251.4688,883.2188 L251.4688,885.9375 Z " fill="#000000"/><text fill="#000000" font-family="sans-serif" font-size="14" lengthAdjust="spacing" textLength="115" x="262.5" y="885.1436">component-view</text><line style="stroke:#181818;stroke-width:0.5;" x1="234.5" x2="379.5" y1="896.2969" y2="896.2969"/><line style="stroke:#181818;stroke-width:0.5;" x1="234.5" x2="379.5" y1="904.2969" y2="904.2969"/></g><!--class overarch_deploymentView--><g id="elem_overarch_deploymentView"><rect codeLine="78" fill="#F1F1F1" height="48" id="overarch_deploymentView" rx="2.5" ry="2.5" style="stroke:#181818;stroke-width:0.5;" width="149" x="232.5" y="300.2969"/><ellipse cx="247.5" cy="316.2969" fill="#ADD1B2" rx="11" ry="11" style="stroke:#181818;stroke-width:1.0;"/><path d="M250.4688,321.9375 Q249.8906,322.2344 249.25,322.375 Q248.6094,322.5313 247.9063,322.5313 Q245.4063,322.5313 244.0781,320.8906 Q242.7656,319.2344 242.7656,316.1094 Q242.7656,312.9844 244.0781,311.3281 Q245.4063,309.6719 247.9063,309.6719 Q248.6094,309.6719 249.25,309.8281 Q249.9063,309.9844 250.4688,310.2813 L250.4688,313 Q249.8438,312.4219 249.25,312.1563 Q248.6563,311.875 248.0313,311.875 Q246.6875,311.875 246,312.9531 Q245.3125,314.0156 245.3125,316.1094 Q245.3125,318.2031 246,319.2813 Q246.6875,320.3438 248.0313,320.3438 Q248.6563,320.3438 249.25,320.0781 Q249.8438,319.7969 250.4688,319.2188 L250.4688,321.9375 Z " fill="#000000"/><text fill="#000000" font-family="sans-serif" font-size="14" lengthAdjust="spacing" textLength="117" x="261.5" y="321.1436">deployment-view</text><line style="stroke:#181818;stroke-width:0.5;" x1="233.5" x2="380.5" y1="332.2969" y2="332.2969"/><line style="stroke:#181818;stroke-width:0.5;" x1="233.5" x2="380.5" y1="340.2969" y2="340.2969"/></g><!--class overarch_dynamicView--><g id="elem_overarch_dynamicView"><rect codeLine="79" fill="#F1F1F1" height="48" id="overarch_dynamicView" rx="2.5" ry="2.5" style="stroke:#181818;stroke-width:0.5;" width="124" x="499.5" y="259.2969"/><ellipse cx="514.5" cy="275.2969" fill="#ADD1B2" rx="11" ry="11" style="stroke:#181818;stroke-width:1.0;"/><path d="M517.4688,280.9375 Q516.8906,281.2344 516.25,281.375 Q515.6094,281.5313 514.9063,281.5313 Q512.4063,281.5313 511.0781,279.8906 Q509.7656,278.2344 509.7656,275.1094 Q509.7656,271.9844 511.0781,270.3281 Q512.4063,268.6719 514.9063,268.6719 Q515.6094,268.6719 516.25,268.8281 Q516.9063,268.9844 517.4688,269.2813 L517.4688,272 Q516.8438,271.4219 516.25,271.1563 Q515.6563,270.875 515.0313,270.875 Q513.6875,270.875 513,271.9531 Q512.3125,273.0156 512.3125,275.1094 Q512.3125,277.2031 513,278.2813 Q513.6875,279.3438 515.0313,279.3438 Q515.6563,279.3438 516.25,279.0781 Q516.8438,278.7969 517.4688,278.2188 L517.4688,280.9375 Z " fill="#000000"/><text fill="#000000" font-family="sans-serif" font-size="14" lengthAdjust="spacing" textLength="92" x="528.5" y="280.1436">dynamic-view</text><line style="stroke:#181818;stroke-width:0.5;" x1="500.5" x2="622.5" y1="291.2969" y2="291.2969"/><line style="stroke:#181818;stroke-width:0.5;" x1="500.5" x2="622.5" y1="299.2969" y2="299.2969"/></g><!--class overarch_classView--><g id="elem_overarch_classView"><rect codeLine="80" fill="#F1F1F1" height="48" id="overarch_classView" rx="2.5" ry="2.5" style="stroke:#181818;stroke-width:0.5;" width="102" x="256" y="383.2969"/><ellipse cx="271" cy="399.2969" fill="#ADD1B2" rx="11" ry="11" style="stroke:#181818;stroke-width:1.0;"/><path d="M273.9688,404.9375 Q273.3906,405.2344 272.75,405.375 Q272.1094,405.5313 271.4063,405.5313 Q268.9063,405.5313 267.5781,403.8906 Q266.2656,402.2344 266.2656,399.1094 Q266.2656,395.9844 267.5781,394.3281 Q268.9063,392.6719 271.4063,392.6719 Q272.1094,392.6719 272.75,392.8281 Q273.4063,392.9844 273.9688,393.2813 L273.9688,396 Q273.3438,395.4219 272.75,395.1563 Q272.1563,394.875 271.5313,394.875 Q270.1875,394.875 269.5,395.9531 Q268.8125,397.0156 268.8125,399.1094 Q268.8125,401.2031 269.5,402.2813 Q270.1875,403.3438 271.5313,403.3438 Q272.1563,403.3438 272.75,403.0781 Q273.3438,402.7969 273.9688,402.2188 L273.9688,404.9375 Z " fill="#000000"/><text fill="#000000" font-family="sans-serif" font-size="14" lengthAdjust="spacing" textLength="70" x="285" y="404.1436">class-view</text><line style="stroke:#181818;stroke-width:0.5;" x1="257" x2="357" y1="415.2969" y2="415.2969"/><line style="stroke:#181818;stroke-width:0.5;" x1="257" x2="357" y1="423.2969" y2="423.2969"/></g><!--class overarch_stateMachineView--><g id="elem_overarch_stateMachineView"><rect codeLine="81" fill="#F1F1F1" height="48" id="overarch_stateMachineView" rx="2.5" ry="2.5" style="stroke:#181818;stroke-width:0.5;" width="166" x="224" y="466.2969"/><ellipse cx="239" cy="482.2969" fill="#ADD1B2" rx="11" ry="11" style="stroke:#181818;stroke-width:1.0;"/><path d="M241.9688,487.9375 Q241.3906,488.2344 240.75,488.375 Q240.1094,488.5313 239.4063,488.5313 Q236.9063,488.5313 235.5781,486.8906 Q234.2656,485.2344 234.2656,482.1094 Q234.2656,478.9844 235.5781,477.3281 Q236.9063,475.6719 239.4063,475.6719 Q240.1094,475.6719 240.75,475.8281 Q241.4063,475.9844 241.9688,476.2813 L241.9688,479 Q241.3438,478.4219 240.75,478.1563 Q240.1563,477.875 239.5313,477.875 Q238.1875,477.875 237.5,478.9531 Q236.8125,480.0156 236.8125,482.1094 Q236.8125,484.2031 237.5,485.2813 Q238.1875,486.3438 239.5313,486.3438 Q240.1563,486.3438 240.75,486.0781 Q241.3438,485.7969 241.9688,485.2188 L241.9688,487.9375 Z " fill="#000000"/><text fill="#000000" font-family="sans-serif" font-size="14" lengthAdjust="spacing" textLength="134" x="253" y="487.1436">state-machine-view</text><line style="stroke:#181818;stroke-width:0.5;" x1="225" x2="389" y1="498.2969" y2="498.2969"/><line style="stroke:#181818;stroke-width:0.5;" x1="225" x2="389" y1="506.2969" y2="506.2969"/></g><!--class overarch_componentView--><g id="elem_overarch_componentView"><rect fill="#F1F1F1" height="48" id="overarch_componentView" rx="2.5" ry="2.5" style="stroke:#181818;stroke-width:0.5;" width="211" x="456" y="342.2969"/><ellipse cx="471" cy="358.2969" fill="#ADD1B2" rx="11" ry="11" style="stroke:#181818;stroke-width:1.0;"/><path d="M473.9688,363.9375 Q473.3906,364.2344 472.75,364.375 Q472.1094,364.5313 471.4063,364.5313 Q468.9063,364.5313 467.5781,362.8906 Q466.2656,361.2344 466.2656,358.1094 Q466.2656,354.9844 467.5781,353.3281 Q468.9063,351.6719 471.4063,351.6719 Q472.1094,351.6719 472.75,351.8281 Q473.4063,351.9844 473.9688,352.2813 L473.9688,355 Q473.3438,354.4219 472.75,354.1563 Q472.1563,353.875 471.5313,353.875 Q470.1875,353.875 469.5,354.9531 Q468.8125,356.0156 468.8125,358.1094 Q468.8125,360.2031 469.5,361.2813 Q470.1875,362.3438 471.5313,362.3438 Q472.1563,362.3438 472.75,362.0781 Q473.3438,361.7969 473.9688,361.2188 L473.9688,363.9375 Z " fill="#000000"/><text fill="#000000" font-family="sans-serif" font-size="14" lengthAdjust="spacing" textLength="179" x="485" y="363.1436">overarch_componentView</text><line style="stroke:#181818;stroke-width:0.5;" x1="457" x2="666" y1="374.2969" y2="374.2969"/><line style="stroke:#181818;stroke-width:0.5;" x1="457" x2="666" y1="382.2969" y2="382.2969"/></g><!--reverse link overarch_element to overarch_identifiableElement--><g id="link_overarch_element_overarch_identifiableElement"><path codeLine="82" d="M152.17,619.0569 C174.44,613.5869 199.58,607.4169 222.98,601.6769 " fill="none" id="overarch_element-backto-overarch_identifiableElement" style="stroke:#181818;stroke-width:1.0;"/><polygon fill="none" points="153.75,625.8769,132.66,623.8469,150.41,612.2769,153.75,625.8769" style="stroke:#181818;stroke-width:1.0;"/></g><!--reverse link overarch_element to overarch_namedElement--><g id="link_overarch_element_overarch_namedElement"><path codeLine="83" d="M152.39,651.5969 C178.81,658.0769 209.23,665.5469 235.99,672.1169 " fill="none" id="overarch_element-backto-overarch_namedElement" style="stroke:#181818;stroke-width:1.0;"/><polygon fill="none" points="150.41,658.3169,132.66,646.7469,153.75,644.7169,150.41,658.3169" style="stroke:#181818;stroke-width:1.0;"/></g><!--reverse link overarch_identifiableElement to overarch_identifiableNamedElement--><g id="link_overarch_identifiableElement_overarch_identifiableNamedElement"><path codeLine="84" d="M410.72,603.2669 C423.94,606.0869 437.5,608.9969 450.82,611.8369 " fill="none" id="overarch_identifiableElement-backto-overarch_identifiableNamedElement" style="stroke:#181818;stroke-width:1.0;"/><polygon fill="none" points="409.12,610.0769,391.03,599.0569,412.05,596.3869,409.12,610.0769" style="stroke:#181818;stroke-width:1.0;"/></g><!--reverse link overarch_namedElement to overarch_identifiableNamedElement--><g id="link_overarch_namedElement_overarch_identifiableNamedElement"><path codeLine="85" d="M397.59,670.1369 C414.73,666.4669 432.87,662.5969 450.57,658.8069 " fill="none" id="overarch_namedElement-backto-overarch_identifiableNamedElement" style="stroke:#181818;stroke-width:1.0;"/><polygon fill="none" points="399.02,676.9869,378,674.3269,396.09,663.2969,399.02,676.9869" style="stroke:#181818;stroke-width:1.0;"/></g><!--reverse link overarch_identifiableElement to overarch_relationalElement--><g id="link_overarch_identifiableElement_overarch_relationalElement"><path codeLine="86" d="M411.16,560.0569 C488.31,549.7869 593.57,548.1669 672,594.2969 C763.97,648.3869 812.64,772.9069 832.52,837.6069 " fill="none" id="overarch_identifiableElement-backto-overarch_relationalElement" style="stroke:#181818;stroke-width:1.0;"/><polygon fill="none" points="411.99,567.0069,391.19,562.9869,409.96,553.1569,411.99,567.0069" style="stroke:#181818;stroke-width:1.0;"/></g><!--reverse link overarch_namedElement to overarch_namedRelationalElement--><g id="link_overarch_namedElement_overarch_namedRelationalElement"><path codeLine="87" d="M398.75,691.8669 C550.91,696.1769 856.52,704.8269 1016.88,709.3669 " fill="none" id="overarch_namedElement-backto-overarch_namedRelationalElement" style="stroke:#181818;stroke-width:1.0;"/><polygon fill="none" points="398.12,698.8469,378.33,691.2869,398.52,684.8569,398.12,698.8469" style="stroke:#181818;stroke-width:1.0;"/></g><!--reverse link overarch_relationalElement to overarch_namedRelationalElement--><g id="link_overarch_relationalElement_overarch_namedRelationalElement"><path codeLine="88" d="M910.74,825.4269 C941.77,801.7969 980.08,774.7369 1017,754.2969 C1028.71,747.8169 1041.62,741.7769 1054.24,736.4069 " fill="none" id="overarch_relationalElement-backto-overarch_namedRelationalElement" style="stroke:#181818;stroke-width:1.0;"/><polygon fill="none" points="914.88,831.0769,894.77,837.7669,906.32,819.9969,914.88,831.0769" style="stroke:#181818;stroke-width:1.0;"/></g><!--reverse link overarch_identifiableNamedElement to overarch_architectureModelElement--><g id="link_overarch_identifiableNamedElement_overarch_architectureModelElement"><path codeLine="89" d="M601.88,597.3169 C660.51,540.7769 769.11,436.0469 818.22,388.6869 " fill="none" id="overarch_identifiableNamedElement-backto-overarch_architectureModelElement" style="stroke:#181818;stroke-width:1.0;"/><polygon fill="none" points="606.69,602.4069,587.44,611.2469,596.97,592.3269,606.69,602.4069" style="stroke:#181818;stroke-width:1.0;"/></g><!--reverse link overarch_architectureModelElement to overarch_person--><g id="link_overarch_architectureModelElement_overarch_person"><path codeLine="90" d="M977.52,364.2969 C1015.14,364.2969 1053.31,364.2969 1080.73,364.2969 " fill="none" id="overarch_architectureModelElement-backto-overarch_person" style="stroke:#181818;stroke-width:1.0;"/><polygon fill="none" points="977.35,371.2969,957.35,364.2969,977.35,357.2969,977.35,371.2969" style="stroke:#181818;stroke-width:1.0;"/></g><!--reverse link overarch_architectureModelElement to overarch_system--><g id="link_overarch_architectureModelElement_overarch_system"><path codeLine="91" d="M944.36,394.1369 C991.33,408.3169 1044.86,424.4669 1080.45,435.2069 " fill="none" id="overarch_architectureModelElement-backto-overarch_system" style="stroke:#181818;stroke-width:1.0;"/><polygon fill="none" points="942.17,400.7869,925.04,388.3069,946.21,387.3769,942.17,400.7869" style="stroke:#181818;stroke-width:1.0;"/></g><!--link overarch_system to overarch_container--><g id="link_overarch_system_overarch_container"><path codeLine="92" d="M1175.24,430.6669 C1192.09,424.2469 1210.41,416.0769 1226,406.2969 C1260.98,384.3569 1295.1,351.8669 1318.49,327.3569 " fill="none" id="overarch_system-overarch_container" style="stroke:#181818;stroke-width:1.0;"/><polygon fill="#181818" points="1162.71,435.2269,1169.7159,436.9349,1173.9871,431.1249,1166.9812,429.4168,1162.71,435.2269" style="stroke:#181818;stroke-width:1.0;"/><polygon fill="#181818" points="1327.53,317.7169,1318.4548,321.5433,1324.1088,321.3632,1324.289,327.0172,1327.53,317.7169" style="stroke:#181818;stroke-width:1.0;"/><line style="stroke:#181818;stroke-width:1.0;" x1="1324.1088" x2="1318.63" y1="321.3632" y2="327.2019"/></g><!--reverse link overarch_architectureModelElement to overarch_container--><g id="link_overarch_architectureModelElement_overarch_container"><path codeLine="93" d="M955.07,335.6169 C975.54,330.9669 996.84,326.5969 1017,323.2969 C1117.52,306.8269 1236.75,298.8269 1301.45,295.4269 " fill="none" id="overarch_architectureModelElement-backto-overarch_container" style="stroke:#181818;stroke-width:1.0;"/><polygon fill="none" points="956.41,342.4869,935.35,340.2369,953.22,328.8569,956.41,342.4869" style="stroke:#181818;stroke-width:1.0;"/></g><!--link overarch_container to overarch_component--><g id="link_overarch_container_overarch_component"><path codeLine="94" d="M1411.61,280.3569 C1427.54,276.9569 1444.83,273.2669 1461.11,269.7869 " fill="none" id="overarch_container-overarch_component" style="stroke:#181818;stroke-width:1.0;"/><polygon fill="#181818" points="1398.7,283.1169,1405.4029,285.7761,1410.4356,280.6115,1403.7327,277.9524,1398.7,283.1169" style="stroke:#181818;stroke-width:1.0;"/><polygon fill="#181818" points="1473.92,267.0569,1464.2832,265.024,1469.0302,268.1008,1465.9534,272.8477,1473.92,267.0569" style="stroke:#181818;stroke-width:1.0;"/><line style="stroke:#181818;stroke-width:1.0;" x1="1469.0302" x2="1461.2" y1="268.1008" y2="269.7669"/></g><!--reverse link overarch_architectureModelElement to overarch_component--><g id="link_overarch_architectureModelElement_overarch_component"><path codeLine="95" d="M905.96,330.9169 C938.05,314.6469 978.67,296.2669 1017,285.2969 C1177.94,239.2469 1378.62,244.6569 1473.88,250.7769 " fill="none" id="overarch_architectureModelElement-backto-overarch_component" style="stroke:#181818;stroke-width:1.0;"/><polygon fill="none" points="909.12,337.1669,888.14,340.1769,902.66,324.7469,909.12,337.1669" style="stroke:#181818;stroke-width:1.0;"/></g><!--reverse link overarch_identifiableNamedElement to overarch_deploymentModelElement--><g id="link_overarch_identifiableNamedElement_overarch_deploymentModelElement"><path codeLine="96" d="M584.84,593.3169 C640.96,487.8769 786.48,214.4369 830.62,131.4969 " fill="none" id="overarch_identifiableNamedElement-backto-overarch_deploymentModelElement" style="stroke:#181818;stroke-width:1.0;"/><polygon fill="none" points="590.88,596.8669,575.3,611.2369,578.52,590.2969,590.88,596.8669" style="stroke:#181818;stroke-width:1.0;"/></g><!--reverse link overarch_deploymentModelElement to overarch_node--><g id="link_overarch_deploymentModelElement_overarch_node"><path codeLine="97" d="M977.29,101.3469 C1018.16,95.6869 1059.69,88.4369 1087.43,81.6369 " fill="none" id="overarch_deploymentModelElement-backto-overarch_node" style="stroke:#181818;stroke-width:1.0;"/><polygon fill="none" points="978.1,108.2969,957.35,103.9869,976.26,94.4169,978.1,108.2969" style="stroke:#181818;stroke-width:1.0;"/></g><!--link overarch_node to overarch_deploymentModelElement--><g id="link_overarch_node_overarch_deploymentModelElement"><path codeLine="98" d="M1074.08,64.4669 C1037.6,66.6769 985.57,73.2269 940.36,80.9369 " fill="none" id="overarch_node-overarch_deploymentModelElement" style="stroke:#181818;stroke-width:1.0;"/><polygon fill="#181818" points="1087.26,63.8369,1081.0777,60.1249,1075.2734,64.4039,1081.4557,68.1159,1087.26,63.8369" style="stroke:#181818;stroke-width:1.0;"/><polygon fill="#181818" points="927.26,83.2369,936.8179,85.6132,932.184,82.3686,935.4286,77.7347,927.26,83.2369" style="stroke:#181818;stroke-width:1.0;"/><line style="stroke:#181818;stroke-width:1.0;" x1="932.184" x2="940.07" y1="82.3686" y2="80.9869"/></g><!--reverse link overarch_deploymentModelElement to overarch_container--><g id="link_overarch_deploymentModelElement_overarch_container"><path codeLine="99" d="M929.55,138.3469 C1036.07,177.6969 1216.08,244.1969 1301.4,275.7169 " fill="none" id="overarch_deploymentModelElement-backto-overarch_container" style="stroke:#181818;stroke-width:1.0;"/><polygon fill="none" points="926.89,144.8269,910.55,131.3269,931.74,131.6869,926.89,144.8269" style="stroke:#181818;stroke-width:1.0;"/></g><!--reverse link overarch_identifiableNamedElement to overarch_useCaseModelElement--><g id="link_overarch_identifiableNamedElement_overarch_useCaseModelElement"><path codeLine="100" d="M651.41,604.6069 C690.85,590.9869 736.6,575.1969 773.55,562.4469 " fill="none" id="overarch_identifiableNamedElement-backto-overarch_useCaseModelElement" style="stroke:#181818;stroke-width:1.0;"/><polygon fill="none" points="653.51,611.2869,632.32,611.1969,648.94,598.0469,653.51,611.2869" style="stroke:#181818;stroke-width:1.0;"/></g><!--reverse link overarch_useCaseModelElement to overarch_actor--><g id="link_overarch_useCaseModelElement_overarch_actor"><path codeLine="101" d="M937.1,568.6069 C989.05,585.7969 1050.87,606.2569 1087.83,618.4869 " fill="none" id="overarch_useCaseModelElement-backto-overarch_actor" style="stroke:#181818;stroke-width:1.0;"/><polygon fill="none" points="934.9,575.2569,918.11,562.3269,939.3,561.9669,934.9,575.2569" style="stroke:#181818;stroke-width:1.0;"/></g><!--reverse link overarch_useCaseModelElement to overarch_person--><g id="link_overarch_useCaseModelElement_overarch_person"><path codeLine="102" d="M887.61,500.6569 C921,472.1469 969.74,433.4069 1017,406.2969 C1037.19,394.7169 1061.19,384.7669 1081,377.4569 " fill="none" id="overarch_useCaseModelElement-backto-overarch_person" style="stroke:#181818;stroke-width:1.0;"/><polygon fill="none" points="891.78,506.3069,872.09,514.1269,882.61,495.7269,891.78,506.3069" style="stroke:#181818;stroke-width:1.0;"/></g><!--reverse link overarch_useCaseModelElement to overarch_system--><g id="link_overarch_useCaseModelElement_overarch_system"><path codeLine="103" d="M937.27,507.9269 C985.8,491.8669 1042.91,472.9669 1080.32,460.5969 " fill="none" id="overarch_useCaseModelElement-backto-overarch_system" style="stroke:#181818;stroke-width:1.0;"/><polygon fill="none" points="939.3,514.6269,918.11,514.2669,934.9,501.3369,939.3,514.6269" style="stroke:#181818;stroke-width:1.0;"/></g><!--reverse link overarch_useCaseModelElement to overarch_useCase--><g id="link_overarch_useCaseModelElement_overarch_useCase"><path codeLine="104" d="M967.01,538.2969 C1000.89,538.2969 1036.07,538.2969 1064.2,538.2969 " fill="none" id="overarch_useCaseModelElement-backto-overarch_useCase" style="stroke:#181818;stroke-width:1.0;"/><polygon fill="none" points="966.73,545.2969,946.73,538.2969,966.73,531.2969,966.73,545.2969" style="stroke:#181818;stroke-width:1.0;"/></g><!--reverse link overarch_identifiableNamedElement to overarch_stateMachineElement--><g id="link_overarch_identifiableNamedElement_overarch_stateMachineElement"><path codeLine="105" d="M571.15,679.0569 C591.43,777.1269 646.87,1020.7569 732,1210.2969 C830.07,1428.6569 833.18,1513.9769 1017,1667.2969 C1024.87,1673.8569 1033.91,1679.4569 1043.31,1684.2169 " fill="none" id="overarch_identifiableNamedElement-backto-overarch_stateMachineElement" style="stroke:#181818;stroke-width:1.0;"/><polygon fill="none" points="564.27,680.3869,567.15,659.3969,577.99,677.5969,564.27,680.3869" style="stroke:#181818;stroke-width:1.0;"/></g><!--link overarch_stateMachine to overarch_stateMachineElement--><g id="link_overarch_stateMachine_overarch_stateMachineElement"><path codeLine="106" d="M923.56,1708.2969 C951.15,1708.2969 982.71,1708.2969 1012.36,1708.2969 " fill="none" id="overarch_stateMachine-overarch_stateMachineElement" style="stroke:#181818;stroke-width:1.0;"/><polygon fill="#181818" points="910.32,1708.2969,916.32,1712.2969,922.32,1708.2969,916.32,1704.2969,910.32,1708.2969" style="stroke:#181818;stroke-width:1.0;"/><polygon fill="#181818" points="1025.37,1708.2969,1016.37,1704.2969,1020.37,1708.2969,1016.37,1712.2969,1025.37,1708.2969" style="stroke:#181818;stroke-width:1.0;"/><line style="stroke:#181818;stroke-width:1.0;" x1="1020.37" x2="1012.37" y1="1708.2969" y2="1708.2969"/></g><!--reverse link overarch_stateMachineElement to overarch_startState--><g id="link_overarch_stateMachineElement_overarch_startState"><path codeLine="107" d="M1237.88,1708.2969 C1259.13,1708.2969 1280.28,1708.2969 1298.34,1708.2969 " fill="none" id="overarch_stateMachineElement-backto-overarch_startState" style="stroke:#181818;stroke-width:1.0;"/><polygon fill="none" points="1237.57,1715.2969,1217.57,1708.2969,1237.57,1701.2969,1237.57,1715.2969" style="stroke:#181818;stroke-width:1.0;"/></g><!--reverse link overarch_stateMachineElement to overarch_state--><g id="link_overarch_stateMachineElement_overarch_state"><path codeLine="108" d="M1179.59,1740.4569 C1222.82,1758.8369 1280.67,1779.3769 1316.36,1788.6169 " fill="none" id="overarch_stateMachineElement-backto-overarch_state" style="stroke:#181818;stroke-width:1.0;"/><polygon fill="none" points="1176.66,1746.8169,1161.18,1732.3469,1182.3,1734.0069,1176.66,1746.8169" style="stroke:#181818;stroke-width:1.0;"/></g><!--link overarch_state to overarch_stateMachineElement--><g id="link_overarch_state_overarch_stateMachineElement"><path codeLine="109" d="M1304.41,1763.9669 C1282.99,1754.3169 1256.31,1743.7069 1230.03,1734.2169 " fill="none" id="overarch_state-overarch_stateMachineElement" style="stroke:#181818;stroke-width:1.0;"/><polygon fill="#181818" points="1316.37,1769.5169,1312.6183,1763.3586,1305.4908,1764.4531,1309.2424,1770.6114,1316.37,1769.5169" style="stroke:#181818;stroke-width:1.0;"/><polygon fill="#181818" points="1217.57,1729.7869,1224.7079,1736.573,1222.2806,1731.4633,1227.3902,1729.036,1217.57,1729.7869" style="stroke:#181818;stroke-width:1.0;"/><line style="stroke:#181818;stroke-width:1.0;" x1="1222.2806" x2="1229.825" y1="1731.4633" y2="1734.1419"/></g><!--reverse link overarch_stateMachineElement to overarch_endState--><g id="link_overarch_stateMachineElement_overarch_endState"><path codeLine="110" d="M1168.45,1744.9169 C1200.84,1770.3569 1245.49,1804.6869 1286,1833.2969 C1293.99,1838.9469 1302.71,1844.7969 1311.04,1850.2569 " fill="none" id="overarch_stateMachineElement-backto-overarch_endState" style="stroke:#181818;stroke-width:1.0;"/><polygon fill="none" points="1164.08,1750.3869,1152.72,1732.4969,1172.76,1739.3969,1164.08,1750.3869" style="stroke:#181818;stroke-width:1.0;"/></g><!--reverse link overarch_stateMachineElement to overarch_fork--><g id="link_overarch_stateMachineElement_overarch_fork"><path codeLine="111" d="M1220.79,1672.3469 C1222.6,1670.7369 1224.34,1669.0569 1226,1667.2969 C1284.43,1605.3269 1234.41,1553.0669 1286,1485.2969 C1295.08,1473.3769 1308.56,1463.7369 1320.73,1456.7269 " fill="none" id="overarch_stateMachineElement-backto-overarch_fork" style="stroke:#181818;stroke-width:1.0;"/><polygon fill="none" points="1224.68,1678.1669,1204.35,1684.1469,1216.52,1666.7969,1224.68,1678.1669" style="stroke:#181818;stroke-width:1.0;"/></g><!--reverse link overarch_stateMachineElement to overarch_join--><g id="link_overarch_stateMachineElement_overarch_join"><path codeLine="112" d="M1217.62,1673.7169 C1220.53,1671.6869 1223.34,1669.5469 1226,1667.2969 C1265.3,1634.0869 1250.41,1605.4569 1286,1568.2969 C1296.37,1557.4769 1309.99,1547.9669 1321.92,1540.7369 " fill="none" id="overarch_stateMachineElement-backto-overarch_join" style="stroke:#181818;stroke-width:1.0;"/><polygon fill="none" points="1220.8,1679.9669,1200.03,1684.1769,1213.64,1667.9369,1220.8,1679.9669" style="stroke:#181818;stroke-width:1.0;"/></g><!--reverse link overarch_stateMachineElement to overarch_choice--><g id="link_overarch_stateMachineElement_overarch_choice"><path codeLine="113" d="M1202.18,1676.8169 C1210.23,1673.6069 1218.28,1670.3969 1226,1667.2969 C1245.47,1659.4869 1266.64,1650.9069 1285.84,1643.0969 " fill="none" id="overarch_stateMachineElement-backto-overarch_choice" style="stroke:#181818;stroke-width:1.0;"/><polygon fill="none" points="1204.73,1683.3369,1183.56,1684.2169,1199.56,1670.3269,1204.73,1683.3369" style="stroke:#181818;stroke-width:1.0;"/></g><!--reverse link overarch_namedRelationalElement to overarch_transition--><g id="link_overarch_namedRelationalElement_overarch_transition"><path codeLine="114" d="M1218.11,747.4269 C1220.88,749.5869 1223.52,751.8769 1226,754.2969 C1302.31,828.6669 1334.38,958.3869 1344.82,1012.0169 " fill="none" id="overarch_namedRelationalElement-backto-overarch_transition" style="stroke:#181818;stroke-width:1.0;"/><polygon fill="none" points="1214.11,753.1769,1201.17,736.3969,1221.75,741.4469,1214.11,753.1769" style="stroke:#181818;stroke-width:1.0;"/></g><!--reverse link overarch_stateMachineElement to overarch_transition--><g id="link_overarch_stateMachineElement_overarch_transition"><path codeLine="115" d="M1221.9,1671.8269 C1223.33,1670.3769 1224.7,1668.8669 1226,1667.2969 C1246.08,1643.1169 1326.05,1172.9769 1344.97,1060.3769 " fill="none" id="overarch_stateMachineElement-backto-overarch_transition" style="stroke:#181818;stroke-width:1.0;"/><polygon fill="none" points="1226.22,1677.3269,1206.21,1684.2869,1217.51,1666.3669,1226.22,1677.3269" style="stroke:#181818;stroke-width:1.0;"/></g><!--reverse link overarch_identifiableNamedElement to overarch_classModelElement--><g id="link_overarch_identifiableNamedElement_overarch_classModelElement"><path codeLine="116" d="M584.68,677.3669 C640.75,783.7169 786.79,1060.7369 830.78,1144.1769 " fill="none" id="overarch_identifiableNamedElement-backto-overarch_classModelElement" style="stroke:#181818;stroke-width:1.0;"/><polygon fill="none" points="578.44,680.5369,575.3,659.5869,590.82,674.0069,578.44,680.5369" style="stroke:#181818;stroke-width:1.0;"/></g><!--reverse link overarch_classModelElement to overarch_package--><g id="link_overarch_classModelElement_overarch_package"><path codeLine="117" d="M864.72,1210.7069 C891.56,1265.5969 945.17,1360.9969 1017,1418.2969 C1034.15,1431.9769 1056.44,1441.5869 1075.93,1448.0469 " fill="none" id="overarch_classModelElement-backto-overarch_package" style="stroke:#181818;stroke-width:1.0;"/><polygon fill="none" points="858.31,1213.5269,856.06,1192.4569,870.96,1207.5269,858.31,1213.5269" style="stroke:#181818;stroke-width:1.0;"/></g><!--reverse link overarch_classModelElement to overarch_namespace--><g id="link_overarch_classModelElement_overarch_namespace"><path codeLine="118" d="M857.08,1211.9169 C877.81,1282.0969 927.69,1420.3769 1017,1501.2969 C1030.46,1513.4969 1047.99,1522.2669 1064.79,1528.4769 " fill="none" id="overarch_classModelElement-backto-overarch_namespace" style="stroke:#181818;stroke-width:1.0;"/><polygon fill="none" points="850.28,1213.6169,851.56,1192.4669,863.75,1209.7969,850.28,1213.6169" style="stroke:#181818;stroke-width:1.0;"/></g><!--reverse link overarch_classModelElement to overarch_interface--><g id="link_overarch_classModelElement_overarch_interface"><path codeLine="119" d="M863.99,1211.2069 C886.37,1263.3369 925.03,1354.0269 957,1432.2969 C984.46,1499.5369 965.68,1532.9069 1017,1584.2969 C1032.78,1600.0869 1055.38,1609.9769 1075.45,1616.0769 " fill="none" id="overarch_classModelElement-backto-overarch_interface" style="stroke:#181818;stroke-width:1.0;"/><polygon fill="none" points="857.46,1213.7369,855.99,1192.6069,870.32,1208.2069,857.46,1213.7369" style="stroke:#181818;stroke-width:1.0;"/></g><!--reverse link overarch_classModelElement to overarch_protocol--><g id="link_overarch_classModelElement_overarch_protocol"><path codeLine="120" d="M952.07,1184.5769 C995.56,1191.2169 1043.41,1198.5269 1076.96,1203.6469 " fill="none" id="overarch_classModelElement-backto-overarch_protocol" style="stroke:#181818;stroke-width:1.0;"/><polygon fill="none" points="950.85,1191.4669,932.13,1181.5269,952.96,1177.6269,950.85,1191.4669" style="stroke:#181818;stroke-width:1.0;"/></g><!--reverse link overarch_classModelElement to overarch_class--><g id="link_overarch_classModelElement_overarch_class"><path codeLine="121" d="M910.64,1201.6969 C942.44,1217.6169 981.43,1236.5669 1017,1252.2969 C1040.33,1262.6169 1067.12,1273.1869 1087.6,1281.0169 " fill="none" id="overarch_classModelElement-backto-overarch_class" style="stroke:#181818;stroke-width:1.0;"/><polygon fill="none" points="907.06,1207.7269,892.35,1192.4769,913.36,1195.2269,907.06,1207.7269" style="stroke:#181818;stroke-width:1.0;"/></g><!--reverse link overarch_classModelElement to overarch_enum--><g id="link_overarch_classModelElement_overarch_enum"><path codeLine="122" d="M878.06,1208.0269 C910.16,1245.0869 962.25,1299.8469 1017,1335.2969 C1038.09,1348.9569 1064.45,1359.3169 1085.29,1366.2069 " fill="none" id="overarch_classModelElement-backto-overarch_enum" style="stroke:#181818;stroke-width:1.0;"/><polygon fill="none" points="872.38,1212.1469,864.78,1192.3669,883.06,1203.0869,872.38,1212.1469" style="stroke:#181818;stroke-width:1.0;"/></g><!--reverse link overarch_relationalElement to overarch_implementation--><g id="link_overarch_relationalElement_overarch_implementation"><path codeLine="123" d="M910.27,931.5069 C941.32,955.4169 979.8,982.8069 1017,1003.2969 C1028.17,1009.4469 1040.46,1015.1569 1052.55,1020.2369 " fill="none" id="overarch_relationalElement-backto-overarch_implementation" style="stroke:#181818;stroke-width:1.0;"/><polygon fill="none" points="905.73,936.8469,894.29,919.0069,914.36,925.8169,905.73,936.8469" style="stroke:#181818;stroke-width:1.0;"/></g><!--reverse link overarch_classModelElement to overarch_implementation--><g id="link_overarch_classModelElement_overarch_implementation"><path codeLine="124" d="M912.14,1135.2869 C943.71,1119.9369 982.08,1101.7169 1017,1086.2969 C1030.66,1080.2669 1045.47,1074.0669 1059.49,1068.3369 " fill="none" id="overarch_classModelElement-backto-overarch_implementation" style="stroke:#181818;stroke-width:1.0;"/><polygon fill="none" points="914.97,1141.6869,893.93,1144.1769,908.82,1129.1069,914.97,1141.6869" style="stroke:#181818;stroke-width:1.0;"/></g><!--reverse link overarch_relationalElement to overarch_inheritance--><g id="link_overarch_relationalElement_overarch_inheritance"><path codeLine="125" d="M881.08,935.8669 C912.08,981.9369 960.8,1045.3869 1017,1086.2969 C1031.84,1097.1069 1049.92,1105.5369 1066.79,1111.8669 " fill="none" id="overarch_relationalElement-backto-overarch_inheritance" style="stroke:#181818;stroke-width:1.0;"/><polygon fill="none" points="875.23,939.6969,870.09,919.1469,886.93,932.0069,875.23,939.6969" style="stroke:#181818;stroke-width:1.0;"/></g><!--reverse link overarch_classModelElement to overarch_inheritance--><g id="link_overarch_classModelElement_overarch_inheritance"><path codeLine="126" d="M951.96,1152.4269 C991.21,1146.5769 1034.02,1140.1869 1066.68,1135.3169 " fill="none" id="overarch_classModelElement-backto-overarch_inheritance" style="stroke:#181818;stroke-width:1.0;"/><polygon fill="none" points="952.95,1159.3569,932.13,1155.3769,950.88,1145.5069,952.95,1159.3569" style="stroke:#181818;stroke-width:1.0;"/></g><!--reverse link overarch_relationalElement to overarch_composition--><g id="link_overarch_relationalElement_overarch_composition"><path codeLine="127" d="M942.15,849.1269 C982.49,836.9469 1027.98,823.2169 1062.92,812.6769 " fill="none" id="overarch_relationalElement-backto-overarch_composition" style="stroke:#181818;stroke-width:1.0;"/><polygon fill="none" points="944,855.8769,922.83,854.9569,939.96,842.4769,944,855.8769" style="stroke:#181818;stroke-width:1.0;"/></g><!--reverse link overarch_classModelElement to overarch_composition--><g id="link_overarch_classModelElement_overarch_composition"><path codeLine="128" d="M865.46,1125.8369 C905.45,1041.3969 993.56,858.6669 1017,837.2969 C1029.97,825.4769 1046.7,816.7669 1062.92,810.4369 " fill="none" id="overarch_classModelElement-backto-overarch_composition" style="stroke:#181818;stroke-width:1.0;"/><polygon fill="none" points="871.7,1129.0169,856.83,1144.1169,859.04,1123.0469,871.7,1129.0169" style="stroke:#181818;stroke-width:1.0;"/></g><!--reverse link overarch_relationalElement to overarch_aggregation--><g id="link_overarch_relationalElement_overarch_aggregation"><path codeLine="129" d="M942.85,878.2969 C983.35,878.2969 1028.94,878.2969 1063.79,878.2969 " fill="none" id="overarch_relationalElement-backto-overarch_aggregation" style="stroke:#181818;stroke-width:1.0;"/><polygon fill="none" points="942.83,885.2969,922.83,878.2969,942.83,871.2969,942.83,885.2969" style="stroke:#181818;stroke-width:1.0;"/></g><!--reverse link overarch_classModelElement to overarch_aggregation--><g id="link_overarch_classModelElement_overarch_aggregation"><path codeLine="130" d="M865.08,1125.9069 C892.17,1071.4869 945.88,977.2969 1017,920.2969 C1030.69,909.3169 1047.64,900.8569 1063.83,894.4969 " fill="none" id="overarch_classModelElement-backto-overarch_aggregation" style="stroke:#181818;stroke-width:1.0;"/><polygon fill="none" points="871.34,1129.0569,856.33,1144.0169,858.73,1122.9569,871.34,1129.0569" style="stroke:#181818;stroke-width:1.0;"/></g><!--reverse link overarch_relationalElement to overarch_association--><g id="link_overarch_relationalElement_overarch_association"><path codeLine="131" d="M942.15,907.4669 C983.83,920.0469 1031.01,934.2869 1066.37,944.9569 " fill="none" id="overarch_relationalElement-backto-overarch_association" style="stroke:#181818;stroke-width:1.0;"/><polygon fill="none" points="939.96,914.1169,922.83,901.6369,944,900.7169,939.96,914.1169" style="stroke:#181818;stroke-width:1.0;"/></g><!--reverse link overarch_classModelElement to overarch_association--><g id="link_overarch_classModelElement_overarch_association"><path codeLine="132" d="M878.76,1128.5669 C911.02,1092.0469 962.91,1038.4169 1017,1003.2969 C1032.13,993.4769 1049.92,985.2469 1066.45,978.7569 " fill="none" id="overarch_classModelElement-backto-overarch_association" style="stroke:#181818;stroke-width:1.0;"/><polygon fill="none" points="883.76,1133.4769,865.38,1144.0069,873.18,1124.3069,883.76,1133.4769" style="stroke:#181818;stroke-width:1.0;"/></g><!--reverse link overarch_view to overarch_architectureView--><g id="link_overarch_view_overarch_architectureView"><path codeLine="133" d="M133.73,335.5469 C159.78,319.1569 192.78,298.9769 223,282.2969 C233.27,276.6269 244.43,270.8569 255.14,265.5069 " fill="none" id="overarch_view-backto-overarch_architectureView" style="stroke:#181818;stroke-width:1.0;"/><polygon fill="none" points="137.18,341.6569,116.54,346.4669,129.67,329.8369,137.18,341.6569" style="stroke:#181818;stroke-width:1.0;"/></g><!--reverse link overarch_architectureView to overarch_systemLandscapeView--><g id="link_overarch_architectureView_overarch_systemLandscapeView"><path codeLine="134" d="M362.67,206.6669 C388.84,190.8469 420.96,172.5169 451,158.2969 C463.66,152.3069 477.45,146.5669 490.84,141.3769 " fill="none" id="overarch_architectureView-backto-overarch_systemLandscapeView" style="stroke:#181818;stroke-width:1.0;"/><polygon fill="none" points="366.31,212.6469,345.6,217.1369,358.99,200.7169,366.31,212.6469" style="stroke:#181818;stroke-width:1.0;"/></g><!--reverse link overarch_architectureView to overarch_contextView--><g id="link_overarch_architectureView_overarch_contextView"><path codeLine="135" d="M402.49,225.9569 C435.89,220.5269 472.45,214.5969 501.99,209.7969 " fill="none" id="overarch_architectureView-backto-overarch_contextView" style="stroke:#181818;stroke-width:1.0;"/><polygon fill="none" points="403.6,232.8669,382.73,229.1669,401.35,219.0469,403.6,232.8669" style="stroke:#181818;stroke-width:1.0;"/></g><!--reverse link overarch_architectureView to overarch_componentView--><g id="link_overarch_architectureView_overarch_componentView"><path codeLine="136" d="M378.2,274.9569 C382.57,277.3669 386.87,279.8169 391,282.2969 C419.13,299.1769 422.05,309.8569 451,325.2969 C462.64,331.5069 475.43,337.2069 488.03,342.2569 " fill="none" id="overarch_architectureView-backto-overarch_componentView" style="stroke:#181818;stroke-width:1.0;"/><polygon fill="none" points="374.49,280.9069,360.06,265.3869,381.01,268.5269,374.49,280.9069" style="stroke:#181818;stroke-width:1.0;"/></g><!--reverse link overarch_architectureView to overarch_dynamicView--><g id="link_overarch_architectureView_overarch_dynamicView"><path codeLine="137" d="M402.86,257.0769 C435.09,262.4369 470.22,268.2769 499.13,273.0869 " fill="none" id="overarch_architectureView-backto-overarch_dynamicView" style="stroke:#181818;stroke-width:1.0;"/><polygon fill="none" points="401.31,263.9169,382.73,253.7269,403.61,250.1069,401.31,263.9169" style="stroke:#181818;stroke-width:1.0;"/></g><!--reverse link overarch_view to overarch_deploymentView--><g id="link_overarch_view_overarch_deploymentView"><path codeLine="138" d="M136.58,356.6369 C164.89,351.2369 200.7,344.3969 232.09,338.4069 " fill="none" id="overarch_view-backto-overarch_deploymentView" style="stroke:#181818;stroke-width:1.0;"/><polygon fill="none" points="137.55,363.5869,116.59,360.4569,134.92,349.8269,137.55,363.5869" style="stroke:#181818;stroke-width:1.0;"/></g><!--reverse link overarch_view to overarch_classView--><g id="link_overarch_view_overarch_classView"><path codeLine="139" d="M136.34,375.6769 C172.15,382.3469 220.04,391.2769 255.81,397.9469 " fill="none" id="overarch_view-backto-overarch_classView" style="stroke:#181818;stroke-width:1.0;"/><polygon fill="none" points="134.97,382.5469,116.59,371.9969,137.53,368.7769,134.97,382.5469" style="stroke:#181818;stroke-width:1.0;"/></g><!--reverse link overarch_view to overarch_stateMachineView--><g id="link_overarch_view_overarch_stateMachineView"><path codeLine="140" d="M133.78,396.6269 C159.83,412.8069 192.84,432.7469 223,449.2969 C233.43,455.0169 244.76,460.8569 255.61,466.2669 " fill="none" id="overarch_view-backto-overarch_stateMachineView" style="stroke:#181818;stroke-width:1.0;"/><polygon fill="none" points="129.81,402.3969,116.57,385.8569,137.24,390.5369,129.81,402.3969" style="stroke:#181818;stroke-width:1.0;"/></g><!--SRC=[hLTDZziW4BtxLw0UA_aFL5KlRM_ThTHAlLR47YTqCKJ0PXkr_Uy5R6o-RB2qfyWpxyt0C84t50Q554U2d2yAzKH0fmXdJQE8ee2-ta3S2BmWFY1rcRwnw2xe4rOOFV0UQ8DFKWdSATHHB2Lw0nH6OEeDmXBn6VzpDg8_3K90qJlq1FSNBlhcNy8dlGQIWU0JXJORp4TyzWAJVZSmmoFq-OZMvOSo1XrC1o3ihBzxaDtwNLZqJY8Vz-WbJG8AeDYS1ARvGAlVN_OW-EZL09cZBPUabCkYliK9as0AkWiZtLQKnUqls1ZtwcgOH8FKiu1sDFsM3-xZR5kkITAWFLmflnltNiWLvGTCWac5bLuQrldPHhzQoCE4s0fZV_QMOm6xAtcMq7POxjP9OpvgI11dwRWXRh71df7vzPjenbz1ICv2ocHp27cN2iQe5jRc41rd2kkgY6YlphpYnYjdQKsSsU6OtbVKkzhYlBfMFCfaJKrKm6p9R2aetABRonK3Tq_u735dO-FzsQIsGVhlicQ78qo161BSObvo2gvunscKTBOsVcDbMidvWJr7HsGipZiGe7tejYPRZHkHv4GeKVVWpk7NwPxGnXFd531RwpI2kl0eu6JRZhYGoNYTMjPUH55r0jzQoWi8eZ1BYxauWXwJ90tjEPPEEfy5d3FBy1mBLahUaHnsTJIvosJx4l7WGhNMau25-cxiGUHCnBKD-bmWRGx235myHUsWBSxxYvDeZyQo5FZ2INmEaysUlVxJzxR8_dlWdXQ1MUveLdjo6nhP4eAjaB6FZj4sfSScvVlk7zeRNdCjnQoN7Rxcg1FaYqFuR7FNmM-L8SsU43nVU1jmUsdw1E-fInchCw3SzOr4kXn-yWGBiizMPZ767XGfU2Op5VBQs_8IwVZ-RzlkQi0InHTvpQwOt4xrc8qHoCUZvF824grNbNb3jUqeo6FyhPr5ORQKMLFMRc6WMLiSfSs28_f6RzlsGqvm70sVOIwc98bJAyUJ9CpAwc-8s88_xWIZeOAlQ6UlaYLJoSfDvaJjdZFkKAi13n3YJYmpuYOiCsR4uLhaPesiCph2QjvcMYSuZh4ImkkkQz4l1pXMqHp0Murp03zfdgPmqKOaJ-aSI9LZLJPIEczkk-B_npptL1FM4QYQiav3zSjoar4rOngKgk5sSAf-NwE9fNxd6xnYFc_aEL3c3AcKoH-OwckT8vKo-UDMTQOigPZ96zRgC-L8TWpPraYX-8qzsNSbd2jgkVvuKS-PXSWXbZytx9KXcaVseEjyiOUAXuh_]--></g></svg>