<?xml version="1.0" encoding="us-ascii" standalone="no"?><svg xmlns="http://www.w3.org/2000/svg" xmlns:xlink="http://www.w3.org/1999/xlink" contentStyleType="text/css" height="478px" preserveAspectRatio="none" style="width:548px;height:478px;background:#FFFFFF;" version="1.1" viewBox="0 0 548 478" width="548px" zoomAndPan="magnify"><defs/><g><text fill="#000000" font-family="sans-serif" font-size="14" font-weight="bold" lengthAdjust="spacing" textLength="217" x="158.6963" y="22.9951">Use Case View of Overarch</text><!--entity overarch_modeller--><g id="elem_overarch_modeller"><ellipse cx="35.5" cy="313.7969" fill="#F1F1F1" rx="8" ry="8" style="stroke:#181818;stroke-width:0.5;"/><path d="M35.5,321.7969 L35.5,348.7969 M22.5,329.7969 L48.5,329.7969 M35.5,348.7969 L22.5,363.7969 M35.5,348.7969 L48.5,363.7969 " fill="none" style="stroke:#181818;stroke-width:0.5;"/><text fill="#000000" font-family="sans-serif" font-size="14" lengthAdjust="spacing" textLength="59" x="6" y="378.292">Modeller</text></g><!--entity overarch_editor--><g id="elem_overarch_editor"><ellipse cx="462" cy="405.7969" fill="#F1F1F1" rx="8" ry="8" style="stroke:#181818;stroke-width:0.5;"/><path d="M462,413.7969 L462,440.7969 M449,421.7969 L475,421.7969 M462,440.7969 L449,455.7969 M462,440.7969 L475,455.7969 " fill="none" style="stroke:#181818;stroke-width:0.5;"/><text fill="#000000" font-family="sans-serif" font-size="14" lengthAdjust="spacing" textLength="68" x="428" y="470.292">Editor/IDE</text></g><g id="elem_overarch_ucModelSystem"><ellipse cx="197.5529" cy="370.5075" fill="#BBBBFF" rx="71.5529" ry="16.7106" style="stroke:#181818;stroke-width:0.5;"/><text fill="#000000" font-family="sans-serif" font-size="14" lengthAdjust="spacing" textLength="97" x="146.0529" y="374.255">model system</text></g><g id="elem_overarch_ucDefineViews"><ellipse cx="197.6678" cy="438.1304" fill="#BBBBFF" rx="67.1678" ry="15.8336" style="stroke:#181818;stroke-width:0.5;"/><text fill="#000000" font-family="sans-serif" font-size="14" lengthAdjust="spacing" textLength="85" x="152.1678" y="441.878">define views</text></g><g id="elem_overarch_ucExportModel"><ellipse cx="197.3288" cy="302.0626" fill="#BBBBFF" rx="69.3288" ry="16.2658" style="stroke:#181818;stroke-width:0.5;"/><text fill="#000000" font-family="sans-serif" font-size="14" lengthAdjust="spacing" textLength="91" x="148.8288" y="305.8102">export model</text></g><g id="elem_overarch_ucExportJson"><ellipse cx="461.7655" cy="272.35" fill="#8888DD" rx="65.7655" ry="15.5531" style="stroke:#181818;stroke-width:0.5;"/><text fill="#000000" font-family="sans-serif" font-size="14" lengthAdjust="spacing" textLength="81" x="418.2655" y="276.0975">export JSON</text></g><g id="elem_overarch_ucExportStructurizr"><ellipse cx="462.1963" cy="341.2361" fill="#8888DD" rx="80.1963" ry="18.4393" style="stroke:#181818;stroke-width:0.5;"/><text fill="#000000" font-family="sans-serif" font-size="14" lengthAdjust="spacing" textLength="119" x="401.1039" y="344.5948">export Structurizr</text></g><g id="elem_overarch_ucRenderViews"><ellipse cx="197.74" cy="169.3449" fill="#BBBBFF" rx="68.24" ry="16.048" style="stroke:#181818;stroke-width:0.5;"/><text fill="#000000" font-family="sans-serif" font-size="14" lengthAdjust="spacing" textLength="88" x="150.74" y="173.0924">render views</text></g><g id="elem_overarch_ucRenderPlantuml"><ellipse cx="461.7532" cy="61.2475" fill="#8888DD" rx="77.7532" ry="17.9506" style="stroke:#181818;stroke-width:0.5;"/><text fill="#000000" font-family="sans-serif" font-size="14" lengthAdjust="spacing" textLength="113" x="402.6994" y="64.8777">render PlantUML</text></g><g id="elem_overarch_ucRenderMarkdown"><ellipse cx="462.1963" cy="133.2361" fill="#8888DD" rx="80.1963" ry="18.4393" style="stroke:#181818;stroke-width:0.5;"/><text fill="#000000" font-family="sans-serif" font-size="14" lengthAdjust="spacing" textLength="119" x="401.1039" y="136.5948">export Markdown</text></g><g id="elem_overarch_ucRenderGraphviz"><ellipse cx="462.0612" cy="204.5091" fill="#8888DD" rx="76.5612" ry="17.7122" style="stroke:#181818;stroke-width:0.5;"/><text fill="#000000" font-family="sans-serif" font-size="14" lengthAdjust="spacing" textLength="110" x="404.0612" y="208.2567">export GraphViz</text></g><!--link overarch_modeller to overarch_ucModelSystem--><g id="link_overarch_modeller_overarch_ucModelSystem"><path d="M65.1,348.1269 C84.32,351.3669 110.4,355.7669 134.26,359.7969 " fill="none" id="overarch_modeller-to-overarch_ucModelSystem" style="stroke:#181818;stroke-width:1.0;"/><polygon fill="#181818" points="139.31,360.6469,131.0977,355.2101,134.3792,359.8179,129.7714,363.0994,139.31,360.6469" style="stroke:#181818;stroke-width:1.0;"/></g><!--link overarch_ucModelSystem to overarch_editor--><g id="link_overarch_ucModelSystem_overarch_editor"><path d="M246.95,382.2969 C297.69,394.8569 376.34,414.3369 422.85,425.8469 " fill="none" id="overarch_ucModelSystem-to-overarch_editor" style="stroke:#181818;stroke-width:1.0;"/><polygon fill="#181818" points="427.8,427.0769,420.0389,421.0135,422.9493,425.8642,418.0986,428.7746,427.8,427.0769" style="stroke:#181818;stroke-width:1.0;"/></g><!--link overarch_modeller to overarch_ucDefineViews--><g id="link_overarch_modeller_overarch_ucDefineViews"><path d="M65.22,364.4769 C82.43,376.7669 105,392.1669 126,404.2969 C136.81,410.5369 148.94,416.6869 160.05,421.9869 " fill="none" id="overarch_modeller-to-overarch_ucDefineViews" style="stroke:#181818;stroke-width:1.0;"/><polygon fill="#181818" points="164.75,424.2169,158.3257,416.7518,160.2304,422.0783,154.9039,423.9831,164.75,424.2169" style="stroke:#181818;stroke-width:1.0;"/></g><!--link overarch_ucDefineViews to overarch_editor--><g id="link_overarch_ucDefineViews_overarch_editor"><path d="M264.74,437.5369 C314.7,436.9669 381.47,436.2069 422.83,435.7369 " fill="none" id="overarch_ucDefineViews-to-overarch_editor" style="stroke:#181818;stroke-width:1.0;"/><polygon fill="#181818" points="428,435.6769,418.9549,431.78,423.0003,435.734,419.0463,439.7795,428,435.6769" style="stroke:#181818;stroke-width:1.0;"/></g><!--link overarch_modeller to overarch_ucExportModel--><g id="link_overarch_modeller_overarch_ucExportModel"><path d="M65.1,335.9669 C87.19,330.3069 118.34,322.3269 144.77,315.5569 " fill="none" id="overarch_modeller-to-overarch_ucExportModel" style="stroke:#181818;stroke-width:1.0;"/><polygon fill="#181818" points="149.64,314.3069,139.9282,312.6697,144.7969,315.5498,141.9168,320.4186,149.64,314.3069" style="stroke:#181818;stroke-width:1.0;"/></g><!--link overarch_modeller to overarch_ucRenderViews--><g id="link_overarch_modeller_overarch_ucRenderViews"><path d="M65.1,312.1869 C97.97,276.4569 150.89,218.8969 178.47,188.9069 " fill="none" id="overarch_modeller-to-overarch_ucRenderViews" style="stroke:#181818;stroke-width:1.0;"/><polygon fill="#181818" points="182.03,185.0369,172.9882,188.9414,178.6404,188.7125,178.8692,194.3648,182.03,185.0369" style="stroke:#181818;stroke-width:1.0;"/></g><!--reverse link overarch_ucExportModel to overarch_ucExportJson--><g id="link_overarch_ucExportModel_overarch_ucExportJson"><path d="M265.47,294.6469 C307.69,289.8169 361.69,283.6469 402.24,279.0169 " fill="none" id="overarch_ucExportModel-backto-overarch_ucExportJson" style="stroke:#181818;stroke-width:1.0;stroke-dasharray:7.0,7.0;"/><polygon fill="#181818" points="260.38,295.2269,269.7695,298.1996,265.3489,294.67,268.8785,290.2494,260.38,295.2269" style="stroke:#181818;stroke-width:1.0;"/><text fill="#000000" font-family="sans-serif" font-size="13" lengthAdjust="spacing" textLength="51" x="300" y="282.3638">extends</text></g><!--reverse link overarch_ucExportModel to overarch_ucExportStructurizr--><g id="link_overarch_ucExportModel_overarch_ucExportStructurizr"><path d="M262.07,311.7369 C302.03,317.6769 353.53,325.3269 394.11,331.3569 " fill="none" id="overarch_ucExportModel-backto-overarch_ucExportStructurizr" style="stroke:#181818;stroke-width:1.0;stroke-dasharray:7.0,7.0;"/><polygon fill="#181818" points="256.76,310.9569,265.0805,316.2265,261.7066,311.686,266.2471,308.312,256.76,310.9569" style="stroke:#181818;stroke-width:1.0;"/><text fill="#000000" font-family="sans-serif" font-size="13" lengthAdjust="spacing" textLength="51" x="300" y="315.3638">extends</text></g><!--reverse link overarch_ucRenderViews to overarch_ucRenderGraphviz--><g id="link_overarch_ucRenderViews_overarch_ucRenderGraphviz"><path d="M247.22,182.6569 C263.56,186.6769 281.96,190.7069 299,193.2969 C327.29,197.6069 358.61,200.2269 386.11,201.8169 " fill="none" id="overarch_ucRenderViews-backto-overarch_ucRenderGraphviz" style="stroke:#181818;stroke-width:1.0;stroke-dasharray:7.0,7.0;"/><polygon fill="#181818" points="242.22,181.4169,249.9979,187.4587,247.0741,182.6161,251.9167,179.6923,242.22,181.4169" style="stroke:#181818;stroke-width:1.0;"/><text fill="#000000" font-family="sans-serif" font-size="13" lengthAdjust="spacing" textLength="51" x="300" y="189.3638">extends</text></g><!--reverse link overarch_ucRenderViews to overarch_ucRenderMarkdown--><g id="link_overarch_ucRenderViews_overarch_ucRenderMarkdown"><path d="M262.01,160.5869 C301.52,155.1669 352.31,148.2069 392.68,142.6669 " fill="none" id="overarch_ucRenderViews-backto-overarch_ucRenderMarkdown" style="stroke:#181818;stroke-width:1.0;stroke-dasharray:7.0,7.0;"/><polygon fill="#181818" points="256.76,161.3069,266.2243,164.0322,261.7126,160.6198,265.125,156.1081,256.76,161.3069" style="stroke:#181818;stroke-width:1.0;"/><text fill="#000000" font-family="sans-serif" font-size="13" lengthAdjust="spacing" textLength="51" x="300" y="145.3638">extends</text></g><!--reverse link overarch_ucRenderViews to overarch_ucRenderPlantuml--><g id="link_overarch_ucRenderViews_overarch_ucRenderPlantuml"><path d="M233.88,152.9369 C253.05,144.1969 277.21,133.4069 299,124.2969 C339.93,107.1869 387.27,88.9569 420.16,76.5269 " fill="none" id="overarch_ucRenderViews-backto-overarch_ucRenderPlantuml" style="stroke:#181818;stroke-width:1.0;stroke-dasharray:7.0,7.0;"/><polygon fill="#181818" points="229.12,155.1069,238.9685,155.0241,233.6718,153.0379,235.6581,147.7412,229.12,155.1069" style="stroke:#181818;stroke-width:1.0;"/><text fill="#000000" font-family="sans-serif" font-size="13" lengthAdjust="spacing" textLength="51" x="300" y="101.3638">extends</text></g><!--SRC=[dP91Jy9048Nl-oicUD43U3KUF6Z1I4IC1Avcqqxjnj8birD0VhtBffKstGNJFRJ9lFdUx6HVZYa3Qo3rbJ4aYZ1cfGiXM76Ei3G8Jz9-LWfte5EORv4anPcGCMk2mKmdcET80v06T2L-hgjgtJLEbFtVlaJZTX-wkYWDniSX0yU1-J6CQzTv_TTQncxKmcatSFLepsHoGXDCLO6mjVSq7JHoud47uq5nlz74u8PtqB4JtUmmEbtCtmBarEZ2WdVsH547N32LCPUa3XJW6nqU6y8YGGfi_U74qDOL-fxBWfUprm3jv7ATXrUOIVfEzAu86DHosE2Pv2PRgKF0mCbRTJWPT686m-43-9CY_EKsKSNmecyZHi9VxkVRoDZbviQh2c_QO5HkHY5_k0VSixNmm8sezV1elrRNe77lSmPrNdeRr8dzfy4l]--></g></svg>