<?xml version="1.0" encoding="us-ascii" standalone="no"?><svg xmlns="http://www.w3.org/2000/svg" xmlns:xlink="http://www.w3.org/1999/xlink" contentStyleType="text/css" height="1028px" preserveAspectRatio="none" style="width:1069px;height:1028px;background:#FFFFFF;" version="1.1" viewBox="0 0 1069 1028" width="1069px" zoomAndPan="magnify"><defs/><g><text fill="#000000" font-family="sans-serif" font-size="14" font-weight="bold" lengthAdjust="spacing" textLength="248" x="403.5" y="22.9951">Overview of the View Elements</text><!--class overarch_element--><g id="elem_overarch_element"><rect codeLine="6" fill="#F1F1F1" height="64.2969" id="overarch_element" rx="2.5" ry="2.5" style="stroke:#181818;stroke-width:0.5;" width="95" x="10" y="675.2969"/><ellipse cx="27.7" cy="691.2969" fill="#A9DCDF" rx="11" ry="11" style="stroke:#181818;stroke-width:1.0;"/><path d="M27.8094,686.6406 L26.6531,691.7188 L28.9813,691.7188 L27.8094,686.6406 Z M26.325,684.4063 L29.3094,684.4063 L32.6688,696.7969 L30.2156,696.7969 L29.45,693.7344 L26.1688,693.7344 L25.4188,696.7969 L22.9813,696.7969 L26.325,684.4063 Z " fill="#000000"/><text fill="#000000" font-family="sans-serif" font-size="14" font-style="italic" lengthAdjust="spacing" textLength="57" x="42.3" y="696.1436">element</text><line style="stroke:#181818;stroke-width:0.5;" x1="11" x2="104" y1="707.2969" y2="707.2969"/><text fill="#000000" font-family="sans-serif" font-size="14" lengthAdjust="spacing" textLength="83" x="16" y="724.292">el : keyword</text><line style="stroke:#181818;stroke-width:0.5;" x1="11" x2="104" y1="731.5938" y2="731.5938"/></g><!--class overarch_identifiableElement--><g id="elem_overarch_identifiableElement"><rect codeLine="9" fill="#F1F1F1" height="64.2969" id="overarch_identifiableElement" rx="2.5" ry="2.5" style="stroke:#181818;stroke-width:0.5;" width="168" x="168" y="675.2969"/><ellipse cx="183" cy="691.2969" fill="#A9DCDF" rx="11" ry="11" style="stroke:#181818;stroke-width:1.0;"/><path d="M183.1094,686.6406 L181.9531,691.7188 L184.2813,691.7188 L183.1094,686.6406 Z M181.625,684.4063 L184.6094,684.4063 L187.9688,696.7969 L185.5156,696.7969 L184.75,693.7344 L181.4688,693.7344 L180.7188,696.7969 L178.2813,696.7969 L181.625,684.4063 Z " fill="#000000"/><text fill="#000000" font-family="sans-serif" font-size="14" font-style="italic" lengthAdjust="spacing" textLength="136" x="197" y="696.1436">identifiable-element</text><line style="stroke:#181818;stroke-width:0.5;" x1="169" x2="335" y1="707.2969" y2="707.2969"/><text fill="#000000" font-family="sans-serif" font-size="14" lengthAdjust="spacing" textLength="83" x="174" y="724.292">id : keyword</text><line style="stroke:#181818;stroke-width:0.5;" x1="169" x2="335" y1="731.5938" y2="731.5938"/></g><!--class overarch_architectureModelElement--><g id="elem_overarch_architectureModelElement"><rect codeLine="12" fill="#F1F1F1" height="64.2969" id="overarch_architectureModelElement" rx="2.5" ry="2.5" style="stroke:#181818;stroke-width:0.5;" width="225" x="837" y="44.2969"/><ellipse cx="852" cy="60.2969" fill="#A9DCDF" rx="11" ry="11" style="stroke:#181818;stroke-width:1.0;"/><path d="M852.1094,55.6406 L850.9531,60.7188 L853.2813,60.7188 L852.1094,55.6406 Z M850.625,53.4063 L853.6094,53.4063 L856.9688,65.7969 L854.5156,65.7969 L853.75,62.7344 L850.4688,62.7344 L849.7188,65.7969 L847.2813,65.7969 L850.625,53.4063 Z " fill="#000000"/><text fill="#000000" font-family="sans-serif" font-size="14" font-style="italic" lengthAdjust="spacing" textLength="193" x="866" y="65.1436">architecture-model-element</text><line style="stroke:#181818;stroke-width:0.5;" x1="838" x2="1061" y1="76.2969" y2="76.2969"/><text fill="#000000" font-family="sans-serif" font-size="14" lengthAdjust="spacing" textLength="124" x="843" y="93.292">external : boolean</text><line style="stroke:#181818;stroke-width:0.5;" x1="838" x2="1061" y1="100.5938" y2="100.5938"/></g><!--class overarch_deploymentModelElement--><g id="elem_overarch_deploymentModelElement"><rect codeLine="15" fill="#F1F1F1" height="48" id="overarch_deploymentModelElement" rx="2.5" ry="2.5" style="stroke:#181818;stroke-width:0.5;" width="225" x="837" y="558.2969"/><ellipse cx="852" cy="574.2969" fill="#A9DCDF" rx="11" ry="11" style="stroke:#181818;stroke-width:1.0;"/><path d="M852.1094,569.6406 L850.9531,574.7188 L853.2813,574.7188 L852.1094,569.6406 Z M850.625,567.4063 L853.6094,567.4063 L856.9688,579.7969 L854.5156,579.7969 L853.75,576.7344 L850.4688,576.7344 L849.7188,579.7969 L847.2813,579.7969 L850.625,567.4063 Z " fill="#000000"/><text fill="#000000" font-family="sans-serif" font-size="14" font-style="italic" lengthAdjust="spacing" textLength="193" x="866" y="579.1436">deployment-model-element</text><line style="stroke:#181818;stroke-width:0.5;" x1="838" x2="1061" y1="590.2969" y2="590.2969"/><line style="stroke:#181818;stroke-width:0.5;" x1="838" x2="1061" y1="598.2969" y2="598.2969"/></g><!--class overarch_classModelElement--><g id="elem_overarch_classModelElement"><rect codeLine="16" fill="#F1F1F1" height="48" id="overarch_classModelElement" rx="2.5" ry="2.5" style="stroke:#181818;stroke-width:0.5;" width="175" x="862" y="641.2969"/><ellipse cx="877" cy="657.2969" fill="#A9DCDF" rx="11" ry="11" style="stroke:#181818;stroke-width:1.0;"/><path d="M877.1094,652.6406 L875.9531,657.7188 L878.2813,657.7188 L877.1094,652.6406 Z M875.625,650.4063 L878.6094,650.4063 L881.9688,662.7969 L879.5156,662.7969 L878.75,659.7344 L875.4688,659.7344 L874.7188,662.7969 L872.2813,662.7969 L875.625,650.4063 Z " fill="#000000"/><text fill="#000000" font-family="sans-serif" font-size="14" font-style="italic" lengthAdjust="spacing" textLength="143" x="891" y="662.1436">class-model-element</text><line style="stroke:#181818;stroke-width:0.5;" x1="863" x2="1036" y1="673.2969" y2="673.2969"/><line style="stroke:#181818;stroke-width:0.5;" x1="863" x2="1036" y1="681.2969" y2="681.2969"/></g><!--class overarch_useCaseModelElement--><g id="elem_overarch_useCaseModelElement"><rect codeLine="17" fill="#F1F1F1" height="48" id="overarch_useCaseModelElement" rx="2.5" ry="2.5" style="stroke:#181818;stroke-width:0.5;" width="204" x="847.5" y="973.2969"/><ellipse cx="862.5" cy="989.2969" fill="#A9DCDF" rx="11" ry="11" style="stroke:#181818;stroke-width:1.0;"/><path d="M862.6094,984.6406 L861.4531,989.7188 L863.7813,989.7188 L862.6094,984.6406 Z M861.125,982.4063 L864.1094,982.4063 L867.4688,994.7969 L865.0156,994.7969 L864.25,991.7344 L860.9688,991.7344 L860.2188,994.7969 L857.7813,994.7969 L861.125,982.4063 Z " fill="#000000"/><text fill="#000000" font-family="sans-serif" font-size="14" font-style="italic" lengthAdjust="spacing" textLength="172" x="876.5" y="994.1436">use-case-model-element</text><line style="stroke:#181818;stroke-width:0.5;" x1="848.5" x2="1050.5" y1="1005.2969" y2="1005.2969"/><line style="stroke:#181818;stroke-width:0.5;" x1="848.5" x2="1050.5" y1="1013.2969" y2="1013.2969"/></g><!--class overarch_stateMachine--><g id="elem_overarch_stateMachine"><rect codeLine="18" fill="#F1F1F1" height="48" id="overarch_stateMachine" rx="2.5" ry="2.5" style="stroke:#181818;stroke-width:0.5;" width="131" x="884" y="724.2969"/><ellipse cx="899" cy="740.2969" fill="#ADD1B2" rx="11" ry="11" style="stroke:#181818;stroke-width:1.0;"/><path d="M901.9688,745.9375 Q901.3906,746.2344 900.75,746.375 Q900.1094,746.5313 899.4063,746.5313 Q896.9063,746.5313 895.5781,744.8906 Q894.2656,743.2344 894.2656,740.1094 Q894.2656,736.9844 895.5781,735.3281 Q896.9063,733.6719 899.4063,733.6719 Q900.1094,733.6719 900.75,733.8281 Q901.4063,733.9844 901.9688,734.2813 L901.9688,737 Q901.3438,736.4219 900.75,736.1563 Q900.1563,735.875 899.5313,735.875 Q898.1875,735.875 897.5,736.9531 Q896.8125,738.0156 896.8125,740.1094 Q896.8125,742.2031 897.5,743.2813 Q898.1875,744.3438 899.5313,744.3438 Q900.1563,744.3438 900.75,744.0781 Q901.3438,743.7969 901.9688,743.2188 L901.9688,745.9375 Z " fill="#000000"/><text fill="#000000" font-family="sans-serif" font-size="14" lengthAdjust="spacing" textLength="99" x="913" y="745.1436">state-machine</text><line style="stroke:#181818;stroke-width:0.5;" x1="885" x2="1014" y1="756.2969" y2="756.2969"/><line style="stroke:#181818;stroke-width:0.5;" x1="885" x2="1014" y1="764.2969" y2="764.2969"/></g><!--class overarch_conceptModelElement--><g id="elem_overarch_conceptModelElement"><rect codeLine="19" fill="#F1F1F1" height="48" id="overarch_conceptModelElement" rx="2.5" ry="2.5" style="stroke:#181818;stroke-width:0.5;" width="199" x="850" y="848.2969"/><ellipse cx="865" cy="864.2969" fill="#A9DCDF" rx="11" ry="11" style="stroke:#181818;stroke-width:1.0;"/><path d="M865.1094,859.6406 L863.9531,864.7188 L866.2813,864.7188 L865.1094,859.6406 Z M863.625,857.4063 L866.6094,857.4063 L869.9688,869.7969 L867.5156,869.7969 L866.75,866.7344 L863.4688,866.7344 L862.7188,869.7969 L860.2813,869.7969 L863.625,857.4063 Z " fill="#000000"/><text fill="#000000" font-family="sans-serif" font-size="14" font-style="italic" lengthAdjust="spacing" textLength="167" x="879" y="869.1436">concept-model-element</text><line style="stroke:#181818;stroke-width:0.5;" x1="851" x2="1048" y1="880.2969" y2="880.2969"/><line style="stroke:#181818;stroke-width:0.5;" x1="851" x2="1048" y1="888.2969" y2="888.2969"/></g><!--class overarch_ref--><g id="elem_overarch_ref"><rect codeLine="20" fill="#F1F1F1" height="64.2969" id="overarch_ref" rx="2.5" ry="2.5" style="stroke:#181818;stroke-width:0.5;" width="101" x="7" y="576.2969"/><ellipse cx="44.95" cy="592.2969" fill="#ADD1B2" rx="11" ry="11" style="stroke:#181818;stroke-width:1.0;"/><path d="M47.9188,597.9375 Q47.3406,598.2344 46.7,598.375 Q46.0594,598.5313 45.3563,598.5313 Q42.8563,598.5313 41.5281,596.8906 Q40.2156,595.2344 40.2156,592.1094 Q40.2156,588.9844 41.5281,587.3281 Q42.8563,585.6719 45.3563,585.6719 Q46.0594,585.6719 46.7,585.8281 Q47.3563,585.9844 47.9188,586.2813 L47.9188,589 Q47.2938,588.4219 46.7,588.1563 Q46.1063,587.875 45.4813,587.875 Q44.1375,587.875 43.45,588.9531 Q42.7625,590.0156 42.7625,592.1094 Q42.7625,594.2031 43.45,595.2813 Q44.1375,596.3438 45.4813,596.3438 Q46.1063,596.3438 46.7,596.0781 Q47.2938,595.7969 47.9188,595.2188 L47.9188,597.9375 Z " fill="#000000"/><text fill="#000000" font-family="sans-serif" font-size="14" lengthAdjust="spacing" textLength="18" x="64.05" y="597.1436">ref</text><line style="stroke:#181818;stroke-width:0.5;" x1="8" x2="107" y1="608.2969" y2="608.2969"/><text fill="#000000" font-family="sans-serif" font-size="14" lengthAdjust="spacing" textLength="89" x="13" y="625.292">ref : keyword</text><line style="stroke:#181818;stroke-width:0.5;" x1="8" x2="107" y1="632.5938" y2="632.5938"/></g><!--class overarch_renderingSpec--><g id="elem_overarch_renderingSpec"><rect codeLine="23" fill="#F1F1F1" height="48" id="overarch_renderingSpec" rx="2.5" ry="2.5" style="stroke:#181818;stroke-width:0.5;" width="66" x="648" y="268.2969"/><ellipse cx="663" cy="284.2969" fill="#ADD1B2" rx="11" ry="11" style="stroke:#181818;stroke-width:1.0;"/><path d="M665.9688,289.9375 Q665.3906,290.2344 664.75,290.375 Q664.1094,290.5313 663.4063,290.5313 Q660.9063,290.5313 659.5781,288.8906 Q658.2656,287.2344 658.2656,284.1094 Q658.2656,280.9844 659.5781,279.3281 Q660.9063,277.6719 663.4063,277.6719 Q664.1094,277.6719 664.75,277.8281 Q665.4063,277.9844 665.9688,278.2813 L665.9688,281 Q665.3438,280.4219 664.75,280.1563 Q664.1563,279.875 663.5313,279.875 Q662.1875,279.875 661.5,280.9531 Q660.8125,282.0156 660.8125,284.1094 Q660.8125,286.2031 661.5,287.2813 Q662.1875,288.3438 663.5313,288.3438 Q664.1563,288.3438 664.75,288.0781 Q665.3438,287.7969 665.9688,287.2188 L665.9688,289.9375 Z " fill="#000000"/><text fill="#000000" font-family="sans-serif" font-size="14" lengthAdjust="spacing" textLength="34" x="677" y="289.1436">spec</text><line style="stroke:#181818;stroke-width:0.5;" x1="649" x2="713" y1="300.2969" y2="300.2969"/><line style="stroke:#181818;stroke-width:0.5;" x1="649" x2="713" y1="308.2969" y2="308.2969"/></g><!--class overarch_architectureView--><g id="elem_overarch_architectureView"><rect codeLine="24" fill="#F1F1F1" height="48" id="overarch_architectureView" rx="2.5" ry="2.5" style="stroke:#181818;stroke-width:0.5;" width="151" x="605.5" y="351.2969"/><ellipse cx="620.5" cy="367.2969" fill="#A9DCDF" rx="11" ry="11" style="stroke:#181818;stroke-width:1.0;"/><path d="M620.6094,362.6406 L619.4531,367.7188 L621.7813,367.7188 L620.6094,362.6406 Z M619.125,360.4063 L622.1094,360.4063 L625.4688,372.7969 L623.0156,372.7969 L622.25,369.7344 L618.9688,369.7344 L618.2188,372.7969 L615.7813,372.7969 L619.125,360.4063 Z " fill="#000000"/><text fill="#000000" font-family="sans-serif" font-size="14" font-style="italic" lengthAdjust="spacing" textLength="119" x="634.5" y="372.1436">architecture-view</text><line style="stroke:#181818;stroke-width:0.5;" x1="606.5" x2="755.5" y1="383.2969" y2="383.2969"/><line style="stroke:#181818;stroke-width:0.5;" x1="606.5" x2="755.5" y1="391.2969" y2="391.2969"/></g><!--class overarch_systemLandscapeView--><g id="elem_overarch_systemLandscapeView"><rect codeLine="25" fill="#F1F1F1" height="48" id="overarch_systemLandscapeView" rx="2.5" ry="2.5" style="stroke:#181818;stroke-width:0.5;" width="193" x="853" y="143.2969"/><ellipse cx="868" cy="159.2969" fill="#ADD1B2" rx="11" ry="11" style="stroke:#181818;stroke-width:1.0;"/><path d="M870.9688,164.9375 Q870.3906,165.2344 869.75,165.375 Q869.1094,165.5313 868.4063,165.5313 Q865.9063,165.5313 864.5781,163.8906 Q863.2656,162.2344 863.2656,159.1094 Q863.2656,155.9844 864.5781,154.3281 Q865.9063,152.6719 868.4063,152.6719 Q869.1094,152.6719 869.75,152.8281 Q870.4063,152.9844 870.9688,153.2813 L870.9688,156 Q870.3438,155.4219 869.75,155.1563 Q869.1563,154.875 868.5313,154.875 Q867.1875,154.875 866.5,155.9531 Q865.8125,157.0156 865.8125,159.1094 Q865.8125,161.2031 866.5,162.2813 Q867.1875,163.3438 868.5313,163.3438 Q869.1563,163.3438 869.75,163.0781 Q870.3438,162.7969 870.9688,162.2188 L870.9688,164.9375 Z " fill="#000000"/><text fill="#000000" font-family="sans-serif" font-size="14" lengthAdjust="spacing" textLength="161" x="882" y="164.1436">system-landscape-view</text><line style="stroke:#181818;stroke-width:0.5;" x1="854" x2="1045" y1="175.2969" y2="175.2969"/><line style="stroke:#181818;stroke-width:0.5;" x1="854" x2="1045" y1="183.2969" y2="183.2969"/></g><!--class overarch_deploymentView--><g id="elem_overarch_deploymentView"><rect codeLine="26" fill="#F1F1F1" height="48" id="overarch_deploymentView" rx="2.5" ry="2.5" style="stroke:#181818;stroke-width:0.5;" width="149" x="606.5" y="558.2969"/><ellipse cx="621.5" cy="574.2969" fill="#ADD1B2" rx="11" ry="11" style="stroke:#181818;stroke-width:1.0;"/><path d="M624.4688,579.9375 Q623.8906,580.2344 623.25,580.375 Q622.6094,580.5313 621.9063,580.5313 Q619.4063,580.5313 618.0781,578.8906 Q616.7656,577.2344 616.7656,574.1094 Q616.7656,570.9844 618.0781,569.3281 Q619.4063,567.6719 621.9063,567.6719 Q622.6094,567.6719 623.25,567.8281 Q623.9063,567.9844 624.4688,568.2813 L624.4688,571 Q623.8438,570.4219 623.25,570.1563 Q622.6563,569.875 622.0313,569.875 Q620.6875,569.875 620,570.9531 Q619.3125,572.0156 619.3125,574.1094 Q619.3125,576.2031 620,577.2813 Q620.6875,578.3438 622.0313,578.3438 Q622.6563,578.3438 623.25,578.0781 Q623.8438,577.7969 624.4688,577.2188 L624.4688,579.9375 Z " fill="#000000"/><text fill="#000000" font-family="sans-serif" font-size="14" lengthAdjust="spacing" textLength="117" x="635.5" y="579.1436">deployment-view</text><line style="stroke:#181818;stroke-width:0.5;" x1="607.5" x2="754.5" y1="590.2969" y2="590.2969"/><line style="stroke:#181818;stroke-width:0.5;" x1="607.5" x2="754.5" y1="598.2969" y2="598.2969"/></g><!--class overarch_dynamicView--><g id="elem_overarch_dynamicView"><rect codeLine="27" fill="#F1F1F1" height="48" id="overarch_dynamicView" rx="2.5" ry="2.5" style="stroke:#181818;stroke-width:0.5;" width="124" x="887.5" y="226.2969"/><ellipse cx="902.5" cy="242.2969" fill="#ADD1B2" rx="11" ry="11" style="stroke:#181818;stroke-width:1.0;"/><path d="M905.4688,247.9375 Q904.8906,248.2344 904.25,248.375 Q903.6094,248.5313 902.9063,248.5313 Q900.4063,248.5313 899.0781,246.8906 Q897.7656,245.2344 897.7656,242.1094 Q897.7656,238.9844 899.0781,237.3281 Q900.4063,235.6719 902.9063,235.6719 Q903.6094,235.6719 904.25,235.8281 Q904.9063,235.9844 905.4688,236.2813 L905.4688,239 Q904.8438,238.4219 904.25,238.1563 Q903.6563,237.875 903.0313,237.875 Q901.6875,237.875 901,238.9531 Q900.3125,240.0156 900.3125,242.1094 Q900.3125,244.2031 901,245.2813 Q901.6875,246.3438 903.0313,246.3438 Q903.6563,246.3438 904.25,246.0781 Q904.8438,245.7969 905.4688,245.2188 L905.4688,247.9375 Z " fill="#000000"/><text fill="#000000" font-family="sans-serif" font-size="14" lengthAdjust="spacing" textLength="92" x="916.5" y="247.1436">dynamic-view</text><line style="stroke:#181818;stroke-width:0.5;" x1="888.5" x2="1010.5" y1="258.2969" y2="258.2969"/><line style="stroke:#181818;stroke-width:0.5;" x1="888.5" x2="1010.5" y1="266.2969" y2="266.2969"/></g><!--class overarch_classView--><g id="elem_overarch_classView"><rect codeLine="28" fill="#F1F1F1" height="48" id="overarch_classView" rx="2.5" ry="2.5" style="stroke:#181818;stroke-width:0.5;" width="102" x="630" y="641.2969"/><ellipse cx="645" cy="657.2969" fill="#ADD1B2" rx="11" ry="11" style="stroke:#181818;stroke-width:1.0;"/><path d="M647.9688,662.9375 Q647.3906,663.2344 646.75,663.375 Q646.1094,663.5313 645.4063,663.5313 Q642.9063,663.5313 641.5781,661.8906 Q640.2656,660.2344 640.2656,657.1094 Q640.2656,653.9844 641.5781,652.3281 Q642.9063,650.6719 645.4063,650.6719 Q646.1094,650.6719 646.75,650.8281 Q647.4063,650.9844 647.9688,651.2813 L647.9688,654 Q647.3438,653.4219 646.75,653.1563 Q646.1563,652.875 645.5313,652.875 Q644.1875,652.875 643.5,653.9531 Q642.8125,655.0156 642.8125,657.1094 Q642.8125,659.2031 643.5,660.2813 Q644.1875,661.3438 645.5313,661.3438 Q646.1563,661.3438 646.75,661.0781 Q647.3438,660.7969 647.9688,660.2188 L647.9688,662.9375 Z " fill="#000000"/><text fill="#000000" font-family="sans-serif" font-size="14" lengthAdjust="spacing" textLength="70" x="659" y="662.1436">class-view</text><line style="stroke:#181818;stroke-width:0.5;" x1="631" x2="731" y1="673.2969" y2="673.2969"/><line style="stroke:#181818;stroke-width:0.5;" x1="631" x2="731" y1="681.2969" y2="681.2969"/></g><!--class overarch_stateMachineView--><g id="elem_overarch_stateMachineView"><rect codeLine="29" fill="#F1F1F1" height="48" id="overarch_stateMachineView" rx="2.5" ry="2.5" style="stroke:#181818;stroke-width:0.5;" width="166" x="598" y="724.2969"/><ellipse cx="613" cy="740.2969" fill="#ADD1B2" rx="11" ry="11" style="stroke:#181818;stroke-width:1.0;"/><path d="M615.9688,745.9375 Q615.3906,746.2344 614.75,746.375 Q614.1094,746.5313 613.4063,746.5313 Q610.9063,746.5313 609.5781,744.8906 Q608.2656,743.2344 608.2656,740.1094 Q608.2656,736.9844 609.5781,735.3281 Q610.9063,733.6719 613.4063,733.6719 Q614.1094,733.6719 614.75,733.8281 Q615.4063,733.9844 615.9688,734.2813 L615.9688,737 Q615.3438,736.4219 614.75,736.1563 Q614.1563,735.875 613.5313,735.875 Q612.1875,735.875 611.5,736.9531 Q610.8125,738.0156 610.8125,740.1094 Q610.8125,742.2031 611.5,743.2813 Q612.1875,744.3438 613.5313,744.3438 Q614.1563,744.3438 614.75,744.0781 Q615.3438,743.7969 615.9688,743.2188 L615.9688,745.9375 Z " fill="#000000"/><text fill="#000000" font-family="sans-serif" font-size="14" lengthAdjust="spacing" textLength="134" x="627" y="745.1436">state-machine-view</text><line style="stroke:#181818;stroke-width:0.5;" x1="599" x2="763" y1="756.2969" y2="756.2969"/><line style="stroke:#181818;stroke-width:0.5;" x1="599" x2="763" y1="764.2969" y2="764.2969"/></g><!--class overarch_conceptView--><g id="elem_overarch_conceptView"><rect codeLine="30" fill="#F1F1F1" height="48" id="overarch_conceptView" rx="2.5" ry="2.5" style="stroke:#181818;stroke-width:0.5;" width="124" x="619" y="807.2969"/><ellipse cx="634" cy="823.2969" fill="#ADD1B2" rx="11" ry="11" style="stroke:#181818;stroke-width:1.0;"/><path d="M636.9688,828.9375 Q636.3906,829.2344 635.75,829.375 Q635.1094,829.5313 634.4063,829.5313 Q631.9063,829.5313 630.5781,827.8906 Q629.2656,826.2344 629.2656,823.1094 Q629.2656,819.9844 630.5781,818.3281 Q631.9063,816.6719 634.4063,816.6719 Q635.1094,816.6719 635.75,816.8281 Q636.4063,816.9844 636.9688,817.2813 L636.9688,820 Q636.3438,819.4219 635.75,819.1563 Q635.1563,818.875 634.5313,818.875 Q633.1875,818.875 632.5,819.9531 Q631.8125,821.0156 631.8125,823.1094 Q631.8125,825.2031 632.5,826.2813 Q633.1875,827.3438 634.5313,827.3438 Q635.1563,827.3438 635.75,827.0781 Q636.3438,826.7969 636.9688,826.2188 L636.9688,828.9375 Z " fill="#000000"/><text fill="#000000" font-family="sans-serif" font-size="14" lengthAdjust="spacing" textLength="92" x="648" y="828.1436">concept-view</text><line style="stroke:#181818;stroke-width:0.5;" x1="620" x2="742" y1="839.2969" y2="839.2969"/><line style="stroke:#181818;stroke-width:0.5;" x1="620" x2="742" y1="847.2969" y2="847.2969"/></g><!--class overarch_glossaryView--><g id="elem_overarch_glossaryView"><rect codeLine="31" fill="#F1F1F1" height="48" id="overarch_glossaryView" rx="2.5" ry="2.5" style="stroke:#181818;stroke-width:0.5;" width="124" x="619" y="890.2969"/><ellipse cx="634" cy="906.2969" fill="#ADD1B2" rx="11" ry="11" style="stroke:#181818;stroke-width:1.0;"/><path d="M636.9688,911.9375 Q636.3906,912.2344 635.75,912.375 Q635.1094,912.5313 634.4063,912.5313 Q631.9063,912.5313 630.5781,910.8906 Q629.2656,909.2344 629.2656,906.1094 Q629.2656,902.9844 630.5781,901.3281 Q631.9063,899.6719 634.4063,899.6719 Q635.1094,899.6719 635.75,899.8281 Q636.4063,899.9844 636.9688,900.2813 L636.9688,903 Q636.3438,902.4219 635.75,902.1563 Q635.1563,901.875 634.5313,901.875 Q633.1875,901.875 632.5,902.9531 Q631.8125,904.0156 631.8125,906.1094 Q631.8125,908.2031 632.5,909.2813 Q633.1875,910.3438 634.5313,910.3438 Q635.1563,910.3438 635.75,910.0781 Q636.3438,909.7969 636.9688,909.2188 L636.9688,911.9375 Z " fill="#000000"/><text fill="#000000" font-family="sans-serif" font-size="14" lengthAdjust="spacing" textLength="92" x="648" y="911.1436">glossary-view</text><line style="stroke:#181818;stroke-width:0.5;" x1="620" x2="742" y1="922.2969" y2="922.2969"/><line style="stroke:#181818;stroke-width:0.5;" x1="620" x2="742" y1="930.2969" y2="930.2969"/></g><!--class overarch_view--><g id="elem_overarch_view"><rect fill="#F1F1F1" height="48" id="overarch_view" rx="2.5" ry="2.5" style="stroke:#181818;stroke-width:0.5;" width="129" x="396" y="683.2969"/><ellipse cx="411" cy="699.2969" fill="#ADD1B2" rx="11" ry="11" style="stroke:#181818;stroke-width:1.0;"/><path d="M413.9688,704.9375 Q413.3906,705.2344 412.75,705.375 Q412.1094,705.5313 411.4063,705.5313 Q408.9063,705.5313 407.5781,703.8906 Q406.2656,702.2344 406.2656,699.1094 Q406.2656,695.9844 407.5781,694.3281 Q408.9063,692.6719 411.4063,692.6719 Q412.1094,692.6719 412.75,692.8281 Q413.4063,692.9844 413.9688,693.2813 L413.9688,696 Q413.3438,695.4219 412.75,695.1563 Q412.1563,694.875 411.5313,694.875 Q410.1875,694.875 409.5,695.9531 Q408.8125,697.0156 408.8125,699.1094 Q408.8125,701.2031 409.5,702.2813 Q410.1875,703.3438 411.5313,703.3438 Q412.1563,703.3438 412.75,703.0781 Q413.3438,702.7969 413.9688,702.2188 L413.9688,704.9375 Z " fill="#000000"/><text fill="#000000" font-family="sans-serif" font-size="14" lengthAdjust="spacing" textLength="97" x="425" y="704.1436">overarch_view</text><line style="stroke:#181818;stroke-width:0.5;" x1="397" x2="524" y1="715.2969" y2="715.2969"/><line style="stroke:#181818;stroke-width:0.5;" x1="397" x2="524" y1="723.2969" y2="723.2969"/></g><!--class overarch_contextView--><g id="elem_overarch_contextView"><rect fill="#F1F1F1" height="48" id="overarch_contextView" rx="2.5" ry="2.5" style="stroke:#181818;stroke-width:0.5;" width="183" x="858" y="309.2969"/><ellipse cx="873" cy="325.2969" fill="#ADD1B2" rx="11" ry="11" style="stroke:#181818;stroke-width:1.0;"/><path d="M875.9688,330.9375 Q875.3906,331.2344 874.75,331.375 Q874.1094,331.5313 873.4063,331.5313 Q870.9063,331.5313 869.5781,329.8906 Q868.2656,328.2344 868.2656,325.1094 Q868.2656,321.9844 869.5781,320.3281 Q870.9063,318.6719 873.4063,318.6719 Q874.1094,318.6719 874.75,318.8281 Q875.4063,318.9844 875.9688,319.2813 L875.9688,322 Q875.3438,321.4219 874.75,321.1563 Q874.1563,320.875 873.5313,320.875 Q872.1875,320.875 871.5,321.9531 Q870.8125,323.0156 870.8125,325.1094 Q870.8125,327.2031 871.5,328.2813 Q872.1875,329.3438 873.5313,329.3438 Q874.1563,329.3438 874.75,329.0781 Q875.3438,328.7969 875.9688,328.2188 L875.9688,330.9375 Z " fill="#000000"/><text fill="#000000" font-family="sans-serif" font-size="14" lengthAdjust="spacing" textLength="151" x="887" y="330.1436">overarch_contextView</text><line style="stroke:#181818;stroke-width:0.5;" x1="859" x2="1040" y1="341.2969" y2="341.2969"/><line style="stroke:#181818;stroke-width:0.5;" x1="859" x2="1040" y1="349.2969" y2="349.2969"/></g><!--class overarch_containerView--><g id="elem_overarch_containerView"><rect fill="#F1F1F1" height="48" id="overarch_containerView" rx="2.5" ry="2.5" style="stroke:#181818;stroke-width:0.5;" width="196" x="851.5" y="392.2969"/><ellipse cx="866.5" cy="408.2969" fill="#ADD1B2" rx="11" ry="11" style="stroke:#181818;stroke-width:1.0;"/><path d="M869.4688,413.9375 Q868.8906,414.2344 868.25,414.375 Q867.6094,414.5313 866.9063,414.5313 Q864.4063,414.5313 863.0781,412.8906 Q861.7656,411.2344 861.7656,408.1094 Q861.7656,404.9844 863.0781,403.3281 Q864.4063,401.6719 866.9063,401.6719 Q867.6094,401.6719 868.25,401.8281 Q868.9063,401.9844 869.4688,402.2813 L869.4688,405 Q868.8438,404.4219 868.25,404.1563 Q867.6563,403.875 867.0313,403.875 Q865.6875,403.875 865,404.9531 Q864.3125,406.0156 864.3125,408.1094 Q864.3125,410.2031 865,411.2813 Q865.6875,412.3438 867.0313,412.3438 Q867.6563,412.3438 868.25,412.0781 Q868.8438,411.7969 869.4688,411.2188 L869.4688,413.9375 Z " fill="#000000"/><text fill="#000000" font-family="sans-serif" font-size="14" lengthAdjust="spacing" textLength="164" x="880.5" y="413.1436">overarch_containerView</text><line style="stroke:#181818;stroke-width:0.5;" x1="852.5" x2="1046.5" y1="424.2969" y2="424.2969"/><line style="stroke:#181818;stroke-width:0.5;" x1="852.5" x2="1046.5" y1="432.2969" y2="432.2969"/></g><!--class overarch_componentView--><g id="elem_overarch_componentView"><rect fill="#F1F1F1" height="48" id="overarch_componentView" rx="2.5" ry="2.5" style="stroke:#181818;stroke-width:0.5;" width="211" x="844" y="475.2969"/><ellipse cx="859" cy="491.2969" fill="#ADD1B2" rx="11" ry="11" style="stroke:#181818;stroke-width:1.0;"/><path d="M861.9688,496.9375 Q861.3906,497.2344 860.75,497.375 Q860.1094,497.5313 859.4063,497.5313 Q856.9063,497.5313 855.5781,495.8906 Q854.2656,494.2344 854.2656,491.1094 Q854.2656,487.9844 855.5781,486.3281 Q856.9063,484.6719 859.4063,484.6719 Q860.1094,484.6719 860.75,484.8281 Q861.4063,484.9844 861.9688,485.2813 L861.9688,488 Q861.3438,487.4219 860.75,487.1563 Q860.1563,486.875 859.5313,486.875 Q858.1875,486.875 857.5,487.9531 Q856.8125,489.0156 856.8125,491.1094 Q856.8125,493.2031 857.5,494.2813 Q858.1875,495.3438 859.5313,495.3438 Q860.1563,495.3438 860.75,495.0781 Q861.3438,494.7969 861.9688,494.2188 L861.9688,496.9375 Z " fill="#000000"/><text fill="#000000" font-family="sans-serif" font-size="14" lengthAdjust="spacing" textLength="179" x="873" y="496.1436">overarch_componentView</text><line style="stroke:#181818;stroke-width:0.5;" x1="845" x2="1054" y1="507.2969" y2="507.2969"/><line style="stroke:#181818;stroke-width:0.5;" x1="845" x2="1054" y1="515.2969" y2="515.2969"/></g><!--class overarch_useCaseView--><g id="elem_overarch_useCaseView"><rect fill="#F1F1F1" height="48" id="overarch_useCaseView" rx="2.5" ry="2.5" style="stroke:#181818;stroke-width:0.5;" width="192" x="585" y="973.2969"/><ellipse cx="600" cy="989.2969" fill="#ADD1B2" rx="11" ry="11" style="stroke:#181818;stroke-width:1.0;"/><path d="M602.9688,994.9375 Q602.3906,995.2344 601.75,995.375 Q601.1094,995.5313 600.4063,995.5313 Q597.9063,995.5313 596.5781,993.8906 Q595.2656,992.2344 595.2656,989.1094 Q595.2656,985.9844 596.5781,984.3281 Q597.9063,982.6719 600.4063,982.6719 Q601.1094,982.6719 601.75,982.8281 Q602.4063,982.9844 602.9688,983.2813 L602.9688,986 Q602.3438,985.4219 601.75,985.1563 Q601.1563,984.875 600.5313,984.875 Q599.1875,984.875 598.5,985.9531 Q597.8125,987.0156 597.8125,989.1094 Q597.8125,991.2031 598.5,992.2813 Q599.1875,993.3438 600.5313,993.3438 Q601.1563,993.3438 601.75,993.0781 Q602.3438,992.7969 602.9688,992.2188 L602.9688,994.9375 Z " fill="#000000"/><text fill="#000000" font-family="sans-serif" font-size="14" lengthAdjust="spacing" textLength="160" x="614" y="994.1436">overarch_useCaseView</text><line style="stroke:#181818;stroke-width:0.5;" x1="586" x2="776" y1="1005.2969" y2="1005.2969"/><line style="stroke:#181818;stroke-width:0.5;" x1="586" x2="776" y1="1013.2969" y2="1013.2969"/></g><!--reverse link overarch_element to overarch_identifiableElement--><g id="link_overarch_element_overarch_identifiableElement"><path codeLine="32" d="M125.19,707.2969 C138.99,707.2969 153.69,707.2969 167.99,707.2969 " fill="none" id="overarch_element-backto-overarch_identifiableElement" style="stroke:#181818;stroke-width:1.0;"/><polygon fill="none" points="125.1,714.2969,105.1,707.2969,125.1,700.2969,125.1,714.2969" style="stroke:#181818;stroke-width:1.0;"/></g><!--reverse link overarch_identifiableElement to overarch_view--><g id="link_overarch_identifiableElement_overarch_view"><path codeLine="33" d="M356.44,707.2969 C369.92,707.2969 383.39,707.2969 395.94,707.2969 " fill="none" id="overarch_identifiableElement-backto-overarch_view" style="stroke:#181818;stroke-width:1.0;"/><polygon fill="none" points="356.1,714.2969,336.1,707.2969,356.1,700.2969,356.1,714.2969" style="stroke:#181818;stroke-width:1.0;"/></g><!--link overarch_view to overarch_renderingSpec--><g id="link_overarch_view_overarch_renderingSpec"><path codeLine="34" d="M463.92,669.8669 C470.58,596.2669 495.22,431.3869 585,333.2969 C598.27,318.7969 617.56,309.1969 635.29,302.9669 " fill="none" id="overarch_view-overarch_renderingSpec" style="stroke:#181818;stroke-width:1.0;"/><polygon fill="none" points="462.84,682.9169,467.3147,677.262,463.8158,670.9566,459.3412,676.6115,462.84,682.9169" style="stroke:#181818;stroke-width:1.0;"/><polygon fill="#181818" points="647.82,298.9969,638.0318,297.9051,643.054,300.5086,640.4506,305.5307,647.82,298.9969" style="stroke:#181818;stroke-width:1.0;"/><line style="stroke:#181818;stroke-width:1.0;" x1="643.054" x2="635.425" y1="300.5086" y2="302.9219"/><text fill="#000000" font-family="sans-serif" font-size="13" lengthAdjust="spacing" textLength="24" x="616.0547" y="313.5158">0..1</text></g><!--reverse link overarch_view to overarch_architectureView--><g id="link_overarch_view_overarch_architectureView"><path codeLine="35" d="M488.58,666.1569 C534.72,596.0469 627.18,455.5569 664.17,399.3469 " fill="none" id="overarch_view-backto-overarch_architectureView" style="stroke:#181818;stroke-width:1.0;"/><polygon fill="none" points="494.23,670.2969,477.39,683.1569,482.54,662.5969,494.23,670.2969" style="stroke:#181818;stroke-width:1.0;"/></g><!--link overarch_architectureView to overarch_architectureModelElement--><g id="link_overarch_architectureView_overarch_architectureModelElement"><path codeLine="36" d="M766.1,343.6169 C770.05,340.4769 773.72,337.0469 777,333.2969 C840.27,260.8169 773.65,197.7069 837,125.2969 C839.82,122.0769 842.89,119.0569 846.16,116.2269 " fill="none" id="overarch_architectureView-overarch_architectureModelElement" style="stroke:#181818;stroke-width:1.0;"/><polygon fill="none" points="755.09,351.2469,762.3,351.1194,764.9554,344.415,757.7454,344.5425,755.09,351.2469" style="stroke:#181818;stroke-width:1.0;"/><polygon fill="#181818" points="856.48,108.3069,846.9048,110.6122,852.5132,111.3506,851.7748,116.9591,856.48,108.3069" style="stroke:#181818;stroke-width:1.0;"/><line style="stroke:#181818;stroke-width:1.0;" x1="852.5132" x2="846.16" y1="111.3506" y2="116.2169"/><text fill="#000000" font-family="sans-serif" font-size="13" lengthAdjust="spacing" textLength="24" x="810.8196" y="128.5058">1..n</text></g><!--reverse link overarch_architectureView to overarch_systemLandscapeView--><g id="link_overarch_architectureView_overarch_systemLandscapeView"><path codeLine="37" d="M769.59,339.7669 C772.18,337.7169 774.66,335.5569 777,333.2969 C821.25,290.4069 791.4,249.7469 837,208.2969 C844.33,201.6369 852.82,196.0369 861.8,191.3269 " fill="none" id="overarch_architectureView-backto-overarch_systemLandscapeView" style="stroke:#181818;stroke-width:1.0;"/><polygon fill="none" points="773.1,345.8369,752.56,351.0469,765.37,334.1669,773.1,345.8369" style="stroke:#181818;stroke-width:1.0;"/></g><!--reverse link overarch_architectureView to overarch_contextView--><g id="link_overarch_architectureView_overarch_contextView"><path codeLine="38" d="M776.72,360.3669 C803.09,356.2169 831.67,351.7069 857.81,347.5869 " fill="none" id="overarch_architectureView-backto-overarch_contextView" style="stroke:#181818;stroke-width:1.0;"/><polygon fill="none" points="777.44,367.3469,756.59,363.5369,775.26,353.5169,777.44,367.3469" style="stroke:#181818;stroke-width:1.0;"/></g><!--reverse link overarch_architectureView to overarch_containerView--><g id="link_overarch_architectureView_overarch_containerView"><path codeLine="39" d="M776.49,389.8369 C800.81,393.5769 827.02,397.6069 851.47,401.3669 " fill="none" id="overarch_architectureView-backto-overarch_containerView" style="stroke:#181818;stroke-width:1.0;"/><polygon fill="none" points="775.29,396.7369,756.59,386.7769,777.42,382.8969,775.29,396.7369" style="stroke:#181818;stroke-width:1.0;"/></g><!--reverse link overarch_architectureView to overarch_componentView--><g id="link_overarch_architectureView_overarch_componentView"><path codeLine="40" d="M741.73,409.1669 C770.16,424.6969 804.9,442.8269 837,457.2969 C850.86,463.5469 865.95,469.6669 880.43,475.2169 " fill="none" id="overarch_architectureView-backto-overarch_componentView" style="stroke:#181818;stroke-width:1.0;"/><polygon fill="none" points="738.17,415.1869,724.04,399.3969,744.93,402.9369,738.17,415.1869" style="stroke:#181818;stroke-width:1.0;"/></g><!--reverse link overarch_architectureView to overarch_dynamicView--><g id="link_overarch_architectureView_overarch_dynamicView"><path codeLine="41" d="M759.36,342.6169 C765.4,339.6069 771.35,336.4869 777,333.2969 C805.35,317.3069 808.15,306.3769 837,291.2969 C852.81,283.0369 870.67,275.6769 887.38,269.5469 " fill="none" id="overarch_architectureView-backto-overarch_dynamicView" style="stroke:#181818;stroke-width:1.0;"/><polygon fill="none" points="762.22,349.0069,741.16,351.2769,756.21,336.3669,762.22,349.0069" style="stroke:#181818;stroke-width:1.0;"/></g><!--reverse link overarch_view to overarch_deploymentView--><g id="link_overarch_view_overarch_deploymentView"><path codeLine="42" d="M509.55,671.4869 C531.87,655.6769 559.14,637.5069 585,623.2969 C595.94,617.2869 607.94,611.5169 619.63,606.2969 " fill="none" id="overarch_view-backto-overarch_deploymentView" style="stroke:#181818;stroke-width:1.0;"/><polygon fill="none" points="513.51,677.2569,493.19,683.2669,505.33,665.8969,513.51,677.2569" style="stroke:#181818;stroke-width:1.0;"/></g><!--link overarch_deploymentView to overarch_deploymentModelElement--><g id="link_overarch_deploymentView_overarch_deploymentModelElement"><path codeLine="43" d="M768.77,582.2969 C786.31,582.2969 805.08,582.2969 823.63,582.2969 " fill="none" id="overarch_deploymentView-overarch_deploymentModelElement" style="stroke:#181818;stroke-width:1.0;"/><polygon fill="none" points="755.53,582.2969,761.53,586.2969,767.53,582.2969,761.53,578.2969,755.53,582.2969" style="stroke:#181818;stroke-width:1.0;"/><polygon fill="#181818" points="836.75,582.2969,827.75,578.2969,831.75,582.2969,827.75,586.2969,836.75,582.2969" style="stroke:#181818;stroke-width:1.0;"/><line style="stroke:#181818;stroke-width:1.0;" x1="831.75" x2="823.75" y1="582.2969" y2="582.2969"/><text fill="#000000" font-family="sans-serif" font-size="13" lengthAdjust="spacing" textLength="24" x="805.148" y="594.8248">1..n</text></g><!--reverse link overarch_view to overarch_classView--><g id="link_overarch_view_overarch_classView"><path codeLine="44" d="M545.02,691.2469 C573.56,685.7569 604.58,679.7969 629.67,674.9669 " fill="none" id="overarch_view-backto-overarch_classView" style="stroke:#181818;stroke-width:1.0;"/><polygon fill="none" points="546.25,698.1369,525.29,695.0369,543.61,684.3869,546.25,698.1369" style="stroke:#181818;stroke-width:1.0;"/></g><!--link overarch_classView to overarch_classModelElement--><g id="link_overarch_classView_overarch_classModelElement"><path codeLine="45" d="M745.49,665.2969 C776.37,665.2969 814.2,665.2969 848.81,665.2969 " fill="none" id="overarch_classView-overarch_classModelElement" style="stroke:#181818;stroke-width:1.0;"/><polygon fill="none" points="732.13,665.2969,738.13,669.2969,744.13,665.2969,738.13,661.2969,732.13,665.2969" style="stroke:#181818;stroke-width:1.0;"/><polygon fill="#181818" points="861.89,665.2969,852.89,661.2969,856.89,665.2969,852.89,669.2969,861.89,665.2969" style="stroke:#181818;stroke-width:1.0;"/><line style="stroke:#181818;stroke-width:1.0;" x1="856.89" x2="848.89" y1="665.2969" y2="665.2969"/><text fill="#000000" font-family="sans-serif" font-size="13" lengthAdjust="spacing" textLength="24" x="829.9523" y="677.9667">1..n</text></g><!--reverse link overarch_view to overarch_stateMachineView--><g id="link_overarch_view_overarch_stateMachineView"><path codeLine="46" d="M545.06,722.9769 C562.36,726.2169 580.56,729.6369 597.81,732.8769 " fill="none" id="overarch_view-backto-overarch_stateMachineView" style="stroke:#181818;stroke-width:1.0;"/><polygon fill="none" points="543.65,729.8369,525.29,719.2669,546.23,716.0769,543.65,729.8369" style="stroke:#181818;stroke-width:1.0;"/></g><!--link overarch_stateMachineView to overarch_stateMachine--><g id="link_overarch_stateMachineView_overarch_stateMachine"><path codeLine="47" d="M777.47,748.2969 C808.12,748.2969 841.67,748.2969 870.88,748.2969 " fill="none" id="overarch_stateMachineView-overarch_stateMachine" style="stroke:#181818;stroke-width:1.0;"/><polygon fill="none" points="764.13,748.2969,770.13,752.2969,776.13,748.2969,770.13,744.2969,764.13,748.2969" style="stroke:#181818;stroke-width:1.0;"/><polygon fill="#181818" points="883.97,748.2969,874.97,744.2969,878.97,748.2969,874.97,752.2969,883.97,748.2969" style="stroke:#181818;stroke-width:1.0;"/><line style="stroke:#181818;stroke-width:1.0;" x1="878.97" x2="870.97" y1="748.2969" y2="748.2969"/><text fill="#000000" font-family="sans-serif" font-size="13" lengthAdjust="spacing" textLength="8" x="867.9306" y="761.2386">1</text></g><!--reverse link overarch_view to overarch_useCaseView--><g id="link_overarch_view_overarch_useCaseView"><path codeLine="48" d="M473.17,750.8569 C489.75,805.2069 524.97,897.9569 585,955.2969 C592.3,962.2769 600.96,968.2069 610.02,973.2169 " fill="none" id="overarch_view-backto-overarch_useCaseView" style="stroke:#181818;stroke-width:1.0;"/><polygon fill="none" points="466.38,752.5769,467.54,731.4169,479.83,748.6869,466.38,752.5769" style="stroke:#181818;stroke-width:1.0;"/></g><!--link overarch_useCaseView to overarch_useCaseModelElement--><g id="link_overarch_useCaseView_overarch_useCaseModelElement"><path codeLine="49" d="M790.29,997.2969 C804.67,997.2969 819.45,997.2969 833.94,997.2969 " fill="none" id="overarch_useCaseView-overarch_useCaseModelElement" style="stroke:#181818;stroke-width:1.0;"/><polygon fill="none" points="777.08,997.2969,783.08,1001.2969,789.08,997.2969,783.08,993.2969,777.08,997.2969" style="stroke:#181818;stroke-width:1.0;"/><polygon fill="#181818" points="847.14,997.2969,838.14,993.2969,842.14,997.2969,838.14,1001.2969,847.14,997.2969" style="stroke:#181818;stroke-width:1.0;"/><line style="stroke:#181818;stroke-width:1.0;" x1="842.14" x2="834.14" y1="997.2969" y2="997.2969"/><text fill="#000000" font-family="sans-serif" font-size="13" lengthAdjust="spacing" textLength="24" x="815.4564" y="1009.8721">1..n</text></g><!--reverse link overarch_view to overarch_conceptView--><g id="link_overarch_view_overarch_conceptView"><path codeLine="50" d="M510.98,742.9369 C533.09,758.1269 559.8,775.4869 585,789.2969 C596.54,795.6269 609.23,801.7569 621.47,807.2869 " fill="none" id="overarch_view-backto-overarch_conceptView" style="stroke:#181818;stroke-width:1.0;"/><polygon fill="none" points="506.74,748.5169,494.35,731.3369,514.76,737.0369,506.74,748.5169" style="stroke:#181818;stroke-width:1.0;"/></g><!--link overarch_conceptView to overarch_conceptModelElement--><g id="link_overarch_conceptView_overarch_conceptModelElement"><path codeLine="51" d="M756.11,842.6969 C781.02,846.5269 809.4,850.8969 836.56,855.0769 " fill="none" id="overarch_conceptView-overarch_conceptModelElement" style="stroke:#181818;stroke-width:1.0;"/><polygon fill="none" points="743.14,840.7069,748.4636,845.5709,755.0011,842.5276,749.6774,837.6635,743.14,840.7069" style="stroke:#181818;stroke-width:1.0;"/><polygon fill="#181818" points="849.78,857.1069,841.4969,851.7786,844.8387,856.3429,840.2745,859.6847,849.78,857.1069" style="stroke:#181818;stroke-width:1.0;"/><line style="stroke:#181818;stroke-width:1.0;" x1="844.8387" x2="836.935" y1="856.3429" y2="855.1319"/><text fill="#000000" font-family="sans-serif" font-size="13" lengthAdjust="spacing" textLength="24" x="817.9247" y="868.6377">1..n</text></g><!--reverse link overarch_view to overarch_glossaryView--><g id="link_overarch_view_overarch_glossaryView"><path codeLine="52" d="M484.29,748.8669 C506.09,785.4469 541.97,838.0469 585,872.2969 C595.02,880.2669 606.79,887.0469 618.56,892.6869 " fill="none" id="overarch_view-backto-overarch_glossaryView" style="stroke:#181818;stroke-width:1.0;"/><polygon fill="none" points="478.13,752.2169,474.2,731.3869,490.26,745.2169,478.13,752.2169" style="stroke:#181818;stroke-width:1.0;"/></g><!--link overarch_glossaryView to overarch_conceptModelElement--><g id="link_overarch_glossaryView_overarch_conceptModelElement"><path codeLine="53" d="M756.11,902.6169 C781.14,898.6769 809.66,894.1769 836.94,889.8769 " fill="none" id="overarch_glossaryView-overarch_conceptModelElement" style="stroke:#181818;stroke-width:1.0;"/><polygon fill="none" points="743.14,904.6569,749.6911,907.6707,754.9927,902.7826,748.4416,899.7688,743.14,904.6569" style="stroke:#181818;stroke-width:1.0;"/><polygon fill="#181818" points="849.78,887.8569,840.2661,885.31,844.8412,888.637,841.5143,893.2121,849.78,887.8569" style="stroke:#181818;stroke-width:1.0;"/><line style="stroke:#181818;stroke-width:1.0;" x1="844.8412" x2="836.94" y1="888.637" y2="889.8819"/><text fill="#000000" font-family="sans-serif" font-size="13" lengthAdjust="spacing" textLength="24" x="817.9247" y="901.5498">1..n</text></g><!--SRC=[bLNBJiCm4BpdArQvfw9NXBYWtgWu8755hhDjBHmxijsM2FXtd5Thrm_AAT7kp4xMEzvmt1em4XJRxGtKJ24rJ8gYCCnmX9SZgYF34yWjc3t2M_- -ujYWCBeW6sqKeGOe9rf3YMEY1A91MYPHTFy-1U6h040Ez_21tKcgklW9-AosGBPbPCEnYXPp4IkdCAkpXNikCxQrWyAgaJNoU7aNj-vXhWP-6bI2z2rifEH8H4IfnfRBhkVaT2ueLoKeDZnoTGP0jiH1OqM9pdPjCKyMujMPwDeGOxd47ej0dpMarcCc_78fABRPCvWWCLM5Mnzh0yC8-gSxv_ahMwJN156ZOcBtQbDvE_JsJhkWD_nPfjC6cueJKMjAsXXrX3pF29VjE2FaNP8UfHEaOJI67pCkU3HB21tYNXlkJ6CzE8Fr1AQPHYJ6Z0lUSQarKLq4FQS6UB0c7hwhAdlVY-moyEb7Js9SP5Nr253UBHRBCkKNd-6N3CoHpCnIoyL2b7_lc4mX_mjY7hkLQoTbx1xxDuTOBwX_iffMYjdGjx9SN-UcS7LV4l7411BRDwTtkKHXAA4IxkQSG73fafcpN9dOnJcPQTNx2aumqKli3v4zBcSXn8Af8uly4d8oyKtYHcyN-WK0]--></g></svg>