<?xml version="1.0" encoding="us-ascii" standalone="no"?><svg xmlns="http://www.w3.org/2000/svg" xmlns:xlink="http://www.w3.org/1999/xlink" contentStyleType="text/css" height="629px" preserveAspectRatio="none" style="width:598px;height:629px;background:#FFFFFF;" version="1.1" viewBox="0 0 598 629" width="598px" zoomAndPan="magnify"><defs/><g><text fill="#000000" font-family="sans-serif" font-size="14" font-weight="bold" lengthAdjust="spacing" textLength="335" x="124.75" y="22.9951">Overview of the Use Case Model Elements</text><!--class overarch_element--><g id="elem_overarch_element"><rect codeLine="6" fill="#F1F1F1" height="64.2969" id="overarch_element" rx="2.5" ry="2.5" style="stroke:#181818;stroke-width:0.5;" width="95" x="241" y="44.2969"/><ellipse cx="258.7" cy="60.2969" fill="#A9DCDF" rx="11" ry="11" style="stroke:#181818;stroke-width:1.0;"/><path d="M258.8094,55.6406 L257.6531,60.7188 L259.9813,60.7188 L258.8094,55.6406 Z M257.325,53.4063 L260.3094,53.4063 L263.6688,65.7969 L261.2156,65.7969 L260.45,62.7344 L257.1688,62.7344 L256.4188,65.7969 L253.9813,65.7969 L257.325,53.4063 Z " fill="#000000"/><text fill="#000000" font-family="sans-serif" font-size="14" font-style="italic" lengthAdjust="spacing" textLength="57" x="273.3" y="65.1436">element</text><line style="stroke:#181818;stroke-width:0.5;" x1="242" x2="335" y1="76.2969" y2="76.2969"/><text fill="#000000" font-family="sans-serif" font-size="14" lengthAdjust="spacing" textLength="83" x="247" y="93.292">el : keyword</text><line style="stroke:#181818;stroke-width:0.5;" x1="242" x2="335" y1="100.5938" y2="100.5938"/></g><!--class overarch_identifiableElement--><g id="elem_overarch_identifiableElement"><rect codeLine="9" fill="#F1F1F1" height="64.2969" id="overarch_identifiableElement" rx="2.5" ry="2.5" style="stroke:#181818;stroke-width:0.5;" width="168" x="299.5" y="176.7969"/><ellipse cx="314.5" cy="192.7969" fill="#A9DCDF" rx="11" ry="11" style="stroke:#181818;stroke-width:1.0;"/><path d="M314.6094,188.1406 L313.4531,193.2188 L315.7813,193.2188 L314.6094,188.1406 Z M313.125,185.9063 L316.1094,185.9063 L319.4688,198.2969 L317.0156,198.2969 L316.25,195.2344 L312.9688,195.2344 L312.2188,198.2969 L309.7813,198.2969 L313.125,185.9063 Z " fill="#000000"/><text fill="#000000" font-family="sans-serif" font-size="14" font-style="italic" lengthAdjust="spacing" textLength="136" x="328.5" y="197.6436">identifiable-element</text><line style="stroke:#181818;stroke-width:0.5;" x1="300.5" x2="466.5" y1="208.7969" y2="208.7969"/><text fill="#000000" font-family="sans-serif" font-size="14" lengthAdjust="spacing" textLength="83" x="305.5" y="225.792">id : keyword</text><line style="stroke:#181818;stroke-width:0.5;" x1="300.5" x2="466.5" y1="233.0938" y2="233.0938"/></g><!--class overarch_namedElement--><g id="elem_overarch_namedElement"><rect codeLine="12" fill="#F1F1F1" height="80.5938" id="overarch_namedElement" rx="2.5" ry="2.5" style="stroke:#181818;stroke-width:0.5;" width="142" x="122.5" y="168.2969"/><ellipse cx="137.5" cy="184.2969" fill="#A9DCDF" rx="11" ry="11" style="stroke:#181818;stroke-width:1.0;"/><path d="M137.6094,179.6406 L136.4531,184.7188 L138.7813,184.7188 L137.6094,179.6406 Z M136.125,177.4063 L139.1094,177.4063 L142.4688,189.7969 L140.0156,189.7969 L139.25,186.7344 L135.9688,186.7344 L135.2188,189.7969 L132.7813,189.7969 L136.125,177.4063 Z " fill="#000000"/><text fill="#000000" font-family="sans-serif" font-size="14" font-style="italic" lengthAdjust="spacing" textLength="110" x="151.5" y="189.1436">named-element</text><line style="stroke:#181818;stroke-width:0.5;" x1="123.5" x2="263.5" y1="200.2969" y2="200.2969"/><text fill="#000000" font-family="sans-serif" font-size="14" lengthAdjust="spacing" textLength="91" x="128.5" y="217.292">name : string</text><text fill="#000000" font-family="sans-serif" font-size="14" lengthAdjust="spacing" textLength="86" x="128.5" y="233.5889">desc : string</text><line style="stroke:#181818;stroke-width:0.5;" x1="123.5" x2="263.5" y1="240.8906" y2="240.8906"/></g><!--class overarch_identifiableNamedElement--><g id="elem_overarch_identifiableNamedElement"><rect codeLine="16" fill="#F1F1F1" height="48" id="overarch_identifiableNamedElement" rx="2.5" ry="2.5" style="stroke:#181818;stroke-width:0.5;" width="221" x="165" y="325.7969"/><ellipse cx="180" cy="341.7969" fill="#A9DCDF" rx="11" ry="11" style="stroke:#181818;stroke-width:1.0;"/><path d="M180.1094,337.1406 L178.9531,342.2188 L181.2813,342.2188 L180.1094,337.1406 Z M178.625,334.9063 L181.6094,334.9063 L184.9688,347.2969 L182.5156,347.2969 L181.75,344.2344 L178.4688,344.2344 L177.7188,347.2969 L175.2813,347.2969 L178.625,334.9063 Z " fill="#000000"/><text fill="#000000" font-family="sans-serif" font-size="14" font-style="italic" lengthAdjust="spacing" textLength="189" x="194" y="346.6436">identifiable-named-element</text><line style="stroke:#181818;stroke-width:0.5;" x1="166" x2="385" y1="357.7969" y2="357.7969"/><line style="stroke:#181818;stroke-width:0.5;" x1="166" x2="385" y1="365.7969" y2="365.7969"/></g><!--class overarch_relationalElement--><g id="elem_overarch_relationalElement"><rect codeLine="17" fill="#F1F1F1" height="80.5938" id="overarch_relationalElement" rx="2.5" ry="2.5" style="stroke:#181818;stroke-width:0.5;" width="156" x="421.5" y="309.2969"/><ellipse cx="436.5" cy="325.2969" fill="#A9DCDF" rx="11" ry="11" style="stroke:#181818;stroke-width:1.0;"/><path d="M436.6094,320.6406 L435.4531,325.7188 L437.7813,325.7188 L436.6094,320.6406 Z M435.125,318.4063 L438.1094,318.4063 L441.4688,330.7969 L439.0156,330.7969 L438.25,327.7344 L434.9688,327.7344 L434.2188,330.7969 L431.7813,330.7969 L435.125,318.4063 Z " fill="#000000"/><text fill="#000000" font-family="sans-serif" font-size="14" font-style="italic" lengthAdjust="spacing" textLength="124" x="450.5" y="330.1436">relational-element</text><line style="stroke:#181818;stroke-width:0.5;" x1="422.5" x2="576.5" y1="341.2969" y2="341.2969"/><text fill="#000000" font-family="sans-serif" font-size="14" lengthAdjust="spacing" textLength="102" x="427.5" y="358.292">from : keyword</text><text fill="#000000" font-family="sans-serif" font-size="14" lengthAdjust="spacing" textLength="85" x="427.5" y="374.5889">to : keyword</text><line style="stroke:#181818;stroke-width:0.5;" x1="422.5" x2="576.5" y1="381.8906" y2="381.8906"/></g><!--class overarch_namedRelationalElement--><g id="elem_overarch_namedRelationalElement"><rect codeLine="21" fill="#F1F1F1" height="48" id="overarch_namedRelationalElement" rx="2.5" ry="2.5" style="stroke:#181818;stroke-width:0.5;" width="209" x="7" y="450.2969"/><ellipse cx="22" cy="466.2969" fill="#A9DCDF" rx="11" ry="11" style="stroke:#181818;stroke-width:1.0;"/><path d="M22.1094,461.6406 L20.9531,466.7188 L23.2813,466.7188 L22.1094,461.6406 Z M20.625,459.4063 L23.6094,459.4063 L26.9688,471.7969 L24.5156,471.7969 L23.75,468.7344 L20.4688,468.7344 L19.7188,471.7969 L17.2813,471.7969 L20.625,459.4063 Z " fill="#000000"/><text fill="#000000" font-family="sans-serif" font-size="14" font-style="italic" lengthAdjust="spacing" textLength="177" x="36" y="471.1436">named-relational-element</text><line style="stroke:#181818;stroke-width:0.5;" x1="8" x2="215" y1="482.2969" y2="482.2969"/><line style="stroke:#181818;stroke-width:0.5;" x1="8" x2="215" y1="490.2969" y2="490.2969"/></g><!--class overarch_useCaseModelElement--><g id="elem_overarch_useCaseModelElement"><rect codeLine="22" fill="#F1F1F1" height="48" id="overarch_useCaseModelElement" rx="2.5" ry="2.5" style="stroke:#181818;stroke-width:0.5;" width="204" x="251.5" y="450.2969"/><ellipse cx="266.5" cy="466.2969" fill="#A9DCDF" rx="11" ry="11" style="stroke:#181818;stroke-width:1.0;"/><path d="M266.6094,461.6406 L265.4531,466.7188 L267.7813,466.7188 L266.6094,461.6406 Z M265.125,459.4063 L268.1094,459.4063 L271.4688,471.7969 L269.0156,471.7969 L268.25,468.7344 L264.9688,468.7344 L264.2188,471.7969 L261.7813,471.7969 L265.125,459.4063 Z " fill="#000000"/><text fill="#000000" font-family="sans-serif" font-size="14" font-style="italic" lengthAdjust="spacing" textLength="172" x="280.5" y="471.1436">use-case-model-element</text><line style="stroke:#181818;stroke-width:0.5;" x1="252.5" x2="454.5" y1="482.2969" y2="482.2969"/><line style="stroke:#181818;stroke-width:0.5;" x1="252.5" x2="454.5" y1="490.2969" y2="490.2969"/></g><!--class overarch_person--><g id="elem_overarch_person"><rect codeLine="23" fill="#F1F1F1" height="48" id="overarch_person" rx="2.5" ry="2.5" style="stroke:#181818;stroke-width:0.5;" width="81" x="141" y="566.2969"/><ellipse cx="156" cy="582.2969" fill="#ADD1B2" rx="11" ry="11" style="stroke:#181818;stroke-width:1.0;"/><path d="M158.9688,587.9375 Q158.3906,588.2344 157.75,588.375 Q157.1094,588.5313 156.4063,588.5313 Q153.9063,588.5313 152.5781,586.8906 Q151.2656,585.2344 151.2656,582.1094 Q151.2656,578.9844 152.5781,577.3281 Q153.9063,575.6719 156.4063,575.6719 Q157.1094,575.6719 157.75,575.8281 Q158.4063,575.9844 158.9688,576.2813 L158.9688,579 Q158.3438,578.4219 157.75,578.1563 Q157.1563,577.875 156.5313,577.875 Q155.1875,577.875 154.5,578.9531 Q153.8125,580.0156 153.8125,582.1094 Q153.8125,584.2031 154.5,585.2813 Q155.1875,586.3438 156.5313,586.3438 Q157.1563,586.3438 157.75,586.0781 Q158.3438,585.7969 158.9688,585.2188 L158.9688,587.9375 Z " fill="#000000"/><text fill="#000000" font-family="sans-serif" font-size="14" lengthAdjust="spacing" textLength="49" x="170" y="587.1436">person</text><line style="stroke:#181818;stroke-width:0.5;" x1="142" x2="221" y1="598.2969" y2="598.2969"/><line style="stroke:#181818;stroke-width:0.5;" x1="142" x2="221" y1="606.2969" y2="606.2969"/></g><!--class overarch_system--><g id="elem_overarch_system"><rect codeLine="24" fill="#F1F1F1" height="48" id="overarch_system" rx="2.5" ry="2.5" style="stroke:#181818;stroke-width:0.5;" width="82" x="257.5" y="566.2969"/><ellipse cx="272.5" cy="582.2969" fill="#ADD1B2" rx="11" ry="11" style="stroke:#181818;stroke-width:1.0;"/><path d="M275.4688,587.9375 Q274.8906,588.2344 274.25,588.375 Q273.6094,588.5313 272.9063,588.5313 Q270.4063,588.5313 269.0781,586.8906 Q267.7656,585.2344 267.7656,582.1094 Q267.7656,578.9844 269.0781,577.3281 Q270.4063,575.6719 272.9063,575.6719 Q273.6094,575.6719 274.25,575.8281 Q274.9063,575.9844 275.4688,576.2813 L275.4688,579 Q274.8438,578.4219 274.25,578.1563 Q273.6563,577.875 273.0313,577.875 Q271.6875,577.875 271,578.9531 Q270.3125,580.0156 270.3125,582.1094 Q270.3125,584.2031 271,585.2813 Q271.6875,586.3438 273.0313,586.3438 Q273.6563,586.3438 274.25,586.0781 Q274.8438,585.7969 275.4688,585.2188 L275.4688,587.9375 Z " fill="#000000"/><text fill="#000000" font-family="sans-serif" font-size="14" lengthAdjust="spacing" textLength="50" x="286.5" y="587.1436">system</text><line style="stroke:#181818;stroke-width:0.5;" x1="258.5" x2="338.5" y1="598.2969" y2="598.2969"/><line style="stroke:#181818;stroke-width:0.5;" x1="258.5" x2="338.5" y1="606.2969" y2="606.2969"/></g><!--class overarch_actor--><g id="elem_overarch_actor"><rect codeLine="25" fill="#F1F1F1" height="48" id="overarch_actor" rx="2.5" ry="2.5" style="stroke:#181818;stroke-width:0.5;" width="67" x="375" y="566.2969"/><ellipse cx="390" cy="582.2969" fill="#ADD1B2" rx="11" ry="11" style="stroke:#181818;stroke-width:1.0;"/><path d="M392.9688,587.9375 Q392.3906,588.2344 391.75,588.375 Q391.1094,588.5313 390.4063,588.5313 Q387.9063,588.5313 386.5781,586.8906 Q385.2656,585.2344 385.2656,582.1094 Q385.2656,578.9844 386.5781,577.3281 Q387.9063,575.6719 390.4063,575.6719 Q391.1094,575.6719 391.75,575.8281 Q392.4063,575.9844 392.9688,576.2813 L392.9688,579 Q392.3438,578.4219 391.75,578.1563 Q391.1563,577.875 390.5313,577.875 Q389.1875,577.875 388.5,578.9531 Q387.8125,580.0156 387.8125,582.1094 Q387.8125,584.2031 388.5,585.2813 Q389.1875,586.3438 390.5313,586.3438 Q391.1563,586.3438 391.75,586.0781 Q392.3438,585.7969 392.9688,585.2188 L392.9688,587.9375 Z " fill="#000000"/><text fill="#000000" font-family="sans-serif" font-size="14" lengthAdjust="spacing" textLength="35" x="404" y="587.1436">actor</text><line style="stroke:#181818;stroke-width:0.5;" x1="376" x2="441" y1="598.2969" y2="598.2969"/><line style="stroke:#181818;stroke-width:0.5;" x1="376" x2="441" y1="606.2969" y2="606.2969"/></g><!--class overarch_useCase--><g id="elem_overarch_useCase"><rect codeLine="26" fill="#F1F1F1" height="64.2969" id="overarch_useCase" rx="2.5" ry="2.5" style="stroke:#181818;stroke-width:0.5;" width="114" x="477.5" y="558.2969"/><ellipse cx="500.6" cy="574.2969" fill="#ADD1B2" rx="11" ry="11" style="stroke:#181818;stroke-width:1.0;"/><path d="M503.5688,579.9375 Q502.9906,580.2344 502.35,580.375 Q501.7094,580.5313 501.0063,580.5313 Q498.5063,580.5313 497.1781,578.8906 Q495.8656,577.2344 495.8656,574.1094 Q495.8656,570.9844 497.1781,569.3281 Q498.5063,567.6719 501.0063,567.6719 Q501.7094,567.6719 502.35,567.8281 Q503.0063,567.9844 503.5688,568.2813 L503.5688,571 Q502.9438,570.4219 502.35,570.1563 Q501.7563,569.875 501.1313,569.875 Q499.7875,569.875 499.1,570.9531 Q498.4125,572.0156 498.4125,574.1094 Q498.4125,576.2031 499.1,577.2813 Q499.7875,578.3438 501.1313,578.3438 Q501.7563,578.3438 502.35,578.0781 Q502.9438,577.7969 503.5688,577.2188 L503.5688,579.9375 Z " fill="#000000"/><text fill="#000000" font-family="sans-serif" font-size="14" lengthAdjust="spacing" textLength="64" x="516.4" y="579.1436">use-case</text><line style="stroke:#181818;stroke-width:0.5;" x1="478.5" x2="590.5" y1="590.2969" y2="590.2969"/><text fill="#000000" font-family="sans-serif" font-size="14" lengthAdjust="spacing" textLength="102" x="483.5" y="607.292">level : keyword</text><line style="stroke:#181818;stroke-width:0.5;" x1="478.5" x2="590.5" y1="614.5938" y2="614.5938"/></g><!--reverse link overarch_element to overarch_identifiableElement--><g id="link_overarch_element_overarch_identifiableElement"><path codeLine="29" d="M323.06,124.7669 C335.68,142.1069 349.62,161.2569 360.93,176.7969 " fill="none" id="overarch_element-backto-overarch_identifiableElement" style="stroke:#181818;stroke-width:1.0;"/><polygon fill="none" points="317.37,128.8469,311.25,108.5569,328.68,120.6069,317.37,128.8469" style="stroke:#181818;stroke-width:1.0;"/></g><!--reverse link overarch_element to overarch_namedElement--><g id="link_overarch_element_overarch_namedElement"><path codeLine="30" d="M253.8,124.9669 C243.54,139.0569 232.42,154.3369 222.55,167.8869 " fill="none" id="overarch_element-backto-overarch_namedElement" style="stroke:#181818;stroke-width:1.0;"/><polygon fill="none" points="248.32,120.6069,265.75,108.5569,259.63,128.8469,248.32,120.6069" style="stroke:#181818;stroke-width:1.0;"/></g><!--reverse link overarch_identifiableElement to overarch_identifiableNamedElement--><g id="link_overarch_identifiableElement_overarch_identifiableNamedElement"><path codeLine="31" d="M346.84,256.9869 C328.9,280.0769 308.1,306.8369 293.61,325.4969 " fill="none" id="overarch_identifiableElement-backto-overarch_identifiableNamedElement" style="stroke:#181818;stroke-width:1.0;"/><polygon fill="none" points="341.46,252.4869,359.26,240.9869,352.52,261.0769,341.46,252.4869" style="stroke:#181818;stroke-width:1.0;"/></g><!--reverse link overarch_namedElement to overarch_identifiableNamedElement--><g id="link_overarch_namedElement_overarch_identifiableNamedElement"><path codeLine="32" d="M227.28,267.0669 C239.37,287.5469 252.31,309.4869 261.74,325.4769 " fill="none" id="overarch_namedElement-backto-overarch_identifiableNamedElement" style="stroke:#181818;stroke-width:1.0;"/><polygon fill="none" points="221.13,270.4069,217,249.6269,233.19,263.2969,221.13,270.4069" style="stroke:#181818;stroke-width:1.0;"/></g><!--reverse link overarch_identifiableElement to overarch_relationalElement--><g id="link_overarch_identifiableElement_overarch_relationalElement"><path codeLine="33" d="M422.55,256.5869 C436.82,273.6869 452.8,292.8369 466.48,309.2369 " fill="none" id="overarch_identifiableElement-backto-overarch_relationalElement" style="stroke:#181818;stroke-width:1.0;"/><polygon fill="none" points="416.97,260.8269,409.53,240.9869,427.72,251.8569,416.97,260.8269" style="stroke:#181818;stroke-width:1.0;"/></g><!--reverse link overarch_namedElement to overarch_namedRelationalElement--><g id="link_overarch_namedElement_overarch_namedRelationalElement"><path codeLine="34" d="M164.13,267.7969 C158.06,281.2069 152.12,295.5669 147.5,309.2969 C131.05,358.1969 120.14,417.8769 114.97,450.0569 " fill="none" id="overarch_namedElement-backto-overarch_namedRelationalElement" style="stroke:#181818;stroke-width:1.0;"/><polygon fill="none" points="157.82,264.7669,172.66,249.6469,170.48,270.7269,157.82,264.7669" style="stroke:#181818;stroke-width:1.0;"/></g><!--reverse link overarch_relationalElement to overarch_namedRelationalElement--><g id="link_overarch_relationalElement_overarch_namedRelationalElement"><path codeLine="35" d="M402.33,390.3769 C325.62,416.5369 256.34,436.0069 202.76,450.2069 " fill="none" id="overarch_relationalElement-backto-overarch_namedRelationalElement" style="stroke:#181818;stroke-width:1.0;"/><polygon fill="none" points="400.27,383.6869,421.45,383.7669,404.84,396.9169,400.27,383.6869" style="stroke:#181818;stroke-width:1.0;"/></g><!--reverse link overarch_identifiableNamedElement to overarch_useCaseModelElement--><g id="link_overarch_identifiableNamedElement_overarch_useCaseModelElement"><path codeLine="36" d="M301.06,390.9269 C313.5,410.4769 328.02,433.2869 338.63,449.9469 " fill="none" id="overarch_identifiableNamedElement-backto-overarch_useCaseModelElement" style="stroke:#181818;stroke-width:1.0;"/><polygon fill="none" points="295.01,394.4669,290.17,373.8369,306.82,386.9469,295.01,394.4669" style="stroke:#181818;stroke-width:1.0;"/></g><!--reverse link overarch_useCaseModelElement to overarch_actor--><g id="link_overarch_useCaseModelElement_overarch_actor"><path codeLine="37" d="M373.35,516.4369 C381.44,533.2069 390.49,551.9769 397.39,566.2569 " fill="none" id="overarch_useCaseModelElement-backto-overarch_actor" style="stroke:#181818;stroke-width:1.0;"/><polygon fill="none" points="367.02,519.4169,364.63,498.3669,379.63,513.3369,367.02,519.4169" style="stroke:#181818;stroke-width:1.0;"/></g><!--reverse link overarch_useCaseModelElement to overarch_person--><g id="link_overarch_useCaseModelElement_overarch_person"><path codeLine="38" d="M301.9,509.4969 C274.22,527.8469 240.84,549.9669 216.26,566.2569 " fill="none" id="overarch_useCaseModelElement-backto-overarch_person" style="stroke:#181818;stroke-width:1.0;"/><polygon fill="none" points="298.16,503.5769,318.69,498.3669,305.89,515.2469,298.16,503.5769" style="stroke:#181818;stroke-width:1.0;"/></g><!--reverse link overarch_useCaseModelElement to overarch_system--><g id="link_overarch_useCaseModelElement_overarch_system"><path codeLine="39" d="M333.65,516.4369 C325.56,533.2069 316.51,551.9769 309.61,566.2569 " fill="none" id="overarch_useCaseModelElement-backto-overarch_system" style="stroke:#181818;stroke-width:1.0;"/><polygon fill="none" points="327.37,513.3369,342.37,498.3669,339.98,519.4169,327.37,513.3369" style="stroke:#181818;stroke-width:1.0;"/></g><!--reverse link overarch_useCaseModelElement to overarch_useCase--><g id="link_overarch_useCaseModelElement_overarch_useCase"><path codeLine="40" d="M407.22,509.1269 C431.94,524.6969 461.08,543.0569 485.23,558.2669 " fill="none" id="overarch_useCaseModelElement-backto-overarch_useCase" style="stroke:#181818;stroke-width:1.0;"/><polygon fill="none" points="403.32,514.9469,390.13,498.3669,410.78,503.1069,403.32,514.9469" style="stroke:#181818;stroke-width:1.0;"/></g><!--SRC=[bP9DQiCm48NtFiMGlIzGkYjP9eL2rqMHneseR1MDwX3QtZto7v4bMOut1isyzsOyV5PQXV3QecabNa1NOCy8xuJmmjpde0Kgs2kiiR5Ki1DPmxW5hXWHx71ex80HQ9V133z_Z4NuBG2S-Gc-y7hHHXJ_aLyA9vILP2U5PJBCL-ozO2comGshKQGJ-vOVrHLSc0kGpQTx2oH-VwyidHdawuxUq2ZGe69MweQfTD2zxwzT6LrxDm2m-e6JhCtgLM_Xm2ZiXx3a3f2oxW19HpbDnr2Fq9Gpsh_Ha6xcyg4sAUXA5kkvOgXD2hUDDdD1Nog25PDBzHTKs0PyHWm__vLb5iOrYqzRaQLwUTGncJ7ZUAjvVO48keScB-2JGNcRV-dFWfWKUhbcO1yusc0OsTtW65dUu1WLDm00]--></g></svg>