<?xml version="1.0" encoding="us-ascii" standalone="no"?><svg xmlns="http://www.w3.org/2000/svg" xmlns:xlink="http://www.w3.org/1999/xlink" contentStyleType="text/css" height="953px" preserveAspectRatio="none" style="width:1053px;height:953px;background:#FFFFFF;" version="1.1" viewBox="0 0 1053 953" width="1053px" zoomAndPan="magnify"><defs/><g><text fill="#000000" font-family="sans-serif" font-size="14" font-weight="bold" lengthAdjust="spacing" textLength="493" x="273" y="22.9951">Overview of the Architecture and Deployment Model Elements</text><!--class overarch_element--><g id="elem_overarch_element"><rect codeLine="6" fill="#F1F1F1" height="64.2969" id="overarch_element" rx="2.5" ry="2.5" style="stroke:#181818;stroke-width:0.5;" width="95" x="241" y="44.2969"/><ellipse cx="258.7" cy="60.2969" fill="#A9DCDF" rx="11" ry="11" style="stroke:#181818;stroke-width:1.0;"/><path d="M258.8094,55.6406 L257.6531,60.7188 L259.9813,60.7188 L258.8094,55.6406 Z M257.325,53.4063 L260.3094,53.4063 L263.6688,65.7969 L261.2156,65.7969 L260.45,62.7344 L257.1688,62.7344 L256.4188,65.7969 L253.9813,65.7969 L257.325,53.4063 Z " fill="#000000"/><text fill="#000000" font-family="sans-serif" font-size="14" font-style="italic" lengthAdjust="spacing" textLength="57" x="273.3" y="65.1436">element</text><line style="stroke:#181818;stroke-width:0.5;" x1="242" x2="335" y1="76.2969" y2="76.2969"/><text fill="#000000" font-family="sans-serif" font-size="14" lengthAdjust="spacing" textLength="83" x="247" y="93.292">el : keyword</text><line style="stroke:#181818;stroke-width:0.5;" x1="242" x2="335" y1="100.5938" y2="100.5938"/></g><!--class overarch_identifiableElement--><g id="elem_overarch_identifiableElement"><rect codeLine="9" fill="#F1F1F1" height="64.2969" id="overarch_identifiableElement" rx="2.5" ry="2.5" style="stroke:#181818;stroke-width:0.5;" width="168" x="299.5" y="176.7969"/><ellipse cx="314.5" cy="192.7969" fill="#A9DCDF" rx="11" ry="11" style="stroke:#181818;stroke-width:1.0;"/><path d="M314.6094,188.1406 L313.4531,193.2188 L315.7813,193.2188 L314.6094,188.1406 Z M313.125,185.9063 L316.1094,185.9063 L319.4688,198.2969 L317.0156,198.2969 L316.25,195.2344 L312.9688,195.2344 L312.2188,198.2969 L309.7813,198.2969 L313.125,185.9063 Z " fill="#000000"/><text fill="#000000" font-family="sans-serif" font-size="14" font-style="italic" lengthAdjust="spacing" textLength="136" x="328.5" y="197.6436">identifiable-element</text><line style="stroke:#181818;stroke-width:0.5;" x1="300.5" x2="466.5" y1="208.7969" y2="208.7969"/><text fill="#000000" font-family="sans-serif" font-size="14" lengthAdjust="spacing" textLength="83" x="305.5" y="225.792">id : keyword</text><line style="stroke:#181818;stroke-width:0.5;" x1="300.5" x2="466.5" y1="233.0938" y2="233.0938"/></g><!--class overarch_namedElement--><g id="elem_overarch_namedElement"><rect codeLine="12" fill="#F1F1F1" height="80.5938" id="overarch_namedElement" rx="2.5" ry="2.5" style="stroke:#181818;stroke-width:0.5;" width="142" x="122.5" y="168.2969"/><ellipse cx="137.5" cy="184.2969" fill="#A9DCDF" rx="11" ry="11" style="stroke:#181818;stroke-width:1.0;"/><path d="M137.6094,179.6406 L136.4531,184.7188 L138.7813,184.7188 L137.6094,179.6406 Z M136.125,177.4063 L139.1094,177.4063 L142.4688,189.7969 L140.0156,189.7969 L139.25,186.7344 L135.9688,186.7344 L135.2188,189.7969 L132.7813,189.7969 L136.125,177.4063 Z " fill="#000000"/><text fill="#000000" font-family="sans-serif" font-size="14" font-style="italic" lengthAdjust="spacing" textLength="110" x="151.5" y="189.1436">named-element</text><line style="stroke:#181818;stroke-width:0.5;" x1="123.5" x2="263.5" y1="200.2969" y2="200.2969"/><text fill="#000000" font-family="sans-serif" font-size="14" lengthAdjust="spacing" textLength="91" x="128.5" y="217.292">name : string</text><text fill="#000000" font-family="sans-serif" font-size="14" lengthAdjust="spacing" textLength="86" x="128.5" y="233.5889">desc : string</text><line style="stroke:#181818;stroke-width:0.5;" x1="123.5" x2="263.5" y1="240.8906" y2="240.8906"/></g><!--class overarch_identifiableNamedElement--><g id="elem_overarch_identifiableNamedElement"><rect codeLine="16" fill="#F1F1F1" height="48" id="overarch_identifiableNamedElement" rx="2.5" ry="2.5" style="stroke:#181818;stroke-width:0.5;" width="221" x="356" y="325.7969"/><ellipse cx="371" cy="341.7969" fill="#A9DCDF" rx="11" ry="11" style="stroke:#181818;stroke-width:1.0;"/><path d="M371.1094,337.1406 L369.9531,342.2188 L372.2813,342.2188 L371.1094,337.1406 Z M369.625,334.9063 L372.6094,334.9063 L375.9688,347.2969 L373.5156,347.2969 L372.75,344.2344 L369.4688,344.2344 L368.7188,347.2969 L366.2813,347.2969 L369.625,334.9063 Z " fill="#000000"/><text fill="#000000" font-family="sans-serif" font-size="14" font-style="italic" lengthAdjust="spacing" textLength="189" x="385" y="346.6436">identifiable-named-element</text><line style="stroke:#181818;stroke-width:0.5;" x1="357" x2="576" y1="357.7969" y2="357.7969"/><line style="stroke:#181818;stroke-width:0.5;" x1="357" x2="576" y1="365.7969" y2="365.7969"/></g><!--class overarch_relationalElement--><g id="elem_overarch_relationalElement"><rect codeLine="17" fill="#F1F1F1" height="80.5938" id="overarch_relationalElement" rx="2.5" ry="2.5" style="stroke:#181818;stroke-width:0.5;" width="156" x="164.5" y="309.2969"/><ellipse cx="179.5" cy="325.2969" fill="#A9DCDF" rx="11" ry="11" style="stroke:#181818;stroke-width:1.0;"/><path d="M179.6094,320.6406 L178.4531,325.7188 L180.7813,325.7188 L179.6094,320.6406 Z M178.125,318.4063 L181.1094,318.4063 L184.4688,330.7969 L182.0156,330.7969 L181.25,327.7344 L177.9688,327.7344 L177.2188,330.7969 L174.7813,330.7969 L178.125,318.4063 Z " fill="#000000"/><text fill="#000000" font-family="sans-serif" font-size="14" font-style="italic" lengthAdjust="spacing" textLength="124" x="193.5" y="330.1436">relational-element</text><line style="stroke:#181818;stroke-width:0.5;" x1="165.5" x2="319.5" y1="341.2969" y2="341.2969"/><text fill="#000000" font-family="sans-serif" font-size="14" lengthAdjust="spacing" textLength="102" x="170.5" y="358.292">from : keyword</text><text fill="#000000" font-family="sans-serif" font-size="14" lengthAdjust="spacing" textLength="85" x="170.5" y="374.5889">to : keyword</text><line style="stroke:#181818;stroke-width:0.5;" x1="165.5" x2="319.5" y1="381.8906" y2="381.8906"/></g><!--class overarch_namedRelationalElement--><g id="elem_overarch_namedRelationalElement"><rect codeLine="21" fill="#F1F1F1" height="48" id="overarch_namedRelationalElement" rx="2.5" ry="2.5" style="stroke:#181818;stroke-width:0.5;" width="209" x="7" y="458.2969"/><ellipse cx="22" cy="474.2969" fill="#A9DCDF" rx="11" ry="11" style="stroke:#181818;stroke-width:1.0;"/><path d="M22.1094,469.6406 L20.9531,474.7188 L23.2813,474.7188 L22.1094,469.6406 Z M20.625,467.4063 L23.6094,467.4063 L26.9688,479.7969 L24.5156,479.7969 L23.75,476.7344 L20.4688,476.7344 L19.7188,479.7969 L17.2813,479.7969 L20.625,467.4063 Z " fill="#000000"/><text fill="#000000" font-family="sans-serif" font-size="14" font-style="italic" lengthAdjust="spacing" textLength="177" x="36" y="479.1436">named-relational-element</text><line style="stroke:#181818;stroke-width:0.5;" x1="8" x2="215" y1="490.2969" y2="490.2969"/><line style="stroke:#181818;stroke-width:0.5;" x1="8" x2="215" y1="498.2969" y2="498.2969"/></g><!--class overarch_technicalElement--><g id="elem_overarch_technicalElement"><rect codeLine="22" fill="#F1F1F1" height="80.5938" id="overarch_technicalElement" rx="2.5" ry="2.5" style="stroke:#181818;stroke-width:0.5;" width="156" x="855.5" y="309.2969"/><ellipse cx="870.5" cy="325.2969" fill="#A9DCDF" rx="11" ry="11" style="stroke:#181818;stroke-width:1.0;"/><path d="M870.6094,320.6406 L869.4531,325.7188 L871.7813,325.7188 L870.6094,320.6406 Z M869.125,318.4063 L872.1094,318.4063 L875.4688,330.7969 L873.0156,330.7969 L872.25,327.7344 L868.9688,327.7344 L868.2188,330.7969 L865.7813,330.7969 L869.125,318.4063 Z " fill="#000000"/><text fill="#000000" font-family="sans-serif" font-size="14" font-style="italic" lengthAdjust="spacing" textLength="124" x="884.5" y="330.1436">technical-element</text><line style="stroke:#181818;stroke-width:0.5;" x1="856.5" x2="1010.5" y1="341.2969" y2="341.2969"/><text fill="#000000" font-family="sans-serif" font-size="14" lengthAdjust="spacing" textLength="108" x="861.5" y="358.292">subtype : string</text><text fill="#000000" font-family="sans-serif" font-size="14" lengthAdjust="spacing" textLength="83" x="861.5" y="374.5889">tech : string</text><line style="stroke:#181818;stroke-width:0.5;" x1="856.5" x2="1010.5" y1="381.8906" y2="381.8906"/></g><!--class overarch_architectureModelElement--><g id="elem_overarch_architectureModelElement"><rect codeLine="26" fill="#F1F1F1" height="64.2969" id="overarch_architectureModelElement" rx="2.5" ry="2.5" style="stroke:#181818;stroke-width:0.5;" width="225" x="354" y="450.2969"/><ellipse cx="369" cy="466.2969" fill="#A9DCDF" rx="11" ry="11" style="stroke:#181818;stroke-width:1.0;"/><path d="M369.1094,461.6406 L367.9531,466.7188 L370.2813,466.7188 L369.1094,461.6406 Z M367.625,459.4063 L370.6094,459.4063 L373.9688,471.7969 L371.5156,471.7969 L370.75,468.7344 L367.4688,468.7344 L366.7188,471.7969 L364.2813,471.7969 L367.625,459.4063 Z " fill="#000000"/><text fill="#000000" font-family="sans-serif" font-size="14" font-style="italic" lengthAdjust="spacing" textLength="193" x="383" y="471.1436">architecture-model-element</text><line style="stroke:#181818;stroke-width:0.5;" x1="355" x2="578" y1="482.2969" y2="482.2969"/><text fill="#000000" font-family="sans-serif" font-size="14" lengthAdjust="spacing" textLength="124" x="360" y="499.292">external : boolean</text><line style="stroke:#181818;stroke-width:0.5;" x1="355" x2="578" y1="506.5938" y2="506.5938"/></g><!--class overarch_technicalArchitectureElement--><g id="elem_overarch_technicalArchitectureElement"><rect codeLine="29" fill="#F1F1F1" height="48" id="overarch_technicalArchitectureElement" rx="2.5" ry="2.5" style="stroke:#181818;stroke-width:0.5;" width="244" x="195.5" y="574.2969"/><ellipse cx="210.5" cy="590.2969" fill="#A9DCDF" rx="11" ry="11" style="stroke:#181818;stroke-width:1.0;"/><path d="M210.6094,585.6406 L209.4531,590.7188 L211.7813,590.7188 L210.6094,585.6406 Z M209.125,583.4063 L212.1094,583.4063 L215.4688,595.7969 L213.0156,595.7969 L212.25,592.7344 L208.9688,592.7344 L208.2188,595.7969 L205.7813,595.7969 L209.125,583.4063 Z " fill="#000000"/><text fill="#000000" font-family="sans-serif" font-size="14" font-style="italic" lengthAdjust="spacing" textLength="212" x="224.5" y="595.1436">technical-architecture-element</text><line style="stroke:#181818;stroke-width:0.5;" x1="196.5" x2="438.5" y1="606.2969" y2="606.2969"/><line style="stroke:#181818;stroke-width:0.5;" x1="196.5" x2="438.5" y1="614.2969" y2="614.2969"/></g><!--class overarch_deploymentModelElement--><g id="elem_overarch_deploymentModelElement"><rect codeLine="30" fill="#F1F1F1" height="48" id="overarch_deploymentModelElement" rx="2.5" ry="2.5" style="stroke:#181818;stroke-width:0.5;" width="225" x="821" y="458.2969"/><ellipse cx="836" cy="474.2969" fill="#A9DCDF" rx="11" ry="11" style="stroke:#181818;stroke-width:1.0;"/><path d="M836.1094,469.6406 L834.9531,474.7188 L837.2813,474.7188 L836.1094,469.6406 Z M834.625,467.4063 L837.6094,467.4063 L840.9688,479.7969 L838.5156,479.7969 L837.75,476.7344 L834.4688,476.7344 L833.7188,479.7969 L831.2813,479.7969 L834.625,467.4063 Z " fill="#000000"/><text fill="#000000" font-family="sans-serif" font-size="14" font-style="italic" lengthAdjust="spacing" textLength="193" x="850" y="479.1436">deployment-model-element</text><line style="stroke:#181818;stroke-width:0.5;" x1="822" x2="1045" y1="490.2969" y2="490.2969"/><line style="stroke:#181818;stroke-width:0.5;" x1="822" x2="1045" y1="498.2969" y2="498.2969"/></g><!--class overarch_contextBoundary--><g id="elem_overarch_contextBoundary"><rect codeLine="31" fill="#F1F1F1" height="48" id="overarch_contextBoundary" rx="2.5" ry="2.5" style="stroke:#181818;stroke-width:0.5;" width="154" x="474.5" y="574.2969"/><ellipse cx="489.5" cy="590.2969" fill="#ADD1B2" rx="11" ry="11" style="stroke:#181818;stroke-width:1.0;"/><path d="M492.4688,595.9375 Q491.8906,596.2344 491.25,596.375 Q490.6094,596.5313 489.9063,596.5313 Q487.4063,596.5313 486.0781,594.8906 Q484.7656,593.2344 484.7656,590.1094 Q484.7656,586.9844 486.0781,585.3281 Q487.4063,583.6719 489.9063,583.6719 Q490.6094,583.6719 491.25,583.8281 Q491.9063,583.9844 492.4688,584.2813 L492.4688,587 Q491.8438,586.4219 491.25,586.1563 Q490.6563,585.875 490.0313,585.875 Q488.6875,585.875 488,586.9531 Q487.3125,588.0156 487.3125,590.1094 Q487.3125,592.2031 488,593.2813 Q488.6875,594.3438 490.0313,594.3438 Q490.6563,594.3438 491.25,594.0781 Q491.8438,593.7969 492.4688,593.2188 L492.4688,595.9375 Z " fill="#000000"/><text fill="#000000" font-family="sans-serif" font-size="14" lengthAdjust="spacing" textLength="122" x="503.5" y="595.1436">context-boundary</text><line style="stroke:#181818;stroke-width:0.5;" x1="475.5" x2="627.5" y1="606.2969" y2="606.2969"/><line style="stroke:#181818;stroke-width:0.5;" x1="475.5" x2="627.5" y1="614.2969" y2="614.2969"/></g><!--class overarch_enterpriseBoundary--><g id="elem_overarch_enterpriseBoundary"><rect codeLine="32" fill="#F1F1F1" height="48" id="overarch_enterpriseBoundary" rx="2.5" ry="2.5" style="stroke:#181818;stroke-width:0.5;" width="173" x="664" y="574.2969"/><ellipse cx="679" cy="590.2969" fill="#ADD1B2" rx="11" ry="11" style="stroke:#181818;stroke-width:1.0;"/><path d="M681.9688,595.9375 Q681.3906,596.2344 680.75,596.375 Q680.1094,596.5313 679.4063,596.5313 Q676.9063,596.5313 675.5781,594.8906 Q674.2656,593.2344 674.2656,590.1094 Q674.2656,586.9844 675.5781,585.3281 Q676.9063,583.6719 679.4063,583.6719 Q680.1094,583.6719 680.75,583.8281 Q681.4063,583.9844 681.9688,584.2813 L681.9688,587 Q681.3438,586.4219 680.75,586.1563 Q680.1563,585.875 679.5313,585.875 Q678.1875,585.875 677.5,586.9531 Q676.8125,588.0156 676.8125,590.1094 Q676.8125,592.2031 677.5,593.2813 Q678.1875,594.3438 679.5313,594.3438 Q680.1563,594.3438 680.75,594.0781 Q681.3438,593.7969 681.9688,593.2188 L681.9688,595.9375 Z " fill="#000000"/><text fill="#000000" font-family="sans-serif" font-size="14" lengthAdjust="spacing" textLength="141" x="693" y="595.1436">enterprise-boundary</text><line style="stroke:#181818;stroke-width:0.5;" x1="665" x2="836" y1="606.2969" y2="606.2969"/><line style="stroke:#181818;stroke-width:0.5;" x1="665" x2="836" y1="614.2969" y2="614.2969"/></g><!--class overarch_person--><g id="elem_overarch_person"><rect codeLine="33" fill="#F1F1F1" height="48" id="overarch_person" rx="2.5" ry="2.5" style="stroke:#181818;stroke-width:0.5;" width="81" x="79" y="574.2969"/><ellipse cx="94" cy="590.2969" fill="#ADD1B2" rx="11" ry="11" style="stroke:#181818;stroke-width:1.0;"/><path d="M96.9688,595.9375 Q96.3906,596.2344 95.75,596.375 Q95.1094,596.5313 94.4063,596.5313 Q91.9063,596.5313 90.5781,594.8906 Q89.2656,593.2344 89.2656,590.1094 Q89.2656,586.9844 90.5781,585.3281 Q91.9063,583.6719 94.4063,583.6719 Q95.1094,583.6719 95.75,583.8281 Q96.4063,583.9844 96.9688,584.2813 L96.9688,587 Q96.3438,586.4219 95.75,586.1563 Q95.1563,585.875 94.5313,585.875 Q93.1875,585.875 92.5,586.9531 Q91.8125,588.0156 91.8125,590.1094 Q91.8125,592.2031 92.5,593.2813 Q93.1875,594.3438 94.5313,594.3438 Q95.1563,594.3438 95.75,594.0781 Q96.3438,593.7969 96.9688,593.2188 L96.9688,595.9375 Z " fill="#000000"/><text fill="#000000" font-family="sans-serif" font-size="14" lengthAdjust="spacing" textLength="49" x="108" y="595.1436">person</text><line style="stroke:#181818;stroke-width:0.5;" x1="80" x2="159" y1="606.2969" y2="606.2969"/><line style="stroke:#181818;stroke-width:0.5;" x1="80" x2="159" y1="614.2969" y2="614.2969"/></g><!--class overarch_system--><g id="elem_overarch_system"><rect codeLine="34" fill="#F1F1F1" height="48" id="overarch_system" rx="2.5" ry="2.5" style="stroke:#181818;stroke-width:0.5;" width="82" x="323.5" y="682.2969"/><ellipse cx="338.5" cy="698.2969" fill="#ADD1B2" rx="11" ry="11" style="stroke:#181818;stroke-width:1.0;"/><path d="M341.4688,703.9375 Q340.8906,704.2344 340.25,704.375 Q339.6094,704.5313 338.9063,704.5313 Q336.4063,704.5313 335.0781,702.8906 Q333.7656,701.2344 333.7656,698.1094 Q333.7656,694.9844 335.0781,693.3281 Q336.4063,691.6719 338.9063,691.6719 Q339.6094,691.6719 340.25,691.8281 Q340.9063,691.9844 341.4688,692.2813 L341.4688,695 Q340.8438,694.4219 340.25,694.1563 Q339.6563,693.875 339.0313,693.875 Q337.6875,693.875 337,694.9531 Q336.3125,696.0156 336.3125,698.1094 Q336.3125,700.2031 337,701.2813 Q337.6875,702.3438 339.0313,702.3438 Q339.6563,702.3438 340.25,702.0781 Q340.8438,701.7969 341.4688,701.2188 L341.4688,703.9375 Z " fill="#000000"/><text fill="#000000" font-family="sans-serif" font-size="14" lengthAdjust="spacing" textLength="50" x="352.5" y="703.1436">system</text><line style="stroke:#181818;stroke-width:0.5;" x1="324.5" x2="404.5" y1="714.2969" y2="714.2969"/><line style="stroke:#181818;stroke-width:0.5;" x1="324.5" x2="404.5" y1="722.2969" y2="722.2969"/></g><!--class overarch_container--><g id="elem_overarch_container"><rect codeLine="35" fill="#F1F1F1" height="48" id="overarch_container" rx="2.5" ry="2.5" style="stroke:#181818;stroke-width:0.5;" width="97" x="367" y="790.2969"/><ellipse cx="382" cy="806.2969" fill="#ADD1B2" rx="11" ry="11" style="stroke:#181818;stroke-width:1.0;"/><path d="M384.9688,811.9375 Q384.3906,812.2344 383.75,812.375 Q383.1094,812.5313 382.4063,812.5313 Q379.9063,812.5313 378.5781,810.8906 Q377.2656,809.2344 377.2656,806.1094 Q377.2656,802.9844 378.5781,801.3281 Q379.9063,799.6719 382.4063,799.6719 Q383.1094,799.6719 383.75,799.8281 Q384.4063,799.9844 384.9688,800.2813 L384.9688,803 Q384.3438,802.4219 383.75,802.1563 Q383.1563,801.875 382.5313,801.875 Q381.1875,801.875 380.5,802.9531 Q379.8125,804.0156 379.8125,806.1094 Q379.8125,808.2031 380.5,809.2813 Q381.1875,810.3438 382.5313,810.3438 Q383.1563,810.3438 383.75,810.0781 Q384.3438,809.7969 384.9688,809.2188 L384.9688,811.9375 Z " fill="#000000"/><text fill="#000000" font-family="sans-serif" font-size="14" lengthAdjust="spacing" textLength="65" x="396" y="811.1436">container</text><line style="stroke:#181818;stroke-width:0.5;" x1="368" x2="463" y1="822.2969" y2="822.2969"/><line style="stroke:#181818;stroke-width:0.5;" x1="368" x2="463" y1="830.2969" y2="830.2969"/></g><!--class overarch_component--><g id="elem_overarch_component"><rect codeLine="36" fill="#F1F1F1" height="48" id="overarch_component" rx="2.5" ry="2.5" style="stroke:#181818;stroke-width:0.5;" width="112" x="265.5" y="898.2969"/><ellipse cx="280.5" cy="914.2969" fill="#ADD1B2" rx="11" ry="11" style="stroke:#181818;stroke-width:1.0;"/><path d="M283.4688,919.9375 Q282.8906,920.2344 282.25,920.375 Q281.6094,920.5313 280.9063,920.5313 Q278.4063,920.5313 277.0781,918.8906 Q275.7656,917.2344 275.7656,914.1094 Q275.7656,910.9844 277.0781,909.3281 Q278.4063,907.6719 280.9063,907.6719 Q281.6094,907.6719 282.25,907.8281 Q282.9063,907.9844 283.4688,908.2813 L283.4688,911 Q282.8438,910.4219 282.25,910.1563 Q281.6563,909.875 281.0313,909.875 Q279.6875,909.875 279,910.9531 Q278.3125,912.0156 278.3125,914.1094 Q278.3125,916.2031 279,917.2813 Q279.6875,918.3438 281.0313,918.3438 Q281.6563,918.3438 282.25,918.0781 Q282.8438,917.7969 283.4688,917.2188 L283.4688,919.9375 Z " fill="#000000"/><text fill="#000000" font-family="sans-serif" font-size="14" lengthAdjust="spacing" textLength="80" x="294.5" y="919.1436">component</text><line style="stroke:#181818;stroke-width:0.5;" x1="266.5" x2="376.5" y1="930.2969" y2="930.2969"/><line style="stroke:#181818;stroke-width:0.5;" x1="266.5" x2="376.5" y1="938.2969" y2="938.2969"/></g><!--class overarch_rel--><g id="elem_overarch_rel"><rect codeLine="37" fill="#F1F1F1" height="48" id="overarch_rel" rx="2.5" ry="2.5" style="stroke:#181818;stroke-width:0.5;" width="49" x="108" y="682.2969"/><ellipse cx="123" cy="698.2969" fill="#ADD1B2" rx="11" ry="11" style="stroke:#181818;stroke-width:1.0;"/><path d="M125.9688,703.9375 Q125.3906,704.2344 124.75,704.375 Q124.1094,704.5313 123.4063,704.5313 Q120.9063,704.5313 119.5781,702.8906 Q118.2656,701.2344 118.2656,698.1094 Q118.2656,694.9844 119.5781,693.3281 Q120.9063,691.6719 123.4063,691.6719 Q124.1094,691.6719 124.75,691.8281 Q125.4063,691.9844 125.9688,692.2813 L125.9688,695 Q125.3438,694.4219 124.75,694.1563 Q124.1563,693.875 123.5313,693.875 Q122.1875,693.875 121.5,694.9531 Q120.8125,696.0156 120.8125,698.1094 Q120.8125,700.2031 121.5,701.2813 Q122.1875,702.3438 123.5313,702.3438 Q124.1563,702.3438 124.75,702.0781 Q125.3438,701.7969 125.9688,701.2188 L125.9688,703.9375 Z " fill="#000000"/><text fill="#000000" font-family="sans-serif" font-size="14" lengthAdjust="spacing" textLength="17" x="137" y="703.1436">rel</text><line style="stroke:#181818;stroke-width:0.5;" x1="109" x2="156" y1="714.2969" y2="714.2969"/><line style="stroke:#181818;stroke-width:0.5;" x1="109" x2="156" y1="722.2969" y2="722.2969"/></g><!--class overarch_node--><g id="elem_overarch_node"><rect codeLine="38" fill="#F1F1F1" height="48" id="overarch_node" rx="2.5" ry="2.5" style="stroke:#181818;stroke-width:0.5;" width="68" x="943.5" y="574.2969"/><ellipse cx="958.5" cy="590.2969" fill="#ADD1B2" rx="11" ry="11" style="stroke:#181818;stroke-width:1.0;"/><path d="M961.4688,595.9375 Q960.8906,596.2344 960.25,596.375 Q959.6094,596.5313 958.9063,596.5313 Q956.4063,596.5313 955.0781,594.8906 Q953.7656,593.2344 953.7656,590.1094 Q953.7656,586.9844 955.0781,585.3281 Q956.4063,583.6719 958.9063,583.6719 Q959.6094,583.6719 960.25,583.8281 Q960.9063,583.9844 961.4688,584.2813 L961.4688,587 Q960.8438,586.4219 960.25,586.1563 Q959.6563,585.875 959.0313,585.875 Q957.6875,585.875 957,586.9531 Q956.3125,588.0156 956.3125,590.1094 Q956.3125,592.2031 957,593.2813 Q957.6875,594.3438 959.0313,594.3438 Q959.6563,594.3438 960.25,594.0781 Q960.8438,593.7969 961.4688,593.2188 L961.4688,595.9375 Z " fill="#000000"/><text fill="#000000" font-family="sans-serif" font-size="14" lengthAdjust="spacing" textLength="36" x="972.5" y="595.1436">node</text><line style="stroke:#181818;stroke-width:0.5;" x1="944.5" x2="1010.5" y1="606.2969" y2="606.2969"/><line style="stroke:#181818;stroke-width:0.5;" x1="944.5" x2="1010.5" y1="614.2969" y2="614.2969"/></g><!--reverse link overarch_element to overarch_identifiableElement--><g id="link_overarch_element_overarch_identifiableElement"><path codeLine="39" d="M323.06,124.7669 C335.68,142.1069 349.62,161.2569 360.93,176.7969 " fill="none" id="overarch_element-backto-overarch_identifiableElement" style="stroke:#181818;stroke-width:1.0;"/><polygon fill="none" points="317.37,128.8469,311.25,108.5569,328.68,120.6069,317.37,128.8469" style="stroke:#181818;stroke-width:1.0;"/></g><!--reverse link overarch_element to overarch_namedElement--><g id="link_overarch_element_overarch_namedElement"><path codeLine="40" d="M253.8,124.9669 C243.54,139.0569 232.42,154.3369 222.55,167.8869 " fill="none" id="overarch_element-backto-overarch_namedElement" style="stroke:#181818;stroke-width:1.0;"/><polygon fill="none" points="248.32,120.6069,265.75,108.5569,259.63,128.8469,248.32,120.6069" style="stroke:#181818;stroke-width:1.0;"/></g><!--reverse link overarch_identifiableElement to overarch_identifiableNamedElement--><g id="link_overarch_identifiableElement_overarch_identifiableNamedElement"><path codeLine="41" d="M412.48,258.3369 C426.08,281.1069 441.66,307.2069 452.58,325.4969 " fill="none" id="overarch_identifiableElement-backto-overarch_identifiableNamedElement" style="stroke:#181818;stroke-width:1.0;"/><polygon fill="none" points="406.37,261.7469,402.13,240.9869,418.39,254.5769,406.37,261.7469" style="stroke:#181818;stroke-width:1.0;"/></g><!--reverse link overarch_namedElement to overarch_identifiableNamedElement--><g id="link_overarch_namedElement_overarch_identifiableNamedElement"><path codeLine="42" d="M282.46,255.0869 C328.78,278.6769 383.44,306.5069 421.09,325.6769 " fill="none" id="overarch_namedElement-backto-overarch_identifiableNamedElement" style="stroke:#181818;stroke-width:1.0;"/><polygon fill="none" points="279.16,261.2669,264.51,245.9569,285.51,248.7869,279.16,261.2669" style="stroke:#181818;stroke-width:1.0;"/></g><!--reverse link overarch_identifiableElement to overarch_relationalElement--><g id="link_overarch_identifiableElement_overarch_relationalElement"><path codeLine="43" d="M337.37,255.2769 C319.7,272.6969 299.7,292.4069 282.63,309.2369 " fill="none" id="overarch_identifiableElement-backto-overarch_relationalElement" style="stroke:#181818;stroke-width:1.0;"/><polygon fill="none" points="332.7,250.0469,351.86,240.9869,342.53,260.0169,332.7,250.0469" style="stroke:#181818;stroke-width:1.0;"/></g><!--reverse link overarch_namedElement to overarch_namedRelationalElement--><g id="link_overarch_namedElement_overarch_namedRelationalElement"><path codeLine="44" d="M163.29,267.6969 C157.1,281.1069 151.09,295.4969 146.5,309.2969 C129.29,361.0569 119.03,424.5269 114.42,458.0269 " fill="none" id="overarch_namedElement-backto-overarch_namedRelationalElement" style="stroke:#181818;stroke-width:1.0;"/><polygon fill="none" points="157.04,264.5369,172.03,249.5569,169.66,270.6069,157.04,264.5369" style="stroke:#181818;stroke-width:1.0;"/></g><!--reverse link overarch_relationalElement to overarch_namedRelationalElement--><g id="link_overarch_relationalElement_overarch_namedRelationalElement"><path codeLine="45" d="M188.5,404.5869 C169.7,423.3169 149.6,443.3369 134.65,458.2369 " fill="none" id="overarch_relationalElement-backto-overarch_namedRelationalElement" style="stroke:#181818;stroke-width:1.0;"/><polygon fill="none" points="183.73,399.4569,202.84,390.3069,193.61,409.3769,183.73,399.4569" style="stroke:#181818;stroke-width:1.0;"/></g><!--reverse link overarch_identifiableNamedElement to overarch_architectureModelElement--><g id="link_overarch_identifiableNamedElement_overarch_architectureModelElement"><path codeLine="46" d="M466.5,394.0969 C466.5,412.4369 466.5,433.3969 466.5,450.1769 " fill="none" id="overarch_identifiableNamedElement-backto-overarch_architectureModelElement" style="stroke:#181818;stroke-width:1.0;"/><polygon fill="none" points="459.5,393.8269,466.5,373.8269,473.5,393.8269,459.5,393.8269" style="stroke:#181818;stroke-width:1.0;"/></g><!--reverse link overarch_architectureModelElement to overarch_technicalArchitectureElement--><g id="link_overarch_architectureModelElement_overarch_technicalArchitectureElement"><path codeLine="47" d="M409.81,526.6769 C388.71,542.8169 365.59,560.5069 347.76,574.1369 " fill="none" id="overarch_architectureModelElement-backto-overarch_technicalArchitectureElement" style="stroke:#181818;stroke-width:1.0;"/><polygon fill="none" points="405.65,521.0369,425.79,514.4469,414.15,532.1569,405.65,521.0369" style="stroke:#181818;stroke-width:1.0;"/></g><!--reverse link overarch_architectureModelElement to overarch_contextBoundary--><g id="link_overarch_architectureModelElement_overarch_contextBoundary"><path codeLine="48" d="M501.89,530.7569 C513.07,545.7469 524.92,561.6469 534.23,574.1369 " fill="none" id="overarch_architectureModelElement-backto-overarch_contextBoundary" style="stroke:#181818;stroke-width:1.0;"/><polygon fill="none" points="496.07,534.6669,489.73,514.4469,507.29,526.2969,496.07,534.6669" style="stroke:#181818;stroke-width:1.0;"/></g><!--reverse link overarch_architectureModelElement to overarch_enterpriseBoundary--><g id="link_overarch_architectureModelElement_overarch_enterpriseBoundary"><path codeLine="49" d="M562.5,521.8369 C605.88,539.2469 655.67,559.2369 693.11,574.2569 " fill="none" id="overarch_architectureModelElement-backto-overarch_enterpriseBoundary" style="stroke:#181818;stroke-width:1.0;"/><polygon fill="none" points="559.68,528.2469,543.73,514.2969,564.9,515.2469,559.68,528.2469" style="stroke:#181818;stroke-width:1.0;"/></g><!--reverse link overarch_architectureModelElement to overarch_person--><g id="link_overarch_architectureModelElement_overarch_person"><path codeLine="50" d="M342.34,520.2269 C291.03,536.0469 231.12,555.2469 177.5,574.2969 C171.89,576.2869 166.01,578.4869 160.24,580.7169 " fill="none" id="overarch_architectureModelElement-backto-overarch_person" style="stroke:#181818;stroke-width:1.0;"/><polygon fill="none" points="340.38,513.5069,361.55,514.3369,344.48,526.8969,340.38,513.5069" style="stroke:#181818;stroke-width:1.0;"/></g><!--reverse link overarch_technicalArchitectureElement to overarch_system--><g id="link_overarch_technicalArchitectureElement_overarch_system"><path codeLine="51" d="M335.93,640.8669 C342.13,654.8369 348.81,669.9169 354.16,681.9769 " fill="none" id="overarch_technicalArchitectureElement-backto-overarch_system" style="stroke:#181818;stroke-width:1.0;"/><polygon fill="none" points="329.41,643.4169,327.7,622.2969,342.2,637.7469,329.41,643.4169" style="stroke:#181818;stroke-width:1.0;"/></g><!--link overarch_system to overarch_container--><g id="link_overarch_system_overarch_container"><path codeLine="52" d="M381.31,742.2369 C386.85,753.7469 393.01,766.5469 398.56,778.0769 " fill="none" id="overarch_system-overarch_container" style="stroke:#181818;stroke-width:1.0;"/><polygon fill="#181818" points="375.57,730.2969,374.5702,737.4383,380.7778,741.1079,381.7776,733.9665,375.57,730.2969" style="stroke:#181818;stroke-width:1.0;"/><polygon fill="#181818" points="404.28,789.9769,403.9779,780.1327,402.1101,785.4723,396.7705,783.6045,404.28,789.9769" style="stroke:#181818;stroke-width:1.0;"/><line style="stroke:#181818;stroke-width:1.0;" x1="402.1101" x2="398.64" y1="785.4723" y2="778.2619"/><text fill="#000000" font-family="sans-serif" font-size="13" lengthAdjust="spacing" textLength="24" x="374.6201" y="779.3038">0..n</text></g><!--reverse link overarch_technicalArchitectureElement to overarch_container--><g id="link_overarch_technicalArchitectureElement_overarch_container"><path codeLine="53" d="M379.69,633.8469 C396.74,646.6669 413.11,662.9069 422.5,682.2969 C439.27,716.9369 430.85,762.9369 423.19,790.1969 " fill="none" id="overarch_technicalArchitectureElement-backto-overarch_container" style="stroke:#181818;stroke-width:1.0;"/><polygon fill="none" points="375.52,639.4769,362.99,622.3969,383.44,627.9369,375.52,639.4769" style="stroke:#181818;stroke-width:1.0;"/></g><!--link overarch_container to overarch_component--><g id="link_overarch_container_overarch_component"><path codeLine="54" d="M386.16,848.3769 C374.9,861.0769 362.06,875.5569 350.81,888.2469 " fill="none" id="overarch_container-overarch_component" style="stroke:#181818;stroke-width:1.0;"/><polygon fill="#181818" points="395.1,838.2969,388.1262,840.1315,387.1375,847.2745,394.1113,845.4399,395.1,838.2969" style="stroke:#181818;stroke-width:1.0;"/><polygon fill="#181818" points="342.18,897.9769,351.1445,893.8978,345.4977,894.2362,345.1594,888.5895,342.18,897.9769" style="stroke:#181818;stroke-width:1.0;"/><line style="stroke:#181818;stroke-width:1.0;" x1="345.4977" x2="350.805" y1="894.2362" y2="888.2469"/><text fill="#000000" font-family="sans-serif" font-size="13" lengthAdjust="spacing" textLength="24" x="320.2958" y="887.3038">0..n</text></g><!--reverse link overarch_technicalArchitectureElement to overarch_component--><g id="link_overarch_technicalArchitectureElement_overarch_component"><path codeLine="55" d="M310.07,642.3769 C308.19,655.1869 306.44,669.2769 305.5,682.2969 C299.8,761.5169 311.51,855.5669 317.83,898.2169 " fill="none" id="overarch_technicalArchitectureElement-backto-overarch_component" style="stroke:#181818;stroke-width:1.0;"/><polygon fill="none" points="303.19,641.1069,313.24,622.4569,317.01,643.3069,303.19,641.1069" style="stroke:#181818;stroke-width:1.0;"/></g><!--reverse link overarch_namedRelationalElement to overarch_rel--><g id="link_overarch_namedRelationalElement_overarch_rel"><path codeLine="56" d="M81.84,523.1269 C64.87,550.9569 49.18,588.9469 61.5,622.2969 C70.76,647.3769 91.36,670.0069 108,685.2769 " fill="none" id="overarch_namedRelationalElement-backto-overarch_rel" style="stroke:#181818;stroke-width:1.0;"/><polygon fill="none" points="76.01,519.2569,92.9,506.4569,87.67,526.9969,76.01,519.2569" style="stroke:#181818;stroke-width:1.0;"/></g><!--reverse link overarch_technicalArchitectureElement to overarch_rel--><g id="link_overarch_technicalArchitectureElement_overarch_rel"><path codeLine="57" d="M259.65,632.4369 C225.22,652.1669 183.29,676.1969 157.25,691.1169 " fill="none" id="overarch_technicalArchitectureElement-backto-overarch_rel" style="stroke:#181818;stroke-width:1.0;"/><polygon fill="none" points="256.52,626.1669,277.36,622.2969,263.48,638.3169,256.52,626.1669" style="stroke:#181818;stroke-width:1.0;"/></g><!--reverse link overarch_identifiableNamedElement to overarch_deploymentModelElement--><g id="link_overarch_identifiableNamedElement_overarch_deploymentModelElement"><path codeLine="58" d="M568.33,379.2569 C653.1,402.9469 772.27,436.2469 851.12,458.2769 " fill="none" id="overarch_identifiableNamedElement-backto-overarch_deploymentModelElement" style="stroke:#181818;stroke-width:1.0;"/><polygon fill="none" points="566.29,385.9469,548.92,373.8269,570.06,372.4669,566.29,385.9469" style="stroke:#181818;stroke-width:1.0;"/></g><!--reverse link overarch_technicalElement to overarch_deploymentModelElement--><g id="link_overarch_technicalElement_overarch_deploymentModelElement"><path codeLine="59" d="M933.5,410.4369 C933.5,427.4069 933.5,444.8869 933.5,458.2369 " fill="none" id="overarch_technicalElement-backto-overarch_deploymentModelElement" style="stroke:#181818;stroke-width:1.0;"/><polygon fill="none" points="926.5,410.3069,933.5,390.3069,940.5,410.3069,926.5,410.3069" style="stroke:#181818;stroke-width:1.0;"/></g><!--reverse link overarch_deploymentModelElement to overarch_node--><g id="link_overarch_deploymentModelElement_overarch_node"><path codeLine="60" d="M937.53,525.7969 C943,542.2169 950.64,560.3569 958.13,574.2569 " fill="none" id="overarch_deploymentModelElement-backto-overarch_node" style="stroke:#181818;stroke-width:1.0;"/><polygon fill="none" points="930.74,527.5269,931.92,506.3669,944.19,523.6469,930.74,527.5269" style="stroke:#181818;stroke-width:1.0;"/></g><!--link overarch_node to overarch_deploymentModelElement--><g id="link_overarch_node_overarch_deploymentModelElement"><path codeLine="61" d="M976.37,561.6569 C972.2,547.7469 966.03,531.8469 959.44,518.0169 " fill="none" id="overarch_node-overarch_deploymentModelElement" style="stroke:#181818;stroke-width:1.0;"/><polygon fill="#181818" points="979.7,574.2569,982.0291,567.4323,976.6253,562.6575,974.2962,569.4821,979.7,574.2569" style="stroke:#181818;stroke-width:1.0;"/><polygon fill="#181818" points="953.5,506.3669,954.0197,516.202,955.769,510.8224,961.1486,512.5717,953.5,506.3669" style="stroke:#181818;stroke-width:1.0;"/><line style="stroke:#181818;stroke-width:1.0;" x1="955.769" x2="959.405" y1="510.8224" y2="517.9519"/><text fill="#000000" font-family="sans-serif" font-size="13" lengthAdjust="spacing" textLength="24" x="931.55" y="526.5406">0..n</text></g><!--reverse link overarch_deploymentModelElement to overarch_container--><g id="link_overarch_deploymentModelElement_overarch_container"><path codeLine="62" d="M918.13,525.2069 C905.17,555.5769 883.99,595.7869 854.5,622.2969 C736.9,728.0069 551.63,782.0869 464.23,802.8869 " fill="none" id="overarch_deploymentModelElement-backto-overarch_container" style="stroke:#181818;stroke-width:1.0;"/><polygon fill="none" points="911.7,522.4469,925.63,506.4869,924.69,527.6569,911.7,522.4469" style="stroke:#181818;stroke-width:1.0;"/></g><!--SRC=[hLNBRjim4BphAnO-5b2GSn0KQ94Sum3vWO0IrpKHYXH8EgdGvDzBsR94YWzPHexStPaXLpihmmn7U7v7zSxm0-GEp1xXbwhtp61j3Wg120eFs7BPDIWCF4cA71uvzYTTa4eRHMe3DITQmmPFYGqG3TBI4alrEWJXNm5WmNVmXjs7LBJu2l2CsaAsOwJYM4R9t8f7XvZHBB4W3T8uup7bKlK1IsO9cFXZpnHrFPqNBfqHSkksZcX0g90JmwGWF4uqvTrhxvHid1u067b1IvQqZbKlSy60p8xBNh0wnJActGlhGsMwrcjrNvThDN56ispwMOphkNN7aNLryQz1PTzYXIefEH8HKPeUv6dcN-Sw9zKfEfefzu2fohr-CN3KKXZxYhAI1q69wdpiaFqz9CyWYqVLAgOnWPiAvj0MbPR2hpx5pXMwqmORl-8KS-zCc40LNlOOdkgQLegW8MEuc4mIkEAS4xPdip6saIBOIFUVPPbTBKiGTtSKsHsLbjf6ERojj1QyV85WXLoad5W6cSMq3fzwsOmcvUvYsVy-KTQuQydcjbkBZzXlBSNWoOlUDuCEPfsTuKTP_WJOtDxSMFj7J7kDL0GzXfA2P_TV9nYWuvCOckGgFGztuKmd5dxw3xeE7i_FxUajoVwK-1pVeZP-y_y0]--></g></svg>