<?xml version="1.0" encoding="us-ascii" standalone="no"?><svg xmlns="http://www.w3.org/2000/svg" xmlns:xlink="http://www.w3.org/1999/xlink" contentStyleType="text/css" height="1031px" preserveAspectRatio="none" style="width:918px;height:1031px;background:#FFFFFF;" version="1.1" viewBox="0 0 918 1031" width="918px" zoomAndPan="magnify"><defs/><g><text fill="#000000" font-family="sans-serif" font-size="14" font-weight="bold" lengthAdjust="spacing" textLength="219" x="342.5" y="24.5332">Overview of the View Elements</text><!--class overarch_element--><g id="elem_overarch_element"><rect codeLine="5" fill="#F1F1F1" height="65.6094" id="overarch_element" rx="2.5" ry="2.5" style="stroke:#181818;stroke-width:0.5;" width="87" x="10" y="677.6094"/><ellipse cx="27.25" cy="693.6094" fill="#A9DCDF" rx="11" ry="11" style="stroke:#181818;stroke-width:1.0;"/><path d="M29.4375,695.375 L25.2969,695.375 L24.875,696.4063 L25.2969,696.4063 Q25.9063,696.4063 26.1719,696.6406 Q26.4375,696.875 26.4375,697.2656 Q26.4375,697.6406 26.1719,697.875 Q25.9063,698.1094 25.2969,698.1094 L23,698.1094 Q22.3906,698.1094 22.1406,697.875 Q21.875,697.6406 21.875,697.25 Q21.875,696.875 22.1563,696.6406 Q22.4219,696.3906 23.0469,696.4063 L25.7188,689.75 L24.6094,689.75 Q24,689.75 23.7344,689.5156 Q23.4688,689.2813 23.4688,688.8906 Q23.4688,688.5156 23.7344,688.2813 Q24,688.0469 24.6094,688.0469 L28.2813,688.0469 L31.6719,696.4063 Q32.2656,696.4063 32.4531,696.5469 Q32.8438,696.8125 32.8438,697.2656 Q32.8438,697.6406 32.5781,697.875 Q32.3281,698.1094 31.7188,698.1094 L29.4219,698.1094 Q28.8125,698.1094 28.5469,697.875 Q28.2813,697.6406 28.2813,697.25 Q28.2813,696.875 28.5469,696.6406 Q28.8125,696.4063 29.4219,696.4063 L29.8438,696.4063 L29.4375,695.375 Z M28.7188,693.6719 L27.3594,690.2969 L25.9844,693.6719 L28.7188,693.6719 Z " fill="#000000"/><text fill="#000000" font-family="sans-serif" font-size="14" font-style="italic" lengthAdjust="spacing" textLength="50" x="41.75" y="699.3379">element</text><line style="stroke:#181818;stroke-width:0.5;" x1="11" x2="96" y1="709.6094" y2="709.6094"/><text fill="#000000" font-family="sans-serif" font-size="14" lengthAdjust="spacing" textLength="75" x="16" y="728.1426">el : keyword</text><line style="stroke:#181818;stroke-width:0.5;" x1="11" x2="96" y1="735.2188" y2="735.2188"/></g><!--class overarch_identifiableElement--><g id="elem_overarch_identifiableElement"><rect codeLine="8" fill="#F1F1F1" height="65.6094" id="overarch_identifiableElement" rx="2.5" ry="2.5" style="stroke:#181818;stroke-width:0.5;" width="155" x="160" y="677.6094"/><ellipse cx="175" cy="693.6094" fill="#A9DCDF" rx="11" ry="11" style="stroke:#181818;stroke-width:1.0;"/><path d="M177.1875,695.375 L173.0469,695.375 L172.625,696.4063 L173.0469,696.4063 Q173.6563,696.4063 173.9219,696.6406 Q174.1875,696.875 174.1875,697.2656 Q174.1875,697.6406 173.9219,697.875 Q173.6563,698.1094 173.0469,698.1094 L170.75,698.1094 Q170.1406,698.1094 169.8906,697.875 Q169.625,697.6406 169.625,697.25 Q169.625,696.875 169.9063,696.6406 Q170.1719,696.3906 170.7969,696.4063 L173.4688,689.75 L172.3594,689.75 Q171.75,689.75 171.4844,689.5156 Q171.2188,689.2813 171.2188,688.8906 Q171.2188,688.5156 171.4844,688.2813 Q171.75,688.0469 172.3594,688.0469 L176.0313,688.0469 L179.4219,696.4063 Q180.0156,696.4063 180.2031,696.5469 Q180.5938,696.8125 180.5938,697.2656 Q180.5938,697.6406 180.3281,697.875 Q180.0781,698.1094 179.4688,698.1094 L177.1719,698.1094 Q176.5625,698.1094 176.2969,697.875 Q176.0313,697.6406 176.0313,697.25 Q176.0313,696.875 176.2969,696.6406 Q176.5625,696.4063 177.1719,696.4063 L177.5938,696.4063 L177.1875,695.375 Z M176.4688,693.6719 L175.1094,690.2969 L173.7344,693.6719 L176.4688,693.6719 Z " fill="#000000"/><text fill="#000000" font-family="sans-serif" font-size="14" font-style="italic" lengthAdjust="spacing" textLength="123" x="189" y="699.3379">identifiable-element</text><line style="stroke:#181818;stroke-width:0.5;" x1="161" x2="314" y1="709.6094" y2="709.6094"/><text fill="#000000" font-family="sans-serif" font-size="14" lengthAdjust="spacing" textLength="75" x="166" y="728.1426">id : keyword</text><line style="stroke:#181818;stroke-width:0.5;" x1="161" x2="314" y1="735.2188" y2="735.2188"/></g><!--class overarch_architectureModelElement--><g id="elem_overarch_architectureModelElement"><rect codeLine="11" fill="#F1F1F1" height="65.6094" id="overarch_architectureModelElement" rx="2.5" ry="2.5" style="stroke:#181818;stroke-width:0.5;" width="205" x="706" y="45.6094"/><ellipse cx="721" cy="61.6094" fill="#A9DCDF" rx="11" ry="11" style="stroke:#181818;stroke-width:1.0;"/><path d="M723.1875,63.375 L719.0469,63.375 L718.625,64.4063 L719.0469,64.4063 Q719.6563,64.4063 719.9219,64.6406 Q720.1875,64.875 720.1875,65.2656 Q720.1875,65.6406 719.9219,65.875 Q719.6563,66.1094 719.0469,66.1094 L716.75,66.1094 Q716.1406,66.1094 715.8906,65.875 Q715.625,65.6406 715.625,65.25 Q715.625,64.875 715.9063,64.6406 Q716.1719,64.3906 716.7969,64.4063 L719.4688,57.75 L718.3594,57.75 Q717.75,57.75 717.4844,57.5156 Q717.2188,57.2813 717.2188,56.8906 Q717.2188,56.5156 717.4844,56.2813 Q717.75,56.0469 718.3594,56.0469 L722.0313,56.0469 L725.4219,64.4063 Q726.0156,64.4063 726.2031,64.5469 Q726.5938,64.8125 726.5938,65.2656 Q726.5938,65.6406 726.3281,65.875 Q726.0781,66.1094 725.4688,66.1094 L723.1719,66.1094 Q722.5625,66.1094 722.2969,65.875 Q722.0313,65.6406 722.0313,65.25 Q722.0313,64.875 722.2969,64.6406 Q722.5625,64.4063 723.1719,64.4063 L723.5938,64.4063 L723.1875,63.375 Z M722.4688,61.6719 L721.1094,58.2969 L719.7344,61.6719 L722.4688,61.6719 Z " fill="#000000"/><text fill="#000000" font-family="sans-serif" font-size="14" font-style="italic" lengthAdjust="spacing" textLength="173" x="735" y="67.3379">architecture-model-element</text><line style="stroke:#181818;stroke-width:0.5;" x1="707" x2="910" y1="77.6094" y2="77.6094"/><text fill="#000000" font-family="sans-serif" font-size="14" lengthAdjust="spacing" textLength="113" x="712" y="96.1426">external : boolean</text><line style="stroke:#181818;stroke-width:0.5;" x1="707" x2="910" y1="103.2188" y2="103.2188"/></g><!--class overarch_deploymentModelElement--><g id="elem_overarch_deploymentModelElement"><rect codeLine="14" fill="#F1F1F1" height="48" id="overarch_deploymentModelElement" rx="2.5" ry="2.5" style="stroke:#181818;stroke-width:0.5;" width="203" x="707" y="561.6094"/><ellipse cx="722" cy="577.6094" fill="#A9DCDF" rx="11" ry="11" style="stroke:#181818;stroke-width:1.0;"/><path d="M724.1875,579.375 L720.0469,579.375 L719.625,580.4063 L720.0469,580.4063 Q720.6563,580.4063 720.9219,580.6406 Q721.1875,580.875 721.1875,581.2656 Q721.1875,581.6406 720.9219,581.875 Q720.6563,582.1094 720.0469,582.1094 L717.75,582.1094 Q717.1406,582.1094 716.8906,581.875 Q716.625,581.6406 716.625,581.25 Q716.625,580.875 716.9063,580.6406 Q717.1719,580.3906 717.7969,580.4063 L720.4688,573.75 L719.3594,573.75 Q718.75,573.75 718.4844,573.5156 Q718.2188,573.2813 718.2188,572.8906 Q718.2188,572.5156 718.4844,572.2813 Q718.75,572.0469 719.3594,572.0469 L723.0313,572.0469 L726.4219,580.4063 Q727.0156,580.4063 727.2031,580.5469 Q727.5938,580.8125 727.5938,581.2656 Q727.5938,581.6406 727.3281,581.875 Q727.0781,582.1094 726.4688,582.1094 L724.1719,582.1094 Q723.5625,582.1094 723.2969,581.875 Q723.0313,581.6406 723.0313,581.25 Q723.0313,580.875 723.2969,580.6406 Q723.5625,580.4063 724.1719,580.4063 L724.5938,580.4063 L724.1875,579.375 Z M723.4688,577.6719 L722.1094,574.2969 L720.7344,577.6719 L723.4688,577.6719 Z " fill="#000000"/><text fill="#000000" font-family="sans-serif" font-size="14" font-style="italic" lengthAdjust="spacing" textLength="171" x="736" y="583.3379">deployment-model-element</text><line style="stroke:#181818;stroke-width:0.5;" x1="708" x2="909" y1="593.6094" y2="593.6094"/><line style="stroke:#181818;stroke-width:0.5;" x1="708" x2="909" y1="601.6094" y2="601.6094"/></g><!--class overarch_classModelElement--><g id="elem_overarch_classModelElement"><rect codeLine="15" fill="#F1F1F1" height="48" id="overarch_classModelElement" rx="2.5" ry="2.5" style="stroke:#181818;stroke-width:0.5;" width="162" x="727.5" y="644.6094"/><ellipse cx="742.5" cy="660.6094" fill="#A9DCDF" rx="11" ry="11" style="stroke:#181818;stroke-width:1.0;"/><path d="M744.6875,662.375 L740.5469,662.375 L740.125,663.4063 L740.5469,663.4063 Q741.1563,663.4063 741.4219,663.6406 Q741.6875,663.875 741.6875,664.2656 Q741.6875,664.6406 741.4219,664.875 Q741.1563,665.1094 740.5469,665.1094 L738.25,665.1094 Q737.6406,665.1094 737.3906,664.875 Q737.125,664.6406 737.125,664.25 Q737.125,663.875 737.4063,663.6406 Q737.6719,663.3906 738.2969,663.4063 L740.9688,656.75 L739.8594,656.75 Q739.25,656.75 738.9844,656.5156 Q738.7188,656.2813 738.7188,655.8906 Q738.7188,655.5156 738.9844,655.2813 Q739.25,655.0469 739.8594,655.0469 L743.5313,655.0469 L746.9219,663.4063 Q747.5156,663.4063 747.7031,663.5469 Q748.0938,663.8125 748.0938,664.2656 Q748.0938,664.6406 747.8281,664.875 Q747.5781,665.1094 746.9688,665.1094 L744.6719,665.1094 Q744.0625,665.1094 743.7969,664.875 Q743.5313,664.6406 743.5313,664.25 Q743.5313,663.875 743.7969,663.6406 Q744.0625,663.4063 744.6719,663.4063 L745.0938,663.4063 L744.6875,662.375 Z M743.9688,660.6719 L742.6094,657.2969 L741.2344,660.6719 L743.9688,660.6719 Z " fill="#000000"/><text fill="#000000" font-family="sans-serif" font-size="14" font-style="italic" lengthAdjust="spacing" textLength="130" x="756.5" y="666.3379">class-model-element</text><line style="stroke:#181818;stroke-width:0.5;" x1="728.5" x2="888.5" y1="676.6094" y2="676.6094"/><line style="stroke:#181818;stroke-width:0.5;" x1="728.5" x2="888.5" y1="684.6094" y2="684.6094"/></g><!--class overarch_useCaseModelElement--><g id="elem_overarch_useCaseModelElement"><rect codeLine="16" fill="#F1F1F1" height="48" id="overarch_useCaseModelElement" rx="2.5" ry="2.5" style="stroke:#181818;stroke-width:0.5;" width="188" x="714.5" y="810.6094"/><ellipse cx="729.5" cy="826.6094" fill="#A9DCDF" rx="11" ry="11" style="stroke:#181818;stroke-width:1.0;"/><path d="M731.6875,828.375 L727.5469,828.375 L727.125,829.4063 L727.5469,829.4063 Q728.1563,829.4063 728.4219,829.6406 Q728.6875,829.875 728.6875,830.2656 Q728.6875,830.6406 728.4219,830.875 Q728.1563,831.1094 727.5469,831.1094 L725.25,831.1094 Q724.6406,831.1094 724.3906,830.875 Q724.125,830.6406 724.125,830.25 Q724.125,829.875 724.4063,829.6406 Q724.6719,829.3906 725.2969,829.4063 L727.9688,822.75 L726.8594,822.75 Q726.25,822.75 725.9844,822.5156 Q725.7188,822.2813 725.7188,821.8906 Q725.7188,821.5156 725.9844,821.2813 Q726.25,821.0469 726.8594,821.0469 L730.5313,821.0469 L733.9219,829.4063 Q734.5156,829.4063 734.7031,829.5469 Q735.0938,829.8125 735.0938,830.2656 Q735.0938,830.6406 734.8281,830.875 Q734.5781,831.1094 733.9688,831.1094 L731.6719,831.1094 Q731.0625,831.1094 730.7969,830.875 Q730.5313,830.6406 730.5313,830.25 Q730.5313,829.875 730.7969,829.6406 Q731.0625,829.4063 731.6719,829.4063 L732.0938,829.4063 L731.6875,828.375 Z M730.9688,826.6719 L729.6094,823.2969 L728.2344,826.6719 L730.9688,826.6719 Z " fill="#000000"/><text fill="#000000" font-family="sans-serif" font-size="14" font-style="italic" lengthAdjust="spacing" textLength="156" x="743.5" y="832.3379">use-case-model-element</text><line style="stroke:#181818;stroke-width:0.5;" x1="715.5" x2="901.5" y1="842.6094" y2="842.6094"/><line style="stroke:#181818;stroke-width:0.5;" x1="715.5" x2="901.5" y1="850.6094" y2="850.6094"/></g><!--class overarch_stateMachine--><g id="elem_overarch_stateMachine"><rect codeLine="17" fill="#F1F1F1" height="48" id="overarch_stateMachine" rx="2.5" ry="2.5" style="stroke:#181818;stroke-width:0.5;" width="121" x="748" y="727.6094"/><ellipse cx="763" cy="743.6094" fill="#ADD1B2" rx="11" ry="11" style="stroke:#181818;stroke-width:1.0;"/><path d="M765.7656,739.4844 Q765.9219,739.2656 766.1094,739.1563 Q766.2969,739.0469 766.5156,739.0469 Q766.8906,739.0469 767.125,739.3125 Q767.3594,739.5625 767.3594,740.1719 L767.3594,741.625 Q767.3594,742.2344 767.125,742.5 Q766.8906,742.7656 766.5156,742.7656 Q766.1719,742.7656 765.9688,742.5625 Q765.7656,742.375 765.6563,741.8594 Q765.6094,741.5 765.4219,741.3125 Q765.0938,740.9375 764.4844,740.7188 Q763.875,740.5 763.25,740.5 Q762.4844,740.5 761.8438,740.8281 Q761.2188,741.1563 760.7188,741.9063 Q760.2344,742.6563 760.2344,743.6875 L760.2344,744.7813 Q760.2344,746.0156 761.125,746.8438 Q762.0156,747.6563 763.6094,747.6563 Q764.5469,747.6563 765.2031,747.4063 Q765.5938,747.25 766.0156,746.8125 Q766.2813,746.5469 766.4219,746.4688 Q766.5781,746.3906 766.7813,746.3906 Q767.1094,746.3906 767.3594,746.6563 Q767.625,746.9063 767.625,747.25 Q767.625,747.5938 767.2813,748 Q766.7813,748.5781 765.9844,748.9063 Q764.9063,749.3594 763.6094,749.3594 Q762.0938,749.3594 760.8906,748.7344 Q759.9063,748.2344 759.2188,747.1719 Q758.5313,746.0938 758.5313,744.8125 L758.5313,743.6563 Q758.5313,742.3281 759.1406,741.1875 Q759.7656,740.0313 760.8594,739.4219 Q761.9531,738.7969 763.1875,738.7969 Q763.9219,738.7969 764.5625,738.9688 Q765.2188,739.125 765.7656,739.4844 Z " fill="#000000"/><text fill="#000000" font-family="sans-serif" font-size="14" lengthAdjust="spacing" textLength="89" x="777" y="749.3379">state-machine</text><line style="stroke:#181818;stroke-width:0.5;" x1="749" x2="868" y1="759.6094" y2="759.6094"/><line style="stroke:#181818;stroke-width:0.5;" x1="749" x2="868" y1="767.6094" y2="767.6094"/></g><!--class overarch_conceptModelElement--><g id="elem_overarch_conceptModelElement"><rect codeLine="18" fill="#F1F1F1" height="48" id="overarch_conceptModelElement" rx="2.5" ry="2.5" style="stroke:#181818;stroke-width:0.5;" width="180" x="718.5" y="934.6094"/><ellipse cx="733.5" cy="950.6094" fill="#A9DCDF" rx="11" ry="11" style="stroke:#181818;stroke-width:1.0;"/><path d="M735.6875,952.375 L731.5469,952.375 L731.125,953.4063 L731.5469,953.4063 Q732.1563,953.4063 732.4219,953.6406 Q732.6875,953.875 732.6875,954.2656 Q732.6875,954.6406 732.4219,954.875 Q732.1563,955.1094 731.5469,955.1094 L729.25,955.1094 Q728.6406,955.1094 728.3906,954.875 Q728.125,954.6406 728.125,954.25 Q728.125,953.875 728.4063,953.6406 Q728.6719,953.3906 729.2969,953.4063 L731.9688,946.75 L730.8594,946.75 Q730.25,946.75 729.9844,946.5156 Q729.7188,946.2813 729.7188,945.8906 Q729.7188,945.5156 729.9844,945.2813 Q730.25,945.0469 730.8594,945.0469 L734.5313,945.0469 L737.9219,953.4063 Q738.5156,953.4063 738.7031,953.5469 Q739.0938,953.8125 739.0938,954.2656 Q739.0938,954.6406 738.8281,954.875 Q738.5781,955.1094 737.9688,955.1094 L735.6719,955.1094 Q735.0625,955.1094 734.7969,954.875 Q734.5313,954.6406 734.5313,954.25 Q734.5313,953.875 734.7969,953.6406 Q735.0625,953.4063 735.6719,953.4063 L736.0938,953.4063 L735.6875,952.375 Z M734.9688,950.6719 L733.6094,947.2969 L732.2344,950.6719 L734.9688,950.6719 Z " fill="#000000"/><text fill="#000000" font-family="sans-serif" font-size="14" font-style="italic" lengthAdjust="spacing" textLength="148" x="747.5" y="956.3379">concept-model-element</text><line style="stroke:#181818;stroke-width:0.5;" x1="719.5" x2="897.5" y1="966.6094" y2="966.6094"/><line style="stroke:#181818;stroke-width:0.5;" x1="719.5" x2="897.5" y1="974.6094" y2="974.6094"/></g><!--class overarch_ref--><g id="elem_overarch_ref"><rect codeLine="19" fill="#F1F1F1" height="65.6094" id="overarch_ref" rx="2.5" ry="2.5" style="stroke:#181818;stroke-width:0.5;" width="93" x="7" y="576.6094"/><ellipse cx="41.8" cy="592.6094" fill="#ADD1B2" rx="11" ry="11" style="stroke:#181818;stroke-width:1.0;"/><path d="M44.5656,588.4844 Q44.7219,588.2656 44.9094,588.1563 Q45.0969,588.0469 45.3156,588.0469 Q45.6906,588.0469 45.925,588.3125 Q46.1594,588.5625 46.1594,589.1719 L46.1594,590.625 Q46.1594,591.2344 45.925,591.5 Q45.6906,591.7656 45.3156,591.7656 Q44.9719,591.7656 44.7688,591.5625 Q44.5656,591.375 44.4563,590.8594 Q44.4094,590.5 44.2219,590.3125 Q43.8938,589.9375 43.2844,589.7188 Q42.675,589.5 42.05,589.5 Q41.2844,589.5 40.6438,589.8281 Q40.0188,590.1563 39.5188,590.9063 Q39.0344,591.6563 39.0344,592.6875 L39.0344,593.7813 Q39.0344,595.0156 39.925,595.8438 Q40.8156,596.6563 42.4094,596.6563 Q43.3469,596.6563 44.0031,596.4063 Q44.3938,596.25 44.8156,595.8125 Q45.0813,595.5469 45.2219,595.4688 Q45.3781,595.3906 45.5813,595.3906 Q45.9094,595.3906 46.1594,595.6563 Q46.425,595.9063 46.425,596.25 Q46.425,596.5938 46.0813,597 Q45.5813,597.5781 44.7844,597.9063 Q43.7063,598.3594 42.4094,598.3594 Q40.8938,598.3594 39.6906,597.7344 Q38.7063,597.2344 38.0188,596.1719 Q37.3313,595.0938 37.3313,593.8125 L37.3313,592.6563 Q37.3313,591.3281 37.9406,590.1875 Q38.5656,589.0313 39.6594,588.4219 Q40.7531,587.7969 41.9875,587.7969 Q42.7219,587.7969 43.3625,587.9688 Q44.0188,588.125 44.5656,588.4844 Z " fill="#000000"/><text fill="#000000" font-family="sans-serif" font-size="14" lengthAdjust="spacing" textLength="17" x="60.2" y="598.3379">ref</text><line style="stroke:#181818;stroke-width:0.5;" x1="8" x2="99" y1="608.6094" y2="608.6094"/><text fill="#000000" font-family="sans-serif" font-size="14" lengthAdjust="spacing" textLength="81" x="13" y="627.1426">ref : keyword</text><line style="stroke:#181818;stroke-width:0.5;" x1="8" x2="99" y1="634.2188" y2="634.2188"/></g><!--class overarch_view--><g id="elem_overarch_view"><rect codeLine="22" fill="#F1F1F1" height="65.6094" id="overarch_view" rx="2.5" ry="2.5" style="stroke:#181818;stroke-width:0.5;" width="58" x="375" y="677.6094"/><ellipse cx="390" cy="693.6094" fill="#A9DCDF" rx="11" ry="11" style="stroke:#181818;stroke-width:1.0;"/><path d="M392.1875,695.375 L388.0469,695.375 L387.625,696.4063 L388.0469,696.4063 Q388.6563,696.4063 388.9219,696.6406 Q389.1875,696.875 389.1875,697.2656 Q389.1875,697.6406 388.9219,697.875 Q388.6563,698.1094 388.0469,698.1094 L385.75,698.1094 Q385.1406,698.1094 384.8906,697.875 Q384.625,697.6406 384.625,697.25 Q384.625,696.875 384.9063,696.6406 Q385.1719,696.3906 385.7969,696.4063 L388.4688,689.75 L387.3594,689.75 Q386.75,689.75 386.4844,689.5156 Q386.2188,689.2813 386.2188,688.8906 Q386.2188,688.5156 386.4844,688.2813 Q386.75,688.0469 387.3594,688.0469 L391.0313,688.0469 L394.4219,696.4063 Q395.0156,696.4063 395.2031,696.5469 Q395.5938,696.8125 395.5938,697.2656 Q395.5938,697.6406 395.3281,697.875 Q395.0781,698.1094 394.4688,698.1094 L392.1719,698.1094 Q391.5625,698.1094 391.2969,697.875 Q391.0313,697.6406 391.0313,697.25 Q391.0313,696.875 391.2969,696.6406 Q391.5625,696.4063 392.1719,696.4063 L392.5938,696.4063 L392.1875,695.375 Z M391.4688,693.6719 L390.1094,690.2969 L388.7344,693.6719 L391.4688,693.6719 Z " fill="#000000"/><text fill="#000000" font-family="sans-serif" font-size="14" font-style="italic" lengthAdjust="spacing" textLength="26" x="404" y="699.3379">view</text><line style="stroke:#181818;stroke-width:0.5;" x1="376" x2="432" y1="709.6094" y2="709.6094"/><text fill="#000000" font-family="sans-serif" font-size="14" lengthAdjust="spacing" textLength="22" x="381" y="728.1426">title</text><line style="stroke:#181818;stroke-width:0.5;" x1="376" x2="432" y1="735.2188" y2="735.2188"/></g><!--class overarch_renderingSpec--><g id="elem_overarch_renderingSpec"><rect codeLine="25" fill="#F1F1F1" height="48" id="overarch_renderingSpec" rx="2.5" ry="2.5" style="stroke:#181818;stroke-width:0.5;" width="62" x="538.5" y="271.6094"/><ellipse cx="553.5" cy="287.6094" fill="#ADD1B2" rx="11" ry="11" style="stroke:#181818;stroke-width:1.0;"/><path d="M556.2656,283.4844 Q556.4219,283.2656 556.6094,283.1563 Q556.7969,283.0469 557.0156,283.0469 Q557.3906,283.0469 557.625,283.3125 Q557.8594,283.5625 557.8594,284.1719 L557.8594,285.625 Q557.8594,286.2344 557.625,286.5 Q557.3906,286.7656 557.0156,286.7656 Q556.6719,286.7656 556.4688,286.5625 Q556.2656,286.375 556.1563,285.8594 Q556.1094,285.5 555.9219,285.3125 Q555.5938,284.9375 554.9844,284.7188 Q554.375,284.5 553.75,284.5 Q552.9844,284.5 552.3438,284.8281 Q551.7188,285.1563 551.2188,285.9063 Q550.7344,286.6563 550.7344,287.6875 L550.7344,288.7813 Q550.7344,290.0156 551.625,290.8438 Q552.5156,291.6563 554.1094,291.6563 Q555.0469,291.6563 555.7031,291.4063 Q556.0938,291.25 556.5156,290.8125 Q556.7813,290.5469 556.9219,290.4688 Q557.0781,290.3906 557.2813,290.3906 Q557.6094,290.3906 557.8594,290.6563 Q558.125,290.9063 558.125,291.25 Q558.125,291.5938 557.7813,292 Q557.2813,292.5781 556.4844,292.9063 Q555.4063,293.3594 554.1094,293.3594 Q552.5938,293.3594 551.3906,292.7344 Q550.4063,292.2344 549.7188,291.1719 Q549.0313,290.0938 549.0313,288.8125 L549.0313,287.6563 Q549.0313,286.3281 549.6406,285.1875 Q550.2656,284.0313 551.3594,283.4219 Q552.4531,282.7969 553.6875,282.7969 Q554.4219,282.7969 555.0625,282.9688 Q555.7188,283.125 556.2656,283.4844 Z " fill="#000000"/><text fill="#000000" font-family="sans-serif" font-size="14" lengthAdjust="spacing" textLength="30" x="567.5" y="293.3379">spec</text><line style="stroke:#181818;stroke-width:0.5;" x1="539.5" x2="599.5" y1="303.6094" y2="303.6094"/><line style="stroke:#181818;stroke-width:0.5;" x1="539.5" x2="599.5" y1="311.6094" y2="311.6094"/></g><!--class overarch_architectureView--><g id="elem_overarch_architectureView"><rect codeLine="26" fill="#F1F1F1" height="48" id="overarch_architectureView" rx="2.5" ry="2.5" style="stroke:#181818;stroke-width:0.5;" width="138" x="500.5" y="354.6094"/><ellipse cx="515.5" cy="370.6094" fill="#A9DCDF" rx="11" ry="11" style="stroke:#181818;stroke-width:1.0;"/><path d="M517.6875,372.375 L513.5469,372.375 L513.125,373.4063 L513.5469,373.4063 Q514.1563,373.4063 514.4219,373.6406 Q514.6875,373.875 514.6875,374.2656 Q514.6875,374.6406 514.4219,374.875 Q514.1563,375.1094 513.5469,375.1094 L511.25,375.1094 Q510.6406,375.1094 510.3906,374.875 Q510.125,374.6406 510.125,374.25 Q510.125,373.875 510.4063,373.6406 Q510.6719,373.3906 511.2969,373.4063 L513.9688,366.75 L512.8594,366.75 Q512.25,366.75 511.9844,366.5156 Q511.7188,366.2813 511.7188,365.8906 Q511.7188,365.5156 511.9844,365.2813 Q512.25,365.0469 512.8594,365.0469 L516.5313,365.0469 L519.9219,373.4063 Q520.5156,373.4063 520.7031,373.5469 Q521.0938,373.8125 521.0938,374.2656 Q521.0938,374.6406 520.8281,374.875 Q520.5781,375.1094 519.9688,375.1094 L517.6719,375.1094 Q517.0625,375.1094 516.7969,374.875 Q516.5313,374.6406 516.5313,374.25 Q516.5313,373.875 516.7969,373.6406 Q517.0625,373.4063 517.6719,373.4063 L518.0938,373.4063 L517.6875,372.375 Z M516.9688,370.6719 L515.6094,367.2969 L514.2344,370.6719 L516.9688,370.6719 Z " fill="#000000"/><text fill="#000000" font-family="sans-serif" font-size="14" font-style="italic" lengthAdjust="spacing" textLength="106" x="529.5" y="376.3379">architecture-view</text><line style="stroke:#181818;stroke-width:0.5;" x1="501.5" x2="637.5" y1="386.6094" y2="386.6094"/><line style="stroke:#181818;stroke-width:0.5;" x1="501.5" x2="637.5" y1="394.6094" y2="394.6094"/></g><!--class overarch_systemLandscapeView--><g id="elem_overarch_systemLandscapeView"><rect codeLine="27" fill="#F1F1F1" height="48" id="overarch_systemLandscapeView" rx="2.5" ry="2.5" style="stroke:#181818;stroke-width:0.5;" width="178" x="719.5" y="146.6094"/><ellipse cx="734.5" cy="162.6094" fill="#ADD1B2" rx="11" ry="11" style="stroke:#181818;stroke-width:1.0;"/><path d="M737.2656,158.4844 Q737.4219,158.2656 737.6094,158.1563 Q737.7969,158.0469 738.0156,158.0469 Q738.3906,158.0469 738.625,158.3125 Q738.8594,158.5625 738.8594,159.1719 L738.8594,160.625 Q738.8594,161.2344 738.625,161.5 Q738.3906,161.7656 738.0156,161.7656 Q737.6719,161.7656 737.4688,161.5625 Q737.2656,161.375 737.1563,160.8594 Q737.1094,160.5 736.9219,160.3125 Q736.5938,159.9375 735.9844,159.7188 Q735.375,159.5 734.75,159.5 Q733.9844,159.5 733.3438,159.8281 Q732.7188,160.1563 732.2188,160.9063 Q731.7344,161.6563 731.7344,162.6875 L731.7344,163.7813 Q731.7344,165.0156 732.625,165.8438 Q733.5156,166.6563 735.1094,166.6563 Q736.0469,166.6563 736.7031,166.4063 Q737.0938,166.25 737.5156,165.8125 Q737.7813,165.5469 737.9219,165.4688 Q738.0781,165.3906 738.2813,165.3906 Q738.6094,165.3906 738.8594,165.6563 Q739.125,165.9063 739.125,166.25 Q739.125,166.5938 738.7813,167 Q738.2813,167.5781 737.4844,167.9063 Q736.4063,168.3594 735.1094,168.3594 Q733.5938,168.3594 732.3906,167.7344 Q731.4063,167.2344 730.7188,166.1719 Q730.0313,165.0938 730.0313,163.8125 L730.0313,162.6563 Q730.0313,161.3281 730.6406,160.1875 Q731.2656,159.0313 732.3594,158.4219 Q733.4531,157.7969 734.6875,157.7969 Q735.4219,157.7969 736.0625,157.9688 Q736.7188,158.125 737.2656,158.4844 Z " fill="#000000"/><text fill="#000000" font-family="sans-serif" font-size="14" lengthAdjust="spacing" textLength="146" x="748.5" y="168.3379">system-landscape-view</text><line style="stroke:#181818;stroke-width:0.5;" x1="720.5" x2="896.5" y1="178.6094" y2="178.6094"/><line style="stroke:#181818;stroke-width:0.5;" x1="720.5" x2="896.5" y1="186.6094" y2="186.6094"/></g><!--class overarch_contextView--><g id="elem_overarch_contextView"><rect codeLine="28" fill="#F1F1F1" height="48" id="overarch_contextView" rx="2.5" ry="2.5" style="stroke:#181818;stroke-width:0.5;" width="109" x="754" y="229.6094"/><ellipse cx="769" cy="245.6094" fill="#ADD1B2" rx="11" ry="11" style="stroke:#181818;stroke-width:1.0;"/><path d="M771.7656,241.4844 Q771.9219,241.2656 772.1094,241.1563 Q772.2969,241.0469 772.5156,241.0469 Q772.8906,241.0469 773.125,241.3125 Q773.3594,241.5625 773.3594,242.1719 L773.3594,243.625 Q773.3594,244.2344 773.125,244.5 Q772.8906,244.7656 772.5156,244.7656 Q772.1719,244.7656 771.9688,244.5625 Q771.7656,244.375 771.6563,243.8594 Q771.6094,243.5 771.4219,243.3125 Q771.0938,242.9375 770.4844,242.7188 Q769.875,242.5 769.25,242.5 Q768.4844,242.5 767.8438,242.8281 Q767.2188,243.1563 766.7188,243.9063 Q766.2344,244.6563 766.2344,245.6875 L766.2344,246.7813 Q766.2344,248.0156 767.125,248.8438 Q768.0156,249.6563 769.6094,249.6563 Q770.5469,249.6563 771.2031,249.4063 Q771.5938,249.25 772.0156,248.8125 Q772.2813,248.5469 772.4219,248.4688 Q772.5781,248.3906 772.7813,248.3906 Q773.1094,248.3906 773.3594,248.6563 Q773.625,248.9063 773.625,249.25 Q773.625,249.5938 773.2813,250 Q772.7813,250.5781 771.9844,250.9063 Q770.9063,251.3594 769.6094,251.3594 Q768.0938,251.3594 766.8906,250.7344 Q765.9063,250.2344 765.2188,249.1719 Q764.5313,248.0938 764.5313,246.8125 L764.5313,245.6563 Q764.5313,244.3281 765.1406,243.1875 Q765.7656,242.0313 766.8594,241.4219 Q767.9531,240.7969 769.1875,240.7969 Q769.9219,240.7969 770.5625,240.9688 Q771.2188,241.125 771.7656,241.4844 Z " fill="#000000"/><text fill="#000000" font-family="sans-serif" font-size="14" lengthAdjust="spacing" textLength="77" x="783" y="251.3379">context-view</text><line style="stroke:#181818;stroke-width:0.5;" x1="755" x2="862" y1="261.6094" y2="261.6094"/><line style="stroke:#181818;stroke-width:0.5;" x1="755" x2="862" y1="269.6094" y2="269.6094"/></g><!--class overarch_containerView--><g id="elem_overarch_containerView"><rect codeLine="29" fill="#F1F1F1" height="48" id="overarch_containerView" rx="2.5" ry="2.5" style="stroke:#181818;stroke-width:0.5;" width="123" x="747" y="312.6094"/><ellipse cx="762" cy="328.6094" fill="#ADD1B2" rx="11" ry="11" style="stroke:#181818;stroke-width:1.0;"/><path d="M764.7656,324.4844 Q764.9219,324.2656 765.1094,324.1563 Q765.2969,324.0469 765.5156,324.0469 Q765.8906,324.0469 766.125,324.3125 Q766.3594,324.5625 766.3594,325.1719 L766.3594,326.625 Q766.3594,327.2344 766.125,327.5 Q765.8906,327.7656 765.5156,327.7656 Q765.1719,327.7656 764.9688,327.5625 Q764.7656,327.375 764.6563,326.8594 Q764.6094,326.5 764.4219,326.3125 Q764.0938,325.9375 763.4844,325.7188 Q762.875,325.5 762.25,325.5 Q761.4844,325.5 760.8438,325.8281 Q760.2188,326.1563 759.7188,326.9063 Q759.2344,327.6563 759.2344,328.6875 L759.2344,329.7813 Q759.2344,331.0156 760.125,331.8438 Q761.0156,332.6563 762.6094,332.6563 Q763.5469,332.6563 764.2031,332.4063 Q764.5938,332.25 765.0156,331.8125 Q765.2813,331.5469 765.4219,331.4688 Q765.5781,331.3906 765.7813,331.3906 Q766.1094,331.3906 766.3594,331.6563 Q766.625,331.9063 766.625,332.25 Q766.625,332.5938 766.2813,333 Q765.7813,333.5781 764.9844,333.9063 Q763.9063,334.3594 762.6094,334.3594 Q761.0938,334.3594 759.8906,333.7344 Q758.9063,333.2344 758.2188,332.1719 Q757.5313,331.0938 757.5313,329.8125 L757.5313,328.6563 Q757.5313,327.3281 758.1406,326.1875 Q758.7656,325.0313 759.8594,324.4219 Q760.9531,323.7969 762.1875,323.7969 Q762.9219,323.7969 763.5625,323.9688 Q764.2188,324.125 764.7656,324.4844 Z " fill="#000000"/><text fill="#000000" font-family="sans-serif" font-size="14" lengthAdjust="spacing" textLength="91" x="776" y="334.3379">container-view</text><line style="stroke:#181818;stroke-width:0.5;" x1="748" x2="869" y1="344.6094" y2="344.6094"/><line style="stroke:#181818;stroke-width:0.5;" x1="748" x2="869" y1="352.6094" y2="352.6094"/></g><!--class overarch_componentView--><g id="elem_overarch_componentView"><rect codeLine="30" fill="#F1F1F1" height="48" id="overarch_componentView" rx="2.5" ry="2.5" style="stroke:#181818;stroke-width:0.5;" width="134" x="741.5" y="395.6094"/><ellipse cx="756.5" cy="411.6094" fill="#ADD1B2" rx="11" ry="11" style="stroke:#181818;stroke-width:1.0;"/><path d="M759.2656,407.4844 Q759.4219,407.2656 759.6094,407.1563 Q759.7969,407.0469 760.0156,407.0469 Q760.3906,407.0469 760.625,407.3125 Q760.8594,407.5625 760.8594,408.1719 L760.8594,409.625 Q760.8594,410.2344 760.625,410.5 Q760.3906,410.7656 760.0156,410.7656 Q759.6719,410.7656 759.4688,410.5625 Q759.2656,410.375 759.1563,409.8594 Q759.1094,409.5 758.9219,409.3125 Q758.5938,408.9375 757.9844,408.7188 Q757.375,408.5 756.75,408.5 Q755.9844,408.5 755.3438,408.8281 Q754.7188,409.1563 754.2188,409.9063 Q753.7344,410.6563 753.7344,411.6875 L753.7344,412.7813 Q753.7344,414.0156 754.625,414.8438 Q755.5156,415.6563 757.1094,415.6563 Q758.0469,415.6563 758.7031,415.4063 Q759.0938,415.25 759.5156,414.8125 Q759.7813,414.5469 759.9219,414.4688 Q760.0781,414.3906 760.2813,414.3906 Q760.6094,414.3906 760.8594,414.6563 Q761.125,414.9063 761.125,415.25 Q761.125,415.5938 760.7813,416 Q760.2813,416.5781 759.4844,416.9063 Q758.4063,417.3594 757.1094,417.3594 Q755.5938,417.3594 754.3906,416.7344 Q753.4063,416.2344 752.7188,415.1719 Q752.0313,414.0938 752.0313,412.8125 L752.0313,411.6563 Q752.0313,410.3281 752.6406,409.1875 Q753.2656,408.0313 754.3594,407.4219 Q755.4531,406.7969 756.6875,406.7969 Q757.4219,406.7969 758.0625,406.9688 Q758.7188,407.125 759.2656,407.4844 Z " fill="#000000"/><text fill="#000000" font-family="sans-serif" font-size="14" lengthAdjust="spacing" textLength="102" x="770.5" y="417.3379">component-view</text><line style="stroke:#181818;stroke-width:0.5;" x1="742.5" x2="874.5" y1="427.6094" y2="427.6094"/><line style="stroke:#181818;stroke-width:0.5;" x1="742.5" x2="874.5" y1="435.6094" y2="435.6094"/></g><!--class overarch_deploymentView--><g id="elem_overarch_deploymentView"><rect codeLine="31" fill="#F1F1F1" height="48" id="overarch_deploymentView" rx="2.5" ry="2.5" style="stroke:#181818;stroke-width:0.5;" width="137" x="501" y="561.6094"/><ellipse cx="516" cy="577.6094" fill="#ADD1B2" rx="11" ry="11" style="stroke:#181818;stroke-width:1.0;"/><path d="M518.7656,573.4844 Q518.9219,573.2656 519.1094,573.1563 Q519.2969,573.0469 519.5156,573.0469 Q519.8906,573.0469 520.125,573.3125 Q520.3594,573.5625 520.3594,574.1719 L520.3594,575.625 Q520.3594,576.2344 520.125,576.5 Q519.8906,576.7656 519.5156,576.7656 Q519.1719,576.7656 518.9688,576.5625 Q518.7656,576.375 518.6563,575.8594 Q518.6094,575.5 518.4219,575.3125 Q518.0938,574.9375 517.4844,574.7188 Q516.875,574.5 516.25,574.5 Q515.4844,574.5 514.8438,574.8281 Q514.2188,575.1563 513.7188,575.9063 Q513.2344,576.6563 513.2344,577.6875 L513.2344,578.7813 Q513.2344,580.0156 514.125,580.8438 Q515.0156,581.6563 516.6094,581.6563 Q517.5469,581.6563 518.2031,581.4063 Q518.5938,581.25 519.0156,580.8125 Q519.2813,580.5469 519.4219,580.4688 Q519.5781,580.3906 519.7813,580.3906 Q520.1094,580.3906 520.3594,580.6563 Q520.625,580.9063 520.625,581.25 Q520.625,581.5938 520.2813,582 Q519.7813,582.5781 518.9844,582.9063 Q517.9063,583.3594 516.6094,583.3594 Q515.0938,583.3594 513.8906,582.7344 Q512.9063,582.2344 512.2188,581.1719 Q511.5313,580.0938 511.5313,578.8125 L511.5313,577.6563 Q511.5313,576.3281 512.1406,575.1875 Q512.7656,574.0313 513.8594,573.4219 Q514.9531,572.7969 516.1875,572.7969 Q516.9219,572.7969 517.5625,572.9688 Q518.2188,573.125 518.7656,573.4844 Z " fill="#000000"/><text fill="#000000" font-family="sans-serif" font-size="14" lengthAdjust="spacing" textLength="105" x="530" y="583.3379">deployment-view</text><line style="stroke:#181818;stroke-width:0.5;" x1="502" x2="637" y1="593.6094" y2="593.6094"/><line style="stroke:#181818;stroke-width:0.5;" x1="502" x2="637" y1="601.6094" y2="601.6094"/></g><!--class overarch_dynamicView--><g id="elem_overarch_dynamicView"><rect codeLine="32" fill="#F1F1F1" height="48" id="overarch_dynamicView" rx="2.5" ry="2.5" style="stroke:#181818;stroke-width:0.5;" width="116" x="750.5" y="478.6094"/><ellipse cx="765.5" cy="494.6094" fill="#ADD1B2" rx="11" ry="11" style="stroke:#181818;stroke-width:1.0;"/><path d="M768.2656,490.4844 Q768.4219,490.2656 768.6094,490.1563 Q768.7969,490.0469 769.0156,490.0469 Q769.3906,490.0469 769.625,490.3125 Q769.8594,490.5625 769.8594,491.1719 L769.8594,492.625 Q769.8594,493.2344 769.625,493.5 Q769.3906,493.7656 769.0156,493.7656 Q768.6719,493.7656 768.4688,493.5625 Q768.2656,493.375 768.1563,492.8594 Q768.1094,492.5 767.9219,492.3125 Q767.5938,491.9375 766.9844,491.7188 Q766.375,491.5 765.75,491.5 Q764.9844,491.5 764.3438,491.8281 Q763.7188,492.1563 763.2188,492.9063 Q762.7344,493.6563 762.7344,494.6875 L762.7344,495.7813 Q762.7344,497.0156 763.625,497.8438 Q764.5156,498.6563 766.1094,498.6563 Q767.0469,498.6563 767.7031,498.4063 Q768.0938,498.25 768.5156,497.8125 Q768.7813,497.5469 768.9219,497.4688 Q769.0781,497.3906 769.2813,497.3906 Q769.6094,497.3906 769.8594,497.6563 Q770.125,497.9063 770.125,498.25 Q770.125,498.5938 769.7813,499 Q769.2813,499.5781 768.4844,499.9063 Q767.4063,500.3594 766.1094,500.3594 Q764.5938,500.3594 763.3906,499.7344 Q762.4063,499.2344 761.7188,498.1719 Q761.0313,497.0938 761.0313,495.8125 L761.0313,494.6563 Q761.0313,493.3281 761.6406,492.1875 Q762.2656,491.0313 763.3594,490.4219 Q764.4531,489.7969 765.6875,489.7969 Q766.4219,489.7969 767.0625,489.9688 Q767.7188,490.125 768.2656,490.4844 Z " fill="#000000"/><text fill="#000000" font-family="sans-serif" font-size="14" lengthAdjust="spacing" textLength="84" x="779.5" y="500.3379">dynamic-view</text><line style="stroke:#181818;stroke-width:0.5;" x1="751.5" x2="865.5" y1="510.6094" y2="510.6094"/><line style="stroke:#181818;stroke-width:0.5;" x1="751.5" x2="865.5" y1="518.6094" y2="518.6094"/></g><!--class overarch_classView--><g id="elem_overarch_classView"><rect codeLine="33" fill="#F1F1F1" height="48" id="overarch_classView" rx="2.5" ry="2.5" style="stroke:#181818;stroke-width:0.5;" width="96" x="521.5" y="644.6094"/><ellipse cx="536.5" cy="660.6094" fill="#ADD1B2" rx="11" ry="11" style="stroke:#181818;stroke-width:1.0;"/><path d="M539.2656,656.4844 Q539.4219,656.2656 539.6094,656.1563 Q539.7969,656.0469 540.0156,656.0469 Q540.3906,656.0469 540.625,656.3125 Q540.8594,656.5625 540.8594,657.1719 L540.8594,658.625 Q540.8594,659.2344 540.625,659.5 Q540.3906,659.7656 540.0156,659.7656 Q539.6719,659.7656 539.4688,659.5625 Q539.2656,659.375 539.1563,658.8594 Q539.1094,658.5 538.9219,658.3125 Q538.5938,657.9375 537.9844,657.7188 Q537.375,657.5 536.75,657.5 Q535.9844,657.5 535.3438,657.8281 Q534.7188,658.1563 534.2188,658.9063 Q533.7344,659.6563 533.7344,660.6875 L533.7344,661.7813 Q533.7344,663.0156 534.625,663.8438 Q535.5156,664.6563 537.1094,664.6563 Q538.0469,664.6563 538.7031,664.4063 Q539.0938,664.25 539.5156,663.8125 Q539.7813,663.5469 539.9219,663.4688 Q540.0781,663.3906 540.2813,663.3906 Q540.6094,663.3906 540.8594,663.6563 Q541.125,663.9063 541.125,664.25 Q541.125,664.5938 540.7813,665 Q540.2813,665.5781 539.4844,665.9063 Q538.4063,666.3594 537.1094,666.3594 Q535.5938,666.3594 534.3906,665.7344 Q533.4063,665.2344 532.7188,664.1719 Q532.0313,663.0938 532.0313,661.8125 L532.0313,660.6563 Q532.0313,659.3281 532.6406,658.1875 Q533.2656,657.0313 534.3594,656.4219 Q535.4531,655.7969 536.6875,655.7969 Q537.4219,655.7969 538.0625,655.9688 Q538.7188,656.125 539.2656,656.4844 Z " fill="#000000"/><text fill="#000000" font-family="sans-serif" font-size="14" lengthAdjust="spacing" textLength="64" x="550.5" y="666.3379">class-view</text><line style="stroke:#181818;stroke-width:0.5;" x1="522.5" x2="616.5" y1="676.6094" y2="676.6094"/><line style="stroke:#181818;stroke-width:0.5;" x1="522.5" x2="616.5" y1="684.6094" y2="684.6094"/></g><!--class overarch_stateMachineView--><g id="elem_overarch_stateMachineView"><rect codeLine="34" fill="#F1F1F1" height="48" id="overarch_stateMachineView" rx="2.5" ry="2.5" style="stroke:#181818;stroke-width:0.5;" width="153" x="493" y="727.6094"/><ellipse cx="508" cy="743.6094" fill="#ADD1B2" rx="11" ry="11" style="stroke:#181818;stroke-width:1.0;"/><path d="M510.7656,739.4844 Q510.9219,739.2656 511.1094,739.1563 Q511.2969,739.0469 511.5156,739.0469 Q511.8906,739.0469 512.125,739.3125 Q512.3594,739.5625 512.3594,740.1719 L512.3594,741.625 Q512.3594,742.2344 512.125,742.5 Q511.8906,742.7656 511.5156,742.7656 Q511.1719,742.7656 510.9688,742.5625 Q510.7656,742.375 510.6563,741.8594 Q510.6094,741.5 510.4219,741.3125 Q510.0938,740.9375 509.4844,740.7188 Q508.875,740.5 508.25,740.5 Q507.4844,740.5 506.8438,740.8281 Q506.2188,741.1563 505.7188,741.9063 Q505.2344,742.6563 505.2344,743.6875 L505.2344,744.7813 Q505.2344,746.0156 506.125,746.8438 Q507.0156,747.6563 508.6094,747.6563 Q509.5469,747.6563 510.2031,747.4063 Q510.5938,747.25 511.0156,746.8125 Q511.2813,746.5469 511.4219,746.4688 Q511.5781,746.3906 511.7813,746.3906 Q512.1094,746.3906 512.3594,746.6563 Q512.625,746.9063 512.625,747.25 Q512.625,747.5938 512.2813,748 Q511.7813,748.5781 510.9844,748.9063 Q509.9063,749.3594 508.6094,749.3594 Q507.0938,749.3594 505.8906,748.7344 Q504.9063,748.2344 504.2188,747.1719 Q503.5313,746.0938 503.5313,744.8125 L503.5313,743.6563 Q503.5313,742.3281 504.1406,741.1875 Q504.7656,740.0313 505.8594,739.4219 Q506.9531,738.7969 508.1875,738.7969 Q508.9219,738.7969 509.5625,738.9688 Q510.2188,739.125 510.7656,739.4844 Z " fill="#000000"/><text fill="#000000" font-family="sans-serif" font-size="14" lengthAdjust="spacing" textLength="121" x="522" y="749.3379">state-machine-view</text><line style="stroke:#181818;stroke-width:0.5;" x1="494" x2="645" y1="759.6094" y2="759.6094"/><line style="stroke:#181818;stroke-width:0.5;" x1="494" x2="645" y1="767.6094" y2="767.6094"/></g><!--class overarch_useCaseView--><g id="elem_overarch_useCaseView"><rect codeLine="35" fill="#F1F1F1" height="48" id="overarch_useCaseView" rx="2.5" ry="2.5" style="stroke:#181818;stroke-width:0.5;" width="122" x="508.5" y="810.6094"/><ellipse cx="523.5" cy="826.6094" fill="#ADD1B2" rx="11" ry="11" style="stroke:#181818;stroke-width:1.0;"/><path d="M526.2656,822.4844 Q526.4219,822.2656 526.6094,822.1563 Q526.7969,822.0469 527.0156,822.0469 Q527.3906,822.0469 527.625,822.3125 Q527.8594,822.5625 527.8594,823.1719 L527.8594,824.625 Q527.8594,825.2344 527.625,825.5 Q527.3906,825.7656 527.0156,825.7656 Q526.6719,825.7656 526.4688,825.5625 Q526.2656,825.375 526.1563,824.8594 Q526.1094,824.5 525.9219,824.3125 Q525.5938,823.9375 524.9844,823.7188 Q524.375,823.5 523.75,823.5 Q522.9844,823.5 522.3438,823.8281 Q521.7188,824.1563 521.2188,824.9063 Q520.7344,825.6563 520.7344,826.6875 L520.7344,827.7813 Q520.7344,829.0156 521.625,829.8438 Q522.5156,830.6563 524.1094,830.6563 Q525.0469,830.6563 525.7031,830.4063 Q526.0938,830.25 526.5156,829.8125 Q526.7813,829.5469 526.9219,829.4688 Q527.0781,829.3906 527.2813,829.3906 Q527.6094,829.3906 527.8594,829.6563 Q528.125,829.9063 528.125,830.25 Q528.125,830.5938 527.7813,831 Q527.2813,831.5781 526.4844,831.9063 Q525.4063,832.3594 524.1094,832.3594 Q522.5938,832.3594 521.3906,831.7344 Q520.4063,831.2344 519.7188,830.1719 Q519.0313,829.0938 519.0313,827.8125 L519.0313,826.6563 Q519.0313,825.3281 519.6406,824.1875 Q520.2656,823.0313 521.3594,822.4219 Q522.4531,821.7969 523.6875,821.7969 Q524.4219,821.7969 525.0625,821.9688 Q525.7188,822.125 526.2656,822.4844 Z " fill="#000000"/><text fill="#000000" font-family="sans-serif" font-size="14" lengthAdjust="spacing" textLength="90" x="537.5" y="832.3379">use-case-view</text><line style="stroke:#181818;stroke-width:0.5;" x1="509.5" x2="629.5" y1="842.6094" y2="842.6094"/><line style="stroke:#181818;stroke-width:0.5;" x1="509.5" x2="629.5" y1="850.6094" y2="850.6094"/></g><!--class overarch_conceptView--><g id="elem_overarch_conceptView"><rect codeLine="36" fill="#F1F1F1" height="48" id="overarch_conceptView" rx="2.5" ry="2.5" style="stroke:#181818;stroke-width:0.5;" width="114" x="512.5" y="893.6094"/><ellipse cx="527.5" cy="909.6094" fill="#ADD1B2" rx="11" ry="11" style="stroke:#181818;stroke-width:1.0;"/><path d="M530.2656,905.4844 Q530.4219,905.2656 530.6094,905.1563 Q530.7969,905.0469 531.0156,905.0469 Q531.3906,905.0469 531.625,905.3125 Q531.8594,905.5625 531.8594,906.1719 L531.8594,907.625 Q531.8594,908.2344 531.625,908.5 Q531.3906,908.7656 531.0156,908.7656 Q530.6719,908.7656 530.4688,908.5625 Q530.2656,908.375 530.1563,907.8594 Q530.1094,907.5 529.9219,907.3125 Q529.5938,906.9375 528.9844,906.7188 Q528.375,906.5 527.75,906.5 Q526.9844,906.5 526.3438,906.8281 Q525.7188,907.1563 525.2188,907.9063 Q524.7344,908.6563 524.7344,909.6875 L524.7344,910.7813 Q524.7344,912.0156 525.625,912.8438 Q526.5156,913.6563 528.1094,913.6563 Q529.0469,913.6563 529.7031,913.4063 Q530.0938,913.25 530.5156,912.8125 Q530.7813,912.5469 530.9219,912.4688 Q531.0781,912.3906 531.2813,912.3906 Q531.6094,912.3906 531.8594,912.6563 Q532.125,912.9063 532.125,913.25 Q532.125,913.5938 531.7813,914 Q531.2813,914.5781 530.4844,914.9063 Q529.4063,915.3594 528.1094,915.3594 Q526.5938,915.3594 525.3906,914.7344 Q524.4063,914.2344 523.7188,913.1719 Q523.0313,912.0938 523.0313,910.8125 L523.0313,909.6563 Q523.0313,908.3281 523.6406,907.1875 Q524.2656,906.0313 525.3594,905.4219 Q526.4531,904.7969 527.6875,904.7969 Q528.4219,904.7969 529.0625,904.9688 Q529.7188,905.125 530.2656,905.4844 Z " fill="#000000"/><text fill="#000000" font-family="sans-serif" font-size="14" lengthAdjust="spacing" textLength="82" x="541.5" y="915.3379">concept-view</text><line style="stroke:#181818;stroke-width:0.5;" x1="513.5" x2="625.5" y1="925.6094" y2="925.6094"/><line style="stroke:#181818;stroke-width:0.5;" x1="513.5" x2="625.5" y1="933.6094" y2="933.6094"/></g><!--class overarch_glossaryView--><g id="elem_overarch_glossaryView"><rect codeLine="37" fill="#F1F1F1" height="48" id="overarch_glossaryView" rx="2.5" ry="2.5" style="stroke:#181818;stroke-width:0.5;" width="117" x="511" y="976.6094"/><ellipse cx="526" cy="992.6094" fill="#ADD1B2" rx="11" ry="11" style="stroke:#181818;stroke-width:1.0;"/><path d="M528.7656,988.4844 Q528.9219,988.2656 529.1094,988.1563 Q529.2969,988.0469 529.5156,988.0469 Q529.8906,988.0469 530.125,988.3125 Q530.3594,988.5625 530.3594,989.1719 L530.3594,990.625 Q530.3594,991.2344 530.125,991.5 Q529.8906,991.7656 529.5156,991.7656 Q529.1719,991.7656 528.9688,991.5625 Q528.7656,991.375 528.6563,990.8594 Q528.6094,990.5 528.4219,990.3125 Q528.0938,989.9375 527.4844,989.7188 Q526.875,989.5 526.25,989.5 Q525.4844,989.5 524.8438,989.8281 Q524.2188,990.1563 523.7188,990.9063 Q523.2344,991.6563 523.2344,992.6875 L523.2344,993.7813 Q523.2344,995.0156 524.125,995.8438 Q525.0156,996.6563 526.6094,996.6563 Q527.5469,996.6563 528.2031,996.4063 Q528.5938,996.25 529.0156,995.8125 Q529.2813,995.5469 529.4219,995.4688 Q529.5781,995.3906 529.7813,995.3906 Q530.1094,995.3906 530.3594,995.6563 Q530.625,995.9063 530.625,996.25 Q530.625,996.5938 530.2813,997 Q529.7813,997.5781 528.9844,997.9063 Q527.9063,998.3594 526.6094,998.3594 Q525.0938,998.3594 523.8906,997.7344 Q522.9063,997.2344 522.2188,996.1719 Q521.5313,995.0938 521.5313,993.8125 L521.5313,992.6563 Q521.5313,991.3281 522.1406,990.1875 Q522.7656,989.0313 523.8594,988.4219 Q524.9531,987.7969 526.1875,987.7969 Q526.9219,987.7969 527.5625,987.9688 Q528.2188,988.125 528.7656,988.4844 Z " fill="#000000"/><text fill="#000000" font-family="sans-serif" font-size="14" lengthAdjust="spacing" textLength="85" x="540" y="998.3379">glossary-view</text><line style="stroke:#181818;stroke-width:0.5;" x1="512" x2="627" y1="1008.6094" y2="1008.6094"/><line style="stroke:#181818;stroke-width:0.5;" x1="512" x2="627" y1="1016.6094" y2="1016.6094"/></g><!--reverse link overarch_element to overarch_identifiableElement--><g id="link_overarch_element_overarch_identifiableElement"><path codeLine="38" d="M117.62,710.6094 C131.24,710.6094 145.78,710.6094 159.86,710.6094 " fill="none" id="overarch_element-backto-overarch_identifiableElement" style="stroke:#181818;stroke-width:1.0;"/><polygon fill="none" points="117.17,717.6094,97.17,710.6094,117.17,703.6094,117.17,717.6094" style="stroke:#181818;stroke-width:1.0;"/></g><!--reverse link overarch_identifiableElement to overarch_view--><g id="link_overarch_identifiableElement_overarch_view"><path codeLine="39" d="M335.82,710.6094 C350.06,710.6094 363.69,710.6094 374.89,710.6094 " fill="none" id="overarch_identifiableElement-backto-overarch_view" style="stroke:#181818;stroke-width:1.0;"/><polygon fill="none" points="335.45,717.6094,315.45,710.6094,335.45,703.6094,335.45,717.6094" style="stroke:#181818;stroke-width:1.0;"/></g><!--link overarch_view to overarch_renderingSpec--><g id="link_overarch_view_overarch_renderingSpec"><path codeLine="40" d="M404.25,664.0394 C405.37,587.8494 417.73,435.1794 493,336.6094 C501.49,325.4994 513.88,317.0194 526.19,310.7494 " fill="none" id="overarch_view-overarch_renderingSpec" style="stroke:#181818;stroke-width:1.0;"/><polygon fill="none" points="404.16,677.3494,408.1995,671.3759,404.2391,665.3496,400.1996,671.3231,404.16,677.3494" style="stroke:#181818;stroke-width:1.0;"/><polygon fill="#181818" points="538.31,305.1894,528.4618,305.3026,533.7646,307.2725,531.7947,312.5753,538.31,305.1894" style="stroke:#181818;stroke-width:1.0;"/><line style="stroke:#181818;stroke-width:1.0;" x1="533.7646" x2="526.495" y1="307.2725" y2="310.6044"/><text fill="#000000" font-family="sans-serif" font-size="13" lengthAdjust="spacing" textLength="22" x="508.5312" y="321.9582">0..1</text></g><!--reverse link overarch_view to overarch_architectureView--><g id="link_overarch_view_overarch_architectureView"><path codeLine="41" d="M430.14,659.5594 C465.93,586.8894 530.15,456.4694 556.61,402.7494 " fill="none" id="overarch_view-backto-overarch_architectureView" style="stroke:#181818;stroke-width:1.0;"/><polygon fill="none" points="436.39,662.7094,421.27,677.5594,423.83,656.5294,436.39,662.7094" style="stroke:#181818;stroke-width:1.0;"/></g><!--link overarch_architectureView to overarch_architectureModelElement--><g id="link_overarch_architectureView_overarch_architectureModelElement"><path codeLine="42" d="M636.44,346.5694 C639.93,343.4994 643.16,340.1794 646,336.6094 C705.9,261.3094 644.24,202.3894 706,128.6094 C708.48,125.6394 711.18,122.8394 714.05,120.1894 " fill="none" id="overarch_architectureView-overarch_architectureModelElement" style="stroke:#181818;stroke-width:1.0;"/><polygon fill="none" points="626.03,354.5794,633.2244,354.0892,635.539,347.2597,628.3446,347.7498,626.03,354.5794" style="stroke:#181818;stroke-width:1.0;"/><polygon fill="#181818" points="724.4,111.7494,714.8974,114.338,720.5253,114.9096,719.9537,120.5375,724.4,111.7494" style="stroke:#181818;stroke-width:1.0;"/><line style="stroke:#181818;stroke-width:1.0;" x1="720.5253" x2="714.325" y1="114.9096" y2="119.9644"/><text fill="#000000" font-family="sans-serif" font-size="13" lengthAdjust="spacing" textLength="22" x="685.4603" y="132.6387">1..n</text></g><!--reverse link overarch_architectureView to overarch_systemLandscapeView--><g id="link_overarch_architectureView_overarch_systemLandscapeView"><path codeLine="43" d="M639.99,342.4194 C642.1,340.5594 644.11,338.6194 646,336.6094 C688.25,291.7394 661.06,253.7794 706,211.6094 C713.07,204.9794 721.35,199.3594 730.08,194.6194 " fill="none" id="overarch_architectureView-backto-overarch_systemLandscapeView" style="stroke:#181818;stroke-width:1.0;"/><polygon fill="none" points="644.09,348.0994,623.88,354.4694,635.71,336.8894,644.09,348.0994" style="stroke:#181818;stroke-width:1.0;"/></g><!--reverse link overarch_architectureView to overarch_contextView--><g id="link_overarch_architectureView_overarch_contextView"><path codeLine="44" d="M633.39,344.2794 C637.68,341.7294 641.92,339.1594 646,336.6094 C673.59,319.3394 677.39,310.1394 706,294.6094 C721.03,286.4494 738.04,278.9594 753.78,272.6794 " fill="none" id="overarch_architectureView-backto-overarch_contextView" style="stroke:#181818;stroke-width:1.0;"/><polygon fill="none" points="636.48,350.5694,615.66,354.4894,629.5,338.4394,636.48,350.5694" style="stroke:#181818;stroke-width:1.0;"/></g><!--reverse link overarch_architectureView to overarch_containerView--><g id="link_overarch_architectureView_overarch_containerView"><path codeLine="45" d="M658.51,363.0094 C687.82,357.8194 719.81,352.1494 746.61,347.3994 " fill="none" id="overarch_architectureView-backto-overarch_containerView" style="stroke:#181818;stroke-width:1.0;"/><polygon fill="none" points="659.65,369.9194,638.73,366.5194,657.2,356.1394,659.65,369.9194" style="stroke:#181818;stroke-width:1.0;"/></g><!--reverse link overarch_architectureView to overarch_componentView--><g id="link_overarch_architectureView_overarch_componentView"><path codeLine="46" d="M658.65,393.8594 C686.04,398.5994 715.76,403.7394 741.38,408.1694 " fill="none" id="overarch_architectureView-backto-overarch_componentView" style="stroke:#181818;stroke-width:1.0;"/><polygon fill="none" points="657.25,400.7194,638.73,390.4094,659.63,386.9294,657.25,400.7194" style="stroke:#181818;stroke-width:1.0;"/></g><!--reverse link overarch_architectureView to overarch_dynamicView--><g id="link_overarch_architectureView_overarch_dynamicView"><path codeLine="47" d="M624.21,413.6894 C648.67,428.9894 678.3,446.5994 706,460.6094 C720.12,467.7494 735.76,474.6794 750.44,480.7794 " fill="none" id="overarch_architectureView-backto-overarch_dynamicView" style="stroke:#181818;stroke-width:1.0;"/><polygon fill="none" points="620.16,419.4094,607.02,402.7894,627.66,407.5894,620.16,419.4094" style="stroke:#181818;stroke-width:1.0;"/></g><!--reverse link overarch_view to overarch_deploymentView--><g id="link_overarch_view_overarch_deploymentView"><path codeLine="48" d="M447.17,665.9994 C461.08,652.5094 477.08,638.2094 493,626.6094 C501.2,620.6394 510.37,614.9394 519.41,609.7994 " fill="none" id="overarch_view-backto-overarch_deploymentView" style="stroke:#181818;stroke-width:1.0;"/><polygon fill="none" points="452.1,670.9694,433,680.1494,442.21,661.0694,452.1,670.9694" style="stroke:#181818;stroke-width:1.0;"/></g><!--link overarch_deploymentView to overarch_deploymentModelElement--><g id="link_overarch_deploymentView_overarch_deploymentModelElement"><path codeLine="49" d="M651.15,585.6094 C664.81,585.6094 679.22,585.6094 693.54,585.6094 " fill="none" id="overarch_deploymentView-overarch_deploymentModelElement" style="stroke:#181818;stroke-width:1.0;"/><polygon fill="none" points="638.1,585.6094,644.1,589.6094,650.1,585.6094,644.1,581.6094,638.1,585.6094" style="stroke:#181818;stroke-width:1.0;"/><polygon fill="#181818" points="706.65,585.6094,697.65,581.6094,701.65,585.6094,697.65,589.6094,706.65,585.6094" style="stroke:#181818;stroke-width:1.0;"/><line style="stroke:#181818;stroke-width:1.0;" x1="701.65" x2="693.65" y1="585.6094" y2="585.6094"/><text fill="#000000" font-family="sans-serif" font-size="13" lengthAdjust="spacing" textLength="22" x="677.0679" y="599.6538">1..n</text></g><!--reverse link overarch_view to overarch_classView--><g id="link_overarch_view_overarch_classView"><path codeLine="50" d="M452.74,698.3494 C474.32,692.7994 499.75,686.2694 521.26,680.7394 " fill="none" id="overarch_view-backto-overarch_classView" style="stroke:#181818;stroke-width:1.0;"/><polygon fill="none" points="454.22,705.1894,433.11,703.3894,450.74,691.6294,454.22,705.1894" style="stroke:#181818;stroke-width:1.0;"/></g><!--link overarch_classView to overarch_classModelElement--><g id="link_overarch_classView_overarch_classModelElement"><path codeLine="51" d="M630.61,668.6094 C655.95,668.6094 686.05,668.6094 714.16,668.6094 " fill="none" id="overarch_classView-overarch_classModelElement" style="stroke:#181818;stroke-width:1.0;"/><polygon fill="none" points="617.61,668.6094,623.61,672.6094,629.61,668.6094,623.61,664.6094,617.61,668.6094" style="stroke:#181818;stroke-width:1.0;"/><polygon fill="#181818" points="727.34,668.6094,718.34,664.6094,722.34,668.6094,718.34,672.6094,727.34,668.6094" style="stroke:#181818;stroke-width:1.0;"/><line style="stroke:#181818;stroke-width:1.0;" x1="722.34" x2="714.34" y1="668.6094" y2="668.6094"/><text fill="#000000" font-family="sans-serif" font-size="13" lengthAdjust="spacing" textLength="22" x="697.42" y="682.8071">1..n</text></g><!--reverse link overarch_view to overarch_stateMachineView--><g id="link_overarch_view_overarch_stateMachineView"><path codeLine="52" d="M452.8,722.5994 C465.4,725.7594 479.31,729.2394 492.98,732.6694 " fill="none" id="overarch_view-backto-overarch_stateMachineView" style="stroke:#181818;stroke-width:1.0;"/><polygon fill="none" points="450.8,729.3094,433.11,717.6594,454.21,715.7294,450.8,729.3094" style="stroke:#181818;stroke-width:1.0;"/></g><!--link overarch_stateMachineView to overarch_stateMachine--><g id="link_overarch_stateMachineView_overarch_stateMachine"><path codeLine="53" d="M659.5,751.6094 C684.3,751.6094 710.95,751.6094 734.7,751.6094 " fill="none" id="overarch_stateMachineView-overarch_stateMachine" style="stroke:#181818;stroke-width:1.0;"/><polygon fill="none" points="646.14,751.6094,652.14,755.6094,658.14,751.6094,652.14,747.6094,646.14,751.6094" style="stroke:#181818;stroke-width:1.0;"/><polygon fill="#181818" points="747.94,751.6094,738.94,747.6094,742.94,751.6094,738.94,755.6094,747.94,751.6094" style="stroke:#181818;stroke-width:1.0;"/><line style="stroke:#181818;stroke-width:1.0;" x1="742.94" x2="734.94" y1="751.6094" y2="751.6094"/><text fill="#000000" font-family="sans-serif" font-size="13" lengthAdjust="spacing" textLength="7" x="733.1327" y="766.1009">1</text></g><!--reverse link overarch_view to overarch_useCaseView--><g id="link_overarch_view_overarch_useCaseView"><path codeLine="54" d="M447.82,754.4194 C461.64,767.4594 477.42,781.2794 493,792.6094 C501.73,798.9594 511.53,805.0594 521.09,810.5494 " fill="none" id="overarch_view-backto-overarch_useCaseView" style="stroke:#181818;stroke-width:1.0;"/><polygon fill="none" points="442.65,759.1594,433.18,740.2094,452.4,749.1094,442.65,759.1594" style="stroke:#181818;stroke-width:1.0;"/></g><!--link overarch_useCaseView to overarch_useCaseModelElement--><g id="link_overarch_useCaseView_overarch_useCaseModelElement"><path codeLine="55" d="M643.77,834.6094 C661.96,834.6094 681.82,834.6094 701.24,834.6094 " fill="none" id="overarch_useCaseView-overarch_useCaseModelElement" style="stroke:#181818;stroke-width:1.0;"/><polygon fill="none" points="630.61,834.6094,636.61,838.6094,642.61,834.6094,636.61,830.6094,630.61,834.6094" style="stroke:#181818;stroke-width:1.0;"/><polygon fill="#181818" points="714.25,834.6094,705.25,830.6094,709.25,834.6094,705.25,838.6094,714.25,834.6094" style="stroke:#181818;stroke-width:1.0;"/><line style="stroke:#181818;stroke-width:1.0;" x1="709.25" x2="701.25" y1="834.6094" y2="834.6094"/><text fill="#000000" font-family="sans-serif" font-size="13" lengthAdjust="spacing" textLength="22" x="684.5207" y="848.7049">1..n</text></g><!--reverse link overarch_view to overarch_conceptView--><g id="link_overarch_view_overarch_conceptView"><path codeLine="56" d="M423.66,762.6494 C438.29,797.8194 461.47,843.5194 493,875.6094 C499.62,882.3494 507.56,888.3194 515.76,893.4794 " fill="none" id="overarch_view-backto-overarch_conceptView" style="stroke:#181818;stroke-width:1.0;"/><polygon fill="none" points="417.07,765.0194,416.22,743.8494,430.09,759.8694,417.07,765.0194" style="stroke:#181818;stroke-width:1.0;"/></g><!--link overarch_conceptView to overarch_conceptModelElement--><g id="link_overarch_conceptView_overarch_conceptModelElement"><path codeLine="57" d="M639.58,929.5594 C660.17,933.1194 683.18,937.0994 705.41,940.9494 " fill="none" id="overarch_conceptView-overarch_conceptModelElement" style="stroke:#181818;stroke-width:1.0;"/><polygon fill="none" points="626.67,927.3294,631.9013,932.2926,638.4948,929.3727,633.2635,924.4094,626.67,927.3294" style="stroke:#181818;stroke-width:1.0;"/><polygon fill="#181818" points="718.39,943.1894,710.2025,937.7153,713.463,942.338,708.8403,945.5985,718.39,943.1894" style="stroke:#181818;stroke-width:1.0;"/><line style="stroke:#181818;stroke-width:1.0;" x1="713.463" x2="705.575" y1="942.338" y2="940.9744"/><text fill="#000000" font-family="sans-serif" font-size="13" lengthAdjust="spacing" textLength="22" x="688.6488" y="956.1299">1..n</text></g><!--reverse link overarch_view to overarch_glossaryView--><g id="link_overarch_view_overarch_glossaryView"><path codeLine="58" d="M412.55,763.5094 C422.66,817.7994 445.21,902.0994 493,958.6094 C498.81,965.4794 506.05,971.4394 513.72,976.5294 " fill="none" id="overarch_view-backto-overarch_glossaryView" style="stroke:#181818;stroke-width:1.0;"/><polygon fill="none" points="405.62,764.5094,409.15,743.6094,419.42,762.1494,405.62,764.5094" style="stroke:#181818;stroke-width:1.0;"/></g><!--link overarch_glossaryView to overarch_conceptModelElement--><g id="link_overarch_glossaryView_overarch_conceptModelElement"><path codeLine="59" d="M641.29,988.0694 C661.46,984.4894 683.86,980.5194 705.5,976.6894 " fill="none" id="overarch_glossaryView-overarch_conceptModelElement" style="stroke:#181818;stroke-width:1.0;"/><polygon fill="none" points="628.17,990.3894,634.7766,993.2795,639.9854,988.2927,633.3788,985.4026,628.17,990.3894" style="stroke:#181818;stroke-width:1.0;"/><polygon fill="#181818" points="718.5,974.3794,708.9395,972.0134,713.5769,975.253,710.3373,979.8904,718.5,974.3794" style="stroke:#181818;stroke-width:1.0;"/><line style="stroke:#181818;stroke-width:1.0;" x1="713.5769" x2="705.695" y1="975.253" y2="976.6494"/><text fill="#000000" font-family="sans-serif" font-size="13" lengthAdjust="spacing" textLength="22" x="688.4516" y="989.7827">1..n</text></g><!--SRC=[bLKzZzim3DtrAmZl3dfhKNGfRkkXGu6kXM8pYL1PCYJTNOss_xsIuYJwe7MvoORv7fz9yL4I3mwS1YEE9mUZC3WueHLZJZY9yEq5pOl0Lz07S2U47-7zKUA4obd6zzOPFZWO9BSMEZm7Ek0Mj6ToCvn-hX_X3mD02H_X5owlsepiNyKNemUAW-1xYJsPB4Ky9ed5s4mSkCBvqfuDzfCUKTBfKznJWAKQ-DkXKJoKiDTQ8bU4qeYpr4lWj7Hkg5obpXSVhLGHy5QMPulzm6spTe_vuY5bgZM3TTnvElVzKPWJO-Zf725Bq6h0kTcF5RAXRV2Gm_s7U2BXsJhsCBavCyvoeCRnPhVoPXnA3JMY4UhutOUeihAPgfNIS7HDqil5EfnwoTLe1pvJx3FawmLH9F3jSduQ2TuQ8V3SduxPOCHOnPbchS8SKvmrLd2IuQz9js39MXIVn41Hpf7opw8bYByAtyjMfsDBzJcPtO9wzKpDMgrITpdEETdZ42dmHwcjvMOX29VGXL4jqqz_-xwv5LbpPURqeCzoY-Y-_mpGVTZj7heDJnICF6Kv_MpR5wlKmswdkhStSIDH_WU4W-xc9Yvw5-VgetUm4YVTpKfyqJo5t79iouhq2T1tL5Flwa16c99MgQwlfa1fLxPjv8jSHxERCec_6MbwkXRY1cstwxOM6BahDbfMNvPDcNIPC7h5t2tq7m00]--></g></svg>