<?xml version="1.0" encoding="us-ascii" standalone="no"?><svg xmlns="http://www.w3.org/2000/svg" xmlns:xlink="http://www.w3.org/1999/xlink" contentStyleType="text/css" height="613px" preserveAspectRatio="none" style="width:867px;height:613px;background:#FFFFFF;" version="1.1" viewBox="0 0 867 613" width="867px" zoomAndPan="magnify"><defs/><g><text fill="#000000" font-family="sans-serif" font-size="14" font-weight="bold" lengthAdjust="spacing" textLength="327" x="263" y="22.9951">Overview of the Concept Model Elements</text><!--class overarch_element--><g id="elem_overarch_element"><rect codeLine="6" fill="#F1F1F1" height="64.2969" id="overarch_element" rx="2.5" ry="2.5" style="stroke:#181818;stroke-width:0.5;" width="95" x="314" y="44.2969"/><ellipse cx="331.7" cy="60.2969" fill="#A9DCDF" rx="11" ry="11" style="stroke:#181818;stroke-width:1.0;"/><path d="M331.8094,55.6406 L330.6531,60.7188 L332.9813,60.7188 L331.8094,55.6406 Z M330.325,53.4063 L333.3094,53.4063 L336.6688,65.7969 L334.2156,65.7969 L333.45,62.7344 L330.1688,62.7344 L329.4188,65.7969 L326.9813,65.7969 L330.325,53.4063 Z " fill="#000000"/><text fill="#000000" font-family="sans-serif" font-size="14" font-style="italic" lengthAdjust="spacing" textLength="57" x="346.3" y="65.1436">element</text><line style="stroke:#181818;stroke-width:0.5;" x1="315" x2="408" y1="76.2969" y2="76.2969"/><text fill="#000000" font-family="sans-serif" font-size="14" lengthAdjust="spacing" textLength="83" x="320" y="93.292">el : keyword</text><line style="stroke:#181818;stroke-width:0.5;" x1="315" x2="408" y1="100.5938" y2="100.5938"/></g><!--class overarch_identifiableElement--><g id="elem_overarch_identifiableElement"><rect codeLine="9" fill="#F1F1F1" height="64.2969" id="overarch_identifiableElement" rx="2.5" ry="2.5" style="stroke:#181818;stroke-width:0.5;" width="168" x="372.5" y="176.7969"/><ellipse cx="387.5" cy="192.7969" fill="#A9DCDF" rx="11" ry="11" style="stroke:#181818;stroke-width:1.0;"/><path d="M387.6094,188.1406 L386.4531,193.2188 L388.7813,193.2188 L387.6094,188.1406 Z M386.125,185.9063 L389.1094,185.9063 L392.4688,198.2969 L390.0156,198.2969 L389.25,195.2344 L385.9688,195.2344 L385.2188,198.2969 L382.7813,198.2969 L386.125,185.9063 Z " fill="#000000"/><text fill="#000000" font-family="sans-serif" font-size="14" font-style="italic" lengthAdjust="spacing" textLength="136" x="401.5" y="197.6436">identifiable-element</text><line style="stroke:#181818;stroke-width:0.5;" x1="373.5" x2="539.5" y1="208.7969" y2="208.7969"/><text fill="#000000" font-family="sans-serif" font-size="14" lengthAdjust="spacing" textLength="83" x="378.5" y="225.792">id : keyword</text><line style="stroke:#181818;stroke-width:0.5;" x1="373.5" x2="539.5" y1="233.0938" y2="233.0938"/></g><!--class overarch_namedElement--><g id="elem_overarch_namedElement"><rect codeLine="12" fill="#F1F1F1" height="80.5938" id="overarch_namedElement" rx="2.5" ry="2.5" style="stroke:#181818;stroke-width:0.5;" width="142" x="195.5" y="168.2969"/><ellipse cx="210.5" cy="184.2969" fill="#A9DCDF" rx="11" ry="11" style="stroke:#181818;stroke-width:1.0;"/><path d="M210.6094,179.6406 L209.4531,184.7188 L211.7813,184.7188 L210.6094,179.6406 Z M209.125,177.4063 L212.1094,177.4063 L215.4688,189.7969 L213.0156,189.7969 L212.25,186.7344 L208.9688,186.7344 L208.2188,189.7969 L205.7813,189.7969 L209.125,177.4063 Z " fill="#000000"/><text fill="#000000" font-family="sans-serif" font-size="14" font-style="italic" lengthAdjust="spacing" textLength="110" x="224.5" y="189.1436">named-element</text><line style="stroke:#181818;stroke-width:0.5;" x1="196.5" x2="336.5" y1="200.2969" y2="200.2969"/><text fill="#000000" font-family="sans-serif" font-size="14" lengthAdjust="spacing" textLength="91" x="201.5" y="217.292">name : string</text><text fill="#000000" font-family="sans-serif" font-size="14" lengthAdjust="spacing" textLength="86" x="201.5" y="233.5889">desc : string</text><line style="stroke:#181818;stroke-width:0.5;" x1="196.5" x2="336.5" y1="240.8906" y2="240.8906"/></g><!--class overarch_identifiableNamedElement--><g id="elem_overarch_identifiableNamedElement"><rect codeLine="16" fill="#F1F1F1" height="48" id="overarch_identifiableNamedElement" rx="2.5" ry="2.5" style="stroke:#181818;stroke-width:0.5;" width="221" x="238" y="325.7969"/><ellipse cx="253" cy="341.7969" fill="#A9DCDF" rx="11" ry="11" style="stroke:#181818;stroke-width:1.0;"/><path d="M253.1094,337.1406 L251.9531,342.2188 L254.2813,342.2188 L253.1094,337.1406 Z M251.625,334.9063 L254.6094,334.9063 L257.9688,347.2969 L255.5156,347.2969 L254.75,344.2344 L251.4688,344.2344 L250.7188,347.2969 L248.2813,347.2969 L251.625,334.9063 Z " fill="#000000"/><text fill="#000000" font-family="sans-serif" font-size="14" font-style="italic" lengthAdjust="spacing" textLength="189" x="267" y="346.6436">identifiable-named-element</text><line style="stroke:#181818;stroke-width:0.5;" x1="239" x2="458" y1="357.7969" y2="357.7969"/><line style="stroke:#181818;stroke-width:0.5;" x1="239" x2="458" y1="365.7969" y2="365.7969"/></g><!--class overarch_relationalElement--><g id="elem_overarch_relationalElement"><rect codeLine="17" fill="#F1F1F1" height="80.5938" id="overarch_relationalElement" rx="2.5" ry="2.5" style="stroke:#181818;stroke-width:0.5;" width="156" x="494.5" y="309.2969"/><ellipse cx="509.5" cy="325.2969" fill="#A9DCDF" rx="11" ry="11" style="stroke:#181818;stroke-width:1.0;"/><path d="M509.6094,320.6406 L508.4531,325.7188 L510.7813,325.7188 L509.6094,320.6406 Z M508.125,318.4063 L511.1094,318.4063 L514.4688,330.7969 L512.0156,330.7969 L511.25,327.7344 L507.9688,327.7344 L507.2188,330.7969 L504.7813,330.7969 L508.125,318.4063 Z " fill="#000000"/><text fill="#000000" font-family="sans-serif" font-size="14" font-style="italic" lengthAdjust="spacing" textLength="124" x="523.5" y="330.1436">relational-element</text><line style="stroke:#181818;stroke-width:0.5;" x1="495.5" x2="649.5" y1="341.2969" y2="341.2969"/><text fill="#000000" font-family="sans-serif" font-size="14" lengthAdjust="spacing" textLength="102" x="500.5" y="358.292">from : keyword</text><text fill="#000000" font-family="sans-serif" font-size="14" lengthAdjust="spacing" textLength="85" x="500.5" y="374.5889">to : keyword</text><line style="stroke:#181818;stroke-width:0.5;" x1="495.5" x2="649.5" y1="381.8906" y2="381.8906"/></g><!--class overarch_namedRelationalElement--><g id="elem_overarch_namedRelationalElement"><rect codeLine="21" fill="#F1F1F1" height="48" id="overarch_namedRelationalElement" rx="2.5" ry="2.5" style="stroke:#181818;stroke-width:0.5;" width="209" x="80" y="450.2969"/><ellipse cx="95" cy="466.2969" fill="#A9DCDF" rx="11" ry="11" style="stroke:#181818;stroke-width:1.0;"/><path d="M95.1094,461.6406 L93.9531,466.7188 L96.2813,466.7188 L95.1094,461.6406 Z M93.625,459.4063 L96.6094,459.4063 L99.9688,471.7969 L97.5156,471.7969 L96.75,468.7344 L93.4688,468.7344 L92.7188,471.7969 L90.2813,471.7969 L93.625,459.4063 Z " fill="#000000"/><text fill="#000000" font-family="sans-serif" font-size="14" font-style="italic" lengthAdjust="spacing" textLength="177" x="109" y="471.1436">named-relational-element</text><line style="stroke:#181818;stroke-width:0.5;" x1="81" x2="288" y1="482.2969" y2="482.2969"/><line style="stroke:#181818;stroke-width:0.5;" x1="81" x2="288" y1="490.2969" y2="490.2969"/></g><!--class overarch_useCaseModelElement--><g id="elem_overarch_useCaseModelElement"><rect codeLine="22" fill="#F1F1F1" height="48" id="overarch_useCaseModelElement" rx="2.5" ry="2.5" style="stroke:#181818;stroke-width:0.5;" width="204" x="444.5" y="52.2969"/><ellipse cx="459.5" cy="68.2969" fill="#A9DCDF" rx="11" ry="11" style="stroke:#181818;stroke-width:1.0;"/><path d="M459.6094,63.6406 L458.4531,68.7188 L460.7813,68.7188 L459.6094,63.6406 Z M458.125,61.4063 L461.1094,61.4063 L464.4688,73.7969 L462.0156,73.7969 L461.25,70.7344 L457.9688,70.7344 L457.2188,73.7969 L454.7813,73.7969 L458.125,61.4063 Z " fill="#000000"/><text fill="#000000" font-family="sans-serif" font-size="14" font-style="italic" lengthAdjust="spacing" textLength="172" x="473.5" y="73.1436">use-case-model-element</text><line style="stroke:#181818;stroke-width:0.5;" x1="445.5" x2="647.5" y1="84.2969" y2="84.2969"/><line style="stroke:#181818;stroke-width:0.5;" x1="445.5" x2="647.5" y1="92.2969" y2="92.2969"/></g><!--class overarch_conceptModelElement--><g id="elem_overarch_conceptModelElement"><rect codeLine="23" fill="#F1F1F1" height="48" id="overarch_conceptModelElement" rx="2.5" ry="2.5" style="stroke:#181818;stroke-width:0.5;" width="199" x="324" y="450.2969"/><ellipse cx="339" cy="466.2969" fill="#A9DCDF" rx="11" ry="11" style="stroke:#181818;stroke-width:1.0;"/><path d="M339.1094,461.6406 L337.9531,466.7188 L340.2813,466.7188 L339.1094,461.6406 Z M337.625,459.4063 L340.6094,459.4063 L343.9688,471.7969 L341.5156,471.7969 L340.75,468.7344 L337.4688,468.7344 L336.7188,471.7969 L334.2813,471.7969 L337.625,459.4063 Z " fill="#000000"/><text fill="#000000" font-family="sans-serif" font-size="14" font-style="italic" lengthAdjust="spacing" textLength="167" x="353" y="471.1436">concept-model-element</text><line style="stroke:#181818;stroke-width:0.5;" x1="325" x2="522" y1="482.2969" y2="482.2969"/><line style="stroke:#181818;stroke-width:0.5;" x1="325" x2="522" y1="490.2969" y2="490.2969"/></g><!--class overarch_concept--><g id="elem_overarch_concept"><rect codeLine="24" fill="#F1F1F1" height="48" id="overarch_concept" rx="2.5" ry="2.5" style="stroke:#181818;stroke-width:0.5;" width="89" x="7" y="558.2969"/><ellipse cx="22" cy="574.2969" fill="#ADD1B2" rx="11" ry="11" style="stroke:#181818;stroke-width:1.0;"/><path d="M24.9688,579.9375 Q24.3906,580.2344 23.75,580.375 Q23.1094,580.5313 22.4063,580.5313 Q19.9063,580.5313 18.5781,578.8906 Q17.2656,577.2344 17.2656,574.1094 Q17.2656,570.9844 18.5781,569.3281 Q19.9063,567.6719 22.4063,567.6719 Q23.1094,567.6719 23.75,567.8281 Q24.4063,567.9844 24.9688,568.2813 L24.9688,571 Q24.3438,570.4219 23.75,570.1563 Q23.1563,569.875 22.5313,569.875 Q21.1875,569.875 20.5,570.9531 Q19.8125,572.0156 19.8125,574.1094 Q19.8125,576.2031 20.5,577.2813 Q21.1875,578.3438 22.5313,578.3438 Q23.1563,578.3438 23.75,578.0781 Q24.3438,577.7969 24.9688,577.2188 L24.9688,579.9375 Z " fill="#000000"/><text fill="#000000" font-family="sans-serif" font-size="14" lengthAdjust="spacing" textLength="57" x="36" y="579.1436">concept</text><line style="stroke:#181818;stroke-width:0.5;" x1="8" x2="95" y1="590.2969" y2="590.2969"/><line style="stroke:#181818;stroke-width:0.5;" x1="8" x2="95" y1="598.2969" y2="598.2969"/></g><!--class overarch_person--><g id="elem_overarch_person"><rect codeLine="25" fill="#F1F1F1" height="48" id="overarch_person" rx="2.5" ry="2.5" style="stroke:#181818;stroke-width:0.5;" width="81" x="131" y="558.2969"/><ellipse cx="146" cy="574.2969" fill="#ADD1B2" rx="11" ry="11" style="stroke:#181818;stroke-width:1.0;"/><path d="M148.9688,579.9375 Q148.3906,580.2344 147.75,580.375 Q147.1094,580.5313 146.4063,580.5313 Q143.9063,580.5313 142.5781,578.8906 Q141.2656,577.2344 141.2656,574.1094 Q141.2656,570.9844 142.5781,569.3281 Q143.9063,567.6719 146.4063,567.6719 Q147.1094,567.6719 147.75,567.8281 Q148.4063,567.9844 148.9688,568.2813 L148.9688,571 Q148.3438,570.4219 147.75,570.1563 Q147.1563,569.875 146.5313,569.875 Q145.1875,569.875 144.5,570.9531 Q143.8125,572.0156 143.8125,574.1094 Q143.8125,576.2031 144.5,577.2813 Q145.1875,578.3438 146.5313,578.3438 Q147.1563,578.3438 147.75,578.0781 Q148.3438,577.7969 148.9688,577.2188 L148.9688,579.9375 Z " fill="#000000"/><text fill="#000000" font-family="sans-serif" font-size="14" lengthAdjust="spacing" textLength="49" x="160" y="579.1436">person</text><line style="stroke:#181818;stroke-width:0.5;" x1="132" x2="211" y1="590.2969" y2="590.2969"/><line style="stroke:#181818;stroke-width:0.5;" x1="132" x2="211" y1="598.2969" y2="598.2969"/></g><!--class overarch_contextBoundary--><g id="elem_overarch_contextBoundary"><rect codeLine="26" fill="#F1F1F1" height="48" id="overarch_contextBoundary" rx="2.5" ry="2.5" style="stroke:#181818;stroke-width:0.5;" width="154" x="247.5" y="558.2969"/><ellipse cx="262.5" cy="574.2969" fill="#ADD1B2" rx="11" ry="11" style="stroke:#181818;stroke-width:1.0;"/><path d="M265.4688,579.9375 Q264.8906,580.2344 264.25,580.375 Q263.6094,580.5313 262.9063,580.5313 Q260.4063,580.5313 259.0781,578.8906 Q257.7656,577.2344 257.7656,574.1094 Q257.7656,570.9844 259.0781,569.3281 Q260.4063,567.6719 262.9063,567.6719 Q263.6094,567.6719 264.25,567.8281 Q264.9063,567.9844 265.4688,568.2813 L265.4688,571 Q264.8438,570.4219 264.25,570.1563 Q263.6563,569.875 263.0313,569.875 Q261.6875,569.875 261,570.9531 Q260.3125,572.0156 260.3125,574.1094 Q260.3125,576.2031 261,577.2813 Q261.6875,578.3438 263.0313,578.3438 Q263.6563,578.3438 264.25,578.0781 Q264.8438,577.7969 265.4688,577.2188 L265.4688,579.9375 Z " fill="#000000"/><text fill="#000000" font-family="sans-serif" font-size="14" lengthAdjust="spacing" textLength="122" x="276.5" y="579.1436">context-boundary</text><line style="stroke:#181818;stroke-width:0.5;" x1="248.5" x2="400.5" y1="590.2969" y2="590.2969"/><line style="stroke:#181818;stroke-width:0.5;" x1="248.5" x2="400.5" y1="598.2969" y2="598.2969"/></g><!--class overarch_enterpriseBoundary--><g id="elem_overarch_enterpriseBoundary"><rect codeLine="27" fill="#F1F1F1" height="48" id="overarch_enterpriseBoundary" rx="2.5" ry="2.5" style="stroke:#181818;stroke-width:0.5;" width="173" x="437" y="558.2969"/><ellipse cx="452" cy="574.2969" fill="#ADD1B2" rx="11" ry="11" style="stroke:#181818;stroke-width:1.0;"/><path d="M454.9688,579.9375 Q454.3906,580.2344 453.75,580.375 Q453.1094,580.5313 452.4063,580.5313 Q449.9063,580.5313 448.5781,578.8906 Q447.2656,577.2344 447.2656,574.1094 Q447.2656,570.9844 448.5781,569.3281 Q449.9063,567.6719 452.4063,567.6719 Q453.1094,567.6719 453.75,567.8281 Q454.4063,567.9844 454.9688,568.2813 L454.9688,571 Q454.3438,570.4219 453.75,570.1563 Q453.1563,569.875 452.5313,569.875 Q451.1875,569.875 450.5,570.9531 Q449.8125,572.0156 449.8125,574.1094 Q449.8125,576.2031 450.5,577.2813 Q451.1875,578.3438 452.5313,578.3438 Q453.1563,578.3438 453.75,578.0781 Q454.3438,577.7969 454.9688,577.2188 L454.9688,579.9375 Z " fill="#000000"/><text fill="#000000" font-family="sans-serif" font-size="14" lengthAdjust="spacing" textLength="141" x="466" y="579.1436">enterprise-boundary</text><line style="stroke:#181818;stroke-width:0.5;" x1="438" x2="609" y1="590.2969" y2="590.2969"/><line style="stroke:#181818;stroke-width:0.5;" x1="438" x2="609" y1="598.2969" y2="598.2969"/></g><!--class overarch_system--><g id="elem_overarch_system"><rect codeLine="28" fill="#F1F1F1" height="48" id="overarch_system" rx="2.5" ry="2.5" style="stroke:#181818;stroke-width:0.5;" width="82" x="645.5" y="558.2969"/><ellipse cx="660.5" cy="574.2969" fill="#ADD1B2" rx="11" ry="11" style="stroke:#181818;stroke-width:1.0;"/><path d="M663.4688,579.9375 Q662.8906,580.2344 662.25,580.375 Q661.6094,580.5313 660.9063,580.5313 Q658.4063,580.5313 657.0781,578.8906 Q655.7656,577.2344 655.7656,574.1094 Q655.7656,570.9844 657.0781,569.3281 Q658.4063,567.6719 660.9063,567.6719 Q661.6094,567.6719 662.25,567.8281 Q662.9063,567.9844 663.4688,568.2813 L663.4688,571 Q662.8438,570.4219 662.25,570.1563 Q661.6563,569.875 661.0313,569.875 Q659.6875,569.875 659,570.9531 Q658.3125,572.0156 658.3125,574.1094 Q658.3125,576.2031 659,577.2813 Q659.6875,578.3438 661.0313,578.3438 Q661.6563,578.3438 662.25,578.0781 Q662.8438,577.7969 663.4688,577.2188 L663.4688,579.9375 Z " fill="#000000"/><text fill="#000000" font-family="sans-serif" font-size="14" lengthAdjust="spacing" textLength="50" x="674.5" y="579.1436">system</text><line style="stroke:#181818;stroke-width:0.5;" x1="646.5" x2="726.5" y1="590.2969" y2="590.2969"/><line style="stroke:#181818;stroke-width:0.5;" x1="646.5" x2="726.5" y1="598.2969" y2="598.2969"/></g><!--class overarch_container--><g id="elem_overarch_container"><rect codeLine="29" fill="#F1F1F1" height="48" id="overarch_container" rx="2.5" ry="2.5" style="stroke:#181818;stroke-width:0.5;" width="97" x="763" y="558.2969"/><ellipse cx="778" cy="574.2969" fill="#ADD1B2" rx="11" ry="11" style="stroke:#181818;stroke-width:1.0;"/><path d="M780.9688,579.9375 Q780.3906,580.2344 779.75,580.375 Q779.1094,580.5313 778.4063,580.5313 Q775.9063,580.5313 774.5781,578.8906 Q773.2656,577.2344 773.2656,574.1094 Q773.2656,570.9844 774.5781,569.3281 Q775.9063,567.6719 778.4063,567.6719 Q779.1094,567.6719 779.75,567.8281 Q780.4063,567.9844 780.9688,568.2813 L780.9688,571 Q780.3438,570.4219 779.75,570.1563 Q779.1563,569.875 778.5313,569.875 Q777.1875,569.875 776.5,570.9531 Q775.8125,572.0156 775.8125,574.1094 Q775.8125,576.2031 776.5,577.2813 Q777.1875,578.3438 778.5313,578.3438 Q779.1563,578.3438 779.75,578.0781 Q780.3438,577.7969 780.9688,577.2188 L780.9688,579.9375 Z " fill="#000000"/><text fill="#000000" font-family="sans-serif" font-size="14" lengthAdjust="spacing" textLength="65" x="792" y="579.1436">container</text><line style="stroke:#181818;stroke-width:0.5;" x1="764" x2="859" y1="590.2969" y2="590.2969"/><line style="stroke:#181818;stroke-width:0.5;" x1="764" x2="859" y1="598.2969" y2="598.2969"/></g><!--reverse link overarch_element to overarch_identifiableElement--><g id="link_overarch_element_overarch_identifiableElement"><path codeLine="30" d="M396.06,124.7669 C408.68,142.1069 422.62,161.2569 433.93,176.7969 " fill="none" id="overarch_element-backto-overarch_identifiableElement" style="stroke:#181818;stroke-width:1.0;"/><polygon fill="none" points="390.37,128.8469,384.25,108.5569,401.68,120.6069,390.37,128.8469" style="stroke:#181818;stroke-width:1.0;"/></g><!--reverse link overarch_element to overarch_namedElement--><g id="link_overarch_element_overarch_namedElement"><path codeLine="31" d="M326.8,124.9669 C316.54,139.0569 305.42,154.3369 295.55,167.8869 " fill="none" id="overarch_element-backto-overarch_namedElement" style="stroke:#181818;stroke-width:1.0;"/><polygon fill="none" points="321.32,120.6069,338.75,108.5569,332.63,128.8469,321.32,120.6069" style="stroke:#181818;stroke-width:1.0;"/></g><!--reverse link overarch_identifiableElement to overarch_identifiableNamedElement--><g id="link_overarch_identifiableElement_overarch_identifiableNamedElement"><path codeLine="32" d="M419.84,256.9869 C401.9,280.0769 381.1,306.8369 366.61,325.4969 " fill="none" id="overarch_identifiableElement-backto-overarch_identifiableNamedElement" style="stroke:#181818;stroke-width:1.0;"/><polygon fill="none" points="414.46,252.4869,432.26,240.9869,425.52,261.0769,414.46,252.4869" style="stroke:#181818;stroke-width:1.0;"/></g><!--reverse link overarch_namedElement to overarch_identifiableNamedElement--><g id="link_overarch_namedElement_overarch_identifiableNamedElement"><path codeLine="33" d="M300.28,267.0669 C312.37,287.5469 325.31,309.4869 334.74,325.4769 " fill="none" id="overarch_namedElement-backto-overarch_identifiableNamedElement" style="stroke:#181818;stroke-width:1.0;"/><polygon fill="none" points="294.13,270.4069,290,249.6269,306.19,263.2969,294.13,270.4069" style="stroke:#181818;stroke-width:1.0;"/></g><!--reverse link overarch_identifiableElement to overarch_relationalElement--><g id="link_overarch_identifiableElement_overarch_relationalElement"><path codeLine="34" d="M495.55,256.5869 C509.82,273.6869 525.8,292.8369 539.48,309.2369 " fill="none" id="overarch_identifiableElement-backto-overarch_relationalElement" style="stroke:#181818;stroke-width:1.0;"/><polygon fill="none" points="489.97,260.8269,482.53,240.9869,500.72,251.8569,489.97,260.8269" style="stroke:#181818;stroke-width:1.0;"/></g><!--reverse link overarch_namedElement to overarch_namedRelationalElement--><g id="link_overarch_namedElement_overarch_namedRelationalElement"><path codeLine="35" d="M237.13,267.7969 C231.06,281.2069 225.12,295.5669 220.5,309.2969 C204.05,358.1969 193.14,417.8769 187.97,450.0569 " fill="none" id="overarch_namedElement-backto-overarch_namedRelationalElement" style="stroke:#181818;stroke-width:1.0;"/><polygon fill="none" points="230.82,264.7669,245.66,249.6469,243.48,270.7269,230.82,264.7669" style="stroke:#181818;stroke-width:1.0;"/></g><!--reverse link overarch_relationalElement to overarch_namedRelationalElement--><g id="link_overarch_relationalElement_overarch_namedRelationalElement"><path codeLine="36" d="M475.33,390.3769 C398.62,416.5369 329.34,436.0069 275.76,450.2069 " fill="none" id="overarch_relationalElement-backto-overarch_namedRelationalElement" style="stroke:#181818;stroke-width:1.0;"/><polygon fill="none" points="473.27,383.6869,494.45,383.7669,477.84,396.9169,473.27,383.6869" style="stroke:#181818;stroke-width:1.0;"/></g><!--reverse link overarch_identifiableNamedElement to overarch_conceptModelElement--><g id="link_overarch_identifiableNamedElement_overarch_conceptModelElement"><path codeLine="37" d="M373.07,390.9269 C385.04,410.4769 399,433.2869 409.2,449.9469 " fill="none" id="overarch_identifiableNamedElement-backto-overarch_conceptModelElement" style="stroke:#181818;stroke-width:1.0;"/><polygon fill="none" points="367.08,394.5469,362.61,373.8369,379.02,387.2369,367.08,394.5469" style="stroke:#181818;stroke-width:1.0;"/></g><!--reverse link overarch_conceptModelElement to overarch_concept--><g id="link_overarch_conceptModelElement_overarch_concept"><path codeLine="38" d="M308.44,503.3669 C249.72,518.3769 177.39,537.9469 113.5,558.2969 C107.81,560.1069 101.88,562.1369 96.03,564.2069 " fill="none" id="overarch_conceptModelElement-backto-overarch_concept" style="stroke:#181818;stroke-width:1.0;"/><polygon fill="none" points="307.1,496.4869,328.2,498.3569,310.54,510.0569,307.1,496.4869" style="stroke:#181818;stroke-width:1.0;"/></g><!--reverse link overarch_conceptModelElement to overarch_enterpriseBoundary--><g id="link_overarch_conceptModelElement_overarch_enterpriseBoundary"><path codeLine="39" d="M459.12,513.0469 C473.26,528.0369 489.08,544.8069 501.5,557.9769 " fill="none" id="overarch_conceptModelElement-backto-overarch_enterpriseBoundary" style="stroke:#181818;stroke-width:1.0;"/><polygon fill="none" points="453.83,517.6469,445.2,498.2969,464.01,508.0369,453.83,517.6469" style="stroke:#181818;stroke-width:1.0;"/></g><!--reverse link overarch_conceptModelElement to overarch_contextBoundary--><g id="link_overarch_conceptModelElement_overarch_contextBoundary"><path codeLine="40" d="M388.24,513.0469 C374.24,528.0369 358.58,544.8069 346.28,557.9769 " fill="none" id="overarch_conceptModelElement-backto-overarch_contextBoundary" style="stroke:#181818;stroke-width:1.0;"/><polygon fill="none" points="383.25,508.1369,402.02,498.2969,393.48,517.6869,383.25,508.1369" style="stroke:#181818;stroke-width:1.0;"/></g><!--reverse link overarch_conceptModelElement to overarch_person--><g id="link_overarch_conceptModelElement_overarch_person"><path codeLine="41" d="M350.28,506.0969 C305.24,525.0369 249.22,548.6069 212.02,564.2569 " fill="none" id="overarch_conceptModelElement-backto-overarch_person" style="stroke:#181818;stroke-width:1.0;"/><polygon fill="none" points="347.67,499.5969,368.82,498.2969,353.1,512.5069,347.67,499.5969" style="stroke:#181818;stroke-width:1.0;"/></g><!--reverse link overarch_conceptModelElement to overarch_system--><g id="link_overarch_conceptModelElement_overarch_system"><path codeLine="42" d="M499.15,505.7869 C546.78,524.9869 606.41,549.0169 645.43,564.7469 " fill="none" id="overarch_conceptModelElement-backto-overarch_system" style="stroke:#181818;stroke-width:1.0;"/><polygon fill="none" points="496.5,512.2669,480.57,498.2969,501.73,499.2769,496.5,512.2669" style="stroke:#181818;stroke-width:1.0;"/></g><!--reverse link overarch_conceptModelElement to overarch_container--><g id="link_overarch_conceptModelElement_overarch_container"><path codeLine="43" d="M541.42,503.1969 C602.64,518.3169 678.46,538.0169 745.5,558.2969 C751.19,560.0169 757.12,561.9269 762.99,563.8769 " fill="none" id="overarch_conceptModelElement-backto-overarch_container" style="stroke:#181818;stroke-width:1.0;"/><polygon fill="none" points="539.43,509.9169,521.67,498.3569,542.76,496.3169,539.43,509.9169" style="stroke:#181818;stroke-width:1.0;"/></g><!--SRC=[bPDDRiCW48NtFiKeUr-WwgfHbasbNg32C6vGCKH0abfjxrxy4naRZCCcacVU-sQ2vbbk1SBR5VMLumrK3VQ4i5UIujd2gs8eu22mGMbDGIfZDQ4Mg236m0w7nWw80UKGHDFJnrY4dmB0cP_W2zkRqgpu2_oSEI6lEQa4bb6OhpXuOCwIO4aQP75Yt_9HNS71783BJ_VDqD3fUsFfn21VT_I61a2DWbYk915nqDJtrwwrQhmt0B3gWIVPcjMhtfS30zZ5O4c9-scw0ucZd6Rl9Fq9hN7eS6Sfp2YPOURkgFwkEQCsIiubGysZMFosPQKkaX7T1hYk-p8sxoQt1Ugpvku9uhv9iBIQrbXivkgXvcz4k4GThjANYo1hpxzbcGpDbiLFHP5Ct_geOvGnorkkUNk181mFJLuvyqJaylnh_so1YTrsgXctvrWYPvatS1Q63EkOkGp7c8dCzVg0_0C0]--></g></svg>