<?xml version="1.0" encoding="us-ascii" standalone="no"?><svg xmlns="http://www.w3.org/2000/svg" xmlns:xlink="http://www.w3.org/1999/xlink" contentStyleType="text/css" height="629px" preserveAspectRatio="none" style="width:930px;height:629px;background:#FFFFFF;" version="1.1" viewBox="0 0 930 629" width="930px" zoomAndPan="magnify"><defs/><g><text fill="#000000" font-family="sans-serif" font-size="14" font-weight="bold" lengthAdjust="spacing" textLength="320" x="298" y="22.9951">Overview of the State Machine Elements</text><!--class overarch_element--><g id="elem_overarch_element"><rect codeLine="6" fill="#F1F1F1" height="64.2969" id="overarch_element" rx="2.5" ry="2.5" style="stroke:#181818;stroke-width:0.5;" width="95" x="586.5" y="44.2969"/><ellipse cx="604.2" cy="60.2969" fill="#A9DCDF" rx="11" ry="11" style="stroke:#181818;stroke-width:1.0;"/><path d="M604.3094,55.6406 L603.1531,60.7188 L605.4813,60.7188 L604.3094,55.6406 Z M602.825,53.4063 L605.8094,53.4063 L609.1688,65.7969 L606.7156,65.7969 L605.95,62.7344 L602.6688,62.7344 L601.9188,65.7969 L599.4813,65.7969 L602.825,53.4063 Z " fill="#000000"/><text fill="#000000" font-family="sans-serif" font-size="14" font-style="italic" lengthAdjust="spacing" textLength="57" x="618.8" y="65.1436">element</text><line style="stroke:#181818;stroke-width:0.5;" x1="587.5" x2="680.5" y1="76.2969" y2="76.2969"/><text fill="#000000" font-family="sans-serif" font-size="14" lengthAdjust="spacing" textLength="83" x="592.5" y="93.292">el : keyword</text><line style="stroke:#181818;stroke-width:0.5;" x1="587.5" x2="680.5" y1="100.5938" y2="100.5938"/></g><!--class overarch_identifiableElement--><g id="elem_overarch_identifiableElement"><rect codeLine="9" fill="#F1F1F1" height="64.2969" id="overarch_identifiableElement" rx="2.5" ry="2.5" style="stroke:#181818;stroke-width:0.5;" width="168" x="645" y="176.7969"/><ellipse cx="660" cy="192.7969" fill="#A9DCDF" rx="11" ry="11" style="stroke:#181818;stroke-width:1.0;"/><path d="M660.1094,188.1406 L658.9531,193.2188 L661.2813,193.2188 L660.1094,188.1406 Z M658.625,185.9063 L661.6094,185.9063 L664.9688,198.2969 L662.5156,198.2969 L661.75,195.2344 L658.4688,195.2344 L657.7188,198.2969 L655.2813,198.2969 L658.625,185.9063 Z " fill="#000000"/><text fill="#000000" font-family="sans-serif" font-size="14" font-style="italic" lengthAdjust="spacing" textLength="136" x="674" y="197.6436">identifiable-element</text><line style="stroke:#181818;stroke-width:0.5;" x1="646" x2="812" y1="208.7969" y2="208.7969"/><text fill="#000000" font-family="sans-serif" font-size="14" lengthAdjust="spacing" textLength="83" x="651" y="225.792">id : keyword</text><line style="stroke:#181818;stroke-width:0.5;" x1="646" x2="812" y1="233.0938" y2="233.0938"/></g><!--class overarch_namedElement--><g id="elem_overarch_namedElement"><rect codeLine="12" fill="#F1F1F1" height="80.5938" id="overarch_namedElement" rx="2.5" ry="2.5" style="stroke:#181818;stroke-width:0.5;" width="142" x="468" y="168.2969"/><ellipse cx="483" cy="184.2969" fill="#A9DCDF" rx="11" ry="11" style="stroke:#181818;stroke-width:1.0;"/><path d="M483.1094,179.6406 L481.9531,184.7188 L484.2813,184.7188 L483.1094,179.6406 Z M481.625,177.4063 L484.6094,177.4063 L487.9688,189.7969 L485.5156,189.7969 L484.75,186.7344 L481.4688,186.7344 L480.7188,189.7969 L478.2813,189.7969 L481.625,177.4063 Z " fill="#000000"/><text fill="#000000" font-family="sans-serif" font-size="14" font-style="italic" lengthAdjust="spacing" textLength="110" x="497" y="189.1436">named-element</text><line style="stroke:#181818;stroke-width:0.5;" x1="469" x2="609" y1="200.2969" y2="200.2969"/><text fill="#000000" font-family="sans-serif" font-size="14" lengthAdjust="spacing" textLength="91" x="474" y="217.292">name : string</text><text fill="#000000" font-family="sans-serif" font-size="14" lengthAdjust="spacing" textLength="86" x="474" y="233.5889">desc : string</text><line style="stroke:#181818;stroke-width:0.5;" x1="469" x2="609" y1="240.8906" y2="240.8906"/></g><!--class overarch_identifiableNamedElement--><g id="elem_overarch_identifiableNamedElement"><rect codeLine="16" fill="#F1F1F1" height="48" id="overarch_identifiableNamedElement" rx="2.5" ry="2.5" style="stroke:#181818;stroke-width:0.5;" width="221" x="510.5" y="325.7969"/><ellipse cx="525.5" cy="341.7969" fill="#A9DCDF" rx="11" ry="11" style="stroke:#181818;stroke-width:1.0;"/><path d="M525.6094,337.1406 L524.4531,342.2188 L526.7813,342.2188 L525.6094,337.1406 Z M524.125,334.9063 L527.1094,334.9063 L530.4688,347.2969 L528.0156,347.2969 L527.25,344.2344 L523.9688,344.2344 L523.2188,347.2969 L520.7813,347.2969 L524.125,334.9063 Z " fill="#000000"/><text fill="#000000" font-family="sans-serif" font-size="14" font-style="italic" lengthAdjust="spacing" textLength="189" x="539.5" y="346.6436">identifiable-named-element</text><line style="stroke:#181818;stroke-width:0.5;" x1="511.5" x2="730.5" y1="357.7969" y2="357.7969"/><line style="stroke:#181818;stroke-width:0.5;" x1="511.5" x2="730.5" y1="365.7969" y2="365.7969"/></g><!--class overarch_relationalElement--><g id="elem_overarch_relationalElement"><rect codeLine="17" fill="#F1F1F1" height="80.5938" id="overarch_relationalElement" rx="2.5" ry="2.5" style="stroke:#181818;stroke-width:0.5;" width="156" x="767" y="309.2969"/><ellipse cx="782" cy="325.2969" fill="#A9DCDF" rx="11" ry="11" style="stroke:#181818;stroke-width:1.0;"/><path d="M782.1094,320.6406 L780.9531,325.7188 L783.2813,325.7188 L782.1094,320.6406 Z M780.625,318.4063 L783.6094,318.4063 L786.9688,330.7969 L784.5156,330.7969 L783.75,327.7344 L780.4688,327.7344 L779.7188,330.7969 L777.2813,330.7969 L780.625,318.4063 Z " fill="#000000"/><text fill="#000000" font-family="sans-serif" font-size="14" font-style="italic" lengthAdjust="spacing" textLength="124" x="796" y="330.1436">relational-element</text><line style="stroke:#181818;stroke-width:0.5;" x1="768" x2="922" y1="341.2969" y2="341.2969"/><text fill="#000000" font-family="sans-serif" font-size="14" lengthAdjust="spacing" textLength="102" x="773" y="358.292">from : keyword</text><text fill="#000000" font-family="sans-serif" font-size="14" lengthAdjust="spacing" textLength="85" x="773" y="374.5889">to : keyword</text><line style="stroke:#181818;stroke-width:0.5;" x1="768" x2="922" y1="381.8906" y2="381.8906"/></g><!--class overarch_namedRelationalElement--><g id="elem_overarch_namedRelationalElement"><rect codeLine="21" fill="#F1F1F1" height="48" id="overarch_namedRelationalElement" rx="2.5" ry="2.5" style="stroke:#181818;stroke-width:0.5;" width="209" x="672.5" y="450.2969"/><ellipse cx="687.5" cy="466.2969" fill="#A9DCDF" rx="11" ry="11" style="stroke:#181818;stroke-width:1.0;"/><path d="M687.6094,461.6406 L686.4531,466.7188 L688.7813,466.7188 L687.6094,461.6406 Z M686.125,459.4063 L689.1094,459.4063 L692.4688,471.7969 L690.0156,471.7969 L689.25,468.7344 L685.9688,468.7344 L685.2188,471.7969 L682.7813,471.7969 L686.125,459.4063 Z " fill="#000000"/><text fill="#000000" font-family="sans-serif" font-size="14" font-style="italic" lengthAdjust="spacing" textLength="177" x="701.5" y="471.1436">named-relational-element</text><line style="stroke:#181818;stroke-width:0.5;" x1="673.5" x2="880.5" y1="482.2969" y2="482.2969"/><line style="stroke:#181818;stroke-width:0.5;" x1="673.5" x2="880.5" y1="490.2969" y2="490.2969"/></g><!--class overarch_stateMachineElement--><g id="elem_overarch_stateMachineElement"><rect codeLine="22" fill="#F1F1F1" height="48" id="overarch_stateMachineElement" rx="2.5" ry="2.5" style="stroke:#181818;stroke-width:0.5;" width="192" x="370" y="450.2969"/><ellipse cx="385" cy="466.2969" fill="#A9DCDF" rx="11" ry="11" style="stroke:#181818;stroke-width:1.0;"/><path d="M385.1094,461.6406 L383.9531,466.7188 L386.2813,466.7188 L385.1094,461.6406 Z M383.625,459.4063 L386.6094,459.4063 L389.9688,471.7969 L387.5156,471.7969 L386.75,468.7344 L383.4688,468.7344 L382.7188,471.7969 L380.2813,471.7969 L383.625,459.4063 Z " fill="#000000"/><text fill="#000000" font-family="sans-serif" font-size="14" font-style="italic" lengthAdjust="spacing" textLength="160" x="399" y="471.1436">state-machine-element</text><line style="stroke:#181818;stroke-width:0.5;" x1="371" x2="561" y1="482.2969" y2="482.2969"/><line style="stroke:#181818;stroke-width:0.5;" x1="371" x2="561" y1="490.2969" y2="490.2969"/></g><!--class overarch_stateMachine--><g id="elem_overarch_stateMachine"><rect codeLine="23" fill="#F1F1F1" height="48" id="overarch_stateMachine" rx="2.5" ry="2.5" style="stroke:#181818;stroke-width:0.5;" width="131" x="272.5" y="325.7969"/><ellipse cx="287.5" cy="341.7969" fill="#ADD1B2" rx="11" ry="11" style="stroke:#181818;stroke-width:1.0;"/><path d="M290.4688,347.4375 Q289.8906,347.7344 289.25,347.875 Q288.6094,348.0313 287.9063,348.0313 Q285.4063,348.0313 284.0781,346.3906 Q282.7656,344.7344 282.7656,341.6094 Q282.7656,338.4844 284.0781,336.8281 Q285.4063,335.1719 287.9063,335.1719 Q288.6094,335.1719 289.25,335.3281 Q289.9063,335.4844 290.4688,335.7813 L290.4688,338.5 Q289.8438,337.9219 289.25,337.6563 Q288.6563,337.375 288.0313,337.375 Q286.6875,337.375 286,338.4531 Q285.3125,339.5156 285.3125,341.6094 Q285.3125,343.7031 286,344.7813 Q286.6875,345.8438 288.0313,345.8438 Q288.6563,345.8438 289.25,345.5781 Q289.8438,345.2969 290.4688,344.7188 L290.4688,347.4375 Z " fill="#000000"/><text fill="#000000" font-family="sans-serif" font-size="14" lengthAdjust="spacing" textLength="99" x="301.5" y="346.6436">state-machine</text><line style="stroke:#181818;stroke-width:0.5;" x1="273.5" x2="402.5" y1="357.7969" y2="357.7969"/><line style="stroke:#181818;stroke-width:0.5;" x1="273.5" x2="402.5" y1="365.7969" y2="365.7969"/></g><!--class overarch_startState--><g id="elem_overarch_startState"><rect codeLine="24" fill="#F1F1F1" height="48" id="overarch_startState" rx="2.5" ry="2.5" style="stroke:#181818;stroke-width:0.5;" width="103" x="354.5" y="566.2969"/><ellipse cx="369.5" cy="582.2969" fill="#ADD1B2" rx="11" ry="11" style="stroke:#181818;stroke-width:1.0;"/><path d="M372.4688,587.9375 Q371.8906,588.2344 371.25,588.375 Q370.6094,588.5313 369.9063,588.5313 Q367.4063,588.5313 366.0781,586.8906 Q364.7656,585.2344 364.7656,582.1094 Q364.7656,578.9844 366.0781,577.3281 Q367.4063,575.6719 369.9063,575.6719 Q370.6094,575.6719 371.25,575.8281 Q371.9063,575.9844 372.4688,576.2813 L372.4688,579 Q371.8438,578.4219 371.25,578.1563 Q370.6563,577.875 370.0313,577.875 Q368.6875,577.875 368,578.9531 Q367.3125,580.0156 367.3125,582.1094 Q367.3125,584.2031 368,585.2813 Q368.6875,586.3438 370.0313,586.3438 Q370.6563,586.3438 371.25,586.0781 Q371.8438,585.7969 372.4688,585.2188 L372.4688,587.9375 Z " fill="#000000"/><text fill="#000000" font-family="sans-serif" font-size="14" lengthAdjust="spacing" textLength="71" x="383.5" y="587.1436">start-state</text><line style="stroke:#181818;stroke-width:0.5;" x1="355.5" x2="456.5" y1="598.2969" y2="598.2969"/><line style="stroke:#181818;stroke-width:0.5;" x1="355.5" x2="456.5" y1="606.2969" y2="606.2969"/></g><!--class overarch_state--><g id="elem_overarch_state"><rect codeLine="25" fill="#F1F1F1" height="48" id="overarch_state" rx="2.5" ry="2.5" style="stroke:#181818;stroke-width:0.5;" width="67" x="492.5" y="566.2969"/><ellipse cx="507.5" cy="582.2969" fill="#ADD1B2" rx="11" ry="11" style="stroke:#181818;stroke-width:1.0;"/><path d="M510.4688,587.9375 Q509.8906,588.2344 509.25,588.375 Q508.6094,588.5313 507.9063,588.5313 Q505.4063,588.5313 504.0781,586.8906 Q502.7656,585.2344 502.7656,582.1094 Q502.7656,578.9844 504.0781,577.3281 Q505.4063,575.6719 507.9063,575.6719 Q508.6094,575.6719 509.25,575.8281 Q509.9063,575.9844 510.4688,576.2813 L510.4688,579 Q509.8438,578.4219 509.25,578.1563 Q508.6563,577.875 508.0313,577.875 Q506.6875,577.875 506,578.9531 Q505.3125,580.0156 505.3125,582.1094 Q505.3125,584.2031 506,585.2813 Q506.6875,586.3438 508.0313,586.3438 Q508.6563,586.3438 509.25,586.0781 Q509.8438,585.7969 510.4688,585.2188 L510.4688,587.9375 Z " fill="#000000"/><text fill="#000000" font-family="sans-serif" font-size="14" lengthAdjust="spacing" textLength="35" x="521.5" y="587.1436">state</text><line style="stroke:#181818;stroke-width:0.5;" x1="493.5" x2="558.5" y1="598.2969" y2="598.2969"/><line style="stroke:#181818;stroke-width:0.5;" x1="493.5" x2="558.5" y1="606.2969" y2="606.2969"/></g><!--class overarch_endState--><g id="elem_overarch_endState"><rect codeLine="26" fill="#F1F1F1" height="48" id="overarch_endState" rx="2.5" ry="2.5" style="stroke:#181818;stroke-width:0.5;" width="99" x="594.5" y="566.2969"/><ellipse cx="609.5" cy="582.2969" fill="#ADD1B2" rx="11" ry="11" style="stroke:#181818;stroke-width:1.0;"/><path d="M612.4688,587.9375 Q611.8906,588.2344 611.25,588.375 Q610.6094,588.5313 609.9063,588.5313 Q607.4063,588.5313 606.0781,586.8906 Q604.7656,585.2344 604.7656,582.1094 Q604.7656,578.9844 606.0781,577.3281 Q607.4063,575.6719 609.9063,575.6719 Q610.6094,575.6719 611.25,575.8281 Q611.9063,575.9844 612.4688,576.2813 L612.4688,579 Q611.8438,578.4219 611.25,578.1563 Q610.6563,577.875 610.0313,577.875 Q608.6875,577.875 608,578.9531 Q607.3125,580.0156 607.3125,582.1094 Q607.3125,584.2031 608,585.2813 Q608.6875,586.3438 610.0313,586.3438 Q610.6563,586.3438 611.25,586.0781 Q611.8438,585.7969 612.4688,585.2188 L612.4688,587.9375 Z " fill="#000000"/><text fill="#000000" font-family="sans-serif" font-size="14" lengthAdjust="spacing" textLength="67" x="623.5" y="587.1436">end-state</text><line style="stroke:#181818;stroke-width:0.5;" x1="595.5" x2="692.5" y1="598.2969" y2="598.2969"/><line style="stroke:#181818;stroke-width:0.5;" x1="595.5" x2="692.5" y1="606.2969" y2="606.2969"/></g><!--class overarch_fork--><g id="elem_overarch_fork"><rect codeLine="27" fill="#F1F1F1" height="48" id="overarch_fork" rx="2.5" ry="2.5" style="stroke:#181818;stroke-width:0.5;" width="58" x="7" y="566.2969"/><ellipse cx="22" cy="582.2969" fill="#ADD1B2" rx="11" ry="11" style="stroke:#181818;stroke-width:1.0;"/><path d="M24.9688,587.9375 Q24.3906,588.2344 23.75,588.375 Q23.1094,588.5313 22.4063,588.5313 Q19.9063,588.5313 18.5781,586.8906 Q17.2656,585.2344 17.2656,582.1094 Q17.2656,578.9844 18.5781,577.3281 Q19.9063,575.6719 22.4063,575.6719 Q23.1094,575.6719 23.75,575.8281 Q24.4063,575.9844 24.9688,576.2813 L24.9688,579 Q24.3438,578.4219 23.75,578.1563 Q23.1563,577.875 22.5313,577.875 Q21.1875,577.875 20.5,578.9531 Q19.8125,580.0156 19.8125,582.1094 Q19.8125,584.2031 20.5,585.2813 Q21.1875,586.3438 22.5313,586.3438 Q23.1563,586.3438 23.75,586.0781 Q24.3438,585.7969 24.9688,585.2188 L24.9688,587.9375 Z " fill="#000000"/><text fill="#000000" font-family="sans-serif" font-size="14" lengthAdjust="spacing" textLength="26" x="36" y="587.1436">fork</text><line style="stroke:#181818;stroke-width:0.5;" x1="8" x2="64" y1="598.2969" y2="598.2969"/><line style="stroke:#181818;stroke-width:0.5;" x1="8" x2="64" y1="606.2969" y2="606.2969"/></g><!--class overarch_join--><g id="elem_overarch_join"><rect codeLine="28" fill="#F1F1F1" height="48" id="overarch_join" rx="2.5" ry="2.5" style="stroke:#181818;stroke-width:0.5;" width="56" x="100" y="566.2969"/><ellipse cx="115" cy="582.2969" fill="#ADD1B2" rx="11" ry="11" style="stroke:#181818;stroke-width:1.0;"/><path d="M117.9688,587.9375 Q117.3906,588.2344 116.75,588.375 Q116.1094,588.5313 115.4063,588.5313 Q112.9063,588.5313 111.5781,586.8906 Q110.2656,585.2344 110.2656,582.1094 Q110.2656,578.9844 111.5781,577.3281 Q112.9063,575.6719 115.4063,575.6719 Q116.1094,575.6719 116.75,575.8281 Q117.4063,575.9844 117.9688,576.2813 L117.9688,579 Q117.3438,578.4219 116.75,578.1563 Q116.1563,577.875 115.5313,577.875 Q114.1875,577.875 113.5,578.9531 Q112.8125,580.0156 112.8125,582.1094 Q112.8125,584.2031 113.5,585.2813 Q114.1875,586.3438 115.5313,586.3438 Q116.1563,586.3438 116.75,586.0781 Q117.3438,585.7969 117.9688,585.2188 L117.9688,587.9375 Z " fill="#000000"/><text fill="#000000" font-family="sans-serif" font-size="14" lengthAdjust="spacing" textLength="24" x="129" y="587.1436">join</text><line style="stroke:#181818;stroke-width:0.5;" x1="101" x2="155" y1="598.2969" y2="598.2969"/><line style="stroke:#181818;stroke-width:0.5;" x1="101" x2="155" y1="606.2969" y2="606.2969"/></g><!--class overarch_choice--><g id="elem_overarch_choice"><rect codeLine="29" fill="#F1F1F1" height="64.2969" id="overarch_choice" rx="2.5" ry="2.5" style="stroke:#181818;stroke-width:0.5;" width="128" x="191" y="558.2969"/><ellipse cx="228.5" cy="574.2969" fill="#ADD1B2" rx="11" ry="11" style="stroke:#181818;stroke-width:1.0;"/><path d="M231.4688,579.9375 Q230.8906,580.2344 230.25,580.375 Q229.6094,580.5313 228.9063,580.5313 Q226.4063,580.5313 225.0781,578.8906 Q223.7656,577.2344 223.7656,574.1094 Q223.7656,570.9844 225.0781,569.3281 Q226.4063,567.6719 228.9063,567.6719 Q229.6094,567.6719 230.25,567.8281 Q230.9063,567.9844 231.4688,568.2813 L231.4688,571 Q230.8438,570.4219 230.25,570.1563 Q229.6563,569.875 229.0313,569.875 Q227.6875,569.875 227,570.9531 Q226.3125,572.0156 226.3125,574.1094 Q226.3125,576.2031 227,577.2813 Q227.6875,578.3438 229.0313,578.3438 Q229.6563,578.3438 230.25,578.0781 Q230.8438,577.7969 231.4688,577.2188 L231.4688,579.9375 Z " fill="#000000"/><text fill="#000000" font-family="sans-serif" font-size="14" lengthAdjust="spacing" textLength="46" x="247.5" y="579.1436">choice</text><line style="stroke:#181818;stroke-width:0.5;" x1="192" x2="318" y1="590.2969" y2="590.2969"/><text fill="#000000" font-family="sans-serif" font-size="14" lengthAdjust="spacing" textLength="116" x="197" y="607.292">condition : string</text><line style="stroke:#181818;stroke-width:0.5;" x1="192" x2="318" y1="614.5938" y2="614.5938"/></g><!--class overarch_transition--><g id="elem_overarch_transition"><rect codeLine="32" fill="#F1F1F1" height="48" id="overarch_transition" rx="2.5" ry="2.5" style="stroke:#181818;stroke-width:0.5;" width="96" x="729" y="566.2969"/><ellipse cx="744" cy="582.2969" fill="#ADD1B2" rx="11" ry="11" style="stroke:#181818;stroke-width:1.0;"/><path d="M746.9688,587.9375 Q746.3906,588.2344 745.75,588.375 Q745.1094,588.5313 744.4063,588.5313 Q741.9063,588.5313 740.5781,586.8906 Q739.2656,585.2344 739.2656,582.1094 Q739.2656,578.9844 740.5781,577.3281 Q741.9063,575.6719 744.4063,575.6719 Q745.1094,575.6719 745.75,575.8281 Q746.4063,575.9844 746.9688,576.2813 L746.9688,579 Q746.3438,578.4219 745.75,578.1563 Q745.1563,577.875 744.5313,577.875 Q743.1875,577.875 742.5,578.9531 Q741.8125,580.0156 741.8125,582.1094 Q741.8125,584.2031 742.5,585.2813 Q743.1875,586.3438 744.5313,586.3438 Q745.1563,586.3438 745.75,586.0781 Q746.3438,585.7969 746.9688,585.2188 L746.9688,587.9375 Z " fill="#000000"/><text fill="#000000" font-family="sans-serif" font-size="14" lengthAdjust="spacing" textLength="64" x="758" y="587.1436">transition</text><line style="stroke:#181818;stroke-width:0.5;" x1="730" x2="824" y1="598.2969" y2="598.2969"/><line style="stroke:#181818;stroke-width:0.5;" x1="730" x2="824" y1="606.2969" y2="606.2969"/></g><!--reverse link overarch_element to overarch_identifiableElement--><g id="link_overarch_element_overarch_identifiableElement"><path codeLine="33" d="M668.56,124.7669 C681.18,142.1069 695.12,161.2569 706.43,176.7969 " fill="none" id="overarch_element-backto-overarch_identifiableElement" style="stroke:#181818;stroke-width:1.0;"/><polygon fill="none" points="662.87,128.8469,656.75,108.5569,674.18,120.6069,662.87,128.8469" style="stroke:#181818;stroke-width:1.0;"/></g><!--reverse link overarch_element to overarch_namedElement--><g id="link_overarch_element_overarch_namedElement"><path codeLine="34" d="M599.3,124.9669 C589.04,139.0569 577.92,154.3369 568.05,167.8869 " fill="none" id="overarch_element-backto-overarch_namedElement" style="stroke:#181818;stroke-width:1.0;"/><polygon fill="none" points="593.82,120.6069,611.25,108.5569,605.13,128.8469,593.82,120.6069" style="stroke:#181818;stroke-width:1.0;"/></g><!--reverse link overarch_identifiableElement to overarch_identifiableNamedElement--><g id="link_overarch_identifiableElement_overarch_identifiableNamedElement"><path codeLine="35" d="M692.34,256.9869 C674.4,280.0769 653.6,306.8369 639.11,325.4969 " fill="none" id="overarch_identifiableElement-backto-overarch_identifiableNamedElement" style="stroke:#181818;stroke-width:1.0;"/><polygon fill="none" points="686.96,252.4869,704.76,240.9869,698.02,261.0769,686.96,252.4869" style="stroke:#181818;stroke-width:1.0;"/></g><!--reverse link overarch_namedElement to overarch_identifiableNamedElement--><g id="link_overarch_namedElement_overarch_identifiableNamedElement"><path codeLine="36" d="M572.78,267.0669 C584.87,287.5469 597.81,309.4869 607.24,325.4769 " fill="none" id="overarch_namedElement-backto-overarch_identifiableNamedElement" style="stroke:#181818;stroke-width:1.0;"/><polygon fill="none" points="566.63,270.4069,562.5,249.6269,578.69,263.2969,566.63,270.4069" style="stroke:#181818;stroke-width:1.0;"/></g><!--reverse link overarch_identifiableElement to overarch_relationalElement--><g id="link_overarch_identifiableElement_overarch_relationalElement"><path codeLine="37" d="M768.05,256.5869 C782.32,273.6869 798.3,292.8369 811.98,309.2369 " fill="none" id="overarch_identifiableElement-backto-overarch_relationalElement" style="stroke:#181818;stroke-width:1.0;"/><polygon fill="none" points="762.47,260.8269,755.03,240.9869,773.22,251.8569,762.47,260.8269" style="stroke:#181818;stroke-width:1.0;"/></g><!--reverse link overarch_namedElement to overarch_namedRelationalElement--><g id="link_overarch_namedElement_overarch_namedRelationalElement"><path codeLine="38" d="M501.55,266.8869 C481.65,305.0569 466.27,354.6369 493,390.2969 C514.99,419.6369 600.76,442.0569 672.35,456.1669 " fill="none" id="overarch_namedElement-backto-overarch_namedRelationalElement" style="stroke:#181818;stroke-width:1.0;"/><polygon fill="none" points="495.45,263.4469,511.35,249.4469,507.66,270.3069,495.45,263.4469" style="stroke:#181818;stroke-width:1.0;"/></g><!--reverse link overarch_relationalElement to overarch_namedRelationalElement--><g id="link_overarch_relationalElement_overarch_namedRelationalElement"><path codeLine="39" d="M813.1,408.2669 C804.87,423.0969 796.47,438.2169 789.85,450.1369 " fill="none" id="overarch_relationalElement-backto-overarch_namedRelationalElement" style="stroke:#181818;stroke-width:1.0;"/><polygon fill="none" points="807.1,404.6569,822.92,390.5669,819.34,411.4569,807.1,404.6569" style="stroke:#181818;stroke-width:1.0;"/></g><!--reverse link overarch_identifiableNamedElement to overarch_stateMachineElement--><g id="link_overarch_identifiableNamedElement_overarch_stateMachineElement"><path codeLine="40" d="M575.79,386.5269 C549.83,407.0469 517.98,432.2169 495.29,450.1469 " fill="none" id="overarch_identifiableNamedElement-backto-overarch_stateMachineElement" style="stroke:#181818;stroke-width:1.0;"/><polygon fill="none" points="571.81,380.7469,591.85,373.8369,580.49,391.7269,571.81,380.7469" style="stroke:#181818;stroke-width:1.0;"/></g><!--link overarch_stateMachine to overarch_stateMachineElement--><g id="link_overarch_stateMachine_overarch_stateMachineElement"><path codeLine="41" d="M371.68,383.0269 C390.29,400.8369 413.35,422.9069 432.01,440.7669 " fill="none" id="overarch_stateMachine-overarch_stateMachineElement" style="stroke:#181818;stroke-width:1.0;"/><polygon fill="#181818" points="362.08,373.8369,363.6531,380.8743,370.7543,382.1289,369.1811,375.0914,362.08,373.8369" style="stroke:#181818;stroke-width:1.0;"/><polygon fill="#181818" points="441.6,449.9469,437.8652,440.8336,437.9883,446.4891,432.3328,446.6123,441.6,449.9469" style="stroke:#181818;stroke-width:1.0;"/><line style="stroke:#181818;stroke-width:1.0;" x1="437.9883" x2="432.205" y1="446.4891" y2="440.9519"/><text fill="#000000" font-family="sans-serif" font-size="13" lengthAdjust="spacing" textLength="24" x="408.7275" y="439.2665">1..n</text></g><!--reverse link overarch_stateMachineElement to overarch_startState--><g id="link_overarch_stateMachineElement_overarch_startState"><path codeLine="42" d="M444.49,516.1669 C435.63,533.0069 425.68,551.8969 418.12,566.2569 " fill="none" id="overarch_stateMachineElement-backto-overarch_startState" style="stroke:#181818;stroke-width:1.0;"/><polygon fill="none" points="438.35,512.8069,453.86,498.3669,450.74,519.3269,438.35,512.8069" style="stroke:#181818;stroke-width:1.0;"/></g><!--reverse link overarch_stateMachineElement to overarch_state--><g id="link_overarch_stateMachineElement_overarch_state"><path codeLine="43" d="M475.61,516.9769 C483.43,533.6169 493.8,552.1269 503.4,566.2569 " fill="none" id="overarch_stateMachineElement-backto-overarch_state" style="stroke:#181818;stroke-width:1.0;"/><polygon fill="none" points="469.08,519.5069,467.66,498.3669,481.95,514.0169,469.08,519.5069" style="stroke:#181818;stroke-width:1.0;"/></g><!--link overarch_state to overarch_stateMachineElement--><g id="link_overarch_state_overarch_stateMachineElement"><path codeLine="44" d="M520,553.9669 C513.79,539.8069 505.2,523.5469 496.49,509.4969 " fill="none" id="overarch_state-overarch_stateMachineElement" style="stroke:#181818;stroke-width:1.0;"/><polygon fill="#181818" points="524.97,566.2569,526.4282,559.1947,520.4701,555.1325,519.0119,562.1947,524.97,566.2569" style="stroke:#181818;stroke-width:1.0;"/><polygon fill="#181818" points="489.24,498.3669,490.8005,508.0913,491.969,502.5565,497.5039,503.7249,489.24,498.3669" style="stroke:#181818;stroke-width:1.0;"/><line style="stroke:#181818;stroke-width:1.0;" x1="491.969" x2="496.335" y1="502.5565" y2="509.2619"/><text fill="#000000" font-family="sans-serif" font-size="13" lengthAdjust="spacing" textLength="24" x="468.1203" y="518.5406">1..n</text></g><!--reverse link overarch_stateMachineElement to overarch_endState--><g id="link_overarch_stateMachineElement_overarch_endState"><path codeLine="45" d="M518.99,509.2369 C547.72,527.6369 582.47,549.8869 608.03,566.2569 " fill="none" id="overarch_stateMachineElement-backto-overarch_endState" style="stroke:#181818;stroke-width:1.0;"/><polygon fill="none" points="515.09,515.0469,502.02,498.3669,522.64,503.2569,515.09,515.0469" style="stroke:#181818;stroke-width:1.0;"/></g><!--reverse link overarch_stateMachineElement to overarch_fork--><g id="link_overarch_stateMachineElement_overarch_fork"><path codeLine="46" d="M349.56,488.7369 C271.55,500.5269 167.82,521.7169 82,558.2969 C76.33,560.7169 70.62,563.8569 65.24,567.2169 " fill="none" id="overarch_stateMachineElement-backto-overarch_fork" style="stroke:#181818;stroke-width:1.0;"/><polygon fill="none" points="349.02,481.7369,369.82,485.7869,351.04,495.5869,349.02,481.7369" style="stroke:#181818;stroke-width:1.0;"/></g><!--reverse link overarch_stateMachineElement to overarch_join--><g id="link_overarch_stateMachineElement_overarch_join"><path codeLine="47" d="M350.02,498.8869 C294.87,512.4069 228.92,531.9969 173,558.2969 C167.33,560.9569 161.6,564.3169 156.21,567.8169 " fill="none" id="overarch_stateMachineElement-backto-overarch_join" style="stroke:#181818;stroke-width:1.0;"/><polygon fill="none" points="348.73,491.9969,369.81,494.1769,351.97,505.6169,348.73,491.9969" style="stroke:#181818;stroke-width:1.0;"/></g><!--reverse link overarch_stateMachineElement to overarch_choice--><g id="link_overarch_stateMachineElement_overarch_choice"><path codeLine="48" d="M405.47,507.9969 C376.21,523.8069 341.28,542.6869 312.43,558.2669 " fill="none" id="overarch_stateMachineElement-backto-overarch_choice" style="stroke:#181818;stroke-width:1.0;"/><polygon fill="none" points="402.38,501.7169,423.3,498.3669,409.03,514.0369,402.38,501.7169" style="stroke:#181818;stroke-width:1.0;"/></g><!--reverse link overarch_namedRelationalElement to overarch_transition--><g id="link_overarch_namedRelationalElement_overarch_transition"><path codeLine="49" d="M777,518.6169 C777,534.8269 777,552.5969 777,566.2569 " fill="none" id="overarch_namedRelationalElement-backto-overarch_transition" style="stroke:#181818;stroke-width:1.0;"/><polygon fill="none" points="770,518.3669,777,498.3669,784,518.3669,770,518.3669" style="stroke:#181818;stroke-width:1.0;"/></g><!--reverse link overarch_stateMachineElement to overarch_transition--><g id="link_overarch_stateMachineElement_overarch_transition"><path codeLine="50" d="M560.08,504.4269 C606.04,519.3469 661.88,538.5169 711,558.2969 C716.99,560.7069 723.21,563.3869 729.34,566.1369 " fill="none" id="overarch_stateMachineElement-backto-overarch_transition" style="stroke:#181818;stroke-width:1.0;"/><polygon fill="none" points="557.94,511.0869,541.04,498.3069,562.22,497.7669,557.94,511.0869" style="stroke:#181818;stroke-width:1.0;"/></g><!--SRC=[jPD1RiCW44NtFiKeoqf4whQgkikogTGSe28mhcbia00bgjhUlHZ7DJRO3eikcVd_3SRphR0rmiiPzLdW1LG9ja8uM6eHdYchX4JOrTYWjAQWHsCrPHPOJOs13NQD3L03oY6ePjNRjGXV1G3My00d_BmepOkVo2-u4ufIq6ED90aB5Ri0BFWYMD86UPheMo6gBJYO0mZvxiuS3HlEAvTU61Jgzi7G2AYnfbOeIUiqQEY7rowrQe8t0B3gXYTPc-LLhzE14Soq-q6QRZ_I92-vRb2FIRddNO5SM-8xaLXRlweZSeBOzr7o5CYLHvXIwTDOqLRwxeSISjnjAtsNLKgm2R-h-T_6bEIYVTnmnQvMzyJI-EROFjIBA6MFtuGincND4kQXMCpT_AXzaZ5AMgvv_G9HB6wQFBFW2s7ByyzzsGIJIaUo2NU4F05ixhTRjnNv_jdnVNBoN97XV-xt5yWCZuzeXjw7DaFVXRXOsOI9AHNTzL63wnS0]--></g></svg>