<?xml version="1.0" encoding="us-ascii" standalone="no"?><svg xmlns="http://www.w3.org/2000/svg" xmlns:xlink="http://www.w3.org/1999/xlink" contentStyleType="text/css" height="798px" preserveAspectRatio="none" style="width:2184px;height:798px;background:#FFFFFF;" version="1.1" viewBox="0 0 2184 798" width="2184px" zoomAndPan="magnify"><defs/><g><text fill="#000000" font-family="sans-serif" font-size="14" font-weight="bold" lengthAdjust="spacing" textLength="272" x="949.23" y="24.5332">Overview of the Class Model Elements</text><!--class overarch_element--><g id="elem_overarch_element"><rect codeLine="6" fill="#F1F1F1" height="65.6094" id="overarch_element" rx="2.5" ry="2.5" style="stroke:#181818;stroke-width:0.5;" width="87" x="686.71" y="54.1094"/><ellipse cx="703.96" cy="70.1094" fill="#A9DCDF" rx="11" ry="11" style="stroke:#181818;stroke-width:1.0;"/><path d="M706.1475,71.875 L702.0069,71.875 L701.585,72.9063 L702.0069,72.9063 Q702.6163,72.9063 702.8819,73.1406 Q703.1475,73.375 703.1475,73.7656 Q703.1475,74.1406 702.8819,74.375 Q702.6163,74.6094 702.0069,74.6094 L699.71,74.6094 Q699.1006,74.6094 698.8506,74.375 Q698.585,74.1406 698.585,73.75 Q698.585,73.375 698.8663,73.1406 Q699.1319,72.8906 699.7569,72.9063 L702.4288,66.25 L701.3194,66.25 Q700.71,66.25 700.4444,66.0156 Q700.1788,65.7813 700.1788,65.3906 Q700.1788,65.0156 700.4444,64.7813 Q700.71,64.5469 701.3194,64.5469 L704.9913,64.5469 L708.3819,72.9063 Q708.9756,72.9063 709.1631,73.0469 Q709.5538,73.3125 709.5538,73.7656 Q709.5538,74.1406 709.2881,74.375 Q709.0381,74.6094 708.4288,74.6094 L706.1319,74.6094 Q705.5225,74.6094 705.2569,74.375 Q704.9913,74.1406 704.9913,73.75 Q704.9913,73.375 705.2569,73.1406 Q705.5225,72.9063 706.1319,72.9063 L706.5538,72.9063 L706.1475,71.875 Z M705.4288,70.1719 L704.0694,66.7969 L702.6944,70.1719 L705.4288,70.1719 Z " fill="#000000"/><text fill="#000000" font-family="sans-serif" font-size="14" font-style="italic" lengthAdjust="spacing" textLength="50" x="718.46" y="75.8379">element</text><line style="stroke:#181818;stroke-width:0.5;" x1="687.71" x2="772.71" y1="86.1094" y2="86.1094"/><text fill="#000000" font-family="sans-serif" font-size="14" lengthAdjust="spacing" textLength="75" x="692.71" y="104.6426">el : keyword</text><line style="stroke:#181818;stroke-width:0.5;" x1="687.71" x2="772.71" y1="111.7188" y2="111.7188"/></g><!--class overarch_identifiableElement--><g id="elem_overarch_identifiableElement"><rect codeLine="9" fill="#F1F1F1" height="65.6094" id="overarch_identifiableElement" rx="2.5" ry="2.5" style="stroke:#181818;stroke-width:0.5;" width="155" x="563.71" y="197.1094"/><ellipse cx="578.71" cy="213.1094" fill="#A9DCDF" rx="11" ry="11" style="stroke:#181818;stroke-width:1.0;"/><path d="M580.8975,214.875 L576.7569,214.875 L576.335,215.9063 L576.7569,215.9063 Q577.3663,215.9063 577.6319,216.1406 Q577.8975,216.375 577.8975,216.7656 Q577.8975,217.1406 577.6319,217.375 Q577.3663,217.6094 576.7569,217.6094 L574.46,217.6094 Q573.8506,217.6094 573.6006,217.375 Q573.335,217.1406 573.335,216.75 Q573.335,216.375 573.6163,216.1406 Q573.8819,215.8906 574.5069,215.9063 L577.1788,209.25 L576.0694,209.25 Q575.46,209.25 575.1944,209.0156 Q574.9288,208.7813 574.9288,208.3906 Q574.9288,208.0156 575.1944,207.7813 Q575.46,207.5469 576.0694,207.5469 L579.7413,207.5469 L583.1319,215.9063 Q583.7256,215.9063 583.9131,216.0469 Q584.3038,216.3125 584.3038,216.7656 Q584.3038,217.1406 584.0381,217.375 Q583.7881,217.6094 583.1788,217.6094 L580.8819,217.6094 Q580.2725,217.6094 580.0069,217.375 Q579.7413,217.1406 579.7413,216.75 Q579.7413,216.375 580.0069,216.1406 Q580.2725,215.9063 580.8819,215.9063 L581.3038,215.9063 L580.8975,214.875 Z M580.1788,213.1719 L578.8194,209.7969 L577.4444,213.1719 L580.1788,213.1719 Z " fill="#000000"/><text fill="#000000" font-family="sans-serif" font-size="14" font-style="italic" lengthAdjust="spacing" textLength="123" x="592.71" y="218.8379">identifiable-element</text><line style="stroke:#181818;stroke-width:0.5;" x1="564.71" x2="717.71" y1="229.1094" y2="229.1094"/><text fill="#000000" font-family="sans-serif" font-size="14" lengthAdjust="spacing" textLength="75" x="569.71" y="247.6426">id : keyword</text><line style="stroke:#181818;stroke-width:0.5;" x1="564.71" x2="717.71" y1="254.7188" y2="254.7188"/></g><!--class overarch_namedElement--><g id="elem_overarch_namedElement"><rect codeLine="12" fill="#F1F1F1" height="83.2188" id="overarch_namedElement" rx="2.5" ry="2.5" style="stroke:#181818;stroke-width:0.5;" width="130" x="754.21" y="188.6094"/><ellipse cx="769.21" cy="204.6094" fill="#A9DCDF" rx="11" ry="11" style="stroke:#181818;stroke-width:1.0;"/><path d="M771.3975,206.375 L767.2569,206.375 L766.835,207.4063 L767.2569,207.4063 Q767.8663,207.4063 768.1319,207.6406 Q768.3975,207.875 768.3975,208.2656 Q768.3975,208.6406 768.1319,208.875 Q767.8663,209.1094 767.2569,209.1094 L764.96,209.1094 Q764.3506,209.1094 764.1006,208.875 Q763.835,208.6406 763.835,208.25 Q763.835,207.875 764.1163,207.6406 Q764.3819,207.3906 765.0069,207.4063 L767.6788,200.75 L766.5694,200.75 Q765.96,200.75 765.6944,200.5156 Q765.4288,200.2813 765.4288,199.8906 Q765.4288,199.5156 765.6944,199.2813 Q765.96,199.0469 766.5694,199.0469 L770.2413,199.0469 L773.6319,207.4063 Q774.2256,207.4063 774.4131,207.5469 Q774.8038,207.8125 774.8038,208.2656 Q774.8038,208.6406 774.5381,208.875 Q774.2881,209.1094 773.6788,209.1094 L771.3819,209.1094 Q770.7725,209.1094 770.5069,208.875 Q770.2413,208.6406 770.2413,208.25 Q770.2413,207.875 770.5069,207.6406 Q770.7725,207.4063 771.3819,207.4063 L771.8038,207.4063 L771.3975,206.375 Z M770.6788,204.6719 L769.3194,201.2969 L767.9444,204.6719 L770.6788,204.6719 Z " fill="#000000"/><text fill="#000000" font-family="sans-serif" font-size="14" font-style="italic" lengthAdjust="spacing" textLength="98" x="783.21" y="210.3379">named-element</text><line style="stroke:#181818;stroke-width:0.5;" x1="755.21" x2="883.21" y1="220.6094" y2="220.6094"/><text fill="#000000" font-family="sans-serif" font-size="14" lengthAdjust="spacing" textLength="82" x="760.21" y="239.1426">name : string</text><text fill="#000000" font-family="sans-serif" font-size="14" lengthAdjust="spacing" textLength="77" x="760.21" y="256.752">desc : string</text><line style="stroke:#181818;stroke-width:0.5;" x1="755.21" x2="883.21" y1="263.8281" y2="263.8281"/></g><!--class overarch_identifiableNamedElement--><g id="elem_overarch_identifiableNamedElement"><rect codeLine="16" fill="#F1F1F1" height="48" id="overarch_identifiableNamedElement" rx="2.5" ry="2.5" style="stroke:#181818;stroke-width:0.5;" width="203" x="278.71" y="331.6094"/><ellipse cx="293.71" cy="347.6094" fill="#A9DCDF" rx="11" ry="11" style="stroke:#181818;stroke-width:1.0;"/><path d="M295.8975,349.375 L291.7569,349.375 L291.335,350.4063 L291.7569,350.4063 Q292.3663,350.4063 292.6319,350.6406 Q292.8975,350.875 292.8975,351.2656 Q292.8975,351.6406 292.6319,351.875 Q292.3663,352.1094 291.7569,352.1094 L289.46,352.1094 Q288.8506,352.1094 288.6006,351.875 Q288.335,351.6406 288.335,351.25 Q288.335,350.875 288.6163,350.6406 Q288.8819,350.3906 289.5069,350.4063 L292.1788,343.75 L291.0694,343.75 Q290.46,343.75 290.1944,343.5156 Q289.9288,343.2813 289.9288,342.8906 Q289.9288,342.5156 290.1944,342.2813 Q290.46,342.0469 291.0694,342.0469 L294.7413,342.0469 L298.1319,350.4063 Q298.7256,350.4063 298.9131,350.5469 Q299.3038,350.8125 299.3038,351.2656 Q299.3038,351.6406 299.0381,351.875 Q298.7881,352.1094 298.1788,352.1094 L295.8819,352.1094 Q295.2725,352.1094 295.0069,351.875 Q294.7413,351.6406 294.7413,351.25 Q294.7413,350.875 295.0069,350.6406 Q295.2725,350.4063 295.8819,350.4063 L296.3038,350.4063 L295.8975,349.375 Z M295.1788,347.6719 L293.8194,344.2969 L292.4444,347.6719 L295.1788,347.6719 Z " fill="#000000"/><text fill="#000000" font-family="sans-serif" font-size="14" font-style="italic" lengthAdjust="spacing" textLength="171" x="307.71" y="353.3379">identifiable-named-element</text><line style="stroke:#181818;stroke-width:0.5;" x1="279.71" x2="480.71" y1="363.6094" y2="363.6094"/><line style="stroke:#181818;stroke-width:0.5;" x1="279.71" x2="480.71" y1="371.6094" y2="371.6094"/></g><!--class overarch_relationalElement--><g id="elem_overarch_relationalElement"><rect codeLine="17" fill="#F1F1F1" height="83.2188" id="overarch_relationalElement" rx="2.5" ry="2.5" style="stroke:#181818;stroke-width:0.5;" width="145" x="1158.71" y="439.6094"/><ellipse cx="1173.71" cy="455.6094" fill="#A9DCDF" rx="11" ry="11" style="stroke:#181818;stroke-width:1.0;"/><path d="M1175.8975,457.375 L1171.7569,457.375 L1171.335,458.4063 L1171.7569,458.4063 Q1172.3662,458.4063 1172.6319,458.6406 Q1172.8975,458.875 1172.8975,459.2656 Q1172.8975,459.6406 1172.6319,459.875 Q1172.3662,460.1094 1171.7569,460.1094 L1169.46,460.1094 Q1168.8506,460.1094 1168.6006,459.875 Q1168.335,459.6406 1168.335,459.25 Q1168.335,458.875 1168.6162,458.6406 Q1168.8819,458.3906 1169.5069,458.4063 L1172.1787,451.75 L1171.0694,451.75 Q1170.46,451.75 1170.1944,451.5156 Q1169.9287,451.2813 1169.9287,450.8906 Q1169.9287,450.5156 1170.1944,450.2813 Q1170.46,450.0469 1171.0694,450.0469 L1174.7412,450.0469 L1178.1319,458.4063 Q1178.7256,458.4063 1178.9131,458.5469 Q1179.3037,458.8125 1179.3037,459.2656 Q1179.3037,459.6406 1179.0381,459.875 Q1178.7881,460.1094 1178.1787,460.1094 L1175.8819,460.1094 Q1175.2725,460.1094 1175.0069,459.875 Q1174.7412,459.6406 1174.7412,459.25 Q1174.7412,458.875 1175.0069,458.6406 Q1175.2725,458.4063 1175.8819,458.4063 L1176.3037,458.4063 L1175.8975,457.375 Z M1175.1787,455.6719 L1173.8194,452.2969 L1172.4444,455.6719 L1175.1787,455.6719 Z " fill="#000000"/><text fill="#000000" font-family="sans-serif" font-size="14" font-style="italic" lengthAdjust="spacing" textLength="113" x="1187.71" y="461.3379">relational-element</text><line style="stroke:#181818;stroke-width:0.5;" x1="1159.71" x2="1302.71" y1="471.6094" y2="471.6094"/><text fill="#000000" font-family="sans-serif" font-size="14" lengthAdjust="spacing" textLength="92" x="1164.71" y="490.1426">from : keyword</text><text fill="#000000" font-family="sans-serif" font-size="14" lengthAdjust="spacing" textLength="76" x="1164.71" y="507.752">to : keyword</text><line style="stroke:#181818;stroke-width:0.5;" x1="1159.71" x2="1302.71" y1="514.8281" y2="514.8281"/></g><!--class overarch_namedRelationalElement--><g id="elem_overarch_namedRelationalElement"><rect codeLine="21" fill="#F1F1F1" height="48" id="overarch_namedRelationalElement" rx="2.5" ry="2.5" style="stroke:#181818;stroke-width:0.5;" width="193" x="1676.71" y="582.6094"/><ellipse cx="1691.71" cy="598.6094" fill="#A9DCDF" rx="11" ry="11" style="stroke:#181818;stroke-width:1.0;"/><path d="M1693.8975,600.375 L1689.7569,600.375 L1689.335,601.4063 L1689.7569,601.4063 Q1690.3662,601.4063 1690.6319,601.6406 Q1690.8975,601.875 1690.8975,602.2656 Q1690.8975,602.6406 1690.6319,602.875 Q1690.3662,603.1094 1689.7569,603.1094 L1687.46,603.1094 Q1686.8506,603.1094 1686.6006,602.875 Q1686.335,602.6406 1686.335,602.25 Q1686.335,601.875 1686.6162,601.6406 Q1686.8819,601.3906 1687.5069,601.4063 L1690.1787,594.75 L1689.0694,594.75 Q1688.46,594.75 1688.1944,594.5156 Q1687.9287,594.2813 1687.9287,593.8906 Q1687.9287,593.5156 1688.1944,593.2813 Q1688.46,593.0469 1689.0694,593.0469 L1692.7412,593.0469 L1696.1319,601.4063 Q1696.7256,601.4063 1696.9131,601.5469 Q1697.3037,601.8125 1697.3037,602.2656 Q1697.3037,602.6406 1697.0381,602.875 Q1696.7881,603.1094 1696.1787,603.1094 L1693.8819,603.1094 Q1693.2725,603.1094 1693.0069,602.875 Q1692.7412,602.6406 1692.7412,602.25 Q1692.7412,601.875 1693.0069,601.6406 Q1693.2725,601.4063 1693.8819,601.4063 L1694.3037,601.4063 L1693.8975,600.375 Z M1693.1787,598.6719 L1691.8194,595.2969 L1690.4444,598.6719 L1693.1787,598.6719 Z " fill="#000000"/><text fill="#000000" font-family="sans-serif" font-size="14" font-style="italic" lengthAdjust="spacing" textLength="161" x="1705.71" y="604.3379">named-relational-element</text><line style="stroke:#181818;stroke-width:0.5;" x1="1677.71" x2="1868.71" y1="614.6094" y2="614.6094"/><line style="stroke:#181818;stroke-width:0.5;" x1="1677.71" x2="1868.71" y1="622.6094" y2="622.6094"/></g><!--class overarch_technicalElement--><g id="elem_overarch_technicalElement"><rect codeLine="22" fill="#F1F1F1" height="83.2188" id="overarch_technicalElement" rx="2.5" ry="2.5" style="stroke:#181818;stroke-width:0.5;" width="143" x="808.71" y="45.6094"/><ellipse cx="823.71" cy="61.6094" fill="#A9DCDF" rx="11" ry="11" style="stroke:#181818;stroke-width:1.0;"/><path d="M825.8975,63.375 L821.7569,63.375 L821.335,64.4063 L821.7569,64.4063 Q822.3663,64.4063 822.6319,64.6406 Q822.8975,64.875 822.8975,65.2656 Q822.8975,65.6406 822.6319,65.875 Q822.3663,66.1094 821.7569,66.1094 L819.46,66.1094 Q818.8506,66.1094 818.6006,65.875 Q818.335,65.6406 818.335,65.25 Q818.335,64.875 818.6163,64.6406 Q818.8819,64.3906 819.5069,64.4063 L822.1788,57.75 L821.0694,57.75 Q820.46,57.75 820.1944,57.5156 Q819.9288,57.2813 819.9288,56.8906 Q819.9288,56.5156 820.1944,56.2813 Q820.46,56.0469 821.0694,56.0469 L824.7413,56.0469 L828.1319,64.4063 Q828.7256,64.4063 828.9131,64.5469 Q829.3038,64.8125 829.3038,65.2656 Q829.3038,65.6406 829.0381,65.875 Q828.7881,66.1094 828.1788,66.1094 L825.8819,66.1094 Q825.2725,66.1094 825.0069,65.875 Q824.7413,65.6406 824.7413,65.25 Q824.7413,64.875 825.0069,64.6406 Q825.2725,64.4063 825.8819,64.4063 L826.3038,64.4063 L825.8975,63.375 Z M825.1788,61.6719 L823.8194,58.2969 L822.4444,61.6719 L825.1788,61.6719 Z " fill="#000000"/><text fill="#000000" font-family="sans-serif" font-size="14" font-style="italic" lengthAdjust="spacing" textLength="111" x="837.71" y="67.3379">technical-element</text><line style="stroke:#181818;stroke-width:0.5;" x1="809.71" x2="950.71" y1="77.6094" y2="77.6094"/><text fill="#000000" font-family="sans-serif" font-size="14" lengthAdjust="spacing" textLength="97" x="814.71" y="96.1426">subtype : string</text><text fill="#000000" font-family="sans-serif" font-size="14" lengthAdjust="spacing" textLength="74" x="814.71" y="113.752">tech : string</text><line style="stroke:#181818;stroke-width:0.5;" x1="809.71" x2="950.71" y1="120.8281" y2="120.8281"/></g><!--class overarch_classModelElement--><g id="elem_overarch_classModelElement"><rect codeLine="26" fill="#F1F1F1" height="48" id="overarch_classModelElement" rx="2.5" ry="2.5" style="stroke:#181818;stroke-width:0.5;" width="162" x="556.21" y="457.1094"/><ellipse cx="571.21" cy="473.1094" fill="#A9DCDF" rx="11" ry="11" style="stroke:#181818;stroke-width:1.0;"/><path d="M573.3975,474.875 L569.2569,474.875 L568.835,475.9063 L569.2569,475.9063 Q569.8663,475.9063 570.1319,476.1406 Q570.3975,476.375 570.3975,476.7656 Q570.3975,477.1406 570.1319,477.375 Q569.8663,477.6094 569.2569,477.6094 L566.96,477.6094 Q566.3506,477.6094 566.1006,477.375 Q565.835,477.1406 565.835,476.75 Q565.835,476.375 566.1163,476.1406 Q566.3819,475.8906 567.0069,475.9063 L569.6788,469.25 L568.5694,469.25 Q567.96,469.25 567.6944,469.0156 Q567.4288,468.7813 567.4288,468.3906 Q567.4288,468.0156 567.6944,467.7813 Q567.96,467.5469 568.5694,467.5469 L572.2413,467.5469 L575.6319,475.9063 Q576.2256,475.9063 576.4131,476.0469 Q576.8038,476.3125 576.8038,476.7656 Q576.8038,477.1406 576.5381,477.375 Q576.2881,477.6094 575.6788,477.6094 L573.3819,477.6094 Q572.7725,477.6094 572.5069,477.375 Q572.2413,477.1406 572.2413,476.75 Q572.2413,476.375 572.5069,476.1406 Q572.7725,475.9063 573.3819,475.9063 L573.8038,475.9063 L573.3975,474.875 Z M572.6788,473.1719 L571.3194,469.7969 L569.9444,473.1719 L572.6788,473.1719 Z " fill="#000000"/><text fill="#000000" font-family="sans-serif" font-size="14" font-style="italic" lengthAdjust="spacing" textLength="130" x="585.21" y="478.8379">class-model-element</text><line style="stroke:#181818;stroke-width:0.5;" x1="557.21" x2="717.21" y1="489.1094" y2="489.1094"/><line style="stroke:#181818;stroke-width:0.5;" x1="557.21" x2="717.21" y1="497.1094" y2="497.1094"/></g><!--class overarch_package--><g id="elem_overarch_package"><rect codeLine="27" fill="#F1F1F1" height="48" id="overarch_package" rx="2.5" ry="2.5" style="stroke:#181818;stroke-width:0.5;" width="86" x="103.21" y="582.6094"/><ellipse cx="118.21" cy="598.6094" fill="#ADD1B2" rx="11" ry="11" style="stroke:#181818;stroke-width:1.0;"/><path d="M120.9756,594.4844 Q121.1319,594.2656 121.3194,594.1563 Q121.5069,594.0469 121.7256,594.0469 Q122.1006,594.0469 122.335,594.3125 Q122.5694,594.5625 122.5694,595.1719 L122.5694,596.625 Q122.5694,597.2344 122.335,597.5 Q122.1006,597.7656 121.7256,597.7656 Q121.3819,597.7656 121.1788,597.5625 Q120.9756,597.375 120.8663,596.8594 Q120.8194,596.5 120.6319,596.3125 Q120.3038,595.9375 119.6944,595.7188 Q119.085,595.5 118.46,595.5 Q117.6944,595.5 117.0538,595.8281 Q116.4288,596.1563 115.9288,596.9063 Q115.4444,597.6563 115.4444,598.6875 L115.4444,599.7813 Q115.4444,601.0156 116.335,601.8438 Q117.2256,602.6563 118.8194,602.6563 Q119.7569,602.6563 120.4131,602.4063 Q120.8038,602.25 121.2256,601.8125 Q121.4913,601.5469 121.6319,601.4688 Q121.7881,601.3906 121.9913,601.3906 Q122.3194,601.3906 122.5694,601.6563 Q122.835,601.9063 122.835,602.25 Q122.835,602.5938 122.4913,603 Q121.9913,603.5781 121.1944,603.9063 Q120.1163,604.3594 118.8194,604.3594 Q117.3038,604.3594 116.1006,603.7344 Q115.1163,603.2344 114.4288,602.1719 Q113.7413,601.0938 113.7413,599.8125 L113.7413,598.6563 Q113.7413,597.3281 114.3506,596.1875 Q114.9756,595.0313 116.0694,594.4219 Q117.1631,593.7969 118.3975,593.7969 Q119.1319,593.7969 119.7725,593.9688 Q120.4288,594.125 120.9756,594.4844 Z " fill="#000000"/><text fill="#000000" font-family="sans-serif" font-size="14" lengthAdjust="spacing" textLength="54" x="132.21" y="604.3379">package</text><line style="stroke:#181818;stroke-width:0.5;" x1="104.21" x2="188.21" y1="614.6094" y2="614.6094"/><line style="stroke:#181818;stroke-width:0.5;" x1="104.21" x2="188.21" y1="622.6094" y2="622.6094"/></g><!--class overarch_namespace--><g id="elem_overarch_namespace"><rect codeLine="28" fill="#F1F1F1" height="48" id="overarch_namespace" rx="2.5" ry="2.5" style="stroke:#181818;stroke-width:0.5;" width="105" x="224.71" y="582.6094"/><ellipse cx="239.71" cy="598.6094" fill="#ADD1B2" rx="11" ry="11" style="stroke:#181818;stroke-width:1.0;"/><path d="M242.4756,594.4844 Q242.6319,594.2656 242.8194,594.1563 Q243.0069,594.0469 243.2256,594.0469 Q243.6006,594.0469 243.835,594.3125 Q244.0694,594.5625 244.0694,595.1719 L244.0694,596.625 Q244.0694,597.2344 243.835,597.5 Q243.6006,597.7656 243.2256,597.7656 Q242.8819,597.7656 242.6788,597.5625 Q242.4756,597.375 242.3663,596.8594 Q242.3194,596.5 242.1319,596.3125 Q241.8038,595.9375 241.1944,595.7188 Q240.585,595.5 239.96,595.5 Q239.1944,595.5 238.5538,595.8281 Q237.9288,596.1563 237.4288,596.9063 Q236.9444,597.6563 236.9444,598.6875 L236.9444,599.7813 Q236.9444,601.0156 237.835,601.8438 Q238.7256,602.6563 240.3194,602.6563 Q241.2569,602.6563 241.9131,602.4063 Q242.3038,602.25 242.7256,601.8125 Q242.9913,601.5469 243.1319,601.4688 Q243.2881,601.3906 243.4913,601.3906 Q243.8194,601.3906 244.0694,601.6563 Q244.335,601.9063 244.335,602.25 Q244.335,602.5938 243.9913,603 Q243.4913,603.5781 242.6944,603.9063 Q241.6163,604.3594 240.3194,604.3594 Q238.8038,604.3594 237.6006,603.7344 Q236.6163,603.2344 235.9288,602.1719 Q235.2413,601.0938 235.2413,599.8125 L235.2413,598.6563 Q235.2413,597.3281 235.8506,596.1875 Q236.4756,595.0313 237.5694,594.4219 Q238.6631,593.7969 239.8975,593.7969 Q240.6319,593.7969 241.2725,593.9688 Q241.9288,594.125 242.4756,594.4844 Z " fill="#000000"/><text fill="#000000" font-family="sans-serif" font-size="14" lengthAdjust="spacing" textLength="73" x="253.71" y="604.3379">namespace</text><line style="stroke:#181818;stroke-width:0.5;" x1="225.71" x2="328.71" y1="614.6094" y2="614.6094"/><line style="stroke:#181818;stroke-width:0.5;" x1="225.71" x2="328.71" y1="622.6094" y2="622.6094"/></g><!--class overarch_interface--><g id="elem_overarch_interface"><rect codeLine="29" fill="#F1F1F1" height="48" id="overarch_interface" rx="2.5" ry="2.5" style="stroke:#181818;stroke-width:0.5;" width="87" x="364.71" y="582.6094"/><ellipse cx="379.71" cy="598.6094" fill="#ADD1B2" rx="11" ry="11" style="stroke:#181818;stroke-width:1.0;"/><path d="M382.4756,594.4844 Q382.6319,594.2656 382.8194,594.1563 Q383.0069,594.0469 383.2256,594.0469 Q383.6006,594.0469 383.835,594.3125 Q384.0694,594.5625 384.0694,595.1719 L384.0694,596.625 Q384.0694,597.2344 383.835,597.5 Q383.6006,597.7656 383.2256,597.7656 Q382.8819,597.7656 382.6788,597.5625 Q382.4756,597.375 382.3663,596.8594 Q382.3194,596.5 382.1319,596.3125 Q381.8038,595.9375 381.1944,595.7188 Q380.585,595.5 379.96,595.5 Q379.1944,595.5 378.5538,595.8281 Q377.9288,596.1563 377.4288,596.9063 Q376.9444,597.6563 376.9444,598.6875 L376.9444,599.7813 Q376.9444,601.0156 377.835,601.8438 Q378.7256,602.6563 380.3194,602.6563 Q381.2569,602.6563 381.9131,602.4063 Q382.3038,602.25 382.7256,601.8125 Q382.9913,601.5469 383.1319,601.4688 Q383.2881,601.3906 383.4913,601.3906 Q383.8194,601.3906 384.0694,601.6563 Q384.335,601.9063 384.335,602.25 Q384.335,602.5938 383.9913,603 Q383.4913,603.5781 382.6944,603.9063 Q381.6163,604.3594 380.3194,604.3594 Q378.8038,604.3594 377.6006,603.7344 Q376.6163,603.2344 375.9288,602.1719 Q375.2413,601.0938 375.2413,599.8125 L375.2413,598.6563 Q375.2413,597.3281 375.8506,596.1875 Q376.4756,595.0313 377.5694,594.4219 Q378.6631,593.7969 379.8975,593.7969 Q380.6319,593.7969 381.2725,593.9688 Q381.9288,594.125 382.4756,594.4844 Z " fill="#000000"/><text fill="#000000" font-family="sans-serif" font-size="14" lengthAdjust="spacing" textLength="55" x="393.71" y="604.3379">interface</text><line style="stroke:#181818;stroke-width:0.5;" x1="365.71" x2="450.71" y1="614.6094" y2="614.6094"/><line style="stroke:#181818;stroke-width:0.5;" x1="365.71" x2="450.71" y1="622.6094" y2="622.6094"/></g><!--class overarch_protocol--><g id="elem_overarch_protocol"><rect codeLine="30" fill="#F1F1F1" height="48" id="overarch_protocol" rx="2.5" ry="2.5" style="stroke:#181818;stroke-width:0.5;" width="83" x="486.71" y="582.6094"/><ellipse cx="501.71" cy="598.6094" fill="#ADD1B2" rx="11" ry="11" style="stroke:#181818;stroke-width:1.0;"/><path d="M504.4756,594.4844 Q504.6319,594.2656 504.8194,594.1563 Q505.0069,594.0469 505.2256,594.0469 Q505.6006,594.0469 505.835,594.3125 Q506.0694,594.5625 506.0694,595.1719 L506.0694,596.625 Q506.0694,597.2344 505.835,597.5 Q505.6006,597.7656 505.2256,597.7656 Q504.8819,597.7656 504.6788,597.5625 Q504.4756,597.375 504.3663,596.8594 Q504.3194,596.5 504.1319,596.3125 Q503.8038,595.9375 503.1944,595.7188 Q502.585,595.5 501.96,595.5 Q501.1944,595.5 500.5538,595.8281 Q499.9288,596.1563 499.4288,596.9063 Q498.9444,597.6563 498.9444,598.6875 L498.9444,599.7813 Q498.9444,601.0156 499.835,601.8438 Q500.7256,602.6563 502.3194,602.6563 Q503.2569,602.6563 503.9131,602.4063 Q504.3038,602.25 504.7256,601.8125 Q504.9913,601.5469 505.1319,601.4688 Q505.2881,601.3906 505.4913,601.3906 Q505.8194,601.3906 506.0694,601.6563 Q506.335,601.9063 506.335,602.25 Q506.335,602.5938 505.9913,603 Q505.4913,603.5781 504.6944,603.9063 Q503.6163,604.3594 502.3194,604.3594 Q500.8038,604.3594 499.6006,603.7344 Q498.6163,603.2344 497.9288,602.1719 Q497.2413,601.0938 497.2413,599.8125 L497.2413,598.6563 Q497.2413,597.3281 497.8506,596.1875 Q498.4756,595.0313 499.5694,594.4219 Q500.6631,593.7969 501.8975,593.7969 Q502.6319,593.7969 503.2725,593.9688 Q503.9288,594.125 504.4756,594.4844 Z " fill="#000000"/><text fill="#000000" font-family="sans-serif" font-size="14" lengthAdjust="spacing" textLength="51" x="515.71" y="604.3379">protocol</text><line style="stroke:#181818;stroke-width:0.5;" x1="487.71" x2="568.71" y1="614.6094" y2="614.6094"/><line style="stroke:#181818;stroke-width:0.5;" x1="487.71" x2="568.71" y1="622.6094" y2="622.6094"/></g><!--class overarch_class--><g id="elem_overarch_class"><rect codeLine="31" fill="#F1F1F1" height="48" id="overarch_class" rx="2.5" ry="2.5" style="stroke:#181818;stroke-width:0.5;" width="64" x="605.21" y="582.6094"/><ellipse cx="620.21" cy="598.6094" fill="#ADD1B2" rx="11" ry="11" style="stroke:#181818;stroke-width:1.0;"/><path d="M622.9756,594.4844 Q623.1319,594.2656 623.3194,594.1563 Q623.5069,594.0469 623.7256,594.0469 Q624.1006,594.0469 624.335,594.3125 Q624.5694,594.5625 624.5694,595.1719 L624.5694,596.625 Q624.5694,597.2344 624.335,597.5 Q624.1006,597.7656 623.7256,597.7656 Q623.3819,597.7656 623.1788,597.5625 Q622.9756,597.375 622.8663,596.8594 Q622.8194,596.5 622.6319,596.3125 Q622.3038,595.9375 621.6944,595.7188 Q621.085,595.5 620.46,595.5 Q619.6944,595.5 619.0538,595.8281 Q618.4288,596.1563 617.9288,596.9063 Q617.4444,597.6563 617.4444,598.6875 L617.4444,599.7813 Q617.4444,601.0156 618.335,601.8438 Q619.2256,602.6563 620.8194,602.6563 Q621.7569,602.6563 622.4131,602.4063 Q622.8038,602.25 623.2256,601.8125 Q623.4913,601.5469 623.6319,601.4688 Q623.7881,601.3906 623.9913,601.3906 Q624.3194,601.3906 624.5694,601.6563 Q624.835,601.9063 624.835,602.25 Q624.835,602.5938 624.4913,603 Q623.9913,603.5781 623.1944,603.9063 Q622.1163,604.3594 620.8194,604.3594 Q619.3038,604.3594 618.1006,603.7344 Q617.1163,603.2344 616.4288,602.1719 Q615.7413,601.0938 615.7413,599.8125 L615.7413,598.6563 Q615.7413,597.3281 616.3506,596.1875 Q616.9756,595.0313 618.0694,594.4219 Q619.1631,593.7969 620.3975,593.7969 Q621.1319,593.7969 621.7725,593.9688 Q622.4288,594.125 622.9756,594.4844 Z " fill="#000000"/><text fill="#000000" font-family="sans-serif" font-size="14" lengthAdjust="spacing" textLength="32" x="634.21" y="604.3379">class</text><line style="stroke:#181818;stroke-width:0.5;" x1="606.21" x2="668.21" y1="614.6094" y2="614.6094"/><line style="stroke:#181818;stroke-width:0.5;" x1="606.21" x2="668.21" y1="622.6094" y2="622.6094"/></g><!--class overarch_enum--><g id="elem_overarch_enum"><rect codeLine="32" fill="#F1F1F1" height="48" id="overarch_enum" rx="2.5" ry="2.5" style="stroke:#181818;stroke-width:0.5;" width="67" x="704.71" y="582.6094"/><ellipse cx="719.71" cy="598.6094" fill="#ADD1B2" rx="11" ry="11" style="stroke:#181818;stroke-width:1.0;"/><path d="M722.4756,594.4844 Q722.6319,594.2656 722.8194,594.1563 Q723.0069,594.0469 723.2256,594.0469 Q723.6006,594.0469 723.835,594.3125 Q724.0694,594.5625 724.0694,595.1719 L724.0694,596.625 Q724.0694,597.2344 723.835,597.5 Q723.6006,597.7656 723.2256,597.7656 Q722.8819,597.7656 722.6788,597.5625 Q722.4756,597.375 722.3663,596.8594 Q722.3194,596.5 722.1319,596.3125 Q721.8038,595.9375 721.1944,595.7188 Q720.585,595.5 719.96,595.5 Q719.1944,595.5 718.5538,595.8281 Q717.9288,596.1563 717.4288,596.9063 Q716.9444,597.6563 716.9444,598.6875 L716.9444,599.7813 Q716.9444,601.0156 717.835,601.8438 Q718.7256,602.6563 720.3194,602.6563 Q721.2569,602.6563 721.9131,602.4063 Q722.3038,602.25 722.7256,601.8125 Q722.9913,601.5469 723.1319,601.4688 Q723.2881,601.3906 723.4913,601.3906 Q723.8194,601.3906 724.0694,601.6563 Q724.335,601.9063 724.335,602.25 Q724.335,602.5938 723.9913,603 Q723.4913,603.5781 722.6944,603.9063 Q721.6163,604.3594 720.3194,604.3594 Q718.8038,604.3594 717.6006,603.7344 Q716.6163,603.2344 715.9288,602.1719 Q715.2413,601.0938 715.2413,599.8125 L715.2413,598.6563 Q715.2413,597.3281 715.8506,596.1875 Q716.4756,595.0313 717.5694,594.4219 Q718.6631,593.7969 719.8975,593.7969 Q720.6319,593.7969 721.2725,593.9688 Q721.9288,594.125 722.4756,594.4844 Z " fill="#000000"/><text fill="#000000" font-family="sans-serif" font-size="14" lengthAdjust="spacing" textLength="35" x="733.71" y="604.3379">enum</text><line style="stroke:#181818;stroke-width:0.5;" x1="705.71" x2="770.71" y1="614.6094" y2="614.6094"/><line style="stroke:#181818;stroke-width:0.5;" x1="705.71" x2="770.71" y1="622.6094" y2="622.6094"/></g><!--class overarch_field--><g id="elem_overarch_field"><rect codeLine="33" fill="#F1F1F1" height="100.8281" id="overarch_field" rx="2.5" ry="2.5" style="stroke:#181818;stroke-width:0.5;" width="125" x="616.71" y="690.6094"/><ellipse cx="661.96" cy="706.6094" fill="#ADD1B2" rx="11" ry="11" style="stroke:#181818;stroke-width:1.0;"/><path d="M664.7256,702.4844 Q664.8819,702.2656 665.0694,702.1563 Q665.2569,702.0469 665.4756,702.0469 Q665.8506,702.0469 666.085,702.3125 Q666.3194,702.5625 666.3194,703.1719 L666.3194,704.625 Q666.3194,705.2344 666.085,705.5 Q665.8506,705.7656 665.4756,705.7656 Q665.1319,705.7656 664.9288,705.5625 Q664.7256,705.375 664.6163,704.8594 Q664.5694,704.5 664.3819,704.3125 Q664.0538,703.9375 663.4444,703.7188 Q662.835,703.5 662.21,703.5 Q661.4444,703.5 660.8038,703.8281 Q660.1788,704.1563 659.6788,704.9063 Q659.1944,705.6563 659.1944,706.6875 L659.1944,707.7813 Q659.1944,709.0156 660.085,709.8438 Q660.9756,710.6563 662.5694,710.6563 Q663.5069,710.6563 664.1631,710.4063 Q664.5538,710.25 664.9756,709.8125 Q665.2413,709.5469 665.3819,709.4688 Q665.5381,709.3906 665.7413,709.3906 Q666.0694,709.3906 666.3194,709.6563 Q666.585,709.9063 666.585,710.25 Q666.585,710.5938 666.2413,711 Q665.7413,711.5781 664.9444,711.9063 Q663.8663,712.3594 662.5694,712.3594 Q661.0538,712.3594 659.8506,711.7344 Q658.8663,711.2344 658.1788,710.1719 Q657.4913,709.0938 657.4913,707.8125 L657.4913,706.6563 Q657.4913,705.3281 658.1006,704.1875 Q658.7256,703.0313 659.8194,702.4219 Q660.9131,701.7969 662.1475,701.7969 Q662.8819,701.7969 663.5225,701.9688 Q664.1788,702.125 664.7256,702.4844 Z " fill="#000000"/><text fill="#000000" font-family="sans-serif" font-size="14" lengthAdjust="spacing" textLength="26" x="682.46" y="712.3379">field</text><line style="stroke:#181818;stroke-width:0.5;" x1="617.71" x2="740.71" y1="722.6094" y2="722.6094"/><text fill="#000000" font-family="sans-serif" font-size="14" lengthAdjust="spacing" textLength="74" x="622.71" y="741.1426">type : string</text><text fill="#000000" font-family="sans-serif" font-size="14" lengthAdjust="spacing" textLength="112" x="622.71" y="758.752">visibility : keyword</text><text fill="#000000" font-family="sans-serif" font-size="14" lengthAdjust="spacing" textLength="113" x="622.71" y="776.3613">optional : boolean</text><line style="stroke:#181818;stroke-width:0.5;" x1="617.71" x2="740.71" y1="783.4375" y2="783.4375"/></g><!--class overarch_method--><g id="elem_overarch_method"><rect codeLine="38" fill="#F1F1F1" height="83.2188" id="overarch_method" rx="2.5" ry="2.5" style="stroke:#181818;stroke-width:0.5;" width="124" x="423.21" y="699.6094"/><ellipse cx="458.46" cy="715.6094" fill="#ADD1B2" rx="11" ry="11" style="stroke:#181818;stroke-width:1.0;"/><path d="M461.2256,711.4844 Q461.3819,711.2656 461.5694,711.1563 Q461.7569,711.0469 461.9756,711.0469 Q462.3506,711.0469 462.585,711.3125 Q462.8194,711.5625 462.8194,712.1719 L462.8194,713.625 Q462.8194,714.2344 462.585,714.5 Q462.3506,714.7656 461.9756,714.7656 Q461.6319,714.7656 461.4288,714.5625 Q461.2256,714.375 461.1163,713.8594 Q461.0694,713.5 460.8819,713.3125 Q460.5538,712.9375 459.9444,712.7188 Q459.335,712.5 458.71,712.5 Q457.9444,712.5 457.3038,712.8281 Q456.6788,713.1563 456.1788,713.9063 Q455.6944,714.6563 455.6944,715.6875 L455.6944,716.7813 Q455.6944,718.0156 456.585,718.8438 Q457.4756,719.6563 459.0694,719.6563 Q460.0069,719.6563 460.6631,719.4063 Q461.0538,719.25 461.4756,718.8125 Q461.7413,718.5469 461.8819,718.4688 Q462.0381,718.3906 462.2413,718.3906 Q462.5694,718.3906 462.8194,718.6563 Q463.085,718.9063 463.085,719.25 Q463.085,719.5938 462.7413,720 Q462.2413,720.5781 461.4444,720.9063 Q460.3663,721.3594 459.0694,721.3594 Q457.5538,721.3594 456.3506,720.7344 Q455.3663,720.2344 454.6788,719.1719 Q453.9913,718.0938 453.9913,716.8125 L453.9913,715.6563 Q453.9913,714.3281 454.6006,713.1875 Q455.2256,712.0313 456.3194,711.4219 Q457.4131,710.7969 458.6475,710.7969 Q459.3819,710.7969 460.0225,710.9688 Q460.6788,711.125 461.2256,711.4844 Z " fill="#000000"/><text fill="#000000" font-family="sans-serif" font-size="14" lengthAdjust="spacing" textLength="47" x="476.96" y="721.3379">method</text><line style="stroke:#181818;stroke-width:0.5;" x1="424.21" x2="546.21" y1="731.6094" y2="731.6094"/><text fill="#000000" font-family="sans-serif" font-size="14" lengthAdjust="spacing" textLength="112" x="429.21" y="750.1426">visibility : keyword</text><text fill="#000000" font-family="sans-serif" font-size="14" lengthAdjust="spacing" textLength="74" x="429.21" y="767.752">type : string</text><line style="stroke:#181818;stroke-width:0.5;" x1="424.21" x2="546.21" y1="774.8281" y2="774.8281"/></g><!--class overarch_implementation--><g id="elem_overarch_implementation"><rect codeLine="42" fill="#F1F1F1" height="48" id="overarch_implementation" rx="2.5" ry="2.5" style="stroke:#181818;stroke-width:0.5;" width="127" x="806.71" y="582.6094"/><ellipse cx="821.71" cy="598.6094" fill="#ADD1B2" rx="11" ry="11" style="stroke:#181818;stroke-width:1.0;"/><path d="M824.4756,594.4844 Q824.6319,594.2656 824.8194,594.1563 Q825.0069,594.0469 825.2256,594.0469 Q825.6006,594.0469 825.835,594.3125 Q826.0694,594.5625 826.0694,595.1719 L826.0694,596.625 Q826.0694,597.2344 825.835,597.5 Q825.6006,597.7656 825.2256,597.7656 Q824.8819,597.7656 824.6788,597.5625 Q824.4756,597.375 824.3663,596.8594 Q824.3194,596.5 824.1319,596.3125 Q823.8038,595.9375 823.1944,595.7188 Q822.585,595.5 821.96,595.5 Q821.1944,595.5 820.5538,595.8281 Q819.9288,596.1563 819.4288,596.9063 Q818.9444,597.6563 818.9444,598.6875 L818.9444,599.7813 Q818.9444,601.0156 819.835,601.8438 Q820.7256,602.6563 822.3194,602.6563 Q823.2569,602.6563 823.9131,602.4063 Q824.3038,602.25 824.7256,601.8125 Q824.9913,601.5469 825.1319,601.4688 Q825.2881,601.3906 825.4913,601.3906 Q825.8194,601.3906 826.0694,601.6563 Q826.335,601.9063 826.335,602.25 Q826.335,602.5938 825.9913,603 Q825.4913,603.5781 824.6944,603.9063 Q823.6163,604.3594 822.3194,604.3594 Q820.8038,604.3594 819.6006,603.7344 Q818.6163,603.2344 817.9288,602.1719 Q817.2413,601.0938 817.2413,599.8125 L817.2413,598.6563 Q817.2413,597.3281 817.8506,596.1875 Q818.4756,595.0313 819.5694,594.4219 Q820.6631,593.7969 821.8975,593.7969 Q822.6319,593.7969 823.2725,593.9688 Q823.9288,594.125 824.4756,594.4844 Z " fill="#000000"/><text fill="#000000" font-family="sans-serif" font-size="14" lengthAdjust="spacing" textLength="95" x="835.71" y="604.3379">implementation</text><line style="stroke:#181818;stroke-width:0.5;" x1="807.71" x2="932.71" y1="614.6094" y2="614.6094"/><line style="stroke:#181818;stroke-width:0.5;" x1="807.71" x2="932.71" y1="622.6094" y2="622.6094"/></g><!--class overarch_inheritance--><g id="elem_overarch_inheritance"><rect codeLine="43" fill="#F1F1F1" height="48" id="overarch_inheritance" rx="2.5" ry="2.5" style="stroke:#181818;stroke-width:0.5;" width="102" x="969.21" y="582.6094"/><ellipse cx="984.21" cy="598.6094" fill="#ADD1B2" rx="11" ry="11" style="stroke:#181818;stroke-width:1.0;"/><path d="M986.9756,594.4844 Q987.1319,594.2656 987.3194,594.1563 Q987.5069,594.0469 987.7256,594.0469 Q988.1006,594.0469 988.335,594.3125 Q988.5694,594.5625 988.5694,595.1719 L988.5694,596.625 Q988.5694,597.2344 988.335,597.5 Q988.1006,597.7656 987.7256,597.7656 Q987.3819,597.7656 987.1788,597.5625 Q986.9756,597.375 986.8663,596.8594 Q986.8194,596.5 986.6319,596.3125 Q986.3038,595.9375 985.6944,595.7188 Q985.085,595.5 984.46,595.5 Q983.6944,595.5 983.0538,595.8281 Q982.4288,596.1563 981.9288,596.9063 Q981.4444,597.6563 981.4444,598.6875 L981.4444,599.7813 Q981.4444,601.0156 982.335,601.8438 Q983.2256,602.6563 984.8194,602.6563 Q985.7569,602.6563 986.4131,602.4063 Q986.8038,602.25 987.2256,601.8125 Q987.4913,601.5469 987.6319,601.4688 Q987.7881,601.3906 987.9913,601.3906 Q988.3194,601.3906 988.5694,601.6563 Q988.835,601.9063 988.835,602.25 Q988.835,602.5938 988.4913,603 Q987.9913,603.5781 987.1944,603.9063 Q986.1163,604.3594 984.8194,604.3594 Q983.3038,604.3594 982.1006,603.7344 Q981.1163,603.2344 980.4288,602.1719 Q979.7413,601.0938 979.7413,599.8125 L979.7413,598.6563 Q979.7413,597.3281 980.3506,596.1875 Q980.9756,595.0313 982.0694,594.4219 Q983.1631,593.7969 984.3975,593.7969 Q985.1319,593.7969 985.7725,593.9688 Q986.4288,594.125 986.9756,594.4844 Z " fill="#000000"/><text fill="#000000" font-family="sans-serif" font-size="14" lengthAdjust="spacing" textLength="70" x="998.21" y="604.3379">inheritance</text><line style="stroke:#181818;stroke-width:0.5;" x1="970.21" x2="1070.21" y1="614.6094" y2="614.6094"/><line style="stroke:#181818;stroke-width:0.5;" x1="970.21" x2="1070.21" y1="622.6094" y2="622.6094"/></g><!--class overarch_composition--><g id="elem_overarch_composition"><rect codeLine="44" fill="#F1F1F1" height="48" id="overarch_composition" rx="2.5" ry="2.5" style="stroke:#181818;stroke-width:0.5;" width="107" x="1106.71" y="582.6094"/><ellipse cx="1121.71" cy="598.6094" fill="#ADD1B2" rx="11" ry="11" style="stroke:#181818;stroke-width:1.0;"/><path d="M1124.4756,594.4844 Q1124.6319,594.2656 1124.8194,594.1563 Q1125.0069,594.0469 1125.2256,594.0469 Q1125.6006,594.0469 1125.835,594.3125 Q1126.0694,594.5625 1126.0694,595.1719 L1126.0694,596.625 Q1126.0694,597.2344 1125.835,597.5 Q1125.6006,597.7656 1125.2256,597.7656 Q1124.8819,597.7656 1124.6787,597.5625 Q1124.4756,597.375 1124.3662,596.8594 Q1124.3194,596.5 1124.1319,596.3125 Q1123.8037,595.9375 1123.1944,595.7188 Q1122.585,595.5 1121.96,595.5 Q1121.1944,595.5 1120.5537,595.8281 Q1119.9287,596.1563 1119.4287,596.9063 Q1118.9444,597.6563 1118.9444,598.6875 L1118.9444,599.7813 Q1118.9444,601.0156 1119.835,601.8438 Q1120.7256,602.6563 1122.3194,602.6563 Q1123.2569,602.6563 1123.9131,602.4063 Q1124.3037,602.25 1124.7256,601.8125 Q1124.9912,601.5469 1125.1319,601.4688 Q1125.2881,601.3906 1125.4912,601.3906 Q1125.8194,601.3906 1126.0694,601.6563 Q1126.335,601.9063 1126.335,602.25 Q1126.335,602.5938 1125.9912,603 Q1125.4912,603.5781 1124.6944,603.9063 Q1123.6162,604.3594 1122.3194,604.3594 Q1120.8037,604.3594 1119.6006,603.7344 Q1118.6162,603.2344 1117.9287,602.1719 Q1117.2412,601.0938 1117.2412,599.8125 L1117.2412,598.6563 Q1117.2412,597.3281 1117.8506,596.1875 Q1118.4756,595.0313 1119.5694,594.4219 Q1120.6631,593.7969 1121.8975,593.7969 Q1122.6319,593.7969 1123.2725,593.9688 Q1123.9287,594.125 1124.4756,594.4844 Z " fill="#000000"/><text fill="#000000" font-family="sans-serif" font-size="14" lengthAdjust="spacing" textLength="75" x="1135.71" y="604.3379">composition</text><line style="stroke:#181818;stroke-width:0.5;" x1="1107.71" x2="1212.71" y1="614.6094" y2="614.6094"/><line style="stroke:#181818;stroke-width:0.5;" x1="1107.71" x2="1212.71" y1="622.6094" y2="622.6094"/></g><!--class overarch_aggregation--><g id="elem_overarch_aggregation"><rect codeLine="45" fill="#F1F1F1" height="48" id="overarch_aggregation" rx="2.5" ry="2.5" style="stroke:#181818;stroke-width:0.5;" width="108" x="1249.21" y="582.6094"/><ellipse cx="1264.21" cy="598.6094" fill="#ADD1B2" rx="11" ry="11" style="stroke:#181818;stroke-width:1.0;"/><path d="M1266.9756,594.4844 Q1267.1319,594.2656 1267.3194,594.1563 Q1267.5069,594.0469 1267.7256,594.0469 Q1268.1006,594.0469 1268.335,594.3125 Q1268.5694,594.5625 1268.5694,595.1719 L1268.5694,596.625 Q1268.5694,597.2344 1268.335,597.5 Q1268.1006,597.7656 1267.7256,597.7656 Q1267.3819,597.7656 1267.1787,597.5625 Q1266.9756,597.375 1266.8662,596.8594 Q1266.8194,596.5 1266.6319,596.3125 Q1266.3037,595.9375 1265.6944,595.7188 Q1265.085,595.5 1264.46,595.5 Q1263.6944,595.5 1263.0537,595.8281 Q1262.4287,596.1563 1261.9287,596.9063 Q1261.4444,597.6563 1261.4444,598.6875 L1261.4444,599.7813 Q1261.4444,601.0156 1262.335,601.8438 Q1263.2256,602.6563 1264.8194,602.6563 Q1265.7569,602.6563 1266.4131,602.4063 Q1266.8037,602.25 1267.2256,601.8125 Q1267.4912,601.5469 1267.6319,601.4688 Q1267.7881,601.3906 1267.9912,601.3906 Q1268.3194,601.3906 1268.5694,601.6563 Q1268.835,601.9063 1268.835,602.25 Q1268.835,602.5938 1268.4912,603 Q1267.9912,603.5781 1267.1944,603.9063 Q1266.1162,604.3594 1264.8194,604.3594 Q1263.3037,604.3594 1262.1006,603.7344 Q1261.1162,603.2344 1260.4287,602.1719 Q1259.7412,601.0938 1259.7412,599.8125 L1259.7412,598.6563 Q1259.7412,597.3281 1260.3506,596.1875 Q1260.9756,595.0313 1262.0694,594.4219 Q1263.1631,593.7969 1264.3975,593.7969 Q1265.1319,593.7969 1265.7725,593.9688 Q1266.4287,594.125 1266.9756,594.4844 Z " fill="#000000"/><text fill="#000000" font-family="sans-serif" font-size="14" lengthAdjust="spacing" textLength="76" x="1278.21" y="604.3379">aggregation</text><line style="stroke:#181818;stroke-width:0.5;" x1="1250.21" x2="1356.21" y1="614.6094" y2="614.6094"/><line style="stroke:#181818;stroke-width:0.5;" x1="1250.21" x2="1356.21" y1="622.6094" y2="622.6094"/></g><!--class overarch_association--><g id="elem_overarch_association"><rect codeLine="46" fill="#F1F1F1" height="48" id="overarch_association" rx="2.5" ry="2.5" style="stroke:#181818;stroke-width:0.5;" width="103" x="1392.71" y="582.6094"/><ellipse cx="1407.71" cy="598.6094" fill="#ADD1B2" rx="11" ry="11" style="stroke:#181818;stroke-width:1.0;"/><path d="M1410.4756,594.4844 Q1410.6319,594.2656 1410.8194,594.1563 Q1411.0069,594.0469 1411.2256,594.0469 Q1411.6006,594.0469 1411.835,594.3125 Q1412.0694,594.5625 1412.0694,595.1719 L1412.0694,596.625 Q1412.0694,597.2344 1411.835,597.5 Q1411.6006,597.7656 1411.2256,597.7656 Q1410.8819,597.7656 1410.6787,597.5625 Q1410.4756,597.375 1410.3662,596.8594 Q1410.3194,596.5 1410.1319,596.3125 Q1409.8037,595.9375 1409.1944,595.7188 Q1408.585,595.5 1407.96,595.5 Q1407.1944,595.5 1406.5537,595.8281 Q1405.9287,596.1563 1405.4287,596.9063 Q1404.9444,597.6563 1404.9444,598.6875 L1404.9444,599.7813 Q1404.9444,601.0156 1405.835,601.8438 Q1406.7256,602.6563 1408.3194,602.6563 Q1409.2569,602.6563 1409.9131,602.4063 Q1410.3037,602.25 1410.7256,601.8125 Q1410.9912,601.5469 1411.1319,601.4688 Q1411.2881,601.3906 1411.4912,601.3906 Q1411.8194,601.3906 1412.0694,601.6563 Q1412.335,601.9063 1412.335,602.25 Q1412.335,602.5938 1411.9912,603 Q1411.4912,603.5781 1410.6944,603.9063 Q1409.6162,604.3594 1408.3194,604.3594 Q1406.8037,604.3594 1405.6006,603.7344 Q1404.6162,603.2344 1403.9287,602.1719 Q1403.2412,601.0938 1403.2412,599.8125 L1403.2412,598.6563 Q1403.2412,597.3281 1403.8506,596.1875 Q1404.4756,595.0313 1405.5694,594.4219 Q1406.6631,593.7969 1407.8975,593.7969 Q1408.6319,593.7969 1409.2725,593.9688 Q1409.9287,594.125 1410.4756,594.4844 Z " fill="#000000"/><text fill="#000000" font-family="sans-serif" font-size="14" lengthAdjust="spacing" textLength="71" x="1421.71" y="604.3379">association</text><line style="stroke:#181818;stroke-width:0.5;" x1="1393.71" x2="1494.71" y1="614.6094" y2="614.6094"/><line style="stroke:#181818;stroke-width:0.5;" x1="1393.71" x2="1494.71" y1="622.6094" y2="622.6094"/></g><!--class overarch_dependency--><g id="elem_overarch_dependency"><rect codeLine="47" fill="#F1F1F1" height="48" id="overarch_dependency" rx="2.5" ry="2.5" style="stroke:#181818;stroke-width:0.5;" width="110" x="1531.21" y="582.6094"/><ellipse cx="1546.21" cy="598.6094" fill="#ADD1B2" rx="11" ry="11" style="stroke:#181818;stroke-width:1.0;"/><path d="M1548.9756,594.4844 Q1549.1319,594.2656 1549.3194,594.1563 Q1549.5069,594.0469 1549.7256,594.0469 Q1550.1006,594.0469 1550.335,594.3125 Q1550.5694,594.5625 1550.5694,595.1719 L1550.5694,596.625 Q1550.5694,597.2344 1550.335,597.5 Q1550.1006,597.7656 1549.7256,597.7656 Q1549.3819,597.7656 1549.1787,597.5625 Q1548.9756,597.375 1548.8662,596.8594 Q1548.8194,596.5 1548.6319,596.3125 Q1548.3037,595.9375 1547.6944,595.7188 Q1547.085,595.5 1546.46,595.5 Q1545.6944,595.5 1545.0537,595.8281 Q1544.4287,596.1563 1543.9287,596.9063 Q1543.4444,597.6563 1543.4444,598.6875 L1543.4444,599.7813 Q1543.4444,601.0156 1544.335,601.8438 Q1545.2256,602.6563 1546.8194,602.6563 Q1547.7569,602.6563 1548.4131,602.4063 Q1548.8037,602.25 1549.2256,601.8125 Q1549.4912,601.5469 1549.6319,601.4688 Q1549.7881,601.3906 1549.9912,601.3906 Q1550.3194,601.3906 1550.5694,601.6563 Q1550.835,601.9063 1550.835,602.25 Q1550.835,602.5938 1550.4912,603 Q1549.9912,603.5781 1549.1944,603.9063 Q1548.1162,604.3594 1546.8194,604.3594 Q1545.3037,604.3594 1544.1006,603.7344 Q1543.1162,603.2344 1542.4287,602.1719 Q1541.7412,601.0938 1541.7412,599.8125 L1541.7412,598.6563 Q1541.7412,597.3281 1542.3506,596.1875 Q1542.9756,595.0313 1544.0694,594.4219 Q1545.1631,593.7969 1546.3975,593.7969 Q1547.1319,593.7969 1547.7725,593.9688 Q1548.4287,594.125 1548.9756,594.4844 Z " fill="#000000"/><text fill="#000000" font-family="sans-serif" font-size="14" lengthAdjust="spacing" textLength="78" x="1560.21" y="604.3379">dependency</text><line style="stroke:#181818;stroke-width:0.5;" x1="1532.21" x2="1640.21" y1="614.6094" y2="614.6094"/><line style="stroke:#181818;stroke-width:0.5;" x1="1532.21" x2="1640.21" y1="622.6094" y2="622.6094"/></g><!--reverse link overarch_element to overarch_identifiableElement--><g id="link_overarch_element_overarch_identifiableElement"><path codeLine="48" d="M698.94,137.6494 C686.52,157.3194 672.6,179.3794 661.53,196.9094 " fill="none" id="overarch_element-backto-overarch_identifiableElement" style="stroke:#181818;stroke-width:1.0;"/><polygon fill="none" points="693.2,133.6294,709.79,120.4594,705.04,141.1094,693.2,133.6294" style="stroke:#181818;stroke-width:1.0;"/></g><!--reverse link overarch_element to overarch_namedElement--><g id="link_overarch_element_overarch_namedElement"><path codeLine="49" d="M761.32,137.3994 C771.88,154.1294 783.55,172.6094 793.63,188.5794 " fill="none" id="overarch_element-backto-overarch_namedElement" style="stroke:#181818;stroke-width:1.0;"/><polygon fill="none" points="755.38,141.1094,750.63,120.4594,767.22,133.6294,755.38,141.1094" style="stroke:#181818;stroke-width:1.0;"/></g><!--reverse link overarch_identifiableElement to overarch_identifiableNamedElement--><g id="link_overarch_identifiableElement_overarch_identifiableNamedElement"><path codeLine="50" d="M554.98,271.9094 C513.21,291.6794 464.56,314.6994 429.22,331.4194 " fill="none" id="overarch_identifiableElement-backto-overarch_identifiableNamedElement" style="stroke:#181818;stroke-width:1.0;"/><polygon fill="none" points="552.24,265.4594,573.32,263.2394,558.23,278.1194,552.24,265.4594" style="stroke:#181818;stroke-width:1.0;"/></g><!--reverse link overarch_namedElement to overarch_identifiableNamedElement--><g id="link_overarch_namedElement_overarch_identifiableNamedElement"><path codeLine="51" d="M735.11,271.0994 C668.24,292.8894 561.84,316.5794 481.94,333.5594 " fill="none" id="overarch_namedElement-backto-overarch_identifiableNamedElement" style="stroke:#181818;stroke-width:1.0;"/><polygon fill="none" points="732.91,264.4494,754.1,264.5594,737.47,277.6894,732.91,264.4494" style="stroke:#181818;stroke-width:1.0;"/></g><!--reverse link overarch_identifiableElement to overarch_relationalElement--><g id="link_overarch_identifiableElement_overarch_relationalElement"><path codeLine="52" d="M735.65,270.9694 C853.3,320.6194 1051.78,404.3794 1158.35,449.3594 " fill="none" id="overarch_identifiableElement-backto-overarch_relationalElement" style="stroke:#181818;stroke-width:1.0;"/><polygon fill="none" points="732.84,277.3794,717.13,263.1494,738.28,264.4794,732.84,277.3794" style="stroke:#181818;stroke-width:1.0;"/></g><!--reverse link overarch_namedElement to overarch_namedRelationalElement--><g id="link_overarch_namedElement_overarch_namedRelationalElement"><path codeLine="53" d="M903.27,264.1094 C1093.2,338.6694 1551.59,518.6094 1714.52,582.5694 " fill="none" id="overarch_namedElement-backto-overarch_namedRelationalElement" style="stroke:#181818;stroke-width:1.0;"/><polygon fill="none" points="900.47,270.5294,884.41,256.6994,905.58,257.4994,900.47,270.5294" style="stroke:#181818;stroke-width:1.0;"/></g><!--reverse link overarch_relationalElement to overarch_namedRelationalElement--><g id="link_overarch_relationalElement_overarch_namedRelationalElement"><path codeLine="54" d="M1323.51,503.1394 C1421.74,525.5194 1576.49,560.7894 1676.41,583.5494 " fill="none" id="overarch_relationalElement-backto-overarch_namedRelationalElement" style="stroke:#181818;stroke-width:1.0;"/><polygon fill="none" points="1321.69,509.9094,1303.74,498.6394,1324.8,496.2594,1321.69,509.9094" style="stroke:#181818;stroke-width:1.0;"/></g><!--reverse link overarch_identifiableNamedElement to overarch_classModelElement--><g id="link_overarch_identifiableNamedElement_overarch_classModelElement"><path codeLine="55" d="M446.45,388.4394 C491.01,409.8494 548.74,437.5994 588.97,456.9294 " fill="none" id="overarch_identifiableNamedElement-backto-overarch_classModelElement" style="stroke:#181818;stroke-width:1.0;"/><polygon fill="none" points="443.24,394.6694,428.25,379.6894,449.31,382.0494,443.24,394.6694" style="stroke:#181818;stroke-width:1.0;"/></g><!--reverse link overarch_classModelElement to overarch_package--><g id="link_overarch_classModelElement_overarch_package"><path codeLine="56" d="M536.34,499.1494 C444.72,516.9194 306.94,547.1294 190.21,582.6094 C189.89,582.7094 189.56,582.8094 189.23,582.9094 " fill="none" id="overarch_classModelElement-backto-overarch_package" style="stroke:#181818;stroke-width:1.0;"/><polygon fill="none" points="535.07,492.2594,556.02,495.3794,537.7,506.0094,535.07,492.2594" style="stroke:#181818;stroke-width:1.0;"/></g><!--link overarch_package to overarch_classModelElement--><g id="link_overarch_package_overarch_classModelElement"><path codeLine="57" d="M201.8,590.4194 C209.73,587.6394 217.68,584.8994 225.21,582.6094 C333.07,549.8294 458.89,521.5494 543.04,503.4094 " fill="none" id="overarch_package-overarch_classModelElement" style="stroke:#181818;stroke-width:1.0;"/><polygon fill="#181818" points="189.4,594.7694,196.3852,596.5602,200.7249,590.8011,193.7397,589.0103,189.4,594.7694" style="stroke:#181818;stroke-width:1.0;"/><polygon fill="#181818" points="555.92,500.6494,546.2806,498.6291,551.0316,501.6996,547.961,506.4506,555.92,500.6494" style="stroke:#181818;stroke-width:1.0;"/><line style="stroke:#181818;stroke-width:1.0;" x1="551.0316" x2="543.205" y1="501.6996" y2="503.3744"/><text fill="#000000" font-family="sans-serif" font-size="13" lengthAdjust="spacing" textLength="22" x="526.2772" y="499.1147">0..n</text></g><!--reverse link overarch_classModelElement to overarch_namespace--><g id="link_overarch_classModelElement_overarch_namespace"><path codeLine="58" d="M540.3,511.5594 C472.57,533.9094 384.93,564.1094 329.72,584.1894 " fill="none" id="overarch_classModelElement-backto-overarch_namespace" style="stroke:#181818;stroke-width:1.0;"/><polygon fill="none" points="538.53,504.7794,559.72,505.1894,542.9,518.0794,538.53,504.7794" style="stroke:#181818;stroke-width:1.0;"/></g><!--link overarch_namespace to overarch_classModelElement--><g id="link_overarch_namespace_overarch_classModelElement"><path codeLine="59" d="M342.59,586.6294 C406.52,566.0894 503.03,533.1394 568.16,509.7294 " fill="none" id="overarch_namespace-overarch_classModelElement" style="stroke:#181818;stroke-width:1.0;"/><polygon fill="#181818" points="329.86,590.6894,336.7907,592.6809,341.2946,587.0493,334.3639,585.0578,329.86,590.6894" style="stroke:#181818;stroke-width:1.0;"/><polygon fill="#181818" points="580.72,505.1894,570.8965,504.4828,576.017,506.8871,573.6128,512.0076,580.72,505.1894" style="stroke:#181818;stroke-width:1.0;"/><line style="stroke:#181818;stroke-width:1.0;" x1="576.017" x2="568.495" y1="506.8871" y2="509.6094"/><text fill="#000000" font-family="sans-serif" font-size="13" lengthAdjust="spacing" textLength="22" x="542.2693" y="526.5468">0..n</text></g><!--reverse link overarch_classModelElement to overarch_interface--><g id="link_overarch_classModelElement_overarch_interface"><path codeLine="60" d="M576.59,514.7994 C537.11,536.0994 486.56,563.3594 451.19,582.4294 " fill="none" id="overarch_classModelElement-backto-overarch_interface" style="stroke:#181818;stroke-width:1.0;"/><polygon fill="none" points="573.48,508.5294,594.41,505.1894,580.12,520.8494,573.48,508.5294" style="stroke:#181818;stroke-width:1.0;"/></g><!--link overarch_interface to overarch_method--><g id="link_overarch_interface_overarch_method"><path codeLine="61" d="M428.26,642.1194 C436.38,656.0794 445.92,672.5094 454.86,687.8794 " fill="none" id="overarch_interface-overarch_method" style="stroke:#181818;stroke-width:1.0;"/><polygon fill="#181818" points="421.62,630.6894,421.1807,637.8871,427.6558,641.0609,428.0951,633.8632,421.62,630.6894" style="stroke:#181818;stroke-width:1.0;"/><polygon fill="#181818" points="461.53,699.3694,460.4603,689.5788,459.0151,695.0479,453.546,693.6026,461.53,699.3694" style="stroke:#181818;stroke-width:1.0;"/><line style="stroke:#181818;stroke-width:1.0;" x1="459.0151" x2="455.005" y1="695.0479" y2="688.1294"/><text fill="#000000" font-family="sans-serif" font-size="13" lengthAdjust="spacing" textLength="22" x="433.7861" y="688.6373">0..n</text></g><!--reverse link overarch_classModelElement to overarch_protocol--><g id="link_overarch_classModelElement_overarch_protocol"><path codeLine="62" d="M603.27,520.5694 C585.36,540.8594 563.97,565.0894 548.62,582.4794 " fill="none" id="overarch_classModelElement-backto-overarch_protocol" style="stroke:#181818;stroke-width:1.0;"/><polygon fill="none" points="598.23,515.6994,616.71,505.3394,608.72,524.9694,598.23,515.6994" style="stroke:#181818;stroke-width:1.0;"/></g><!--link overarch_protocol to overarch_method--><g id="link_overarch_protocol_overarch_method"><path codeLine="63" d="M516.68,643.1294 C512.33,656.5294 507.28,672.0894 502.52,686.7694 " fill="none" id="overarch_protocol-overarch_method" style="stroke:#181818;stroke-width:1.0;"/><polygon fill="#181818" points="520.72,630.6894,515.0619,635.16,517.0125,642.1023,522.6705,637.6317,520.72,630.6894" style="stroke:#181818;stroke-width:1.0;"/><polygon fill="#181818" points="498.43,699.3694,505.015,692.0456,499.9748,694.614,497.4064,689.5739,498.43,699.3694" style="stroke:#181818;stroke-width:1.0;"/><line style="stroke:#181818;stroke-width:1.0;" x1="499.9748" x2="502.445" y1="694.614" y2="687.0044"/><text fill="#000000" font-family="sans-serif" font-size="13" lengthAdjust="spacing" textLength="22" x="476.7977" y="688.6373">0..n</text></g><!--reverse link overarch_classModelElement to overarch_class--><g id="link_overarch_classModelElement_overarch_class"><path codeLine="64" d="M637.21,525.4594 C637.21,544.6594 637.21,566.4694 637.21,582.4794 " fill="none" id="overarch_classModelElement-backto-overarch_class" style="stroke:#181818;stroke-width:1.0;"/><polygon fill="none" points="630.21,525.3394,637.21,505.3394,644.21,525.3394,630.21,525.3394" style="stroke:#181818;stroke-width:1.0;"/></g><!--link overarch_class to overarch_field--><g id="link_overarch_class_overarch_field"><path codeLine="65" d="M648.49,643.1894 C651.86,653.8394 655.67,665.8494 659.42,677.6894 " fill="none" id="overarch_class-overarch_field" style="stroke:#181818;stroke-width:1.0;"/><polygon fill="#181818" points="644.53,630.6894,642.5312,637.6179,648.1581,642.1278,650.1568,635.1992,644.53,630.6894" style="stroke:#181818;stroke-width:1.0;"/><polygon fill="#181818" points="663.45,690.4094,664.5417,680.6212,661.9383,685.6434,656.9161,683.0399,663.45,690.4094" style="stroke:#181818;stroke-width:1.0;"/><line style="stroke:#181818;stroke-width:1.0;" x1="661.9383" x2="659.525" y1="685.6434" y2="678.0144"/><text fill="#000000" font-family="sans-serif" font-size="13" lengthAdjust="spacing" textLength="22" x="637.6869" y="679.6866">0..n</text></g><!--link overarch_class to overarch_method--><g id="link_overarch_class_overarch_method"><path codeLine="66" d="M600.78,639.3694 C583.11,654.7694 561.5,673.6094 541.76,690.8094 " fill="none" id="overarch_class-overarch_method" style="stroke:#181818;stroke-width:1.0;"/><polygon fill="#181818" points="610.73,630.6894,603.5788,631.6168,601.6844,638.5746,608.8356,637.6472,610.73,630.6894" style="stroke:#181818;stroke-width:1.0;"/><polygon fill="#181818" points="531.95,699.3694,541.3626,696.4706,535.719,696.0839,536.1058,690.4402,531.95,699.3694" style="stroke:#181818;stroke-width:1.0;"/><line style="stroke:#181818;stroke-width:1.0;" x1="535.719" x2="541.74" y1="696.0839" y2="690.8294"/><text fill="#000000" font-family="sans-serif" font-size="13" lengthAdjust="spacing" textLength="22" x="515.8694" y="688.6373">0..n</text></g><!--reverse link overarch_classModelElement to overarch_enum--><g id="link_overarch_classModelElement_overarch_enum"><path codeLine="67" d="M668.91,520.8694 C685.45,541.0994 705.14,565.1794 719.3,582.4794 " fill="none" id="overarch_classModelElement-backto-overarch_enum" style="stroke:#181818;stroke-width:1.0;"/><polygon fill="none" points="663.45,525.2494,656.21,505.3394,674.29,516.3894,663.45,525.2494" style="stroke:#181818;stroke-width:1.0;"/></g><!--reverse link overarch_relationalElement to overarch_implementation--><g id="link_overarch_relationalElement_overarch_implementation"><path codeLine="68" d="M1139.34,513.5394 C1075.1,535.5194 990.93,564.3094 933.95,583.7994 " fill="none" id="overarch_relationalElement-backto-overarch_implementation" style="stroke:#181818;stroke-width:1.0;"/><polygon fill="none" points="1137.4,506.7994,1158.59,506.9494,1141.93,520.0494,1137.4,506.7994" style="stroke:#181818;stroke-width:1.0;"/></g><!--reverse link overarch_classModelElement to overarch_implementation--><g id="link_overarch_classModelElement_overarch_implementation"><path codeLine="69" d="M698.62,514.6594 C738.83,535.9694 790.41,563.3094 826.48,582.4294 " fill="none" id="overarch_classModelElement-backto-overarch_implementation" style="stroke:#181818;stroke-width:1.0;"/><polygon fill="none" points="695.16,520.7494,680.76,505.1894,701.71,508.3794,695.16,520.7494" style="stroke:#181818;stroke-width:1.0;"/></g><!--reverse link overarch_relationalElement to overarch_inheritance--><g id="link_overarch_relationalElement_overarch_inheritance"><path codeLine="70" d="M1144.36,532.9394 C1114.99,550.1394 1083.62,568.4994 1059.76,582.4594 " fill="none" id="overarch_relationalElement-backto-overarch_inheritance" style="stroke:#181818;stroke-width:1.0;"/><polygon fill="none" points="1141.03,526.7794,1161.83,522.7194,1148.1,538.8594,1141.03,526.7794" style="stroke:#181818;stroke-width:1.0;"/></g><!--reverse link overarch_classModelElement to overarch_inheritance--><g id="link_overarch_classModelElement_overarch_inheritance"><path codeLine="71" d="M729.05,511.1794 C791.7,531.0994 876.55,558.2194 951.21,582.6094 C956.97,584.4894 963,586.4794 968.99,588.4594 " fill="none" id="overarch_classModelElement-backto-overarch_inheritance" style="stroke:#181818;stroke-width:1.0;"/><polygon fill="none" points="726.88,517.8394,709.94,505.1194,731.12,504.4994,726.88,517.8394" style="stroke:#181818;stroke-width:1.0;"/></g><!--reverse link overarch_relationalElement to overarch_composition--><g id="link_overarch_relationalElement_overarch_composition"><path codeLine="72" d="M1197.55,540.6594 C1189.01,555.5194 1180.32,570.6194 1173.48,582.5194 " fill="none" id="overarch_relationalElement-backto-overarch_composition" style="stroke:#181818;stroke-width:1.0;"/><polygon fill="none" points="1191.73,536.7394,1207.77,522.8894,1203.87,543.7194,1191.73,536.7394" style="stroke:#181818;stroke-width:1.0;"/></g><!--reverse link overarch_classModelElement to overarch_composition--><g id="link_overarch_classModelElement_overarch_composition"><path codeLine="73" d="M738.37,501.7494 C830.41,520.2994 969.75,550.0594 1089.21,582.6094 C1094.84,584.1394 1100.68,585.8494 1106.49,587.6194 " fill="none" id="overarch_classModelElement-backto-overarch_composition" style="stroke:#181818;stroke-width:1.0;"/><polygon fill="none" points="736.85,508.5794,718.61,497.7994,739.59,494.8594,736.85,508.5794" style="stroke:#181818;stroke-width:1.0;"/></g><!--reverse link overarch_relationalElement to overarch_aggregation--><g id="link_overarch_relationalElement_overarch_aggregation"><path codeLine="74" d="M1265.06,540.1694 C1273.81,555.1894 1282.74,570.4894 1289.75,582.5194 " fill="none" id="overarch_relationalElement-backto-overarch_aggregation" style="stroke:#181818;stroke-width:1.0;"/><polygon fill="none" points="1259.01,543.6894,1254.98,522.8894,1271.11,536.6394,1259.01,543.6894" style="stroke:#181818;stroke-width:1.0;"/></g><!--reverse link overarch_classModelElement to overarch_aggregation--><g id="link_overarch_classModelElement_overarch_aggregation"><path codeLine="75" d="M738.8,494.8394 C857.79,510.7694 1060.37,541.0894 1231.21,582.6094 C1237.08,584.0394 1243.16,585.6894 1249.19,587.4494 " fill="none" id="overarch_classModelElement-backto-overarch_aggregation" style="stroke:#181818;stroke-width:1.0;"/><polygon fill="none" points="737.56,501.7294,718.65,492.1694,739.4,487.8494,737.56,501.7294" style="stroke:#181818;stroke-width:1.0;"/></g><!--reverse link overarch_relationalElement to overarch_association--><g id="link_overarch_relationalElement_overarch_association"><path codeLine="76" d="M1318.88,532.9394 C1348.54,550.1394 1380.2,568.4994 1404.28,582.4594 " fill="none" id="overarch_relationalElement-backto-overarch_association" style="stroke:#181818;stroke-width:1.0;"/><polygon fill="none" points="1315.04,538.8094,1301.25,522.7194,1322.06,526.6994,1315.04,538.8094" style="stroke:#181818;stroke-width:1.0;"/></g><!--reverse link overarch_classModelElement to overarch_association--><g id="link_overarch_classModelElement_overarch_association"><path codeLine="77" d="M738.57,489.8894 C881.82,502.2494 1151.03,530.4594 1375.21,582.6094 C1380.87,583.9294 1386.72,585.5094 1392.51,587.2294 " fill="none" id="overarch_classModelElement-backto-overarch_association" style="stroke:#181818;stroke-width:1.0;"/><polygon fill="none" points="737.71,496.8394,718.37,488.1794,738.89,482.8894,737.71,496.8394" style="stroke:#181818;stroke-width:1.0;"/></g><!--reverse link overarch_relationalElement to overarch_dependency--><g id="link_overarch_relationalElement_overarch_dependency"><path codeLine="78" d="M1323.19,514.1094 C1389.06,537.0194 1475.57,567.1194 1531.04,586.4194 " fill="none" id="overarch_relationalElement-backto-overarch_dependency" style="stroke:#181818;stroke-width:1.0;"/><polygon fill="none" points="1320.5,520.5794,1303.91,507.3994,1325.1,507.3594,1320.5,520.5794" style="stroke:#181818;stroke-width:1.0;"/></g><!--reverse link overarch_classModelElement to overarch_dependency--><g id="link_overarch_classModelElement_overarch_dependency"><path codeLine="79" d="M738.47,487.4294 C902.65,497.4694 1236.45,523.6994 1513.21,582.6094 C1519.06,583.8494 1525.11,585.3694 1531.1,587.0294 " fill="none" id="overarch_classModelElement-backto-overarch_dependency" style="stroke:#181818;stroke-width:1.0;"/><polygon fill="none" points="737.91,494.4094,718.36,486.2294,738.74,480.4394,737.91,494.4094" style="stroke:#181818;stroke-width:1.0;"/></g><!--reverse link overarch_namedElement to overarch_field--><g id="link_overarch_namedElement_overarch_field"><path codeLine="80" d="M904.55,233.9494 C1204.58,246.6794 2177.46,312.8594 1887.21,630.6094 C1809.36,715.8294 978.79,735.3994 741.93,739.2594 " fill="none" id="overarch_namedElement-backto-overarch_field" style="stroke:#181818;stroke-width:1.0;"/><polygon fill="none" points="904.25,240.9394,884.55,233.1394,904.82,226.9494,904.25,240.9394" style="stroke:#181818;stroke-width:1.0;"/></g><!--reverse link overarch_namedElement to overarch_method--><g id="link_overarch_namedElement_overarch_method"><path codeLine="81" d="M735.78,271.5494 C625.79,322.7494 95.07,566.9694 85.21,582.6094 C6,708.2394 291.64,733.7294 422.77,738.8494 " fill="none" id="overarch_namedElement-backto-overarch_method" style="stroke:#181818;stroke-width:1.0;"/><polygon fill="none" points="732.91,265.1594,753.99,262.9994,738.86,277.8294,732.91,265.1594" style="stroke:#181818;stroke-width:1.0;"/></g><!--SRC=[hLNBZjmW4Bpp5MYEAtcLSnJb4kqn6oa_467Szg35O04xgz4c_nwCBRin-2NDoN9tTLMxQHTEE0dqrmtCJS07rJLrLw0_9BEM_jGLIFeYeGNbB66bTOPnHtd8Nc18N2YpL7i2PlZrpnYaduHIN_oLli7zGvkA_4lgHUM1eXQib51aoJ3Y1H6BQfDOiHQgF6D8OQe-uCayWL2DVw_0ylbzf-aD8OnxZKHJJWEIEQ4LatckEOyxhurkqHWeTVh0LFQq0kftAfZoEU1N9VWQqPJ6FTltqjsxQE0zRclWuL6q_IhcXG8Wh2fgTYpk67zZ3SG5On31-e-sFWpfB48OGOLoOEe4EeMnkD5ESoqNwcCK0SCZyr480kgzNVneFe80jG1PnOWG2cDVplmch2Y55EuUBP3kXaFtmL9h2KoHYRy5TzKBWI4M55OOO-5vY6qt75NOiiKaermq-IiOuPXAPpyby51rssahKW6KG73MD0QQJ3yeWU7MQYvoy3c1u1LqeBmZy7kCdkCzE37HRt-BOjCDzqgmtP5DMrsNUiroH4PwjdY_WSJo3YddpOji6Ecv-bLJZsaIHo8RPXMNZjv44hDwAehlb5w-F3_xXNk4qcHk9EDt3rUR_95aB3ElDhZBYT6DnafIgtsCGCWlu2lKmNgFGSzsqVl-yOsEtVJ4UQtKxUhDNdncEJ95Uqh8naySOQveJmdT0CULiaMxIlFbSK8fLxIdD5yynuLoDHjclFW7Df33B_0V]--></g></svg>