<?xml version="1.0" encoding="us-ascii" standalone="no"?><svg xmlns="http://www.w3.org/2000/svg" xmlns:xlink="http://www.w3.org/1999/xlink" contentStyleType="text/css" height="1050px" preserveAspectRatio="none" style="width:1429px;height:1050px;background:#FFFFFF;" version="1.1" viewBox="0 0 1429 1050" width="1429px" zoomAndPan="magnify"><defs/><g><text fill="#000000" font-family="sans-serif" font-size="14" font-weight="bold" lengthAdjust="spacing" textLength="204" x="605.5" y="24.5332">Architecture Model Elements</text><!--class overarch_dataModel_technicalElement--><g id="elem_overarch_dataModel_technicalElement"><rect codeLine="9" fill="#F1F1F1" height="65.6094" id="overarch_dataModel_technicalElement" rx="2.5" ry="2.5" style="stroke:#181818;stroke-width:0.5;" width="143" x="544.5" y="527.6094"/><ellipse cx="559.5" cy="543.6094" fill="#A9DCDF" rx="11" ry="11" style="stroke:#181818;stroke-width:1.0;"/><path d="M561.6875,545.375 L557.5469,545.375 L557.125,546.4063 L557.5469,546.4063 Q558.1563,546.4063 558.4219,546.6406 Q558.6875,546.875 558.6875,547.2656 Q558.6875,547.6406 558.4219,547.875 Q558.1563,548.1094 557.5469,548.1094 L555.25,548.1094 Q554.6406,548.1094 554.3906,547.875 Q554.125,547.6406 554.125,547.25 Q554.125,546.875 554.4063,546.6406 Q554.6719,546.3906 555.2969,546.4063 L557.9688,539.75 L556.8594,539.75 Q556.25,539.75 555.9844,539.5156 Q555.7188,539.2813 555.7188,538.8906 Q555.7188,538.5156 555.9844,538.2813 Q556.25,538.0469 556.8594,538.0469 L560.5313,538.0469 L563.9219,546.4063 Q564.5156,546.4063 564.7031,546.5469 Q565.0938,546.8125 565.0938,547.2656 Q565.0938,547.6406 564.8281,547.875 Q564.5781,548.1094 563.9688,548.1094 L561.6719,548.1094 Q561.0625,548.1094 560.7969,547.875 Q560.5313,547.6406 560.5313,547.25 Q560.5313,546.875 560.7969,546.6406 Q561.0625,546.4063 561.6719,546.4063 L562.0938,546.4063 L561.6875,545.375 Z M560.9688,543.6719 L559.6094,540.2969 L558.2344,543.6719 L560.9688,543.6719 Z " fill="#000000"/><text fill="#000000" font-family="sans-serif" font-size="14" font-style="italic" lengthAdjust="spacing" textLength="111" x="573.5" y="549.3379">technical-element</text><line style="stroke:#181818;stroke-width:0.5;" x1="545.5" x2="686.5" y1="559.6094" y2="559.6094"/><text fill="#000000" font-family="sans-serif" font-size="14" lengthAdjust="spacing" textLength="110" x="550.5" y="578.1426">tech : string [0..1]</text><line style="stroke:#181818;stroke-width:0.5;" x1="545.5" x2="686.5" y1="585.2188" y2="585.2188"/></g><!--class overarch_dataModel_enterpriseBoundary--><g id="elem_overarch_dataModel_enterpriseBoundary"><rect codeLine="12" fill="#F1F1F1" height="48" id="overarch_dataModel_enterpriseBoundary" rx="2.5" ry="2.5" style="stroke:#181818;stroke-width:0.5;" width="161" x="184.5" y="662.6094"/><ellipse cx="199.5" cy="678.6094" fill="#ADD1B2" rx="11" ry="11" style="stroke:#181818;stroke-width:1.0;"/><path d="M202.2656,674.4844 Q202.4219,674.2656 202.6094,674.1563 Q202.7969,674.0469 203.0156,674.0469 Q203.3906,674.0469 203.625,674.3125 Q203.8594,674.5625 203.8594,675.1719 L203.8594,676.625 Q203.8594,677.2344 203.625,677.5 Q203.3906,677.7656 203.0156,677.7656 Q202.6719,677.7656 202.4688,677.5625 Q202.2656,677.375 202.1563,676.8594 Q202.1094,676.5 201.9219,676.3125 Q201.5938,675.9375 200.9844,675.7188 Q200.375,675.5 199.75,675.5 Q198.9844,675.5 198.3438,675.8281 Q197.7188,676.1563 197.2188,676.9063 Q196.7344,677.6563 196.7344,678.6875 L196.7344,679.7813 Q196.7344,681.0156 197.625,681.8438 Q198.5156,682.6563 200.1094,682.6563 Q201.0469,682.6563 201.7031,682.4063 Q202.0938,682.25 202.5156,681.8125 Q202.7813,681.5469 202.9219,681.4688 Q203.0781,681.3906 203.2813,681.3906 Q203.6094,681.3906 203.8594,681.6563 Q204.125,681.9063 204.125,682.25 Q204.125,682.5938 203.7813,683 Q203.2813,683.5781 202.4844,683.9063 Q201.4063,684.3594 200.1094,684.3594 Q198.5938,684.3594 197.3906,683.7344 Q196.4063,683.2344 195.7188,682.1719 Q195.0313,681.0938 195.0313,679.8125 L195.0313,678.6563 Q195.0313,677.3281 195.6406,676.1875 Q196.2656,675.0313 197.3594,674.4219 Q198.4531,673.7969 199.6875,673.7969 Q200.4219,673.7969 201.0625,673.9688 Q201.7188,674.125 202.2656,674.4844 Z " fill="#000000"/><text fill="#000000" font-family="sans-serif" font-size="14" lengthAdjust="spacing" textLength="129" x="213.5" y="684.3379">enterprise-boundary</text><line style="stroke:#181818;stroke-width:0.5;" x1="185.5" x2="344.5" y1="694.6094" y2="694.6094"/><line style="stroke:#181818;stroke-width:0.5;" x1="185.5" x2="344.5" y1="702.6094" y2="702.6094"/></g><!--class overarch_dataModel_publish--><g id="elem_overarch_dataModel_publish"><rect codeLine="13" fill="#F1F1F1" height="48" id="overarch_dataModel_publish" rx="2.5" ry="2.5" style="stroke:#181818;stroke-width:0.5;" width="77" x="1229.5" y="779.6094"/><ellipse cx="1244.5" cy="795.6094" fill="#ADD1B2" rx="11" ry="11" style="stroke:#181818;stroke-width:1.0;"/><path d="M1247.2656,791.4844 Q1247.4219,791.2656 1247.6094,791.1563 Q1247.7969,791.0469 1248.0156,791.0469 Q1248.3906,791.0469 1248.625,791.3125 Q1248.8594,791.5625 1248.8594,792.1719 L1248.8594,793.625 Q1248.8594,794.2344 1248.625,794.5 Q1248.3906,794.7656 1248.0156,794.7656 Q1247.6719,794.7656 1247.4688,794.5625 Q1247.2656,794.375 1247.1563,793.8594 Q1247.1094,793.5 1246.9219,793.3125 Q1246.5938,792.9375 1245.9844,792.7188 Q1245.375,792.5 1244.75,792.5 Q1243.9844,792.5 1243.3438,792.8281 Q1242.7188,793.1563 1242.2188,793.9063 Q1241.7344,794.6563 1241.7344,795.6875 L1241.7344,796.7813 Q1241.7344,798.0156 1242.625,798.8438 Q1243.5156,799.6563 1245.1094,799.6563 Q1246.0469,799.6563 1246.7031,799.4063 Q1247.0938,799.25 1247.5156,798.8125 Q1247.7813,798.5469 1247.9219,798.4688 Q1248.0781,798.3906 1248.2813,798.3906 Q1248.6094,798.3906 1248.8594,798.6563 Q1249.125,798.9063 1249.125,799.25 Q1249.125,799.5938 1248.7813,800 Q1248.2813,800.5781 1247.4844,800.9063 Q1246.4063,801.3594 1245.1094,801.3594 Q1243.5938,801.3594 1242.3906,800.7344 Q1241.4063,800.2344 1240.7188,799.1719 Q1240.0313,798.0938 1240.0313,796.8125 L1240.0313,795.6563 Q1240.0313,794.3281 1240.6406,793.1875 Q1241.2656,792.0313 1242.3594,791.4219 Q1243.4531,790.7969 1244.6875,790.7969 Q1245.4219,790.7969 1246.0625,790.9688 Q1246.7188,791.125 1247.2656,791.4844 Z " fill="#000000"/><text fill="#000000" font-family="sans-serif" font-size="14" lengthAdjust="spacing" textLength="45" x="1258.5" y="801.3379">publish</text><line style="stroke:#181818;stroke-width:0.5;" x1="1230.5" x2="1305.5" y1="811.6094" y2="811.6094"/><line style="stroke:#181818;stroke-width:0.5;" x1="1230.5" x2="1305.5" y1="819.6094" y2="819.6094"/></g><!--class overarch_dataModel_system--><g id="elem_overarch_dataModel_system"><rect codeLine="14" fill="#F1F1F1" height="48" id="overarch_dataModel_system" rx="2.5" ry="2.5" style="stroke:#181818;stroke-width:0.5;" width="76" x="421" y="779.6094"/><ellipse cx="436" cy="795.6094" fill="#ADD1B2" rx="11" ry="11" style="stroke:#181818;stroke-width:1.0;"/><path d="M438.7656,791.4844 Q438.9219,791.2656 439.1094,791.1563 Q439.2969,791.0469 439.5156,791.0469 Q439.8906,791.0469 440.125,791.3125 Q440.3594,791.5625 440.3594,792.1719 L440.3594,793.625 Q440.3594,794.2344 440.125,794.5 Q439.8906,794.7656 439.5156,794.7656 Q439.1719,794.7656 438.9688,794.5625 Q438.7656,794.375 438.6563,793.8594 Q438.6094,793.5 438.4219,793.3125 Q438.0938,792.9375 437.4844,792.7188 Q436.875,792.5 436.25,792.5 Q435.4844,792.5 434.8438,792.8281 Q434.2188,793.1563 433.7188,793.9063 Q433.2344,794.6563 433.2344,795.6875 L433.2344,796.7813 Q433.2344,798.0156 434.125,798.8438 Q435.0156,799.6563 436.6094,799.6563 Q437.5469,799.6563 438.2031,799.4063 Q438.5938,799.25 439.0156,798.8125 Q439.2813,798.5469 439.4219,798.4688 Q439.5781,798.3906 439.7813,798.3906 Q440.1094,798.3906 440.3594,798.6563 Q440.625,798.9063 440.625,799.25 Q440.625,799.5938 440.2813,800 Q439.7813,800.5781 438.9844,800.9063 Q437.9063,801.3594 436.6094,801.3594 Q435.0938,801.3594 433.8906,800.7344 Q432.9063,800.2344 432.2188,799.1719 Q431.5313,798.0938 431.5313,796.8125 L431.5313,795.6563 Q431.5313,794.3281 432.1406,793.1875 Q432.7656,792.0313 433.8594,791.4219 Q434.9531,790.7969 436.1875,790.7969 Q436.9219,790.7969 437.5625,790.9688 Q438.2188,791.125 438.7656,791.4844 Z " fill="#000000"/><text fill="#000000" font-family="sans-serif" font-size="14" lengthAdjust="spacing" textLength="44" x="450" y="801.3379">system</text><line style="stroke:#181818;stroke-width:0.5;" x1="422" x2="496" y1="811.6094" y2="811.6094"/><line style="stroke:#181818;stroke-width:0.5;" x1="422" x2="496" y1="819.6094" y2="819.6094"/></g><!--class overarch_dataModel_element--><g id="elem_overarch_dataModel_element"><rect codeLine="15" fill="#F1F1F1" height="136.0469" id="overarch_dataModel_element" rx="2.5" ry="2.5" style="stroke:#181818;stroke-width:0.5;" width="125" x="521.5" y="45.6094"/><ellipse cx="555.85" cy="61.6094" fill="#A9DCDF" rx="11" ry="11" style="stroke:#181818;stroke-width:1.0;"/><path d="M558.0375,63.375 L553.8969,63.375 L553.475,64.4063 L553.8969,64.4063 Q554.5063,64.4063 554.7719,64.6406 Q555.0375,64.875 555.0375,65.2656 Q555.0375,65.6406 554.7719,65.875 Q554.5063,66.1094 553.8969,66.1094 L551.6,66.1094 Q550.9906,66.1094 550.7406,65.875 Q550.475,65.6406 550.475,65.25 Q550.475,64.875 550.7563,64.6406 Q551.0219,64.3906 551.6469,64.4063 L554.3188,57.75 L553.2094,57.75 Q552.6,57.75 552.3344,57.5156 Q552.0688,57.2813 552.0688,56.8906 Q552.0688,56.5156 552.3344,56.2813 Q552.6,56.0469 553.2094,56.0469 L556.8813,56.0469 L560.2719,64.4063 Q560.8656,64.4063 561.0531,64.5469 Q561.4438,64.8125 561.4438,65.2656 Q561.4438,65.6406 561.1781,65.875 Q560.9281,66.1094 560.3188,66.1094 L558.0219,66.1094 Q557.4125,66.1094 557.1469,65.875 Q556.8813,65.6406 556.8813,65.25 Q556.8813,64.875 557.1469,64.6406 Q557.4125,64.4063 558.0219,64.4063 L558.4438,64.4063 L558.0375,63.375 Z M557.3188,61.6719 L555.9594,58.2969 L554.5844,61.6719 L557.3188,61.6719 Z " fill="#000000"/><text fill="#000000" font-family="sans-serif" font-size="14" font-style="italic" lengthAdjust="spacing" textLength="50" x="574.15" y="67.3379">element</text><line style="stroke:#181818;stroke-width:0.5;" x1="522.5" x2="645.5" y1="77.6094" y2="77.6094"/><text fill="#000000" font-family="sans-serif" font-size="14" lengthAdjust="spacing" textLength="113" x="527.5" y="96.1426">desc : string [0..1]</text><text fill="#000000" font-family="sans-serif" font-size="14" lengthAdjust="spacing" textLength="106" x="527.5" y="113.752">doc : string [0..1]</text><text fill="#000000" font-family="sans-serif" font-size="14" lengthAdjust="spacing" textLength="75" x="527.5" y="131.3613">el : keyword</text><text fill="#000000" font-family="sans-serif" font-size="14" lengthAdjust="spacing" textLength="75" x="527.5" y="148.9707">id : keyword</text><text fill="#000000" font-family="sans-serif" font-size="14" lengthAdjust="spacing" textLength="82" x="527.5" y="166.5801">name : string</text><line style="stroke:#181818;stroke-width:0.5;" x1="522.5" x2="645.5" y1="173.6563" y2="173.6563"/></g><!--class overarch_dataModel_request--><g id="elem_overarch_dataModel_request"><rect codeLine="22" fill="#F1F1F1" height="48" id="overarch_dataModel_request" rx="2.5" ry="2.5" style="stroke:#181818;stroke-width:0.5;" width="80" x="1342" y="779.6094"/><ellipse cx="1357" cy="795.6094" fill="#ADD1B2" rx="11" ry="11" style="stroke:#181818;stroke-width:1.0;"/><path d="M1359.7656,791.4844 Q1359.9219,791.2656 1360.1094,791.1563 Q1360.2969,791.0469 1360.5156,791.0469 Q1360.8906,791.0469 1361.125,791.3125 Q1361.3594,791.5625 1361.3594,792.1719 L1361.3594,793.625 Q1361.3594,794.2344 1361.125,794.5 Q1360.8906,794.7656 1360.5156,794.7656 Q1360.1719,794.7656 1359.9688,794.5625 Q1359.7656,794.375 1359.6563,793.8594 Q1359.6094,793.5 1359.4219,793.3125 Q1359.0938,792.9375 1358.4844,792.7188 Q1357.875,792.5 1357.25,792.5 Q1356.4844,792.5 1355.8438,792.8281 Q1355.2188,793.1563 1354.7188,793.9063 Q1354.2344,794.6563 1354.2344,795.6875 L1354.2344,796.7813 Q1354.2344,798.0156 1355.125,798.8438 Q1356.0156,799.6563 1357.6094,799.6563 Q1358.5469,799.6563 1359.2031,799.4063 Q1359.5938,799.25 1360.0156,798.8125 Q1360.2813,798.5469 1360.4219,798.4688 Q1360.5781,798.3906 1360.7813,798.3906 Q1361.1094,798.3906 1361.3594,798.6563 Q1361.625,798.9063 1361.625,799.25 Q1361.625,799.5938 1361.2813,800 Q1360.7813,800.5781 1359.9844,800.9063 Q1358.9063,801.3594 1357.6094,801.3594 Q1356.0938,801.3594 1354.8906,800.7344 Q1353.9063,800.2344 1353.2188,799.1719 Q1352.5313,798.0938 1352.5313,796.8125 L1352.5313,795.6563 Q1352.5313,794.3281 1353.1406,793.1875 Q1353.7656,792.0313 1354.8594,791.4219 Q1355.9531,790.7969 1357.1875,790.7969 Q1357.9219,790.7969 1358.5625,790.9688 Q1359.2188,791.125 1359.7656,791.4844 Z " fill="#000000"/><text fill="#000000" font-family="sans-serif" font-size="14" lengthAdjust="spacing" textLength="48" x="1371" y="801.3379">request</text><line style="stroke:#181818;stroke-width:0.5;" x1="1343" x2="1421" y1="811.6094" y2="811.6094"/><line style="stroke:#181818;stroke-width:0.5;" x1="1343" x2="1421" y1="819.6094" y2="819.6094"/></g><!--class overarch_dataModel_rel--><g id="elem_overarch_dataModel_rel"><rect codeLine="23" fill="#F1F1F1" height="48" id="overarch_dataModel_rel" rx="2.5" ry="2.5" style="stroke:#181818;stroke-width:0.5;" width="48" x="674" y="779.6094"/><ellipse cx="689" cy="795.6094" fill="#ADD1B2" rx="11" ry="11" style="stroke:#181818;stroke-width:1.0;"/><path d="M691.7656,791.4844 Q691.9219,791.2656 692.1094,791.1563 Q692.2969,791.0469 692.5156,791.0469 Q692.8906,791.0469 693.125,791.3125 Q693.3594,791.5625 693.3594,792.1719 L693.3594,793.625 Q693.3594,794.2344 693.125,794.5 Q692.8906,794.7656 692.5156,794.7656 Q692.1719,794.7656 691.9688,794.5625 Q691.7656,794.375 691.6563,793.8594 Q691.6094,793.5 691.4219,793.3125 Q691.0938,792.9375 690.4844,792.7188 Q689.875,792.5 689.25,792.5 Q688.4844,792.5 687.8438,792.8281 Q687.2188,793.1563 686.7188,793.9063 Q686.2344,794.6563 686.2344,795.6875 L686.2344,796.7813 Q686.2344,798.0156 687.125,798.8438 Q688.0156,799.6563 689.6094,799.6563 Q690.5469,799.6563 691.2031,799.4063 Q691.5938,799.25 692.0156,798.8125 Q692.2813,798.5469 692.4219,798.4688 Q692.5781,798.3906 692.7813,798.3906 Q693.1094,798.3906 693.3594,798.6563 Q693.625,798.9063 693.625,799.25 Q693.625,799.5938 693.2813,800 Q692.7813,800.5781 691.9844,800.9063 Q690.9063,801.3594 689.6094,801.3594 Q688.0938,801.3594 686.8906,800.7344 Q685.9063,800.2344 685.2188,799.1719 Q684.5313,798.0938 684.5313,796.8125 L684.5313,795.6563 Q684.5313,794.3281 685.1406,793.1875 Q685.7656,792.0313 686.8594,791.4219 Q687.9531,790.7969 689.1875,790.7969 Q689.9219,790.7969 690.5625,790.9688 Q691.2188,791.125 691.7656,791.4844 Z " fill="#000000"/><text fill="#000000" font-family="sans-serif" font-size="14" lengthAdjust="spacing" textLength="16" x="703" y="801.3379">rel</text><line style="stroke:#181818;stroke-width:0.5;" x1="675" x2="721" y1="811.6094" y2="811.6094"/><line style="stroke:#181818;stroke-width:0.5;" x1="675" x2="721" y1="819.6094" y2="819.6094"/></g><!--class overarch_dataModel_architectureModelNode--><g id="elem_overarch_dataModel_architectureModelNode"><rect codeLine="24" fill="#F1F1F1" height="48" id="overarch_dataModel_architectureModelNode" rx="2.5" ry="2.5" style="stroke:#181818;stroke-width:0.5;" width="187" x="286.5" y="536.6094"/><ellipse cx="301.5" cy="552.6094" fill="#A9DCDF" rx="11" ry="11" style="stroke:#181818;stroke-width:1.0;"/><path d="M303.6875,554.375 L299.5469,554.375 L299.125,555.4063 L299.5469,555.4063 Q300.1563,555.4063 300.4219,555.6406 Q300.6875,555.875 300.6875,556.2656 Q300.6875,556.6406 300.4219,556.875 Q300.1563,557.1094 299.5469,557.1094 L297.25,557.1094 Q296.6406,557.1094 296.3906,556.875 Q296.125,556.6406 296.125,556.25 Q296.125,555.875 296.4063,555.6406 Q296.6719,555.3906 297.2969,555.4063 L299.9688,548.75 L298.8594,548.75 Q298.25,548.75 297.9844,548.5156 Q297.7188,548.2813 297.7188,547.8906 Q297.7188,547.5156 297.9844,547.2813 Q298.25,547.0469 298.8594,547.0469 L302.5313,547.0469 L305.9219,555.4063 Q306.5156,555.4063 306.7031,555.5469 Q307.0938,555.8125 307.0938,556.2656 Q307.0938,556.6406 306.8281,556.875 Q306.5781,557.1094 305.9688,557.1094 L303.6719,557.1094 Q303.0625,557.1094 302.7969,556.875 Q302.5313,556.6406 302.5313,556.25 Q302.5313,555.875 302.7969,555.6406 Q303.0625,555.4063 303.6719,555.4063 L304.0938,555.4063 L303.6875,554.375 Z M302.9688,552.6719 L301.6094,549.2969 L300.2344,552.6719 L302.9688,552.6719 Z " fill="#000000"/><text fill="#000000" font-family="sans-serif" font-size="14" font-style="italic" lengthAdjust="spacing" textLength="155" x="315.5" y="558.3379">architecture-model-node</text><line style="stroke:#181818;stroke-width:0.5;" x1="287.5" x2="472.5" y1="568.6094" y2="568.6094"/><line style="stroke:#181818;stroke-width:0.5;" x1="287.5" x2="472.5" y1="576.6094" y2="576.6094"/></g><!--class overarch_dataModel_technicalArchitectureModelNode--><g id="elem_overarch_dataModel_technicalArchitectureModelNode"><rect codeLine="25" fill="#F1F1F1" height="65.6094" id="overarch_dataModel_technicalArchitectureModelNode" rx="2.5" ry="2.5" style="stroke:#181818;stroke-width:0.5;" width="248" x="492" y="653.6094"/><ellipse cx="507" cy="669.6094" fill="#A9DCDF" rx="11" ry="11" style="stroke:#181818;stroke-width:1.0;"/><path d="M509.1875,671.375 L505.0469,671.375 L504.625,672.4063 L505.0469,672.4063 Q505.6563,672.4063 505.9219,672.6406 Q506.1875,672.875 506.1875,673.2656 Q506.1875,673.6406 505.9219,673.875 Q505.6563,674.1094 505.0469,674.1094 L502.75,674.1094 Q502.1406,674.1094 501.8906,673.875 Q501.625,673.6406 501.625,673.25 Q501.625,672.875 501.9063,672.6406 Q502.1719,672.3906 502.7969,672.4063 L505.4688,665.75 L504.3594,665.75 Q503.75,665.75 503.4844,665.5156 Q503.2188,665.2813 503.2188,664.8906 Q503.2188,664.5156 503.4844,664.2813 Q503.75,664.0469 504.3594,664.0469 L508.0313,664.0469 L511.4219,672.4063 Q512.0156,672.4063 512.2031,672.5469 Q512.5938,672.8125 512.5938,673.2656 Q512.5938,673.6406 512.3281,673.875 Q512.0781,674.1094 511.4688,674.1094 L509.1719,674.1094 Q508.5625,674.1094 508.2969,673.875 Q508.0313,673.6406 508.0313,673.25 Q508.0313,672.875 508.2969,672.6406 Q508.5625,672.4063 509.1719,672.4063 L509.5938,672.4063 L509.1875,671.375 Z M508.4688,669.6719 L507.1094,666.2969 L505.7344,669.6719 L508.4688,669.6719 Z " fill="#000000"/><text fill="#000000" font-family="sans-serif" font-size="14" font-style="italic" lengthAdjust="spacing" textLength="216" x="521" y="675.3379">technical-architecture-model-node</text><line style="stroke:#181818;stroke-width:0.5;" x1="493" x2="739" y1="685.6094" y2="685.6094"/><text fill="#000000" font-family="sans-serif" font-size="14" lengthAdjust="spacing" textLength="133" x="498" y="704.1426">subtype : string [0..1]</text><line style="stroke:#181818;stroke-width:0.5;" x1="493" x2="739" y1="711.2188" y2="711.2188"/></g><!--class overarch_dataModel_component--><g id="elem_overarch_dataModel_component"><rect codeLine="28" fill="#F1F1F1" height="48" id="overarch_dataModel_component" rx="2.5" ry="2.5" style="stroke:#181818;stroke-width:0.5;" width="102" x="520" y="995.6094"/><ellipse cx="535" cy="1011.6094" fill="#ADD1B2" rx="11" ry="11" style="stroke:#181818;stroke-width:1.0;"/><path d="M537.7656,1007.4844 Q537.9219,1007.2656 538.1094,1007.1563 Q538.2969,1007.0469 538.5156,1007.0469 Q538.8906,1007.0469 539.125,1007.3125 Q539.3594,1007.5625 539.3594,1008.1719 L539.3594,1009.625 Q539.3594,1010.2344 539.125,1010.5 Q538.8906,1010.7656 538.5156,1010.7656 Q538.1719,1010.7656 537.9688,1010.5625 Q537.7656,1010.375 537.6563,1009.8594 Q537.6094,1009.5 537.4219,1009.3125 Q537.0938,1008.9375 536.4844,1008.7188 Q535.875,1008.5 535.25,1008.5 Q534.4844,1008.5 533.8438,1008.8281 Q533.2188,1009.1563 532.7188,1009.9063 Q532.2344,1010.6563 532.2344,1011.6875 L532.2344,1012.7813 Q532.2344,1014.0156 533.125,1014.8438 Q534.0156,1015.6563 535.6094,1015.6563 Q536.5469,1015.6563 537.2031,1015.4063 Q537.5938,1015.25 538.0156,1014.8125 Q538.2813,1014.5469 538.4219,1014.4688 Q538.5781,1014.3906 538.7813,1014.3906 Q539.1094,1014.3906 539.3594,1014.6563 Q539.625,1014.9063 539.625,1015.25 Q539.625,1015.5938 539.2813,1016 Q538.7813,1016.5781 537.9844,1016.9063 Q536.9063,1017.3594 535.6094,1017.3594 Q534.0938,1017.3594 532.8906,1016.7344 Q531.9063,1016.2344 531.2188,1015.1719 Q530.5313,1014.0938 530.5313,1012.8125 L530.5313,1011.6563 Q530.5313,1010.3281 531.1406,1009.1875 Q531.7656,1008.0313 532.8594,1007.4219 Q533.9531,1006.7969 535.1875,1006.7969 Q535.9219,1006.7969 536.5625,1006.9688 Q537.2188,1007.125 537.7656,1007.4844 Z " fill="#000000"/><text fill="#000000" font-family="sans-serif" font-size="14" lengthAdjust="spacing" textLength="70" x="549" y="1017.3379">component</text><line style="stroke:#181818;stroke-width:0.5;" x1="521" x2="621" y1="1027.6094" y2="1027.6094"/><line style="stroke:#181818;stroke-width:0.5;" x1="521" x2="621" y1="1035.6094" y2="1035.6094"/></g><!--class overarch_dataModel_architectureModelRelation--><g id="elem_overarch_dataModel_architectureModelRelation"><rect codeLine="29" fill="#F1F1F1" height="48" id="overarch_dataModel_architectureModelRelation" rx="2.5" ry="2.5" style="stroke:#181818;stroke-width:0.5;" width="202" x="723" y="536.6094"/><ellipse cx="738" cy="552.6094" fill="#A9DCDF" rx="11" ry="11" style="stroke:#181818;stroke-width:1.0;"/><path d="M740.1875,554.375 L736.0469,554.375 L735.625,555.4063 L736.0469,555.4063 Q736.6563,555.4063 736.9219,555.6406 Q737.1875,555.875 737.1875,556.2656 Q737.1875,556.6406 736.9219,556.875 Q736.6563,557.1094 736.0469,557.1094 L733.75,557.1094 Q733.1406,557.1094 732.8906,556.875 Q732.625,556.6406 732.625,556.25 Q732.625,555.875 732.9063,555.6406 Q733.1719,555.3906 733.7969,555.4063 L736.4688,548.75 L735.3594,548.75 Q734.75,548.75 734.4844,548.5156 Q734.2188,548.2813 734.2188,547.8906 Q734.2188,547.5156 734.4844,547.2813 Q734.75,547.0469 735.3594,547.0469 L739.0313,547.0469 L742.4219,555.4063 Q743.0156,555.4063 743.2031,555.5469 Q743.5938,555.8125 743.5938,556.2656 Q743.5938,556.6406 743.3281,556.875 Q743.0781,557.1094 742.4688,557.1094 L740.1719,557.1094 Q739.5625,557.1094 739.2969,556.875 Q739.0313,556.6406 739.0313,556.25 Q739.0313,555.875 739.2969,555.6406 Q739.5625,555.4063 740.1719,555.4063 L740.5938,555.4063 L740.1875,554.375 Z M739.4688,552.6719 L738.1094,549.2969 L736.7344,552.6719 L739.4688,552.6719 Z " fill="#000000"/><text fill="#000000" font-family="sans-serif" font-size="14" font-style="italic" lengthAdjust="spacing" textLength="170" x="752" y="558.3379">architecture-model-relation</text><line style="stroke:#181818;stroke-width:0.5;" x1="724" x2="924" y1="568.6094" y2="568.6094"/><line style="stroke:#181818;stroke-width:0.5;" x1="724" x2="924" y1="576.6094" y2="576.6094"/></g><!--class overarch_dataModel_send--><g id="elem_overarch_dataModel_send"><rect codeLine="30" fill="#F1F1F1" height="48" id="overarch_dataModel_send" rx="2.5" ry="2.5" style="stroke:#181818;stroke-width:0.5;" width="63" x="757.5" y="779.6094"/><ellipse cx="772.5" cy="795.6094" fill="#ADD1B2" rx="11" ry="11" style="stroke:#181818;stroke-width:1.0;"/><path d="M775.2656,791.4844 Q775.4219,791.2656 775.6094,791.1563 Q775.7969,791.0469 776.0156,791.0469 Q776.3906,791.0469 776.625,791.3125 Q776.8594,791.5625 776.8594,792.1719 L776.8594,793.625 Q776.8594,794.2344 776.625,794.5 Q776.3906,794.7656 776.0156,794.7656 Q775.6719,794.7656 775.4688,794.5625 Q775.2656,794.375 775.1563,793.8594 Q775.1094,793.5 774.9219,793.3125 Q774.5938,792.9375 773.9844,792.7188 Q773.375,792.5 772.75,792.5 Q771.9844,792.5 771.3438,792.8281 Q770.7188,793.1563 770.2188,793.9063 Q769.7344,794.6563 769.7344,795.6875 L769.7344,796.7813 Q769.7344,798.0156 770.625,798.8438 Q771.5156,799.6563 773.1094,799.6563 Q774.0469,799.6563 774.7031,799.4063 Q775.0938,799.25 775.5156,798.8125 Q775.7813,798.5469 775.9219,798.4688 Q776.0781,798.3906 776.2813,798.3906 Q776.6094,798.3906 776.8594,798.6563 Q777.125,798.9063 777.125,799.25 Q777.125,799.5938 776.7813,800 Q776.2813,800.5781 775.4844,800.9063 Q774.4063,801.3594 773.1094,801.3594 Q771.5938,801.3594 770.3906,800.7344 Q769.4063,800.2344 768.7188,799.1719 Q768.0313,798.0938 768.0313,796.8125 L768.0313,795.6563 Q768.0313,794.3281 768.6406,793.1875 Q769.2656,792.0313 770.3594,791.4219 Q771.4531,790.7969 772.6875,790.7969 Q773.4219,790.7969 774.0625,790.9688 Q774.7188,791.125 775.2656,791.4844 Z " fill="#000000"/><text fill="#000000" font-family="sans-serif" font-size="14" lengthAdjust="spacing" textLength="31" x="786.5" y="801.3379">send</text><line style="stroke:#181818;stroke-width:0.5;" x1="758.5" x2="819.5" y1="811.6094" y2="811.6094"/><line style="stroke:#181818;stroke-width:0.5;" x1="758.5" x2="819.5" y1="819.6094" y2="819.6094"/></g><!--class overarch_dataModel_response--><g id="elem_overarch_dataModel_response"><rect codeLine="31" fill="#F1F1F1" height="48" id="overarch_dataModel_response" rx="2.5" ry="2.5" style="stroke:#181818;stroke-width:0.5;" width="91" x="855.5" y="779.6094"/><ellipse cx="870.5" cy="795.6094" fill="#ADD1B2" rx="11" ry="11" style="stroke:#181818;stroke-width:1.0;"/><path d="M873.2656,791.4844 Q873.4219,791.2656 873.6094,791.1563 Q873.7969,791.0469 874.0156,791.0469 Q874.3906,791.0469 874.625,791.3125 Q874.8594,791.5625 874.8594,792.1719 L874.8594,793.625 Q874.8594,794.2344 874.625,794.5 Q874.3906,794.7656 874.0156,794.7656 Q873.6719,794.7656 873.4688,794.5625 Q873.2656,794.375 873.1563,793.8594 Q873.1094,793.5 872.9219,793.3125 Q872.5938,792.9375 871.9844,792.7188 Q871.375,792.5 870.75,792.5 Q869.9844,792.5 869.3438,792.8281 Q868.7188,793.1563 868.2188,793.9063 Q867.7344,794.6563 867.7344,795.6875 L867.7344,796.7813 Q867.7344,798.0156 868.625,798.8438 Q869.5156,799.6563 871.1094,799.6563 Q872.0469,799.6563 872.7031,799.4063 Q873.0938,799.25 873.5156,798.8125 Q873.7813,798.5469 873.9219,798.4688 Q874.0781,798.3906 874.2813,798.3906 Q874.6094,798.3906 874.8594,798.6563 Q875.125,798.9063 875.125,799.25 Q875.125,799.5938 874.7813,800 Q874.2813,800.5781 873.4844,800.9063 Q872.4063,801.3594 871.1094,801.3594 Q869.5938,801.3594 868.3906,800.7344 Q867.4063,800.2344 866.7188,799.1719 Q866.0313,798.0938 866.0313,796.8125 L866.0313,795.6563 Q866.0313,794.3281 866.6406,793.1875 Q867.2656,792.0313 868.3594,791.4219 Q869.4531,790.7969 870.6875,790.7969 Q871.4219,790.7969 872.0625,790.9688 Q872.7188,791.125 873.2656,791.4844 Z " fill="#000000"/><text fill="#000000" font-family="sans-serif" font-size="14" lengthAdjust="spacing" textLength="59" x="884.5" y="801.3379">response</text><line style="stroke:#181818;stroke-width:0.5;" x1="856.5" x2="945.5" y1="811.6094" y2="811.6094"/><line style="stroke:#181818;stroke-width:0.5;" x1="856.5" x2="945.5" y1="819.6094" y2="819.6094"/></g><!--class overarch_dataModel_dataflow--><g id="elem_overarch_dataModel_dataflow"><rect codeLine="32" fill="#F1F1F1" height="48" id="overarch_dataModel_dataflow" rx="2.5" ry="2.5" style="stroke:#181818;stroke-width:0.5;" width="84" x="982" y="779.6094"/><ellipse cx="997" cy="795.6094" fill="#ADD1B2" rx="11" ry="11" style="stroke:#181818;stroke-width:1.0;"/><path d="M999.7656,791.4844 Q999.9219,791.2656 1000.1094,791.1563 Q1000.2969,791.0469 1000.5156,791.0469 Q1000.8906,791.0469 1001.125,791.3125 Q1001.3594,791.5625 1001.3594,792.1719 L1001.3594,793.625 Q1001.3594,794.2344 1001.125,794.5 Q1000.8906,794.7656 1000.5156,794.7656 Q1000.1719,794.7656 999.9688,794.5625 Q999.7656,794.375 999.6563,793.8594 Q999.6094,793.5 999.4219,793.3125 Q999.0938,792.9375 998.4844,792.7188 Q997.875,792.5 997.25,792.5 Q996.4844,792.5 995.8438,792.8281 Q995.2188,793.1563 994.7188,793.9063 Q994.2344,794.6563 994.2344,795.6875 L994.2344,796.7813 Q994.2344,798.0156 995.125,798.8438 Q996.0156,799.6563 997.6094,799.6563 Q998.5469,799.6563 999.2031,799.4063 Q999.5938,799.25 1000.0156,798.8125 Q1000.2813,798.5469 1000.4219,798.4688 Q1000.5781,798.3906 1000.7813,798.3906 Q1001.1094,798.3906 1001.3594,798.6563 Q1001.625,798.9063 1001.625,799.25 Q1001.625,799.5938 1001.2813,800 Q1000.7813,800.5781 999.9844,800.9063 Q998.9063,801.3594 997.6094,801.3594 Q996.0938,801.3594 994.8906,800.7344 Q993.9063,800.2344 993.2188,799.1719 Q992.5313,798.0938 992.5313,796.8125 L992.5313,795.6563 Q992.5313,794.3281 993.1406,793.1875 Q993.7656,792.0313 994.8594,791.4219 Q995.9531,790.7969 997.1875,790.7969 Q997.9219,790.7969 998.5625,790.9688 Q999.2188,791.125 999.7656,791.4844 Z " fill="#000000"/><text fill="#000000" font-family="sans-serif" font-size="14" lengthAdjust="spacing" textLength="52" x="1011" y="801.3379">dataflow</text><line style="stroke:#181818;stroke-width:0.5;" x1="983" x2="1065" y1="811.6094" y2="811.6094"/><line style="stroke:#181818;stroke-width:0.5;" x1="983" x2="1065" y1="819.6094" y2="819.6094"/></g><!--class overarch_dataModel_contextBoundary--><g id="elem_overarch_dataModel_contextBoundary"><rect codeLine="33" fill="#F1F1F1" height="48" id="overarch_dataModel_contextBoundary" rx="2.5" ry="2.5" style="stroke:#181818;stroke-width:0.5;" width="142" x="7" y="662.6094"/><ellipse cx="22" cy="678.6094" fill="#ADD1B2" rx="11" ry="11" style="stroke:#181818;stroke-width:1.0;"/><path d="M24.7656,674.4844 Q24.9219,674.2656 25.1094,674.1563 Q25.2969,674.0469 25.5156,674.0469 Q25.8906,674.0469 26.125,674.3125 Q26.3594,674.5625 26.3594,675.1719 L26.3594,676.625 Q26.3594,677.2344 26.125,677.5 Q25.8906,677.7656 25.5156,677.7656 Q25.1719,677.7656 24.9688,677.5625 Q24.7656,677.375 24.6563,676.8594 Q24.6094,676.5 24.4219,676.3125 Q24.0938,675.9375 23.4844,675.7188 Q22.875,675.5 22.25,675.5 Q21.4844,675.5 20.8438,675.8281 Q20.2188,676.1563 19.7188,676.9063 Q19.2344,677.6563 19.2344,678.6875 L19.2344,679.7813 Q19.2344,681.0156 20.125,681.8438 Q21.0156,682.6563 22.6094,682.6563 Q23.5469,682.6563 24.2031,682.4063 Q24.5938,682.25 25.0156,681.8125 Q25.2813,681.5469 25.4219,681.4688 Q25.5781,681.3906 25.7813,681.3906 Q26.1094,681.3906 26.3594,681.6563 Q26.625,681.9063 26.625,682.25 Q26.625,682.5938 26.2813,683 Q25.7813,683.5781 24.9844,683.9063 Q23.9063,684.3594 22.6094,684.3594 Q21.0938,684.3594 19.8906,683.7344 Q18.9063,683.2344 18.2188,682.1719 Q17.5313,681.0938 17.5313,679.8125 L17.5313,678.6563 Q17.5313,677.3281 18.1406,676.1875 Q18.7656,675.0313 19.8594,674.4219 Q20.9531,673.7969 22.1875,673.7969 Q22.9219,673.7969 23.5625,673.9688 Q24.2188,674.125 24.7656,674.4844 Z " fill="#000000"/><text fill="#000000" font-family="sans-serif" font-size="14" lengthAdjust="spacing" textLength="110" x="36" y="684.3379">context-boundary</text><line style="stroke:#181818;stroke-width:0.5;" x1="8" x2="148" y1="694.6094" y2="694.6094"/><line style="stroke:#181818;stroke-width:0.5;" x1="8" x2="148" y1="702.6094" y2="702.6094"/></g><!--class overarch_dataModel_modelNode--><g id="elem_overarch_dataModel_modelNode"><rect codeLine="34" fill="#F1F1F1" height="48" id="overarch_dataModel_modelNode" rx="2.5" ry="2.5" style="stroke:#181818;stroke-width:0.5;" width="107" x="335.5" y="402.1094"/><ellipse cx="350.5" cy="418.1094" fill="#A9DCDF" rx="11" ry="11" style="stroke:#181818;stroke-width:1.0;"/><path d="M352.6875,419.875 L348.5469,419.875 L348.125,420.9063 L348.5469,420.9063 Q349.1563,420.9063 349.4219,421.1406 Q349.6875,421.375 349.6875,421.7656 Q349.6875,422.1406 349.4219,422.375 Q349.1563,422.6094 348.5469,422.6094 L346.25,422.6094 Q345.6406,422.6094 345.3906,422.375 Q345.125,422.1406 345.125,421.75 Q345.125,421.375 345.4063,421.1406 Q345.6719,420.8906 346.2969,420.9063 L348.9688,414.25 L347.8594,414.25 Q347.25,414.25 346.9844,414.0156 Q346.7188,413.7813 346.7188,413.3906 Q346.7188,413.0156 346.9844,412.7813 Q347.25,412.5469 347.8594,412.5469 L351.5313,412.5469 L354.9219,420.9063 Q355.5156,420.9063 355.7031,421.0469 Q356.0938,421.3125 356.0938,421.7656 Q356.0938,422.1406 355.8281,422.375 Q355.5781,422.6094 354.9688,422.6094 L352.6719,422.6094 Q352.0625,422.6094 351.7969,422.375 Q351.5313,422.1406 351.5313,421.75 Q351.5313,421.375 351.7969,421.1406 Q352.0625,420.9063 352.6719,420.9063 L353.0938,420.9063 L352.6875,419.875 Z M351.9688,418.1719 L350.6094,414.7969 L349.2344,418.1719 L351.9688,418.1719 Z " fill="#000000"/><text fill="#000000" font-family="sans-serif" font-size="14" font-style="italic" lengthAdjust="spacing" textLength="75" x="364.5" y="423.8379">model-node</text><line style="stroke:#181818;stroke-width:0.5;" x1="336.5" x2="441.5" y1="434.1094" y2="434.1094"/><line style="stroke:#181818;stroke-width:0.5;" x1="336.5" x2="441.5" y1="442.1094" y2="442.1094"/></g><!--class overarch_dataModel_modelRelation--><g id="elem_overarch_dataModel_modelRelation"><rect codeLine="35" fill="#F1F1F1" height="83.2188" id="overarch_dataModel_modelRelation" rx="2.5" ry="2.5" style="stroke:#181818;stroke-width:0.5;" width="122" x="724" y="384.6094"/><ellipse cx="739" cy="400.6094" fill="#A9DCDF" rx="11" ry="11" style="stroke:#181818;stroke-width:1.0;"/><path d="M741.1875,402.375 L737.0469,402.375 L736.625,403.4063 L737.0469,403.4063 Q737.6563,403.4063 737.9219,403.6406 Q738.1875,403.875 738.1875,404.2656 Q738.1875,404.6406 737.9219,404.875 Q737.6563,405.1094 737.0469,405.1094 L734.75,405.1094 Q734.1406,405.1094 733.8906,404.875 Q733.625,404.6406 733.625,404.25 Q733.625,403.875 733.9063,403.6406 Q734.1719,403.3906 734.7969,403.4063 L737.4688,396.75 L736.3594,396.75 Q735.75,396.75 735.4844,396.5156 Q735.2188,396.2813 735.2188,395.8906 Q735.2188,395.5156 735.4844,395.2813 Q735.75,395.0469 736.3594,395.0469 L740.0313,395.0469 L743.4219,403.4063 Q744.0156,403.4063 744.2031,403.5469 Q744.5938,403.8125 744.5938,404.2656 Q744.5938,404.6406 744.3281,404.875 Q744.0781,405.1094 743.4688,405.1094 L741.1719,405.1094 Q740.5625,405.1094 740.2969,404.875 Q740.0313,404.6406 740.0313,404.25 Q740.0313,403.875 740.2969,403.6406 Q740.5625,403.4063 741.1719,403.4063 L741.5938,403.4063 L741.1875,402.375 Z M740.4688,400.6719 L739.1094,397.2969 L737.7344,400.6719 L740.4688,400.6719 Z " fill="#000000"/><text fill="#000000" font-family="sans-serif" font-size="14" font-style="italic" lengthAdjust="spacing" textLength="90" x="753" y="406.3379">model-relation</text><line style="stroke:#181818;stroke-width:0.5;" x1="725" x2="845" y1="416.6094" y2="416.6094"/><text fill="#000000" font-family="sans-serif" font-size="14" lengthAdjust="spacing" textLength="92" x="730" y="435.1426">from : keyword</text><text fill="#000000" font-family="sans-serif" font-size="14" lengthAdjust="spacing" textLength="76" x="730" y="452.752">to : keyword</text><line style="stroke:#181818;stroke-width:0.5;" x1="725" x2="845" y1="459.8281" y2="459.8281"/></g><!--class overarch_dataModel_boundaryNode--><g id="elem_overarch_dataModel_boundaryNode"><rect codeLine="39" fill="#F1F1F1" height="48" id="overarch_dataModel_boundaryNode" rx="2.5" ry="2.5" style="stroke:#181818;stroke-width:0.5;" width="129" x="50.5" y="536.6094"/><ellipse cx="65.5" cy="552.6094" fill="#A9DCDF" rx="11" ry="11" style="stroke:#181818;stroke-width:1.0;"/><path d="M67.6875,554.375 L63.5469,554.375 L63.125,555.4063 L63.5469,555.4063 Q64.1563,555.4063 64.4219,555.6406 Q64.6875,555.875 64.6875,556.2656 Q64.6875,556.6406 64.4219,556.875 Q64.1563,557.1094 63.5469,557.1094 L61.25,557.1094 Q60.6406,557.1094 60.3906,556.875 Q60.125,556.6406 60.125,556.25 Q60.125,555.875 60.4063,555.6406 Q60.6719,555.3906 61.2969,555.4063 L63.9688,548.75 L62.8594,548.75 Q62.25,548.75 61.9844,548.5156 Q61.7188,548.2813 61.7188,547.8906 Q61.7188,547.5156 61.9844,547.2813 Q62.25,547.0469 62.8594,547.0469 L66.5313,547.0469 L69.9219,555.4063 Q70.5156,555.4063 70.7031,555.5469 Q71.0938,555.8125 71.0938,556.2656 Q71.0938,556.6406 70.8281,556.875 Q70.5781,557.1094 69.9688,557.1094 L67.6719,557.1094 Q67.0625,557.1094 66.7969,556.875 Q66.5313,556.6406 66.5313,556.25 Q66.5313,555.875 66.7969,555.6406 Q67.0625,555.4063 67.6719,555.4063 L68.0938,555.4063 L67.6875,554.375 Z M66.9688,552.6719 L65.6094,549.2969 L64.2344,552.6719 L66.9688,552.6719 Z " fill="#000000"/><text fill="#000000" font-family="sans-serif" font-size="14" font-style="italic" lengthAdjust="spacing" textLength="97" x="79.5" y="558.3379">boundary-node</text><line style="stroke:#181818;stroke-width:0.5;" x1="51.5" x2="178.5" y1="568.6094" y2="568.6094"/><line style="stroke:#181818;stroke-width:0.5;" x1="51.5" x2="178.5" y1="576.6094" y2="576.6094"/></g><!--class overarch_dataModel_subscribe--><g id="elem_overarch_dataModel_subscribe"><rect codeLine="40" fill="#F1F1F1" height="48" id="overarch_dataModel_subscribe" rx="2.5" ry="2.5" style="stroke:#181818;stroke-width:0.5;" width="93" x="1101.5" y="779.6094"/><ellipse cx="1116.5" cy="795.6094" fill="#ADD1B2" rx="11" ry="11" style="stroke:#181818;stroke-width:1.0;"/><path d="M1119.2656,791.4844 Q1119.4219,791.2656 1119.6094,791.1563 Q1119.7969,791.0469 1120.0156,791.0469 Q1120.3906,791.0469 1120.625,791.3125 Q1120.8594,791.5625 1120.8594,792.1719 L1120.8594,793.625 Q1120.8594,794.2344 1120.625,794.5 Q1120.3906,794.7656 1120.0156,794.7656 Q1119.6719,794.7656 1119.4688,794.5625 Q1119.2656,794.375 1119.1563,793.8594 Q1119.1094,793.5 1118.9219,793.3125 Q1118.5938,792.9375 1117.9844,792.7188 Q1117.375,792.5 1116.75,792.5 Q1115.9844,792.5 1115.3438,792.8281 Q1114.7188,793.1563 1114.2188,793.9063 Q1113.7344,794.6563 1113.7344,795.6875 L1113.7344,796.7813 Q1113.7344,798.0156 1114.625,798.8438 Q1115.5156,799.6563 1117.1094,799.6563 Q1118.0469,799.6563 1118.7031,799.4063 Q1119.0938,799.25 1119.5156,798.8125 Q1119.7813,798.5469 1119.9219,798.4688 Q1120.0781,798.3906 1120.2813,798.3906 Q1120.6094,798.3906 1120.8594,798.6563 Q1121.125,798.9063 1121.125,799.25 Q1121.125,799.5938 1120.7813,800 Q1120.2813,800.5781 1119.4844,800.9063 Q1118.4063,801.3594 1117.1094,801.3594 Q1115.5938,801.3594 1114.3906,800.7344 Q1113.4063,800.2344 1112.7188,799.1719 Q1112.0313,798.0938 1112.0313,796.8125 L1112.0313,795.6563 Q1112.0313,794.3281 1112.6406,793.1875 Q1113.2656,792.0313 1114.3594,791.4219 Q1115.4531,790.7969 1116.6875,790.7969 Q1117.4219,790.7969 1118.0625,790.9688 Q1118.7188,791.125 1119.2656,791.4844 Z " fill="#000000"/><text fill="#000000" font-family="sans-serif" font-size="14" lengthAdjust="spacing" textLength="61" x="1130.5" y="801.3379">subscribe</text><line style="stroke:#181818;stroke-width:0.5;" x1="1102.5" x2="1193.5" y1="811.6094" y2="811.6094"/><line style="stroke:#181818;stroke-width:0.5;" x1="1102.5" x2="1193.5" y1="819.6094" y2="819.6094"/></g><!--class overarch_dataModel_architectureModelElement--><g id="elem_overarch_dataModel_architectureModelElement"><rect codeLine="41" fill="#F1F1F1" height="65.6094" id="overarch_dataModel_architectureModelElement" rx="2.5" ry="2.5" style="stroke:#181818;stroke-width:0.5;" width="205" x="481.5" y="393.1094"/><ellipse cx="496.5" cy="409.1094" fill="#A9DCDF" rx="11" ry="11" style="stroke:#181818;stroke-width:1.0;"/><path d="M498.6875,410.875 L494.5469,410.875 L494.125,411.9063 L494.5469,411.9063 Q495.1563,411.9063 495.4219,412.1406 Q495.6875,412.375 495.6875,412.7656 Q495.6875,413.1406 495.4219,413.375 Q495.1563,413.6094 494.5469,413.6094 L492.25,413.6094 Q491.6406,413.6094 491.3906,413.375 Q491.125,413.1406 491.125,412.75 Q491.125,412.375 491.4063,412.1406 Q491.6719,411.8906 492.2969,411.9063 L494.9688,405.25 L493.8594,405.25 Q493.25,405.25 492.9844,405.0156 Q492.7188,404.7813 492.7188,404.3906 Q492.7188,404.0156 492.9844,403.7813 Q493.25,403.5469 493.8594,403.5469 L497.5313,403.5469 L500.9219,411.9063 Q501.5156,411.9063 501.7031,412.0469 Q502.0938,412.3125 502.0938,412.7656 Q502.0938,413.1406 501.8281,413.375 Q501.5781,413.6094 500.9688,413.6094 L498.6719,413.6094 Q498.0625,413.6094 497.7969,413.375 Q497.5313,413.1406 497.5313,412.75 Q497.5313,412.375 497.7969,412.1406 Q498.0625,411.9063 498.6719,411.9063 L499.0938,411.9063 L498.6875,410.875 Z M497.9688,409.1719 L496.6094,405.7969 L495.2344,409.1719 L497.9688,409.1719 Z " fill="#000000"/><text fill="#000000" font-family="sans-serif" font-size="14" font-style="italic" lengthAdjust="spacing" textLength="173" x="510.5" y="414.8379">architecture-model-element</text><line style="stroke:#181818;stroke-width:0.5;" x1="482.5" x2="685.5" y1="425.1094" y2="425.1094"/><text fill="#000000" font-family="sans-serif" font-size="14" lengthAdjust="spacing" textLength="149" x="487.5" y="443.6426">external : boolean [0..1]</text><line style="stroke:#181818;stroke-width:0.5;" x1="482.5" x2="685.5" y1="450.7188" y2="450.7188"/></g><!--class overarch_dataModel_modelElement--><g id="elem_overarch_dataModel_modelElement"><rect codeLine="44" fill="#F1F1F1" height="83.2188" id="overarch_dataModel_modelElement" rx="2.5" ry="2.5" style="stroke:#181818;stroke-width:0.5;" width="162" x="503" y="241.6094"/><ellipse cx="534.65" cy="257.6094" fill="#A9DCDF" rx="11" ry="11" style="stroke:#181818;stroke-width:1.0;"/><path d="M536.8375,259.375 L532.6969,259.375 L532.275,260.4063 L532.6969,260.4063 Q533.3063,260.4063 533.5719,260.6406 Q533.8375,260.875 533.8375,261.2656 Q533.8375,261.6406 533.5719,261.875 Q533.3063,262.1094 532.6969,262.1094 L530.4,262.1094 Q529.7906,262.1094 529.5406,261.875 Q529.275,261.6406 529.275,261.25 Q529.275,260.875 529.5563,260.6406 Q529.8219,260.3906 530.4469,260.4063 L533.1188,253.75 L532.0094,253.75 Q531.4,253.75 531.1344,253.5156 Q530.8688,253.2813 530.8688,252.8906 Q530.8688,252.5156 531.1344,252.2813 Q531.4,252.0469 532.0094,252.0469 L535.6813,252.0469 L539.0719,260.4063 Q539.6656,260.4063 539.8531,260.5469 Q540.2438,260.8125 540.2438,261.2656 Q540.2438,261.6406 539.9781,261.875 Q539.7281,262.1094 539.1188,262.1094 L536.8219,262.1094 Q536.2125,262.1094 535.9469,261.875 Q535.6813,261.6406 535.6813,261.25 Q535.6813,260.875 535.9469,260.6406 Q536.2125,260.4063 536.8219,260.4063 L537.2438,260.4063 L536.8375,259.375 Z M536.1188,257.6719 L534.7594,254.2969 L533.3844,257.6719 L536.1188,257.6719 Z " fill="#000000"/><text fill="#000000" font-family="sans-serif" font-size="14" font-style="italic" lengthAdjust="spacing" textLength="93" x="552.35" y="263.3379">model-element</text><line style="stroke:#181818;stroke-width:0.5;" x1="504" x2="664" y1="273.6094" y2="273.6094"/><text fill="#000000" font-family="sans-serif" font-size="14" lengthAdjust="spacing" textLength="150" x="509" y="292.1426">maturity : keyword [0..1]</text><text fill="#000000" font-family="sans-serif" font-size="14" lengthAdjust="spacing" textLength="94" x="509" y="309.752">tags : set [0..1]</text><line style="stroke:#181818;stroke-width:0.5;" x1="504" x2="664" y1="316.8281" y2="316.8281"/></g><!--class overarch_dataModel_technicalArchitectureModelRelation--><g id="elem_overarch_dataModel_technicalArchitectureModelRelation"><rect codeLine="48" fill="#F1F1F1" height="48" id="overarch_dataModel_technicalArchitectureModelRelation" rx="2.5" ry="2.5" style="stroke:#181818;stroke-width:0.5;" width="263" x="775.5" y="662.6094"/><ellipse cx="790.5" cy="678.6094" fill="#A9DCDF" rx="11" ry="11" style="stroke:#181818;stroke-width:1.0;"/><path d="M792.6875,680.375 L788.5469,680.375 L788.125,681.4063 L788.5469,681.4063 Q789.1563,681.4063 789.4219,681.6406 Q789.6875,681.875 789.6875,682.2656 Q789.6875,682.6406 789.4219,682.875 Q789.1563,683.1094 788.5469,683.1094 L786.25,683.1094 Q785.6406,683.1094 785.3906,682.875 Q785.125,682.6406 785.125,682.25 Q785.125,681.875 785.4063,681.6406 Q785.6719,681.3906 786.2969,681.4063 L788.9688,674.75 L787.8594,674.75 Q787.25,674.75 786.9844,674.5156 Q786.7188,674.2813 786.7188,673.8906 Q786.7188,673.5156 786.9844,673.2813 Q787.25,673.0469 787.8594,673.0469 L791.5313,673.0469 L794.9219,681.4063 Q795.5156,681.4063 795.7031,681.5469 Q796.0938,681.8125 796.0938,682.2656 Q796.0938,682.6406 795.8281,682.875 Q795.5781,683.1094 794.9688,683.1094 L792.6719,683.1094 Q792.0625,683.1094 791.7969,682.875 Q791.5313,682.6406 791.5313,682.25 Q791.5313,681.875 791.7969,681.6406 Q792.0625,681.4063 792.6719,681.4063 L793.0938,681.4063 L792.6875,680.375 Z M791.9688,678.6719 L790.6094,675.2969 L789.2344,678.6719 L791.9688,678.6719 Z " fill="#000000"/><text fill="#000000" font-family="sans-serif" font-size="14" font-style="italic" lengthAdjust="spacing" textLength="231" x="804.5" y="684.3379">technical-architecture-model-relation</text><line style="stroke:#181818;stroke-width:0.5;" x1="776.5" x2="1037.5" y1="694.6094" y2="694.6094"/><line style="stroke:#181818;stroke-width:0.5;" x1="776.5" x2="1037.5" y1="702.6094" y2="702.6094"/></g><!--class overarch_dataModel_person--><g id="elem_overarch_dataModel_person"><rect codeLine="49" fill="#F1F1F1" height="48" id="overarch_dataModel_person" rx="2.5" ry="2.5" style="stroke:#181818;stroke-width:0.5;" width="76" x="381" y="662.6094"/><ellipse cx="396" cy="678.6094" fill="#ADD1B2" rx="11" ry="11" style="stroke:#181818;stroke-width:1.0;"/><path d="M398.7656,674.4844 Q398.9219,674.2656 399.1094,674.1563 Q399.2969,674.0469 399.5156,674.0469 Q399.8906,674.0469 400.125,674.3125 Q400.3594,674.5625 400.3594,675.1719 L400.3594,676.625 Q400.3594,677.2344 400.125,677.5 Q399.8906,677.7656 399.5156,677.7656 Q399.1719,677.7656 398.9688,677.5625 Q398.7656,677.375 398.6563,676.8594 Q398.6094,676.5 398.4219,676.3125 Q398.0938,675.9375 397.4844,675.7188 Q396.875,675.5 396.25,675.5 Q395.4844,675.5 394.8438,675.8281 Q394.2188,676.1563 393.7188,676.9063 Q393.2344,677.6563 393.2344,678.6875 L393.2344,679.7813 Q393.2344,681.0156 394.125,681.8438 Q395.0156,682.6563 396.6094,682.6563 Q397.5469,682.6563 398.2031,682.4063 Q398.5938,682.25 399.0156,681.8125 Q399.2813,681.5469 399.4219,681.4688 Q399.5781,681.3906 399.7813,681.3906 Q400.1094,681.3906 400.3594,681.6563 Q400.625,681.9063 400.625,682.25 Q400.625,682.5938 400.2813,683 Q399.7813,683.5781 398.9844,683.9063 Q397.9063,684.3594 396.6094,684.3594 Q395.0938,684.3594 393.8906,683.7344 Q392.9063,683.2344 392.2188,682.1719 Q391.5313,681.0938 391.5313,679.8125 L391.5313,678.6563 Q391.5313,677.3281 392.1406,676.1875 Q392.7656,675.0313 393.8594,674.4219 Q394.9531,673.7969 396.1875,673.7969 Q396.9219,673.7969 397.5625,673.9688 Q398.2188,674.125 398.7656,674.4844 Z " fill="#000000"/><text fill="#000000" font-family="sans-serif" font-size="14" lengthAdjust="spacing" textLength="44" x="410" y="684.3379">person</text><line style="stroke:#181818;stroke-width:0.5;" x1="382" x2="456" y1="694.6094" y2="694.6094"/><line style="stroke:#181818;stroke-width:0.5;" x1="382" x2="456" y1="702.6094" y2="702.6094"/></g><!--class overarch_dataModel_container--><g id="elem_overarch_dataModel_container"><rect codeLine="50" fill="#F1F1F1" height="48" id="overarch_dataModel_container" rx="2.5" ry="2.5" style="stroke:#181818;stroke-width:0.5;" width="91" x="476.5" y="887.6094"/><ellipse cx="491.5" cy="903.6094" fill="#ADD1B2" rx="11" ry="11" style="stroke:#181818;stroke-width:1.0;"/><path d="M494.2656,899.4844 Q494.4219,899.2656 494.6094,899.1563 Q494.7969,899.0469 495.0156,899.0469 Q495.3906,899.0469 495.625,899.3125 Q495.8594,899.5625 495.8594,900.1719 L495.8594,901.625 Q495.8594,902.2344 495.625,902.5 Q495.3906,902.7656 495.0156,902.7656 Q494.6719,902.7656 494.4688,902.5625 Q494.2656,902.375 494.1563,901.8594 Q494.1094,901.5 493.9219,901.3125 Q493.5938,900.9375 492.9844,900.7188 Q492.375,900.5 491.75,900.5 Q490.9844,900.5 490.3438,900.8281 Q489.7188,901.1563 489.2188,901.9063 Q488.7344,902.6563 488.7344,903.6875 L488.7344,904.7813 Q488.7344,906.0156 489.625,906.8438 Q490.5156,907.6563 492.1094,907.6563 Q493.0469,907.6563 493.7031,907.4063 Q494.0938,907.25 494.5156,906.8125 Q494.7813,906.5469 494.9219,906.4688 Q495.0781,906.3906 495.2813,906.3906 Q495.6094,906.3906 495.8594,906.6563 Q496.125,906.9063 496.125,907.25 Q496.125,907.5938 495.7813,908 Q495.2813,908.5781 494.4844,908.9063 Q493.4063,909.3594 492.1094,909.3594 Q490.5938,909.3594 489.3906,908.7344 Q488.4063,908.2344 487.7188,907.1719 Q487.0313,906.0938 487.0313,904.8125 L487.0313,903.6563 Q487.0313,902.3281 487.6406,901.1875 Q488.2656,900.0313 489.3594,899.4219 Q490.4531,898.7969 491.6875,898.7969 Q492.4219,898.7969 493.0625,898.9688 Q493.7188,899.125 494.2656,899.4844 Z " fill="#000000"/><text fill="#000000" font-family="sans-serif" font-size="14" lengthAdjust="spacing" textLength="59" x="505.5" y="909.3379">container</text><line style="stroke:#181818;stroke-width:0.5;" x1="477.5" x2="566.5" y1="919.6094" y2="919.6094"/><line style="stroke:#181818;stroke-width:0.5;" x1="477.5" x2="566.5" y1="927.6094" y2="927.6094"/></g><!--reverse link overarch_dataModel_architectureModelNode to overarch_dataModel_person--><g id="link_overarch_dataModel_architectureModelNode_overarch_dataModel_person"><path codeLine="51" d="M392.6451,601.8087 C399.6151,623.9487 404.67,640.0494 411.66,662.2794 " fill="none" id="overarch_dataModel_architectureModelNode-backto-overarch_dataModel_person" style="stroke:#181818;stroke-width:1.0;"/><polygon fill="none" points="387.24,584.6394,386.9221,603.6104,398.3682,600.0069,387.24,584.6394" style="stroke:#181818;stroke-width:1.0;"/></g><!--reverse link overarch_dataModel_modelElement to overarch_dataModel_architectureModelElement--><g id="link_overarch_dataModel_modelElement_overarch_dataModel_architectureModelElement"><path codeLine="52" d="M584,342.8894 C584,364.5294 584,372.7294 584,392.9194 " fill="none" id="overarch_dataModel_modelElement-backto-overarch_dataModel_architectureModelElement" style="stroke:#181818;stroke-width:1.0;"/><polygon fill="none" points="584,324.8894,578,342.8894,590,342.8894,584,324.8894" style="stroke:#181818;stroke-width:1.0;"/></g><!--reverse link overarch_dataModel_modelNode to overarch_dataModel_architectureModelNode--><g id="link_overarch_dataModel_modelNode_overarch_dataModel_architectureModelNode"><path codeLine="53" d="M386.2115,468.1481 C384.5715,492.3181 383.23,512.1094 381.58,536.3494 " fill="none" id="overarch_dataModel_modelNode-backto-overarch_dataModel_architectureModelNode" style="stroke:#181818;stroke-width:1.0;"/><polygon fill="none" points="387.43,450.1894,380.2252,467.7419,392.1977,468.5543,387.43,450.1894" style="stroke:#181818;stroke-width:1.0;"/></g><!--reverse link overarch_dataModel_technicalArchitectureModelRelation to overarch_dataModel_rel--><g id="link_overarch_dataModel_technicalArchitectureModelRelation_overarch_dataModel_rel"><path codeLine="54" d="M849.1903,719.4179 C806.2703,743.0379 756.94,770.1794 722.06,789.3694 " fill="none" id="overarch_dataModel_technicalArchitectureModelRelation-backto-overarch_dataModel_rel" style="stroke:#181818;stroke-width:1.0;"/><polygon fill="none" points="864.96,710.7394,846.2975,714.1613,852.0831,724.6744,864.96,710.7394" style="stroke:#181818;stroke-width:1.0;"/></g><!--reverse link overarch_dataModel_technicalArchitectureModelRelation to overarch_dataModel_send--><g id="link_overarch_dataModel_technicalArchitectureModelRelation_overarch_dataModel_send"><path codeLine="55" d="M870.2294,723.4425 C849.7594,743.3925 833.31,759.4294 812.84,779.3694 " fill="none" id="overarch_dataModel_technicalArchitectureModelRelation-backto-overarch_dataModel_send" style="stroke:#181818;stroke-width:1.0;"/><polygon fill="none" points="883.12,710.8794,866.0417,719.1456,874.4171,727.7394,883.12,710.8794" style="stroke:#181818;stroke-width:1.0;"/></g><!--reverse link overarch_dataModel_element to overarch_dataModel_modelElement--><g id="link_overarch_dataModel_element_overarch_dataModel_modelElement"><path codeLine="56" d="M584,199.7694 C584,219.9794 584,223.5294 584,241.4494 " fill="none" id="overarch_dataModel_element-backto-overarch_dataModel_modelElement" style="stroke:#181818;stroke-width:1.0;"/><polygon fill="none" points="584,181.7694,578,199.7694,590,199.7694,584,181.7694" style="stroke:#181818;stroke-width:1.0;"/></g><!--reverse link overarch_dataModel_technicalArchitectureModelNode to overarch_dataModel_component--><g id="link_overarch_dataModel_technicalArchitectureModelNode_overarch_dataModel_component"><path codeLine="57" d="M610.3953,737.6551 C605.0353,785.0051 596.34,858.3294 585,935.6094 C582.03,955.8494 578.12,978.7794 575.19,995.3994 " fill="none" id="overarch_dataModel_technicalArchitectureModelNode-backto-overarch_dataModel_component" style="stroke:#181818;stroke-width:1.0;"/><polygon fill="none" points="612.42,719.7694,604.4334,736.9803,616.3573,738.33,612.42,719.7694" style="stroke:#181818;stroke-width:1.0;"/></g><!--reverse link overarch_dataModel_technicalArchitectureModelRelation to overarch_dataModel_publish--><g id="link_overarch_dataModel_technicalArchitectureModelRelation_overarch_dataModel_publish"><path codeLine="58" d="M1008.5308,715.5372 C1070.1708,732.9672 1138.25,753.4094 1212,779.6094 C1217.65,781.6194 1223.55,783.8694 1229.33,786.1594 " fill="none" id="overarch_dataModel_technicalArchitectureModelRelation-backto-overarch_dataModel_publish" style="stroke:#181818;stroke-width:1.0;"/><polygon fill="none" points="991.21,710.6394,1006.8982,721.3108,1010.1634,709.7636,991.21,710.6394" style="stroke:#181818;stroke-width:1.0;"/></g><!--reverse link overarch_dataModel_boundaryNode to overarch_dataModel_contextBoundary--><g id="link_overarch_dataModel_boundaryNode_overarch_dataModel_contextBoundary"><path codeLine="59" d="M102.9806,601.8871 C96.3706,624.0271 91.6,640.0494 84.96,662.2794 " fill="none" id="overarch_dataModel_boundaryNode-backto-overarch_dataModel_contextBoundary" style="stroke:#181818;stroke-width:1.0;"/><polygon fill="none" points="108.13,584.6394,97.2314,600.1706,108.7299,603.6036,108.13,584.6394" style="stroke:#181818;stroke-width:1.0;"/></g><!--reverse link overarch_dataModel_architectureModelRelation to overarch_dataModel_technicalArchitectureModelRelation--><g id="link_overarch_dataModel_architectureModelRelation_overarch_dataModel_technicalArchitectureModelRelation"><path codeLine="60" d="M849.428,599.6007 C864.238,621.7407 876.5,640.0494 891.38,662.2794 " fill="none" id="overarch_dataModel_architectureModelRelation-backto-overarch_dataModel_technicalArchitectureModelRelation" style="stroke:#181818;stroke-width:1.0;"/><polygon fill="none" points="839.42,584.6394,844.4409,602.9367,854.4151,596.2647,839.42,584.6394" style="stroke:#181818;stroke-width:1.0;"/></g><!--link overarch_dataModel_contextBoundary to overarch_dataModel_architectureModelNode--><g id="link_overarch_dataModel_contextBoundary_overarch_dataModel_architectureModelNode"><path codeLine="61" d="M156.019,658.2888 C213.799,636.0488 278.6584,609.2964 329.1884,587.0564 " fill="none" id="overarch_dataModel_contextBoundary-overarch_dataModel_architectureModelNode" style="stroke:#181818;stroke-width:1.0;"/><polygon fill="#181818" points="144.82,662.5994,151.8564,664.1771,156.019,658.2888,148.9827,656.7111,144.82,662.5994" style="stroke:#181818;stroke-width:1.0;"/><polygon fill="#181818" points="334.68,584.6394,324.8312,584.6039,330.1037,586.6536,328.0539,591.926,334.68,584.6394" style="stroke:#181818;stroke-width:1.0;"/><text fill="#000000" font-family="sans-serif" font-size="13" lengthAdjust="spacing" textLength="22" x="298.952" y="605.9847">0..n</text></g><!--reverse link overarch_dataModel_architectureModelNode to overarch_dataModel_contextBoundary--><g id="link_overarch_dataModel_architectureModelNode_overarch_dataModel_contextBoundary"><path codeLine="81" d="M296.9391,591.1251 C239.4391,613.3351 174.84,640.2594 124.12,662.4894 " fill="none" id="overarch_dataModel_architectureModelNode-backto-overarch_dataModel_contextBoundary" style="stroke:#181818;stroke-width:1.0;"/><polygon fill="none" points="313.73,584.6394,294.7772,585.5281,299.1009,596.722,313.73,584.6394" style="stroke:#181818;stroke-width:1.0;"/></g><!--reverse link overarch_dataModel_modelElement to overarch_dataModel_modelNode--><g id="link_overarch_dataModel_modelElement_overarch_dataModel_modelNode"><path codeLine="62" d="M513.2748,335.2479 C478.6248,360.3079 449.99,381.0094 421.06,401.9294 " fill="none" id="overarch_dataModel_modelElement-backto-overarch_dataModel_modelNode" style="stroke:#181818;stroke-width:1.0;"/><polygon fill="none" points="527.86,324.6994,509.7586,330.3861,516.7909,340.1096,527.86,324.6994" style="stroke:#181818;stroke-width:1.0;"/></g><!--reverse link overarch_dataModel_technicalElement to overarch_dataModel_technicalArchitectureModelNode--><g id="link_overarch_dataModel_technicalElement_overarch_dataModel_technicalArchitectureModelNode"><path codeLine="63" d="M616,611.8694 C616,630.2394 616,635.1694 616,653.5194 " fill="none" id="overarch_dataModel_technicalElement-backto-overarch_dataModel_technicalArchitectureModelNode" style="stroke:#181818;stroke-width:1.0;"/><polygon fill="none" points="616,593.8694,610,611.8694,622,611.8694,616,593.8694" style="stroke:#181818;stroke-width:1.0;"/></g><!--reverse link overarch_dataModel_architectureModelNode to overarch_dataModel_technicalArchitectureModelNode--><g id="link_overarch_dataModel_architectureModelNode_overarch_dataModel_technicalArchitectureModelNode"><path codeLine="64" d="M439.7741,593.0121 C476.6941,612.4121 513.98,632.0094 555.05,653.5894 " fill="none" id="overarch_dataModel_architectureModelNode-backto-overarch_dataModel_technicalArchitectureModelNode" style="stroke:#181818;stroke-width:1.0;"/><polygon fill="none" points="423.84,584.6394,436.9832,598.3235,442.5651,587.7008,423.84,584.6394" style="stroke:#181818;stroke-width:1.0;"/></g><!--reverse link overarch_dataModel_technicalArchitectureModelNode to overarch_dataModel_container--><g id="link_overarch_dataModel_technicalArchitectureModelNode_overarch_dataModel_container"><path codeLine="65" d="M595.3403,736.6268 C576.1503,782.1668 548.65,847.3794 531.81,887.3494 " fill="none" id="overarch_dataModel_technicalArchitectureModelNode-backto-overarch_dataModel_container" style="stroke:#181818;stroke-width:1.0;"/><polygon fill="none" points="602.33,720.0394,589.8111,734.2969,600.8694,738.9567,602.33,720.0394" style="stroke:#181818;stroke-width:1.0;"/></g><!--reverse link overarch_dataModel_architectureModelElement to overarch_dataModel_architectureModelNode--><g id="link_overarch_dataModel_architectureModelElement_overarch_dataModel_architectureModelNode"><path codeLine="66" d="M519.5255,468.9853 C482.7355,492.8853 448.46,515.1394 415.5,536.5494 " fill="none" id="overarch_dataModel_architectureModelElement-backto-overarch_dataModel_architectureModelNode" style="stroke:#181818;stroke-width:1.0;"/><polygon fill="none" points="534.62,459.1794,516.2569,463.9538,522.7941,474.0168,534.62,459.1794" style="stroke:#181818;stroke-width:1.0;"/></g><!--reverse link overarch_dataModel_boundaryNode to overarch_dataModel_enterpriseBoundary--><g id="link_overarch_dataModel_boundaryNode_overarch_dataModel_enterpriseBoundary"><path codeLine="67" d="M156.7319,596.1098 C183.5919,618.3198 210.14,640.2594 237.03,662.4894 " fill="none" id="overarch_dataModel_boundaryNode-backto-overarch_dataModel_enterpriseBoundary" style="stroke:#181818;stroke-width:1.0;"/><polygon fill="none" points="142.86,584.6394,152.9084,600.7337,160.5554,591.4858,142.86,584.6394" style="stroke:#181818;stroke-width:1.0;"/></g><!--reverse link overarch_dataModel_modelElement to overarch_dataModel_modelRelation--><g id="link_overarch_dataModel_modelElement_overarch_dataModel_modelRelation"><path codeLine="68" d="M656.604,335.039 C683.394,353.839 700.41,365.7694 727.19,384.5594 " fill="none" id="overarch_dataModel_modelElement-backto-overarch_dataModel_modelRelation" style="stroke:#181818;stroke-width:1.0;"/><polygon fill="none" points="641.87,324.6994,653.1575,339.9504,660.0506,330.1277,641.87,324.6994" style="stroke:#181818;stroke-width:1.0;"/></g><!--reverse link overarch_dataModel_technicalArchitectureModelRelation to overarch_dataModel_dataflow--><g id="link_overarch_dataModel_technicalArchitectureModelRelation_overarch_dataModel_dataflow"><path codeLine="69" d="M943.5181,723.4961 C963.8181,743.4461 980.07,759.4294 1000.36,779.3694 " fill="none" id="overarch_dataModel_technicalArchitectureModelRelation-backto-overarch_dataModel_dataflow" style="stroke:#181818;stroke-width:1.0;"/><polygon fill="none" points="930.68,710.8794,939.3125,727.7755,947.7237,719.2168,930.68,710.8794" style="stroke:#181818;stroke-width:1.0;"/></g><!--link overarch_dataModel_system to overarch_dataModel_container--><g id="link_overarch_dataModel_system_overarch_dataModel_container"><path codeLine="70" d="M478.7984,837.9265 C489.2884,855.5865 494.5353,864.3911 505.0753,882.1311 " fill="none" id="overarch_dataModel_system-overarch_dataModel_container" style="stroke:#181818;stroke-width:1.0;"/><polygon fill="#181818" points="472.67,827.6094,472.2951,834.8107,478.7984,837.9265,479.1732,830.7252,472.67,827.6094" style="stroke:#181818;stroke-width:1.0;"/><polygon fill="#181818" points="508.14,887.2894,506.9818,877.5089,505.5861,882.9908,500.1041,881.5951,508.14,887.2894" style="stroke:#181818;stroke-width:1.0;"/><text fill="#000000" font-family="sans-serif" font-size="13" lengthAdjust="spacing" textLength="22" x="480.0804" y="876.9493">0..n</text></g><!--reverse link overarch_dataModel_architectureModelNode to overarch_dataModel_enterpriseBoundary--><g id="link_overarch_dataModel_architectureModelNode_overarch_dataModel_enterpriseBoundary"><path codeLine="71" d="M335.245,596.8608 C311.305,619.0008 293.65,640.0494 276.41,662.2794 " fill="none" id="overarch_dataModel_architectureModelNode-backto-overarch_dataModel_enterpriseBoundary" style="stroke:#181818;stroke-width:1.0;"/><polygon fill="none" points="348.46,584.6394,331.1712,592.4558,339.3188,601.2658,348.46,584.6394" style="stroke:#181818;stroke-width:1.0;"/></g><!--link overarch_dataModel_enterpriseBoundary to overarch_dataModel_architectureModelNode--><g id="link_overarch_dataModel_enterpriseBoundary_overarch_dataModel_architectureModelNode"><path codeLine="76" d="M306.2974,654.1614 C330.4974,631.9314 348.8581,611.5477 365.7681,589.4077 " fill="none" id="overarch_dataModel_enterpriseBoundary-overarch_dataModel_architectureModelNode" style="stroke:#181818;stroke-width:1.0;"/><polygon fill="#181818" points="297.46,662.2794,304.5847,661.1662,306.2974,654.1614,299.1727,655.2746,297.46,662.2794" style="stroke:#181818;stroke-width:1.0;"/><polygon fill="#181818" points="369.41,584.6394,360.7683,589.3639,366.3751,588.6129,367.126,594.2197,369.41,584.6394" style="stroke:#181818;stroke-width:1.0;"/><text fill="#000000" font-family="sans-serif" font-size="13" lengthAdjust="spacing" textLength="22" x="342.1474" y="605.9847">0..n</text></g><!--reverse link overarch_dataModel_architectureModelElement to overarch_dataModel_architectureModelRelation--><g id="link_overarch_dataModel_architectureModelElement_overarch_dataModel_architectureModelRelation"><path codeLine="72" d="M657.8571,467.8807 C701.1371,491.7807 743.46,515.1394 782.23,536.5494 " fill="none" id="overarch_dataModel_architectureModelElement-backto-overarch_dataModel_architectureModelRelation" style="stroke:#181818;stroke-width:1.0;"/><polygon fill="none" points="642.1,459.1794,654.9567,473.1331,660.7576,462.6284,642.1,459.1794" style="stroke:#181818;stroke-width:1.0;"/></g><!--reverse link overarch_dataModel_technicalArchitectureModelNode to overarch_dataModel_system--><g id="link_overarch_dataModel_technicalArchitectureModelNode_overarch_dataModel_system"><path codeLine="73" d="M557.7494,730.2766 C531.7994,749.2866 514.02,762.3094 490.56,779.4994 " fill="none" id="overarch_dataModel_technicalArchitectureModelNode-backto-overarch_dataModel_system" style="stroke:#181818;stroke-width:1.0;"/><polygon fill="none" points="572.27,719.6394,554.2036,725.4364,561.2951,735.1169,572.27,719.6394" style="stroke:#181818;stroke-width:1.0;"/></g><!--reverse link overarch_dataModel_technicalElement to overarch_dataModel_technicalArchitectureModelRelation--><g id="link_overarch_dataModel_technicalElement_overarch_dataModel_technicalArchitectureModelRelation"><path codeLine="74" d="M704.119,599.1562 C755.109,620.8862 806.04,642.5894 852.65,662.4494 " fill="none" id="overarch_dataModel_technicalElement-backto-overarch_dataModel_technicalArchitectureModelRelation" style="stroke:#181818;stroke-width:1.0;"/><polygon fill="none" points="687.56,592.0994,701.7667,604.6759,706.4713,593.6365,687.56,592.0994" style="stroke:#181818;stroke-width:1.0;"/></g><!--link overarch_dataModel_container to overarch_dataModel_component--><g id="link_overarch_dataModel_container_overarch_dataModel_component"><path codeLine="75" d="M537.6634,946.5027 C545.8234,964.1627 549.5025,972.1031 557.7025,989.8431 " fill="none" id="overarch_dataModel_container-overarch_dataModel_component" style="stroke:#181818;stroke-width:1.0;"/><polygon fill="#181818" points="532.63,935.6094,531.5156,942.7338,537.6634,946.5027,538.7778,939.3783,532.63,935.6094" style="stroke:#181818;stroke-width:1.0;"/><polygon fill="#181818" points="560.22,995.2894,560.0747,985.4416,558.1221,990.7508,552.8129,988.7982,560.22,995.2894" style="stroke:#181818;stroke-width:1.0;"/><text fill="#000000" font-family="sans-serif" font-size="13" lengthAdjust="spacing" textLength="22" x="532.9111" y="984.9493">0..n</text></g><!--reverse link overarch_dataModel_technicalArchitectureModelRelation to overarch_dataModel_request--><g id="link_overarch_dataModel_technicalArchitectureModelRelation_overarch_dataModel_request"><path codeLine="77" d="M1054.2705,714.0679 C1137.3005,730.1779 1229.19,750.5594 1324,779.6094 C1329.8,781.3894 1335.84,783.4894 1341.73,785.6794 " fill="none" id="overarch_dataModel_technicalArchitectureModelRelation-backto-overarch_dataModel_request" style="stroke:#181818;stroke-width:1.0;"/><polygon fill="none" points="1036.6,710.6394,1053.1276,719.9581,1055.4133,708.1778,1036.6,710.6394" style="stroke:#181818;stroke-width:1.0;"/></g><!--reverse link overarch_dataModel_technicalArchitectureModelRelation to overarch_dataModel_subscribe--><g id="link_overarch_dataModel_technicalArchitectureModelRelation_overarch_dataModel_subscribe"><path codeLine="78" d="M971.7246,718.4926 C1014.1946,738.7626 1059.28,760.2794 1101.24,780.2994 " fill="none" id="overarch_dataModel_technicalArchitectureModelRelation-backto-overarch_dataModel_subscribe" style="stroke:#181818;stroke-width:1.0;"/><polygon fill="none" points="955.48,710.7394,969.1402,723.9075,974.309,713.0777,955.48,710.7394" style="stroke:#181818;stroke-width:1.0;"/></g><!--reverse link overarch_dataModel_modelRelation to overarch_dataModel_architectureModelRelation--><g id="link_overarch_dataModel_modelRelation_overarch_dataModel_architectureModelRelation"><path codeLine="79" d="M802.1007,485.2175 C808.7207,507.7175 811.63,517.5694 817.18,536.4494 " fill="none" id="overarch_dataModel_modelRelation-backto-overarch_dataModel_architectureModelRelation" style="stroke:#181818;stroke-width:1.0;"/><polygon fill="none" points="797.02,467.9494,796.3446,486.911,807.8567,483.5239,797.02,467.9494" style="stroke:#181818;stroke-width:1.0;"/></g><!--reverse link overarch_dataModel_technicalArchitectureModelRelation to overarch_dataModel_response--><g id="link_overarch_dataModel_technicalArchitectureModelRelation_overarch_dataModel_response"><path codeLine="80" d="M904.8439,728.8545 C903.7939,748.8045 903.25,759.4294 902.21,779.3694 " fill="none" id="overarch_dataModel_technicalArchitectureModelRelation-backto-overarch_dataModel_response" style="stroke:#181818;stroke-width:1.0;"/><polygon fill="none" points="905.79,710.8794,898.8522,728.5391,910.8356,729.1698,905.79,710.8794" style="stroke:#181818;stroke-width:1.0;"/></g><!--SRC=[jLTDRzmW4BtpAz0U8pbghr5LAPLwR0wzLb64xKaMrO0BkAcLzhyNhx_ONG-mQ-TYoURD3BnvCuCjjnNGUrtikON2DXheDrL2HRzM841QGmZBZTMiiBIec35qvt1xoGjMPT1ZTfGPgdw3PixDKyaiExXuce23B_f6AEq-qZlgN7BvGdzykBtz-4Z-aS6tGu6kDJUGvQgH9TCjvds6VXcGz6toKpTvnSqUinsMFGFJ6Wi2m_Uh7VoKZ0W5u9sy15ESdTnzLajVNGRkw4zeNvKktIilZrub4p0PpUnf-DM0GJSpB7kdrb3Xu6hflCnJIYOwP2RT4_FYmmzV7jnZoUyigWiZJ8Rtow4SMwR9RLi3hhf2YLh9G1edG28bZZnckPB9j7mV37n5WYnHFRgrepGQjpq3U2xxTS-aMtokr2jcCgvx9eLo5VV7HWjpmFbLUKfPFAqY99OqaiKniKu8prg9epgoodizZpEUDBZJ4JHkTanVavj2ynorcm29cefqcZD9-KtNfGEqP5rFoPMgWCcv1fR9ZKGJfn44Su6vRMS-vrvcsOlfYWyi7ZLO_x5CuprWeQvgq0PtrQ-Ug9vn2JeazmEWCqfkWP_-PXaUdyGenymn5P1WYILxwz3akWHWCLnkD_RODKSIcCMOdOZm5PaqcDjfTcnypE4EGs8j2T_NKPic5uqfp6dyF2HXOjnasMTATwvNk3fTeykacX59oevv2QjZVMEutF_LUXtw6Rbaognk8KcQFR_phyjwI9GhIdEyF17yLo8cySkoi05fwpDx7Pd1hVTalLDTnZfIFzJZYGgqzuL_rCrwswgPU_WHt7hkZXTQ4hsClxEc4WZeVuZM5zV9wFeF]--></g></svg>