<?xml version="1.0" encoding="us-ascii" standalone="no"?><svg xmlns="http://www.w3.org/2000/svg" xmlns:xlink="http://www.w3.org/1999/xlink" contentStyleType="text/css" height="994px" preserveAspectRatio="none" style="width:2698px;height:994px;background:#FFFFFF;" version="1.1" viewBox="0 0 2698 994" width="2698px" zoomAndPan="magnify"><defs/><g><text fill="#000000" font-family="sans-serif" font-size="14" font-weight="bold" lengthAdjust="spacing" textLength="154" x="1265" y="24.5332">Code Model Elements</text><!--class overarch_dataModel_aggregation--><g id="elem_overarch_dataModel_aggregation"><rect codeLine="9" fill="#F1F1F1" height="48" id="overarch_dataModel_aggregation" rx="2.5" ry="2.5" style="stroke:#181818;stroke-width:0.5;" width="108" x="7" y="831.6094"/><ellipse cx="22" cy="847.6094" fill="#ADD1B2" rx="11" ry="11" style="stroke:#181818;stroke-width:1.0;"/><path d="M24.7656,843.4844 Q24.9219,843.2656 25.1094,843.1563 Q25.2969,843.0469 25.5156,843.0469 Q25.8906,843.0469 26.125,843.3125 Q26.3594,843.5625 26.3594,844.1719 L26.3594,845.625 Q26.3594,846.2344 26.125,846.5 Q25.8906,846.7656 25.5156,846.7656 Q25.1719,846.7656 24.9688,846.5625 Q24.7656,846.375 24.6563,845.8594 Q24.6094,845.5 24.4219,845.3125 Q24.0938,844.9375 23.4844,844.7188 Q22.875,844.5 22.25,844.5 Q21.4844,844.5 20.8438,844.8281 Q20.2188,845.1563 19.7188,845.9063 Q19.2344,846.6563 19.2344,847.6875 L19.2344,848.7813 Q19.2344,850.0156 20.125,850.8438 Q21.0156,851.6563 22.6094,851.6563 Q23.5469,851.6563 24.2031,851.4063 Q24.5938,851.25 25.0156,850.8125 Q25.2813,850.5469 25.4219,850.4688 Q25.5781,850.3906 25.7813,850.3906 Q26.1094,850.3906 26.3594,850.6563 Q26.625,850.9063 26.625,851.25 Q26.625,851.5938 26.2813,852 Q25.7813,852.5781 24.9844,852.9063 Q23.9063,853.3594 22.6094,853.3594 Q21.0938,853.3594 19.8906,852.7344 Q18.9063,852.2344 18.2188,851.1719 Q17.5313,850.0938 17.5313,848.8125 L17.5313,847.6563 Q17.5313,846.3281 18.1406,845.1875 Q18.7656,844.0313 19.8594,843.4219 Q20.9531,842.7969 22.1875,842.7969 Q22.9219,842.7969 23.5625,842.9688 Q24.2188,843.125 24.7656,843.4844 Z " fill="#000000"/><text fill="#000000" font-family="sans-serif" font-size="14" lengthAdjust="spacing" textLength="76" x="36" y="853.3379">aggregation</text><line style="stroke:#181818;stroke-width:0.5;" x1="8" x2="114" y1="863.6094" y2="863.6094"/><line style="stroke:#181818;stroke-width:0.5;" x1="8" x2="114" y1="871.6094" y2="871.6094"/></g><!--class overarch_dataModel_technicalElement--><g id="elem_overarch_dataModel_technicalElement"><rect codeLine="10" fill="#F1F1F1" height="65.6094" id="overarch_dataModel_technicalElement" rx="2.5" ry="2.5" style="stroke:#181818;stroke-width:0.5;" width="143" x="938.5" y="250.1094"/><ellipse cx="953.5" cy="266.1094" fill="#A9DCDF" rx="11" ry="11" style="stroke:#181818;stroke-width:1.0;"/><path d="M955.6875,267.875 L951.5469,267.875 L951.125,268.9063 L951.5469,268.9063 Q952.1563,268.9063 952.4219,269.1406 Q952.6875,269.375 952.6875,269.7656 Q952.6875,270.1406 952.4219,270.375 Q952.1563,270.6094 951.5469,270.6094 L949.25,270.6094 Q948.6406,270.6094 948.3906,270.375 Q948.125,270.1406 948.125,269.75 Q948.125,269.375 948.4063,269.1406 Q948.6719,268.8906 949.2969,268.9063 L951.9688,262.25 L950.8594,262.25 Q950.25,262.25 949.9844,262.0156 Q949.7188,261.7813 949.7188,261.3906 Q949.7188,261.0156 949.9844,260.7813 Q950.25,260.5469 950.8594,260.5469 L954.5313,260.5469 L957.9219,268.9063 Q958.5156,268.9063 958.7031,269.0469 Q959.0938,269.3125 959.0938,269.7656 Q959.0938,270.1406 958.8281,270.375 Q958.5781,270.6094 957.9688,270.6094 L955.6719,270.6094 Q955.0625,270.6094 954.7969,270.375 Q954.5313,270.1406 954.5313,269.75 Q954.5313,269.375 954.7969,269.1406 Q955.0625,268.9063 955.6719,268.9063 L956.0938,268.9063 L955.6875,267.875 Z M954.9688,266.1719 L953.6094,262.7969 L952.2344,266.1719 L954.9688,266.1719 Z " fill="#000000"/><text fill="#000000" font-family="sans-serif" font-size="14" font-style="italic" lengthAdjust="spacing" textLength="111" x="967.5" y="271.8379">technical-element</text><line style="stroke:#181818;stroke-width:0.5;" x1="939.5" x2="1080.5" y1="282.1094" y2="282.1094"/><text fill="#000000" font-family="sans-serif" font-size="14" lengthAdjust="spacing" textLength="110" x="944.5" y="300.6426">tech : string [0..1]</text><line style="stroke:#181818;stroke-width:0.5;" x1="939.5" x2="1080.5" y1="307.7188" y2="307.7188"/></g><!--class overarch_dataModel_method--><g id="elem_overarch_dataModel_method"><rect codeLine="13" fill="#F1F1F1" height="48" id="overarch_dataModel_method" rx="2.5" ry="2.5" style="stroke:#181818;stroke-width:0.5;" width="79" x="1629.5" y="831.6094"/><ellipse cx="1644.5" cy="847.6094" fill="#ADD1B2" rx="11" ry="11" style="stroke:#181818;stroke-width:1.0;"/><path d="M1647.2656,843.4844 Q1647.4219,843.2656 1647.6094,843.1563 Q1647.7969,843.0469 1648.0156,843.0469 Q1648.3906,843.0469 1648.625,843.3125 Q1648.8594,843.5625 1648.8594,844.1719 L1648.8594,845.625 Q1648.8594,846.2344 1648.625,846.5 Q1648.3906,846.7656 1648.0156,846.7656 Q1647.6719,846.7656 1647.4688,846.5625 Q1647.2656,846.375 1647.1563,845.8594 Q1647.1094,845.5 1646.9219,845.3125 Q1646.5938,844.9375 1645.9844,844.7188 Q1645.375,844.5 1644.75,844.5 Q1643.9844,844.5 1643.3438,844.8281 Q1642.7188,845.1563 1642.2188,845.9063 Q1641.7344,846.6563 1641.7344,847.6875 L1641.7344,848.7813 Q1641.7344,850.0156 1642.625,850.8438 Q1643.5156,851.6563 1645.1094,851.6563 Q1646.0469,851.6563 1646.7031,851.4063 Q1647.0938,851.25 1647.5156,850.8125 Q1647.7813,850.5469 1647.9219,850.4688 Q1648.0781,850.3906 1648.2813,850.3906 Q1648.6094,850.3906 1648.8594,850.6563 Q1649.125,850.9063 1649.125,851.25 Q1649.125,851.5938 1648.7813,852 Q1648.2813,852.5781 1647.4844,852.9063 Q1646.4063,853.3594 1645.1094,853.3594 Q1643.5938,853.3594 1642.3906,852.7344 Q1641.4063,852.2344 1640.7188,851.1719 Q1640.0313,850.0938 1640.0313,848.8125 L1640.0313,847.6563 Q1640.0313,846.3281 1640.6406,845.1875 Q1641.2656,844.0313 1642.3594,843.4219 Q1643.4531,842.7969 1644.6875,842.7969 Q1645.4219,842.7969 1646.0625,842.9688 Q1646.7188,843.125 1647.2656,843.4844 Z " fill="#000000"/><text fill="#000000" font-family="sans-serif" font-size="14" lengthAdjust="spacing" textLength="47" x="1658.5" y="853.3379">method</text><line style="stroke:#181818;stroke-width:0.5;" x1="1630.5" x2="1707.5" y1="863.6094" y2="863.6094"/><line style="stroke:#181818;stroke-width:0.5;" x1="1630.5" x2="1707.5" y1="871.6094" y2="871.6094"/></g><!--class overarch_dataModel_typeHierarchyRelation--><g id="elem_overarch_dataModel_typeHierarchyRelation"><rect codeLine="14" fill="#F1F1F1" height="48" id="overarch_dataModel_typeHierarchyRelation" rx="2.5" ry="2.5" style="stroke:#181818;stroke-width:0.5;" width="175" x="394.5" y="679.6094"/><ellipse cx="409.5" cy="695.6094" fill="#A9DCDF" rx="11" ry="11" style="stroke:#181818;stroke-width:1.0;"/><path d="M411.6875,697.375 L407.5469,697.375 L407.125,698.4063 L407.5469,698.4063 Q408.1563,698.4063 408.4219,698.6406 Q408.6875,698.875 408.6875,699.2656 Q408.6875,699.6406 408.4219,699.875 Q408.1563,700.1094 407.5469,700.1094 L405.25,700.1094 Q404.6406,700.1094 404.3906,699.875 Q404.125,699.6406 404.125,699.25 Q404.125,698.875 404.4063,698.6406 Q404.6719,698.3906 405.2969,698.4063 L407.9688,691.75 L406.8594,691.75 Q406.25,691.75 405.9844,691.5156 Q405.7188,691.2813 405.7188,690.8906 Q405.7188,690.5156 405.9844,690.2813 Q406.25,690.0469 406.8594,690.0469 L410.5313,690.0469 L413.9219,698.4063 Q414.5156,698.4063 414.7031,698.5469 Q415.0938,698.8125 415.0938,699.2656 Q415.0938,699.6406 414.8281,699.875 Q414.5781,700.1094 413.9688,700.1094 L411.6719,700.1094 Q411.0625,700.1094 410.7969,699.875 Q410.5313,699.6406 410.5313,699.25 Q410.5313,698.875 410.7969,698.6406 Q411.0625,698.4063 411.6719,698.4063 L412.0938,698.4063 L411.6875,697.375 Z M410.9688,695.6719 L409.6094,692.2969 L408.2344,695.6719 L410.9688,695.6719 Z " fill="#000000"/><text fill="#000000" font-family="sans-serif" font-size="14" font-style="italic" lengthAdjust="spacing" textLength="143" x="423.5" y="701.3379">type-hierarchy-relation</text><line style="stroke:#181818;stroke-width:0.5;" x1="395.5" x2="568.5" y1="711.6094" y2="711.6094"/><line style="stroke:#181818;stroke-width:0.5;" x1="395.5" x2="568.5" y1="719.6094" y2="719.6094"/></g><!--class overarch_dataModel_enumValue--><g id="elem_overarch_dataModel_enumValue"><rect codeLine="15" fill="#F1F1F1" height="48" id="overarch_dataModel_enumValue" rx="2.5" ry="2.5" style="stroke:#181818;stroke-width:0.5;" width="106" x="2585" y="831.6094"/><ellipse cx="2600" cy="847.6094" fill="#ADD1B2" rx="11" ry="11" style="stroke:#181818;stroke-width:1.0;"/><path d="M2602.7656,843.4844 Q2602.9219,843.2656 2603.1094,843.1563 Q2603.2969,843.0469 2603.5156,843.0469 Q2603.8906,843.0469 2604.125,843.3125 Q2604.3594,843.5625 2604.3594,844.1719 L2604.3594,845.625 Q2604.3594,846.2344 2604.125,846.5 Q2603.8906,846.7656 2603.5156,846.7656 Q2603.1719,846.7656 2602.9688,846.5625 Q2602.7656,846.375 2602.6563,845.8594 Q2602.6094,845.5 2602.4219,845.3125 Q2602.0938,844.9375 2601.4844,844.7188 Q2600.875,844.5 2600.25,844.5 Q2599.4844,844.5 2598.8438,844.8281 Q2598.2188,845.1563 2597.7188,845.9063 Q2597.2344,846.6563 2597.2344,847.6875 L2597.2344,848.7813 Q2597.2344,850.0156 2598.125,850.8438 Q2599.0156,851.6563 2600.6094,851.6563 Q2601.5469,851.6563 2602.2031,851.4063 Q2602.5938,851.25 2603.0156,850.8125 Q2603.2813,850.5469 2603.4219,850.4688 Q2603.5781,850.3906 2603.7813,850.3906 Q2604.1094,850.3906 2604.3594,850.6563 Q2604.625,850.9063 2604.625,851.25 Q2604.625,851.5938 2604.2813,852 Q2603.7813,852.5781 2602.9844,852.9063 Q2601.9063,853.3594 2600.6094,853.3594 Q2599.0938,853.3594 2597.8906,852.7344 Q2596.9063,852.2344 2596.2188,851.1719 Q2595.5313,850.0938 2595.5313,848.8125 L2595.5313,847.6563 Q2595.5313,846.3281 2596.1406,845.1875 Q2596.7656,844.0313 2597.8594,843.4219 Q2598.9531,842.7969 2600.1875,842.7969 Q2600.9219,842.7969 2601.5625,842.9688 Q2602.2188,843.125 2602.7656,843.4844 Z " fill="#000000"/><text fill="#000000" font-family="sans-serif" font-size="14" lengthAdjust="spacing" textLength="74" x="2614" y="853.3379">enum-value</text><line style="stroke:#181818;stroke-width:0.5;" x1="2586" x2="2690" y1="863.6094" y2="863.6094"/><line style="stroke:#181818;stroke-width:0.5;" x1="2586" x2="2690" y1="871.6094" y2="871.6094"/></g><!--class overarch_dataModel_field--><g id="elem_overarch_dataModel_field"><rect codeLine="16" fill="#F1F1F1" height="48" id="overarch_dataModel_field" rx="2.5" ry="2.5" style="stroke:#181818;stroke-width:0.5;" width="58" x="1844" y="831.6094"/><ellipse cx="1859" cy="847.6094" fill="#ADD1B2" rx="11" ry="11" style="stroke:#181818;stroke-width:1.0;"/><path d="M1861.7656,843.4844 Q1861.9219,843.2656 1862.1094,843.1563 Q1862.2969,843.0469 1862.5156,843.0469 Q1862.8906,843.0469 1863.125,843.3125 Q1863.3594,843.5625 1863.3594,844.1719 L1863.3594,845.625 Q1863.3594,846.2344 1863.125,846.5 Q1862.8906,846.7656 1862.5156,846.7656 Q1862.1719,846.7656 1861.9688,846.5625 Q1861.7656,846.375 1861.6563,845.8594 Q1861.6094,845.5 1861.4219,845.3125 Q1861.0938,844.9375 1860.4844,844.7188 Q1859.875,844.5 1859.25,844.5 Q1858.4844,844.5 1857.8438,844.8281 Q1857.2188,845.1563 1856.7188,845.9063 Q1856.2344,846.6563 1856.2344,847.6875 L1856.2344,848.7813 Q1856.2344,850.0156 1857.125,850.8438 Q1858.0156,851.6563 1859.6094,851.6563 Q1860.5469,851.6563 1861.2031,851.4063 Q1861.5938,851.25 1862.0156,850.8125 Q1862.2813,850.5469 1862.4219,850.4688 Q1862.5781,850.3906 1862.7813,850.3906 Q1863.1094,850.3906 1863.3594,850.6563 Q1863.625,850.9063 1863.625,851.25 Q1863.625,851.5938 1863.2813,852 Q1862.7813,852.5781 1861.9844,852.9063 Q1860.9063,853.3594 1859.6094,853.3594 Q1858.0938,853.3594 1856.8906,852.7344 Q1855.9063,852.2344 1855.2188,851.1719 Q1854.5313,850.0938 1854.5313,848.8125 L1854.5313,847.6563 Q1854.5313,846.3281 1855.1406,845.1875 Q1855.7656,844.0313 1856.8594,843.4219 Q1857.9531,842.7969 1859.1875,842.7969 Q1859.9219,842.7969 1860.5625,842.9688 Q1861.2188,843.125 1861.7656,843.4844 Z " fill="#000000"/><text fill="#000000" font-family="sans-serif" font-size="14" lengthAdjust="spacing" textLength="26" x="1873" y="853.3379">field</text><line style="stroke:#181818;stroke-width:0.5;" x1="1845" x2="1901" y1="863.6094" y2="863.6094"/><line style="stroke:#181818;stroke-width:0.5;" x1="1845" x2="1901" y1="871.6094" y2="871.6094"/></g><!--class overarch_dataModel_inheritance--><g id="elem_overarch_dataModel_inheritance"><rect codeLine="17" fill="#F1F1F1" height="48" id="overarch_dataModel_inheritance" rx="2.5" ry="2.5" style="stroke:#181818;stroke-width:0.5;" width="102" x="431" y="831.6094"/><ellipse cx="446" cy="847.6094" fill="#ADD1B2" rx="11" ry="11" style="stroke:#181818;stroke-width:1.0;"/><path d="M448.7656,843.4844 Q448.9219,843.2656 449.1094,843.1563 Q449.2969,843.0469 449.5156,843.0469 Q449.8906,843.0469 450.125,843.3125 Q450.3594,843.5625 450.3594,844.1719 L450.3594,845.625 Q450.3594,846.2344 450.125,846.5 Q449.8906,846.7656 449.5156,846.7656 Q449.1719,846.7656 448.9688,846.5625 Q448.7656,846.375 448.6563,845.8594 Q448.6094,845.5 448.4219,845.3125 Q448.0938,844.9375 447.4844,844.7188 Q446.875,844.5 446.25,844.5 Q445.4844,844.5 444.8438,844.8281 Q444.2188,845.1563 443.7188,845.9063 Q443.2344,846.6563 443.2344,847.6875 L443.2344,848.7813 Q443.2344,850.0156 444.125,850.8438 Q445.0156,851.6563 446.6094,851.6563 Q447.5469,851.6563 448.2031,851.4063 Q448.5938,851.25 449.0156,850.8125 Q449.2813,850.5469 449.4219,850.4688 Q449.5781,850.3906 449.7813,850.3906 Q450.1094,850.3906 450.3594,850.6563 Q450.625,850.9063 450.625,851.25 Q450.625,851.5938 450.2813,852 Q449.7813,852.5781 448.9844,852.9063 Q447.9063,853.3594 446.6094,853.3594 Q445.0938,853.3594 443.8906,852.7344 Q442.9063,852.2344 442.2188,851.1719 Q441.5313,850.0938 441.5313,848.8125 L441.5313,847.6563 Q441.5313,846.3281 442.1406,845.1875 Q442.7656,844.0313 443.8594,843.4219 Q444.9531,842.7969 446.1875,842.7969 Q446.9219,842.7969 447.5625,842.9688 Q448.2188,843.125 448.7656,843.4844 Z " fill="#000000"/><text fill="#000000" font-family="sans-serif" font-size="14" lengthAdjust="spacing" textLength="70" x="460" y="853.3379">inheritance</text><line style="stroke:#181818;stroke-width:0.5;" x1="432" x2="532" y1="863.6094" y2="863.6094"/><line style="stroke:#181818;stroke-width:0.5;" x1="432" x2="532" y1="871.6094" y2="871.6094"/></g><!--class overarch_dataModel_element--><g id="elem_overarch_dataModel_element"><rect codeLine="18" fill="#F1F1F1" height="136.0469" id="overarch_dataModel_element" rx="2.5" ry="2.5" style="stroke:#181818;stroke-width:0.5;" width="125" x="759.5" y="45.6094"/><ellipse cx="793.85" cy="61.6094" fill="#A9DCDF" rx="11" ry="11" style="stroke:#181818;stroke-width:1.0;"/><path d="M796.0375,63.375 L791.8969,63.375 L791.475,64.4063 L791.8969,64.4063 Q792.5063,64.4063 792.7719,64.6406 Q793.0375,64.875 793.0375,65.2656 Q793.0375,65.6406 792.7719,65.875 Q792.5063,66.1094 791.8969,66.1094 L789.6,66.1094 Q788.9906,66.1094 788.7406,65.875 Q788.475,65.6406 788.475,65.25 Q788.475,64.875 788.7563,64.6406 Q789.0219,64.3906 789.6469,64.4063 L792.3188,57.75 L791.2094,57.75 Q790.6,57.75 790.3344,57.5156 Q790.0688,57.2813 790.0688,56.8906 Q790.0688,56.5156 790.3344,56.2813 Q790.6,56.0469 791.2094,56.0469 L794.8813,56.0469 L798.2719,64.4063 Q798.8656,64.4063 799.0531,64.5469 Q799.4438,64.8125 799.4438,65.2656 Q799.4438,65.6406 799.1781,65.875 Q798.9281,66.1094 798.3188,66.1094 L796.0219,66.1094 Q795.4125,66.1094 795.1469,65.875 Q794.8813,65.6406 794.8813,65.25 Q794.8813,64.875 795.1469,64.6406 Q795.4125,64.4063 796.0219,64.4063 L796.4438,64.4063 L796.0375,63.375 Z M795.3188,61.6719 L793.9594,58.2969 L792.5844,61.6719 L795.3188,61.6719 Z " fill="#000000"/><text fill="#000000" font-family="sans-serif" font-size="14" font-style="italic" lengthAdjust="spacing" textLength="50" x="812.15" y="67.3379">element</text><line style="stroke:#181818;stroke-width:0.5;" x1="760.5" x2="883.5" y1="77.6094" y2="77.6094"/><text fill="#000000" font-family="sans-serif" font-size="14" lengthAdjust="spacing" textLength="113" x="765.5" y="96.1426">desc : string [0..1]</text><text fill="#000000" font-family="sans-serif" font-size="14" lengthAdjust="spacing" textLength="106" x="765.5" y="113.752">doc : string [0..1]</text><text fill="#000000" font-family="sans-serif" font-size="14" lengthAdjust="spacing" textLength="75" x="765.5" y="131.3613">el : keyword</text><text fill="#000000" font-family="sans-serif" font-size="14" lengthAdjust="spacing" textLength="75" x="765.5" y="148.9707">id : keyword</text><text fill="#000000" font-family="sans-serif" font-size="14" lengthAdjust="spacing" textLength="82" x="765.5" y="166.5801">name : string</text><line style="stroke:#181818;stroke-width:0.5;" x1="760.5" x2="883.5" y1="173.6563" y2="173.6563"/></g><!--class overarch_dataModel_function--><g id="elem_overarch_dataModel_function"><rect codeLine="25" fill="#F1F1F1" height="48" id="overarch_dataModel_function" rx="2.5" ry="2.5" style="stroke:#181818;stroke-width:0.5;" width="82" x="1980" y="831.6094"/><ellipse cx="1995" cy="847.6094" fill="#ADD1B2" rx="11" ry="11" style="stroke:#181818;stroke-width:1.0;"/><path d="M1997.7656,843.4844 Q1997.9219,843.2656 1998.1094,843.1563 Q1998.2969,843.0469 1998.5156,843.0469 Q1998.8906,843.0469 1999.125,843.3125 Q1999.3594,843.5625 1999.3594,844.1719 L1999.3594,845.625 Q1999.3594,846.2344 1999.125,846.5 Q1998.8906,846.7656 1998.5156,846.7656 Q1998.1719,846.7656 1997.9688,846.5625 Q1997.7656,846.375 1997.6563,845.8594 Q1997.6094,845.5 1997.4219,845.3125 Q1997.0938,844.9375 1996.4844,844.7188 Q1995.875,844.5 1995.25,844.5 Q1994.4844,844.5 1993.8438,844.8281 Q1993.2188,845.1563 1992.7188,845.9063 Q1992.2344,846.6563 1992.2344,847.6875 L1992.2344,848.7813 Q1992.2344,850.0156 1993.125,850.8438 Q1994.0156,851.6563 1995.6094,851.6563 Q1996.5469,851.6563 1997.2031,851.4063 Q1997.5938,851.25 1998.0156,850.8125 Q1998.2813,850.5469 1998.4219,850.4688 Q1998.5781,850.3906 1998.7813,850.3906 Q1999.1094,850.3906 1999.3594,850.6563 Q1999.625,850.9063 1999.625,851.25 Q1999.625,851.5938 1999.2813,852 Q1998.7813,852.5781 1997.9844,852.9063 Q1996.9063,853.3594 1995.6094,853.3594 Q1994.0938,853.3594 1992.8906,852.7344 Q1991.9063,852.2344 1991.2188,851.1719 Q1990.5313,850.0938 1990.5313,848.8125 L1990.5313,847.6563 Q1990.5313,846.3281 1991.1406,845.1875 Q1991.7656,844.0313 1992.8594,843.4219 Q1993.9531,842.7969 1995.1875,842.7969 Q1995.9219,842.7969 1996.5625,842.9688 Q1997.2188,843.125 1997.7656,843.4844 Z " fill="#000000"/><text fill="#000000" font-family="sans-serif" font-size="14" lengthAdjust="spacing" textLength="50" x="2009" y="853.3379">function</text><line style="stroke:#181818;stroke-width:0.5;" x1="1981" x2="2061" y1="863.6094" y2="863.6094"/><line style="stroke:#181818;stroke-width:0.5;" x1="1981" x2="2061" y1="871.6094" y2="871.6094"/></g><!--class overarch_dataModel_parameter--><g id="elem_overarch_dataModel_parameter"><rect codeLine="26" fill="#F1F1F1" height="48" id="overarch_dataModel_parameter" rx="2.5" ry="2.5" style="stroke:#181818;stroke-width:0.5;" width="97" x="1972.5" y="939.6094"/><ellipse cx="1987.5" cy="955.6094" fill="#ADD1B2" rx="11" ry="11" style="stroke:#181818;stroke-width:1.0;"/><path d="M1990.2656,951.4844 Q1990.4219,951.2656 1990.6094,951.1563 Q1990.7969,951.0469 1991.0156,951.0469 Q1991.3906,951.0469 1991.625,951.3125 Q1991.8594,951.5625 1991.8594,952.1719 L1991.8594,953.625 Q1991.8594,954.2344 1991.625,954.5 Q1991.3906,954.7656 1991.0156,954.7656 Q1990.6719,954.7656 1990.4688,954.5625 Q1990.2656,954.375 1990.1563,953.8594 Q1990.1094,953.5 1989.9219,953.3125 Q1989.5938,952.9375 1988.9844,952.7188 Q1988.375,952.5 1987.75,952.5 Q1986.9844,952.5 1986.3438,952.8281 Q1985.7188,953.1563 1985.2188,953.9063 Q1984.7344,954.6563 1984.7344,955.6875 L1984.7344,956.7813 Q1984.7344,958.0156 1985.625,958.8438 Q1986.5156,959.6563 1988.1094,959.6563 Q1989.0469,959.6563 1989.7031,959.4063 Q1990.0938,959.25 1990.5156,958.8125 Q1990.7813,958.5469 1990.9219,958.4688 Q1991.0781,958.3906 1991.2813,958.3906 Q1991.6094,958.3906 1991.8594,958.6563 Q1992.125,958.9063 1992.125,959.25 Q1992.125,959.5938 1991.7813,960 Q1991.2813,960.5781 1990.4844,960.9063 Q1989.4063,961.3594 1988.1094,961.3594 Q1986.5938,961.3594 1985.3906,960.7344 Q1984.4063,960.2344 1983.7188,959.1719 Q1983.0313,958.0938 1983.0313,956.8125 L1983.0313,955.6563 Q1983.0313,954.3281 1983.6406,953.1875 Q1984.2656,952.0313 1985.3594,951.4219 Q1986.4531,950.7969 1987.6875,950.7969 Q1988.4219,950.7969 1989.0625,950.9688 Q1989.7188,951.125 1990.2656,951.4844 Z " fill="#000000"/><text fill="#000000" font-family="sans-serif" font-size="14" lengthAdjust="spacing" textLength="65" x="2001.5" y="961.3379">parameter</text><line style="stroke:#181818;stroke-width:0.5;" x1="1973.5" x2="2068.5" y1="971.6094" y2="971.6094"/><line style="stroke:#181818;stroke-width:0.5;" x1="1973.5" x2="2068.5" y1="979.6094" y2="979.6094"/></g><!--class overarch_dataModel_namespace--><g id="elem_overarch_dataModel_namespace"><rect codeLine="27" fill="#F1F1F1" height="48" id="overarch_dataModel_namespace" rx="2.5" ry="2.5" style="stroke:#181818;stroke-width:0.5;" width="105" x="750.5" y="679.6094"/><ellipse cx="765.5" cy="695.6094" fill="#ADD1B2" rx="11" ry="11" style="stroke:#181818;stroke-width:1.0;"/><path d="M768.2656,691.4844 Q768.4219,691.2656 768.6094,691.1563 Q768.7969,691.0469 769.0156,691.0469 Q769.3906,691.0469 769.625,691.3125 Q769.8594,691.5625 769.8594,692.1719 L769.8594,693.625 Q769.8594,694.2344 769.625,694.5 Q769.3906,694.7656 769.0156,694.7656 Q768.6719,694.7656 768.4688,694.5625 Q768.2656,694.375 768.1563,693.8594 Q768.1094,693.5 767.9219,693.3125 Q767.5938,692.9375 766.9844,692.7188 Q766.375,692.5 765.75,692.5 Q764.9844,692.5 764.3438,692.8281 Q763.7188,693.1563 763.2188,693.9063 Q762.7344,694.6563 762.7344,695.6875 L762.7344,696.7813 Q762.7344,698.0156 763.625,698.8438 Q764.5156,699.6563 766.1094,699.6563 Q767.0469,699.6563 767.7031,699.4063 Q768.0938,699.25 768.5156,698.8125 Q768.7813,698.5469 768.9219,698.4688 Q769.0781,698.3906 769.2813,698.3906 Q769.6094,698.3906 769.8594,698.6563 Q770.125,698.9063 770.125,699.25 Q770.125,699.5938 769.7813,700 Q769.2813,700.5781 768.4844,700.9063 Q767.4063,701.3594 766.1094,701.3594 Q764.5938,701.3594 763.3906,700.7344 Q762.4063,700.2344 761.7188,699.1719 Q761.0313,698.0938 761.0313,696.8125 L761.0313,695.6563 Q761.0313,694.3281 761.6406,693.1875 Q762.2656,692.0313 763.3594,691.4219 Q764.4531,690.7969 765.6875,690.7969 Q766.4219,690.7969 767.0625,690.9688 Q767.7188,691.125 768.2656,691.4844 Z " fill="#000000"/><text fill="#000000" font-family="sans-serif" font-size="14" lengthAdjust="spacing" textLength="73" x="779.5" y="701.3379">namespace</text><line style="stroke:#181818;stroke-width:0.5;" x1="751.5" x2="854.5" y1="711.6094" y2="711.6094"/><line style="stroke:#181818;stroke-width:0.5;" x1="751.5" x2="854.5" y1="719.6094" y2="719.6094"/></g><!--class overarch_dataModel_association--><g id="elem_overarch_dataModel_association"><rect codeLine="28" fill="#F1F1F1" height="48" id="overarch_dataModel_association" rx="2.5" ry="2.5" style="stroke:#181818;stroke-width:0.5;" width="103" x="150.5" y="831.6094"/><ellipse cx="165.5" cy="847.6094" fill="#ADD1B2" rx="11" ry="11" style="stroke:#181818;stroke-width:1.0;"/><path d="M168.2656,843.4844 Q168.4219,843.2656 168.6094,843.1563 Q168.7969,843.0469 169.0156,843.0469 Q169.3906,843.0469 169.625,843.3125 Q169.8594,843.5625 169.8594,844.1719 L169.8594,845.625 Q169.8594,846.2344 169.625,846.5 Q169.3906,846.7656 169.0156,846.7656 Q168.6719,846.7656 168.4688,846.5625 Q168.2656,846.375 168.1563,845.8594 Q168.1094,845.5 167.9219,845.3125 Q167.5938,844.9375 166.9844,844.7188 Q166.375,844.5 165.75,844.5 Q164.9844,844.5 164.3438,844.8281 Q163.7188,845.1563 163.2188,845.9063 Q162.7344,846.6563 162.7344,847.6875 L162.7344,848.7813 Q162.7344,850.0156 163.625,850.8438 Q164.5156,851.6563 166.1094,851.6563 Q167.0469,851.6563 167.7031,851.4063 Q168.0938,851.25 168.5156,850.8125 Q168.7813,850.5469 168.9219,850.4688 Q169.0781,850.3906 169.2813,850.3906 Q169.6094,850.3906 169.8594,850.6563 Q170.125,850.9063 170.125,851.25 Q170.125,851.5938 169.7813,852 Q169.2813,852.5781 168.4844,852.9063 Q167.4063,853.3594 166.1094,853.3594 Q164.5938,853.3594 163.3906,852.7344 Q162.4063,852.2344 161.7188,851.1719 Q161.0313,850.0938 161.0313,848.8125 L161.0313,847.6563 Q161.0313,846.3281 161.6406,845.1875 Q162.2656,844.0313 163.3594,843.4219 Q164.4531,842.7969 165.6875,842.7969 Q166.4219,842.7969 167.0625,842.9688 Q167.7188,843.125 168.2656,843.4844 Z " fill="#000000"/><text fill="#000000" font-family="sans-serif" font-size="14" lengthAdjust="spacing" textLength="71" x="179.5" y="853.3379">association</text><line style="stroke:#181818;stroke-width:0.5;" x1="151.5" x2="252.5" y1="863.6094" y2="863.6094"/><line style="stroke:#181818;stroke-width:0.5;" x1="151.5" x2="252.5" y1="871.6094" y2="871.6094"/></g><!--class overarch_dataModel_visibilityNode--><g id="elem_overarch_dataModel_visibilityNode"><rect codeLine="29" fill="#F1F1F1" height="65.6094" id="overarch_dataModel_visibilityNode" rx="2.5" ry="2.5" style="stroke:#181818;stroke-width:0.5;" width="143" x="1784.5" y="670.6094"/><ellipse cx="1811.65" cy="686.6094" fill="#A9DCDF" rx="11" ry="11" style="stroke:#181818;stroke-width:1.0;"/><path d="M1813.8375,688.375 L1809.6969,688.375 L1809.275,689.4063 L1809.6969,689.4063 Q1810.3063,689.4063 1810.5719,689.6406 Q1810.8375,689.875 1810.8375,690.2656 Q1810.8375,690.6406 1810.5719,690.875 Q1810.3063,691.1094 1809.6969,691.1094 L1807.4,691.1094 Q1806.7906,691.1094 1806.5406,690.875 Q1806.275,690.6406 1806.275,690.25 Q1806.275,689.875 1806.5563,689.6406 Q1806.8219,689.3906 1807.4469,689.4063 L1810.1188,682.75 L1809.0094,682.75 Q1808.4,682.75 1808.1344,682.5156 Q1807.8688,682.2813 1807.8688,681.8906 Q1807.8688,681.5156 1808.1344,681.2813 Q1808.4,681.0469 1809.0094,681.0469 L1812.6813,681.0469 L1816.0719,689.4063 Q1816.6656,689.4063 1816.8531,689.5469 Q1817.2438,689.8125 1817.2438,690.2656 Q1817.2438,690.6406 1816.9781,690.875 Q1816.7281,691.1094 1816.1188,691.1094 L1813.8219,691.1094 Q1813.2125,691.1094 1812.9469,690.875 Q1812.6813,690.6406 1812.6813,690.25 Q1812.6813,689.875 1812.9469,689.6406 Q1813.2125,689.4063 1813.8219,689.4063 L1814.2438,689.4063 L1813.8375,688.375 Z M1813.1188,686.6719 L1811.7594,683.2969 L1810.3844,686.6719 L1813.1188,686.6719 Z " fill="#000000"/><text fill="#000000" font-family="sans-serif" font-size="14" font-style="italic" lengthAdjust="spacing" textLength="84" x="1828.35" y="692.3379">visibility-node</text><line style="stroke:#181818;stroke-width:0.5;" x1="1785.5" x2="1926.5" y1="702.6094" y2="702.6094"/><text fill="#000000" font-family="sans-serif" font-size="14" lengthAdjust="spacing" textLength="131" x="1790.5" y="721.1426">visibility : string [0..1]</text><line style="stroke:#181818;stroke-width:0.5;" x1="1785.5" x2="1926.5" y1="728.2188" y2="728.2188"/></g><!--class overarch_dataModel_abstractNode--><g id="elem_overarch_dataModel_abstractNode"><rect codeLine="32" fill="#F1F1F1" height="65.6094" id="overarch_dataModel_abstractNode" rx="2.5" ry="2.5" style="stroke:#181818;stroke-width:0.5;" width="162" x="1012" y="670.6094"/><ellipse cx="1045.9" cy="686.6094" fill="#A9DCDF" rx="11" ry="11" style="stroke:#181818;stroke-width:1.0;"/><path d="M1048.0875,688.375 L1043.9469,688.375 L1043.525,689.4063 L1043.9469,689.4063 Q1044.5563,689.4063 1044.8219,689.6406 Q1045.0875,689.875 1045.0875,690.2656 Q1045.0875,690.6406 1044.8219,690.875 Q1044.5563,691.1094 1043.9469,691.1094 L1041.65,691.1094 Q1041.0406,691.1094 1040.7906,690.875 Q1040.525,690.6406 1040.525,690.25 Q1040.525,689.875 1040.8063,689.6406 Q1041.0719,689.3906 1041.6969,689.4063 L1044.3688,682.75 L1043.2594,682.75 Q1042.65,682.75 1042.3844,682.5156 Q1042.1188,682.2813 1042.1188,681.8906 Q1042.1188,681.5156 1042.3844,681.2813 Q1042.65,681.0469 1043.2594,681.0469 L1046.9313,681.0469 L1050.3219,689.4063 Q1050.9156,689.4063 1051.1031,689.5469 Q1051.4938,689.8125 1051.4938,690.2656 Q1051.4938,690.6406 1051.2281,690.875 Q1050.9781,691.1094 1050.3688,691.1094 L1048.0719,691.1094 Q1047.4625,691.1094 1047.1969,690.875 Q1046.9313,690.6406 1046.9313,690.25 Q1046.9313,689.875 1047.1969,689.6406 Q1047.4625,689.4063 1048.0719,689.4063 L1048.4938,689.4063 L1048.0875,688.375 Z M1047.3688,686.6719 L1046.0094,683.2969 L1044.6344,686.6719 L1047.3688,686.6719 Z " fill="#000000"/><text fill="#000000" font-family="sans-serif" font-size="14" font-style="italic" lengthAdjust="spacing" textLength="88" x="1064.1" y="692.3379">abstract-node</text><line style="stroke:#181818;stroke-width:0.5;" x1="1013" x2="1173" y1="702.6094" y2="702.6094"/><text fill="#000000" font-family="sans-serif" font-size="14" lengthAdjust="spacing" textLength="150" x="1018" y="721.1426">abstract : boolean [0..1]</text><line style="stroke:#181818;stroke-width:0.5;" x1="1013" x2="1173" y1="728.2188" y2="728.2188"/></g><!--class overarch_dataModel_scopedNode--><g id="elem_overarch_dataModel_scopedNode"><rect codeLine="35" fill="#F1F1F1" height="65.6094" id="overarch_dataModel_scopedNode" rx="2.5" ry="2.5" style="stroke:#181818;stroke-width:0.5;" width="150" x="1403" y="670.6094"/><ellipse cx="1433.75" cy="686.6094" fill="#A9DCDF" rx="11" ry="11" style="stroke:#181818;stroke-width:1.0;"/><path d="M1435.9375,688.375 L1431.7969,688.375 L1431.375,689.4063 L1431.7969,689.4063 Q1432.4063,689.4063 1432.6719,689.6406 Q1432.9375,689.875 1432.9375,690.2656 Q1432.9375,690.6406 1432.6719,690.875 Q1432.4063,691.1094 1431.7969,691.1094 L1429.5,691.1094 Q1428.8906,691.1094 1428.6406,690.875 Q1428.375,690.6406 1428.375,690.25 Q1428.375,689.875 1428.6563,689.6406 Q1428.9219,689.3906 1429.5469,689.4063 L1432.2188,682.75 L1431.1094,682.75 Q1430.5,682.75 1430.2344,682.5156 Q1429.9688,682.2813 1429.9688,681.8906 Q1429.9688,681.5156 1430.2344,681.2813 Q1430.5,681.0469 1431.1094,681.0469 L1434.7813,681.0469 L1438.1719,689.4063 Q1438.7656,689.4063 1438.9531,689.5469 Q1439.3438,689.8125 1439.3438,690.2656 Q1439.3438,690.6406 1439.0781,690.875 Q1438.8281,691.1094 1438.2188,691.1094 L1435.9219,691.1094 Q1435.3125,691.1094 1435.0469,690.875 Q1434.7813,690.6406 1434.7813,690.25 Q1434.7813,689.875 1435.0469,689.6406 Q1435.3125,689.4063 1435.9219,689.4063 L1436.3438,689.4063 L1435.9375,688.375 Z M1435.2188,686.6719 L1433.8594,683.2969 L1432.4844,686.6719 L1435.2188,686.6719 Z " fill="#000000"/><text fill="#000000" font-family="sans-serif" font-size="14" font-style="italic" lengthAdjust="spacing" textLength="83" x="1451.25" y="692.3379">scoped-node</text><line style="stroke:#181818;stroke-width:0.5;" x1="1404" x2="1552" y1="702.6094" y2="702.6094"/><text fill="#000000" font-family="sans-serif" font-size="14" lengthAdjust="spacing" textLength="138" x="1409" y="721.1426">scope : keyword [0..1]</text><line style="stroke:#181818;stroke-width:0.5;" x1="1404" x2="1552" y1="728.2188" y2="728.2188"/></g><!--class overarch_dataModel_interface--><g id="elem_overarch_dataModel_interface"><rect codeLine="38" fill="#F1F1F1" height="48" id="overarch_dataModel_interface" rx="2.5" ry="2.5" style="stroke:#181818;stroke-width:0.5;" width="87" x="1209.5" y="679.6094"/><ellipse cx="1224.5" cy="695.6094" fill="#ADD1B2" rx="11" ry="11" style="stroke:#181818;stroke-width:1.0;"/><path d="M1227.2656,691.4844 Q1227.4219,691.2656 1227.6094,691.1563 Q1227.7969,691.0469 1228.0156,691.0469 Q1228.3906,691.0469 1228.625,691.3125 Q1228.8594,691.5625 1228.8594,692.1719 L1228.8594,693.625 Q1228.8594,694.2344 1228.625,694.5 Q1228.3906,694.7656 1228.0156,694.7656 Q1227.6719,694.7656 1227.4688,694.5625 Q1227.2656,694.375 1227.1563,693.8594 Q1227.1094,693.5 1226.9219,693.3125 Q1226.5938,692.9375 1225.9844,692.7188 Q1225.375,692.5 1224.75,692.5 Q1223.9844,692.5 1223.3438,692.8281 Q1222.7188,693.1563 1222.2188,693.9063 Q1221.7344,694.6563 1221.7344,695.6875 L1221.7344,696.7813 Q1221.7344,698.0156 1222.625,698.8438 Q1223.5156,699.6563 1225.1094,699.6563 Q1226.0469,699.6563 1226.7031,699.4063 Q1227.0938,699.25 1227.5156,698.8125 Q1227.7813,698.5469 1227.9219,698.4688 Q1228.0781,698.3906 1228.2813,698.3906 Q1228.6094,698.3906 1228.8594,698.6563 Q1229.125,698.9063 1229.125,699.25 Q1229.125,699.5938 1228.7813,700 Q1228.2813,700.5781 1227.4844,700.9063 Q1226.4063,701.3594 1225.1094,701.3594 Q1223.5938,701.3594 1222.3906,700.7344 Q1221.4063,700.2344 1220.7188,699.1719 Q1220.0313,698.0938 1220.0313,696.8125 L1220.0313,695.6563 Q1220.0313,694.3281 1220.6406,693.1875 Q1221.2656,692.0313 1222.3594,691.4219 Q1223.4531,690.7969 1224.6875,690.7969 Q1225.4219,690.7969 1226.0625,690.9688 Q1226.7188,691.125 1227.2656,691.4844 Z " fill="#000000"/><text fill="#000000" font-family="sans-serif" font-size="14" lengthAdjust="spacing" textLength="55" x="1238.5" y="701.3379">interface</text><line style="stroke:#181818;stroke-width:0.5;" x1="1210.5" x2="1295.5" y1="711.6094" y2="711.6094"/><line style="stroke:#181818;stroke-width:0.5;" x1="1210.5" x2="1295.5" y1="719.6094" y2="719.6094"/></g><!--class overarch_dataModel_optionalNode--><g id="elem_overarch_dataModel_optionalNode"><rect codeLine="39" fill="#F1F1F1" height="65.6094" id="overarch_dataModel_optionalNode" rx="2.5" ry="2.5" style="stroke:#181818;stroke-width:0.5;" width="161" x="1588.5" y="670.6094"/><ellipse cx="1622.4" cy="686.6094" fill="#A9DCDF" rx="11" ry="11" style="stroke:#181818;stroke-width:1.0;"/><path d="M1624.5875,688.375 L1620.4469,688.375 L1620.025,689.4063 L1620.4469,689.4063 Q1621.0563,689.4063 1621.3219,689.6406 Q1621.5875,689.875 1621.5875,690.2656 Q1621.5875,690.6406 1621.3219,690.875 Q1621.0563,691.1094 1620.4469,691.1094 L1618.15,691.1094 Q1617.5406,691.1094 1617.2906,690.875 Q1617.025,690.6406 1617.025,690.25 Q1617.025,689.875 1617.3063,689.6406 Q1617.5719,689.3906 1618.1969,689.4063 L1620.8688,682.75 L1619.7594,682.75 Q1619.15,682.75 1618.8844,682.5156 Q1618.6188,682.2813 1618.6188,681.8906 Q1618.6188,681.5156 1618.8844,681.2813 Q1619.15,681.0469 1619.7594,681.0469 L1623.4313,681.0469 L1626.8219,689.4063 Q1627.4156,689.4063 1627.6031,689.5469 Q1627.9938,689.8125 1627.9938,690.2656 Q1627.9938,690.6406 1627.7281,690.875 Q1627.4781,691.1094 1626.8688,691.1094 L1624.5719,691.1094 Q1623.9625,691.1094 1623.6969,690.875 Q1623.4313,690.6406 1623.4313,690.25 Q1623.4313,689.875 1623.6969,689.6406 Q1623.9625,689.4063 1624.5719,689.4063 L1624.9938,689.4063 L1624.5875,688.375 Z M1623.8688,686.6719 L1622.5094,683.2969 L1621.1344,686.6719 L1623.8688,686.6719 Z " fill="#000000"/><text fill="#000000" font-family="sans-serif" font-size="14" font-style="italic" lengthAdjust="spacing" textLength="87" x="1640.6" y="692.3379">optional-node</text><line style="stroke:#181818;stroke-width:0.5;" x1="1589.5" x2="1748.5" y1="702.6094" y2="702.6094"/><text fill="#000000" font-family="sans-serif" font-size="14" lengthAdjust="spacing" textLength="149" x="1594.5" y="721.1426">optional : boolean [0..1]</text><line style="stroke:#181818;stroke-width:0.5;" x1="1589.5" x2="1748.5" y1="728.2188" y2="728.2188"/></g><!--class overarch_dataModel_package--><g id="elem_overarch_dataModel_package"><rect codeLine="42" fill="#F1F1F1" height="48" id="overarch_dataModel_package" rx="2.5" ry="2.5" style="stroke:#181818;stroke-width:0.5;" width="86" x="891" y="679.6094"/><ellipse cx="906" cy="695.6094" fill="#ADD1B2" rx="11" ry="11" style="stroke:#181818;stroke-width:1.0;"/><path d="M908.7656,691.4844 Q908.9219,691.2656 909.1094,691.1563 Q909.2969,691.0469 909.5156,691.0469 Q909.8906,691.0469 910.125,691.3125 Q910.3594,691.5625 910.3594,692.1719 L910.3594,693.625 Q910.3594,694.2344 910.125,694.5 Q909.8906,694.7656 909.5156,694.7656 Q909.1719,694.7656 908.9688,694.5625 Q908.7656,694.375 908.6563,693.8594 Q908.6094,693.5 908.4219,693.3125 Q908.0938,692.9375 907.4844,692.7188 Q906.875,692.5 906.25,692.5 Q905.4844,692.5 904.8438,692.8281 Q904.2188,693.1563 903.7188,693.9063 Q903.2344,694.6563 903.2344,695.6875 L903.2344,696.7813 Q903.2344,698.0156 904.125,698.8438 Q905.0156,699.6563 906.6094,699.6563 Q907.5469,699.6563 908.2031,699.4063 Q908.5938,699.25 909.0156,698.8125 Q909.2813,698.5469 909.4219,698.4688 Q909.5781,698.3906 909.7813,698.3906 Q910.1094,698.3906 910.3594,698.6563 Q910.625,698.9063 910.625,699.25 Q910.625,699.5938 910.2813,700 Q909.7813,700.5781 908.9844,700.9063 Q907.9063,701.3594 906.6094,701.3594 Q905.0938,701.3594 903.8906,700.7344 Q902.9063,700.2344 902.2188,699.1719 Q901.5313,698.0938 901.5313,696.8125 L901.5313,695.6563 Q901.5313,694.3281 902.1406,693.1875 Q902.7656,692.0313 903.8594,691.4219 Q904.9531,690.7969 906.1875,690.7969 Q906.9219,690.7969 907.5625,690.9688 Q908.2188,691.125 908.7656,691.4844 Z " fill="#000000"/><text fill="#000000" font-family="sans-serif" font-size="14" lengthAdjust="spacing" textLength="54" x="920" y="701.3379">package</text><line style="stroke:#181818;stroke-width:0.5;" x1="892" x2="976" y1="711.6094" y2="711.6094"/><line style="stroke:#181818;stroke-width:0.5;" x1="892" x2="976" y1="719.6094" y2="719.6094"/></g><!--class overarch_dataModel_modelNode--><g id="elem_overarch_dataModel_modelNode"><rect codeLine="43" fill="#F1F1F1" height="48" id="overarch_dataModel_modelNode" rx="2.5" ry="2.5" style="stroke:#181818;stroke-width:0.5;" width="107" x="1222.5" y="402.1094"/><ellipse cx="1237.5" cy="418.1094" fill="#A9DCDF" rx="11" ry="11" style="stroke:#181818;stroke-width:1.0;"/><path d="M1239.6875,419.875 L1235.5469,419.875 L1235.125,420.9063 L1235.5469,420.9063 Q1236.1563,420.9063 1236.4219,421.1406 Q1236.6875,421.375 1236.6875,421.7656 Q1236.6875,422.1406 1236.4219,422.375 Q1236.1563,422.6094 1235.5469,422.6094 L1233.25,422.6094 Q1232.6406,422.6094 1232.3906,422.375 Q1232.125,422.1406 1232.125,421.75 Q1232.125,421.375 1232.4063,421.1406 Q1232.6719,420.8906 1233.2969,420.9063 L1235.9688,414.25 L1234.8594,414.25 Q1234.25,414.25 1233.9844,414.0156 Q1233.7188,413.7813 1233.7188,413.3906 Q1233.7188,413.0156 1233.9844,412.7813 Q1234.25,412.5469 1234.8594,412.5469 L1238.5313,412.5469 L1241.9219,420.9063 Q1242.5156,420.9063 1242.7031,421.0469 Q1243.0938,421.3125 1243.0938,421.7656 Q1243.0938,422.1406 1242.8281,422.375 Q1242.5781,422.6094 1241.9688,422.6094 L1239.6719,422.6094 Q1239.0625,422.6094 1238.7969,422.375 Q1238.5313,422.1406 1238.5313,421.75 Q1238.5313,421.375 1238.7969,421.1406 Q1239.0625,420.9063 1239.6719,420.9063 L1240.0938,420.9063 L1239.6875,419.875 Z M1238.9688,418.1719 L1237.6094,414.7969 L1236.2344,418.1719 L1238.9688,418.1719 Z " fill="#000000"/><text fill="#000000" font-family="sans-serif" font-size="14" font-style="italic" lengthAdjust="spacing" textLength="75" x="1251.5" y="423.8379">model-node</text><line style="stroke:#181818;stroke-width:0.5;" x1="1223.5" x2="1328.5" y1="434.1094" y2="434.1094"/><line style="stroke:#181818;stroke-width:0.5;" x1="1223.5" x2="1328.5" y1="442.1094" y2="442.1094"/></g><!--class overarch_dataModel_enum--><g id="elem_overarch_dataModel_enum"><rect codeLine="44" fill="#F1F1F1" height="48" id="overarch_dataModel_enum" rx="2.5" ry="2.5" style="stroke:#181818;stroke-width:0.5;" width="67" x="2551.5" y="679.6094"/><ellipse cx="2566.5" cy="695.6094" fill="#ADD1B2" rx="11" ry="11" style="stroke:#181818;stroke-width:1.0;"/><path d="M2569.2656,691.4844 Q2569.4219,691.2656 2569.6094,691.1563 Q2569.7969,691.0469 2570.0156,691.0469 Q2570.3906,691.0469 2570.625,691.3125 Q2570.8594,691.5625 2570.8594,692.1719 L2570.8594,693.625 Q2570.8594,694.2344 2570.625,694.5 Q2570.3906,694.7656 2570.0156,694.7656 Q2569.6719,694.7656 2569.4688,694.5625 Q2569.2656,694.375 2569.1563,693.8594 Q2569.1094,693.5 2568.9219,693.3125 Q2568.5938,692.9375 2567.9844,692.7188 Q2567.375,692.5 2566.75,692.5 Q2565.9844,692.5 2565.3438,692.8281 Q2564.7188,693.1563 2564.2188,693.9063 Q2563.7344,694.6563 2563.7344,695.6875 L2563.7344,696.7813 Q2563.7344,698.0156 2564.625,698.8438 Q2565.5156,699.6563 2567.1094,699.6563 Q2568.0469,699.6563 2568.7031,699.4063 Q2569.0938,699.25 2569.5156,698.8125 Q2569.7813,698.5469 2569.9219,698.4688 Q2570.0781,698.3906 2570.2813,698.3906 Q2570.6094,698.3906 2570.8594,698.6563 Q2571.125,698.9063 2571.125,699.25 Q2571.125,699.5938 2570.7813,700 Q2570.2813,700.5781 2569.4844,700.9063 Q2568.4063,701.3594 2567.1094,701.3594 Q2565.5938,701.3594 2564.3906,700.7344 Q2563.4063,700.2344 2562.7188,699.1719 Q2562.0313,698.0938 2562.0313,696.8125 L2562.0313,695.6563 Q2562.0313,694.3281 2562.6406,693.1875 Q2563.2656,692.0313 2564.3594,691.4219 Q2565.4531,690.7969 2566.6875,690.7969 Q2567.4219,690.7969 2568.0625,690.9688 Q2568.7188,691.125 2569.2656,691.4844 Z " fill="#000000"/><text fill="#000000" font-family="sans-serif" font-size="14" lengthAdjust="spacing" textLength="35" x="2580.5" y="701.3379">enum</text><line style="stroke:#181818;stroke-width:0.5;" x1="2552.5" x2="2617.5" y1="711.6094" y2="711.6094"/><line style="stroke:#181818;stroke-width:0.5;" x1="2552.5" x2="2617.5" y1="719.6094" y2="719.6094"/></g><!--class overarch_dataModel_modelRelation--><g id="elem_overarch_dataModel_modelRelation"><rect codeLine="45" fill="#F1F1F1" height="83.2188" id="overarch_dataModel_modelRelation" rx="2.5" ry="2.5" style="stroke:#181818;stroke-width:0.5;" width="122" x="673" y="384.6094"/><ellipse cx="688" cy="400.6094" fill="#A9DCDF" rx="11" ry="11" style="stroke:#181818;stroke-width:1.0;"/><path d="M690.1875,402.375 L686.0469,402.375 L685.625,403.4063 L686.0469,403.4063 Q686.6563,403.4063 686.9219,403.6406 Q687.1875,403.875 687.1875,404.2656 Q687.1875,404.6406 686.9219,404.875 Q686.6563,405.1094 686.0469,405.1094 L683.75,405.1094 Q683.1406,405.1094 682.8906,404.875 Q682.625,404.6406 682.625,404.25 Q682.625,403.875 682.9063,403.6406 Q683.1719,403.3906 683.7969,403.4063 L686.4688,396.75 L685.3594,396.75 Q684.75,396.75 684.4844,396.5156 Q684.2188,396.2813 684.2188,395.8906 Q684.2188,395.5156 684.4844,395.2813 Q684.75,395.0469 685.3594,395.0469 L689.0313,395.0469 L692.4219,403.4063 Q693.0156,403.4063 693.2031,403.5469 Q693.5938,403.8125 693.5938,404.2656 Q693.5938,404.6406 693.3281,404.875 Q693.0781,405.1094 692.4688,405.1094 L690.1719,405.1094 Q689.5625,405.1094 689.2969,404.875 Q689.0313,404.6406 689.0313,404.25 Q689.0313,403.875 689.2969,403.6406 Q689.5625,403.4063 690.1719,403.4063 L690.5938,403.4063 L690.1875,402.375 Z M689.4688,400.6719 L688.1094,397.2969 L686.7344,400.6719 L689.4688,400.6719 Z " fill="#000000"/><text fill="#000000" font-family="sans-serif" font-size="14" font-style="italic" lengthAdjust="spacing" textLength="90" x="702" y="406.3379">model-relation</text><line style="stroke:#181818;stroke-width:0.5;" x1="674" x2="794" y1="416.6094" y2="416.6094"/><text fill="#000000" font-family="sans-serif" font-size="14" lengthAdjust="spacing" textLength="92" x="679" y="435.1426">from : keyword</text><text fill="#000000" font-family="sans-serif" font-size="14" lengthAdjust="spacing" textLength="76" x="679" y="452.752">to : keyword</text><line style="stroke:#181818;stroke-width:0.5;" x1="674" x2="794" y1="459.8281" y2="459.8281"/></g><!--class overarch_dataModel_associativeRelation--><g id="elem_overarch_dataModel_associativeRelation"><rect codeLine="49" fill="#F1F1F1" height="136.0469" id="overarch_dataModel_associativeRelation" rx="2.5" ry="2.5" style="stroke:#181818;stroke-width:0.5;" width="156" x="164" y="635.6094"/><ellipse cx="180.35" cy="651.6094" fill="#A9DCDF" rx="11" ry="11" style="stroke:#181818;stroke-width:1.0;"/><path d="M182.5375,653.375 L178.3969,653.375 L177.975,654.4063 L178.3969,654.4063 Q179.0063,654.4063 179.2719,654.6406 Q179.5375,654.875 179.5375,655.2656 Q179.5375,655.6406 179.2719,655.875 Q179.0063,656.1094 178.3969,656.1094 L176.1,656.1094 Q175.4906,656.1094 175.2406,655.875 Q174.975,655.6406 174.975,655.25 Q174.975,654.875 175.2563,654.6406 Q175.5219,654.3906 176.1469,654.4063 L178.8188,647.75 L177.7094,647.75 Q177.1,647.75 176.8344,647.5156 Q176.5688,647.2813 176.5688,646.8906 Q176.5688,646.5156 176.8344,646.2813 Q177.1,646.0469 177.7094,646.0469 L181.3813,646.0469 L184.7719,654.4063 Q185.3656,654.4063 185.5531,654.5469 Q185.9438,654.8125 185.9438,655.2656 Q185.9438,655.6406 185.6781,655.875 Q185.4281,656.1094 184.8188,656.1094 L182.5219,656.1094 Q181.9125,656.1094 181.6469,655.875 Q181.3813,655.6406 181.3813,655.25 Q181.3813,654.875 181.6469,654.6406 Q181.9125,654.4063 182.5219,654.4063 L182.9438,654.4063 L182.5375,653.375 Z M181.8188,651.6719 L180.4594,648.2969 L179.0844,651.6719 L181.8188,651.6719 Z " fill="#000000"/><text fill="#000000" font-family="sans-serif" font-size="14" font-style="italic" lengthAdjust="spacing" textLength="121" x="194.65" y="657.3379">associative-relation</text><line style="stroke:#181818;stroke-width:0.5;" x1="165" x2="319" y1="667.6094" y2="667.6094"/><text fill="#000000" font-family="sans-serif" font-size="14" lengthAdjust="spacing" textLength="144" x="170" y="686.1426">from-card : string [0..1]</text><text fill="#000000" font-family="sans-serif" font-size="14" lengthAdjust="spacing" textLength="140" x="170" y="703.752">from-role : string [0..1]</text><text fill="#000000" font-family="sans-serif" font-size="14" lengthAdjust="spacing" textLength="133" x="170" y="721.3613">qualifier : string [0..1]</text><text fill="#000000" font-family="sans-serif" font-size="14" lengthAdjust="spacing" textLength="92" x="170" y="738.9707">to-card : string</text><text fill="#000000" font-family="sans-serif" font-size="14" lengthAdjust="spacing" textLength="124" x="170" y="756.5801">to-role : string [0..1]</text><line style="stroke:#181818;stroke-width:0.5;" x1="165" x2="319" y1="763.6563" y2="763.6563"/></g><!--class overarch_dataModel_codeModelRelation--><g id="elem_overarch_dataModel_codeModelRelation"><rect codeLine="56" fill="#F1F1F1" height="48" id="overarch_dataModel_codeModelRelation" rx="2.5" ry="2.5" style="stroke:#181818;stroke-width:0.5;" width="158" x="581" y="527.6094"/><ellipse cx="596" cy="543.6094" fill="#A9DCDF" rx="11" ry="11" style="stroke:#181818;stroke-width:1.0;"/><path d="M598.1875,545.375 L594.0469,545.375 L593.625,546.4063 L594.0469,546.4063 Q594.6563,546.4063 594.9219,546.6406 Q595.1875,546.875 595.1875,547.2656 Q595.1875,547.6406 594.9219,547.875 Q594.6563,548.1094 594.0469,548.1094 L591.75,548.1094 Q591.1406,548.1094 590.8906,547.875 Q590.625,547.6406 590.625,547.25 Q590.625,546.875 590.9063,546.6406 Q591.1719,546.3906 591.7969,546.4063 L594.4688,539.75 L593.3594,539.75 Q592.75,539.75 592.4844,539.5156 Q592.2188,539.2813 592.2188,538.8906 Q592.2188,538.5156 592.4844,538.2813 Q592.75,538.0469 593.3594,538.0469 L597.0313,538.0469 L600.4219,546.4063 Q601.0156,546.4063 601.2031,546.5469 Q601.5938,546.8125 601.5938,547.2656 Q601.5938,547.6406 601.3281,547.875 Q601.0781,548.1094 600.4688,548.1094 L598.1719,548.1094 Q597.5625,548.1094 597.2969,547.875 Q597.0313,547.6406 597.0313,547.25 Q597.0313,546.875 597.2969,546.6406 Q597.5625,546.4063 598.1719,546.4063 L598.5938,546.4063 L598.1875,545.375 Z M597.4688,543.6719 L596.1094,540.2969 L594.7344,543.6719 L597.4688,543.6719 Z " fill="#000000"/><text fill="#000000" font-family="sans-serif" font-size="14" font-style="italic" lengthAdjust="spacing" textLength="126" x="610" y="549.3379">code-model-relation</text><line style="stroke:#181818;stroke-width:0.5;" x1="582" x2="738" y1="559.6094" y2="559.6094"/><line style="stroke:#181818;stroke-width:0.5;" x1="582" x2="738" y1="567.6094" y2="567.6094"/></g><!--class overarch_dataModel_composition--><g id="elem_overarch_dataModel_composition"><rect codeLine="57" fill="#F1F1F1" height="48" id="overarch_dataModel_composition" rx="2.5" ry="2.5" style="stroke:#181818;stroke-width:0.5;" width="107" x="288.5" y="831.6094"/><ellipse cx="303.5" cy="847.6094" fill="#ADD1B2" rx="11" ry="11" style="stroke:#181818;stroke-width:1.0;"/><path d="M306.2656,843.4844 Q306.4219,843.2656 306.6094,843.1563 Q306.7969,843.0469 307.0156,843.0469 Q307.3906,843.0469 307.625,843.3125 Q307.8594,843.5625 307.8594,844.1719 L307.8594,845.625 Q307.8594,846.2344 307.625,846.5 Q307.3906,846.7656 307.0156,846.7656 Q306.6719,846.7656 306.4688,846.5625 Q306.2656,846.375 306.1563,845.8594 Q306.1094,845.5 305.9219,845.3125 Q305.5938,844.9375 304.9844,844.7188 Q304.375,844.5 303.75,844.5 Q302.9844,844.5 302.3438,844.8281 Q301.7188,845.1563 301.2188,845.9063 Q300.7344,846.6563 300.7344,847.6875 L300.7344,848.7813 Q300.7344,850.0156 301.625,850.8438 Q302.5156,851.6563 304.1094,851.6563 Q305.0469,851.6563 305.7031,851.4063 Q306.0938,851.25 306.5156,850.8125 Q306.7813,850.5469 306.9219,850.4688 Q307.0781,850.3906 307.2813,850.3906 Q307.6094,850.3906 307.8594,850.6563 Q308.125,850.9063 308.125,851.25 Q308.125,851.5938 307.7813,852 Q307.2813,852.5781 306.4844,852.9063 Q305.4063,853.3594 304.1094,853.3594 Q302.5938,853.3594 301.3906,852.7344 Q300.4063,852.2344 299.7188,851.1719 Q299.0313,850.0938 299.0313,848.8125 L299.0313,847.6563 Q299.0313,846.3281 299.6406,845.1875 Q300.2656,844.0313 301.3594,843.4219 Q302.4531,842.7969 303.6875,842.7969 Q304.4219,842.7969 305.0625,842.9688 Q305.7188,843.125 306.2656,843.4844 Z " fill="#000000"/><text fill="#000000" font-family="sans-serif" font-size="14" lengthAdjust="spacing" textLength="75" x="317.5" y="853.3379">composition</text><line style="stroke:#181818;stroke-width:0.5;" x1="289.5" x2="394.5" y1="863.6094" y2="863.6094"/><line style="stroke:#181818;stroke-width:0.5;" x1="289.5" x2="394.5" y1="871.6094" y2="871.6094"/></g><!--class overarch_dataModel_codeModelNode--><g id="elem_overarch_dataModel_codeModelNode"><rect codeLine="58" fill="#F1F1F1" height="48" id="overarch_dataModel_codeModelNode" rx="2.5" ry="2.5" style="stroke:#181818;stroke-width:0.5;" width="143" x="1278.5" y="527.6094"/><ellipse cx="1293.5" cy="543.6094" fill="#A9DCDF" rx="11" ry="11" style="stroke:#181818;stroke-width:1.0;"/><path d="M1295.6875,545.375 L1291.5469,545.375 L1291.125,546.4063 L1291.5469,546.4063 Q1292.1563,546.4063 1292.4219,546.6406 Q1292.6875,546.875 1292.6875,547.2656 Q1292.6875,547.6406 1292.4219,547.875 Q1292.1563,548.1094 1291.5469,548.1094 L1289.25,548.1094 Q1288.6406,548.1094 1288.3906,547.875 Q1288.125,547.6406 1288.125,547.25 Q1288.125,546.875 1288.4063,546.6406 Q1288.6719,546.3906 1289.2969,546.4063 L1291.9688,539.75 L1290.8594,539.75 Q1290.25,539.75 1289.9844,539.5156 Q1289.7188,539.2813 1289.7188,538.8906 Q1289.7188,538.5156 1289.9844,538.2813 Q1290.25,538.0469 1290.8594,538.0469 L1294.5313,538.0469 L1297.9219,546.4063 Q1298.5156,546.4063 1298.7031,546.5469 Q1299.0938,546.8125 1299.0938,547.2656 Q1299.0938,547.6406 1298.8281,547.875 Q1298.5781,548.1094 1297.9688,548.1094 L1295.6719,548.1094 Q1295.0625,548.1094 1294.7969,547.875 Q1294.5313,547.6406 1294.5313,547.25 Q1294.5313,546.875 1294.7969,546.6406 Q1295.0625,546.4063 1295.6719,546.4063 L1296.0938,546.4063 L1295.6875,545.375 Z M1294.9688,543.6719 L1293.6094,540.2969 L1292.2344,543.6719 L1294.9688,543.6719 Z " fill="#000000"/><text fill="#000000" font-family="sans-serif" font-size="14" font-style="italic" lengthAdjust="spacing" textLength="111" x="1307.5" y="549.3379">code-model-node</text><line style="stroke:#181818;stroke-width:0.5;" x1="1279.5" x2="1420.5" y1="559.6094" y2="559.6094"/><line style="stroke:#181818;stroke-width:0.5;" x1="1279.5" x2="1420.5" y1="567.6094" y2="567.6094"/></g><!--class overarch_dataModel_modelElement--><g id="elem_overarch_dataModel_modelElement"><rect codeLine="59" fill="#F1F1F1" height="83.2188" id="overarch_dataModel_modelElement" rx="2.5" ry="2.5" style="stroke:#181818;stroke-width:0.5;" width="162" x="741" y="241.6094"/><ellipse cx="772.65" cy="257.6094" fill="#A9DCDF" rx="11" ry="11" style="stroke:#181818;stroke-width:1.0;"/><path d="M774.8375,259.375 L770.6969,259.375 L770.275,260.4063 L770.6969,260.4063 Q771.3063,260.4063 771.5719,260.6406 Q771.8375,260.875 771.8375,261.2656 Q771.8375,261.6406 771.5719,261.875 Q771.3063,262.1094 770.6969,262.1094 L768.4,262.1094 Q767.7906,262.1094 767.5406,261.875 Q767.275,261.6406 767.275,261.25 Q767.275,260.875 767.5563,260.6406 Q767.8219,260.3906 768.4469,260.4063 L771.1188,253.75 L770.0094,253.75 Q769.4,253.75 769.1344,253.5156 Q768.8688,253.2813 768.8688,252.8906 Q768.8688,252.5156 769.1344,252.2813 Q769.4,252.0469 770.0094,252.0469 L773.6813,252.0469 L777.0719,260.4063 Q777.6656,260.4063 777.8531,260.5469 Q778.2438,260.8125 778.2438,261.2656 Q778.2438,261.6406 777.9781,261.875 Q777.7281,262.1094 777.1188,262.1094 L774.8219,262.1094 Q774.2125,262.1094 773.9469,261.875 Q773.6813,261.6406 773.6813,261.25 Q773.6813,260.875 773.9469,260.6406 Q774.2125,260.4063 774.8219,260.4063 L775.2438,260.4063 L774.8375,259.375 Z M774.1188,257.6719 L772.7594,254.2969 L771.3844,257.6719 L774.1188,257.6719 Z " fill="#000000"/><text fill="#000000" font-family="sans-serif" font-size="14" font-style="italic" lengthAdjust="spacing" textLength="93" x="790.35" y="263.3379">model-element</text><line style="stroke:#181818;stroke-width:0.5;" x1="742" x2="902" y1="273.6094" y2="273.6094"/><text fill="#000000" font-family="sans-serif" font-size="14" lengthAdjust="spacing" textLength="150" x="747" y="292.1426">maturity : keyword [0..1]</text><text fill="#000000" font-family="sans-serif" font-size="14" lengthAdjust="spacing" textLength="94" x="747" y="309.752">tags : set [0..1]</text><line style="stroke:#181818;stroke-width:0.5;" x1="742" x2="902" y1="316.8281" y2="316.8281"/></g><!--class overarch_dataModel_class--><g id="elem_overarch_dataModel_class"><rect codeLine="63" fill="#F1F1F1" height="48" id="overarch_dataModel_class" rx="2.5" ry="2.5" style="stroke:#181818;stroke-width:0.5;" width="64" x="1963" y="679.6094"/><ellipse cx="1978" cy="695.6094" fill="#ADD1B2" rx="11" ry="11" style="stroke:#181818;stroke-width:1.0;"/><path d="M1980.7656,691.4844 Q1980.9219,691.2656 1981.1094,691.1563 Q1981.2969,691.0469 1981.5156,691.0469 Q1981.8906,691.0469 1982.125,691.3125 Q1982.3594,691.5625 1982.3594,692.1719 L1982.3594,693.625 Q1982.3594,694.2344 1982.125,694.5 Q1981.8906,694.7656 1981.5156,694.7656 Q1981.1719,694.7656 1980.9688,694.5625 Q1980.7656,694.375 1980.6563,693.8594 Q1980.6094,693.5 1980.4219,693.3125 Q1980.0938,692.9375 1979.4844,692.7188 Q1978.875,692.5 1978.25,692.5 Q1977.4844,692.5 1976.8438,692.8281 Q1976.2188,693.1563 1975.7188,693.9063 Q1975.2344,694.6563 1975.2344,695.6875 L1975.2344,696.7813 Q1975.2344,698.0156 1976.125,698.8438 Q1977.0156,699.6563 1978.6094,699.6563 Q1979.5469,699.6563 1980.2031,699.4063 Q1980.5938,699.25 1981.0156,698.8125 Q1981.2813,698.5469 1981.4219,698.4688 Q1981.5781,698.3906 1981.7813,698.3906 Q1982.1094,698.3906 1982.3594,698.6563 Q1982.625,698.9063 1982.625,699.25 Q1982.625,699.5938 1982.2813,700 Q1981.7813,700.5781 1980.9844,700.9063 Q1979.9063,701.3594 1978.6094,701.3594 Q1977.0938,701.3594 1975.8906,700.7344 Q1974.9063,700.2344 1974.2188,699.1719 Q1973.5313,698.0938 1973.5313,696.8125 L1973.5313,695.6563 Q1973.5313,694.3281 1974.1406,693.1875 Q1974.7656,692.0313 1975.8594,691.4219 Q1976.9531,690.7969 1978.1875,690.7969 Q1978.9219,690.7969 1979.5625,690.9688 Q1980.2188,691.125 1980.7656,691.4844 Z " fill="#000000"/><text fill="#000000" font-family="sans-serif" font-size="14" lengthAdjust="spacing" textLength="32" x="1992" y="701.3379">class</text><line style="stroke:#181818;stroke-width:0.5;" x1="1964" x2="2026" y1="711.6094" y2="711.6094"/><line style="stroke:#181818;stroke-width:0.5;" x1="1964" x2="2026" y1="719.6094" y2="719.6094"/></g><!--class overarch_dataModel_typedNode--><g id="elem_overarch_dataModel_typedNode"><rect codeLine="64" fill="#F1F1F1" height="65.6094" id="overarch_dataModel_typedNode" rx="2.5" ry="2.5" style="stroke:#181818;stroke-width:0.5;" width="122" x="2133" y="670.6094"/><ellipse cx="2156.1" cy="686.6094" fill="#A9DCDF" rx="11" ry="11" style="stroke:#181818;stroke-width:1.0;"/><path d="M2158.2875,688.375 L2154.1469,688.375 L2153.725,689.4063 L2154.1469,689.4063 Q2154.7563,689.4063 2155.0219,689.6406 Q2155.2875,689.875 2155.2875,690.2656 Q2155.2875,690.6406 2155.0219,690.875 Q2154.7563,691.1094 2154.1469,691.1094 L2151.85,691.1094 Q2151.2406,691.1094 2150.9906,690.875 Q2150.725,690.6406 2150.725,690.25 Q2150.725,689.875 2151.0063,689.6406 Q2151.2719,689.3906 2151.8969,689.4063 L2154.5688,682.75 L2153.4594,682.75 Q2152.85,682.75 2152.5844,682.5156 Q2152.3188,682.2813 2152.3188,681.8906 Q2152.3188,681.5156 2152.5844,681.2813 Q2152.85,681.0469 2153.4594,681.0469 L2157.1313,681.0469 L2160.5219,689.4063 Q2161.1156,689.4063 2161.3031,689.5469 Q2161.6938,689.8125 2161.6938,690.2656 Q2161.6938,690.6406 2161.4281,690.875 Q2161.1781,691.1094 2160.5688,691.1094 L2158.2719,691.1094 Q2157.6625,691.1094 2157.3969,690.875 Q2157.1313,690.6406 2157.1313,690.25 Q2157.1313,689.875 2157.3969,689.6406 Q2157.6625,689.4063 2158.2719,689.4063 L2158.6938,689.4063 L2158.2875,688.375 Z M2157.5688,686.6719 L2156.2094,683.2969 L2154.8344,686.6719 L2157.5688,686.6719 Z " fill="#000000"/><text fill="#000000" font-family="sans-serif" font-size="14" font-style="italic" lengthAdjust="spacing" textLength="72" x="2171.9" y="692.3379">typed-node</text><line style="stroke:#181818;stroke-width:0.5;" x1="2134" x2="2254" y1="702.6094" y2="702.6094"/><text fill="#000000" font-family="sans-serif" font-size="14" lengthAdjust="spacing" textLength="110" x="2139" y="721.1426">type : string [0..1]</text><line style="stroke:#181818;stroke-width:0.5;" x1="2134" x2="2254" y1="728.2188" y2="728.2188"/></g><!--class overarch_dataModel_implementation--><g id="elem_overarch_dataModel_implementation"><rect codeLine="67" fill="#F1F1F1" height="48" id="overarch_dataModel_implementation" rx="2.5" ry="2.5" style="stroke:#181818;stroke-width:0.5;" width="127" x="568.5" y="831.6094"/><ellipse cx="583.5" cy="847.6094" fill="#ADD1B2" rx="11" ry="11" style="stroke:#181818;stroke-width:1.0;"/><path d="M586.2656,843.4844 Q586.4219,843.2656 586.6094,843.1563 Q586.7969,843.0469 587.0156,843.0469 Q587.3906,843.0469 587.625,843.3125 Q587.8594,843.5625 587.8594,844.1719 L587.8594,845.625 Q587.8594,846.2344 587.625,846.5 Q587.3906,846.7656 587.0156,846.7656 Q586.6719,846.7656 586.4688,846.5625 Q586.2656,846.375 586.1563,845.8594 Q586.1094,845.5 585.9219,845.3125 Q585.5938,844.9375 584.9844,844.7188 Q584.375,844.5 583.75,844.5 Q582.9844,844.5 582.3438,844.8281 Q581.7188,845.1563 581.2188,845.9063 Q580.7344,846.6563 580.7344,847.6875 L580.7344,848.7813 Q580.7344,850.0156 581.625,850.8438 Q582.5156,851.6563 584.1094,851.6563 Q585.0469,851.6563 585.7031,851.4063 Q586.0938,851.25 586.5156,850.8125 Q586.7813,850.5469 586.9219,850.4688 Q587.0781,850.3906 587.2813,850.3906 Q587.6094,850.3906 587.8594,850.6563 Q588.125,850.9063 588.125,851.25 Q588.125,851.5938 587.7813,852 Q587.2813,852.5781 586.4844,852.9063 Q585.4063,853.3594 584.1094,853.3594 Q582.5938,853.3594 581.3906,852.7344 Q580.4063,852.2344 579.7188,851.1719 Q579.0313,850.0938 579.0313,848.8125 L579.0313,847.6563 Q579.0313,846.3281 579.6406,845.1875 Q580.2656,844.0313 581.3594,843.4219 Q582.4531,842.7969 583.6875,842.7969 Q584.4219,842.7969 585.0625,842.9688 Q585.7188,843.125 586.2656,843.4844 Z " fill="#000000"/><text fill="#000000" font-family="sans-serif" font-size="14" lengthAdjust="spacing" textLength="95" x="597.5" y="853.3379">implementation</text><line style="stroke:#181818;stroke-width:0.5;" x1="569.5" x2="694.5" y1="863.6094" y2="863.6094"/><line style="stroke:#181818;stroke-width:0.5;" x1="569.5" x2="694.5" y1="871.6094" y2="871.6094"/></g><!--class overarch_dataModel_dependency--><g id="elem_overarch_dataModel_dependency"><rect codeLine="68" fill="#F1F1F1" height="48" id="overarch_dataModel_dependency" rx="2.5" ry="2.5" style="stroke:#181818;stroke-width:0.5;" width="110" x="605" y="679.6094"/><ellipse cx="620" cy="695.6094" fill="#ADD1B2" rx="11" ry="11" style="stroke:#181818;stroke-width:1.0;"/><path d="M622.7656,691.4844 Q622.9219,691.2656 623.1094,691.1563 Q623.2969,691.0469 623.5156,691.0469 Q623.8906,691.0469 624.125,691.3125 Q624.3594,691.5625 624.3594,692.1719 L624.3594,693.625 Q624.3594,694.2344 624.125,694.5 Q623.8906,694.7656 623.5156,694.7656 Q623.1719,694.7656 622.9688,694.5625 Q622.7656,694.375 622.6563,693.8594 Q622.6094,693.5 622.4219,693.3125 Q622.0938,692.9375 621.4844,692.7188 Q620.875,692.5 620.25,692.5 Q619.4844,692.5 618.8438,692.8281 Q618.2188,693.1563 617.7188,693.9063 Q617.2344,694.6563 617.2344,695.6875 L617.2344,696.7813 Q617.2344,698.0156 618.125,698.8438 Q619.0156,699.6563 620.6094,699.6563 Q621.5469,699.6563 622.2031,699.4063 Q622.5938,699.25 623.0156,698.8125 Q623.2813,698.5469 623.4219,698.4688 Q623.5781,698.3906 623.7813,698.3906 Q624.1094,698.3906 624.3594,698.6563 Q624.625,698.9063 624.625,699.25 Q624.625,699.5938 624.2813,700 Q623.7813,700.5781 622.9844,700.9063 Q621.9063,701.3594 620.6094,701.3594 Q619.0938,701.3594 617.8906,700.7344 Q616.9063,700.2344 616.2188,699.1719 Q615.5313,698.0938 615.5313,696.8125 L615.5313,695.6563 Q615.5313,694.3281 616.1406,693.1875 Q616.7656,692.0313 617.8594,691.4219 Q618.9531,690.7969 620.1875,690.7969 Q620.9219,690.7969 621.5625,690.9688 Q622.2188,691.125 622.7656,691.4844 Z " fill="#000000"/><text fill="#000000" font-family="sans-serif" font-size="14" lengthAdjust="spacing" textLength="78" x="634" y="701.3379">dependency</text><line style="stroke:#181818;stroke-width:0.5;" x1="606" x2="714" y1="711.6094" y2="711.6094"/><line style="stroke:#181818;stroke-width:0.5;" x1="606" x2="714" y1="719.6094" y2="719.6094"/></g><!--class overarch_dataModel_protocol--><g id="elem_overarch_dataModel_protocol"><rect codeLine="69" fill="#F1F1F1" height="48" id="overarch_dataModel_protocol" rx="2.5" ry="2.5" style="stroke:#181818;stroke-width:0.5;" width="83" x="2361.5" y="679.6094"/><ellipse cx="2376.5" cy="695.6094" fill="#ADD1B2" rx="11" ry="11" style="stroke:#181818;stroke-width:1.0;"/><path d="M2379.2656,691.4844 Q2379.4219,691.2656 2379.6094,691.1563 Q2379.7969,691.0469 2380.0156,691.0469 Q2380.3906,691.0469 2380.625,691.3125 Q2380.8594,691.5625 2380.8594,692.1719 L2380.8594,693.625 Q2380.8594,694.2344 2380.625,694.5 Q2380.3906,694.7656 2380.0156,694.7656 Q2379.6719,694.7656 2379.4688,694.5625 Q2379.2656,694.375 2379.1563,693.8594 Q2379.1094,693.5 2378.9219,693.3125 Q2378.5938,692.9375 2377.9844,692.7188 Q2377.375,692.5 2376.75,692.5 Q2375.9844,692.5 2375.3438,692.8281 Q2374.7188,693.1563 2374.2188,693.9063 Q2373.7344,694.6563 2373.7344,695.6875 L2373.7344,696.7813 Q2373.7344,698.0156 2374.625,698.8438 Q2375.5156,699.6563 2377.1094,699.6563 Q2378.0469,699.6563 2378.7031,699.4063 Q2379.0938,699.25 2379.5156,698.8125 Q2379.7813,698.5469 2379.9219,698.4688 Q2380.0781,698.3906 2380.2813,698.3906 Q2380.6094,698.3906 2380.8594,698.6563 Q2381.125,698.9063 2381.125,699.25 Q2381.125,699.5938 2380.7813,700 Q2380.2813,700.5781 2379.4844,700.9063 Q2378.4063,701.3594 2377.1094,701.3594 Q2375.5938,701.3594 2374.3906,700.7344 Q2373.4063,700.2344 2372.7188,699.1719 Q2372.0313,698.0938 2372.0313,696.8125 L2372.0313,695.6563 Q2372.0313,694.3281 2372.6406,693.1875 Q2373.2656,692.0313 2374.3594,691.4219 Q2375.4531,690.7969 2376.6875,690.7969 Q2377.4219,690.7969 2378.0625,690.9688 Q2378.7188,691.125 2379.2656,691.4844 Z " fill="#000000"/><text fill="#000000" font-family="sans-serif" font-size="14" lengthAdjust="spacing" textLength="51" x="2390.5" y="701.3379">protocol</text><line style="stroke:#181818;stroke-width:0.5;" x1="2362.5" x2="2443.5" y1="711.6094" y2="711.6094"/><line style="stroke:#181818;stroke-width:0.5;" x1="2362.5" x2="2443.5" y1="719.6094" y2="719.6094"/></g><!--class overarch_dataModel_codeModelElement--><g id="elem_overarch_dataModel_codeModelElement"><rect codeLine="70" fill="#F1F1F1" height="48" id="overarch_dataModel_codeModelElement" rx="2.5" ry="2.5" style="stroke:#181818;stroke-width:0.5;" width="161" x="879.5" y="402.1094"/><ellipse cx="894.5" cy="418.1094" fill="#A9DCDF" rx="11" ry="11" style="stroke:#181818;stroke-width:1.0;"/><path d="M896.6875,419.875 L892.5469,419.875 L892.125,420.9063 L892.5469,420.9063 Q893.1563,420.9063 893.4219,421.1406 Q893.6875,421.375 893.6875,421.7656 Q893.6875,422.1406 893.4219,422.375 Q893.1563,422.6094 892.5469,422.6094 L890.25,422.6094 Q889.6406,422.6094 889.3906,422.375 Q889.125,422.1406 889.125,421.75 Q889.125,421.375 889.4063,421.1406 Q889.6719,420.8906 890.2969,420.9063 L892.9688,414.25 L891.8594,414.25 Q891.25,414.25 890.9844,414.0156 Q890.7188,413.7813 890.7188,413.3906 Q890.7188,413.0156 890.9844,412.7813 Q891.25,412.5469 891.8594,412.5469 L895.5313,412.5469 L898.9219,420.9063 Q899.5156,420.9063 899.7031,421.0469 Q900.0938,421.3125 900.0938,421.7656 Q900.0938,422.1406 899.8281,422.375 Q899.5781,422.6094 898.9688,422.6094 L896.6719,422.6094 Q896.0625,422.6094 895.7969,422.375 Q895.5313,422.1406 895.5313,421.75 Q895.5313,421.375 895.7969,421.1406 Q896.0625,420.9063 896.6719,420.9063 L897.0938,420.9063 L896.6875,419.875 Z M895.9688,418.1719 L894.6094,414.7969 L893.2344,418.1719 L895.9688,418.1719 Z " fill="#000000"/><text fill="#000000" font-family="sans-serif" font-size="14" font-style="italic" lengthAdjust="spacing" textLength="129" x="908.5" y="423.8379">code-model-element</text><line style="stroke:#181818;stroke-width:0.5;" x1="880.5" x2="1039.5" y1="434.1094" y2="434.1094"/><line style="stroke:#181818;stroke-width:0.5;" x1="880.5" x2="1039.5" y1="442.1094" y2="442.1094"/></g><!--reverse link overarch_dataModel_optionalNode to overarch_dataModel_field--><g id="link_overarch_dataModel_optionalNode_overarch_dataModel_field"><path codeLine="71" d="M1727.2609,747.4535 C1766.8309,776.5535 1809.49,807.9094 1843.77,833.1194 " fill="none" id="overarch_dataModel_optionalNode-backto-overarch_dataModel_field" style="stroke:#181818;stroke-width:1.0;"/><polygon fill="none" points="1712.76,736.7894,1723.7063,752.2871,1730.8156,742.6198,1712.76,736.7894" style="stroke:#181818;stroke-width:1.0;"/></g><!--reverse link overarch_dataModel_codeModelNode to overarch_dataModel_class--><g id="link_overarch_dataModel_codeModelNode_overarch_dataModel_class"><path codeLine="72" d="M1439.6459,556.6812 C1577.9559,563.8512 1857.75,583.9994 1945,635.6094 C1962.24,645.8094 1975.42,664.4794 1983.91,679.5294 " fill="none" id="overarch_dataModel_codeModelNode-backto-overarch_dataModel_class" style="stroke:#181818;stroke-width:1.0;"/><polygon fill="none" points="1421.67,555.7494,1439.3352,562.6732,1439.9565,550.6893,1421.67,555.7494" style="stroke:#181818;stroke-width:1.0;"/></g><!--link overarch_dataModel_namespace to overarch_dataModel_codeModelNode--><g id="link_overarch_dataModel_namespace_overarch_dataModel_codeModelNode"><path codeLine="73" d="M844.8948,671.088 C860.5048,656.168 870.43,645.9994 891,635.6094 C1017.41,571.7294 1178.0737,556.1898 1272.0937,552.8898 " fill="none" id="overarch_dataModel_namespace-overarch_dataModel_codeModelNode" style="stroke:#181818;stroke-width:1.0;"/><polygon fill="#181818" points="836.22,679.3794,843.3212,678.1253,844.8948,671.088,837.7936,672.3421,836.22,679.3794" style="stroke:#181818;stroke-width:1.0;"/><polygon fill="#181818" points="1278.09,552.6794,1268.9552,548.9975,1273.0931,552.8548,1269.2358,556.9926,1278.09,552.6794" style="stroke:#181818;stroke-width:1.0;"/><text fill="#000000" font-family="sans-serif" font-size="13" lengthAdjust="spacing" textLength="22" x="1248.4467" y="549.5518">0..n</text></g><!--reverse link overarch_dataModel_codeModelNode to overarch_dataModel_namespace--><g id="link_overarch_dataModel_codeModelNode_overarch_dataModel_namespace"><path codeLine="103" d="M1260.4621,552.3572 C1160.0521,553.9072 993.29,566.2294 856,635.6094 C835.43,645.9994 816.83,664.4594 806.59,679.3794 " fill="none" id="overarch_dataModel_codeModelNode-backto-overarch_dataModel_namespace" style="stroke:#181818;stroke-width:1.0;"/><polygon fill="none" points="1278.46,552.0794,1260.3695,546.3579,1260.5548,558.3565,1278.46,552.0794" style="stroke:#181818;stroke-width:1.0;"/></g><!--reverse link overarch_dataModel_technicalElement to overarch_dataModel_codeModelElement--><g id="link_overarch_dataModel_technicalElement_overarch_dataModel_codeModelElement"><path codeLine="74" d="M992.5123,333.4237 C983.2823,359.4437 976.56,378.4094 968.3,401.7094 " fill="none" id="overarch_dataModel_technicalElement-backto-overarch_dataModel_codeModelElement" style="stroke:#181818;stroke-width:1.0;"/><polygon fill="none" points="998.53,316.4594,986.8575,331.4178,998.1671,335.4296,998.53,316.4594" style="stroke:#181818;stroke-width:1.0;"/></g><!--link overarch_dataModel_class to overarch_dataModel_function--><g id="link_overarch_dataModel_class_overarch_dataModel_function"><path codeLine="75" d="M2001.0592,739.5431 C2005.9292,767.6431 2011.0239,797.0878 2015.9239,825.3178 " fill="none" id="overarch_dataModel_class-overarch_dataModel_function" style="stroke:#181818;stroke-width:1.0;"/><polygon fill="#181818" points="1999.01,727.7194,1996.0933,734.3143,2001.0592,739.5431,2003.9758,732.9482,1999.01,727.7194" style="stroke:#181818;stroke-width:1.0;"/><polygon fill="#181818" points="2016.95,831.2294,2019.3519,821.6779,2016.0949,826.303,2011.4698,823.046,2016.95,831.2294" style="stroke:#181818;stroke-width:1.0;"/><text fill="#000000" font-family="sans-serif" font-size="13" lengthAdjust="spacing" textLength="22" x="1991.2816" y="820.8747">0..n</text></g><!--reverse link overarch_dataModel_codeModelNode to overarch_dataModel_enumValue--><g id="link_overarch_dataModel_codeModelNode_overarch_dataModel_enumValue"><path codeLine="76" d="M1439.5327,555.0734 C1703.8127,562.6234 2593.98,591.1994 2636,635.6094 C2686.57,689.0494 2661.83,786.8294 2646.74,831.3794 " fill="none" id="overarch_dataModel_codeModelNode-backto-overarch_dataModel_enumValue" style="stroke:#181818;stroke-width:1.0;"/><polygon fill="none" points="1421.54,554.5594,1439.3613,561.0709,1439.704,549.0758,1421.54,554.5594" style="stroke:#181818;stroke-width:1.0;"/></g><!--reverse link overarch_dataModel_codeModelNode to overarch_dataModel_method--><g id="link_overarch_dataModel_codeModelNode_overarch_dataModel_method"><path codeLine="77" d="M1344.394,593.6234 C1339.164,637.5934 1336.73,715.9094 1386,771.6094 C1448.5,842.2694 1567.63,854.2094 1629.5,855.3594 " fill="none" id="overarch_dataModel_codeModelNode-backto-overarch_dataModel_method" style="stroke:#181818;stroke-width:1.0;"/><polygon fill="none" points="1346.52,575.7494,1338.436,592.9147,1350.352,594.3321,1346.52,575.7494" style="stroke:#181818;stroke-width:1.0;"/></g><!--reverse link overarch_dataModel_codeModelNode to overarch_dataModel_interface--><g id="link_overarch_dataModel_codeModelNode_overarch_dataModel_interface"><path codeLine="78" d="M1325.2824,590.8322 C1307.1024,618.9322 1286.37,650.9994 1268.12,679.2294 " fill="none" id="overarch_dataModel_codeModelNode-backto-overarch_dataModel_interface" style="stroke:#181818;stroke-width:1.0;"/><polygon fill="none" points="1335.06,575.7194,1320.2448,587.573,1330.32,594.0914,1335.06,575.7194" style="stroke:#181818;stroke-width:1.0;"/></g><!--reverse link overarch_dataModel_typedNode to overarch_dataModel_function--><g id="link_overarch_dataModel_typedNode_overarch_dataModel_function"><path codeLine="79" d="M2143.2881,748.5788 C2110.4181,777.0688 2076.86,806.1794 2047.62,831.5294 " fill="none" id="overarch_dataModel_typedNode-backto-overarch_dataModel_function" style="stroke:#181818;stroke-width:1.0;"/><polygon fill="none" points="2156.89,736.7894,2139.3583,744.0448,2147.2179,753.1127,2156.89,736.7894" style="stroke:#181818;stroke-width:1.0;"/></g><!--reverse link overarch_dataModel_element to overarch_dataModel_modelElement--><g id="link_overarch_dataModel_element_overarch_dataModel_modelElement"><path codeLine="80" d="M822,199.7694 C822,219.9794 822,223.5294 822,241.4494 " fill="none" id="overarch_dataModel_element-backto-overarch_dataModel_modelElement" style="stroke:#181818;stroke-width:1.0;"/><polygon fill="none" points="822,181.7694,816,199.7694,828,199.7694,822,181.7694" style="stroke:#181818;stroke-width:1.0;"/></g><!--reverse link overarch_dataModel_typedNode to overarch_dataModel_field--><g id="link_overarch_dataModel_typedNode_overarch_dataModel_field"><path codeLine="81" d="M2143.1299,747.9057 C2127.9899,759.9857 2123.9,761.9094 2106,771.6094 C2036.9,809.0394 1947.53,835.3694 1902.18,847.3394 " fill="none" id="overarch_dataModel_typedNode-backto-overarch_dataModel_field" style="stroke:#181818;stroke-width:1.0;"/><polygon fill="none" points="2157.2,736.6794,2139.3877,743.2157,2146.872,752.5958,2157.2,736.6794" style="stroke:#181818;stroke-width:1.0;"/></g><!--link overarch_dataModel_interface to overarch_dataModel_method--><g id="link_overarch_dataModel_interface_overarch_dataModel_method"><path codeLine="82" d="M1279.8263,736.678 C1292.9663,751.348 1303.73,760.6394 1324,771.6094 C1425.3,826.4594 1556.7263,844.9087 1623.4263,851.1687 " fill="none" id="overarch_dataModel_interface-overarch_dataModel_method" style="stroke:#181818;stroke-width:1.0;"/><polygon fill="#181818" points="1271.82,727.7394,1272.8436,734.8775,1279.8263,736.678,1278.8027,729.5399,1271.82,727.7394" style="stroke:#181818;stroke-width:1.0;"/><polygon fill="#181818" points="1629.4,851.7294,1620.8131,846.9059,1624.4219,851.2622,1620.0656,854.8709,1629.4,851.7294" style="stroke:#181818;stroke-width:1.0;"/><text fill="#000000" font-family="sans-serif" font-size="13" lengthAdjust="spacing" textLength="22" x="1599.6519" y="847.4323">0..n</text></g><!--reverse link overarch_dataModel_codeModelNode to overarch_dataModel_enum--><g id="link_overarch_dataModel_codeModelNode_overarch_dataModel_enum"><path codeLine="83" d="M1439.8222,555.1176 C1679.6122,562.1576 2425,587.6194 2524,635.6094 C2543.68,645.1494 2559.97,664.0794 2570.75,679.3894 " fill="none" id="overarch_dataModel_codeModelNode-backto-overarch_dataModel_enum" style="stroke:#181818;stroke-width:1.0;"/><polygon fill="none" points="1421.83,554.5894,1439.6462,561.115,1439.9983,549.1202,1421.83,554.5894" style="stroke:#181818;stroke-width:1.0;"/></g><!--link overarch_dataModel_class to overarch_dataModel_method--><g id="link_overarch_dataModel_class_overarch_dataModel_method"><path codeLine="84" d="M1976.6267,738.1137 C1967.8967,752.6337 1961.05,760.3694 1945,771.6094 C1871.63,822.9894 1771.8793,842.3111 1714.9293,849.7611 " fill="none" id="overarch_dataModel_class-overarch_dataModel_method" style="stroke:#181818;stroke-width:1.0;"/><polygon fill="#181818" points="1982.81,727.8294,1976.2902,730.9104,1976.6267,738.1137,1983.1464,735.0326,1982.81,727.8294" style="stroke:#181818;stroke-width:1.0;"/><polygon fill="#181818" points="1708.98,850.5394,1718.4228,853.3382,1713.9378,849.8908,1717.3851,845.4058,1708.98,850.5394" style="stroke:#181818;stroke-width:1.0;"/><text fill="#000000" font-family="sans-serif" font-size="13" lengthAdjust="spacing" textLength="22" x="1716.4677" y="846.1407">0..n</text></g><!--reverse link overarch_dataModel_modelElement to overarch_dataModel_modelNode--><g id="link_overarch_dataModel_modelElement_overarch_dataModel_modelNode"><path codeLine="85" d="M919.8736,324.457 C925.9236,326.737 915.12,322.5794 921,324.6094 C1026.36,360.9494 1152.5,394.3194 1222.5,411.9694 " fill="none" id="overarch_dataModel_modelElement-backto-overarch_dataModel_modelNode" style="stroke:#181818;stroke-width:1.0;"/><polygon fill="none" points="903.03,318.1094,917.7577,330.0716,921.9895,318.8425,903.03,318.1094" style="stroke:#181818;stroke-width:1.0;"/></g><!--reverse link overarch_dataModel_modelNode to overarch_dataModel_codeModelNode--><g id="link_overarch_dataModel_modelNode_overarch_dataModel_codeModelNode"><path codeLine="86" d="M1299.1717,465.7798 C1312.4017,487.8598 1322.93,505.4394 1336.14,527.4794 " fill="none" id="overarch_dataModel_modelNode-backto-overarch_dataModel_codeModelNode" style="stroke:#181818;stroke-width:1.0;"/><polygon fill="none" points="1289.92,450.3394,1294.0249,468.8637,1304.3185,462.6959,1289.92,450.3394" style="stroke:#181818;stroke-width:1.0;"/></g><!--reverse link overarch_dataModel_codeModelRelation to overarch_dataModel_dependency--><g id="link_overarch_dataModel_codeModelRelation_overarch_dataModel_dependency"><path codeLine="87" d="M660,593.7194 C660,621.8194 660,650.9994 660,679.2294 " fill="none" id="overarch_dataModel_codeModelRelation-backto-overarch_dataModel_dependency" style="stroke:#181818;stroke-width:1.0;"/><polygon fill="none" points="660,575.7194,654,593.7194,666,593.7194,660,575.7194" style="stroke:#181818;stroke-width:1.0;"/></g><!--reverse link overarch_dataModel_codeModelNode to overarch_dataModel_parameter--><g id="link_overarch_dataModel_codeModelNode_overarch_dataModel_parameter"><path codeLine="88" d="M1439.8,552.4647 C1674.7,552.6647 2391.29,559.4294 2462,635.6094 C2503.12,679.9094 2495.18,721.0794 2462,771.6094 C2372.93,907.2594 2164.64,947.0394 2069.7,958.3194 " fill="none" id="overarch_dataModel_codeModelNode-backto-overarch_dataModel_parameter" style="stroke:#181818;stroke-width:1.0;"/><polygon fill="none" points="1421.8,552.4494,1439.8,558.4494,1439.8,546.4494,1421.8,552.4494" style="stroke:#181818;stroke-width:1.0;"/></g><!--link overarch_dataModel_package to overarch_dataModel_codeModelNode--><g id="link_overarch_dataModel_package_overarch_dataModel_codeModelNode"><path codeLine="89" d="M972.5606,670.5353 C986.0506,655.8253 993.73,646.4294 1012,635.6094 C1095.54,586.1294 1200.4275,566.8093 1272.2475,558.7393 " fill="none" id="overarch_dataModel_package-overarch_dataModel_codeModelNode" style="stroke:#181818;stroke-width:1.0;"/><polygon fill="#181818" points="964.45,679.3794,971.4533,677.6609,972.5606,670.5353,965.5573,672.2538,964.45,679.3794" style="stroke:#181818;stroke-width:1.0;"/><polygon fill="#181818" points="1278.21,558.0694,1268.8196,555.0993,1273.2413,558.6277,1269.7129,563.0493,1278.21,558.0694" style="stroke:#181818;stroke-width:1.0;"/><text fill="#000000" font-family="sans-serif" font-size="13" lengthAdjust="spacing" textLength="22" x="1248.5778" y="572.9137">0..n</text></g><!--reverse link overarch_dataModel_codeModelNode to overarch_dataModel_package--><g id="link_overarch_dataModel_codeModelNode_overarch_dataModel_package"><path codeLine="94" d="M1260.3626,556.9846 C1181.0126,563.0646 1070.78,580.0594 977,635.6094 C958.73,646.4294 942.94,664.6694 934.7,679.3794 " fill="none" id="overarch_dataModel_codeModelNode-backto-overarch_dataModel_package" style="stroke:#181818;stroke-width:1.0;"/><polygon fill="none" points="1278.31,555.6094,1259.9042,551.0021,1260.821,562.967,1278.31,555.6094" style="stroke:#181818;stroke-width:1.0;"/></g><!--reverse link overarch_dataModel_typeHierarchyRelation to overarch_dataModel_implementation--><g id="link_overarch_dataModel_typeHierarchyRelation_overarch_dataModel_implementation"><path codeLine="90" d="M517.8379,740.4473 C545.9379,768.5473 580.39,802.9994 608.62,831.2294 " fill="none" id="overarch_dataModel_typeHierarchyRelation-backto-overarch_dataModel_implementation" style="stroke:#181818;stroke-width:1.0;"/><polygon fill="none" points="505.11,727.7194,513.5953,744.6899,522.0806,736.2047,505.11,727.7194" style="stroke:#181818;stroke-width:1.0;"/></g><!--reverse link overarch_dataModel_codeModelRelation to overarch_dataModel_associativeRelation--><g id="link_overarch_dataModel_codeModelRelation_overarch_dataModel_associativeRelation"><path codeLine="91" d="M563.5677,576.3232 C506.1077,591.2432 444.35,609.2594 377,635.6094 C358.24,642.9494 338.55,651.9394 320.19,660.9194 " fill="none" id="overarch_dataModel_codeModelRelation-backto-overarch_dataModel_associativeRelation" style="stroke:#181818;stroke-width:1.0;"/><polygon fill="none" points="580.99,571.7994,562.0598,570.5158,565.0757,582.1306,580.99,571.7994" style="stroke:#181818;stroke-width:1.0;"/></g><!--reverse link overarch_dataModel_modelElement to overarch_dataModel_modelRelation--><g id="link_overarch_dataModel_modelElement_overarch_dataModel_modelRelation"><path codeLine="92" d="M787.0181,340.1584 C775.3381,358.8684 771.06,365.7194 759.4,384.4194 " fill="none" id="overarch_dataModel_modelElement-backto-overarch_dataModel_modelRelation" style="stroke:#181818;stroke-width:1.0;"/><polygon fill="none" points="796.55,324.8894,781.9284,336.9811,792.1078,343.3357,796.55,324.8894" style="stroke:#181818;stroke-width:1.0;"/></g><!--reverse link overarch_dataModel_codeModelElement to overarch_dataModel_codeModelNode--><g id="link_overarch_dataModel_codeModelElement_overarch_dataModel_codeModelNode"><path codeLine="93" d="M1050.0599,455.6242 C1120.2799,477.8642 1208.68,505.8594 1278.45,527.9494 " fill="none" id="overarch_dataModel_codeModelElement-backto-overarch_dataModel_codeModelNode" style="stroke:#181818;stroke-width:1.0;"/><polygon fill="none" points="1032.9,450.1894,1048.2483,461.3442,1051.8715,449.9043,1032.9,450.1894" style="stroke:#181818;stroke-width:1.0;"/></g><!--reverse link overarch_dataModel_codeModelNode to overarch_dataModel_field--><g id="link_overarch_dataModel_codeModelNode_overarch_dataModel_field"><path codeLine="95" d="M1439.7477,556.7758 C1609.0077,565.2158 2004.06,589.4894 2045,635.6094 C2085.13,680.8094 2077.14,720.4194 2045,771.6094 C2028.78,797.4394 1947.02,829.0194 1902.31,844.7394 " fill="none" id="overarch_dataModel_codeModelNode-backto-overarch_dataModel_field" style="stroke:#181818;stroke-width:1.0;"/><polygon fill="none" points="1421.77,555.8794,1439.4489,562.7684,1440.0465,550.7833,1421.77,555.8794" style="stroke:#181818;stroke-width:1.0;"/></g><!--reverse link overarch_dataModel_codeModelNode to overarch_dataModel_function--><g id="link_overarch_dataModel_codeModelNode_overarch_dataModel_function"><path codeLine="96" d="M1439.6872,553.9377 C1646.6272,557.5977 2215.87,573.1194 2273,635.6094 C2313.78,680.2194 2308.43,722.6394 2273,771.6094 C2224.54,838.5994 2120.14,852.4494 2062.08,854.7494 " fill="none" id="overarch_dataModel_codeModelNode-backto-overarch_dataModel_function" style="stroke:#181818;stroke-width:1.0;"/><polygon fill="none" points="1421.69,553.6194,1439.5811,559.9367,1439.7933,547.9386,1421.69,553.6194" style="stroke:#181818;stroke-width:1.0;"/></g><!--reverse link overarch_dataModel_abstractNode to overarch_dataModel_method--><g id="link_overarch_dataModel_abstractNode_overarch_dataModel_method"><path codeLine="97" d="M1146.7446,747.4212 C1164.0946,760.1212 1170.83,763.0694 1192,771.6094 C1345.75,833.6694 1545.76,849.3694 1629.46,853.3094 " fill="none" id="overarch_dataModel_abstractNode-backto-overarch_dataModel_method" style="stroke:#181818;stroke-width:1.0;"/><polygon fill="none" points="1132.22,736.7894,1143.2007,752.2627,1150.2885,742.5797,1132.22,736.7894" style="stroke:#181818;stroke-width:1.0;"/></g><!--reverse link overarch_dataModel_optionalNode to overarch_dataModel_function--><g id="link_overarch_dataModel_optionalNode_overarch_dataModel_function"><path codeLine="98" d="M1724.9625,747.1882 C1741.8725,759.2782 1747.4,761.9594 1767,771.6094 C1838.37,806.7694 1928.11,832.0694 1979.58,844.9394 " fill="none" id="overarch_dataModel_optionalNode-backto-overarch_dataModel_function" style="stroke:#181818;stroke-width:1.0;"/><polygon fill="none" points="1710.32,736.7194,1721.4729,752.0691,1728.4521,742.3074,1710.32,736.7194" style="stroke:#181818;stroke-width:1.0;"/></g><!--reverse link overarch_dataModel_codeModelElement to overarch_dataModel_codeModelRelation--><g id="link_overarch_dataModel_codeModelElement_overarch_dataModel_codeModelRelation"><path codeLine="99" d="M887.2759,457.043 C833.6059,479.143 769.72,505.4394 716.05,527.5294 " fill="none" id="overarch_dataModel_codeModelElement-backto-overarch_dataModel_codeModelRelation" style="stroke:#181818;stroke-width:1.0;"/><polygon fill="none" points="903.92,450.1894,884.9913,451.495,889.5604,462.5911,903.92,450.1894" style="stroke:#181818;stroke-width:1.0;"/></g><!--link overarch_dataModel_protocol to overarch_dataModel_function--><g id="link_overarch_dataModel_protocol_overarch_dataModel_function"><path codeLine="100" d="M2376.5744,736.9472 C2363.8244,751.5072 2353.62,760.5094 2334,771.6094 C2244.95,821.9994 2130.274,841.9478 2067.974,849.7078 " fill="none" id="overarch_dataModel_protocol-overarch_dataModel_function" style="stroke:#181818;stroke-width:1.0;"/><polygon fill="#181818" points="2384.48,727.9194,2377.5179,729.7981,2376.5744,736.9472,2383.5365,735.0685,2384.48,727.9194" style="stroke:#181818;stroke-width:1.0;"/><polygon fill="#181818" points="2062.02,850.4494,2071.4454,853.3063,2066.9817,849.8314,2070.4566,845.3676,2062.02,850.4494" style="stroke:#181818;stroke-width:1.0;"/><text fill="#000000" font-family="sans-serif" font-size="13" lengthAdjust="spacing" textLength="22" x="2069.9856" y="845.9563">0..n</text></g><!--reverse link overarch_dataModel_typedNode to overarch_dataModel_parameter--><g id="link_overarch_dataModel_typedNode_overarch_dataModel_parameter"><path codeLine="101" d="M2163.899,751.9743 C2141.379,787.2743 2113.56,830.2994 2080,879.6094 C2066.07,900.0694 2049.73,922.9794 2037.78,939.5294 " fill="none" id="overarch_dataModel_typedNode-backto-overarch_dataModel_parameter" style="stroke:#181818;stroke-width:1.0;"/><polygon fill="none" points="2173.58,736.7994,2158.8407,748.7473,2168.9573,755.2013,2173.58,736.7994" style="stroke:#181818;stroke-width:1.0;"/></g><!--reverse link overarch_dataModel_typeHierarchyRelation to overarch_dataModel_inheritance--><g id="link_overarch_dataModel_typeHierarchyRelation_overarch_dataModel_inheritance"><path codeLine="102" d="M482,745.7194 C482,773.8194 482,802.9994 482,831.2294 " fill="none" id="overarch_dataModel_typeHierarchyRelation-backto-overarch_dataModel_inheritance" style="stroke:#181818;stroke-width:1.0;"/><polygon fill="none" points="482,727.7194,476,745.7194,488,745.7194,482,727.7194" style="stroke:#181818;stroke-width:1.0;"/></g><!--reverse link overarch_dataModel_codeModelNode to overarch_dataModel_protocol--><g id="link_overarch_dataModel_codeModelNode_overarch_dataModel_protocol"><path codeLine="104" d="M1439.5499,552.5212 C1637.5999,553.0912 2171.16,561.4294 2334,635.6094 C2355.12,645.2294 2373.65,664.1594 2386.17,679.4494 " fill="none" id="overarch_dataModel_codeModelNode-backto-overarch_dataModel_protocol" style="stroke:#181818;stroke-width:1.0;"/><polygon fill="none" points="1421.55,552.4694,1439.5327,558.5212,1439.5672,546.5212,1421.55,552.4694" style="stroke:#181818;stroke-width:1.0;"/></g><!--reverse link overarch_dataModel_codeModelRelation to overarch_dataModel_typeHierarchyRelation--><g id="link_overarch_dataModel_codeModelRelation_overarch_dataModel_typeHierarchyRelation"><path codeLine="105" d="M618.816,587.319 C585.366,615.509 542.92,651.2794 509.45,679.4694 " fill="none" id="overarch_dataModel_codeModelRelation-backto-overarch_dataModel_typeHierarchyRelation" style="stroke:#181818;stroke-width:1.0;"/><polygon fill="none" points="632.58,575.7194,614.9494,582.731,622.6825,591.907,632.58,575.7194" style="stroke:#181818;stroke-width:1.0;"/></g><!--reverse link overarch_dataModel_visibilityNode to overarch_dataModel_field--><g id="link_overarch_dataModel_visibilityNode_overarch_dataModel_field"><path codeLine="106" d="M1861.6771,754.6749 C1864.8971,783.0849 1867.48,805.9294 1870.36,831.2994 " fill="none" id="overarch_dataModel_visibilityNode-backto-overarch_dataModel_field" style="stroke:#181818;stroke-width:1.0;"/><polygon fill="none" points="1859.65,736.7894,1855.7153,755.3506,1867.639,753.9991,1859.65,736.7894" style="stroke:#181818;stroke-width:1.0;"/></g><!--reverse link overarch_dataModel_visibilityNode to overarch_dataModel_method--><g id="link_overarch_dataModel_visibilityNode_overarch_dataModel_method"><path codeLine="107" d="M1801.8386,748.0517 C1766.3186,776.5417 1729.38,806.1794 1697.77,831.5294 " fill="none" id="overarch_dataModel_visibilityNode-backto-overarch_dataModel_method" style="stroke:#181818;stroke-width:1.0;"/><polygon fill="none" points="1815.88,736.7894,1798.0845,743.3713,1805.5928,752.7322,1815.88,736.7894" style="stroke:#181818;stroke-width:1.0;"/></g><!--reverse link overarch_dataModel_associativeRelation to overarch_dataModel_association--><g id="link_overarch_dataModel_associativeRelation_overarch_dataModel_association"><path codeLine="108" d="M219.4731,789.1019 C213.7731,810.4819 212.48,815.3194 208.19,831.3794 " fill="none" id="overarch_dataModel_associativeRelation-backto-overarch_dataModel_association" style="stroke:#181818;stroke-width:1.0;"/><polygon fill="none" points="224.11,771.7094,213.6756,787.5562,225.2706,790.6475,224.11,771.7094" style="stroke:#181818;stroke-width:1.0;"/></g><!--link overarch_dataModel_class to overarch_dataModel_field--><g id="link_overarch_dataModel_class_overarch_dataModel_field"><path codeLine="109" d="M1971.2094,737.5578 C1961.6794,750.5978 1956.47,757.3694 1945,771.6094 C1928.37,792.2594 1912.5586,810.477 1897.9386,826.907 " fill="none" id="overarch_dataModel_class-overarch_dataModel_field" style="stroke:#181818;stroke-width:1.0;"/><polygon fill="#181818" points="1978.29,727.8694,1971.5202,730.3534,1971.2094,737.5578,1977.9792,735.0738,1978.29,727.8694" style="stroke:#181818;stroke-width:1.0;"/><polygon fill="#181818" points="1893.95,831.3894,1902.9211,827.3249,1897.2738,827.6541,1896.9446,822.0068,1893.95,831.3894" style="stroke:#181818;stroke-width:1.0;"/><text fill="#000000" font-family="sans-serif" font-size="13" lengthAdjust="spacing" textLength="22" x="1874.4997" y="820.6732">0..n</text></g><!--link overarch_dataModel_enum to overarch_dataModel_enumValue--><g id="link_overarch_dataModel_enum_overarch_dataModel_enumValue"><path codeLine="110" d="M2597.1683,739.0337 C2607.0983,767.1337 2617.7601,797.3425 2627.7401,825.5725 " fill="none" id="overarch_dataModel_enum-overarch_dataModel_enumValue" style="stroke:#181818;stroke-width:1.0;"/><polygon fill="#181818" points="2593.17,727.7194,2591.3977,734.7093,2597.1683,739.0337,2598.9406,732.0438,2593.17,727.7194" style="stroke:#181818;stroke-width:1.0;"/><polygon fill="#181818" points="2629.74,831.2294,2630.5115,821.4108,2628.0735,826.5153,2622.9689,824.0773,2629.74,831.2294" style="stroke:#181818;stroke-width:1.0;"/><text fill="#000000" font-family="sans-serif" font-size="13" lengthAdjust="spacing" textLength="22" x="2603.0454" y="820.8747">1..n</text></g><!--reverse link overarch_dataModel_associativeRelation to overarch_dataModel_aggregation--><g id="link_overarch_dataModel_associativeRelation_overarch_dataModel_aggregation"><path codeLine="111" d="M150.0696,780.7937 C123.4696,802.8337 109.27,814.6094 89.18,831.2594 " fill="none" id="overarch_dataModel_associativeRelation-backto-overarch_dataModel_aggregation" style="stroke:#181818;stroke-width:1.0;"/><polygon fill="none" points="163.93,769.3094,146.2415,776.1736,153.8977,785.4138,163.93,769.3094" style="stroke:#181818;stroke-width:1.0;"/></g><!--link overarch_dataModel_method to overarch_dataModel_parameter--><g id="link_overarch_dataModel_method_overarch_dataModel_parameter"><path codeLine="112" d="M1720.1802,872.0201 C1785.0902,891.5701 1896.4949,925.1192 1966.7249,946.2692 " fill="none" id="overarch_dataModel_method-overarch_dataModel_parameter" style="stroke:#181818;stroke-width:1.0;"/><polygon fill="#181818" points="1708.69,868.5594,1713.2815,874.1198,1720.1802,872.0201,1715.5886,866.4597,1708.69,868.5594" style="stroke:#181818;stroke-width:1.0;"/><polygon fill="#181818" points="1972.47,947.9994,1965.0057,941.574,1967.6824,946.5576,1962.6989,949.2342,1972.47,947.9994" style="stroke:#181818;stroke-width:1.0;"/><text fill="#000000" font-family="sans-serif" font-size="13" lengthAdjust="spacing" textLength="22" x="1942.4707" y="942.3455">0..n</text></g><!--reverse link overarch_dataModel_scopedNode to overarch_dataModel_method--><g id="link_overarch_dataModel_scopedNode_overarch_dataModel_method"><path codeLine="113" d="M1533.1282,747.9045 C1569.4182,776.3945 1607.33,806.1794 1639.61,831.5294 " fill="none" id="overarch_dataModel_scopedNode-backto-overarch_dataModel_method" style="stroke:#181818;stroke-width:1.0;"/><polygon fill="none" points="1518.97,736.7894,1529.4232,752.6239,1536.8332,743.1851,1518.97,736.7894" style="stroke:#181818;stroke-width:1.0;"/></g><!--reverse link overarch_dataModel_associativeRelation to overarch_dataModel_composition--><g id="link_overarch_dataModel_associativeRelation_overarch_dataModel_composition"><path codeLine="114" d="M296.7181,786.6906 C310.9581,808.0706 315.81,815.3194 326.51,831.3794 " fill="none" id="overarch_dataModel_associativeRelation-backto-overarch_dataModel_composition" style="stroke:#181818;stroke-width:1.0;"/><polygon fill="none" points="286.74,771.7094,291.7244,790.0166,301.7119,783.3645,286.74,771.7094" style="stroke:#181818;stroke-width:1.0;"/></g><!--reverse link overarch_dataModel_optionalNode to overarch_dataModel_parameter--><g id="link_overarch_dataModel_optionalNode_overarch_dataModel_parameter"><path codeLine="115" d="M1701.9357,751.4404 C1729.8757,789.8104 1770.38,839.1594 1827,879.6094 C1871.86,911.6594 1931.02,934.7094 1972.17,948.2694 " fill="none" id="overarch_dataModel_optionalNode-backto-overarch_dataModel_parameter" style="stroke:#181818;stroke-width:1.0;"/><polygon fill="none" points="1691.34,736.8894,1697.0853,754.9723,1706.786,747.9085,1691.34,736.8894" style="stroke:#181818;stroke-width:1.0;"/></g><!--reverse link overarch_dataModel_optionalNode to overarch_dataModel_method--><g id="link_overarch_dataModel_optionalNode_overarch_dataModel_method"><path codeLine="116" d="M1669,754.7894 C1669,783.1994 1669,805.9294 1669,831.2994 " fill="none" id="overarch_dataModel_optionalNode-backto-overarch_dataModel_method" style="stroke:#181818;stroke-width:1.0;"/><polygon fill="none" points="1669,736.7894,1663,754.7894,1675,754.7894,1669,736.7894" style="stroke:#181818;stroke-width:1.0;"/></g><!--reverse link overarch_dataModel_typedNode to overarch_dataModel_method--><g id="link_overarch_dataModel_typedNode_overarch_dataModel_method"><path codeLine="117" d="M2116.5079,743.2335 C2090.0079,755.7235 2074.62,761.7994 2045,771.6094 C1925.38,811.2394 1778.06,837.5094 1708.69,848.6094 " fill="none" id="overarch_dataModel_typedNode-backto-overarch_dataModel_method" style="stroke:#181818;stroke-width:1.0;"/><polygon fill="none" points="2132.79,735.5594,2113.9498,737.8061,2119.0659,748.6609,2132.79,735.5594" style="stroke:#181818;stroke-width:1.0;"/></g><!--reverse link overarch_dataModel_modelRelation to overarch_dataModel_codeModelRelation--><g id="link_overarch_dataModel_modelRelation_overarch_dataModel_codeModelRelation"><path codeLine="118" d="M700.3082,483.3297 C688.4382,503.1397 683.86,510.7894 673.83,527.5194 " fill="none" id="overarch_dataModel_modelRelation-backto-overarch_dataModel_codeModelRelation" style="stroke:#181818;stroke-width:1.0;"/><polygon fill="none" points="709.56,467.8894,695.1615,480.2458,705.455,486.4137,709.56,467.8894" style="stroke:#181818;stroke-width:1.0;"/></g><!--reverse link overarch_dataModel_modelElement to overarch_dataModel_codeModelElement--><g id="link_overarch_dataModel_modelElement_overarch_dataModel_codeModelElement"><path codeLine="119" d="M874.5085,337.7552 C899.0185,362.8052 916.95,381.1194 937.37,401.9894 " fill="none" id="overarch_dataModel_modelElement-backto-overarch_dataModel_codeModelElement" style="stroke:#181818;stroke-width:1.0;"/><polygon fill="none" points="861.92,324.8894,870.2199,341.9514,878.7971,333.5591,861.92,324.8894" style="stroke:#181818;stroke-width:1.0;"/></g><!--link overarch_dataModel_function to overarch_dataModel_parameter--><g id="link_overarch_dataModel_function_overarch_dataModel_parameter"><path codeLine="120" d="M2021,891.6094 C2021,909.2694 2021,915.5494 2021,933.2894 " fill="none" id="overarch_dataModel_function-overarch_dataModel_parameter" style="stroke:#181818;stroke-width:1.0;"/><polygon fill="#181818" points="2021,879.6094,2017,885.6094,2021,891.6094,2025,885.6094,2021,879.6094" style="stroke:#181818;stroke-width:1.0;"/><polygon fill="#181818" points="2021,939.2894,2025,930.2894,2021,934.2894,2017,930.2894,2021,939.2894" style="stroke:#181818;stroke-width:1.0;"/><text fill="#000000" font-family="sans-serif" font-size="13" lengthAdjust="spacing" textLength="22" x="1996.3188" y="928.9493">0..n</text></g><!--reverse link overarch_dataModel_visibilityNode to overarch_dataModel_function--><g id="link_overarch_dataModel_visibilityNode_overarch_dataModel_function"><path codeLine="121" d="M1904.7191,748.8973 C1936.0591,777.3873 1967.72,806.1794 1995.61,831.5294 " fill="none" id="overarch_dataModel_visibilityNode-backto-overarch_dataModel_function" style="stroke:#181818;stroke-width:1.0;"/><polygon fill="none" points="1891.4,736.7894,1900.6831,753.337,1908.7551,744.4576,1891.4,736.7894" style="stroke:#181818;stroke-width:1.0;"/></g><!--reverse link overarch_dataModel_scopedNode to overarch_dataModel_field--><g id="link_overarch_dataModel_scopedNode_overarch_dataModel_field"><path codeLine="122" d="M1530.6265,747.8629 C1546.6965,760.1329 1551.79,762.4194 1571,771.6094 C1665.42,816.7894 1788.6,840.9494 1843.9,850.1594 " fill="none" id="overarch_dataModel_scopedNode-backto-overarch_dataModel_field" style="stroke:#181818;stroke-width:1.0;"/><polygon fill="none" points="1516.32,736.9394,1526.9853,752.6317,1534.2677,743.0941,1516.32,736.9394" style="stroke:#181818;stroke-width:1.0;"/></g><!--SRC=[jLXDRzmW4BtxLw0SApbghb7LIrMfb-JGGozL5H4ykujYWulPhLPf_di1snXd6V3QwcLNm9jXc8_7OCrr3UIBh80yc9-QVAsX0Q6xec0rxJfoG_Tx1NkgkHGtX7P4da1HnGvF5TNKoJm54FBwLj3dJYlAD1aqQ607mHcjI-YLOteyS322l1Q4s4boJunABlRavyVRsxjVnTjeNGFw82jCORyQjUdSGddWlSIvL50dJsZXtqRqzm5izGxgG1oRyaJh8s0QBEA71GHIEmurQhjR3C1S741nJGL3zmWWiJDdl0-1qoles8NJpRICpPgikISlSFuZLMM6l9eD1Mt02qs1snq5ItbyN0yyq59bT6bGc8m7149s-wwbkDCy810oFvBnTCvFa9YlJxpZpxpc-bmAWyUqJB17MuBMzTDK9ElVRpEEavkC8B-5rt9FdgMiWGfyXux95gga_XxYjRlXb08N9Sk5YT2Efj9u0CGSArlhSiCbAOj6aBTfd8YTs6SNUw5xm7FBBSTCQYmWQOz3zCRCA2D55lXEER9og8capF5tIZQpejGo64RIQapk4sHt2x0NUvQCgYh266vDcJX4rduVQSqD-Qd8cfPpZVrKLD7bePWnjrpcGGjzc7lHnut9ffKTJujxI2oAWI6ffF56Z8aJpuOCgpjGU9ysL1zLpoxlAjGua-uxwqdG5-NX_b1J7GQvPjFauH2-Jkq8l-nvq_O7IGPlZWeYLq4BeWB1pfZeX0Yl7IMrPB96cM5OpuGw4oSVRH-hjoB7R9_-bYNQEXJPbCB4dUr5yghyK9QV2RanyJ5Xo6rKB6drK6FU-QL0qozdqzXHh7UCx-7Mg-WxqlNo_cuiahM4PaR21v29H9E9meBTiRoSRlnS4BVwpuPmVGhXkyzeDkb1h2AQV5tcYkhosi9KJKIttfM-souIxT9seeY-lD3oc77_DXz56fjjaKzfkQ3_xKcG2PwBpte56- -O517DtYlN4-coAtB9PR0u5gd8-lPWo_sKvzPaDLvPHDDdXFK1zht2XXmTFBUjZADdB_9lyQiJVw4ydhYnbrIMd90KNjOHOKTnxyz1-WwJJdP3Lvrb-dnOu1_nSeT95a3mYUB_nYLu-gtcfkH95cd0pv8daaoFiy032qYnkOfU4qsd_qouAJsMbdw2eHTac2ktVm00]--></g></svg>