<?xml version="1.0" encoding="us-ascii" standalone="no"?><svg xmlns="http://www.w3.org/2000/svg" xmlns:xlink="http://www.w3.org/1999/xlink" contentStyleType="text/css" height="721px" preserveAspectRatio="none" style="width:1135px;height:721px;background:#FFFFFF;" version="1.1" viewBox="0 0 1135 721" width="1135px" zoomAndPan="magnify"><defs/><g><text fill="#000000" font-family="sans-serif" font-size="14" font-weight="bold" lengthAdjust="spacing" textLength="195" x="463" y="22.9951">Concept Model Elements</text><!--class overarch_dataModel_element--><g id="elem_overarch_dataModel_element"><rect codeLine="8" fill="#F1F1F1" height="64.2969" id="overarch_dataModel_element" rx="2.5" ry="2.5" style="stroke:#181818;stroke-width:0.5;" width="95" x="815" y="44.2969"/><ellipse cx="832.7" cy="60.2969" fill="#A9DCDF" rx="11" ry="11" style="stroke:#181818;stroke-width:1.0;"/><path d="M832.8094,55.6406 L831.6531,60.7188 L833.9813,60.7188 L832.8094,55.6406 Z M831.325,53.4063 L834.3094,53.4063 L837.6688,65.7969 L835.2156,65.7969 L834.45,62.7344 L831.1688,62.7344 L830.4188,65.7969 L827.9813,65.7969 L831.325,53.4063 Z " fill="#000000"/><text fill="#000000" font-family="sans-serif" font-size="14" font-style="italic" lengthAdjust="spacing" textLength="57" x="847.3" y="65.1436">element</text><line style="stroke:#181818;stroke-width:0.5;" x1="816" x2="909" y1="76.2969" y2="76.2969"/><text fill="#000000" font-family="sans-serif" font-size="14" lengthAdjust="spacing" textLength="83" x="821" y="93.292">el : keyword</text><line style="stroke:#181818;stroke-width:0.5;" x1="816" x2="909" y1="100.5938" y2="100.5938"/></g><!--class overarch_dataModel_identifiableElement--><g id="elem_overarch_dataModel_identifiableElement"><rect codeLine="11" fill="#F1F1F1" height="64.2969" id="overarch_dataModel_identifiableElement" rx="2.5" ry="2.5" style="stroke:#181818;stroke-width:0.5;" width="168" x="873.5" y="176.7969"/><ellipse cx="888.5" cy="192.7969" fill="#A9DCDF" rx="11" ry="11" style="stroke:#181818;stroke-width:1.0;"/><path d="M888.6094,188.1406 L887.4531,193.2188 L889.7813,193.2188 L888.6094,188.1406 Z M887.125,185.9063 L890.1094,185.9063 L893.4688,198.2969 L891.0156,198.2969 L890.25,195.2344 L886.9688,195.2344 L886.2188,198.2969 L883.7813,198.2969 L887.125,185.9063 Z " fill="#000000"/><text fill="#000000" font-family="sans-serif" font-size="14" font-style="italic" lengthAdjust="spacing" textLength="136" x="902.5" y="197.6436">identifiable-element</text><line style="stroke:#181818;stroke-width:0.5;" x1="874.5" x2="1040.5" y1="208.7969" y2="208.7969"/><text fill="#000000" font-family="sans-serif" font-size="14" lengthAdjust="spacing" textLength="83" x="879.5" y="225.792">id : keyword</text><line style="stroke:#181818;stroke-width:0.5;" x1="874.5" x2="1040.5" y1="233.0938" y2="233.0938"/></g><!--class overarch_dataModel_namedElement--><g id="elem_overarch_dataModel_namedElement"><rect codeLine="14" fill="#F1F1F1" height="80.5938" id="overarch_dataModel_namedElement" rx="2.5" ry="2.5" style="stroke:#181818;stroke-width:0.5;" width="142" x="696.5" y="168.2969"/><ellipse cx="711.5" cy="184.2969" fill="#A9DCDF" rx="11" ry="11" style="stroke:#181818;stroke-width:1.0;"/><path d="M711.6094,179.6406 L710.4531,184.7188 L712.7813,184.7188 L711.6094,179.6406 Z M710.125,177.4063 L713.1094,177.4063 L716.4688,189.7969 L714.0156,189.7969 L713.25,186.7344 L709.9688,186.7344 L709.2188,189.7969 L706.7813,189.7969 L710.125,177.4063 Z " fill="#000000"/><text fill="#000000" font-family="sans-serif" font-size="14" font-style="italic" lengthAdjust="spacing" textLength="110" x="725.5" y="189.1436">named-element</text><line style="stroke:#181818;stroke-width:0.5;" x1="697.5" x2="837.5" y1="200.2969" y2="200.2969"/><text fill="#000000" font-family="sans-serif" font-size="14" lengthAdjust="spacing" textLength="91" x="702.5" y="217.292">name : string</text><text fill="#000000" font-family="sans-serif" font-size="14" lengthAdjust="spacing" textLength="126" x="702.5" y="233.5889">desc : string [0..1]</text><line style="stroke:#181818;stroke-width:0.5;" x1="697.5" x2="837.5" y1="240.8906" y2="240.8906"/></g><!--class overarch_dataModel_identifiableNamedElement--><g id="elem_overarch_dataModel_identifiableNamedElement"><rect codeLine="18" fill="#F1F1F1" height="48" id="overarch_dataModel_identifiableNamedElement" rx="2.5" ry="2.5" style="stroke:#181818;stroke-width:0.5;" width="221" x="657" y="309.2969"/><ellipse cx="672" cy="325.2969" fill="#A9DCDF" rx="11" ry="11" style="stroke:#181818;stroke-width:1.0;"/><path d="M672.1094,320.6406 L670.9531,325.7188 L673.2813,325.7188 L672.1094,320.6406 Z M670.625,318.4063 L673.6094,318.4063 L676.9688,330.7969 L674.5156,330.7969 L673.75,327.7344 L670.4688,327.7344 L669.7188,330.7969 L667.2813,330.7969 L670.625,318.4063 Z " fill="#000000"/><text fill="#000000" font-family="sans-serif" font-size="14" font-style="italic" lengthAdjust="spacing" textLength="189" x="686" y="330.1436">identifiable-named-element</text><line style="stroke:#181818;stroke-width:0.5;" x1="658" x2="877" y1="341.2969" y2="341.2969"/><line style="stroke:#181818;stroke-width:0.5;" x1="658" x2="877" y1="349.2969" y2="349.2969"/></g><!--class overarch_dataModel_relationalElement--><g id="elem_overarch_dataModel_relationalElement"><rect codeLine="19" fill="#F1F1F1" height="80.5938" id="overarch_dataModel_relationalElement" rx="2.5" ry="2.5" style="stroke:#181818;stroke-width:0.5;" width="156" x="891.5" y="417.2969"/><ellipse cx="906.5" cy="433.2969" fill="#A9DCDF" rx="11" ry="11" style="stroke:#181818;stroke-width:1.0;"/><path d="M906.6094,428.6406 L905.4531,433.7188 L907.7813,433.7188 L906.6094,428.6406 Z M905.125,426.4063 L908.1094,426.4063 L911.4688,438.7969 L909.0156,438.7969 L908.25,435.7344 L904.9688,435.7344 L904.2188,438.7969 L901.7813,438.7969 L905.125,426.4063 Z " fill="#000000"/><text fill="#000000" font-family="sans-serif" font-size="14" font-style="italic" lengthAdjust="spacing" textLength="124" x="920.5" y="438.1436">relational-element</text><line style="stroke:#181818;stroke-width:0.5;" x1="892.5" x2="1046.5" y1="449.2969" y2="449.2969"/><text fill="#000000" font-family="sans-serif" font-size="14" lengthAdjust="spacing" textLength="102" x="897.5" y="466.292">from : keyword</text><text fill="#000000" font-family="sans-serif" font-size="14" lengthAdjust="spacing" textLength="85" x="897.5" y="482.5889">to : keyword</text><line style="stroke:#181818;stroke-width:0.5;" x1="892.5" x2="1046.5" y1="489.8906" y2="489.8906"/></g><!--class overarch_dataModel_conceptModelElement--><g id="elem_overarch_dataModel_conceptModelElement"><rect codeLine="23" fill="#F1F1F1" height="48" id="overarch_dataModel_conceptModelElement" rx="2.5" ry="2.5" style="stroke:#181818;stroke-width:0.5;" width="199" x="657" y="433.7969"/><ellipse cx="672" cy="449.7969" fill="#A9DCDF" rx="11" ry="11" style="stroke:#181818;stroke-width:1.0;"/><path d="M672.1094,445.1406 L670.9531,450.2188 L673.2813,450.2188 L672.1094,445.1406 Z M670.625,442.9063 L673.6094,442.9063 L676.9688,455.2969 L674.5156,455.2969 L673.75,452.2344 L670.4688,452.2344 L669.7188,455.2969 L667.2813,455.2969 L670.625,442.9063 Z " fill="#000000"/><text fill="#000000" font-family="sans-serif" font-size="14" font-style="italic" lengthAdjust="spacing" textLength="167" x="686" y="454.6436">concept-model-element</text><line style="stroke:#181818;stroke-width:0.5;" x1="658" x2="855" y1="465.7969" y2="465.7969"/><line style="stroke:#181818;stroke-width:0.5;" x1="658" x2="855" y1="473.7969" y2="473.7969"/></g><!--class overarch_dataModel_conceptModelNode--><g id="elem_overarch_dataModel_conceptModelNode"><rect codeLine="24" fill="#F1F1F1" height="48" id="overarch_dataModel_conceptModelNode" rx="2.5" ry="2.5" style="stroke:#181818;stroke-width:0.5;" width="178" x="434.5" y="558.2969"/><ellipse cx="449.5" cy="574.2969" fill="#A9DCDF" rx="11" ry="11" style="stroke:#181818;stroke-width:1.0;"/><path d="M449.6094,569.6406 L448.4531,574.7188 L450.7813,574.7188 L449.6094,569.6406 Z M448.125,567.4063 L451.1094,567.4063 L454.4688,579.7969 L452.0156,579.7969 L451.25,576.7344 L447.9688,576.7344 L447.2188,579.7969 L444.7813,579.7969 L448.125,567.4063 Z " fill="#000000"/><text fill="#000000" font-family="sans-serif" font-size="14" font-style="italic" lengthAdjust="spacing" textLength="146" x="463.5" y="579.1436">concept-model-node</text><line style="stroke:#181818;stroke-width:0.5;" x1="435.5" x2="611.5" y1="590.2969" y2="590.2969"/><line style="stroke:#181818;stroke-width:0.5;" x1="435.5" x2="611.5" y1="598.2969" y2="598.2969"/></g><!--class overarch_dataModel_conceptModelRelation--><g id="elem_overarch_dataModel_conceptModelRelation"><rect codeLine="25" fill="#F1F1F1" height="48" id="overarch_dataModel_conceptModelRelation" rx="2.5" ry="2.5" style="stroke:#181818;stroke-width:0.5;" width="193" x="873" y="558.2969"/><ellipse cx="888" cy="574.2969" fill="#A9DCDF" rx="11" ry="11" style="stroke:#181818;stroke-width:1.0;"/><path d="M888.1094,569.6406 L886.9531,574.7188 L889.2813,574.7188 L888.1094,569.6406 Z M886.625,567.4063 L889.6094,567.4063 L892.9688,579.7969 L890.5156,579.7969 L889.75,576.7344 L886.4688,576.7344 L885.7188,579.7969 L883.2813,579.7969 L886.625,567.4063 Z " fill="#000000"/><text fill="#000000" font-family="sans-serif" font-size="14" font-style="italic" lengthAdjust="spacing" textLength="161" x="902" y="579.1436">concept-model-relation</text><line style="stroke:#181818;stroke-width:0.5;" x1="874" x2="1065" y1="590.2969" y2="590.2969"/><line style="stroke:#181818;stroke-width:0.5;" x1="874" x2="1065" y1="598.2969" y2="598.2969"/></g><!--class overarch_dataModel_concept--><g id="elem_overarch_dataModel_concept"><rect codeLine="26" fill="#F1F1F1" height="48" id="overarch_dataModel_concept" rx="2.5" ry="2.5" style="stroke:#181818;stroke-width:0.5;" width="89" x="7" y="666.2969"/><ellipse cx="22" cy="682.2969" fill="#ADD1B2" rx="11" ry="11" style="stroke:#181818;stroke-width:1.0;"/><path d="M24.9688,687.9375 Q24.3906,688.2344 23.75,688.375 Q23.1094,688.5313 22.4063,688.5313 Q19.9063,688.5313 18.5781,686.8906 Q17.2656,685.2344 17.2656,682.1094 Q17.2656,678.9844 18.5781,677.3281 Q19.9063,675.6719 22.4063,675.6719 Q23.1094,675.6719 23.75,675.8281 Q24.4063,675.9844 24.9688,676.2813 L24.9688,679 Q24.3438,678.4219 23.75,678.1563 Q23.1563,677.875 22.5313,677.875 Q21.1875,677.875 20.5,678.9531 Q19.8125,680.0156 19.8125,682.1094 Q19.8125,684.2031 20.5,685.2813 Q21.1875,686.3438 22.5313,686.3438 Q23.1563,686.3438 23.75,686.0781 Q24.3438,685.7969 24.9688,685.2188 L24.9688,687.9375 Z " fill="#000000"/><text fill="#000000" font-family="sans-serif" font-size="14" lengthAdjust="spacing" textLength="57" x="36" y="687.1436">concept</text><line style="stroke:#181818;stroke-width:0.5;" x1="8" x2="95" y1="698.2969" y2="698.2969"/><line style="stroke:#181818;stroke-width:0.5;" x1="8" x2="95" y1="706.2969" y2="706.2969"/></g><!--class overarch_dataModel_person--><g id="elem_overarch_dataModel_person"><rect codeLine="27" fill="#F1F1F1" height="48" id="overarch_dataModel_person" rx="2.5" ry="2.5" style="stroke:#181818;stroke-width:0.5;" width="81" x="131" y="666.2969"/><ellipse cx="146" cy="682.2969" fill="#ADD1B2" rx="11" ry="11" style="stroke:#181818;stroke-width:1.0;"/><path d="M148.9688,687.9375 Q148.3906,688.2344 147.75,688.375 Q147.1094,688.5313 146.4063,688.5313 Q143.9063,688.5313 142.5781,686.8906 Q141.2656,685.2344 141.2656,682.1094 Q141.2656,678.9844 142.5781,677.3281 Q143.9063,675.6719 146.4063,675.6719 Q147.1094,675.6719 147.75,675.8281 Q148.4063,675.9844 148.9688,676.2813 L148.9688,679 Q148.3438,678.4219 147.75,678.1563 Q147.1563,677.875 146.5313,677.875 Q145.1875,677.875 144.5,678.9531 Q143.8125,680.0156 143.8125,682.1094 Q143.8125,684.2031 144.5,685.2813 Q145.1875,686.3438 146.5313,686.3438 Q147.1563,686.3438 147.75,686.0781 Q148.3438,685.7969 148.9688,685.2188 L148.9688,687.9375 Z " fill="#000000"/><text fill="#000000" font-family="sans-serif" font-size="14" lengthAdjust="spacing" textLength="49" x="160" y="687.1436">person</text><line style="stroke:#181818;stroke-width:0.5;" x1="132" x2="211" y1="698.2969" y2="698.2969"/><line style="stroke:#181818;stroke-width:0.5;" x1="132" x2="211" y1="706.2969" y2="706.2969"/></g><!--class overarch_dataModel_contextBoundary--><g id="elem_overarch_dataModel_contextBoundary"><rect codeLine="28" fill="#F1F1F1" height="48" id="overarch_dataModel_contextBoundary" rx="2.5" ry="2.5" style="stroke:#181818;stroke-width:0.5;" width="154" x="247.5" y="666.2969"/><ellipse cx="262.5" cy="682.2969" fill="#ADD1B2" rx="11" ry="11" style="stroke:#181818;stroke-width:1.0;"/><path d="M265.4688,687.9375 Q264.8906,688.2344 264.25,688.375 Q263.6094,688.5313 262.9063,688.5313 Q260.4063,688.5313 259.0781,686.8906 Q257.7656,685.2344 257.7656,682.1094 Q257.7656,678.9844 259.0781,677.3281 Q260.4063,675.6719 262.9063,675.6719 Q263.6094,675.6719 264.25,675.8281 Q264.9063,675.9844 265.4688,676.2813 L265.4688,679 Q264.8438,678.4219 264.25,678.1563 Q263.6563,677.875 263.0313,677.875 Q261.6875,677.875 261,678.9531 Q260.3125,680.0156 260.3125,682.1094 Q260.3125,684.2031 261,685.2813 Q261.6875,686.3438 263.0313,686.3438 Q263.6563,686.3438 264.25,686.0781 Q264.8438,685.7969 265.4688,685.2188 L265.4688,687.9375 Z " fill="#000000"/><text fill="#000000" font-family="sans-serif" font-size="14" lengthAdjust="spacing" textLength="122" x="276.5" y="687.1436">context-boundary</text><line style="stroke:#181818;stroke-width:0.5;" x1="248.5" x2="400.5" y1="698.2969" y2="698.2969"/><line style="stroke:#181818;stroke-width:0.5;" x1="248.5" x2="400.5" y1="706.2969" y2="706.2969"/></g><!--class overarch_dataModel_enterpriseBoundary--><g id="elem_overarch_dataModel_enterpriseBoundary"><rect codeLine="29" fill="#F1F1F1" height="48" id="overarch_dataModel_enterpriseBoundary" rx="2.5" ry="2.5" style="stroke:#181818;stroke-width:0.5;" width="173" x="437" y="666.2969"/><ellipse cx="452" cy="682.2969" fill="#ADD1B2" rx="11" ry="11" style="stroke:#181818;stroke-width:1.0;"/><path d="M454.9688,687.9375 Q454.3906,688.2344 453.75,688.375 Q453.1094,688.5313 452.4063,688.5313 Q449.9063,688.5313 448.5781,686.8906 Q447.2656,685.2344 447.2656,682.1094 Q447.2656,678.9844 448.5781,677.3281 Q449.9063,675.6719 452.4063,675.6719 Q453.1094,675.6719 453.75,675.8281 Q454.4063,675.9844 454.9688,676.2813 L454.9688,679 Q454.3438,678.4219 453.75,678.1563 Q453.1563,677.875 452.5313,677.875 Q451.1875,677.875 450.5,678.9531 Q449.8125,680.0156 449.8125,682.1094 Q449.8125,684.2031 450.5,685.2813 Q451.1875,686.3438 452.5313,686.3438 Q453.1563,686.3438 453.75,686.0781 Q454.3438,685.7969 454.9688,685.2188 L454.9688,687.9375 Z " fill="#000000"/><text fill="#000000" font-family="sans-serif" font-size="14" lengthAdjust="spacing" textLength="141" x="466" y="687.1436">enterprise-boundary</text><line style="stroke:#181818;stroke-width:0.5;" x1="438" x2="609" y1="698.2969" y2="698.2969"/><line style="stroke:#181818;stroke-width:0.5;" x1="438" x2="609" y1="706.2969" y2="706.2969"/></g><!--class overarch_dataModel_system--><g id="elem_overarch_dataModel_system"><rect codeLine="30" fill="#F1F1F1" height="48" id="overarch_dataModel_system" rx="2.5" ry="2.5" style="stroke:#181818;stroke-width:0.5;" width="82" x="645.5" y="666.2969"/><ellipse cx="660.5" cy="682.2969" fill="#ADD1B2" rx="11" ry="11" style="stroke:#181818;stroke-width:1.0;"/><path d="M663.4688,687.9375 Q662.8906,688.2344 662.25,688.375 Q661.6094,688.5313 660.9063,688.5313 Q658.4063,688.5313 657.0781,686.8906 Q655.7656,685.2344 655.7656,682.1094 Q655.7656,678.9844 657.0781,677.3281 Q658.4063,675.6719 660.9063,675.6719 Q661.6094,675.6719 662.25,675.8281 Q662.9063,675.9844 663.4688,676.2813 L663.4688,679 Q662.8438,678.4219 662.25,678.1563 Q661.6563,677.875 661.0313,677.875 Q659.6875,677.875 659,678.9531 Q658.3125,680.0156 658.3125,682.1094 Q658.3125,684.2031 659,685.2813 Q659.6875,686.3438 661.0313,686.3438 Q661.6563,686.3438 662.25,686.0781 Q662.8438,685.7969 663.4688,685.2188 L663.4688,687.9375 Z " fill="#000000"/><text fill="#000000" font-family="sans-serif" font-size="14" lengthAdjust="spacing" textLength="50" x="674.5" y="687.1436">system</text><line style="stroke:#181818;stroke-width:0.5;" x1="646.5" x2="726.5" y1="698.2969" y2="698.2969"/><line style="stroke:#181818;stroke-width:0.5;" x1="646.5" x2="726.5" y1="706.2969" y2="706.2969"/></g><!--class overarch_dataModel_container--><g id="elem_overarch_dataModel_container"><rect codeLine="31" fill="#F1F1F1" height="48" id="overarch_dataModel_container" rx="2.5" ry="2.5" style="stroke:#181818;stroke-width:0.5;" width="97" x="763" y="666.2969"/><ellipse cx="778" cy="682.2969" fill="#ADD1B2" rx="11" ry="11" style="stroke:#181818;stroke-width:1.0;"/><path d="M780.9688,687.9375 Q780.3906,688.2344 779.75,688.375 Q779.1094,688.5313 778.4063,688.5313 Q775.9063,688.5313 774.5781,686.8906 Q773.2656,685.2344 773.2656,682.1094 Q773.2656,678.9844 774.5781,677.3281 Q775.9063,675.6719 778.4063,675.6719 Q779.1094,675.6719 779.75,675.8281 Q780.4063,675.9844 780.9688,676.2813 L780.9688,679 Q780.3438,678.4219 779.75,678.1563 Q779.1563,677.875 778.5313,677.875 Q777.1875,677.875 776.5,678.9531 Q775.8125,680.0156 775.8125,682.1094 Q775.8125,684.2031 776.5,685.2813 Q777.1875,686.3438 778.5313,686.3438 Q779.1563,686.3438 779.75,686.0781 Q780.3438,685.7969 780.9688,685.2188 L780.9688,687.9375 Z " fill="#000000"/><text fill="#000000" font-family="sans-serif" font-size="14" lengthAdjust="spacing" textLength="65" x="792" y="687.1436">container</text><line style="stroke:#181818;stroke-width:0.5;" x1="764" x2="859" y1="698.2969" y2="698.2969"/><line style="stroke:#181818;stroke-width:0.5;" x1="764" x2="859" y1="706.2969" y2="706.2969"/></g><!--class overarch_dataModel_isA--><g id="elem_overarch_dataModel_isA"><rect codeLine="32" fill="#F1F1F1" height="48" id="overarch_dataModel_isA" rx="2.5" ry="2.5" style="stroke:#181818;stroke-width:0.5;" width="56" x="895.5" y="666.2969"/><ellipse cx="910.5" cy="682.2969" fill="#ADD1B2" rx="11" ry="11" style="stroke:#181818;stroke-width:1.0;"/><path d="M913.4688,687.9375 Q912.8906,688.2344 912.25,688.375 Q911.6094,688.5313 910.9063,688.5313 Q908.4063,688.5313 907.0781,686.8906 Q905.7656,685.2344 905.7656,682.1094 Q905.7656,678.9844 907.0781,677.3281 Q908.4063,675.6719 910.9063,675.6719 Q911.6094,675.6719 912.25,675.8281 Q912.9063,675.9844 913.4688,676.2813 L913.4688,679 Q912.8438,678.4219 912.25,678.1563 Q911.6563,677.875 911.0313,677.875 Q909.6875,677.875 909,678.9531 Q908.3125,680.0156 908.3125,682.1094 Q908.3125,684.2031 909,685.2813 Q909.6875,686.3438 911.0313,686.3438 Q911.6563,686.3438 912.25,686.0781 Q912.8438,685.7969 913.4688,685.2188 L913.4688,687.9375 Z " fill="#000000"/><text fill="#000000" font-family="sans-serif" font-size="14" lengthAdjust="spacing" textLength="24" x="924.5" y="687.1436">is-a</text><line style="stroke:#181818;stroke-width:0.5;" x1="896.5" x2="950.5" y1="698.2969" y2="698.2969"/><line style="stroke:#181818;stroke-width:0.5;" x1="896.5" x2="950.5" y1="706.2969" y2="706.2969"/></g><!--class overarch_dataModel_has--><g id="elem_overarch_dataModel_has"><rect codeLine="33" fill="#F1F1F1" height="48" id="overarch_dataModel_has" rx="2.5" ry="2.5" style="stroke:#181818;stroke-width:0.5;" width="57" x="987" y="666.2969"/><ellipse cx="1002" cy="682.2969" fill="#ADD1B2" rx="11" ry="11" style="stroke:#181818;stroke-width:1.0;"/><path d="M1004.9688,687.9375 Q1004.3906,688.2344 1003.75,688.375 Q1003.1094,688.5313 1002.4063,688.5313 Q999.9063,688.5313 998.5781,686.8906 Q997.2656,685.2344 997.2656,682.1094 Q997.2656,678.9844 998.5781,677.3281 Q999.9063,675.6719 1002.4063,675.6719 Q1003.1094,675.6719 1003.75,675.8281 Q1004.4063,675.9844 1004.9688,676.2813 L1004.9688,679 Q1004.3438,678.4219 1003.75,678.1563 Q1003.1563,677.875 1002.5313,677.875 Q1001.1875,677.875 1000.5,678.9531 Q999.8125,680.0156 999.8125,682.1094 Q999.8125,684.2031 1000.5,685.2813 Q1001.1875,686.3438 1002.5313,686.3438 Q1003.1563,686.3438 1003.75,686.0781 Q1004.3438,685.7969 1004.9688,685.2188 L1004.9688,687.9375 Z " fill="#000000"/><text fill="#000000" font-family="sans-serif" font-size="14" lengthAdjust="spacing" textLength="25" x="1016" y="687.1436">has</text><line style="stroke:#181818;stroke-width:0.5;" x1="988" x2="1043" y1="698.2969" y2="698.2969"/><line style="stroke:#181818;stroke-width:0.5;" x1="988" x2="1043" y1="706.2969" y2="706.2969"/></g><!--class overarch_dataModel_rel--><g id="elem_overarch_dataModel_rel"><rect codeLine="34" fill="#F1F1F1" height="48" id="overarch_dataModel_rel" rx="2.5" ry="2.5" style="stroke:#181818;stroke-width:0.5;" width="49" x="1079" y="666.2969"/><ellipse cx="1094" cy="682.2969" fill="#ADD1B2" rx="11" ry="11" style="stroke:#181818;stroke-width:1.0;"/><path d="M1096.9688,687.9375 Q1096.3906,688.2344 1095.75,688.375 Q1095.1094,688.5313 1094.4063,688.5313 Q1091.9063,688.5313 1090.5781,686.8906 Q1089.2656,685.2344 1089.2656,682.1094 Q1089.2656,678.9844 1090.5781,677.3281 Q1091.9063,675.6719 1094.4063,675.6719 Q1095.1094,675.6719 1095.75,675.8281 Q1096.4063,675.9844 1096.9688,676.2813 L1096.9688,679 Q1096.3438,678.4219 1095.75,678.1563 Q1095.1563,677.875 1094.5313,677.875 Q1093.1875,677.875 1092.5,678.9531 Q1091.8125,680.0156 1091.8125,682.1094 Q1091.8125,684.2031 1092.5,685.2813 Q1093.1875,686.3438 1094.5313,686.3438 Q1095.1563,686.3438 1095.75,686.0781 Q1096.3438,685.7969 1096.9688,685.2188 L1096.9688,687.9375 Z " fill="#000000"/><text fill="#000000" font-family="sans-serif" font-size="14" lengthAdjust="spacing" textLength="17" x="1108" y="687.1436">rel</text><line style="stroke:#181818;stroke-width:0.5;" x1="1080" x2="1127" y1="698.2969" y2="698.2969"/><line style="stroke:#181818;stroke-width:0.5;" x1="1080" x2="1127" y1="706.2969" y2="706.2969"/></g><!--reverse link overarch_dataModel_element to overarch_dataModel_identifiableElement--><g id="link_overarch_dataModel_element_overarch_dataModel_identifiableElement"><path codeLine="35" d="M897.06,124.7669 C909.68,142.1069 923.62,161.2569 934.93,176.7969 " fill="none" id="overarch_dataModel_element-backto-overarch_dataModel_identifiableElement" style="stroke:#181818;stroke-width:1.0;"/><polygon fill="none" points="891.37,128.8469,885.25,108.5569,902.68,120.6069,891.37,128.8469" style="stroke:#181818;stroke-width:1.0;"/></g><!--reverse link overarch_dataModel_element to overarch_dataModel_namedElement--><g id="link_overarch_dataModel_element_overarch_dataModel_namedElement"><path codeLine="36" d="M827.8,124.9669 C817.54,139.0569 806.42,154.3369 796.55,167.8869 " fill="none" id="overarch_dataModel_element-backto-overarch_dataModel_namedElement" style="stroke:#181818;stroke-width:1.0;"/><polygon fill="none" points="822.32,120.6069,839.75,108.5569,833.63,128.8469,822.32,120.6069" style="stroke:#181818;stroke-width:1.0;"/></g><!--reverse link overarch_dataModel_identifiableElement to overarch_dataModel_identifiableNamedElement--><g id="link_overarch_dataModel_identifiableElement_overarch_dataModel_identifiableNamedElement"><path codeLine="37" d="M892.13,251.9469 C862.34,271.1469 828.24,293.1369 803.25,309.2469 " fill="none" id="overarch_dataModel_identifiableElement-backto-overarch_dataModel_identifiableNamedElement" style="stroke:#181818;stroke-width:1.0;"/><polygon fill="none" points="888.46,245.9769,909.06,241.0269,896.05,257.7469,888.46,245.9769" style="stroke:#181818;stroke-width:1.0;"/></g><!--reverse link overarch_dataModel_namedElement to overarch_dataModel_identifiableNamedElement--><g id="link_overarch_dataModel_namedElement_overarch_dataModel_identifiableNamedElement"><path codeLine="38" d="M767.5,269.7169 C767.5,283.7469 767.5,297.8669 767.5,309.1369 " fill="none" id="overarch_dataModel_namedElement-backto-overarch_dataModel_identifiableNamedElement" style="stroke:#181818;stroke-width:1.0;"/><polygon fill="none" points="760.5,269.5669,767.5,249.5669,774.5,269.5669,760.5,269.5669" style="stroke:#181818;stroke-width:1.0;"/></g><!--reverse link overarch_dataModel_identifiableElement to overarch_dataModel_relationalElement--><g id="link_overarch_dataModel_identifiableElement_overarch_dataModel_relationalElement"><path codeLine="39" d="M959.99,261.0569 C962.24,307.4569 965.52,374.8369 967.58,417.2169 " fill="none" id="overarch_dataModel_identifiableElement-backto-overarch_dataModel_relationalElement" style="stroke:#181818;stroke-width:1.0;"/><polygon fill="none" points="953,261.3969,959.02,241.0769,966.98,260.7169,953,261.3969" style="stroke:#181818;stroke-width:1.0;"/></g><!--reverse link overarch_dataModel_identifiableNamedElement to overarch_dataModel_conceptModelElement--><g id="link_overarch_dataModel_identifiableNamedElement_overarch_dataModel_conceptModelElement"><path codeLine="40" d="M763.62,377.4669 C761.93,396.2969 760.02,417.6369 758.6,433.4469 " fill="none" id="overarch_dataModel_identifiableNamedElement-backto-overarch_dataModel_conceptModelElement" style="stroke:#181818;stroke-width:1.0;"/><polygon fill="none" points="756.67,376.6369,765.43,357.3369,770.61,377.8869,756.67,376.6369" style="stroke:#181818;stroke-width:1.0;"/></g><!--reverse link overarch_dataModel_conceptModelElement to overarch_dataModel_conceptModelNode--><g id="link_overarch_dataModel_conceptModelElement_overarch_dataModel_conceptModelNode"><path codeLine="41" d="M694.87,491.1969 C654.8,512.2669 603.51,539.2269 567.52,558.1469 " fill="none" id="overarch_dataModel_conceptModelElement-backto-overarch_dataModel_conceptModelNode" style="stroke:#181818;stroke-width:1.0;"/><polygon fill="none" points="691.71,484.9469,712.67,481.8369,698.23,497.3369,691.71,484.9469" style="stroke:#181818;stroke-width:1.0;"/></g><!--reverse link overarch_dataModel_conceptModelElement to overarch_dataModel_conceptModelRelation--><g id="link_overarch_dataModel_conceptModelElement_overarch_dataModel_conceptModelRelation"><path codeLine="42" d="M814.09,491.9169 C850.53,512.8769 896.73,539.4469 929.25,558.1469 " fill="none" id="overarch_dataModel_conceptModelElement-backto-overarch_dataModel_conceptModelRelation" style="stroke:#181818;stroke-width:1.0;"/><polygon fill="none" points="810.41,497.8769,796.56,481.8369,817.39,485.7369,810.41,497.8769" style="stroke:#181818;stroke-width:1.0;"/></g><!--reverse link overarch_dataModel_relationalElement to overarch_dataModel_conceptModelRelation--><g id="link_overarch_dataModel_relationalElement_overarch_dataModel_conceptModelRelation"><path codeLine="43" d="M969.5,518.7169 C969.5,532.7469 969.5,546.8669 969.5,558.1369 " fill="none" id="overarch_dataModel_relationalElement-backto-overarch_dataModel_conceptModelRelation" style="stroke:#181818;stroke-width:1.0;"/><polygon fill="none" points="962.5,518.5669,969.5,498.5669,976.5,518.5669,962.5,518.5669" style="stroke:#181818;stroke-width:1.0;"/></g><!--reverse link overarch_dataModel_conceptModelNode to overarch_dataModel_concept--><g id="link_overarch_dataModel_conceptModelNode_overarch_dataModel_concept"><path codeLine="44" d="M414.29,600.6369 C331.05,615.0069 214,637.6669 113.5,666.2969 C107.87,667.8969 102.02,669.7769 96.27,671.7569 " fill="none" id="overarch_dataModel_conceptModelNode-backto-overarch_dataModel_concept" style="stroke:#181818;stroke-width:1.0;"/><polygon fill="none" points="413.28,593.7169,434.17,597.2569,415.63,607.5169,413.28,593.7169" style="stroke:#181818;stroke-width:1.0;"/></g><!--reverse link overarch_dataModel_conceptModelNode to overarch_dataModel_enterpriseBoundary--><g id="link_overarch_dataModel_conceptModelNode_overarch_dataModel_enterpriseBoundary"><path codeLine="45" d="M523.5,626.3169 C523.5,639.8769 523.5,654.3369 523.5,665.9769 " fill="none" id="overarch_dataModel_conceptModelNode-backto-overarch_dataModel_enterpriseBoundary" style="stroke:#181818;stroke-width:1.0;"/><polygon fill="none" points="516.5,626.2969,523.5,606.2969,530.5,626.2969,516.5,626.2969" style="stroke:#181818;stroke-width:1.0;"/></g><!--reverse link overarch_dataModel_conceptModelNode to overarch_dataModel_contextBoundary--><g id="link_overarch_dataModel_conceptModelNode_overarch_dataModel_contextBoundary"><path codeLine="46" d="M462.62,615.7269 C432.03,632.0269 395.67,651.3869 367.94,666.1569 " fill="none" id="overarch_dataModel_conceptModelNode-backto-overarch_dataModel_contextBoundary" style="stroke:#181818;stroke-width:1.0;"/><polygon fill="none" points="459.38,609.5169,480.32,606.2969,465.96,621.8769,459.38,609.5169" style="stroke:#181818;stroke-width:1.0;"/></g><!--reverse link overarch_dataModel_conceptModelNode to overarch_dataModel_person--><g id="link_overarch_dataModel_conceptModelNode_overarch_dataModel_person"><path codeLine="47" d="M414.78,611.1369 C358.97,626.1469 290.15,645.7669 229.5,666.2969 C223.86,668.2069 217.96,670.3569 212.18,672.5569 " fill="none" id="overarch_dataModel_conceptModelNode-backto-overarch_dataModel_person" style="stroke:#181818;stroke-width:1.0;"/><polygon fill="none" points="413.2,604.3169,434.33,605.9269,416.81,617.8469,413.2,604.3169" style="stroke:#181818;stroke-width:1.0;"/></g><!--reverse link overarch_dataModel_conceptModelNode to overarch_dataModel_system--><g id="link_overarch_dataModel_conceptModelNode_overarch_dataModel_system"><path codeLine="48" d="M575.85,617.3469 C600.38,633.2869 628.95,651.8769 650.92,666.1569 " fill="none" id="overarch_dataModel_conceptModelNode-backto-overarch_dataModel_system" style="stroke:#181818;stroke-width:1.0;"/><polygon fill="none" points="571.82,623.0669,558.87,606.2969,579.45,611.3369,571.82,623.0669" style="stroke:#181818;stroke-width:1.0;"/></g><!--reverse link overarch_dataModel_conceptModelNode to overarch_dataModel_container--><g id="link_overarch_dataModel_conceptModelNode_overarch_dataModel_container"><path codeLine="49" d="M604.82,613.2269 C655.78,631.9869 719.77,655.5369 762.94,671.4269 " fill="none" id="overarch_dataModel_conceptModelNode-backto-overarch_dataModel_container" style="stroke:#181818;stroke-width:1.0;"/><polygon fill="none" points="602.34,619.7769,585.99,606.2969,607.18,606.6369,602.34,619.7769" style="stroke:#181818;stroke-width:1.0;"/></g><!--reverse link overarch_dataModel_conceptModelRelation to overarch_dataModel_isA--><g id="link_overarch_dataModel_conceptModelRelation_overarch_dataModel_isA"><path codeLine="50" d="M951.46,624.8669 C945.4,638.8369 938.85,653.9169 933.62,665.9769 " fill="none" id="overarch_dataModel_conceptModelRelation-backto-overarch_dataModel_isA" style="stroke:#181818;stroke-width:1.0;"/><polygon fill="none" points="945.14,621.8569,959.52,606.2969,957.98,627.4269,945.14,621.8569" style="stroke:#181818;stroke-width:1.0;"/></g><!--reverse link overarch_dataModel_conceptModelRelation to overarch_dataModel_has--><g id="link_overarch_dataModel_conceptModelRelation_overarch_dataModel_has"><path codeLine="51" d="M987.54,624.8669 C993.6,638.8369 1000.15,653.9169 1005.38,665.9769 " fill="none" id="overarch_dataModel_conceptModelRelation-backto-overarch_dataModel_has" style="stroke:#181818;stroke-width:1.0;"/><polygon fill="none" points="981.02,627.4269,979.48,606.2969,993.86,621.8569,981.02,627.4269" style="stroke:#181818;stroke-width:1.0;"/></g><!--reverse link overarch_dataModel_conceptModelRelation to overarch_dataModel_rel--><g id="link_overarch_dataModel_conceptModelRelation_overarch_dataModel_rel"><path codeLine="52" d="M1014.55,618.9369 C1036.08,635.9569 1060.99,655.6769 1078.97,669.8969 " fill="none" id="overarch_dataModel_conceptModelRelation-backto-overarch_dataModel_rel" style="stroke:#181818;stroke-width:1.0;"/><polygon fill="none" points="1009.92,624.1969,998.58,606.2969,1018.6,613.2169,1009.92,624.1969" style="stroke:#181818;stroke-width:1.0;"/></g><!--SRC=[hPKzRyCW48PtVWNAxgXTgovfbR4PkbPLT36N1XL31FGZQllVYp_Iu3e64h8WuNllkJkCNrjk1T9x9KlSMlgW60ew5rYXj8R0obWDfQMb06Fe1Dl0X8AXwXqrw7ApP62XoLjsOVf5A7MO6_gAkm-b6VaPa3XpGhxci19OHB2-TkwLu2nOGaA5BCPkH3wqVk2m3iNbYzipDENVdZvTJQVNpx5vaYhx6OjU5qEwHW6MAmaYHZqe_Q7MMbNUML5gLV3eolOw55NDZ9NinCqcC4EVATsQ0bou9KxRJvr2VEoqDRKFYsHx2LlKPhnQ6-tpBNxQOgNU90Ez2nIgTNUTp2EuCqMzrTnW57AG7k6OdR5OZQMsqN-D0vUeGnqt0Y-9cm96BxsPUSeDc36X2tb2ztu35xuM1jpezhie4ctb78pl82JHlL9QMaIuFUUw1F2KHWSsGqvnk37g4ISXYOQJWgozv9AylPEG91_E9GvSCGBCOWnD9BSbtzYoMAsxPY5QdykUg34-algx6Vr4pIoRuTmoc-5kx2y0]--></g></svg>