<?xml version="1.0" encoding="us-ascii" standalone="no"?><svg xmlns="http://www.w3.org/2000/svg" xmlns:xlink="http://www.w3.org/1999/xlink" contentStyleType="text/css" height="690px" preserveAspectRatio="none" style="width:1081px;height:690px;background:#FFFFFF;" version="1.1" viewBox="0 0 1081 690" width="1081px" zoomAndPan="magnify"><defs/><g><text fill="#000000" font-family="sans-serif" font-size="14" font-weight="bold" lengthAdjust="spacing" textLength="176" x="445.75" y="24.5332">Concept Model Elements</text><!--class overarch_dataModel_enterpriseBoundary--><g id="elem_overarch_dataModel_enterpriseBoundary"><rect codeLine="9" fill="#F1F1F1" height="48" id="overarch_dataModel_enterpriseBoundary" rx="2.5" ry="2.5" style="stroke:#181818;stroke-width:0.5;" width="161" x="184.5" y="635.6094"/><ellipse cx="199.5" cy="651.6094" fill="#ADD1B2" rx="11" ry="11" style="stroke:#181818;stroke-width:1.0;"/><path d="M202.2656,647.4844 Q202.4219,647.2656 202.6094,647.1563 Q202.7969,647.0469 203.0156,647.0469 Q203.3906,647.0469 203.625,647.3125 Q203.8594,647.5625 203.8594,648.1719 L203.8594,649.625 Q203.8594,650.2344 203.625,650.5 Q203.3906,650.7656 203.0156,650.7656 Q202.6719,650.7656 202.4688,650.5625 Q202.2656,650.375 202.1563,649.8594 Q202.1094,649.5 201.9219,649.3125 Q201.5938,648.9375 200.9844,648.7188 Q200.375,648.5 199.75,648.5 Q198.9844,648.5 198.3438,648.8281 Q197.7188,649.1563 197.2188,649.9063 Q196.7344,650.6563 196.7344,651.6875 L196.7344,652.7813 Q196.7344,654.0156 197.625,654.8438 Q198.5156,655.6563 200.1094,655.6563 Q201.0469,655.6563 201.7031,655.4063 Q202.0938,655.25 202.5156,654.8125 Q202.7813,654.5469 202.9219,654.4688 Q203.0781,654.3906 203.2813,654.3906 Q203.6094,654.3906 203.8594,654.6563 Q204.125,654.9063 204.125,655.25 Q204.125,655.5938 203.7813,656 Q203.2813,656.5781 202.4844,656.9063 Q201.4063,657.3594 200.1094,657.3594 Q198.5938,657.3594 197.3906,656.7344 Q196.4063,656.2344 195.7188,655.1719 Q195.0313,654.0938 195.0313,652.8125 L195.0313,651.6563 Q195.0313,650.3281 195.6406,649.1875 Q196.2656,648.0313 197.3594,647.4219 Q198.4531,646.7969 199.6875,646.7969 Q200.4219,646.7969 201.0625,646.9688 Q201.7188,647.125 202.2656,647.4844 Z " fill="#000000"/><text fill="#000000" font-family="sans-serif" font-size="14" lengthAdjust="spacing" textLength="129" x="213.5" y="657.3379">enterprise-boundary</text><line style="stroke:#181818;stroke-width:0.5;" x1="185.5" x2="344.5" y1="667.6094" y2="667.6094"/><line style="stroke:#181818;stroke-width:0.5;" x1="185.5" x2="344.5" y1="675.6094" y2="675.6094"/></g><!--class overarch_dataModel_system--><g id="elem_overarch_dataModel_system"><rect codeLine="10" fill="#F1F1F1" height="48" id="overarch_dataModel_system" rx="2.5" ry="2.5" style="stroke:#181818;stroke-width:0.5;" width="76" x="507" y="635.6094"/><ellipse cx="522" cy="651.6094" fill="#ADD1B2" rx="11" ry="11" style="stroke:#181818;stroke-width:1.0;"/><path d="M524.7656,647.4844 Q524.9219,647.2656 525.1094,647.1563 Q525.2969,647.0469 525.5156,647.0469 Q525.8906,647.0469 526.125,647.3125 Q526.3594,647.5625 526.3594,648.1719 L526.3594,649.625 Q526.3594,650.2344 526.125,650.5 Q525.8906,650.7656 525.5156,650.7656 Q525.1719,650.7656 524.9688,650.5625 Q524.7656,650.375 524.6563,649.8594 Q524.6094,649.5 524.4219,649.3125 Q524.0938,648.9375 523.4844,648.7188 Q522.875,648.5 522.25,648.5 Q521.4844,648.5 520.8438,648.8281 Q520.2188,649.1563 519.7188,649.9063 Q519.2344,650.6563 519.2344,651.6875 L519.2344,652.7813 Q519.2344,654.0156 520.125,654.8438 Q521.0156,655.6563 522.6094,655.6563 Q523.5469,655.6563 524.2031,655.4063 Q524.5938,655.25 525.0156,654.8125 Q525.2813,654.5469 525.4219,654.4688 Q525.5781,654.3906 525.7813,654.3906 Q526.1094,654.3906 526.3594,654.6563 Q526.625,654.9063 526.625,655.25 Q526.625,655.5938 526.2813,656 Q525.7813,656.5781 524.9844,656.9063 Q523.9063,657.3594 522.6094,657.3594 Q521.0938,657.3594 519.8906,656.7344 Q518.9063,656.2344 518.2188,655.1719 Q517.5313,654.0938 517.5313,652.8125 L517.5313,651.6563 Q517.5313,650.3281 518.1406,649.1875 Q518.7656,648.0313 519.8594,647.4219 Q520.9531,646.7969 522.1875,646.7969 Q522.9219,646.7969 523.5625,646.9688 Q524.2188,647.125 524.7656,647.4844 Z " fill="#000000"/><text fill="#000000" font-family="sans-serif" font-size="14" lengthAdjust="spacing" textLength="44" x="536" y="657.3379">system</text><line style="stroke:#181818;stroke-width:0.5;" x1="508" x2="582" y1="667.6094" y2="667.6094"/><line style="stroke:#181818;stroke-width:0.5;" x1="508" x2="582" y1="675.6094" y2="675.6094"/></g><!--class overarch_dataModel_conceptModelElement--><g id="elem_overarch_dataModel_conceptModelElement"><rect codeLine="11" fill="#F1F1F1" height="48" id="overarch_dataModel_conceptModelElement" rx="2.5" ry="2.5" style="stroke:#181818;stroke-width:0.5;" width="180" x="634" y="402.1094"/><ellipse cx="649" cy="418.1094" fill="#A9DCDF" rx="11" ry="11" style="stroke:#181818;stroke-width:1.0;"/><path d="M651.1875,419.875 L647.0469,419.875 L646.625,420.9063 L647.0469,420.9063 Q647.6563,420.9063 647.9219,421.1406 Q648.1875,421.375 648.1875,421.7656 Q648.1875,422.1406 647.9219,422.375 Q647.6563,422.6094 647.0469,422.6094 L644.75,422.6094 Q644.1406,422.6094 643.8906,422.375 Q643.625,422.1406 643.625,421.75 Q643.625,421.375 643.9063,421.1406 Q644.1719,420.8906 644.7969,420.9063 L647.4688,414.25 L646.3594,414.25 Q645.75,414.25 645.4844,414.0156 Q645.2188,413.7813 645.2188,413.3906 Q645.2188,413.0156 645.4844,412.7813 Q645.75,412.5469 646.3594,412.5469 L650.0313,412.5469 L653.4219,420.9063 Q654.0156,420.9063 654.2031,421.0469 Q654.5938,421.3125 654.5938,421.7656 Q654.5938,422.1406 654.3281,422.375 Q654.0781,422.6094 653.4688,422.6094 L651.1719,422.6094 Q650.5625,422.6094 650.2969,422.375 Q650.0313,422.1406 650.0313,421.75 Q650.0313,421.375 650.2969,421.1406 Q650.5625,420.9063 651.1719,420.9063 L651.5938,420.9063 L651.1875,419.875 Z M650.4688,418.1719 L649.1094,414.7969 L647.7344,418.1719 L650.4688,418.1719 Z " fill="#000000"/><text fill="#000000" font-family="sans-serif" font-size="14" font-style="italic" lengthAdjust="spacing" textLength="148" x="663" y="423.8379">concept-model-element</text><line style="stroke:#181818;stroke-width:0.5;" x1="635" x2="813" y1="434.1094" y2="434.1094"/><line style="stroke:#181818;stroke-width:0.5;" x1="635" x2="813" y1="442.1094" y2="442.1094"/></g><!--class overarch_dataModel_element--><g id="elem_overarch_dataModel_element"><rect codeLine="12" fill="#F1F1F1" height="136.0469" id="overarch_dataModel_element" rx="2.5" ry="2.5" style="stroke:#181818;stroke-width:0.5;" width="125" x="661.5" y="45.6094"/><ellipse cx="695.85" cy="61.6094" fill="#A9DCDF" rx="11" ry="11" style="stroke:#181818;stroke-width:1.0;"/><path d="M698.0375,63.375 L693.8969,63.375 L693.475,64.4063 L693.8969,64.4063 Q694.5063,64.4063 694.7719,64.6406 Q695.0375,64.875 695.0375,65.2656 Q695.0375,65.6406 694.7719,65.875 Q694.5063,66.1094 693.8969,66.1094 L691.6,66.1094 Q690.9906,66.1094 690.7406,65.875 Q690.475,65.6406 690.475,65.25 Q690.475,64.875 690.7563,64.6406 Q691.0219,64.3906 691.6469,64.4063 L694.3188,57.75 L693.2094,57.75 Q692.6,57.75 692.3344,57.5156 Q692.0688,57.2813 692.0688,56.8906 Q692.0688,56.5156 692.3344,56.2813 Q692.6,56.0469 693.2094,56.0469 L696.8813,56.0469 L700.2719,64.4063 Q700.8656,64.4063 701.0531,64.5469 Q701.4438,64.8125 701.4438,65.2656 Q701.4438,65.6406 701.1781,65.875 Q700.9281,66.1094 700.3188,66.1094 L698.0219,66.1094 Q697.4125,66.1094 697.1469,65.875 Q696.8813,65.6406 696.8813,65.25 Q696.8813,64.875 697.1469,64.6406 Q697.4125,64.4063 698.0219,64.4063 L698.4438,64.4063 L698.0375,63.375 Z M697.3188,61.6719 L695.9594,58.2969 L694.5844,61.6719 L697.3188,61.6719 Z " fill="#000000"/><text fill="#000000" font-family="sans-serif" font-size="14" font-style="italic" lengthAdjust="spacing" textLength="50" x="714.15" y="67.3379">element</text><line style="stroke:#181818;stroke-width:0.5;" x1="662.5" x2="785.5" y1="77.6094" y2="77.6094"/><text fill="#000000" font-family="sans-serif" font-size="14" lengthAdjust="spacing" textLength="113" x="667.5" y="96.1426">desc : string [0..1]</text><text fill="#000000" font-family="sans-serif" font-size="14" lengthAdjust="spacing" textLength="106" x="667.5" y="113.752">doc : string [0..1]</text><text fill="#000000" font-family="sans-serif" font-size="14" lengthAdjust="spacing" textLength="75" x="667.5" y="131.3613">el : keyword</text><text fill="#000000" font-family="sans-serif" font-size="14" lengthAdjust="spacing" textLength="75" x="667.5" y="148.9707">id : keyword</text><text fill="#000000" font-family="sans-serif" font-size="14" lengthAdjust="spacing" textLength="82" x="667.5" y="166.5801">name : string</text><line style="stroke:#181818;stroke-width:0.5;" x1="662.5" x2="785.5" y1="173.6563" y2="173.6563"/></g><!--class overarch_dataModel_rel--><g id="elem_overarch_dataModel_rel"><rect codeLine="19" fill="#F1F1F1" height="48" id="overarch_dataModel_rel" rx="2.5" ry="2.5" style="stroke:#181818;stroke-width:0.5;" width="48" x="846" y="635.6094"/><ellipse cx="861" cy="651.6094" fill="#ADD1B2" rx="11" ry="11" style="stroke:#181818;stroke-width:1.0;"/><path d="M863.7656,647.4844 Q863.9219,647.2656 864.1094,647.1563 Q864.2969,647.0469 864.5156,647.0469 Q864.8906,647.0469 865.125,647.3125 Q865.3594,647.5625 865.3594,648.1719 L865.3594,649.625 Q865.3594,650.2344 865.125,650.5 Q864.8906,650.7656 864.5156,650.7656 Q864.1719,650.7656 863.9688,650.5625 Q863.7656,650.375 863.6563,649.8594 Q863.6094,649.5 863.4219,649.3125 Q863.0938,648.9375 862.4844,648.7188 Q861.875,648.5 861.25,648.5 Q860.4844,648.5 859.8438,648.8281 Q859.2188,649.1563 858.7188,649.9063 Q858.2344,650.6563 858.2344,651.6875 L858.2344,652.7813 Q858.2344,654.0156 859.125,654.8438 Q860.0156,655.6563 861.6094,655.6563 Q862.5469,655.6563 863.2031,655.4063 Q863.5938,655.25 864.0156,654.8125 Q864.2813,654.5469 864.4219,654.4688 Q864.5781,654.3906 864.7813,654.3906 Q865.1094,654.3906 865.3594,654.6563 Q865.625,654.9063 865.625,655.25 Q865.625,655.5938 865.2813,656 Q864.7813,656.5781 863.9844,656.9063 Q862.9063,657.3594 861.6094,657.3594 Q860.0938,657.3594 858.8906,656.7344 Q857.9063,656.2344 857.2188,655.1719 Q856.5313,654.0938 856.5313,652.8125 L856.5313,651.6563 Q856.5313,650.3281 857.1406,649.1875 Q857.7656,648.0313 858.8594,647.4219 Q859.9531,646.7969 861.1875,646.7969 Q861.9219,646.7969 862.5625,646.9688 Q863.2188,647.125 863.7656,647.4844 Z " fill="#000000"/><text fill="#000000" font-family="sans-serif" font-size="14" lengthAdjust="spacing" textLength="16" x="875" y="657.3379">rel</text><line style="stroke:#181818;stroke-width:0.5;" x1="847" x2="893" y1="667.6094" y2="667.6094"/><line style="stroke:#181818;stroke-width:0.5;" x1="847" x2="893" y1="675.6094" y2="675.6094"/></g><!--class overarch_dataModel_contextBoundary--><g id="elem_overarch_dataModel_contextBoundary"><rect codeLine="20" fill="#F1F1F1" height="48" id="overarch_dataModel_contextBoundary" rx="2.5" ry="2.5" style="stroke:#181818;stroke-width:0.5;" width="142" x="7" y="635.6094"/><ellipse cx="22" cy="651.6094" fill="#ADD1B2" rx="11" ry="11" style="stroke:#181818;stroke-width:1.0;"/><path d="M24.7656,647.4844 Q24.9219,647.2656 25.1094,647.1563 Q25.2969,647.0469 25.5156,647.0469 Q25.8906,647.0469 26.125,647.3125 Q26.3594,647.5625 26.3594,648.1719 L26.3594,649.625 Q26.3594,650.2344 26.125,650.5 Q25.8906,650.7656 25.5156,650.7656 Q25.1719,650.7656 24.9688,650.5625 Q24.7656,650.375 24.6563,649.8594 Q24.6094,649.5 24.4219,649.3125 Q24.0938,648.9375 23.4844,648.7188 Q22.875,648.5 22.25,648.5 Q21.4844,648.5 20.8438,648.8281 Q20.2188,649.1563 19.7188,649.9063 Q19.2344,650.6563 19.2344,651.6875 L19.2344,652.7813 Q19.2344,654.0156 20.125,654.8438 Q21.0156,655.6563 22.6094,655.6563 Q23.5469,655.6563 24.2031,655.4063 Q24.5938,655.25 25.0156,654.8125 Q25.2813,654.5469 25.4219,654.4688 Q25.5781,654.3906 25.7813,654.3906 Q26.1094,654.3906 26.3594,654.6563 Q26.625,654.9063 26.625,655.25 Q26.625,655.5938 26.2813,656 Q25.7813,656.5781 24.9844,656.9063 Q23.9063,657.3594 22.6094,657.3594 Q21.0938,657.3594 19.8906,656.7344 Q18.9063,656.2344 18.2188,655.1719 Q17.5313,654.0938 17.5313,652.8125 L17.5313,651.6563 Q17.5313,650.3281 18.1406,649.1875 Q18.7656,648.0313 19.8594,647.4219 Q20.9531,646.7969 22.1875,646.7969 Q22.9219,646.7969 23.5625,646.9688 Q24.2188,647.125 24.7656,647.4844 Z " fill="#000000"/><text fill="#000000" font-family="sans-serif" font-size="14" lengthAdjust="spacing" textLength="110" x="36" y="657.3379">context-boundary</text><line style="stroke:#181818;stroke-width:0.5;" x1="8" x2="148" y1="667.6094" y2="667.6094"/><line style="stroke:#181818;stroke-width:0.5;" x1="8" x2="148" y1="675.6094" y2="675.6094"/></g><!--class overarch_dataModel_concept--><g id="elem_overarch_dataModel_concept"><rect codeLine="21" fill="#F1F1F1" height="48" id="overarch_dataModel_concept" rx="2.5" ry="2.5" style="stroke:#181818;stroke-width:0.5;" width="82" x="618" y="635.6094"/><ellipse cx="633" cy="651.6094" fill="#ADD1B2" rx="11" ry="11" style="stroke:#181818;stroke-width:1.0;"/><path d="M635.7656,647.4844 Q635.9219,647.2656 636.1094,647.1563 Q636.2969,647.0469 636.5156,647.0469 Q636.8906,647.0469 637.125,647.3125 Q637.3594,647.5625 637.3594,648.1719 L637.3594,649.625 Q637.3594,650.2344 637.125,650.5 Q636.8906,650.7656 636.5156,650.7656 Q636.1719,650.7656 635.9688,650.5625 Q635.7656,650.375 635.6563,649.8594 Q635.6094,649.5 635.4219,649.3125 Q635.0938,648.9375 634.4844,648.7188 Q633.875,648.5 633.25,648.5 Q632.4844,648.5 631.8438,648.8281 Q631.2188,649.1563 630.7188,649.9063 Q630.2344,650.6563 630.2344,651.6875 L630.2344,652.7813 Q630.2344,654.0156 631.125,654.8438 Q632.0156,655.6563 633.6094,655.6563 Q634.5469,655.6563 635.2031,655.4063 Q635.5938,655.25 636.0156,654.8125 Q636.2813,654.5469 636.4219,654.4688 Q636.5781,654.3906 636.7813,654.3906 Q637.1094,654.3906 637.3594,654.6563 Q637.625,654.9063 637.625,655.25 Q637.625,655.5938 637.2813,656 Q636.7813,656.5781 635.9844,656.9063 Q634.9063,657.3594 633.6094,657.3594 Q632.0938,657.3594 630.8906,656.7344 Q629.9063,656.2344 629.2188,655.1719 Q628.5313,654.0938 628.5313,652.8125 L628.5313,651.6563 Q628.5313,650.3281 629.1406,649.1875 Q629.7656,648.0313 630.8594,647.4219 Q631.9531,646.7969 633.1875,646.7969 Q633.9219,646.7969 634.5625,646.9688 Q635.2188,647.125 635.7656,647.4844 Z " fill="#000000"/><text fill="#000000" font-family="sans-serif" font-size="14" lengthAdjust="spacing" textLength="50" x="647" y="657.3379">concept</text><line style="stroke:#181818;stroke-width:0.5;" x1="619" x2="699" y1="667.6094" y2="667.6094"/><line style="stroke:#181818;stroke-width:0.5;" x1="619" x2="699" y1="675.6094" y2="675.6094"/></g><!--class overarch_dataModel_has--><g id="elem_overarch_dataModel_has"><rect codeLine="22" fill="#F1F1F1" height="48" id="overarch_dataModel_has" rx="2.5" ry="2.5" style="stroke:#181818;stroke-width:0.5;" width="55" x="929.5" y="635.6094"/><ellipse cx="944.5" cy="651.6094" fill="#ADD1B2" rx="11" ry="11" style="stroke:#181818;stroke-width:1.0;"/><path d="M947.2656,647.4844 Q947.4219,647.2656 947.6094,647.1563 Q947.7969,647.0469 948.0156,647.0469 Q948.3906,647.0469 948.625,647.3125 Q948.8594,647.5625 948.8594,648.1719 L948.8594,649.625 Q948.8594,650.2344 948.625,650.5 Q948.3906,650.7656 948.0156,650.7656 Q947.6719,650.7656 947.4688,650.5625 Q947.2656,650.375 947.1563,649.8594 Q947.1094,649.5 946.9219,649.3125 Q946.5938,648.9375 945.9844,648.7188 Q945.375,648.5 944.75,648.5 Q943.9844,648.5 943.3438,648.8281 Q942.7188,649.1563 942.2188,649.9063 Q941.7344,650.6563 941.7344,651.6875 L941.7344,652.7813 Q941.7344,654.0156 942.625,654.8438 Q943.5156,655.6563 945.1094,655.6563 Q946.0469,655.6563 946.7031,655.4063 Q947.0938,655.25 947.5156,654.8125 Q947.7813,654.5469 947.9219,654.4688 Q948.0781,654.3906 948.2813,654.3906 Q948.6094,654.3906 948.8594,654.6563 Q949.125,654.9063 949.125,655.25 Q949.125,655.5938 948.7813,656 Q948.2813,656.5781 947.4844,656.9063 Q946.4063,657.3594 945.1094,657.3594 Q943.5938,657.3594 942.3906,656.7344 Q941.4063,656.2344 940.7188,655.1719 Q940.0313,654.0938 940.0313,652.8125 L940.0313,651.6563 Q940.0313,650.3281 940.6406,649.1875 Q941.2656,648.0313 942.3594,647.4219 Q943.4531,646.7969 944.6875,646.7969 Q945.4219,646.7969 946.0625,646.9688 Q946.7188,647.125 947.2656,647.4844 Z " fill="#000000"/><text fill="#000000" font-family="sans-serif" font-size="14" lengthAdjust="spacing" textLength="23" x="958.5" y="657.3379">has</text><line style="stroke:#181818;stroke-width:0.5;" x1="930.5" x2="983.5" y1="667.6094" y2="667.6094"/><line style="stroke:#181818;stroke-width:0.5;" x1="930.5" x2="983.5" y1="675.6094" y2="675.6094"/></g><!--class overarch_dataModel_conceptModelNode--><g id="elem_overarch_dataModel_conceptModelNode"><rect codeLine="23" fill="#F1F1F1" height="48" id="overarch_dataModel_conceptModelNode" rx="2.5" ry="2.5" style="stroke:#181818;stroke-width:0.5;" width="162" x="464" y="527.6094"/><ellipse cx="479" cy="543.6094" fill="#A9DCDF" rx="11" ry="11" style="stroke:#181818;stroke-width:1.0;"/><path d="M481.1875,545.375 L477.0469,545.375 L476.625,546.4063 L477.0469,546.4063 Q477.6563,546.4063 477.9219,546.6406 Q478.1875,546.875 478.1875,547.2656 Q478.1875,547.6406 477.9219,547.875 Q477.6563,548.1094 477.0469,548.1094 L474.75,548.1094 Q474.1406,548.1094 473.8906,547.875 Q473.625,547.6406 473.625,547.25 Q473.625,546.875 473.9063,546.6406 Q474.1719,546.3906 474.7969,546.4063 L477.4688,539.75 L476.3594,539.75 Q475.75,539.75 475.4844,539.5156 Q475.2188,539.2813 475.2188,538.8906 Q475.2188,538.5156 475.4844,538.2813 Q475.75,538.0469 476.3594,538.0469 L480.0313,538.0469 L483.4219,546.4063 Q484.0156,546.4063 484.2031,546.5469 Q484.5938,546.8125 484.5938,547.2656 Q484.5938,547.6406 484.3281,547.875 Q484.0781,548.1094 483.4688,548.1094 L481.1719,548.1094 Q480.5625,548.1094 480.2969,547.875 Q480.0313,547.6406 480.0313,547.25 Q480.0313,546.875 480.2969,546.6406 Q480.5625,546.4063 481.1719,546.4063 L481.5938,546.4063 L481.1875,545.375 Z M480.4688,543.6719 L479.1094,540.2969 L477.7344,543.6719 L480.4688,543.6719 Z " fill="#000000"/><text fill="#000000" font-family="sans-serif" font-size="14" font-style="italic" lengthAdjust="spacing" textLength="130" x="493" y="549.3379">concept-model-node</text><line style="stroke:#181818;stroke-width:0.5;" x1="465" x2="625" y1="559.6094" y2="559.6094"/><line style="stroke:#181818;stroke-width:0.5;" x1="465" x2="625" y1="567.6094" y2="567.6094"/></g><!--class overarch_dataModel_modelNode--><g id="elem_overarch_dataModel_modelNode"><rect codeLine="24" fill="#F1F1F1" height="48" id="overarch_dataModel_modelNode" rx="2.5" ry="2.5" style="stroke:#181818;stroke-width:0.5;" width="107" x="491.5" y="402.1094"/><ellipse cx="506.5" cy="418.1094" fill="#A9DCDF" rx="11" ry="11" style="stroke:#181818;stroke-width:1.0;"/><path d="M508.6875,419.875 L504.5469,419.875 L504.125,420.9063 L504.5469,420.9063 Q505.1563,420.9063 505.4219,421.1406 Q505.6875,421.375 505.6875,421.7656 Q505.6875,422.1406 505.4219,422.375 Q505.1563,422.6094 504.5469,422.6094 L502.25,422.6094 Q501.6406,422.6094 501.3906,422.375 Q501.125,422.1406 501.125,421.75 Q501.125,421.375 501.4063,421.1406 Q501.6719,420.8906 502.2969,420.9063 L504.9688,414.25 L503.8594,414.25 Q503.25,414.25 502.9844,414.0156 Q502.7188,413.7813 502.7188,413.3906 Q502.7188,413.0156 502.9844,412.7813 Q503.25,412.5469 503.8594,412.5469 L507.5313,412.5469 L510.9219,420.9063 Q511.5156,420.9063 511.7031,421.0469 Q512.0938,421.3125 512.0938,421.7656 Q512.0938,422.1406 511.8281,422.375 Q511.5781,422.6094 510.9688,422.6094 L508.6719,422.6094 Q508.0625,422.6094 507.7969,422.375 Q507.5313,422.1406 507.5313,421.75 Q507.5313,421.375 507.7969,421.1406 Q508.0625,420.9063 508.6719,420.9063 L509.0938,420.9063 L508.6875,419.875 Z M507.9688,418.1719 L506.6094,414.7969 L505.2344,418.1719 L507.9688,418.1719 Z " fill="#000000"/><text fill="#000000" font-family="sans-serif" font-size="14" font-style="italic" lengthAdjust="spacing" textLength="75" x="520.5" y="423.8379">model-node</text><line style="stroke:#181818;stroke-width:0.5;" x1="492.5" x2="597.5" y1="434.1094" y2="434.1094"/><line style="stroke:#181818;stroke-width:0.5;" x1="492.5" x2="597.5" y1="442.1094" y2="442.1094"/></g><!--class overarch_dataModel_modelRelation--><g id="elem_overarch_dataModel_modelRelation"><rect codeLine="25" fill="#F1F1F1" height="83.2188" id="overarch_dataModel_modelRelation" rx="2.5" ry="2.5" style="stroke:#181818;stroke-width:0.5;" width="122" x="849" y="384.6094"/><ellipse cx="864" cy="400.6094" fill="#A9DCDF" rx="11" ry="11" style="stroke:#181818;stroke-width:1.0;"/><path d="M866.1875,402.375 L862.0469,402.375 L861.625,403.4063 L862.0469,403.4063 Q862.6563,403.4063 862.9219,403.6406 Q863.1875,403.875 863.1875,404.2656 Q863.1875,404.6406 862.9219,404.875 Q862.6563,405.1094 862.0469,405.1094 L859.75,405.1094 Q859.1406,405.1094 858.8906,404.875 Q858.625,404.6406 858.625,404.25 Q858.625,403.875 858.9063,403.6406 Q859.1719,403.3906 859.7969,403.4063 L862.4688,396.75 L861.3594,396.75 Q860.75,396.75 860.4844,396.5156 Q860.2188,396.2813 860.2188,395.8906 Q860.2188,395.5156 860.4844,395.2813 Q860.75,395.0469 861.3594,395.0469 L865.0313,395.0469 L868.4219,403.4063 Q869.0156,403.4063 869.2031,403.5469 Q869.5938,403.8125 869.5938,404.2656 Q869.5938,404.6406 869.3281,404.875 Q869.0781,405.1094 868.4688,405.1094 L866.1719,405.1094 Q865.5625,405.1094 865.2969,404.875 Q865.0313,404.6406 865.0313,404.25 Q865.0313,403.875 865.2969,403.6406 Q865.5625,403.4063 866.1719,403.4063 L866.5938,403.4063 L866.1875,402.375 Z M865.4688,400.6719 L864.1094,397.2969 L862.7344,400.6719 L865.4688,400.6719 Z " fill="#000000"/><text fill="#000000" font-family="sans-serif" font-size="14" font-style="italic" lengthAdjust="spacing" textLength="90" x="878" y="406.3379">model-relation</text><line style="stroke:#181818;stroke-width:0.5;" x1="850" x2="970" y1="416.6094" y2="416.6094"/><text fill="#000000" font-family="sans-serif" font-size="14" lengthAdjust="spacing" textLength="92" x="855" y="435.1426">from : keyword</text><text fill="#000000" font-family="sans-serif" font-size="14" lengthAdjust="spacing" textLength="76" x="855" y="452.752">to : keyword</text><line style="stroke:#181818;stroke-width:0.5;" x1="850" x2="970" y1="459.8281" y2="459.8281"/></g><!--class overarch_dataModel_boundaryNode--><g id="elem_overarch_dataModel_boundaryNode"><rect codeLine="29" fill="#F1F1F1" height="48" id="overarch_dataModel_boundaryNode" rx="2.5" ry="2.5" style="stroke:#181818;stroke-width:0.5;" width="129" x="107.5" y="527.6094"/><ellipse cx="122.5" cy="543.6094" fill="#A9DCDF" rx="11" ry="11" style="stroke:#181818;stroke-width:1.0;"/><path d="M124.6875,545.375 L120.5469,545.375 L120.125,546.4063 L120.5469,546.4063 Q121.1563,546.4063 121.4219,546.6406 Q121.6875,546.875 121.6875,547.2656 Q121.6875,547.6406 121.4219,547.875 Q121.1563,548.1094 120.5469,548.1094 L118.25,548.1094 Q117.6406,548.1094 117.3906,547.875 Q117.125,547.6406 117.125,547.25 Q117.125,546.875 117.4063,546.6406 Q117.6719,546.3906 118.2969,546.4063 L120.9688,539.75 L119.8594,539.75 Q119.25,539.75 118.9844,539.5156 Q118.7188,539.2813 118.7188,538.8906 Q118.7188,538.5156 118.9844,538.2813 Q119.25,538.0469 119.8594,538.0469 L123.5313,538.0469 L126.9219,546.4063 Q127.5156,546.4063 127.7031,546.5469 Q128.0938,546.8125 128.0938,547.2656 Q128.0938,547.6406 127.8281,547.875 Q127.5781,548.1094 126.9688,548.1094 L124.6719,548.1094 Q124.0625,548.1094 123.7969,547.875 Q123.5313,547.6406 123.5313,547.25 Q123.5313,546.875 123.7969,546.6406 Q124.0625,546.4063 124.6719,546.4063 L125.0938,546.4063 L124.6875,545.375 Z M123.9688,543.6719 L122.6094,540.2969 L121.2344,543.6719 L123.9688,543.6719 Z " fill="#000000"/><text fill="#000000" font-family="sans-serif" font-size="14" font-style="italic" lengthAdjust="spacing" textLength="97" x="136.5" y="549.3379">boundary-node</text><line style="stroke:#181818;stroke-width:0.5;" x1="108.5" x2="235.5" y1="559.6094" y2="559.6094"/><line style="stroke:#181818;stroke-width:0.5;" x1="108.5" x2="235.5" y1="567.6094" y2="567.6094"/></g><!--class overarch_dataModel_modelElement--><g id="elem_overarch_dataModel_modelElement"><rect codeLine="30" fill="#F1F1F1" height="83.2188" id="overarch_dataModel_modelElement" rx="2.5" ry="2.5" style="stroke:#181818;stroke-width:0.5;" width="162" x="643" y="241.6094"/><ellipse cx="674.65" cy="257.6094" fill="#A9DCDF" rx="11" ry="11" style="stroke:#181818;stroke-width:1.0;"/><path d="M676.8375,259.375 L672.6969,259.375 L672.275,260.4063 L672.6969,260.4063 Q673.3063,260.4063 673.5719,260.6406 Q673.8375,260.875 673.8375,261.2656 Q673.8375,261.6406 673.5719,261.875 Q673.3063,262.1094 672.6969,262.1094 L670.4,262.1094 Q669.7906,262.1094 669.5406,261.875 Q669.275,261.6406 669.275,261.25 Q669.275,260.875 669.5563,260.6406 Q669.8219,260.3906 670.4469,260.4063 L673.1188,253.75 L672.0094,253.75 Q671.4,253.75 671.1344,253.5156 Q670.8688,253.2813 670.8688,252.8906 Q670.8688,252.5156 671.1344,252.2813 Q671.4,252.0469 672.0094,252.0469 L675.6813,252.0469 L679.0719,260.4063 Q679.6656,260.4063 679.8531,260.5469 Q680.2438,260.8125 680.2438,261.2656 Q680.2438,261.6406 679.9781,261.875 Q679.7281,262.1094 679.1188,262.1094 L676.8219,262.1094 Q676.2125,262.1094 675.9469,261.875 Q675.6813,261.6406 675.6813,261.25 Q675.6813,260.875 675.9469,260.6406 Q676.2125,260.4063 676.8219,260.4063 L677.2438,260.4063 L676.8375,259.375 Z M676.1188,257.6719 L674.7594,254.2969 L673.3844,257.6719 L676.1188,257.6719 Z " fill="#000000"/><text fill="#000000" font-family="sans-serif" font-size="14" font-style="italic" lengthAdjust="spacing" textLength="93" x="692.35" y="263.3379">model-element</text><line style="stroke:#181818;stroke-width:0.5;" x1="644" x2="804" y1="273.6094" y2="273.6094"/><text fill="#000000" font-family="sans-serif" font-size="14" lengthAdjust="spacing" textLength="150" x="649" y="292.1426">maturity : keyword [0..1]</text><text fill="#000000" font-family="sans-serif" font-size="14" lengthAdjust="spacing" textLength="94" x="649" y="309.752">tags : set [0..1]</text><line style="stroke:#181818;stroke-width:0.5;" x1="644" x2="804" y1="316.8281" y2="316.8281"/></g><!--class overarch_dataModel_conceptModelRelation--><g id="elem_overarch_dataModel_conceptModelRelation"><rect codeLine="34" fill="#F1F1F1" height="48" id="overarch_dataModel_conceptModelRelation" rx="2.5" ry="2.5" style="stroke:#181818;stroke-width:0.5;" width="177" x="821.5" y="527.6094"/><ellipse cx="836.5" cy="543.6094" fill="#A9DCDF" rx="11" ry="11" style="stroke:#181818;stroke-width:1.0;"/><path d="M838.6875,545.375 L834.5469,545.375 L834.125,546.4063 L834.5469,546.4063 Q835.1563,546.4063 835.4219,546.6406 Q835.6875,546.875 835.6875,547.2656 Q835.6875,547.6406 835.4219,547.875 Q835.1563,548.1094 834.5469,548.1094 L832.25,548.1094 Q831.6406,548.1094 831.3906,547.875 Q831.125,547.6406 831.125,547.25 Q831.125,546.875 831.4063,546.6406 Q831.6719,546.3906 832.2969,546.4063 L834.9688,539.75 L833.8594,539.75 Q833.25,539.75 832.9844,539.5156 Q832.7188,539.2813 832.7188,538.8906 Q832.7188,538.5156 832.9844,538.2813 Q833.25,538.0469 833.8594,538.0469 L837.5313,538.0469 L840.9219,546.4063 Q841.5156,546.4063 841.7031,546.5469 Q842.0938,546.8125 842.0938,547.2656 Q842.0938,547.6406 841.8281,547.875 Q841.5781,548.1094 840.9688,548.1094 L838.6719,548.1094 Q838.0625,548.1094 837.7969,547.875 Q837.5313,547.6406 837.5313,547.25 Q837.5313,546.875 837.7969,546.6406 Q838.0625,546.4063 838.6719,546.4063 L839.0938,546.4063 L838.6875,545.375 Z M837.9688,543.6719 L836.6094,540.2969 L835.2344,543.6719 L837.9688,543.6719 Z " fill="#000000"/><text fill="#000000" font-family="sans-serif" font-size="14" font-style="italic" lengthAdjust="spacing" textLength="145" x="850.5" y="549.3379">concept-model-relation</text><line style="stroke:#181818;stroke-width:0.5;" x1="822.5" x2="997.5" y1="559.6094" y2="559.6094"/><line style="stroke:#181818;stroke-width:0.5;" x1="822.5" x2="997.5" y1="567.6094" y2="567.6094"/></g><!--class overarch_dataModel_person--><g id="elem_overarch_dataModel_person"><rect codeLine="35" fill="#F1F1F1" height="48" id="overarch_dataModel_person" rx="2.5" ry="2.5" style="stroke:#181818;stroke-width:0.5;" width="76" x="735" y="635.6094"/><ellipse cx="750" cy="651.6094" fill="#ADD1B2" rx="11" ry="11" style="stroke:#181818;stroke-width:1.0;"/><path d="M752.7656,647.4844 Q752.9219,647.2656 753.1094,647.1563 Q753.2969,647.0469 753.5156,647.0469 Q753.8906,647.0469 754.125,647.3125 Q754.3594,647.5625 754.3594,648.1719 L754.3594,649.625 Q754.3594,650.2344 754.125,650.5 Q753.8906,650.7656 753.5156,650.7656 Q753.1719,650.7656 752.9688,650.5625 Q752.7656,650.375 752.6563,649.8594 Q752.6094,649.5 752.4219,649.3125 Q752.0938,648.9375 751.4844,648.7188 Q750.875,648.5 750.25,648.5 Q749.4844,648.5 748.8438,648.8281 Q748.2188,649.1563 747.7188,649.9063 Q747.2344,650.6563 747.2344,651.6875 L747.2344,652.7813 Q747.2344,654.0156 748.125,654.8438 Q749.0156,655.6563 750.6094,655.6563 Q751.5469,655.6563 752.2031,655.4063 Q752.5938,655.25 753.0156,654.8125 Q753.2813,654.5469 753.4219,654.4688 Q753.5781,654.3906 753.7813,654.3906 Q754.1094,654.3906 754.3594,654.6563 Q754.625,654.9063 754.625,655.25 Q754.625,655.5938 754.2813,656 Q753.7813,656.5781 752.9844,656.9063 Q751.9063,657.3594 750.6094,657.3594 Q749.0938,657.3594 747.8906,656.7344 Q746.9063,656.2344 746.2188,655.1719 Q745.5313,654.0938 745.5313,652.8125 L745.5313,651.6563 Q745.5313,650.3281 746.1406,649.1875 Q746.7656,648.0313 747.8594,647.4219 Q748.9531,646.7969 750.1875,646.7969 Q750.9219,646.7969 751.5625,646.9688 Q752.2188,647.125 752.7656,647.4844 Z " fill="#000000"/><text fill="#000000" font-family="sans-serif" font-size="14" lengthAdjust="spacing" textLength="44" x="764" y="657.3379">person</text><line style="stroke:#181818;stroke-width:0.5;" x1="736" x2="810" y1="667.6094" y2="667.6094"/><line style="stroke:#181818;stroke-width:0.5;" x1="736" x2="810" y1="675.6094" y2="675.6094"/></g><!--class overarch_dataModel_container--><g id="elem_overarch_dataModel_container"><rect codeLine="36" fill="#F1F1F1" height="48" id="overarch_dataModel_container" rx="2.5" ry="2.5" style="stroke:#181818;stroke-width:0.5;" width="91" x="380.5" y="635.6094"/><ellipse cx="395.5" cy="651.6094" fill="#ADD1B2" rx="11" ry="11" style="stroke:#181818;stroke-width:1.0;"/><path d="M398.2656,647.4844 Q398.4219,647.2656 398.6094,647.1563 Q398.7969,647.0469 399.0156,647.0469 Q399.3906,647.0469 399.625,647.3125 Q399.8594,647.5625 399.8594,648.1719 L399.8594,649.625 Q399.8594,650.2344 399.625,650.5 Q399.3906,650.7656 399.0156,650.7656 Q398.6719,650.7656 398.4688,650.5625 Q398.2656,650.375 398.1563,649.8594 Q398.1094,649.5 397.9219,649.3125 Q397.5938,648.9375 396.9844,648.7188 Q396.375,648.5 395.75,648.5 Q394.9844,648.5 394.3438,648.8281 Q393.7188,649.1563 393.2188,649.9063 Q392.7344,650.6563 392.7344,651.6875 L392.7344,652.7813 Q392.7344,654.0156 393.625,654.8438 Q394.5156,655.6563 396.1094,655.6563 Q397.0469,655.6563 397.7031,655.4063 Q398.0938,655.25 398.5156,654.8125 Q398.7813,654.5469 398.9219,654.4688 Q399.0781,654.3906 399.2813,654.3906 Q399.6094,654.3906 399.8594,654.6563 Q400.125,654.9063 400.125,655.25 Q400.125,655.5938 399.7813,656 Q399.2813,656.5781 398.4844,656.9063 Q397.4063,657.3594 396.1094,657.3594 Q394.5938,657.3594 393.3906,656.7344 Q392.4063,656.2344 391.7188,655.1719 Q391.0313,654.0938 391.0313,652.8125 L391.0313,651.6563 Q391.0313,650.3281 391.6406,649.1875 Q392.2656,648.0313 393.3594,647.4219 Q394.4531,646.7969 395.6875,646.7969 Q396.4219,646.7969 397.0625,646.9688 Q397.7188,647.125 398.2656,647.4844 Z " fill="#000000"/><text fill="#000000" font-family="sans-serif" font-size="14" lengthAdjust="spacing" textLength="59" x="409.5" y="657.3379">container</text><line style="stroke:#181818;stroke-width:0.5;" x1="381.5" x2="470.5" y1="667.6094" y2="667.6094"/><line style="stroke:#181818;stroke-width:0.5;" x1="381.5" x2="470.5" y1="675.6094" y2="675.6094"/></g><!--class overarch_dataModel_isA--><g id="elem_overarch_dataModel_isA"><rect codeLine="37" fill="#F1F1F1" height="48" id="overarch_dataModel_isA" rx="2.5" ry="2.5" style="stroke:#181818;stroke-width:0.5;" width="55" x="1019.5" y="635.6094"/><ellipse cx="1034.5" cy="651.6094" fill="#ADD1B2" rx="11" ry="11" style="stroke:#181818;stroke-width:1.0;"/><path d="M1037.2656,647.4844 Q1037.4219,647.2656 1037.6094,647.1563 Q1037.7969,647.0469 1038.0156,647.0469 Q1038.3906,647.0469 1038.625,647.3125 Q1038.8594,647.5625 1038.8594,648.1719 L1038.8594,649.625 Q1038.8594,650.2344 1038.625,650.5 Q1038.3906,650.7656 1038.0156,650.7656 Q1037.6719,650.7656 1037.4688,650.5625 Q1037.2656,650.375 1037.1563,649.8594 Q1037.1094,649.5 1036.9219,649.3125 Q1036.5938,648.9375 1035.9844,648.7188 Q1035.375,648.5 1034.75,648.5 Q1033.9844,648.5 1033.3438,648.8281 Q1032.7188,649.1563 1032.2188,649.9063 Q1031.7344,650.6563 1031.7344,651.6875 L1031.7344,652.7813 Q1031.7344,654.0156 1032.625,654.8438 Q1033.5156,655.6563 1035.1094,655.6563 Q1036.0469,655.6563 1036.7031,655.4063 Q1037.0938,655.25 1037.5156,654.8125 Q1037.7813,654.5469 1037.9219,654.4688 Q1038.0781,654.3906 1038.2813,654.3906 Q1038.6094,654.3906 1038.8594,654.6563 Q1039.125,654.9063 1039.125,655.25 Q1039.125,655.5938 1038.7813,656 Q1038.2813,656.5781 1037.4844,656.9063 Q1036.4063,657.3594 1035.1094,657.3594 Q1033.5938,657.3594 1032.3906,656.7344 Q1031.4063,656.2344 1030.7188,655.1719 Q1030.0313,654.0938 1030.0313,652.8125 L1030.0313,651.6563 Q1030.0313,650.3281 1030.6406,649.1875 Q1031.2656,648.0313 1032.3594,647.4219 Q1033.4531,646.7969 1034.6875,646.7969 Q1035.4219,646.7969 1036.0625,646.9688 Q1036.7188,647.125 1037.2656,647.4844 Z " fill="#000000"/><text fill="#000000" font-family="sans-serif" font-size="14" lengthAdjust="spacing" textLength="23" x="1048.5" y="657.3379">is-a</text><line style="stroke:#181818;stroke-width:0.5;" x1="1020.5" x2="1073.5" y1="667.6094" y2="667.6094"/><line style="stroke:#181818;stroke-width:0.5;" x1="1020.5" x2="1073.5" y1="675.6094" y2="675.6094"/></g><!--reverse link overarch_dataModel_element to overarch_dataModel_modelElement--><g id="link_overarch_dataModel_element_overarch_dataModel_modelElement"><path codeLine="38" d="M724,199.7694 C724,219.9794 724,223.5294 724,241.4494 " fill="none" id="overarch_dataModel_element-backto-overarch_dataModel_modelElement" style="stroke:#181818;stroke-width:1.0;"/><polygon fill="none" points="724,181.7694,718,199.7694,730,199.7694,724,181.7694" style="stroke:#181818;stroke-width:1.0;"/></g><!--reverse link overarch_dataModel_boundaryNode to overarch_dataModel_contextBoundary--><g id="link_overarch_dataModel_boundaryNode_overarch_dataModel_contextBoundary"><path codeLine="39" d="M139.6576,589.077 C123.9976,606.737 114.41,617.5494 98.68,635.2894 " fill="none" id="overarch_dataModel_boundaryNode-backto-overarch_dataModel_contextBoundary" style="stroke:#181818;stroke-width:1.0;"/><polygon fill="none" points="151.6,575.6094,135.1683,585.0962,144.1468,593.0579,151.6,575.6094" style="stroke:#181818;stroke-width:1.0;"/></g><!--reverse link overarch_dataModel_modelElement to overarch_dataModel_modelNode--><g id="link_overarch_dataModel_modelElement_overarch_dataModel_modelNode"><path codeLine="40" d="M658.0885,336.0257 C626.2785,361.0757 600.84,381.1194 574.35,401.9894 " fill="none" id="overarch_dataModel_modelElement-backto-overarch_dataModel_modelNode" style="stroke:#181818;stroke-width:1.0;"/><polygon fill="none" points="672.23,324.8894,654.3764,331.3118,661.8006,340.7395,672.23,324.8894" style="stroke:#181818;stroke-width:1.0;"/></g><!--reverse link overarch_dataModel_boundaryNode to overarch_dataModel_enterpriseBoundary--><g id="link_overarch_dataModel_boundaryNode_overarch_dataModel_enterpriseBoundary"><path codeLine="41" d="M204.0493,589.1415 C219.5393,606.8015 228.98,617.5494 244.54,635.2894 " fill="none" id="overarch_dataModel_boundaryNode-backto-overarch_dataModel_enterpriseBoundary" style="stroke:#181818;stroke-width:1.0;"/><polygon fill="none" points="192.18,575.6094,199.5386,593.098,208.5601,585.1851,192.18,575.6094" style="stroke:#181818;stroke-width:1.0;"/></g><!--reverse link overarch_dataModel_modelElement to overarch_dataModel_modelRelation--><g id="link_overarch_dataModel_modelElement_overarch_dataModel_modelRelation"><path codeLine="42" d="M792.144,335.7636 C816.824,354.4736 831.66,365.7194 856.32,384.4194 " fill="none" id="overarch_dataModel_modelElement-backto-overarch_dataModel_modelRelation" style="stroke:#181818;stroke-width:1.0;"/><polygon fill="none" points="777.8,324.8894,788.5193,340.545,795.7688,330.9823,777.8,324.8894" style="stroke:#181818;stroke-width:1.0;"/></g><!--reverse link overarch_dataModel_conceptModelRelation to overarch_dataModel_rel--><g id="link_overarch_dataModel_conceptModelRelation_overarch_dataModel_rel"><path codeLine="43" d="M894.9684,592.4515 C888.3084,610.1115 885.49,617.5494 878.8,635.2894 " fill="none" id="overarch_dataModel_conceptModelRelation-backto-overarch_dataModel_rel" style="stroke:#181818;stroke-width:1.0;"/><polygon fill="none" points="901.32,575.6094,889.3544,590.3343,900.5825,594.5687,901.32,575.6094" style="stroke:#181818;stroke-width:1.0;"/></g><!--reverse link overarch_dataModel_conceptModelRelation to overarch_dataModel_has--><g id="link_overarch_dataModel_conceptModelRelation_overarch_dataModel_has"><path codeLine="44" d="M927.4958,592.0645 C935.3258,609.7245 938.79,617.5494 946.66,635.2894 " fill="none" id="overarch_dataModel_conceptModelRelation-backto-overarch_dataModel_has" style="stroke:#181818;stroke-width:1.0;"/><polygon fill="none" points="920.2,575.6094,922.0107,594.4964,932.9808,589.6326,920.2,575.6094" style="stroke:#181818;stroke-width:1.0;"/></g><!--reverse link overarch_dataModel_conceptModelElement to overarch_dataModel_conceptModelNode--><g id="link_overarch_dataModel_conceptModelElement_overarch_dataModel_conceptModelNode"><path codeLine="45" d="M675.5146,460.562 C643.5146,482.642 610.47,505.4394 578.52,527.4794 " fill="none" id="overarch_dataModel_conceptModelElement-backto-overarch_dataModel_conceptModelNode" style="stroke:#181818;stroke-width:1.0;"/><polygon fill="none" points="690.33,450.3394,672.107,455.6235,678.9221,465.5005,690.33,450.3394" style="stroke:#181818;stroke-width:1.0;"/></g><!--reverse link overarch_dataModel_modelNode to overarch_dataModel_conceptModelNode--><g id="link_overarch_dataModel_modelNode_overarch_dataModel_conceptModelNode"><path codeLine="46" d="M545,468.3394 C545,490.4194 545,505.4394 545,527.4794 " fill="none" id="overarch_dataModel_modelNode-backto-overarch_dataModel_conceptModelNode" style="stroke:#181818;stroke-width:1.0;"/><polygon fill="none" points="545,450.3394,539,468.3394,551,468.3394,545,450.3394" style="stroke:#181818;stroke-width:1.0;"/></g><!--reverse link overarch_dataModel_conceptModelNode to overarch_dataModel_container--><g id="link_overarch_dataModel_conceptModelNode_overarch_dataModel_container"><path codeLine="47" d="M505.7409,587.5839 C485.9209,605.2439 472.09,617.5494 452.18,635.2894 " fill="none" id="overarch_dataModel_conceptModelNode-backto-overarch_dataModel_container" style="stroke:#181818;stroke-width:1.0;"/><polygon fill="none" points="519.18,575.6094,501.7493,583.1042,509.7324,592.0636,519.18,575.6094" style="stroke:#181818;stroke-width:1.0;"/></g><!--reverse link overarch_dataModel_conceptModelNode to overarch_dataModel_enterpriseBoundary--><g id="link_overarch_dataModel_conceptModelNode_overarch_dataModel_enterpriseBoundary"><path codeLine="48" d="M467.4063,581.9832 C420.6063,599.7032 373.02,617.7194 326.12,635.4694 " fill="none" id="overarch_dataModel_conceptModelNode-backto-overarch_dataModel_enterpriseBoundary" style="stroke:#181818;stroke-width:1.0;"/><polygon fill="none" points="484.24,575.6094,465.2817,576.3719,469.5309,587.5944,484.24,575.6094" style="stroke:#181818;stroke-width:1.0;"/></g><!--reverse link overarch_dataModel_modelElement to overarch_dataModel_conceptModelElement--><g id="link_overarch_dataModel_modelElement_overarch_dataModel_conceptModelElement"><path codeLine="49" d="M724,342.8894 C724,367.9394 724,381.1194 724,401.9894 " fill="none" id="overarch_dataModel_modelElement-backto-overarch_dataModel_conceptModelElement" style="stroke:#181818;stroke-width:1.0;"/><polygon fill="none" points="724,324.8894,718,342.8894,730,342.8894,724,324.8894" style="stroke:#181818;stroke-width:1.0;"/></g><!--reverse link overarch_dataModel_conceptModelRelation to overarch_dataModel_isA--><g id="link_overarch_dataModel_conceptModelRelation_overarch_dataModel_isA"><path codeLine="50" d="M953.9656,586.6252 C977.5756,604.8952 996.11,619.2294 1019.2,637.0994 " fill="none" id="overarch_dataModel_conceptModelRelation-backto-overarch_dataModel_isA" style="stroke:#181818;stroke-width:1.0;"/><polygon fill="none" points="939.73,575.6094,950.2936,591.3704,957.6375,581.88,939.73,575.6094" style="stroke:#181818;stroke-width:1.0;"/></g><!--reverse link overarch_dataModel_conceptModelNode to overarch_dataModel_concept--><g id="link_overarch_dataModel_conceptModelNode_overarch_dataModel_concept"><path codeLine="51" d="M582.9211,587.8673 C601.9111,605.5273 614.84,617.5494 633.92,635.2894 " fill="none" id="overarch_dataModel_conceptModelNode-backto-overarch_dataModel_concept" style="stroke:#181818;stroke-width:1.0;"/><polygon fill="none" points="569.74,575.6094,578.8351,592.2611,587.0071,583.4736,569.74,575.6094" style="stroke:#181818;stroke-width:1.0;"/></g><!--reverse link overarch_dataModel_modelRelation to overarch_dataModel_conceptModelRelation--><g id="link_overarch_dataModel_modelRelation_overarch_dataModel_conceptModelRelation"><path codeLine="52" d="M910,485.8894 C910,505.6994 910,510.7894 910,527.5194 " fill="none" id="overarch_dataModel_modelRelation-backto-overarch_dataModel_conceptModelRelation" style="stroke:#181818;stroke-width:1.0;"/><polygon fill="none" points="910,467.8894,904,485.8894,916,485.8894,910,467.8894" style="stroke:#181818;stroke-width:1.0;"/></g><!--reverse link overarch_dataModel_conceptModelNode to overarch_dataModel_contextBoundary--><g id="link_overarch_dataModel_conceptModelNode_overarch_dataModel_contextBoundary"><path codeLine="53" d="M446.0787,573.2801 C369.3987,589.4801 268.94,611.2494 167,635.6094 C161.26,636.9794 155.31,638.4394 149.35,639.9194 " fill="none" id="overarch_dataModel_conceptModelNode-backto-overarch_dataModel_contextBoundary" style="stroke:#181818;stroke-width:1.0;"/><polygon fill="none" points="463.69,569.5594,444.8385,567.4096,447.319,579.1505,463.69,569.5594" style="stroke:#181818;stroke-width:1.0;"/></g><!--reverse link overarch_dataModel_conceptModelNode to overarch_dataModel_person--><g id="link_overarch_dataModel_conceptModelNode_overarch_dataModel_person"><path codeLine="54" d="M610.7916,583.1993 C652.9616,602.8093 696.38,622.9894 734.91,640.8994 " fill="none" id="overarch_dataModel_conceptModelNode-backto-overarch_dataModel_person" style="stroke:#181818;stroke-width:1.0;"/><polygon fill="none" points="594.47,575.6094,608.2616,588.6398,613.3215,577.7587,594.47,575.6094" style="stroke:#181818;stroke-width:1.0;"/></g><!--reverse link overarch_dataModel_conceptModelElement to overarch_dataModel_conceptModelRelation--><g id="link_overarch_dataModel_conceptModelElement_overarch_dataModel_conceptModelRelation"><path codeLine="55" d="M773.9849,460.2969 C807.2349,482.3769 841.97,505.4394 875.17,527.4794 " fill="none" id="overarch_dataModel_conceptModelElement-backto-overarch_dataModel_conceptModelRelation" style="stroke:#181818;stroke-width:1.0;"/><polygon fill="none" points="758.99,450.3394,770.6657,465.2952,777.3041,455.2986,758.99,450.3394" style="stroke:#181818;stroke-width:1.0;"/></g><!--reverse link overarch_dataModel_conceptModelNode to overarch_dataModel_system--><g id="link_overarch_dataModel_conceptModelNode_overarch_dataModel_system"><path codeLine="56" d="M545,593.6094 C545,611.2694 545,617.5494 545,635.2894 " fill="none" id="overarch_dataModel_conceptModelNode-backto-overarch_dataModel_system" style="stroke:#181818;stroke-width:1.0;"/><polygon fill="none" points="545,575.6094,539,593.6094,551,593.6094,545,575.6094" style="stroke:#181818;stroke-width:1.0;"/></g><!--SRC=[hLRBJiCm4BpxAwpUKy6ruWA88nou8bHjawMrYEtAtW8HyEyuhoPfOpiYlKHoF3jPpunN8K4vydkjKjmJVzGPvlmXHucAB6Df3jRoXLkWsHjXCTdeWyh050iEbkiFD63ItJe3WgfstK7l6YJ__crvR649fQ-qtYtXiB5a82NUrALrUuaiSGdMxVbe6d2rQ4uonXbXmRQISPwXJVcAktgXjlpbQhcyVYrVwx6tJhyLVyVYKvlCBKKsM2gGU2nYHs4Cvhv6t5PFGNSumY-Asj3WHZnev8cerolOWVM1tLRSBkMUKxnwSeynjZYBZ9Sx5O64La6AvmPKcVvcj1nOHxgtFFzEwqYmqnOKRZOIJJb8jkjC0XsCeABhhuiZmTQMWKDgtyNyYadLzwnJx1YNFHhhBwvtJm8DGg499Ra2z8g4JS275_QsH0QkzCrFaiHqPJ7pV2Gd5u_5_0isKtxftvsSJ-9vpRHUiwcPyB6vWCtcS9E7JPpz0QS6iuS59yiSbhCf5mfFbVLPB1SqVaJFsTQv2pfNf1B8ebDyog6cXdhkdP_CLG_8IsRx8aUi_yt-0000]--></g></svg>