<svg xmlns="http://www.w3.org/2000/svg" xmlns:xlink="http://www.w3.org/1999/xlink" contentStyleType="text/css" height="705px" preserveAspectRatio="none" style="width:1119px;height:705px;background:#FFFFFF;" version="1.1" viewBox="0 0 1119 705" width="1119px" zoomAndPan="magnify"><defs/><g><text fill="#000000" font-family="sans-serif" font-size="14" font-weight="bold" lengthAdjust="spacing" textLength="172" x="466.75" y="24.9659">Concept Model Elements</text><!--class overarch_dataModel_enterpriseBoundary--><g id="elem_overarch_dataModel_enterpriseBoundary"><rect codeLine="9" fill="#F1F1F1" height="48" id="overarch_dataModel_enterpriseBoundary" rx="2.5" ry="2.5" style="stroke:#181818;stroke-width:0.5;" width="172" x="193.5" y="650.0679"/><ellipse cx="208.5" cy="666.0679" fill="#ADD1B2" rx="11" ry="11" style="stroke:#181818;stroke-width:1.0;"/><path d="M211.4688,671.7085 Q210.8906,672.0054 210.25,672.146 Q209.6094,672.3023 208.9063,672.3023 Q206.4063,672.3023 205.0781,670.6617 Q203.7656,669.0054 203.7656,665.8804 Q203.7656,662.7554 205.0781,661.0992 Q206.4063,659.4429 208.9063,659.4429 Q209.6094,659.4429 210.25,659.5992 Q210.9063,659.7554 211.4688,660.0523 L211.4688,662.771 Q210.8438,662.1929 210.25,661.9273 Q209.6563,661.646 209.0313,661.646 Q207.6875,661.646 207,662.7242 Q206.3125,663.7867 206.3125,665.8804 Q206.3125,667.9742 207,669.0523 Q207.6875,670.1148 209.0313,670.1148 Q209.6563,670.1148 210.25,669.8492 Q210.8438,669.5679 211.4688,668.9898 L211.4688,671.7085 Z " fill="#000000"/><text fill="#000000" font-family="sans-serif" font-size="14" lengthAdjust="spacing" textLength="140" x="222.5" y="671.4999">enterprise-boundary</text><line style="stroke:#181818;stroke-width:0.5;" x1="194.5" x2="364.5" y1="682.0679" y2="682.0679"/><line style="stroke:#181818;stroke-width:0.5;" x1="194.5" x2="364.5" y1="690.0679" y2="690.0679"/></g><!--class overarch_dataModel_conceptModelElement--><g id="elem_overarch_dataModel_conceptModelElement"><rect codeLine="10" fill="#F1F1F1" height="48" id="overarch_dataModel_conceptModelElement" rx="2.5" ry="2.5" style="stroke:#181818;stroke-width:0.5;" width="177" x="649" y="415.0679"/><ellipse cx="664" cy="431.0679" fill="#A9DCDF" rx="11" ry="11" style="stroke:#181818;stroke-width:1.0;"/><path d="M664.1094,426.4117 L662.9531,431.4898 L665.2813,431.4898 L664.1094,426.4117 Z M662.625,424.1773 L665.6094,424.1773 L668.9688,436.5679 L666.5156,436.5679 L665.75,433.5054 L662.4688,433.5054 L661.7188,436.5679 L659.2813,436.5679 L662.625,424.1773 Z " fill="#000000"/><text fill="#000000" font-family="sans-serif" font-size="14" font-style="italic" lengthAdjust="spacing" textLength="145" x="678" y="436.4999">concept-model-element</text><line style="stroke:#181818;stroke-width:0.5;" x1="650" x2="825" y1="447.0679" y2="447.0679"/><line style="stroke:#181818;stroke-width:0.5;" x1="650" x2="825" y1="455.0679" y2="455.0679"/></g><!--class overarch_dataModel_modelElement--><g id="elem_overarch_dataModel_modelElement"><rect codeLine="11" fill="#F1F1F1" height="86.1358" id="overarch_dataModel_modelElement" rx="2.5" ry="2.5" style="stroke:#181818;stroke-width:0.5;" width="175" x="650" y="250.0679"/><ellipse cx="687.5" cy="266.0679" fill="#A9DCDF" rx="11" ry="11" style="stroke:#181818;stroke-width:1.0;"/><path d="M687.6094,261.4117 L686.4531,266.4898 L688.7813,266.4898 L687.6094,261.4117 Z M686.125,259.1773 L689.1094,259.1773 L692.4688,271.5679 L690.0156,271.5679 L689.25,268.5054 L685.9688,268.5054 L685.2188,271.5679 L682.7813,271.5679 L686.125,259.1773 Z " fill="#000000"/><text fill="#000000" font-family="sans-serif" font-size="14" font-style="italic" lengthAdjust="spacing" textLength="93" x="706.5" y="271.4999">model-element</text><line style="stroke:#181818;stroke-width:0.5;" x1="651" x2="824" y1="282.0679" y2="282.0679"/><text fill="#000000" font-family="sans-serif" font-size="14" lengthAdjust="spacing" textLength="163" x="656" y="301.0339">maturity : keyword [0..1]</text><text fill="#000000" font-family="sans-serif" font-size="14" lengthAdjust="spacing" textLength="99" x="656" y="320.1018">tags : set [0..1]</text><line style="stroke:#181818;stroke-width:0.5;" x1="651" x2="824" y1="328.2038" y2="328.2038"/></g><!--class overarch_dataModel_person--><g id="elem_overarch_dataModel_person"><rect codeLine="15" fill="#F1F1F1" height="48" id="overarch_dataModel_person" rx="2.5" ry="2.5" style="stroke:#181818;stroke-width:0.5;" width="79" x="521" y="650.0679"/><ellipse cx="536" cy="666.0679" fill="#ADD1B2" rx="11" ry="11" style="stroke:#181818;stroke-width:1.0;"/><path d="M538.9688,671.7085 Q538.3906,672.0054 537.75,672.146 Q537.1094,672.3023 536.4063,672.3023 Q533.9063,672.3023 532.5781,670.6617 Q531.2656,669.0054 531.2656,665.8804 Q531.2656,662.7554 532.5781,661.0992 Q533.9063,659.4429 536.4063,659.4429 Q537.1094,659.4429 537.75,659.5992 Q538.4063,659.7554 538.9688,660.0523 L538.9688,662.771 Q538.3438,662.1929 537.75,661.9273 Q537.1563,661.646 536.5313,661.646 Q535.1875,661.646 534.5,662.7242 Q533.8125,663.7867 533.8125,665.8804 Q533.8125,667.9742 534.5,669.0523 Q535.1875,670.1148 536.5313,670.1148 Q537.1563,670.1148 537.75,669.8492 Q538.3438,669.5679 538.9688,668.9898 L538.9688,671.7085 Z " fill="#000000"/><text fill="#000000" font-family="sans-serif" font-size="14" lengthAdjust="spacing" textLength="47" x="550" y="671.4999">person</text><line style="stroke:#181818;stroke-width:0.5;" x1="522" x2="599" y1="682.0679" y2="682.0679"/><line style="stroke:#181818;stroke-width:0.5;" x1="522" x2="599" y1="690.0679" y2="690.0679"/></g><!--class overarch_dataModel_system--><g id="elem_overarch_dataModel_system"><rect codeLine="16" fill="#F1F1F1" height="48" id="overarch_dataModel_system" rx="2.5" ry="2.5" style="stroke:#181818;stroke-width:0.5;" width="79" x="635" y="650.0679"/><ellipse cx="650" cy="666.0679" fill="#ADD1B2" rx="11" ry="11" style="stroke:#181818;stroke-width:1.0;"/><path d="M652.9688,671.7085 Q652.3906,672.0054 651.75,672.146 Q651.1094,672.3023 650.4063,672.3023 Q647.9063,672.3023 646.5781,670.6617 Q645.2656,669.0054 645.2656,665.8804 Q645.2656,662.7554 646.5781,661.0992 Q647.9063,659.4429 650.4063,659.4429 Q651.1094,659.4429 651.75,659.5992 Q652.4063,659.7554 652.9688,660.0523 L652.9688,662.771 Q652.3438,662.1929 651.75,661.9273 Q651.1563,661.646 650.5313,661.646 Q649.1875,661.646 648.5,662.7242 Q647.8125,663.7867 647.8125,665.8804 Q647.8125,667.9742 648.5,669.0523 Q649.1875,670.1148 650.5313,670.1148 Q651.1563,670.1148 651.75,669.8492 Q652.3438,669.5679 652.9688,668.9898 L652.9688,671.7085 Z " fill="#000000"/><text fill="#000000" font-family="sans-serif" font-size="14" lengthAdjust="spacing" textLength="47" x="664" y="671.4999">system</text><line style="stroke:#181818;stroke-width:0.5;" x1="636" x2="713" y1="682.0679" y2="682.0679"/><line style="stroke:#181818;stroke-width:0.5;" x1="636" x2="713" y1="690.0679" y2="690.0679"/></g><!--class overarch_dataModel_container--><g id="elem_overarch_dataModel_container"><rect codeLine="17" fill="#F1F1F1" height="48" id="overarch_dataModel_container" rx="2.5" ry="2.5" style="stroke:#181818;stroke-width:0.5;" width="96" x="749.5" y="650.0679"/><ellipse cx="764.5" cy="666.0679" fill="#ADD1B2" rx="11" ry="11" style="stroke:#181818;stroke-width:1.0;"/><path d="M767.4688,671.7085 Q766.8906,672.0054 766.25,672.146 Q765.6094,672.3023 764.9063,672.3023 Q762.4063,672.3023 761.0781,670.6617 Q759.7656,669.0054 759.7656,665.8804 Q759.7656,662.7554 761.0781,661.0992 Q762.4063,659.4429 764.9063,659.4429 Q765.6094,659.4429 766.25,659.5992 Q766.9063,659.7554 767.4688,660.0523 L767.4688,662.771 Q766.8438,662.1929 766.25,661.9273 Q765.6563,661.646 765.0313,661.646 Q763.6875,661.646 763,662.7242 Q762.3125,663.7867 762.3125,665.8804 Q762.3125,667.9742 763,669.0523 Q763.6875,670.1148 765.0313,670.1148 Q765.6563,670.1148 766.25,669.8492 Q766.8438,669.5679 767.4688,668.9898 L767.4688,671.7085 Z " fill="#000000"/><text fill="#000000" font-family="sans-serif" font-size="14" lengthAdjust="spacing" textLength="64" x="778.5" y="671.4999">container</text><line style="stroke:#181818;stroke-width:0.5;" x1="750.5" x2="844.5" y1="682.0679" y2="682.0679"/><line style="stroke:#181818;stroke-width:0.5;" x1="750.5" x2="844.5" y1="690.0679" y2="690.0679"/></g><!--class overarch_dataModel_contextBoundary--><g id="elem_overarch_dataModel_contextBoundary"><rect codeLine="18" fill="#F1F1F1" height="48" id="overarch_dataModel_contextBoundary" rx="2.5" ry="2.5" style="stroke:#181818;stroke-width:0.5;" width="151" x="7" y="650.0679"/><ellipse cx="22" cy="666.0679" fill="#ADD1B2" rx="11" ry="11" style="stroke:#181818;stroke-width:1.0;"/><path d="M24.9688,671.7085 Q24.3906,672.0054 23.75,672.146 Q23.1094,672.3023 22.4063,672.3023 Q19.9063,672.3023 18.5781,670.6617 Q17.2656,669.0054 17.2656,665.8804 Q17.2656,662.7554 18.5781,661.0992 Q19.9063,659.4429 22.4063,659.4429 Q23.1094,659.4429 23.75,659.5992 Q24.4063,659.7554 24.9688,660.0523 L24.9688,662.771 Q24.3438,662.1929 23.75,661.9273 Q23.1563,661.646 22.5313,661.646 Q21.1875,661.646 20.5,662.7242 Q19.8125,663.7867 19.8125,665.8804 Q19.8125,667.9742 20.5,669.0523 Q21.1875,670.1148 22.5313,670.1148 Q23.1563,670.1148 23.75,669.8492 Q24.3438,669.5679 24.9688,668.9898 L24.9688,671.7085 Z " fill="#000000"/><text fill="#000000" font-family="sans-serif" font-size="14" lengthAdjust="spacing" textLength="119" x="36" y="671.4999">context-boundary</text><line style="stroke:#181818;stroke-width:0.5;" x1="8" x2="157" y1="682.0679" y2="682.0679"/><line style="stroke:#181818;stroke-width:0.5;" x1="8" x2="157" y1="690.0679" y2="690.0679"/></g><!--class overarch_dataModel_concept--><g id="elem_overarch_dataModel_concept"><rect codeLine="19" fill="#F1F1F1" height="48" id="overarch_dataModel_concept" rx="2.5" ry="2.5" style="stroke:#181818;stroke-width:0.5;" width="85" x="401" y="650.0679"/><ellipse cx="416" cy="666.0679" fill="#ADD1B2" rx="11" ry="11" style="stroke:#181818;stroke-width:1.0;"/><path d="M418.9688,671.7085 Q418.3906,672.0054 417.75,672.146 Q417.1094,672.3023 416.4063,672.3023 Q413.9063,672.3023 412.5781,670.6617 Q411.2656,669.0054 411.2656,665.8804 Q411.2656,662.7554 412.5781,661.0992 Q413.9063,659.4429 416.4063,659.4429 Q417.1094,659.4429 417.75,659.5992 Q418.4063,659.7554 418.9688,660.0523 L418.9688,662.771 Q418.3438,662.1929 417.75,661.9273 Q417.1563,661.646 416.5313,661.646 Q415.1875,661.646 414.5,662.7242 Q413.8125,663.7867 413.8125,665.8804 Q413.8125,667.9742 414.5,669.0523 Q415.1875,670.1148 416.5313,670.1148 Q417.1563,670.1148 417.75,669.8492 Q418.3438,669.5679 418.9688,668.9898 L418.9688,671.7085 Z " fill="#000000"/><text fill="#000000" font-family="sans-serif" font-size="14" lengthAdjust="spacing" textLength="53" x="430" y="671.4999">concept</text><line style="stroke:#181818;stroke-width:0.5;" x1="402" x2="485" y1="682.0679" y2="682.0679"/><line style="stroke:#181818;stroke-width:0.5;" x1="402" x2="485" y1="690.0679" y2="690.0679"/></g><!--class overarch_dataModel_has--><g id="elem_overarch_dataModel_has"><rect codeLine="20" fill="#F1F1F1" height="48" id="overarch_dataModel_has" rx="2.5" ry="2.5" style="stroke:#181818;stroke-width:0.5;" width="56" x="880.5" y="650.0679"/><ellipse cx="895.5" cy="666.0679" fill="#ADD1B2" rx="11" ry="11" style="stroke:#181818;stroke-width:1.0;"/><path d="M898.4688,671.7085 Q897.8906,672.0054 897.25,672.146 Q896.6094,672.3023 895.9063,672.3023 Q893.4063,672.3023 892.0781,670.6617 Q890.7656,669.0054 890.7656,665.8804 Q890.7656,662.7554 892.0781,661.0992 Q893.4063,659.4429 895.9063,659.4429 Q896.6094,659.4429 897.25,659.5992 Q897.9063,659.7554 898.4688,660.0523 L898.4688,662.771 Q897.8438,662.1929 897.25,661.9273 Q896.6563,661.646 896.0313,661.646 Q894.6875,661.646 894,662.7242 Q893.3125,663.7867 893.3125,665.8804 Q893.3125,667.9742 894,669.0523 Q894.6875,670.1148 896.0313,670.1148 Q896.6563,670.1148 897.25,669.8492 Q897.8438,669.5679 898.4688,668.9898 L898.4688,671.7085 Z " fill="#000000"/><text fill="#000000" font-family="sans-serif" font-size="14" lengthAdjust="spacing" textLength="24" x="909.5" y="671.4999">has</text><line style="stroke:#181818;stroke-width:0.5;" x1="881.5" x2="935.5" y1="682.0679" y2="682.0679"/><line style="stroke:#181818;stroke-width:0.5;" x1="881.5" x2="935.5" y1="690.0679" y2="690.0679"/></g><!--class overarch_dataModel_conceptModelNode--><g id="elem_overarch_dataModel_conceptModelNode"><rect codeLine="21" fill="#F1F1F1" height="48" id="overarch_dataModel_conceptModelNode" rx="2.5" ry="2.5" style="stroke:#181818;stroke-width:0.5;" width="158" x="481.5" y="542.0679"/><ellipse cx="496.5" cy="558.0679" fill="#A9DCDF" rx="11" ry="11" style="stroke:#181818;stroke-width:1.0;"/><path d="M496.6094,553.4117 L495.4531,558.4898 L497.7813,558.4898 L496.6094,553.4117 Z M495.125,551.1773 L498.1094,551.1773 L501.4688,563.5679 L499.0156,563.5679 L498.25,560.5054 L494.9688,560.5054 L494.2188,563.5679 L491.7813,563.5679 L495.125,551.1773 Z " fill="#000000"/><text fill="#000000" font-family="sans-serif" font-size="14" font-style="italic" lengthAdjust="spacing" textLength="126" x="510.5" y="563.4999">concept-model-node</text><line style="stroke:#181818;stroke-width:0.5;" x1="482.5" x2="638.5" y1="574.0679" y2="574.0679"/><line style="stroke:#181818;stroke-width:0.5;" x1="482.5" x2="638.5" y1="582.0679" y2="582.0679"/></g><!--class overarch_dataModel_modelNode--><g id="elem_overarch_dataModel_modelNode"><rect codeLine="22" fill="#F1F1F1" height="48" id="overarch_dataModel_modelNode" rx="2.5" ry="2.5" style="stroke:#181818;stroke-width:0.5;" width="106" x="507.5" y="415.0679"/><ellipse cx="522.5" cy="431.0679" fill="#A9DCDF" rx="11" ry="11" style="stroke:#181818;stroke-width:1.0;"/><path d="M522.6094,426.4117 L521.4531,431.4898 L523.7813,431.4898 L522.6094,426.4117 Z M521.125,424.1773 L524.1094,424.1773 L527.4688,436.5679 L525.0156,436.5679 L524.25,433.5054 L520.9688,433.5054 L520.2188,436.5679 L517.7813,436.5679 L521.125,424.1773 Z " fill="#000000"/><text fill="#000000" font-family="sans-serif" font-size="14" font-style="italic" lengthAdjust="spacing" textLength="74" x="536.5" y="436.4999">model-node</text><line style="stroke:#181818;stroke-width:0.5;" x1="508.5" x2="612.5" y1="447.0679" y2="447.0679"/><line style="stroke:#181818;stroke-width:0.5;" x1="508.5" x2="612.5" y1="455.0679" y2="455.0679"/></g><!--class overarch_dataModel_modelRelation--><g id="elem_overarch_dataModel_modelRelation"><rect codeLine="23" fill="#F1F1F1" height="86.1358" id="overarch_dataModel_modelRelation" rx="2.5" ry="2.5" style="stroke:#181818;stroke-width:0.5;" width="125" x="861" y="396.0679"/><ellipse cx="876" cy="412.0679" fill="#A9DCDF" rx="11" ry="11" style="stroke:#181818;stroke-width:1.0;"/><path d="M876.1094,407.4117 L874.9531,412.4898 L877.2813,412.4898 L876.1094,407.4117 Z M874.625,405.1773 L877.6094,405.1773 L880.9688,417.5679 L878.5156,417.5679 L877.75,414.5054 L874.4688,414.5054 L873.7188,417.5679 L871.2813,417.5679 L874.625,405.1773 Z " fill="#000000"/><text fill="#000000" font-family="sans-serif" font-size="14" font-style="italic" lengthAdjust="spacing" textLength="93" x="890" y="417.4999">model-relation</text><line style="stroke:#181818;stroke-width:0.5;" x1="862" x2="985" y1="428.0679" y2="428.0679"/><text fill="#000000" font-family="sans-serif" font-size="14" lengthAdjust="spacing" textLength="100" x="867" y="447.0339">from : keyword</text><text fill="#000000" font-family="sans-serif" font-size="14" lengthAdjust="spacing" textLength="81" x="867" y="466.1018">to : keyword</text><line style="stroke:#181818;stroke-width:0.5;" x1="862" x2="985" y1="474.2038" y2="474.2038"/></g><!--class overarch_dataModel_rel--><g id="elem_overarch_dataModel_rel"><rect codeLine="27" fill="#F1F1F1" height="48" id="overarch_dataModel_rel" rx="2.5" ry="2.5" style="stroke:#181818;stroke-width:0.5;" width="50" x="971.5" y="650.0679"/><ellipse cx="986.5" cy="666.0679" fill="#ADD1B2" rx="11" ry="11" style="stroke:#181818;stroke-width:1.0;"/><path d="M989.4688,671.7085 Q988.8906,672.0054 988.25,672.146 Q987.6094,672.3023 986.9063,672.3023 Q984.4063,672.3023 983.0781,670.6617 Q981.7656,669.0054 981.7656,665.8804 Q981.7656,662.7554 983.0781,661.0992 Q984.4063,659.4429 986.9063,659.4429 Q987.6094,659.4429 988.25,659.5992 Q988.9063,659.7554 989.4688,660.0523 L989.4688,662.771 Q988.8438,662.1929 988.25,661.9273 Q987.6563,661.646 987.0313,661.646 Q985.6875,661.646 985,662.7242 Q984.3125,663.7867 984.3125,665.8804 Q984.3125,667.9742 985,669.0523 Q985.6875,670.1148 987.0313,670.1148 Q987.6563,670.1148 988.25,669.8492 Q988.8438,669.5679 989.4688,668.9898 L989.4688,671.7085 Z " fill="#000000"/><text fill="#000000" font-family="sans-serif" font-size="14" lengthAdjust="spacing" textLength="18" x="1000.5" y="671.4999">rel</text><line style="stroke:#181818;stroke-width:0.5;" x1="972.5" x2="1020.5" y1="682.0679" y2="682.0679"/><line style="stroke:#181818;stroke-width:0.5;" x1="972.5" x2="1020.5" y1="690.0679" y2="690.0679"/></g><!--class overarch_dataModel_boundaryNode--><g id="elem_overarch_dataModel_boundaryNode"><rect codeLine="28" fill="#F1F1F1" height="48" id="overarch_dataModel_boundaryNode" rx="2.5" ry="2.5" style="stroke:#181818;stroke-width:0.5;" width="128" x="117.5" y="542.0679"/><ellipse cx="132.5" cy="558.0679" fill="#A9DCDF" rx="11" ry="11" style="stroke:#181818;stroke-width:1.0;"/><path d="M132.6094,553.4117 L131.4531,558.4898 L133.7813,558.4898 L132.6094,553.4117 Z M131.125,551.1773 L134.1094,551.1773 L137.4688,563.5679 L135.0156,563.5679 L134.25,560.5054 L130.9688,560.5054 L130.2188,563.5679 L127.7813,563.5679 L131.125,551.1773 Z " fill="#000000"/><text fill="#000000" font-family="sans-serif" font-size="14" font-style="italic" lengthAdjust="spacing" textLength="96" x="146.5" y="563.4999">boundary-node</text><line style="stroke:#181818;stroke-width:0.5;" x1="118.5" x2="244.5" y1="574.0679" y2="574.0679"/><line style="stroke:#181818;stroke-width:0.5;" x1="118.5" x2="244.5" y1="582.0679" y2="582.0679"/></g><!--class overarch_dataModel_conceptModelRelation--><g id="elem_overarch_dataModel_conceptModelRelation"><rect codeLine="29" fill="#F1F1F1" height="48" id="overarch_dataModel_conceptModelRelation" rx="2.5" ry="2.5" style="stroke:#181818;stroke-width:0.5;" width="177" x="835" y="542.0679"/><ellipse cx="850" cy="558.0679" fill="#A9DCDF" rx="11" ry="11" style="stroke:#181818;stroke-width:1.0;"/><path d="M850.1094,553.4117 L848.9531,558.4898 L851.2813,558.4898 L850.1094,553.4117 Z M848.625,551.1773 L851.6094,551.1773 L854.9688,563.5679 L852.5156,563.5679 L851.75,560.5054 L848.4688,560.5054 L847.7188,563.5679 L845.2813,563.5679 L848.625,551.1773 Z " fill="#000000"/><text fill="#000000" font-family="sans-serif" font-size="14" font-style="italic" lengthAdjust="spacing" textLength="145" x="864" y="563.4999">concept-model-relation</text><line style="stroke:#181818;stroke-width:0.5;" x1="836" x2="1011" y1="574.0679" y2="574.0679"/><line style="stroke:#181818;stroke-width:0.5;" x1="836" x2="1011" y1="582.0679" y2="582.0679"/></g><!--class overarch_dataModel_element--><g id="elem_overarch_dataModel_element"><rect codeLine="30" fill="#F1F1F1" height="143.3396" id="overarch_dataModel_element" rx="2.5" ry="2.5" style="stroke:#181818;stroke-width:0.5;" width="133" x="671" y="47.0679"/><ellipse cx="708.95" cy="63.0679" fill="#A9DCDF" rx="11" ry="11" style="stroke:#181818;stroke-width:1.0;"/><path d="M709.0594,58.4117 L707.9031,63.4898 L710.2313,63.4898 L709.0594,58.4117 Z M707.575,56.1773 L710.5594,56.1773 L713.9188,68.5679 L711.4656,68.5679 L710.7,65.5054 L707.4188,65.5054 L706.6688,68.5679 L704.2313,68.5679 L707.575,56.1773 Z " fill="#000000"/><text fill="#000000" font-family="sans-serif" font-size="14" font-style="italic" lengthAdjust="spacing" textLength="50" x="728.05" y="68.4999">element</text><line style="stroke:#181818;stroke-width:0.5;" x1="672" x2="803" y1="79.0679" y2="79.0679"/><text fill="#000000" font-family="sans-serif" font-size="14" lengthAdjust="spacing" textLength="121" x="677" y="98.0339">desc : string [0..1]</text><text fill="#000000" font-family="sans-serif" font-size="14" lengthAdjust="spacing" textLength="114" x="677" y="117.1018">doc : string [0..1]</text><text fill="#000000" font-family="sans-serif" font-size="14" lengthAdjust="spacing" textLength="80" x="677" y="136.1697">el : keyword</text><text fill="#000000" font-family="sans-serif" font-size="14" lengthAdjust="spacing" textLength="81" x="677" y="155.2376">id : keyword</text><text fill="#000000" font-family="sans-serif" font-size="14" lengthAdjust="spacing" textLength="90" x="677" y="174.3055">name : string</text><line style="stroke:#181818;stroke-width:0.5;" x1="672" x2="803" y1="182.4075" y2="182.4075"/></g><!--class overarch_dataModel_isA--><g id="elem_overarch_dataModel_isA"><rect codeLine="37" fill="#F1F1F1" height="48" id="overarch_dataModel_isA" rx="2.5" ry="2.5" style="stroke:#181818;stroke-width:0.5;" width="56" x="1056.5" y="650.0679"/><ellipse cx="1071.5" cy="666.0679" fill="#ADD1B2" rx="11" ry="11" style="stroke:#181818;stroke-width:1.0;"/><path d="M1074.4688,671.7085 Q1073.8906,672.0054 1073.25,672.146 Q1072.6094,672.3023 1071.9063,672.3023 Q1069.4063,672.3023 1068.0781,670.6617 Q1066.7656,669.0054 1066.7656,665.8804 Q1066.7656,662.7554 1068.0781,661.0992 Q1069.4063,659.4429 1071.9063,659.4429 Q1072.6094,659.4429 1073.25,659.5992 Q1073.9063,659.7554 1074.4688,660.0523 L1074.4688,662.771 Q1073.8438,662.1929 1073.25,661.9273 Q1072.6563,661.646 1072.0313,661.646 Q1070.6875,661.646 1070,662.7242 Q1069.3125,663.7867 1069.3125,665.8804 Q1069.3125,667.9742 1070,669.0523 Q1070.6875,670.1148 1072.0313,670.1148 Q1072.6563,670.1148 1073.25,669.8492 Q1073.8438,669.5679 1074.4688,668.9898 L1074.4688,671.7085 Z " fill="#000000"/><text fill="#000000" font-family="sans-serif" font-size="14" lengthAdjust="spacing" textLength="24" x="1085.5" y="671.4999">is-a</text><line style="stroke:#181818;stroke-width:0.5;" x1="1057.5" x2="1111.5" y1="682.0679" y2="682.0679"/><line style="stroke:#181818;stroke-width:0.5;" x1="1057.5" x2="1111.5" y1="690.0679" y2="690.0679"/></g><!--reverse link overarch_dataModel_element to overarch_dataModel_modelElement--><g id="link_overarch_dataModel_element_overarch_dataModel_modelElement"><path codeLine="38" d="M737.5,208.2279 C737.5,228.5079 737.5,231.9879 737.5,249.9579 " fill="none" id="overarch_dataModel_element-backto-overarch_dataModel_modelElement" style="stroke:#181818;stroke-width:1.0;"/><polygon fill="none" points="737.5,190.2279,731.5,208.2279,743.5,208.2279,737.5,190.2279" style="stroke:#181818;stroke-width:1.0;"/></g><!--reverse link overarch_dataModel_boundaryNode to overarch_dataModel_contextBoundary--><g id="link_overarch_dataModel_boundaryNode_overarch_dataModel_contextBoundary"><path codeLine="39" d="M147.7354,603.2242 C131.2454,620.8842 120.85,632.0079 104.28,649.7479 " fill="none" id="overarch_dataModel_boundaryNode-backto-overarch_dataModel_contextBoundary" style="stroke:#181818;stroke-width:1.0;"/><polygon fill="none" points="160.02,590.0679,143.3499,599.1293,152.1208,607.3191,160.02,590.0679" style="stroke:#181818;stroke-width:1.0;"/></g><!--reverse link overarch_dataModel_modelElement to overarch_dataModel_modelNode--><g id="link_overarch_dataModel_modelElement_overarch_dataModel_modelNode"><path codeLine="40" d="M671.8666,347.4667 C640.2366,373.1967 614.92,393.7879 588.86,414.9979 " fill="none" id="overarch_dataModel_modelElement-backto-overarch_dataModel_modelNode" style="stroke:#181818;stroke-width:1.0;"/><polygon fill="none" points="685.83,336.1079,668.0803,342.8122,675.6528,352.1212,685.83,336.1079" style="stroke:#181818;stroke-width:1.0;"/></g><!--reverse link overarch_dataModel_boundaryNode to overarch_dataModel_enterpriseBoundary--><g id="link_overarch_dataModel_boundaryNode_overarch_dataModel_enterpriseBoundary"><path codeLine="41" d="M214.9805,603.2838 C231.3105,620.9438 241.54,632.0079 257.94,649.7479 " fill="none" id="overarch_dataModel_boundaryNode-backto-overarch_dataModel_enterpriseBoundary" style="stroke:#181818;stroke-width:1.0;"/><polygon fill="none" points="202.76,590.0679,210.5753,607.3573,219.3858,599.2102,202.76,590.0679" style="stroke:#181818;stroke-width:1.0;"/></g><!--reverse link overarch_dataModel_modelElement to overarch_dataModel_modelRelation--><g id="link_overarch_dataModel_modelElement_overarch_dataModel_modelRelation"><path codeLine="42" d="M806.0341,347.1256 C830.3741,365.9656 844.79,377.1279 869.13,395.9779 " fill="none" id="overarch_dataModel_modelElement-backto-overarch_dataModel_modelRelation" style="stroke:#181818;stroke-width:1.0;"/><polygon fill="none" points="791.8,336.1079,802.3616,351.8703,809.7067,342.3809,791.8,336.1079" style="stroke:#181818;stroke-width:1.0;"/></g><!--reverse link overarch_dataModel_conceptModelRelation to overarch_dataModel_rel--><g id="link_overarch_dataModel_conceptModelRelation_overarch_dataModel_rel"><path codeLine="43" d="M949.5482,604.8933 C961.7082,622.5533 968.22,632.0079 980.44,649.7479 " fill="none" id="overarch_dataModel_conceptModelRelation-backto-overarch_dataModel_rel" style="stroke:#181818;stroke-width:1.0;"/><polygon fill="none" points="939.34,590.0679,944.6064,608.2961,954.49,601.4906,939.34,590.0679" style="stroke:#181818;stroke-width:1.0;"/></g><!--reverse link overarch_dataModel_conceptModelRelation to overarch_dataModel_has--><g id="link_overarch_dataModel_conceptModelRelation_overarch_dataModel_has"><path codeLine="44" d="M917.727,607.8902 C915.227,625.5502 914.31,632.0079 911.8,649.7479 " fill="none" id="overarch_dataModel_conceptModelRelation-backto-overarch_dataModel_has" style="stroke:#181818;stroke-width:1.0;"/><polygon fill="none" points="920.25,590.0679,911.7863,607.0492,923.6678,608.7312,920.25,590.0679" style="stroke:#181818;stroke-width:1.0;"/></g><!--reverse link overarch_dataModel_conceptModelElement to overarch_dataModel_conceptModelNode--><g id="link_overarch_dataModel_conceptModelElement_overarch_dataModel_conceptModelNode"><path codeLine="45" d="M689.9168,473.6713 C658.1268,496.1213 624.93,519.5679 593.2,541.9779 " fill="none" id="overarch_dataModel_conceptModelElement-backto-overarch_dataModel_conceptModelNode" style="stroke:#181818;stroke-width:1.0;"/><polygon fill="none" points="704.62,463.2879,686.4556,468.7702,693.3779,478.5724,704.62,463.2879" style="stroke:#181818;stroke-width:1.0;"/></g><!--reverse link overarch_dataModel_modelNode to overarch_dataModel_conceptModelNode--><g id="link_overarch_dataModel_modelNode_overarch_dataModel_conceptModelNode"><path codeLine="46" d="M560.5,481.2879 C560.5,503.7379 560.5,519.5679 560.5,541.9779 " fill="none" id="overarch_dataModel_modelNode-backto-overarch_dataModel_conceptModelNode" style="stroke:#181818;stroke-width:1.0;"/><polygon fill="none" points="560.5,463.2879,554.5,481.2879,566.5,481.2879,560.5,463.2879" style="stroke:#181818;stroke-width:1.0;"/></g><!--reverse link overarch_dataModel_conceptModelNode to overarch_dataModel_container--><g id="link_overarch_dataModel_conceptModelNode_overarch_dataModel_container"><path codeLine="47" d="M628.3608,597.4183 C669.2008,615.6883 709.46,633.6879 749.41,651.5579 " fill="none" id="overarch_dataModel_conceptModelNode-backto-overarch_dataModel_container" style="stroke:#181818;stroke-width:1.0;"/><polygon fill="none" points="611.93,590.0679,625.9107,602.8953,630.8109,591.9414,611.93,590.0679" style="stroke:#181818;stroke-width:1.0;"/></g><!--reverse link overarch_dataModel_conceptModelNode to overarch_dataModel_enterpriseBoundary--><g id="link_overarch_dataModel_conceptModelNode_overarch_dataModel_enterpriseBoundary"><path codeLine="48" d="M482.6886,596.4215 C435.7186,614.1415 387.9,632.1779 340.84,649.9279 " fill="none" id="overarch_dataModel_conceptModelNode-backto-overarch_dataModel_enterpriseBoundary" style="stroke:#181818;stroke-width:1.0;"/><polygon fill="none" points="499.53,590.0679,480.5708,590.8077,484.8065,602.0353,499.53,590.0679" style="stroke:#181818;stroke-width:1.0;"/></g><!--reverse link overarch_dataModel_modelElement to overarch_dataModel_conceptModelElement--><g id="link_overarch_dataModel_modelElement_overarch_dataModel_conceptModelElement"><path codeLine="49" d="M737.5,354.1079 C737.5,379.8379 737.5,393.7879 737.5,414.9979 " fill="none" id="overarch_dataModel_modelElement-backto-overarch_dataModel_conceptModelElement" style="stroke:#181818;stroke-width:1.0;"/><polygon fill="none" points="737.5,336.1079,731.5,354.1079,743.5,354.1079,737.5,336.1079" style="stroke:#181818;stroke-width:1.0;"/></g><!--reverse link overarch_dataModel_conceptModelRelation to overarch_dataModel_isA--><g id="link_overarch_dataModel_conceptModelRelation_overarch_dataModel_isA"><path codeLine="50" d="M973.465,599.9648 C1002.785,619.2648 1029.09,636.5879 1056.33,654.5179 " fill="none" id="overarch_dataModel_conceptModelRelation-backto-overarch_dataModel_isA" style="stroke:#181818;stroke-width:1.0;"/><polygon fill="none" points="958.43,590.0679,970.1661,604.9765,976.764,594.9531,958.43,590.0679" style="stroke:#181818;stroke-width:1.0;"/></g><!--reverse link overarch_dataModel_conceptModelNode to overarch_dataModel_concept--><g id="link_overarch_dataModel_conceptModelNode_overarch_dataModel_concept"><path codeLine="51" d="M521.7713,602.1542 C502.2813,619.8142 488.82,632.0079 469.24,649.7479 " fill="none" id="overarch_dataModel_conceptModelNode-backto-overarch_dataModel_concept" style="stroke:#181818;stroke-width:1.0;"/><polygon fill="none" points="535.11,590.0679,517.7425,597.708,525.8,606.6005,535.11,590.0679" style="stroke:#181818;stroke-width:1.0;"/></g><!--reverse link overarch_dataModel_modelRelation to overarch_dataModel_conceptModelRelation--><g id="link_overarch_dataModel_modelRelation_overarch_dataModel_conceptModelRelation"><path codeLine="52" d="M923.5,500.3879 C923.5,520.2179 923.5,525.0879 923.5,541.7379 " fill="none" id="overarch_dataModel_modelRelation-backto-overarch_dataModel_conceptModelRelation" style="stroke:#181818;stroke-width:1.0;"/><polygon fill="none" points="923.5,482.3879,917.5,500.3879,929.5,500.3879,923.5,482.3879" style="stroke:#181818;stroke-width:1.0;"/></g><!--reverse link overarch_dataModel_conceptModelNode to overarch_dataModel_contextBoundary--><g id="link_overarch_dataModel_conceptModelNode_overarch_dataModel_contextBoundary"><path codeLine="53" d="M463.8289,587.0618 C385.8889,603.3118 281.09,625.6379 175.5,650.0679 C169.83,651.3779 163.97,652.7679 158.08,654.1779 " fill="none" id="overarch_dataModel_conceptModelNode-backto-overarch_dataModel_contextBoundary" style="stroke:#181818;stroke-width:1.0;"/><polygon fill="none" points="481.45,583.3879,462.6043,581.1881,465.0535,592.9355,481.45,583.3879" style="stroke:#181818;stroke-width:1.0;"/></g><!--reverse link overarch_dataModel_conceptModelNode to overarch_dataModel_person--><g id="link_overarch_dataModel_conceptModelNode_overarch_dataModel_person"><path codeLine="54" d="M560.5,608.0679 C560.5,625.7279 560.5,632.0079 560.5,649.7479 " fill="none" id="overarch_dataModel_conceptModelNode-backto-overarch_dataModel_person" style="stroke:#181818;stroke-width:1.0;"/><polygon fill="none" points="560.5,590.0679,554.5,608.0679,566.5,608.0679,560.5,590.0679" style="stroke:#181818;stroke-width:1.0;"/></g><!--reverse link overarch_dataModel_conceptModelElement to overarch_dataModel_conceptModelRelation--><g id="link_overarch_dataModel_conceptModelElement_overarch_dataModel_conceptModelRelation"><path codeLine="55" d="M786.9903,473.3271 C820.4003,495.7771 855.79,519.5679 889.14,541.9779 " fill="none" id="overarch_dataModel_conceptModelElement-backto-overarch_dataModel_conceptModelRelation" style="stroke:#181818;stroke-width:1.0;"/><polygon fill="none" points="772.05,463.2879,783.6439,478.3073,790.3368,468.347,772.05,463.2879" style="stroke:#181818;stroke-width:1.0;"/></g><!--reverse link overarch_dataModel_conceptModelNode to overarch_dataModel_system--><g id="link_overarch_dataModel_conceptModelNode_overarch_dataModel_system"><path codeLine="56" d="M598.4211,602.3259 C617.4111,619.9859 630.34,632.0079 649.42,649.7479 " fill="none" id="overarch_dataModel_conceptModelNode-backto-overarch_dataModel_system" style="stroke:#181818;stroke-width:1.0;"/><polygon fill="none" points="585.24,590.0679,594.3351,606.7196,602.5071,597.9322,585.24,590.0679" style="stroke:#181818;stroke-width:1.0;"/></g><!--SRC=[hLPDJyCm3BtdLqIxTu8huWA88nou8ZHvhTaYccHAFA22_NVIhxNTcgIYkrHAylnY-zbkI52E_46h57V4dtI6EN_CKQ8YorYQWxLyuHPeTaPOJDPwhp8mnOA3vVeJ3PXqkyg0eB9TTT3x1ib_3WpMbWoan1l2jBulaQLDWlLzFie6N2qQryOu9t790GdZN0BjZQ22t_0FBBwqoVZhrN9v_URE23RMxLkaTk_GPcI7nchbkwK-BPriuBQmXD87hqzxS1SnWL1e0Ycf0IT6-4rHXHfSNvwXAX4TUWPRi3wmEueBhzntYkhFxkENFCGYu-O6So3X5xD2lJIWgcRUZPPTlPI5edlBOtOSiO_J7Oqvr4eN3Aa5-Q8QfZWMNJ_DNP3dh96-mbvBPMZJict82BNfkYdJOxik4VrCYcomL23nQDHbLjW4V9u8UrVw7_3nzZT9OhE1nHBl8pdfBXQRGK5dofl-xSdv99xdJ5iTR6eL-TXSISxcSEE5JVnL19GQ31WM71zpMCv6MQXugh4-Y-M2me_aSxPqha7d9ga4ikYedXBKrAAUs_EJkUgdmoLh-o8Xra-KFm00]--></g></svg>