<svg xmlns="http://www.w3.org/2000/svg" xmlns:xlink="http://www.w3.org/1999/xlink" contentStyleType="text/css" height="737px" preserveAspectRatio="none" style="width:1133px;height:737px;background:#FFFFFF;" version="1.1" viewBox="0 0 1133 737" width="1133px" zoomAndPan="magnify"><defs/><g><text fill="#000000" font-family="sans-serif" font-size="14" font-weight="bold" lengthAdjust="spacing" textLength="195" x="462.25" y="22.9951">Concept Model Elements</text><!--class overarch_dataModel_identifiableNamedElement--><g id="elem_overarch_dataModel_identifiableNamedElement"><rect codeLine="9" fill="#F1F1F1" height="48" id="overarch_dataModel_identifiableNamedElement" rx="2.5" ry="2.5" style="stroke:#181818;stroke-width:0.5;" width="221" x="661" y="325.2969"/><ellipse cx="676" cy="341.2969" fill="#A9DCDF" rx="11" ry="11" style="stroke:#181818;stroke-width:1.0;"/><path d="M676.1094,336.6406 L674.9531,341.7188 L677.2813,341.7188 L676.1094,336.6406 Z M674.625,334.4063 L677.6094,334.4063 L680.9688,346.7969 L678.5156,346.7969 L677.75,343.7344 L674.4688,343.7344 L673.7188,346.7969 L671.2813,346.7969 L674.625,334.4063 Z " fill="#000000"/><text fill="#000000" font-family="sans-serif" font-size="14" font-style="italic" lengthAdjust="spacing" textLength="189" x="690" y="346.1436">identifiable-named-element</text><line style="stroke:#181818;stroke-width:0.5;" x1="662" x2="881" y1="357.2969" y2="357.2969"/><line style="stroke:#181818;stroke-width:0.5;" x1="662" x2="881" y1="365.2969" y2="365.2969"/></g><!--class overarch_dataModel_enterpriseBoundary--><g id="elem_overarch_dataModel_enterpriseBoundary"><rect codeLine="10" fill="#F1F1F1" height="48" id="overarch_dataModel_enterpriseBoundary" rx="2.5" ry="2.5" style="stroke:#181818;stroke-width:0.5;" width="173" x="7" y="682.2969"/><ellipse cx="22" cy="698.2969" fill="#ADD1B2" rx="11" ry="11" style="stroke:#181818;stroke-width:1.0;"/><path d="M24.9688,703.9375 Q24.3906,704.2344 23.75,704.375 Q23.1094,704.5313 22.4063,704.5313 Q19.9063,704.5313 18.5781,702.8906 Q17.2656,701.2344 17.2656,698.1094 Q17.2656,694.9844 18.5781,693.3281 Q19.9063,691.6719 22.4063,691.6719 Q23.1094,691.6719 23.75,691.8281 Q24.4063,691.9844 24.9688,692.2813 L24.9688,695 Q24.3438,694.4219 23.75,694.1563 Q23.1563,693.875 22.5313,693.875 Q21.1875,693.875 20.5,694.9531 Q19.8125,696.0156 19.8125,698.1094 Q19.8125,700.2031 20.5,701.2813 Q21.1875,702.3438 22.5313,702.3438 Q23.1563,702.3438 23.75,702.0781 Q24.3438,701.7969 24.9688,701.2188 L24.9688,703.9375 Z " fill="#000000"/><text fill="#000000" font-family="sans-serif" font-size="14" lengthAdjust="spacing" textLength="141" x="36" y="703.1436">enterprise-boundary</text><line style="stroke:#181818;stroke-width:0.5;" x1="8" x2="179" y1="714.2969" y2="714.2969"/><line style="stroke:#181818;stroke-width:0.5;" x1="8" x2="179" y1="722.2969" y2="722.2969"/></g><!--class overarch_dataModel_system--><g id="elem_overarch_dataModel_system"><rect codeLine="11" fill="#F1F1F1" height="48" id="overarch_dataModel_system" rx="2.5" ry="2.5" style="stroke:#181818;stroke-width:0.5;" width="82" x="215.5" y="682.2969"/><ellipse cx="230.5" cy="698.2969" fill="#ADD1B2" rx="11" ry="11" style="stroke:#181818;stroke-width:1.0;"/><path d="M233.4688,703.9375 Q232.8906,704.2344 232.25,704.375 Q231.6094,704.5313 230.9063,704.5313 Q228.4063,704.5313 227.0781,702.8906 Q225.7656,701.2344 225.7656,698.1094 Q225.7656,694.9844 227.0781,693.3281 Q228.4063,691.6719 230.9063,691.6719 Q231.6094,691.6719 232.25,691.8281 Q232.9063,691.9844 233.4688,692.2813 L233.4688,695 Q232.8438,694.4219 232.25,694.1563 Q231.6563,693.875 231.0313,693.875 Q229.6875,693.875 229,694.9531 Q228.3125,696.0156 228.3125,698.1094 Q228.3125,700.2031 229,701.2813 Q229.6875,702.3438 231.0313,702.3438 Q231.6563,702.3438 232.25,702.0781 Q232.8438,701.7969 233.4688,701.2188 L233.4688,703.9375 Z " fill="#000000"/><text fill="#000000" font-family="sans-serif" font-size="14" lengthAdjust="spacing" textLength="50" x="244.5" y="703.1436">system</text><line style="stroke:#181818;stroke-width:0.5;" x1="216.5" x2="296.5" y1="714.2969" y2="714.2969"/><line style="stroke:#181818;stroke-width:0.5;" x1="216.5" x2="296.5" y1="722.2969" y2="722.2969"/></g><!--class overarch_dataModel_conceptModelElement--><g id="elem_overarch_dataModel_conceptModelElement"><rect codeLine="12" fill="#F1F1F1" height="48" id="overarch_dataModel_conceptModelElement" rx="2.5" ry="2.5" style="stroke:#181818;stroke-width:0.5;" width="199" x="671" y="449.7969"/><ellipse cx="686" cy="465.7969" fill="#A9DCDF" rx="11" ry="11" style="stroke:#181818;stroke-width:1.0;"/><path d="M686.1094,461.1406 L684.9531,466.2188 L687.2813,466.2188 L686.1094,461.1406 Z M684.625,458.9063 L687.6094,458.9063 L690.9688,471.2969 L688.5156,471.2969 L687.75,468.2344 L684.4688,468.2344 L683.7188,471.2969 L681.2813,471.2969 L684.625,458.9063 Z " fill="#000000"/><text fill="#000000" font-family="sans-serif" font-size="14" font-style="italic" lengthAdjust="spacing" textLength="167" x="700" y="470.6436">concept-model-element</text><line style="stroke:#181818;stroke-width:0.5;" x1="672" x2="869" y1="481.7969" y2="481.7969"/><line style="stroke:#181818;stroke-width:0.5;" x1="672" x2="869" y1="489.7969" y2="489.7969"/></g><!--class overarch_dataModel_rel--><g id="elem_overarch_dataModel_rel"><rect codeLine="13" fill="#F1F1F1" height="48" id="overarch_dataModel_rel" rx="2.5" ry="2.5" style="stroke:#181818;stroke-width:0.5;" width="49" x="894" y="682.2969"/><ellipse cx="909" cy="698.2969" fill="#ADD1B2" rx="11" ry="11" style="stroke:#181818;stroke-width:1.0;"/><path d="M911.9688,703.9375 Q911.3906,704.2344 910.75,704.375 Q910.1094,704.5313 909.4063,704.5313 Q906.9063,704.5313 905.5781,702.8906 Q904.2656,701.2344 904.2656,698.1094 Q904.2656,694.9844 905.5781,693.3281 Q906.9063,691.6719 909.4063,691.6719 Q910.1094,691.6719 910.75,691.8281 Q911.4063,691.9844 911.9688,692.2813 L911.9688,695 Q911.3438,694.4219 910.75,694.1563 Q910.1563,693.875 909.5313,693.875 Q908.1875,693.875 907.5,694.9531 Q906.8125,696.0156 906.8125,698.1094 Q906.8125,700.2031 907.5,701.2813 Q908.1875,702.3438 909.5313,702.3438 Q910.1563,702.3438 910.75,702.0781 Q911.3438,701.7969 911.9688,701.2188 L911.9688,703.9375 Z " fill="#000000"/><text fill="#000000" font-family="sans-serif" font-size="14" lengthAdjust="spacing" textLength="17" x="923" y="703.1436">rel</text><line style="stroke:#181818;stroke-width:0.5;" x1="895" x2="942" y1="714.2969" y2="714.2969"/><line style="stroke:#181818;stroke-width:0.5;" x1="895" x2="942" y1="722.2969" y2="722.2969"/></g><!--class overarch_dataModel_element--><g id="elem_overarch_dataModel_element"><rect codeLine="14" fill="#F1F1F1" height="64.2969" id="overarch_dataModel_element" rx="2.5" ry="2.5" style="stroke:#181818;stroke-width:0.5;" width="95" x="819" y="44.2969"/><ellipse cx="836.7" cy="60.2969" fill="#A9DCDF" rx="11" ry="11" style="stroke:#181818;stroke-width:1.0;"/><path d="M836.8094,55.6406 L835.6531,60.7188 L837.9813,60.7188 L836.8094,55.6406 Z M835.325,53.4063 L838.3094,53.4063 L841.6688,65.7969 L839.2156,65.7969 L838.45,62.7344 L835.1688,62.7344 L834.4188,65.7969 L831.9813,65.7969 L835.325,53.4063 Z " fill="#000000"/><text fill="#000000" font-family="sans-serif" font-size="14" font-style="italic" lengthAdjust="spacing" textLength="57" x="851.3" y="65.1436">element</text><line style="stroke:#181818;stroke-width:0.5;" x1="820" x2="913" y1="76.2969" y2="76.2969"/><text fill="#000000" font-family="sans-serif" font-size="14" lengthAdjust="spacing" textLength="83" x="825" y="93.292">el : keyword</text><line style="stroke:#181818;stroke-width:0.5;" x1="820" x2="913" y1="100.5938" y2="100.5938"/></g><!--class overarch_dataModel_relation--><g id="elem_overarch_dataModel_relation"><rect codeLine="17" fill="#F1F1F1" height="80.5938" id="overarch_dataModel_relation" rx="2.5" ry="2.5" style="stroke:#181818;stroke-width:0.5;" width="114" x="905.5" y="433.2969"/><ellipse cx="934.45" cy="449.2969" fill="#A9DCDF" rx="11" ry="11" style="stroke:#181818;stroke-width:1.0;"/><path d="M934.5594,444.6406 L933.4031,449.7188 L935.7313,449.7188 L934.5594,444.6406 Z M933.075,442.4063 L936.0594,442.4063 L939.4188,454.7969 L936.9656,454.7969 L936.2,451.7344 L932.9188,451.7344 L932.1688,454.7969 L929.7313,454.7969 L933.075,442.4063 Z " fill="#000000"/><text fill="#000000" font-family="sans-serif" font-size="14" font-style="italic" lengthAdjust="spacing" textLength="51" x="951.55" y="454.1436">relation</text><line style="stroke:#181818;stroke-width:0.5;" x1="906.5" x2="1018.5" y1="465.2969" y2="465.2969"/><text fill="#000000" font-family="sans-serif" font-size="14" lengthAdjust="spacing" textLength="102" x="911.5" y="482.292">from : keyword</text><text fill="#000000" font-family="sans-serif" font-size="14" lengthAdjust="spacing" textLength="85" x="911.5" y="498.5889">to : keyword</text><line style="stroke:#181818;stroke-width:0.5;" x1="906.5" x2="1018.5" y1="505.8906" y2="505.8906"/></g><!--class overarch_dataModel_contextBoundary--><g id="elem_overarch_dataModel_contextBoundary"><rect codeLine="21" fill="#F1F1F1" height="48" id="overarch_dataModel_contextBoundary" rx="2.5" ry="2.5" style="stroke:#181818;stroke-width:0.5;" width="154" x="332.5" y="682.2969"/><ellipse cx="347.5" cy="698.2969" fill="#ADD1B2" rx="11" ry="11" style="stroke:#181818;stroke-width:1.0;"/><path d="M350.4688,703.9375 Q349.8906,704.2344 349.25,704.375 Q348.6094,704.5313 347.9063,704.5313 Q345.4063,704.5313 344.0781,702.8906 Q342.7656,701.2344 342.7656,698.1094 Q342.7656,694.9844 344.0781,693.3281 Q345.4063,691.6719 347.9063,691.6719 Q348.6094,691.6719 349.25,691.8281 Q349.9063,691.9844 350.4688,692.2813 L350.4688,695 Q349.8438,694.4219 349.25,694.1563 Q348.6563,693.875 348.0313,693.875 Q346.6875,693.875 346,694.9531 Q345.3125,696.0156 345.3125,698.1094 Q345.3125,700.2031 346,701.2813 Q346.6875,702.3438 348.0313,702.3438 Q348.6563,702.3438 349.25,702.0781 Q349.8438,701.7969 350.4688,701.2188 L350.4688,703.9375 Z " fill="#000000"/><text fill="#000000" font-family="sans-serif" font-size="14" lengthAdjust="spacing" textLength="122" x="361.5" y="703.1436">context-boundary</text><line style="stroke:#181818;stroke-width:0.5;" x1="333.5" x2="485.5" y1="714.2969" y2="714.2969"/><line style="stroke:#181818;stroke-width:0.5;" x1="333.5" x2="485.5" y1="722.2969" y2="722.2969"/></g><!--class overarch_dataModel_concept--><g id="elem_overarch_dataModel_concept"><rect codeLine="22" fill="#F1F1F1" height="48" id="overarch_dataModel_concept" rx="2.5" ry="2.5" style="stroke:#181818;stroke-width:0.5;" width="89" x="522" y="682.2969"/><ellipse cx="537" cy="698.2969" fill="#ADD1B2" rx="11" ry="11" style="stroke:#181818;stroke-width:1.0;"/><path d="M539.9688,703.9375 Q539.3906,704.2344 538.75,704.375 Q538.1094,704.5313 537.4063,704.5313 Q534.9063,704.5313 533.5781,702.8906 Q532.2656,701.2344 532.2656,698.1094 Q532.2656,694.9844 533.5781,693.3281 Q534.9063,691.6719 537.4063,691.6719 Q538.1094,691.6719 538.75,691.8281 Q539.4063,691.9844 539.9688,692.2813 L539.9688,695 Q539.3438,694.4219 538.75,694.1563 Q538.1563,693.875 537.5313,693.875 Q536.1875,693.875 535.5,694.9531 Q534.8125,696.0156 534.8125,698.1094 Q534.8125,700.2031 535.5,701.2813 Q536.1875,702.3438 537.5313,702.3438 Q538.1563,702.3438 538.75,702.0781 Q539.3438,701.7969 539.9688,701.2188 L539.9688,703.9375 Z " fill="#000000"/><text fill="#000000" font-family="sans-serif" font-size="14" lengthAdjust="spacing" textLength="57" x="551" y="703.1436">concept</text><line style="stroke:#181818;stroke-width:0.5;" x1="523" x2="610" y1="714.2969" y2="714.2969"/><line style="stroke:#181818;stroke-width:0.5;" x1="523" x2="610" y1="722.2969" y2="722.2969"/></g><!--class overarch_dataModel_has--><g id="elem_overarch_dataModel_has"><rect codeLine="23" fill="#F1F1F1" height="48" id="overarch_dataModel_has" rx="2.5" ry="2.5" style="stroke:#181818;stroke-width:0.5;" width="57" x="978" y="682.2969"/><ellipse cx="993" cy="698.2969" fill="#ADD1B2" rx="11" ry="11" style="stroke:#181818;stroke-width:1.0;"/><path d="M995.9688,703.9375 Q995.3906,704.2344 994.75,704.375 Q994.1094,704.5313 993.4063,704.5313 Q990.9063,704.5313 989.5781,702.8906 Q988.2656,701.2344 988.2656,698.1094 Q988.2656,694.9844 989.5781,693.3281 Q990.9063,691.6719 993.4063,691.6719 Q994.1094,691.6719 994.75,691.8281 Q995.4063,691.9844 995.9688,692.2813 L995.9688,695 Q995.3438,694.4219 994.75,694.1563 Q994.1563,693.875 993.5313,693.875 Q992.1875,693.875 991.5,694.9531 Q990.8125,696.0156 990.8125,698.1094 Q990.8125,700.2031 991.5,701.2813 Q992.1875,702.3438 993.5313,702.3438 Q994.1563,702.3438 994.75,702.0781 Q995.3438,701.7969 995.9688,701.2188 L995.9688,703.9375 Z " fill="#000000"/><text fill="#000000" font-family="sans-serif" font-size="14" lengthAdjust="spacing" textLength="25" x="1007" y="703.1436">has</text><line style="stroke:#181818;stroke-width:0.5;" x1="979" x2="1034" y1="714.2969" y2="714.2969"/><line style="stroke:#181818;stroke-width:0.5;" x1="979" x2="1034" y1="722.2969" y2="722.2969"/></g><!--class overarch_dataModel_namedElement--><g id="elem_overarch_dataModel_namedElement"><rect codeLine="24" fill="#F1F1F1" height="96.8906" id="overarch_dataModel_namedElement" rx="2.5" ry="2.5" style="stroke:#181818;stroke-width:0.5;" width="142" x="700.5" y="168.2969"/><ellipse cx="715.5" cy="184.2969" fill="#A9DCDF" rx="11" ry="11" style="stroke:#181818;stroke-width:1.0;"/><path d="M715.6094,179.6406 L714.4531,184.7188 L716.7813,184.7188 L715.6094,179.6406 Z M714.125,177.4063 L717.1094,177.4063 L720.4688,189.7969 L718.0156,189.7969 L717.25,186.7344 L713.9688,186.7344 L713.2188,189.7969 L710.7813,189.7969 L714.125,177.4063 Z " fill="#000000"/><text fill="#000000" font-family="sans-serif" font-size="14" font-style="italic" lengthAdjust="spacing" textLength="110" x="729.5" y="189.1436">named-element</text><line style="stroke:#181818;stroke-width:0.5;" x1="701.5" x2="841.5" y1="200.2969" y2="200.2969"/><text fill="#000000" font-family="sans-serif" font-size="14" lengthAdjust="spacing" textLength="91" x="706.5" y="217.292">name : string</text><text fill="#000000" font-family="sans-serif" font-size="14" lengthAdjust="spacing" textLength="126" x="706.5" y="233.5889">desc : string [0..1]</text><text fill="#000000" font-family="sans-serif" font-size="14" lengthAdjust="spacing" textLength="118" x="706.5" y="249.8857">doc : string [0..1]</text><line style="stroke:#181818;stroke-width:0.5;" x1="701.5" x2="841.5" y1="257.1875" y2="257.1875"/></g><!--class overarch_dataModel_conceptModelNode--><g id="elem_overarch_dataModel_conceptModelNode"><rect codeLine="29" fill="#F1F1F1" height="48" id="overarch_dataModel_conceptModelNode" rx="2.5" ry="2.5" style="stroke:#181818;stroke-width:0.5;" width="178" x="477.5" y="574.2969"/><ellipse cx="492.5" cy="590.2969" fill="#A9DCDF" rx="11" ry="11" style="stroke:#181818;stroke-width:1.0;"/><path d="M492.6094,585.6406 L491.4531,590.7188 L493.7813,590.7188 L492.6094,585.6406 Z M491.125,583.4063 L494.1094,583.4063 L497.4688,595.7969 L495.0156,595.7969 L494.25,592.7344 L490.9688,592.7344 L490.2188,595.7969 L487.7813,595.7969 L491.125,583.4063 Z " fill="#000000"/><text fill="#000000" font-family="sans-serif" font-size="14" font-style="italic" lengthAdjust="spacing" textLength="146" x="506.5" y="595.1436">concept-model-node</text><line style="stroke:#181818;stroke-width:0.5;" x1="478.5" x2="654.5" y1="606.2969" y2="606.2969"/><line style="stroke:#181818;stroke-width:0.5;" x1="478.5" x2="654.5" y1="614.2969" y2="614.2969"/></g><!--class overarch_dataModel_identifiableElement--><g id="elem_overarch_dataModel_identifiableElement"><rect codeLine="30" fill="#F1F1F1" height="64.2969" id="overarch_dataModel_identifiableElement" rx="2.5" ry="2.5" style="stroke:#181818;stroke-width:0.5;" width="168" x="877.5" y="184.7969"/><ellipse cx="892.5" cy="200.7969" fill="#A9DCDF" rx="11" ry="11" style="stroke:#181818;stroke-width:1.0;"/><path d="M892.6094,196.1406 L891.4531,201.2188 L893.7813,201.2188 L892.6094,196.1406 Z M891.125,193.9063 L894.1094,193.9063 L897.4688,206.2969 L895.0156,206.2969 L894.25,203.2344 L890.9688,203.2344 L890.2188,206.2969 L887.7813,206.2969 L891.125,193.9063 Z " fill="#000000"/><text fill="#000000" font-family="sans-serif" font-size="14" font-style="italic" lengthAdjust="spacing" textLength="136" x="906.5" y="205.6436">identifiable-element</text><line style="stroke:#181818;stroke-width:0.5;" x1="878.5" x2="1044.5" y1="216.7969" y2="216.7969"/><text fill="#000000" font-family="sans-serif" font-size="14" lengthAdjust="spacing" textLength="83" x="883.5" y="233.792">id : keyword</text><line style="stroke:#181818;stroke-width:0.5;" x1="878.5" x2="1044.5" y1="241.0938" y2="241.0938"/></g><!--class overarch_dataModel_conceptModelRelation--><g id="elem_overarch_dataModel_conceptModelRelation"><rect codeLine="33" fill="#F1F1F1" height="48" id="overarch_dataModel_conceptModelRelation" rx="2.5" ry="2.5" style="stroke:#181818;stroke-width:0.5;" width="193" x="866" y="574.2969"/><ellipse cx="881" cy="590.2969" fill="#A9DCDF" rx="11" ry="11" style="stroke:#181818;stroke-width:1.0;"/><path d="M881.1094,585.6406 L879.9531,590.7188 L882.2813,590.7188 L881.1094,585.6406 Z M879.625,583.4063 L882.6094,583.4063 L885.9688,595.7969 L883.5156,595.7969 L882.75,592.7344 L879.4688,592.7344 L878.7188,595.7969 L876.2813,595.7969 L879.625,583.4063 Z " fill="#000000"/><text fill="#000000" font-family="sans-serif" font-size="14" font-style="italic" lengthAdjust="spacing" textLength="161" x="895" y="595.1436">concept-model-relation</text><line style="stroke:#181818;stroke-width:0.5;" x1="867" x2="1058" y1="606.2969" y2="606.2969"/><line style="stroke:#181818;stroke-width:0.5;" x1="867" x2="1058" y1="614.2969" y2="614.2969"/></g><!--class overarch_dataModel_person--><g id="elem_overarch_dataModel_person"><rect codeLine="34" fill="#F1F1F1" height="48" id="overarch_dataModel_person" rx="2.5" ry="2.5" style="stroke:#181818;stroke-width:0.5;" width="81" x="646" y="682.2969"/><ellipse cx="661" cy="698.2969" fill="#ADD1B2" rx="11" ry="11" style="stroke:#181818;stroke-width:1.0;"/><path d="M663.9688,703.9375 Q663.3906,704.2344 662.75,704.375 Q662.1094,704.5313 661.4063,704.5313 Q658.9063,704.5313 657.5781,702.8906 Q656.2656,701.2344 656.2656,698.1094 Q656.2656,694.9844 657.5781,693.3281 Q658.9063,691.6719 661.4063,691.6719 Q662.1094,691.6719 662.75,691.8281 Q663.4063,691.9844 663.9688,692.2813 L663.9688,695 Q663.3438,694.4219 662.75,694.1563 Q662.1563,693.875 661.5313,693.875 Q660.1875,693.875 659.5,694.9531 Q658.8125,696.0156 658.8125,698.1094 Q658.8125,700.2031 659.5,701.2813 Q660.1875,702.3438 661.5313,702.3438 Q662.1563,702.3438 662.75,702.0781 Q663.3438,701.7969 663.9688,701.2188 L663.9688,703.9375 Z " fill="#000000"/><text fill="#000000" font-family="sans-serif" font-size="14" lengthAdjust="spacing" textLength="49" x="675" y="703.1436">person</text><line style="stroke:#181818;stroke-width:0.5;" x1="647" x2="726" y1="714.2969" y2="714.2969"/><line style="stroke:#181818;stroke-width:0.5;" x1="647" x2="726" y1="722.2969" y2="722.2969"/></g><!--class overarch_dataModel_container--><g id="elem_overarch_dataModel_container"><rect codeLine="35" fill="#F1F1F1" height="48" id="overarch_dataModel_container" rx="2.5" ry="2.5" style="stroke:#181818;stroke-width:0.5;" width="97" x="762" y="682.2969"/><ellipse cx="777" cy="698.2969" fill="#ADD1B2" rx="11" ry="11" style="stroke:#181818;stroke-width:1.0;"/><path d="M779.9688,703.9375 Q779.3906,704.2344 778.75,704.375 Q778.1094,704.5313 777.4063,704.5313 Q774.9063,704.5313 773.5781,702.8906 Q772.2656,701.2344 772.2656,698.1094 Q772.2656,694.9844 773.5781,693.3281 Q774.9063,691.6719 777.4063,691.6719 Q778.1094,691.6719 778.75,691.8281 Q779.4063,691.9844 779.9688,692.2813 L779.9688,695 Q779.3438,694.4219 778.75,694.1563 Q778.1563,693.875 777.5313,693.875 Q776.1875,693.875 775.5,694.9531 Q774.8125,696.0156 774.8125,698.1094 Q774.8125,700.2031 775.5,701.2813 Q776.1875,702.3438 777.5313,702.3438 Q778.1563,702.3438 778.75,702.0781 Q779.3438,701.7969 779.9688,701.2188 L779.9688,703.9375 Z " fill="#000000"/><text fill="#000000" font-family="sans-serif" font-size="14" lengthAdjust="spacing" textLength="65" x="791" y="703.1436">container</text><line style="stroke:#181818;stroke-width:0.5;" x1="763" x2="858" y1="714.2969" y2="714.2969"/><line style="stroke:#181818;stroke-width:0.5;" x1="763" x2="858" y1="722.2969" y2="722.2969"/></g><!--class overarch_dataModel_isA--><g id="elem_overarch_dataModel_isA"><rect codeLine="36" fill="#F1F1F1" height="48" id="overarch_dataModel_isA" rx="2.5" ry="2.5" style="stroke:#181818;stroke-width:0.5;" width="56" x="1070.5" y="682.2969"/><ellipse cx="1085.5" cy="698.2969" fill="#ADD1B2" rx="11" ry="11" style="stroke:#181818;stroke-width:1.0;"/><path d="M1088.4688,703.9375 Q1087.8906,704.2344 1087.25,704.375 Q1086.6094,704.5313 1085.9063,704.5313 Q1083.4063,704.5313 1082.0781,702.8906 Q1080.7656,701.2344 1080.7656,698.1094 Q1080.7656,694.9844 1082.0781,693.3281 Q1083.4063,691.6719 1085.9063,691.6719 Q1086.6094,691.6719 1087.25,691.8281 Q1087.9063,691.9844 1088.4688,692.2813 L1088.4688,695 Q1087.8438,694.4219 1087.25,694.1563 Q1086.6563,693.875 1086.0313,693.875 Q1084.6875,693.875 1084,694.9531 Q1083.3125,696.0156 1083.3125,698.1094 Q1083.3125,700.2031 1084,701.2813 Q1084.6875,702.3438 1086.0313,702.3438 Q1086.6563,702.3438 1087.25,702.0781 Q1087.8438,701.7969 1088.4688,701.2188 L1088.4688,703.9375 Z " fill="#000000"/><text fill="#000000" font-family="sans-serif" font-size="14" lengthAdjust="spacing" textLength="24" x="1099.5" y="703.1436">is-a</text><line style="stroke:#181818;stroke-width:0.5;" x1="1071.5" x2="1125.5" y1="714.2969" y2="714.2969"/><line style="stroke:#181818;stroke-width:0.5;" x1="1071.5" x2="1125.5" y1="722.2969" y2="722.2969"/></g><!--reverse link overarch_dataModel_element to overarch_dataModel_identifiableElement--><g id="link_overarch_dataModel_element_overarch_dataModel_identifiableElement"><path codeLine="37" d="M898.0033,123.2194 C913.5433,145.8694 924.33,161.6069 939.92,184.3369 " fill="none" id="overarch_dataModel_element-backto-overarch_dataModel_identifiableElement" style="stroke:#181818;stroke-width:1.0;"/><polygon fill="none" points="887.82,108.3769,893.0558,126.6138,902.9508,119.8249,887.82,108.3769" style="stroke:#181818;stroke-width:1.0;"/></g><!--reverse link overarch_dataModel_element to overarch_dataModel_namedElement--><g id="link_overarch_dataModel_element_overarch_dataModel_namedElement"><path codeLine="38" d="M835,123.2217 C822.91,140.8517 817.71,148.4269 804.13,168.2269 " fill="none" id="overarch_dataModel_element-backto-overarch_dataModel_namedElement" style="stroke:#181818;stroke-width:1.0;"/><polygon fill="none" points="845.18,108.3769,830.0517,119.8283,839.9483,126.615,845.18,108.3769" style="stroke:#181818;stroke-width:1.0;"/></g><!--reverse link overarch_dataModel_identifiableElement to overarch_dataModel_identifiableNamedElement--><g id="link_overarch_dataModel_identifiableElement_overarch_dataModel_identifiableNamedElement"><path codeLine="39" d="M901.1529,259.2481 C867.0129,282.6981 835.87,304.0869 805.04,325.2669 " fill="none" id="overarch_dataModel_identifiableElement-backto-overarch_dataModel_identifiableNamedElement" style="stroke:#181818;stroke-width:1.0;"/><polygon fill="none" points="915.99,249.0569,897.7559,254.3024,904.55,264.1938,915.99,249.0569" style="stroke:#181818;stroke-width:1.0;"/></g><!--reverse link overarch_dataModel_namedElement to overarch_dataModel_identifiableNamedElement--><g id="link_overarch_dataModel_namedElement_overarch_dataModel_identifiableNamedElement"><path codeLine="40" d="M771.5,283.6469 C771.5,303.8769 771.5,308.4969 771.5,324.9569 " fill="none" id="overarch_dataModel_namedElement-backto-overarch_dataModel_identifiableNamedElement" style="stroke:#181818;stroke-width:1.0;"/><polygon fill="none" points="771.5,265.6469,765.5,283.6469,777.5,283.6469,771.5,265.6469" style="stroke:#181818;stroke-width:1.0;"/></g><!--reverse link overarch_dataModel_identifiableElement to overarch_dataModel_relation--><g id="link_overarch_dataModel_identifiableElement_overarch_dataModel_relation"><path codeLine="41" d="M961.6899,266.8067 C961.8699,313.1367 962.15,382.3769 962.34,433.2269 " fill="none" id="overarch_dataModel_identifiableElement-backto-overarch_dataModel_relation" style="stroke:#181818;stroke-width:1.0;"/><polygon fill="none" points="961.62,248.8069,955.69,266.8301,967.6899,266.7834,961.62,248.8069" style="stroke:#181818;stroke-width:1.0;"/></g><!--reverse link overarch_dataModel_identifiableNamedElement to overarch_dataModel_conceptModelElement--><g id="link_overarch_dataModel_identifiableNamedElement_overarch_dataModel_conceptModelElement"><path codeLine="42" d="M771.1611,391.3363 C770.9811,413.0963 770.87,427.5769 770.69,449.4469 " fill="none" id="overarch_dataModel_identifiableNamedElement-backto-overarch_dataModel_conceptModelElement" style="stroke:#181818;stroke-width:1.0;"/><polygon fill="none" points="771.31,373.3369,765.1613,391.2866,777.1609,391.3859,771.31,373.3369" style="stroke:#181818;stroke-width:1.0;"/></g><!--reverse link overarch_dataModel_conceptModelElement to overarch_dataModel_conceptModelNode--><g id="link_overarch_dataModel_conceptModelElement_overarch_dataModel_conceptModelNode"><path codeLine="43" d="M716.6977,507.1022 C680.3377,528.9322 641.46,552.2869 605.05,574.1469 " fill="none" id="overarch_dataModel_conceptModelElement-backto-overarch_dataModel_conceptModelNode" style="stroke:#181818;stroke-width:1.0;"/><polygon fill="none" points="732.13,497.8369,713.6093,501.9581,719.7862,512.2463,732.13,497.8369" style="stroke:#181818;stroke-width:1.0;"/></g><!--reverse link overarch_dataModel_conceptModelElement to overarch_dataModel_conceptModelRelation--><g id="link_overarch_dataModel_conceptModelElement_overarch_dataModel_conceptModelRelation"><path codeLine="44" d="M821.7851,507.5176 C856.0051,529.3476 891.95,552.2869 926.22,574.1469 " fill="none" id="overarch_dataModel_conceptModelElement-backto-overarch_dataModel_conceptModelRelation" style="stroke:#181818;stroke-width:1.0;"/><polygon fill="none" points="806.61,497.8369,818.5582,512.5759,825.012,502.4592,806.61,497.8369" style="stroke:#181818;stroke-width:1.0;"/></g><!--reverse link overarch_dataModel_relation to overarch_dataModel_conceptModelRelation--><g id="link_overarch_dataModel_relation_overarch_dataModel_conceptModelRelation"><path codeLine="45" d="M962.5,532.5669 C962.5,552.2669 962.5,557.3669 962.5,574.1369 " fill="none" id="overarch_dataModel_relation-backto-overarch_dataModel_conceptModelRelation" style="stroke:#181818;stroke-width:1.0;"/><polygon fill="none" points="962.5,514.5669,956.5,532.5669,968.5,532.5669,962.5,514.5669" style="stroke:#181818;stroke-width:1.0;"/></g><!--reverse link overarch_dataModel_conceptModelNode to overarch_dataModel_concept--><g id="link_overarch_dataModel_conceptModelNode_overarch_dataModel_concept"><path codeLine="46" d="M566.5,640.2969 C566.5,657.9569 566.5,664.2369 566.5,681.9769 " fill="none" id="overarch_dataModel_conceptModelNode-backto-overarch_dataModel_concept" style="stroke:#181818;stroke-width:1.0;"/><polygon fill="none" points="566.5,622.2969,560.5,640.2969,572.5,640.2969,566.5,622.2969" style="stroke:#181818;stroke-width:1.0;"/></g><!--reverse link overarch_dataModel_conceptModelNode to overarch_dataModel_enterpriseBoundary--><g id="link_overarch_dataModel_conceptModelNode_overarch_dataModel_enterpriseBoundary"><path codeLine="47" d="M459.6857,623.2335 C374.5557,642.3135 264.7,666.9269 180.37,685.8269 " fill="none" id="overarch_dataModel_conceptModelNode-backto-overarch_dataModel_enterpriseBoundary" style="stroke:#181818;stroke-width:1.0;"/><polygon fill="none" points="477.25,619.2969,458.3735,617.3788,460.998,629.0883,477.25,619.2969" style="stroke:#181818;stroke-width:1.0;"/></g><!--reverse link overarch_dataModel_conceptModelNode to overarch_dataModel_contextBoundary--><g id="link_overarch_dataModel_conceptModelNode_overarch_dataModel_contextBoundary"><path codeLine="48" d="M517.5128,632.3705 C491.2728,650.0905 470.07,664.4069 443.77,682.1569 " fill="none" id="overarch_dataModel_conceptModelNode-backto-overarch_dataModel_contextBoundary" style="stroke:#181818;stroke-width:1.0;"/><polygon fill="none" points="532.43,622.2969,514.155,627.3981,520.8707,637.3429,532.43,622.2969" style="stroke:#181818;stroke-width:1.0;"/></g><!--reverse link overarch_dataModel_conceptModelNode to overarch_dataModel_person--><g id="link_overarch_dataModel_conceptModelNode_overarch_dataModel_person"><path codeLine="49" d="M606.0298,634.2143 C626.0198,651.8743 640.02,664.2369 660.1,681.9769 " fill="none" id="overarch_dataModel_conceptModelNode-backto-overarch_dataModel_person" style="stroke:#181818;stroke-width:1.0;"/><polygon fill="none" points="592.54,622.2969,602.0573,638.7109,610.0023,629.7177,592.54,622.2969" style="stroke:#181818;stroke-width:1.0;"/></g><!--reverse link overarch_dataModel_conceptModelNode to overarch_dataModel_system--><g id="link_overarch_dataModel_conceptModelNode_overarch_dataModel_system"><path codeLine="50" d="M475.6278,627.7659 C425.1678,643.8259 374.04,660.7069 314.5,682.2969 C309,684.2869 303.24,686.4669 297.58,688.6569 " fill="none" id="overarch_dataModel_conceptModelNode-backto-overarch_dataModel_system" style="stroke:#181818;stroke-width:1.0;"/><polygon fill="none" points="492.78,622.3069,473.8081,622.0485,477.4475,633.4833,492.78,622.3069" style="stroke:#181818;stroke-width:1.0;"/></g><!--reverse link overarch_dataModel_conceptModelNode to overarch_dataModel_container--><g id="link_overarch_dataModel_conceptModelNode_overarch_dataModel_container"><path codeLine="51" d="M635.9493,629.4692 C678.2793,647.8592 720.64,666.2569 761.81,684.1469 " fill="none" id="overarch_dataModel_conceptModelNode-backto-overarch_dataModel_container" style="stroke:#181818;stroke-width:1.0;"/><polygon fill="none" points="619.44,622.2969,633.5585,634.9723,638.3401,623.9661,619.44,622.2969" style="stroke:#181818;stroke-width:1.0;"/></g><!--reverse link overarch_dataModel_conceptModelRelation to overarch_dataModel_isA--><g id="link_overarch_dataModel_conceptModelRelation_overarch_dataModel_isA"><path codeLine="52" d="M1006.2055,633.3643 C1029.4855,651.5143 1047.55,665.5869 1070.44,683.4269 " fill="none" id="overarch_dataModel_conceptModelRelation-backto-overarch_dataModel_isA" style="stroke:#181818;stroke-width:1.0;"/><polygon fill="none" points="992.01,622.2969,1002.5164,638.0961,1009.8947,628.6324,992.01,622.2969" style="stroke:#181818;stroke-width:1.0;"/></g><!--reverse link overarch_dataModel_conceptModelRelation to overarch_dataModel_has--><g id="link_overarch_dataModel_conceptModelRelation_overarch_dataModel_has"><path codeLine="53" d="M978.9503,638.9217 C986.2803,656.5817 989.46,664.2369 996.82,681.9769 " fill="none" id="overarch_dataModel_conceptModelRelation-backto-overarch_dataModel_has" style="stroke:#181818;stroke-width:1.0;"/><polygon fill="none" points="972.05,622.2969,973.4087,641.2218,984.492,636.6216,972.05,622.2969" style="stroke:#181818;stroke-width:1.0;"/></g><!--reverse link overarch_dataModel_conceptModelRelation to overarch_dataModel_rel--><g id="link_overarch_dataModel_conceptModelRelation_overarch_dataModel_rel"><path codeLine="54" d="M946.0497,638.9217 C938.7197,656.5817 935.54,664.2369 928.18,681.9769 " fill="none" id="overarch_dataModel_conceptModelRelation-backto-overarch_dataModel_rel" style="stroke:#181818;stroke-width:1.0;"/><polygon fill="none" points="952.95,622.2969,940.508,636.6216,951.5913,641.2218,952.95,622.2969" style="stroke:#181818;stroke-width:1.0;"/></g><!--SRC=[hPKzRyCW48PtVWNAJjIkLPUqwjWCMQig8kRIeDeG0Vs8slxtWkquk3Q6b2n8mDt3tV5o66vAmFTI5B0t-54oAF532HK8en6Y6sqKBGmkIgerdd5cr_cMqqq9HD0A6876U8Qfnl8T55N5RiseeJLhxNiidKCBnry_g8NQ6QYzuXh8Hhu9HjKXH3kPthMM7aSVj84gvDhiElE_IHLDygHoTh5yMkDwCan5GHboj5jZXqUEW-CH26CBkC6lSFYGYg4XoHv03PTY8e1wlsPjbQmy6iP6zk2dqXZuDD5xQUr6BgMjLwISdiEEwf2ntHehOP8EHKzxDc6tO5EsA2vUx9o1BhevVhgQpw-VtR8ShiOa9EoOef-b7SOIwhsoCzwNdnvdasBf1noJZX_qgfDHTsLxK3hitEps9M4e5w2cr5GRU4vS4ngiWLuuouddS_jDI6Br_eFnnOKIBoabf6M4snFr9O3d17eK3JgdwuTW8sqL9NRV5AHxQPVahIPox_fiBcZGAYB0BCRmPyqDoVyGibXD0yb2D9z_TaPrKqAf3JBu8FKYcs6_mco65Uel]--></g></svg>