<?xml version="1.0" encoding="us-ascii" standalone="no"?><svg xmlns="http://www.w3.org/2000/svg" xmlns:xlink="http://www.w3.org/1999/xlink" contentStyleType="text/css" height="690px" preserveAspectRatio="none" style="width:592px;height:690px;background:#FFFFFF;" version="1.1" viewBox="0 0 592 690" width="592px" zoomAndPan="magnify"><defs/><g><text fill="#000000" font-family="sans-serif" font-size="14" font-weight="bold" lengthAdjust="spacing" textLength="200" x="189" y="24.5332">Deployment Model Elements</text><!--class overarch_dataModel_technicalElement--><g id="elem_overarch_dataModel_technicalElement"><rect codeLine="9" fill="#F1F1F1" height="65.6094" id="overarch_dataModel_technicalElement" rx="2.5" ry="2.5" style="stroke:#181818;stroke-width:0.5;" width="143" x="37" y="250.1094"/><ellipse cx="52" cy="266.1094" fill="#A9DCDF" rx="11" ry="11" style="stroke:#181818;stroke-width:1.0;"/><path d="M54.1875,267.875 L50.0469,267.875 L49.625,268.9063 L50.0469,268.9063 Q50.6563,268.9063 50.9219,269.1406 Q51.1875,269.375 51.1875,269.7656 Q51.1875,270.1406 50.9219,270.375 Q50.6563,270.6094 50.0469,270.6094 L47.75,270.6094 Q47.1406,270.6094 46.8906,270.375 Q46.625,270.1406 46.625,269.75 Q46.625,269.375 46.9063,269.1406 Q47.1719,268.8906 47.7969,268.9063 L50.4688,262.25 L49.3594,262.25 Q48.75,262.25 48.4844,262.0156 Q48.2188,261.7813 48.2188,261.3906 Q48.2188,261.0156 48.4844,260.7813 Q48.75,260.5469 49.3594,260.5469 L53.0313,260.5469 L56.4219,268.9063 Q57.0156,268.9063 57.2031,269.0469 Q57.5938,269.3125 57.5938,269.7656 Q57.5938,270.1406 57.3281,270.375 Q57.0781,270.6094 56.4688,270.6094 L54.1719,270.6094 Q53.5625,270.6094 53.2969,270.375 Q53.0313,270.1406 53.0313,269.75 Q53.0313,269.375 53.2969,269.1406 Q53.5625,268.9063 54.1719,268.9063 L54.5938,268.9063 L54.1875,267.875 Z M53.4688,266.1719 L52.1094,262.7969 L50.7344,266.1719 L53.4688,266.1719 Z " fill="#000000"/><text fill="#000000" font-family="sans-serif" font-size="14" font-style="italic" lengthAdjust="spacing" textLength="111" x="66" y="271.8379">technical-element</text><line style="stroke:#181818;stroke-width:0.5;" x1="38" x2="179" y1="282.1094" y2="282.1094"/><text fill="#000000" font-family="sans-serif" font-size="14" lengthAdjust="spacing" textLength="110" x="43" y="300.6426">tech : string [0..1]</text><line style="stroke:#181818;stroke-width:0.5;" x1="38" x2="179" y1="307.7188" y2="307.7188"/></g><!--class overarch_dataModel_node--><g id="elem_overarch_dataModel_node"><rect codeLine="12" fill="#F1F1F1" height="48" id="overarch_dataModel_node" rx="2.5" ry="2.5" style="stroke:#181818;stroke-width:0.5;" width="64" x="394.5" y="635.6094"/><ellipse cx="409.5" cy="651.6094" fill="#ADD1B2" rx="11" ry="11" style="stroke:#181818;stroke-width:1.0;"/><path d="M412.2656,647.4844 Q412.4219,647.2656 412.6094,647.1563 Q412.7969,647.0469 413.0156,647.0469 Q413.3906,647.0469 413.625,647.3125 Q413.8594,647.5625 413.8594,648.1719 L413.8594,649.625 Q413.8594,650.2344 413.625,650.5 Q413.3906,650.7656 413.0156,650.7656 Q412.6719,650.7656 412.4688,650.5625 Q412.2656,650.375 412.1563,649.8594 Q412.1094,649.5 411.9219,649.3125 Q411.5938,648.9375 410.9844,648.7188 Q410.375,648.5 409.75,648.5 Q408.9844,648.5 408.3438,648.8281 Q407.7188,649.1563 407.2188,649.9063 Q406.7344,650.6563 406.7344,651.6875 L406.7344,652.7813 Q406.7344,654.0156 407.625,654.8438 Q408.5156,655.6563 410.1094,655.6563 Q411.0469,655.6563 411.7031,655.4063 Q412.0938,655.25 412.5156,654.8125 Q412.7813,654.5469 412.9219,654.4688 Q413.0781,654.3906 413.2813,654.3906 Q413.6094,654.3906 413.8594,654.6563 Q414.125,654.9063 414.125,655.25 Q414.125,655.5938 413.7813,656 Q413.2813,656.5781 412.4844,656.9063 Q411.4063,657.3594 410.1094,657.3594 Q408.5938,657.3594 407.3906,656.7344 Q406.4063,656.2344 405.7188,655.1719 Q405.0313,654.0938 405.0313,652.8125 L405.0313,651.6563 Q405.0313,650.3281 405.6406,649.1875 Q406.2656,648.0313 407.3594,647.4219 Q408.4531,646.7969 409.6875,646.7969 Q410.4219,646.7969 411.0625,646.9688 Q411.7188,647.125 412.2656,647.4844 Z " fill="#000000"/><text fill="#000000" font-family="sans-serif" font-size="14" lengthAdjust="spacing" textLength="32" x="423.5" y="657.3379">node</text><line style="stroke:#181818;stroke-width:0.5;" x1="395.5" x2="457.5" y1="667.6094" y2="667.6094"/><line style="stroke:#181818;stroke-width:0.5;" x1="395.5" x2="457.5" y1="675.6094" y2="675.6094"/></g><!--class overarch_dataModel_element--><g id="elem_overarch_dataModel_element"><rect codeLine="13" fill="#F1F1F1" height="136.0469" id="overarch_dataModel_element" rx="2.5" ry="2.5" style="stroke:#181818;stroke-width:0.5;" width="125" x="244" y="45.6094"/><ellipse cx="278.35" cy="61.6094" fill="#A9DCDF" rx="11" ry="11" style="stroke:#181818;stroke-width:1.0;"/><path d="M280.5375,63.375 L276.3969,63.375 L275.975,64.4063 L276.3969,64.4063 Q277.0063,64.4063 277.2719,64.6406 Q277.5375,64.875 277.5375,65.2656 Q277.5375,65.6406 277.2719,65.875 Q277.0063,66.1094 276.3969,66.1094 L274.1,66.1094 Q273.4906,66.1094 273.2406,65.875 Q272.975,65.6406 272.975,65.25 Q272.975,64.875 273.2563,64.6406 Q273.5219,64.3906 274.1469,64.4063 L276.8188,57.75 L275.7094,57.75 Q275.1,57.75 274.8344,57.5156 Q274.5688,57.2813 274.5688,56.8906 Q274.5688,56.5156 274.8344,56.2813 Q275.1,56.0469 275.7094,56.0469 L279.3813,56.0469 L282.7719,64.4063 Q283.3656,64.4063 283.5531,64.5469 Q283.9438,64.8125 283.9438,65.2656 Q283.9438,65.6406 283.6781,65.875 Q283.4281,66.1094 282.8188,66.1094 L280.5219,66.1094 Q279.9125,66.1094 279.6469,65.875 Q279.3813,65.6406 279.3813,65.25 Q279.3813,64.875 279.6469,64.6406 Q279.9125,64.4063 280.5219,64.4063 L280.9438,64.4063 L280.5375,63.375 Z M279.8188,61.6719 L278.4594,58.2969 L277.0844,61.6719 L279.8188,61.6719 Z " fill="#000000"/><text fill="#000000" font-family="sans-serif" font-size="14" font-style="italic" lengthAdjust="spacing" textLength="50" x="296.65" y="67.3379">element</text><line style="stroke:#181818;stroke-width:0.5;" x1="245" x2="368" y1="77.6094" y2="77.6094"/><text fill="#000000" font-family="sans-serif" font-size="14" lengthAdjust="spacing" textLength="113" x="250" y="96.1426">desc : string [0..1]</text><text fill="#000000" font-family="sans-serif" font-size="14" lengthAdjust="spacing" textLength="106" x="250" y="113.752">doc : string [0..1]</text><text fill="#000000" font-family="sans-serif" font-size="14" lengthAdjust="spacing" textLength="75" x="250" y="131.3613">el : keyword</text><text fill="#000000" font-family="sans-serif" font-size="14" lengthAdjust="spacing" textLength="75" x="250" y="148.9707">id : keyword</text><text fill="#000000" font-family="sans-serif" font-size="14" lengthAdjust="spacing" textLength="82" x="250" y="166.5801">name : string</text><line style="stroke:#181818;stroke-width:0.5;" x1="245" x2="368" y1="173.6563" y2="173.6563"/></g><!--class overarch_dataModel_deploymentModelRelation--><g id="elem_overarch_dataModel_deploymentModelRelation"><rect codeLine="20" fill="#F1F1F1" height="48" id="overarch_dataModel_deploymentModelRelation" rx="2.5" ry="2.5" style="stroke:#181818;stroke-width:0.5;" width="200" x="68.5" y="527.6094"/><ellipse cx="83.5" cy="543.6094" fill="#A9DCDF" rx="11" ry="11" style="stroke:#181818;stroke-width:1.0;"/><path d="M85.6875,545.375 L81.5469,545.375 L81.125,546.4063 L81.5469,546.4063 Q82.1563,546.4063 82.4219,546.6406 Q82.6875,546.875 82.6875,547.2656 Q82.6875,547.6406 82.4219,547.875 Q82.1563,548.1094 81.5469,548.1094 L79.25,548.1094 Q78.6406,548.1094 78.3906,547.875 Q78.125,547.6406 78.125,547.25 Q78.125,546.875 78.4063,546.6406 Q78.6719,546.3906 79.2969,546.4063 L81.9688,539.75 L80.8594,539.75 Q80.25,539.75 79.9844,539.5156 Q79.7188,539.2813 79.7188,538.8906 Q79.7188,538.5156 79.9844,538.2813 Q80.25,538.0469 80.8594,538.0469 L84.5313,538.0469 L87.9219,546.4063 Q88.5156,546.4063 88.7031,546.5469 Q89.0938,546.8125 89.0938,547.2656 Q89.0938,547.6406 88.8281,547.875 Q88.5781,548.1094 87.9688,548.1094 L85.6719,548.1094 Q85.0625,548.1094 84.7969,547.875 Q84.5313,547.6406 84.5313,547.25 Q84.5313,546.875 84.7969,546.6406 Q85.0625,546.4063 85.6719,546.4063 L86.0938,546.4063 L85.6875,545.375 Z M84.9688,543.6719 L83.6094,540.2969 L82.2344,543.6719 L84.9688,543.6719 Z " fill="#000000"/><text fill="#000000" font-family="sans-serif" font-size="14" font-style="italic" lengthAdjust="spacing" textLength="168" x="97.5" y="549.3379">deployment-model-relation</text><line style="stroke:#181818;stroke-width:0.5;" x1="69.5" x2="267.5" y1="559.6094" y2="559.6094"/><line style="stroke:#181818;stroke-width:0.5;" x1="69.5" x2="267.5" y1="567.6094" y2="567.6094"/></g><!--class overarch_dataModel_link--><g id="elem_overarch_dataModel_link"><rect codeLine="21" fill="#F1F1F1" height="48" id="overarch_dataModel_link" rx="2.5" ry="2.5" style="stroke:#181818;stroke-width:0.5;" width="53" x="111" y="635.6094"/><ellipse cx="126" cy="651.6094" fill="#ADD1B2" rx="11" ry="11" style="stroke:#181818;stroke-width:1.0;"/><path d="M128.7656,647.4844 Q128.9219,647.2656 129.1094,647.1563 Q129.2969,647.0469 129.5156,647.0469 Q129.8906,647.0469 130.125,647.3125 Q130.3594,647.5625 130.3594,648.1719 L130.3594,649.625 Q130.3594,650.2344 130.125,650.5 Q129.8906,650.7656 129.5156,650.7656 Q129.1719,650.7656 128.9688,650.5625 Q128.7656,650.375 128.6563,649.8594 Q128.6094,649.5 128.4219,649.3125 Q128.0938,648.9375 127.4844,648.7188 Q126.875,648.5 126.25,648.5 Q125.4844,648.5 124.8438,648.8281 Q124.2188,649.1563 123.7188,649.9063 Q123.2344,650.6563 123.2344,651.6875 L123.2344,652.7813 Q123.2344,654.0156 124.125,654.8438 Q125.0156,655.6563 126.6094,655.6563 Q127.5469,655.6563 128.2031,655.4063 Q128.5938,655.25 129.0156,654.8125 Q129.2813,654.5469 129.4219,654.4688 Q129.5781,654.3906 129.7813,654.3906 Q130.1094,654.3906 130.3594,654.6563 Q130.625,654.9063 130.625,655.25 Q130.625,655.5938 130.2813,656 Q129.7813,656.5781 128.9844,656.9063 Q127.9063,657.3594 126.6094,657.3594 Q125.0938,657.3594 123.8906,656.7344 Q122.9063,656.2344 122.2188,655.1719 Q121.5313,654.0938 121.5313,652.8125 L121.5313,651.6563 Q121.5313,650.3281 122.1406,649.1875 Q122.7656,648.0313 123.8594,647.4219 Q124.9531,646.7969 126.1875,646.7969 Q126.9219,646.7969 127.5625,646.9688 Q128.2188,647.125 128.7656,647.4844 Z " fill="#000000"/><text fill="#000000" font-family="sans-serif" font-size="14" lengthAdjust="spacing" textLength="21" x="140" y="657.3379">link</text><line style="stroke:#181818;stroke-width:0.5;" x1="112" x2="163" y1="667.6094" y2="667.6094"/><line style="stroke:#181818;stroke-width:0.5;" x1="112" x2="163" y1="675.6094" y2="675.6094"/></g><!--class overarch_dataModel_deployedTo--><g id="elem_overarch_dataModel_deployedTo"><rect codeLine="22" fill="#F1F1F1" height="48" id="overarch_dataModel_deployedTo" rx="2.5" ry="2.5" style="stroke:#181818;stroke-width:0.5;" width="107" x="199" y="635.6094"/><ellipse cx="214" cy="651.6094" fill="#ADD1B2" rx="11" ry="11" style="stroke:#181818;stroke-width:1.0;"/><path d="M216.7656,647.4844 Q216.9219,647.2656 217.1094,647.1563 Q217.2969,647.0469 217.5156,647.0469 Q217.8906,647.0469 218.125,647.3125 Q218.3594,647.5625 218.3594,648.1719 L218.3594,649.625 Q218.3594,650.2344 218.125,650.5 Q217.8906,650.7656 217.5156,650.7656 Q217.1719,650.7656 216.9688,650.5625 Q216.7656,650.375 216.6563,649.8594 Q216.6094,649.5 216.4219,649.3125 Q216.0938,648.9375 215.4844,648.7188 Q214.875,648.5 214.25,648.5 Q213.4844,648.5 212.8438,648.8281 Q212.2188,649.1563 211.7188,649.9063 Q211.2344,650.6563 211.2344,651.6875 L211.2344,652.7813 Q211.2344,654.0156 212.125,654.8438 Q213.0156,655.6563 214.6094,655.6563 Q215.5469,655.6563 216.2031,655.4063 Q216.5938,655.25 217.0156,654.8125 Q217.2813,654.5469 217.4219,654.4688 Q217.5781,654.3906 217.7813,654.3906 Q218.1094,654.3906 218.3594,654.6563 Q218.625,654.9063 218.625,655.25 Q218.625,655.5938 218.2813,656 Q217.7813,656.5781 216.9844,656.9063 Q215.9063,657.3594 214.6094,657.3594 Q213.0938,657.3594 211.8906,656.7344 Q210.9063,656.2344 210.2188,655.1719 Q209.5313,654.0938 209.5313,652.8125 L209.5313,651.6563 Q209.5313,650.3281 210.1406,649.1875 Q210.7656,648.0313 211.8594,647.4219 Q212.9531,646.7969 214.1875,646.7969 Q214.9219,646.7969 215.5625,646.9688 Q216.2188,647.125 216.7656,647.4844 Z " fill="#000000"/><text fill="#000000" font-family="sans-serif" font-size="14" lengthAdjust="spacing" textLength="75" x="228" y="657.3379">deployed-to</text><line style="stroke:#181818;stroke-width:0.5;" x1="200" x2="305" y1="667.6094" y2="667.6094"/><line style="stroke:#181818;stroke-width:0.5;" x1="200" x2="305" y1="675.6094" y2="675.6094"/></g><!--class overarch_dataModel_deploymentModelNode--><g id="elem_overarch_dataModel_deploymentModelNode"><rect codeLine="23" fill="#F1F1F1" height="48" id="overarch_dataModel_deploymentModelNode" rx="2.5" ry="2.5" style="stroke:#181818;stroke-width:0.5;" width="185" x="334" y="527.6094"/><ellipse cx="349" cy="543.6094" fill="#A9DCDF" rx="11" ry="11" style="stroke:#181818;stroke-width:1.0;"/><path d="M351.1875,545.375 L347.0469,545.375 L346.625,546.4063 L347.0469,546.4063 Q347.6563,546.4063 347.9219,546.6406 Q348.1875,546.875 348.1875,547.2656 Q348.1875,547.6406 347.9219,547.875 Q347.6563,548.1094 347.0469,548.1094 L344.75,548.1094 Q344.1406,548.1094 343.8906,547.875 Q343.625,547.6406 343.625,547.25 Q343.625,546.875 343.9063,546.6406 Q344.1719,546.3906 344.7969,546.4063 L347.4688,539.75 L346.3594,539.75 Q345.75,539.75 345.4844,539.5156 Q345.2188,539.2813 345.2188,538.8906 Q345.2188,538.5156 345.4844,538.2813 Q345.75,538.0469 346.3594,538.0469 L350.0313,538.0469 L353.4219,546.4063 Q354.0156,546.4063 354.2031,546.5469 Q354.5938,546.8125 354.5938,547.2656 Q354.5938,547.6406 354.3281,547.875 Q354.0781,548.1094 353.4688,548.1094 L351.1719,548.1094 Q350.5625,548.1094 350.2969,547.875 Q350.0313,547.6406 350.0313,547.25 Q350.0313,546.875 350.2969,546.6406 Q350.5625,546.4063 351.1719,546.4063 L351.5938,546.4063 L351.1875,545.375 Z M350.4688,543.6719 L349.1094,540.2969 L347.7344,543.6719 L350.4688,543.6719 Z " fill="#000000"/><text fill="#000000" font-family="sans-serif" font-size="14" font-style="italic" lengthAdjust="spacing" textLength="153" x="363" y="549.3379">deployment-model-node</text><line style="stroke:#181818;stroke-width:0.5;" x1="335" x2="518" y1="559.6094" y2="559.6094"/><line style="stroke:#181818;stroke-width:0.5;" x1="335" x2="518" y1="567.6094" y2="567.6094"/></g><!--class overarch_dataModel_modelNode--><g id="elem_overarch_dataModel_modelNode"><rect codeLine="24" fill="#F1F1F1" height="48" id="overarch_dataModel_modelNode" rx="2.5" ry="2.5" style="stroke:#181818;stroke-width:0.5;" width="107" x="403" y="402.1094"/><ellipse cx="418" cy="418.1094" fill="#A9DCDF" rx="11" ry="11" style="stroke:#181818;stroke-width:1.0;"/><path d="M420.1875,419.875 L416.0469,419.875 L415.625,420.9063 L416.0469,420.9063 Q416.6563,420.9063 416.9219,421.1406 Q417.1875,421.375 417.1875,421.7656 Q417.1875,422.1406 416.9219,422.375 Q416.6563,422.6094 416.0469,422.6094 L413.75,422.6094 Q413.1406,422.6094 412.8906,422.375 Q412.625,422.1406 412.625,421.75 Q412.625,421.375 412.9063,421.1406 Q413.1719,420.8906 413.7969,420.9063 L416.4688,414.25 L415.3594,414.25 Q414.75,414.25 414.4844,414.0156 Q414.2188,413.7813 414.2188,413.3906 Q414.2188,413.0156 414.4844,412.7813 Q414.75,412.5469 415.3594,412.5469 L419.0313,412.5469 L422.4219,420.9063 Q423.0156,420.9063 423.2031,421.0469 Q423.5938,421.3125 423.5938,421.7656 Q423.5938,422.1406 423.3281,422.375 Q423.0781,422.6094 422.4688,422.6094 L420.1719,422.6094 Q419.5625,422.6094 419.2969,422.375 Q419.0313,422.1406 419.0313,421.75 Q419.0313,421.375 419.2969,421.1406 Q419.5625,420.9063 420.1719,420.9063 L420.5938,420.9063 L420.1875,419.875 Z M419.4688,418.1719 L418.1094,414.7969 L416.7344,418.1719 L419.4688,418.1719 Z " fill="#000000"/><text fill="#000000" font-family="sans-serif" font-size="14" font-style="italic" lengthAdjust="spacing" textLength="75" x="432" y="423.8379">model-node</text><line style="stroke:#181818;stroke-width:0.5;" x1="404" x2="509" y1="434.1094" y2="434.1094"/><line style="stroke:#181818;stroke-width:0.5;" x1="404" x2="509" y1="442.1094" y2="442.1094"/></g><!--class overarch_dataModel_modelRelation--><g id="elem_overarch_dataModel_modelRelation"><rect codeLine="25" fill="#F1F1F1" height="83.2188" id="overarch_dataModel_modelRelation" rx="2.5" ry="2.5" style="stroke:#181818;stroke-width:0.5;" width="122" x="245.5" y="384.6094"/><ellipse cx="260.5" cy="400.6094" fill="#A9DCDF" rx="11" ry="11" style="stroke:#181818;stroke-width:1.0;"/><path d="M262.6875,402.375 L258.5469,402.375 L258.125,403.4063 L258.5469,403.4063 Q259.1563,403.4063 259.4219,403.6406 Q259.6875,403.875 259.6875,404.2656 Q259.6875,404.6406 259.4219,404.875 Q259.1563,405.1094 258.5469,405.1094 L256.25,405.1094 Q255.6406,405.1094 255.3906,404.875 Q255.125,404.6406 255.125,404.25 Q255.125,403.875 255.4063,403.6406 Q255.6719,403.3906 256.2969,403.4063 L258.9688,396.75 L257.8594,396.75 Q257.25,396.75 256.9844,396.5156 Q256.7188,396.2813 256.7188,395.8906 Q256.7188,395.5156 256.9844,395.2813 Q257.25,395.0469 257.8594,395.0469 L261.5313,395.0469 L264.9219,403.4063 Q265.5156,403.4063 265.7031,403.5469 Q266.0938,403.8125 266.0938,404.2656 Q266.0938,404.6406 265.8281,404.875 Q265.5781,405.1094 264.9688,405.1094 L262.6719,405.1094 Q262.0625,405.1094 261.7969,404.875 Q261.5313,404.6406 261.5313,404.25 Q261.5313,403.875 261.7969,403.6406 Q262.0625,403.4063 262.6719,403.4063 L263.0938,403.4063 L262.6875,402.375 Z M261.9688,400.6719 L260.6094,397.2969 L259.2344,400.6719 L261.9688,400.6719 Z " fill="#000000"/><text fill="#000000" font-family="sans-serif" font-size="14" font-style="italic" lengthAdjust="spacing" textLength="90" x="274.5" y="406.3379">model-relation</text><line style="stroke:#181818;stroke-width:0.5;" x1="246.5" x2="366.5" y1="416.6094" y2="416.6094"/><text fill="#000000" font-family="sans-serif" font-size="14" lengthAdjust="spacing" textLength="92" x="251.5" y="435.1426">from : keyword</text><text fill="#000000" font-family="sans-serif" font-size="14" lengthAdjust="spacing" textLength="76" x="251.5" y="452.752">to : keyword</text><line style="stroke:#181818;stroke-width:0.5;" x1="246.5" x2="366.5" y1="459.8281" y2="459.8281"/></g><!--class overarch_dataModel_deploymentModelElement--><g id="elem_overarch_dataModel_deploymentModelElement"><rect codeLine="29" fill="#F1F1F1" height="48" id="overarch_dataModel_deploymentModelElement" rx="2.5" ry="2.5" style="stroke:#181818;stroke-width:0.5;" width="203" x="7" y="402.1094"/><ellipse cx="22" cy="418.1094" fill="#A9DCDF" rx="11" ry="11" style="stroke:#181818;stroke-width:1.0;"/><path d="M24.1875,419.875 L20.0469,419.875 L19.625,420.9063 L20.0469,420.9063 Q20.6563,420.9063 20.9219,421.1406 Q21.1875,421.375 21.1875,421.7656 Q21.1875,422.1406 20.9219,422.375 Q20.6563,422.6094 20.0469,422.6094 L17.75,422.6094 Q17.1406,422.6094 16.8906,422.375 Q16.625,422.1406 16.625,421.75 Q16.625,421.375 16.9063,421.1406 Q17.1719,420.8906 17.7969,420.9063 L20.4688,414.25 L19.3594,414.25 Q18.75,414.25 18.4844,414.0156 Q18.2188,413.7813 18.2188,413.3906 Q18.2188,413.0156 18.4844,412.7813 Q18.75,412.5469 19.3594,412.5469 L23.0313,412.5469 L26.4219,420.9063 Q27.0156,420.9063 27.2031,421.0469 Q27.5938,421.3125 27.5938,421.7656 Q27.5938,422.1406 27.3281,422.375 Q27.0781,422.6094 26.4688,422.6094 L24.1719,422.6094 Q23.5625,422.6094 23.2969,422.375 Q23.0313,422.1406 23.0313,421.75 Q23.0313,421.375 23.2969,421.1406 Q23.5625,420.9063 24.1719,420.9063 L24.5938,420.9063 L24.1875,419.875 Z M23.4688,418.1719 L22.1094,414.7969 L20.7344,418.1719 L23.4688,418.1719 Z " fill="#000000"/><text fill="#000000" font-family="sans-serif" font-size="14" font-style="italic" lengthAdjust="spacing" textLength="171" x="36" y="423.8379">deployment-model-element</text><line style="stroke:#181818;stroke-width:0.5;" x1="8" x2="209" y1="434.1094" y2="434.1094"/><line style="stroke:#181818;stroke-width:0.5;" x1="8" x2="209" y1="442.1094" y2="442.1094"/></g><!--class overarch_dataModel_modelElement--><g id="elem_overarch_dataModel_modelElement"><rect codeLine="30" fill="#F1F1F1" height="83.2188" id="overarch_dataModel_modelElement" rx="2.5" ry="2.5" style="stroke:#181818;stroke-width:0.5;" width="162" x="225.5" y="241.6094"/><ellipse cx="257.15" cy="257.6094" fill="#A9DCDF" rx="11" ry="11" style="stroke:#181818;stroke-width:1.0;"/><path d="M259.3375,259.375 L255.1969,259.375 L254.775,260.4063 L255.1969,260.4063 Q255.8062,260.4063 256.0719,260.6406 Q256.3375,260.875 256.3375,261.2656 Q256.3375,261.6406 256.0719,261.875 Q255.8062,262.1094 255.1969,262.1094 L252.9,262.1094 Q252.2906,262.1094 252.0406,261.875 Q251.775,261.6406 251.775,261.25 Q251.775,260.875 252.0562,260.6406 Q252.3219,260.3906 252.9469,260.4063 L255.6187,253.75 L254.5094,253.75 Q253.9,253.75 253.6344,253.5156 Q253.3687,253.2813 253.3687,252.8906 Q253.3687,252.5156 253.6344,252.2813 Q253.9,252.0469 254.5094,252.0469 L258.1813,252.0469 L261.5719,260.4063 Q262.1656,260.4063 262.3531,260.5469 Q262.7438,260.8125 262.7438,261.2656 Q262.7438,261.6406 262.4781,261.875 Q262.2281,262.1094 261.6188,262.1094 L259.3219,262.1094 Q258.7125,262.1094 258.4469,261.875 Q258.1813,261.6406 258.1813,261.25 Q258.1813,260.875 258.4469,260.6406 Q258.7125,260.4063 259.3219,260.4063 L259.7438,260.4063 L259.3375,259.375 Z M258.6188,257.6719 L257.2594,254.2969 L255.8844,257.6719 L258.6188,257.6719 Z " fill="#000000"/><text fill="#000000" font-family="sans-serif" font-size="14" font-style="italic" lengthAdjust="spacing" textLength="93" x="274.85" y="263.3379">model-element</text><line style="stroke:#181818;stroke-width:0.5;" x1="226.5" x2="386.5" y1="273.6094" y2="273.6094"/><text fill="#000000" font-family="sans-serif" font-size="14" lengthAdjust="spacing" textLength="150" x="231.5" y="292.1426">maturity : keyword [0..1]</text><text fill="#000000" font-family="sans-serif" font-size="14" lengthAdjust="spacing" textLength="94" x="231.5" y="309.752">tags : set [0..1]</text><line style="stroke:#181818;stroke-width:0.5;" x1="226.5" x2="386.5" y1="316.8281" y2="316.8281"/></g><!--class overarch_dataModel_container--><g id="elem_overarch_dataModel_container"><rect codeLine="34" fill="#F1F1F1" height="48" id="overarch_dataModel_container" rx="2.5" ry="2.5" style="stroke:#181818;stroke-width:0.5;" width="91" x="494" y="635.6094"/><ellipse cx="509" cy="651.6094" fill="#ADD1B2" rx="11" ry="11" style="stroke:#181818;stroke-width:1.0;"/><path d="M511.7656,647.4844 Q511.9219,647.2656 512.1094,647.1563 Q512.2969,647.0469 512.5156,647.0469 Q512.8906,647.0469 513.125,647.3125 Q513.3594,647.5625 513.3594,648.1719 L513.3594,649.625 Q513.3594,650.2344 513.125,650.5 Q512.8906,650.7656 512.5156,650.7656 Q512.1719,650.7656 511.9688,650.5625 Q511.7656,650.375 511.6563,649.8594 Q511.6094,649.5 511.4219,649.3125 Q511.0938,648.9375 510.4844,648.7188 Q509.875,648.5 509.25,648.5 Q508.4844,648.5 507.8438,648.8281 Q507.2188,649.1563 506.7188,649.9063 Q506.2344,650.6563 506.2344,651.6875 L506.2344,652.7813 Q506.2344,654.0156 507.125,654.8438 Q508.0156,655.6563 509.6094,655.6563 Q510.5469,655.6563 511.2031,655.4063 Q511.5938,655.25 512.0156,654.8125 Q512.2813,654.5469 512.4219,654.4688 Q512.5781,654.3906 512.7813,654.3906 Q513.1094,654.3906 513.3594,654.6563 Q513.625,654.9063 513.625,655.25 Q513.625,655.5938 513.2813,656 Q512.7813,656.5781 511.9844,656.9063 Q510.9063,657.3594 509.6094,657.3594 Q508.0938,657.3594 506.8906,656.7344 Q505.9063,656.2344 505.2188,655.1719 Q504.5313,654.0938 504.5313,652.8125 L504.5313,651.6563 Q504.5313,650.3281 505.1406,649.1875 Q505.7656,648.0313 506.8594,647.4219 Q507.9531,646.7969 509.1875,646.7969 Q509.9219,646.7969 510.5625,646.9688 Q511.2188,647.125 511.7656,647.4844 Z " fill="#000000"/><text fill="#000000" font-family="sans-serif" font-size="14" lengthAdjust="spacing" textLength="59" x="523" y="657.3379">container</text><line style="stroke:#181818;stroke-width:0.5;" x1="495" x2="584" y1="667.6094" y2="667.6094"/><line style="stroke:#181818;stroke-width:0.5;" x1="495" x2="584" y1="675.6094" y2="675.6094"/></g><!--reverse link overarch_dataModel_element to overarch_dataModel_modelElement--><g id="link_overarch_dataModel_element_overarch_dataModel_modelElement"><path codeLine="35" d="M306.5,199.7694 C306.5,219.9794 306.5,223.5294 306.5,241.4494 " fill="none" id="overarch_dataModel_element-backto-overarch_dataModel_modelElement" style="stroke:#181818;stroke-width:1.0;"/><polygon fill="none" points="306.5,181.7694,300.5,199.7694,312.5,199.7694,306.5,181.7694" style="stroke:#181818;stroke-width:1.0;"/></g><!--reverse link overarch_dataModel_modelRelation to overarch_dataModel_deploymentModelRelation--><g id="link_overarch_dataModel_modelRelation_overarch_dataModel_deploymentModelRelation"><path codeLine="36" d="M247.5158,479.8919 C225.3758,499.7019 213,510.7894 194.3,527.5194 " fill="none" id="overarch_dataModel_modelRelation-backto-overarch_dataModel_deploymentModelRelation" style="stroke:#181818;stroke-width:1.0;"/><polygon fill="none" points="260.93,467.8894,243.515,475.4205,251.5166,484.3633,260.93,467.8894" style="stroke:#181818;stroke-width:1.0;"/></g><!--reverse link overarch_dataModel_modelElement to overarch_dataModel_modelNode--><g id="link_overarch_dataModel_modelElement_overarch_dataModel_modelNode"><path codeLine="37" d="M363.0055,337.2175 C389.6555,362.2675 409.7,381.1194 431.9,401.9894 " fill="none" id="overarch_dataModel_modelElement-backto-overarch_dataModel_modelNode" style="stroke:#181818;stroke-width:1.0;"/><polygon fill="none" points="349.89,324.8894,358.8962,341.5893,367.1149,332.8456,349.89,324.8894" style="stroke:#181818;stroke-width:1.0;"/></g><!--link overarch_dataModel_node to overarch_dataModel_deploymentModelNode--><g id="link_overarch_dataModel_node_overarch_dataModel_deploymentModelNode"><path codeLine="38" d="M439.7809,623.4361 C442.5809,605.6961 441.6527,599.1933 438.8127,581.5333 " fill="none" id="overarch_dataModel_node-overarch_dataModel_deploymentModelNode" style="stroke:#181818;stroke-width:1.0;"/><polygon fill="#181818" points="437.91,635.2894,442.7965,629.9864,439.7809,623.4361,434.8943,628.7391,437.91,635.2894" style="stroke:#181818;stroke-width:1.0;"/><polygon fill="#181818" points="437.86,575.6094,435.3397,585.1303,438.6539,580.5459,443.2382,583.8601,437.86,575.6094" style="stroke:#181818;stroke-width:1.0;"/><text fill="#000000" font-family="sans-serif" font-size="13" lengthAdjust="spacing" textLength="22" x="415.9478" y="596.9473">0..n</text></g><!--reverse link overarch_dataModel_deploymentModelNode to overarch_dataModel_node--><g id="link_overarch_dataModel_deploymentModelNode_overarch_dataModel_node"><path codeLine="46" d="M413.0693,593.4056 C410.3893,611.0656 413.08,617.5494 415.73,635.2894 " fill="none" id="overarch_dataModel_deploymentModelNode-backto-overarch_dataModel_node" style="stroke:#181818;stroke-width:1.0;"/><polygon fill="none" points="415.77,575.6094,407.1372,592.5054,419.0014,594.3058,415.77,575.6094" style="stroke:#181818;stroke-width:1.0;"/></g><!--reverse link overarch_dataModel_modelElement to overarch_dataModel_modelRelation--><g id="link_overarch_dataModel_modelElement_overarch_dataModel_modelRelation"><path codeLine="39" d="M306.5,342.8894 C306.5,361.5994 306.5,365.7194 306.5,384.4194 " fill="none" id="overarch_dataModel_modelElement-backto-overarch_dataModel_modelRelation" style="stroke:#181818;stroke-width:1.0;"/><polygon fill="none" points="306.5,324.8894,300.5,342.8894,312.5,342.8894,306.5,324.8894" style="stroke:#181818;stroke-width:1.0;"/></g><!--reverse link overarch_dataModel_deploymentModelElement to overarch_dataModel_deploymentModelNode--><g id="link_overarch_dataModel_deploymentModelElement_overarch_dataModel_deploymentModelNode"><path codeLine="40" d="M184.7188,456.7063 C241.6188,478.8063 310.19,505.4394 367.08,527.5294 " fill="none" id="overarch_dataModel_deploymentModelElement-backto-overarch_dataModel_deploymentModelNode" style="stroke:#181818;stroke-width:1.0;"/><polygon fill="none" points="167.94,450.1894,182.5465,462.2992,186.8912,451.1133,167.94,450.1894" style="stroke:#181818;stroke-width:1.0;"/></g><!--reverse link overarch_dataModel_deploymentModelRelation to overarch_dataModel_deployedTo--><g id="link_overarch_dataModel_deploymentModelRelation_overarch_dataModel_deployedTo"><path codeLine="41" d="M197.9072,589.7186 C211.8972,607.3786 219.96,617.5494 234.02,635.2894 " fill="none" id="overarch_dataModel_deploymentModelRelation-backto-overarch_dataModel_deployedTo" style="stroke:#181818;stroke-width:1.0;"/><polygon fill="none" points="186.73,575.6094,193.2041,593.4444,202.6102,585.9929,186.73,575.6094" style="stroke:#181818;stroke-width:1.0;"/></g><!--reverse link overarch_dataModel_modelNode to overarch_dataModel_deploymentModelNode--><g id="link_overarch_dataModel_modelNode_overarch_dataModel_deploymentModelNode"><path codeLine="42" d="M446.6063,467.8295 C441.2363,489.9095 437.47,505.4394 432.12,527.4794 " fill="none" id="overarch_dataModel_modelNode-backto-overarch_dataModel_deploymentModelNode" style="stroke:#181818;stroke-width:1.0;"/><polygon fill="none" points="450.86,450.3394,440.7762,466.4116,452.4363,469.2474,450.86,450.3394" style="stroke:#181818;stroke-width:1.0;"/></g><!--reverse link overarch_dataModel_technicalElement to overarch_dataModel_deploymentModelElement--><g id="link_overarch_dataModel_technicalElement_overarch_dataModel_deploymentModelElement"><path codeLine="43" d="M108.5,334.4594 C108.5,360.4794 108.5,378.4094 108.5,401.7094 " fill="none" id="overarch_dataModel_technicalElement-backto-overarch_dataModel_deploymentModelElement" style="stroke:#181818;stroke-width:1.0;"/><polygon fill="none" points="108.5,316.4594,102.5,334.4594,114.5,334.4594,108.5,316.4594" style="stroke:#181818;stroke-width:1.0;"/></g><!--reverse link overarch_dataModel_modelElement to overarch_dataModel_deploymentModelElement--><g id="link_overarch_dataModel_modelElement_overarch_dataModel_deploymentModelElement"><path codeLine="44" d="M234.8379,335.1408 C199.6479,360.2008 170.43,381.0094 141.06,401.9294 " fill="none" id="overarch_dataModel_modelElement-backto-overarch_dataModel_deploymentModelElement" style="stroke:#181818;stroke-width:1.0;"/><polygon fill="none" points="249.5,324.6994,231.3574,330.2534,238.3184,340.0281,249.5,324.6994" style="stroke:#181818;stroke-width:1.0;"/></g><!--reverse link overarch_dataModel_deploymentModelRelation to overarch_dataModel_link--><g id="link_overarch_dataModel_deploymentModelRelation_overarch_dataModel_link"><path codeLine="45" d="M156.7217,592.887 C151.5617,610.547 149.51,617.5494 144.32,635.2894 " fill="none" id="overarch_dataModel_deploymentModelRelation-backto-overarch_dataModel_link" style="stroke:#181818;stroke-width:1.0;"/><polygon fill="none" points="161.77,575.6094,150.9625,591.2042,162.4809,594.5697,161.77,575.6094" style="stroke:#181818;stroke-width:1.0;"/></g><!--reverse link overarch_dataModel_deploymentModelNode to overarch_dataModel_container--><g id="link_overarch_dataModel_deploymentModelNode_overarch_dataModel_container"><path codeLine="47" d="M464.146,587.9263 C482.966,605.5863 495.73,617.5494 514.64,635.2894 " fill="none" id="overarch_dataModel_deploymentModelNode-backto-overarch_dataModel_container" style="stroke:#181818;stroke-width:1.0;"/><polygon fill="none" points="451.02,575.6094,460.0404,592.3017,468.2517,583.551,451.02,575.6094" style="stroke:#181818;stroke-width:1.0;"/></g><!--reverse link overarch_dataModel_deploymentModelElement to overarch_dataModel_deploymentModelRelation--><g id="link_overarch_dataModel_deploymentModelElement_overarch_dataModel_deploymentModelRelation"><path codeLine="48" d="M127.6516,466.5318 C138.3716,488.6118 146.55,505.4394 157.27,527.4794 " fill="none" id="overarch_dataModel_deploymentModelElement-backto-overarch_dataModel_deploymentModelRelation" style="stroke:#181818;stroke-width:1.0;"/><polygon fill="none" points="119.79,450.3394,122.2541,469.1524,133.049,463.9113,119.79,450.3394" style="stroke:#181818;stroke-width:1.0;"/></g><!--SRC=[hLLDJm8n4BttLqmucfJebHXFUjI3yMOCgTiH6lfXkgE68F_T5jQ5PMcx18xJdNbzy-PrbXHfX7lyr6vfq18yEeaQ7ZJ6g6PClDVaHKLGQL7NC2AivbPLGdFSven0rE2-qGjVpQTIaDX0JDl41WjM320UmWG2fB8pUBqUZs_Us9ers3OKfk3YDrYjUtmAB73lSebrrRiy7BjZfq642Inm-UEy3A6IdT0AWsqHwxEIhQ3SH1xSenQad4tnt1LiukScFNRSG6fb5wdg-6qlTGk6afFBtuVonHqJjKS_Dva3wa-9GPM1JBcy9AFfYXSczU6TwOoEt5uueFM2mGwwRysUwg00PpeWWQuHzEKLBNUaTnubCQkZ2v5wJwbobeIow5CNjGcHQkRXtFvoNYBAYfD8eIHipqhAP5b52x7K2hdY_0vW5EGA9XhcvlFOv7fAc6UWMYbkgLsIXusxW6LVvPcqUZ-4WNWbarqExbJXujfb0pTY2iCE6s8MettBb_VOlmP_]--></g></svg>