<svg xmlns="http://www.w3.org/2000/svg" xmlns:xlink="http://www.w3.org/1999/xlink" contentStyleType="text/css" height="770px" preserveAspectRatio="none" style="width:560px;height:770px;background:#FFFFFF;" version="1.1" viewBox="0 0 560 770" width="560px" zoomAndPan="magnify"><defs/><g><text fill="#000000" font-family="sans-serif" font-size="14" font-weight="bold" lengthAdjust="spacing" textLength="223" x="161.5" y="22.9951">Deployment Model Elements</text><!--class overarch_dataModel_node--><g id="elem_overarch_dataModel_node"><rect codeLine="9" fill="#F1F1F1" height="48" id="overarch_dataModel_node" rx="2.5" ry="2.5" style="stroke:#181818;stroke-width:0.5;" width="68" x="75" y="482.7969"/><ellipse cx="90" cy="498.7969" fill="#ADD1B2" rx="11" ry="11" style="stroke:#181818;stroke-width:1.0;"/><path d="M92.9688,504.4375 Q92.3906,504.7344 91.75,504.875 Q91.1094,505.0313 90.4063,505.0313 Q87.9063,505.0313 86.5781,503.3906 Q85.2656,501.7344 85.2656,498.6094 Q85.2656,495.4844 86.5781,493.8281 Q87.9063,492.1719 90.4063,492.1719 Q91.1094,492.1719 91.75,492.3281 Q92.4063,492.4844 92.9688,492.7813 L92.9688,495.5 Q92.3438,494.9219 91.75,494.6563 Q91.1563,494.375 90.5313,494.375 Q89.1875,494.375 88.5,495.4531 Q87.8125,496.5156 87.8125,498.6094 Q87.8125,500.7031 88.5,501.7813 Q89.1875,502.8438 90.5313,502.8438 Q91.1563,502.8438 91.75,502.5781 Q92.3438,502.2969 92.9688,501.7188 L92.9688,504.4375 Z " fill="#000000"/><text fill="#000000" font-family="sans-serif" font-size="14" lengthAdjust="spacing" textLength="36" x="104" y="503.6436">node</text><line style="stroke:#181818;stroke-width:0.5;" x1="76" x2="142" y1="514.7969" y2="514.7969"/><line style="stroke:#181818;stroke-width:0.5;" x1="76" x2="142" y1="522.7969" y2="522.7969"/></g><!--class overarch_dataModel_identifiableNamedElement--><g id="elem_overarch_dataModel_identifiableNamedElement"><rect codeLine="10" fill="#F1F1F1" height="48" id="overarch_dataModel_identifiableNamedElement" rx="2.5" ry="2.5" style="stroke:#181818;stroke-width:0.5;" width="221" x="8.5" y="341.7969"/><ellipse cx="23.5" cy="357.7969" fill="#A9DCDF" rx="11" ry="11" style="stroke:#181818;stroke-width:1.0;"/><path d="M23.6094,353.1406 L22.4531,358.2188 L24.7813,358.2188 L23.6094,353.1406 Z M22.125,350.9063 L25.1094,350.9063 L28.4688,363.2969 L26.0156,363.2969 L25.25,360.2344 L21.9688,360.2344 L21.2188,363.2969 L18.7813,363.2969 L22.125,350.9063 Z " fill="#000000"/><text fill="#000000" font-family="sans-serif" font-size="14" font-style="italic" lengthAdjust="spacing" textLength="189" x="37.5" y="362.6436">identifiable-named-element</text><line style="stroke:#181818;stroke-width:0.5;" x1="9.5" x2="228.5" y1="373.7969" y2="373.7969"/><line style="stroke:#181818;stroke-width:0.5;" x1="9.5" x2="228.5" y1="381.7969" y2="381.7969"/></g><!--class overarch_dataModel_element--><g id="elem_overarch_dataModel_element"><rect codeLine="11" fill="#F1F1F1" height="64.2969" id="overarch_dataModel_element" rx="2.5" ry="2.5" style="stroke:#181818;stroke-width:0.5;" width="95" x="166.5" y="44.2969"/><ellipse cx="184.2" cy="60.2969" fill="#A9DCDF" rx="11" ry="11" style="stroke:#181818;stroke-width:1.0;"/><path d="M184.3094,55.6406 L183.1531,60.7188 L185.4813,60.7188 L184.3094,55.6406 Z M182.825,53.4063 L185.8094,53.4063 L189.1688,65.7969 L186.7156,65.7969 L185.95,62.7344 L182.6688,62.7344 L181.9188,65.7969 L179.4813,65.7969 L182.825,53.4063 Z " fill="#000000"/><text fill="#000000" font-family="sans-serif" font-size="14" font-style="italic" lengthAdjust="spacing" textLength="57" x="198.8" y="65.1436">element</text><line style="stroke:#181818;stroke-width:0.5;" x1="167.5" x2="260.5" y1="76.2969" y2="76.2969"/><text fill="#000000" font-family="sans-serif" font-size="14" lengthAdjust="spacing" textLength="83" x="172.5" y="93.292">el : keyword</text><line style="stroke:#181818;stroke-width:0.5;" x1="167.5" x2="260.5" y1="100.5938" y2="100.5938"/></g><!--class overarch_dataModel_deploymentModelNode--><g id="elem_overarch_dataModel_deploymentModelNode"><rect codeLine="14" fill="#F1F1F1" height="48" id="overarch_dataModel_deploymentModelNode" rx="2.5" ry="2.5" style="stroke:#181818;stroke-width:0.5;" width="204" x="7" y="607.2969"/><ellipse cx="22" cy="623.2969" fill="#A9DCDF" rx="11" ry="11" style="stroke:#181818;stroke-width:1.0;"/><path d="M22.1094,618.6406 L20.9531,623.7188 L23.2813,623.7188 L22.1094,618.6406 Z M20.625,616.4063 L23.6094,616.4063 L26.9688,628.7969 L24.5156,628.7969 L23.75,625.7344 L20.4688,625.7344 L19.7188,628.7969 L17.2813,628.7969 L20.625,616.4063 Z " fill="#000000"/><text fill="#000000" font-family="sans-serif" font-size="14" font-style="italic" lengthAdjust="spacing" textLength="172" x="36" y="628.1436">deployment-model-node</text><line style="stroke:#181818;stroke-width:0.5;" x1="8" x2="210" y1="639.2969" y2="639.2969"/><line style="stroke:#181818;stroke-width:0.5;" x1="8" x2="210" y1="647.2969" y2="647.2969"/></g><!--class overarch_dataModel_deployedTo--><g id="elem_overarch_dataModel_deployedTo"><rect codeLine="15" fill="#F1F1F1" height="48" id="overarch_dataModel_deployedTo" rx="2.5" ry="2.5" style="stroke:#181818;stroke-width:0.5;" width="115" x="245.5" y="715.2969"/><ellipse cx="260.5" cy="731.2969" fill="#ADD1B2" rx="11" ry="11" style="stroke:#181818;stroke-width:1.0;"/><path d="M263.4688,736.9375 Q262.8906,737.2344 262.25,737.375 Q261.6094,737.5313 260.9063,737.5313 Q258.4063,737.5313 257.0781,735.8906 Q255.7656,734.2344 255.7656,731.1094 Q255.7656,727.9844 257.0781,726.3281 Q258.4063,724.6719 260.9063,724.6719 Q261.6094,724.6719 262.25,724.8281 Q262.9063,724.9844 263.4688,725.2813 L263.4688,728 Q262.8438,727.4219 262.25,727.1563 Q261.6563,726.875 261.0313,726.875 Q259.6875,726.875 259,727.9531 Q258.3125,729.0156 258.3125,731.1094 Q258.3125,733.2031 259,734.2813 Q259.6875,735.3438 261.0313,735.3438 Q261.6563,735.3438 262.25,735.0781 Q262.8438,734.7969 263.4688,734.2188 L263.4688,736.9375 Z " fill="#000000"/><text fill="#000000" font-family="sans-serif" font-size="14" lengthAdjust="spacing" textLength="83" x="274.5" y="736.1436">deployed-to</text><line style="stroke:#181818;stroke-width:0.5;" x1="246.5" x2="359.5" y1="747.2969" y2="747.2969"/><line style="stroke:#181818;stroke-width:0.5;" x1="246.5" x2="359.5" y1="755.2969" y2="755.2969"/></g><!--class overarch_dataModel_relation--><g id="elem_overarch_dataModel_relation"><rect codeLine="16" fill="#F1F1F1" height="80.5938" id="overarch_dataModel_relation" rx="2.5" ry="2.5" style="stroke:#181818;stroke-width:0.5;" width="114" x="439" y="466.2969"/><ellipse cx="467.95" cy="482.2969" fill="#A9DCDF" rx="11" ry="11" style="stroke:#181818;stroke-width:1.0;"/><path d="M468.0594,477.6406 L466.9031,482.7188 L469.2313,482.7188 L468.0594,477.6406 Z M466.575,475.4063 L469.5594,475.4063 L472.9188,487.7969 L470.4656,487.7969 L469.7,484.7344 L466.4188,484.7344 L465.6688,487.7969 L463.2313,487.7969 L466.575,475.4063 Z " fill="#000000"/><text fill="#000000" font-family="sans-serif" font-size="14" font-style="italic" lengthAdjust="spacing" textLength="51" x="485.05" y="487.1436">relation</text><line style="stroke:#181818;stroke-width:0.5;" x1="440" x2="552" y1="498.2969" y2="498.2969"/><text fill="#000000" font-family="sans-serif" font-size="14" lengthAdjust="spacing" textLength="102" x="445" y="515.292">from : keyword</text><text fill="#000000" font-family="sans-serif" font-size="14" lengthAdjust="spacing" textLength="85" x="445" y="531.5889">to : keyword</text><line style="stroke:#181818;stroke-width:0.5;" x1="440" x2="552" y1="538.8906" y2="538.8906"/></g><!--class overarch_dataModel_deploymentModelRelation--><g id="elem_overarch_dataModel_deploymentModelRelation"><rect codeLine="20" fill="#F1F1F1" height="48" id="overarch_dataModel_deploymentModelRelation" rx="2.5" ry="2.5" style="stroke:#181818;stroke-width:0.5;" width="219" x="279.5" y="607.2969"/><ellipse cx="294.5" cy="623.2969" fill="#A9DCDF" rx="11" ry="11" style="stroke:#181818;stroke-width:1.0;"/><path d="M294.6094,618.6406 L293.4531,623.7188 L295.7813,623.7188 L294.6094,618.6406 Z M293.125,616.4063 L296.1094,616.4063 L299.4688,628.7969 L297.0156,628.7969 L296.25,625.7344 L292.9688,625.7344 L292.2188,628.7969 L289.7813,628.7969 L293.125,616.4063 Z " fill="#000000"/><text fill="#000000" font-family="sans-serif" font-size="14" font-style="italic" lengthAdjust="spacing" textLength="187" x="308.5" y="628.1436">deployment-model-relation</text><line style="stroke:#181818;stroke-width:0.5;" x1="280.5" x2="497.5" y1="639.2969" y2="639.2969"/><line style="stroke:#181818;stroke-width:0.5;" x1="280.5" x2="497.5" y1="647.2969" y2="647.2969"/></g><!--class overarch_dataModel_namedElement--><g id="elem_overarch_dataModel_namedElement"><rect codeLine="21" fill="#F1F1F1" height="96.8906" id="overarch_dataModel_namedElement" rx="2.5" ry="2.5" style="stroke:#181818;stroke-width:0.5;" width="142" x="48" y="168.2969"/><ellipse cx="63" cy="184.2969" fill="#A9DCDF" rx="11" ry="11" style="stroke:#181818;stroke-width:1.0;"/><path d="M63.1094,179.6406 L61.9531,184.7188 L64.2813,184.7188 L63.1094,179.6406 Z M61.625,177.4063 L64.6094,177.4063 L67.9688,189.7969 L65.5156,189.7969 L64.75,186.7344 L61.4688,186.7344 L60.7188,189.7969 L58.2813,189.7969 L61.625,177.4063 Z " fill="#000000"/><text fill="#000000" font-family="sans-serif" font-size="14" font-style="italic" lengthAdjust="spacing" textLength="110" x="77" y="189.1436">named-element</text><line style="stroke:#181818;stroke-width:0.5;" x1="49" x2="189" y1="200.2969" y2="200.2969"/><text fill="#000000" font-family="sans-serif" font-size="14" lengthAdjust="spacing" textLength="91" x="54" y="217.292">name : string</text><text fill="#000000" font-family="sans-serif" font-size="14" lengthAdjust="spacing" textLength="126" x="54" y="233.5889">desc : string [0..1]</text><text fill="#000000" font-family="sans-serif" font-size="14" lengthAdjust="spacing" textLength="118" x="54" y="249.8857">doc : string [0..1]</text><line style="stroke:#181818;stroke-width:0.5;" x1="49" x2="189" y1="257.1875" y2="257.1875"/></g><!--class overarch_dataModel_identifiableElement--><g id="elem_overarch_dataModel_identifiableElement"><rect codeLine="26" fill="#F1F1F1" height="64.2969" id="overarch_dataModel_identifiableElement" rx="2.5" ry="2.5" style="stroke:#181818;stroke-width:0.5;" width="168" x="225" y="184.7969"/><ellipse cx="240" cy="200.7969" fill="#A9DCDF" rx="11" ry="11" style="stroke:#181818;stroke-width:1.0;"/><path d="M240.1094,196.1406 L238.9531,201.2188 L241.2813,201.2188 L240.1094,196.1406 Z M238.625,193.9063 L241.6094,193.9063 L244.9688,206.2969 L242.5156,206.2969 L241.75,203.2344 L238.4688,203.2344 L237.7188,206.2969 L235.2813,206.2969 L238.625,193.9063 Z " fill="#000000"/><text fill="#000000" font-family="sans-serif" font-size="14" font-style="italic" lengthAdjust="spacing" textLength="136" x="254" y="205.6436">identifiable-element</text><line style="stroke:#181818;stroke-width:0.5;" x1="226" x2="392" y1="216.7969" y2="216.7969"/><text fill="#000000" font-family="sans-serif" font-size="14" lengthAdjust="spacing" textLength="83" x="231" y="233.792">id : keyword</text><line style="stroke:#181818;stroke-width:0.5;" x1="226" x2="392" y1="241.0938" y2="241.0938"/></g><!--class overarch_dataModel_deploymentModelElement--><g id="elem_overarch_dataModel_deploymentModelElement"><rect codeLine="29" fill="#F1F1F1" height="48" id="overarch_dataModel_deploymentModelElement" rx="2.5" ry="2.5" style="stroke:#181818;stroke-width:0.5;" width="225" x="178.5" y="482.7969"/><ellipse cx="193.5" cy="498.7969" fill="#A9DCDF" rx="11" ry="11" style="stroke:#181818;stroke-width:1.0;"/><path d="M193.6094,494.1406 L192.4531,499.2188 L194.7813,499.2188 L193.6094,494.1406 Z M192.125,491.9063 L195.1094,491.9063 L198.4688,504.2969 L196.0156,504.2969 L195.25,501.2344 L191.9688,501.2344 L191.2188,504.2969 L188.7813,504.2969 L192.125,491.9063 Z " fill="#000000"/><text fill="#000000" font-family="sans-serif" font-size="14" font-style="italic" lengthAdjust="spacing" textLength="193" x="207.5" y="503.6436">deployment-model-element</text><line style="stroke:#181818;stroke-width:0.5;" x1="179.5" x2="402.5" y1="514.7969" y2="514.7969"/><line style="stroke:#181818;stroke-width:0.5;" x1="179.5" x2="402.5" y1="522.7969" y2="522.7969"/></g><!--class overarch_dataModel_technicalElement--><g id="elem_overarch_dataModel_technicalElement"><rect codeLine="30" fill="#F1F1F1" height="80.5938" id="overarch_dataModel_technicalElement" rx="2.5" ry="2.5" style="stroke:#181818;stroke-width:0.5;" width="178" x="265" y="325.2969"/><ellipse cx="289.9" cy="341.2969" fill="#A9DCDF" rx="11" ry="11" style="stroke:#181818;stroke-width:1.0;"/><path d="M290.0094,336.6406 L288.8531,341.7188 L291.1813,341.7188 L290.0094,336.6406 Z M288.525,334.4063 L291.5094,334.4063 L294.8688,346.7969 L292.4156,346.7969 L291.65,343.7344 L288.3688,343.7344 L287.6188,346.7969 L285.1813,346.7969 L288.525,334.4063 Z " fill="#000000"/><text fill="#000000" font-family="sans-serif" font-size="14" font-style="italic" lengthAdjust="spacing" textLength="124" x="306.1" y="346.1436">technical-element</text><line style="stroke:#181818;stroke-width:0.5;" x1="266" x2="442" y1="357.2969" y2="357.2969"/><text fill="#000000" font-family="sans-serif" font-size="14" lengthAdjust="spacing" textLength="123" x="271" y="374.292">tech : string [0..1]</text><text fill="#000000" font-family="sans-serif" font-size="14" lengthAdjust="spacing" textLength="166" x="271" y="390.5889">maturity : keyword [0..1]</text><line style="stroke:#181818;stroke-width:0.5;" x1="266" x2="442" y1="397.8906" y2="397.8906"/></g><!--class overarch_dataModel_container--><g id="elem_overarch_dataModel_container"><rect codeLine="34" fill="#F1F1F1" height="48" id="overarch_dataModel_container" rx="2.5" ry="2.5" style="stroke:#181818;stroke-width:0.5;" width="97" x="60.5" y="715.2969"/><ellipse cx="75.5" cy="731.2969" fill="#ADD1B2" rx="11" ry="11" style="stroke:#181818;stroke-width:1.0;"/><path d="M78.4688,736.9375 Q77.8906,737.2344 77.25,737.375 Q76.6094,737.5313 75.9063,737.5313 Q73.4063,737.5313 72.0781,735.8906 Q70.7656,734.2344 70.7656,731.1094 Q70.7656,727.9844 72.0781,726.3281 Q73.4063,724.6719 75.9063,724.6719 Q76.6094,724.6719 77.25,724.8281 Q77.9063,724.9844 78.4688,725.2813 L78.4688,728 Q77.8438,727.4219 77.25,727.1563 Q76.6563,726.875 76.0313,726.875 Q74.6875,726.875 74,727.9531 Q73.3125,729.0156 73.3125,731.1094 Q73.3125,733.2031 74,734.2813 Q74.6875,735.3438 76.0313,735.3438 Q76.6563,735.3438 77.25,735.0781 Q77.8438,734.7969 78.4688,734.2188 L78.4688,736.9375 Z " fill="#000000"/><text fill="#000000" font-family="sans-serif" font-size="14" lengthAdjust="spacing" textLength="65" x="89.5" y="736.1436">container</text><line style="stroke:#181818;stroke-width:0.5;" x1="61.5" x2="156.5" y1="747.2969" y2="747.2969"/><line style="stroke:#181818;stroke-width:0.5;" x1="61.5" x2="156.5" y1="755.2969" y2="755.2969"/></g><!--class overarch_dataModel_link--><g id="elem_overarch_dataModel_link"><rect codeLine="35" fill="#F1F1F1" height="48" id="overarch_dataModel_link" rx="2.5" ry="2.5" style="stroke:#181818;stroke-width:0.5;" width="55" x="395.5" y="715.2969"/><ellipse cx="410.5" cy="731.2969" fill="#ADD1B2" rx="11" ry="11" style="stroke:#181818;stroke-width:1.0;"/><path d="M413.4688,736.9375 Q412.8906,737.2344 412.25,737.375 Q411.6094,737.5313 410.9063,737.5313 Q408.4063,737.5313 407.0781,735.8906 Q405.7656,734.2344 405.7656,731.1094 Q405.7656,727.9844 407.0781,726.3281 Q408.4063,724.6719 410.9063,724.6719 Q411.6094,724.6719 412.25,724.8281 Q412.9063,724.9844 413.4688,725.2813 L413.4688,728 Q412.8438,727.4219 412.25,727.1563 Q411.6563,726.875 411.0313,726.875 Q409.6875,726.875 409,727.9531 Q408.3125,729.0156 408.3125,731.1094 Q408.3125,733.2031 409,734.2813 Q409.6875,735.3438 411.0313,735.3438 Q411.6563,735.3438 412.25,735.0781 Q412.8438,734.7969 413.4688,734.2188 L413.4688,736.9375 Z " fill="#000000"/><text fill="#000000" font-family="sans-serif" font-size="14" lengthAdjust="spacing" textLength="23" x="424.5" y="736.1436">link</text><line style="stroke:#181818;stroke-width:0.5;" x1="396.5" x2="449.5" y1="747.2969" y2="747.2969"/><line style="stroke:#181818;stroke-width:0.5;" x1="396.5" x2="449.5" y1="755.2969" y2="755.2969"/></g><!--reverse link overarch_dataModel_element to overarch_dataModel_identifiableElement--><g id="link_overarch_dataModel_element_overarch_dataModel_identifiableElement"><path codeLine="36" d="M245.5033,123.2194 C261.0433,145.8694 271.83,161.6069 287.42,184.3369 " fill="none" id="overarch_dataModel_element-backto-overarch_dataModel_identifiableElement" style="stroke:#181818;stroke-width:1.0;"/><polygon fill="none" points="235.32,108.3769,240.5558,126.6138,250.4508,119.8249,235.32,108.3769" style="stroke:#181818;stroke-width:1.0;"/></g><!--reverse link overarch_dataModel_element to overarch_dataModel_namedElement--><g id="link_overarch_dataModel_element_overarch_dataModel_namedElement"><path codeLine="37" d="M182.5,123.2217 C170.41,140.8517 165.21,148.4269 151.63,168.2269 " fill="none" id="overarch_dataModel_element-backto-overarch_dataModel_namedElement" style="stroke:#181818;stroke-width:1.0;"/><polygon fill="none" points="192.68,108.3769,177.5517,119.8283,187.4483,126.615,192.68,108.3769" style="stroke:#181818;stroke-width:1.0;"/></g><!--reverse link overarch_dataModel_identifiableElement to overarch_dataModel_identifiableNamedElement--><g id="link_overarch_dataModel_identifiableElement_overarch_dataModel_identifiableNamedElement"><path codeLine="38" d="M254.4737,259.9817 C218.6337,287.7117 181.27,316.6169 148.97,341.6069 " fill="none" id="overarch_dataModel_identifiableElement-backto-overarch_dataModel_identifiableNamedElement" style="stroke:#181818;stroke-width:1.0;"/><polygon fill="none" points="268.71,248.9669,250.8021,255.2363,258.1453,264.7272,268.71,248.9669" style="stroke:#181818;stroke-width:1.0;"/></g><!--reverse link overarch_dataModel_namedElement to overarch_dataModel_identifiableNamedElement--><g id="link_overarch_dataModel_namedElement_overarch_dataModel_identifiableNamedElement"><path codeLine="39" d="M119,283.5269 C119,309.0069 119,321.2269 119,341.5769 " fill="none" id="overarch_dataModel_namedElement-backto-overarch_dataModel_identifiableNamedElement" style="stroke:#181818;stroke-width:1.0;"/><polygon fill="none" points="119,265.5269,113,283.5269,125,283.5269,119,265.5269" style="stroke:#181818;stroke-width:1.0;"/></g><!--reverse link overarch_dataModel_identifiableElement to overarch_dataModel_relation--><g id="link_overarch_dataModel_identifiableElement_overarch_dataModel_relation"><path codeLine="40" d="M389.8467,258.0687 C420.7967,276.1287 439.96,292.7169 461,325.2969 C488.53,367.9369 495.37,427.2369 496.59,466.0569 " fill="none" id="overarch_dataModel_identifiableElement-backto-overarch_dataModel_relation" style="stroke:#181818;stroke-width:1.0;"/><polygon fill="none" points="374.3,248.9969,386.8228,263.251,392.8707,252.8865,374.3,248.9969" style="stroke:#181818;stroke-width:1.0;"/></g><!--reverse link overarch_dataModel_identifiableNamedElement to overarch_dataModel_deploymentModelElement--><g id="link_overarch_dataModel_identifiableNamedElement_overarch_dataModel_deploymentModelElement"><path codeLine="41" d="M161.7901,401.3804 C193.6301,427.1104 230.64,457.0169 262.4,482.6869 " fill="none" id="overarch_dataModel_identifiableNamedElement-backto-overarch_dataModel_deploymentModelElement" style="stroke:#181818;stroke-width:1.0;"/><polygon fill="none" points="147.79,390.0669,158.0189,406.0471,165.5613,396.7137,147.79,390.0669" style="stroke:#181818;stroke-width:1.0;"/></g><!--reverse link overarch_dataModel_technicalElement to overarch_dataModel_deploymentModelElement--><g id="link_overarch_dataModel_technicalElement_overarch_dataModel_deploymentModelElement"><path codeLine="42" d="M328.5177,423.0208 C317.3877,447.5708 310.94,461.8069 301.57,482.4769 " fill="none" id="overarch_dataModel_technicalElement-backto-overarch_dataModel_deploymentModelElement" style="stroke:#181818;stroke-width:1.0;"/><polygon fill="none" points="335.95,406.6269,323.053,420.5433,333.9823,425.4982,335.95,406.6269" style="stroke:#181818;stroke-width:1.0;"/></g><!--reverse link overarch_dataModel_deploymentModelElement to overarch_dataModel_deploymentModelNode--><g id="link_overarch_dataModel_deploymentModelElement_overarch_dataModel_deploymentModelNode"><path codeLine="43" d="M241.8364,540.8862 C209.3964,562.7162 175.88,585.2869 143.39,607.1469 " fill="none" id="overarch_dataModel_deploymentModelElement-backto-overarch_dataModel_deploymentModelNode" style="stroke:#181818;stroke-width:1.0;"/><polygon fill="none" points="256.77,530.8369,238.4867,535.9083,245.1862,545.864,256.77,530.8369" style="stroke:#181818;stroke-width:1.0;"/></g><!--reverse link overarch_dataModel_deploymentModelElement to overarch_dataModel_deploymentModelRelation--><g id="link_overarch_dataModel_deploymentModelElement_overarch_dataModel_deploymentModelRelation"><path codeLine="44" d="M320.6753,544.8919 C338.0853,566.6519 352.82,585.0769 370.32,606.9469 " fill="none" id="overarch_dataModel_deploymentModelElement-backto-overarch_dataModel_deploymentModelRelation" style="stroke:#181818;stroke-width:1.0;"/><polygon fill="none" points="309.43,530.8369,315.9903,548.6403,325.3603,541.1435,309.43,530.8369" style="stroke:#181818;stroke-width:1.0;"/></g><!--reverse link overarch_dataModel_relation to overarch_dataModel_deploymentModelRelation--><g id="link_overarch_dataModel_relation_overarch_dataModel_deploymentModelRelation"><path codeLine="45" d="M449.4176,561.1226 C432.2076,580.8226 423.88,590.3669 409.23,607.1369 " fill="none" id="overarch_dataModel_relation-backto-overarch_dataModel_deploymentModelRelation" style="stroke:#181818;stroke-width:1.0;"/><polygon fill="none" points="461.26,547.5669,444.8991,557.1752,453.9362,565.0701,461.26,547.5669" style="stroke:#181818;stroke-width:1.0;"/></g><!--reverse link overarch_dataModel_deploymentModelNode to overarch_dataModel_node--><g id="link_overarch_dataModel_deploymentModelNode_overarch_dataModel_node"><path codeLine="46" d="M122.7303,589.1756 C126.2503,567.3056 123.38,552.5969 119.82,530.8369 " fill="none" id="overarch_dataModel_deploymentModelNode-backto-overarch_dataModel_node" style="stroke:#181818;stroke-width:1.0;"/><polygon fill="none" points="119.87,606.9469,128.6541,590.129,116.8065,588.2222,119.87,606.9469" style="stroke:#181818;stroke-width:1.0;"/></g><!--link overarch_dataModel_node to overarch_dataModel_deploymentModelNode--><g id="link_overarch_dataModel_node_overarch_dataModel_deploymentModelNode"><path codeLine="47" d="M96.9488,542.6963 C93.5888,564.4563 94.5095,579.1448 97.8295,601.0148 " fill="none" id="overarch_dataModel_node-overarch_dataModel_deploymentModelNode" style="stroke:#181818;stroke-width:1.0;"/><polygon fill="#181818" points="98.78,530.8369,93.9112,536.1562,96.9488,542.6963,101.8175,537.377,98.78,530.8369" style="stroke:#181818;stroke-width:1.0;"/><polygon fill="#181818" points="98.73,606.9469,101.3339,597.4485,97.9796,602.0035,93.4245,598.6492,98.73,606.9469" style="stroke:#181818;stroke-width:1.0;"/><text fill="#000000" font-family="sans-serif" font-size="13" lengthAdjust="spacing" textLength="24" x="69.3017" y="596.2665">0..n</text></g><!--reverse link overarch_dataModel_deploymentModelNode to overarch_dataModel_container--><g id="link_overarch_dataModel_deploymentModelNode_overarch_dataModel_container"><path codeLine="48" d="M109,673.2969 C109,690.9569 109,697.2369 109,714.9769 " fill="none" id="overarch_dataModel_deploymentModelNode-backto-overarch_dataModel_container" style="stroke:#181818;stroke-width:1.0;"/><polygon fill="none" points="109,655.2969,103,673.2969,115,673.2969,109,655.2969" style="stroke:#181818;stroke-width:1.0;"/></g><!--reverse link overarch_dataModel_deploymentModelRelation to overarch_dataModel_link--><g id="link_overarch_dataModel_deploymentModelRelation_overarch_dataModel_link"><path codeLine="49" d="M401.8737,672.438 C407.5337,690.098 409.83,697.2369 415.52,714.9769 " fill="none" id="overarch_dataModel_deploymentModelRelation-backto-overarch_dataModel_link" style="stroke:#181818;stroke-width:1.0;"/><polygon fill="none" points="396.38,655.2969,396.16,674.2693,407.5874,670.6068,396.38,655.2969" style="stroke:#181818;stroke-width:1.0;"/></g><!--reverse link overarch_dataModel_deploymentModelRelation to overarch_dataModel_deployedTo--><g id="link_overarch_dataModel_deploymentModelRelation_overarch_dataModel_deployedTo"><path codeLine="50" d="M358.9983,669.2742 C344.6683,686.9342 336.31,697.2369 321.92,714.9769 " fill="none" id="overarch_dataModel_deploymentModelRelation-backto-overarch_dataModel_deployedTo" style="stroke:#181818;stroke-width:1.0;"/><polygon fill="none" points="370.34,655.2969,354.3392,665.4936,363.6574,673.0548,370.34,655.2969" style="stroke:#181818;stroke-width:1.0;"/></g><!--SRC=[hPLDJmCX48Rl_8h97arez6gC9ptQG-FDc8R2r9AoO5ZKDEf_5zPTTjik-w5xP9Xvc7SO1YUTGhZ3LsKEEMe73qQWWdk5OLKGmXKh2iYqDsV02Z3lQ9dbkxLWZfNEwx07dz-4RGfd6NTGnKZX4N8hsKOXrIn7GV6NcoAr8vOXeCgZYpw0mZgI07X1rx37muUnWfoJH5HFyn1B-yGspkLwMMa_GdcXplG3K3oQBbKM5NFIw5HqlL_gsbgJjvG1E3DDwD1f9s9NyV1pzgZxrKTtwXCE1f-oHqdzujS22nxNy7IvM5mz1xCvjmxqsuHEQoSanRGA3XnpKi2UTdR8TrfoDeYCZksqWx6ZRZbpRrQwGwEfgLvrBZVQCQdHfiwB3gqsLrBlK_vXBxZslCcRBqf7NifVCEqk8oFlVanAom7kKNVF0PoIQFsKoPInce9rjoqPqut_HoRUp4Xm6CZpKrSzrOqZUGPMr- -IRFE4ql8xlg3q5Y3pZzqFzzcgrfjF71Hama-IWeKfCWUd-Mr_0000]--></g></svg>