<?xml version="1.0" encoding="us-ascii" standalone="no"?><svg xmlns="http://www.w3.org/2000/svg" xmlns:xlink="http://www.w3.org/1999/xlink" contentStyleType="text/css" height="746px" preserveAspectRatio="none" style="width:559px;height:746px;background:#FFFFFF;" version="1.1" viewBox="0 0 559 746" width="559px" zoomAndPan="magnify"><defs/><g><text fill="#000000" font-family="sans-serif" font-size="14" font-weight="bold" lengthAdjust="spacing" textLength="200" x="172.5" y="24.5332">Deployment Model Elements</text><!--class overarch_dataModel_element--><g id="elem_overarch_dataModel_element"><rect codeLine="8" fill="#F1F1F1" height="65.6094" id="overarch_dataModel_element" rx="2.5" ry="2.5" style="stroke:#181818;stroke-width:0.5;" width="87" x="154" y="45.6094"/><ellipse cx="171.25" cy="61.6094" fill="#A9DCDF" rx="11" ry="11" style="stroke:#181818;stroke-width:1.0;"/><path d="M173.4375,63.375 L169.2969,63.375 L168.875,64.4063 L169.2969,64.4063 Q169.9063,64.4063 170.1719,64.6406 Q170.4375,64.875 170.4375,65.2656 Q170.4375,65.6406 170.1719,65.875 Q169.9063,66.1094 169.2969,66.1094 L167,66.1094 Q166.3906,66.1094 166.1406,65.875 Q165.875,65.6406 165.875,65.25 Q165.875,64.875 166.1563,64.6406 Q166.4219,64.3906 167.0469,64.4063 L169.7188,57.75 L168.6094,57.75 Q168,57.75 167.7344,57.5156 Q167.4688,57.2813 167.4688,56.8906 Q167.4688,56.5156 167.7344,56.2813 Q168,56.0469 168.6094,56.0469 L172.2813,56.0469 L175.6719,64.4063 Q176.2656,64.4063 176.4531,64.5469 Q176.8438,64.8125 176.8438,65.2656 Q176.8438,65.6406 176.5781,65.875 Q176.3281,66.1094 175.7188,66.1094 L173.4219,66.1094 Q172.8125,66.1094 172.5469,65.875 Q172.2813,65.6406 172.2813,65.25 Q172.2813,64.875 172.5469,64.6406 Q172.8125,64.4063 173.4219,64.4063 L173.8438,64.4063 L173.4375,63.375 Z M172.7188,61.6719 L171.3594,58.2969 L169.9844,61.6719 L172.7188,61.6719 Z " fill="#000000"/><text fill="#000000" font-family="sans-serif" font-size="14" font-style="italic" lengthAdjust="spacing" textLength="50" x="185.75" y="67.3379">element</text><line style="stroke:#181818;stroke-width:0.5;" x1="155" x2="240" y1="77.6094" y2="77.6094"/><text fill="#000000" font-family="sans-serif" font-size="14" lengthAdjust="spacing" textLength="75" x="160" y="96.1426">el : keyword</text><line style="stroke:#181818;stroke-width:0.5;" x1="155" x2="240" y1="103.2188" y2="103.2188"/></g><!--class overarch_dataModel_identifiableElement--><g id="elem_overarch_dataModel_identifiableElement"><rect codeLine="11" fill="#F1F1F1" height="65.6094" id="overarch_dataModel_identifiableElement" rx="2.5" ry="2.5" style="stroke:#181818;stroke-width:0.5;" width="155" x="209" y="180.1094"/><ellipse cx="224" cy="196.1094" fill="#A9DCDF" rx="11" ry="11" style="stroke:#181818;stroke-width:1.0;"/><path d="M226.1875,197.875 L222.0469,197.875 L221.625,198.9063 L222.0469,198.9063 Q222.6563,198.9063 222.9219,199.1406 Q223.1875,199.375 223.1875,199.7656 Q223.1875,200.1406 222.9219,200.375 Q222.6563,200.6094 222.0469,200.6094 L219.75,200.6094 Q219.1406,200.6094 218.8906,200.375 Q218.625,200.1406 218.625,199.75 Q218.625,199.375 218.9063,199.1406 Q219.1719,198.8906 219.7969,198.9063 L222.4688,192.25 L221.3594,192.25 Q220.75,192.25 220.4844,192.0156 Q220.2188,191.7813 220.2188,191.3906 Q220.2188,191.0156 220.4844,190.7813 Q220.75,190.5469 221.3594,190.5469 L225.0313,190.5469 L228.4219,198.9063 Q229.0156,198.9063 229.2031,199.0469 Q229.5938,199.3125 229.5938,199.7656 Q229.5938,200.1406 229.3281,200.375 Q229.0781,200.6094 228.4688,200.6094 L226.1719,200.6094 Q225.5625,200.6094 225.2969,200.375 Q225.0313,200.1406 225.0313,199.75 Q225.0313,199.375 225.2969,199.1406 Q225.5625,198.9063 226.1719,198.9063 L226.5938,198.9063 L226.1875,197.875 Z M225.4688,196.1719 L224.1094,192.7969 L222.7344,196.1719 L225.4688,196.1719 Z " fill="#000000"/><text fill="#000000" font-family="sans-serif" font-size="14" font-style="italic" lengthAdjust="spacing" textLength="123" x="238" y="201.8379">identifiable-element</text><line style="stroke:#181818;stroke-width:0.5;" x1="210" x2="363" y1="212.1094" y2="212.1094"/><text fill="#000000" font-family="sans-serif" font-size="14" lengthAdjust="spacing" textLength="75" x="215" y="230.6426">id : keyword</text><line style="stroke:#181818;stroke-width:0.5;" x1="210" x2="363" y1="237.7188" y2="237.7188"/></g><!--class overarch_dataModel_namedElement--><g id="elem_overarch_dataModel_namedElement"><rect codeLine="14" fill="#F1F1F1" height="83.2188" id="overarch_dataModel_namedElement" rx="2.5" ry="2.5" style="stroke:#181818;stroke-width:0.5;" width="130" x="43.5" y="171.6094"/><ellipse cx="58.5" cy="187.6094" fill="#A9DCDF" rx="11" ry="11" style="stroke:#181818;stroke-width:1.0;"/><path d="M60.6875,189.375 L56.5469,189.375 L56.125,190.4063 L56.5469,190.4063 Q57.1563,190.4063 57.4219,190.6406 Q57.6875,190.875 57.6875,191.2656 Q57.6875,191.6406 57.4219,191.875 Q57.1563,192.1094 56.5469,192.1094 L54.25,192.1094 Q53.6406,192.1094 53.3906,191.875 Q53.125,191.6406 53.125,191.25 Q53.125,190.875 53.4063,190.6406 Q53.6719,190.3906 54.2969,190.4063 L56.9688,183.75 L55.8594,183.75 Q55.25,183.75 54.9844,183.5156 Q54.7188,183.2813 54.7188,182.8906 Q54.7188,182.5156 54.9844,182.2813 Q55.25,182.0469 55.8594,182.0469 L59.5313,182.0469 L62.9219,190.4063 Q63.5156,190.4063 63.7031,190.5469 Q64.0938,190.8125 64.0938,191.2656 Q64.0938,191.6406 63.8281,191.875 Q63.5781,192.1094 62.9688,192.1094 L60.6719,192.1094 Q60.0625,192.1094 59.7969,191.875 Q59.5313,191.6406 59.5313,191.25 Q59.5313,190.875 59.7969,190.6406 Q60.0625,190.4063 60.6719,190.4063 L61.0938,190.4063 L60.6875,189.375 Z M59.9688,187.6719 L58.6094,184.2969 L57.2344,187.6719 L59.9688,187.6719 Z " fill="#000000"/><text fill="#000000" font-family="sans-serif" font-size="14" font-style="italic" lengthAdjust="spacing" textLength="98" x="72.5" y="193.3379">named-element</text><line style="stroke:#181818;stroke-width:0.5;" x1="44.5" x2="172.5" y1="203.6094" y2="203.6094"/><text fill="#000000" font-family="sans-serif" font-size="14" lengthAdjust="spacing" textLength="82" x="49.5" y="222.1426">name : string</text><text fill="#000000" font-family="sans-serif" font-size="14" lengthAdjust="spacing" textLength="113" x="49.5" y="239.752">desc : string [0..1]</text><line style="stroke:#181818;stroke-width:0.5;" x1="44.5" x2="172.5" y1="246.8281" y2="246.8281"/></g><!--class overarch_dataModel_identifiableNamedElement--><g id="elem_overarch_dataModel_identifiableNamedElement"><rect codeLine="18" fill="#F1F1F1" height="48" id="overarch_dataModel_identifiableNamedElement" rx="2.5" ry="2.5" style="stroke:#181818;stroke-width:0.5;" width="203" x="7" y="323.6094"/><ellipse cx="22" cy="339.6094" fill="#A9DCDF" rx="11" ry="11" style="stroke:#181818;stroke-width:1.0;"/><path d="M24.1875,341.375 L20.0469,341.375 L19.625,342.4063 L20.0469,342.4063 Q20.6563,342.4063 20.9219,342.6406 Q21.1875,342.875 21.1875,343.2656 Q21.1875,343.6406 20.9219,343.875 Q20.6563,344.1094 20.0469,344.1094 L17.75,344.1094 Q17.1406,344.1094 16.8906,343.875 Q16.625,343.6406 16.625,343.25 Q16.625,342.875 16.9063,342.6406 Q17.1719,342.3906 17.7969,342.4063 L20.4688,335.75 L19.3594,335.75 Q18.75,335.75 18.4844,335.5156 Q18.2188,335.2813 18.2188,334.8906 Q18.2188,334.5156 18.4844,334.2813 Q18.75,334.0469 19.3594,334.0469 L23.0313,334.0469 L26.4219,342.4063 Q27.0156,342.4063 27.2031,342.5469 Q27.5938,342.8125 27.5938,343.2656 Q27.5938,343.6406 27.3281,343.875 Q27.0781,344.1094 26.4688,344.1094 L24.1719,344.1094 Q23.5625,344.1094 23.2969,343.875 Q23.0313,343.6406 23.0313,343.25 Q23.0313,342.875 23.2969,342.6406 Q23.5625,342.4063 24.1719,342.4063 L24.5938,342.4063 L24.1875,341.375 Z M23.4688,339.6719 L22.1094,336.2969 L20.7344,339.6719 L23.4688,339.6719 Z " fill="#000000"/><text fill="#000000" font-family="sans-serif" font-size="14" font-style="italic" lengthAdjust="spacing" textLength="171" x="36" y="345.3379">identifiable-named-element</text><line style="stroke:#181818;stroke-width:0.5;" x1="8" x2="209" y1="355.6094" y2="355.6094"/><line style="stroke:#181818;stroke-width:0.5;" x1="8" x2="209" y1="363.6094" y2="363.6094"/></g><!--class overarch_dataModel_relationalElement--><g id="elem_overarch_dataModel_relationalElement"><rect codeLine="19" fill="#F1F1F1" height="83.2188" id="overarch_dataModel_relationalElement" rx="2.5" ry="2.5" style="stroke:#181818;stroke-width:0.5;" width="145" x="369" y="440.6094"/><ellipse cx="384" cy="456.6094" fill="#A9DCDF" rx="11" ry="11" style="stroke:#181818;stroke-width:1.0;"/><path d="M386.1875,458.375 L382.0469,458.375 L381.625,459.4063 L382.0469,459.4063 Q382.6563,459.4063 382.9219,459.6406 Q383.1875,459.875 383.1875,460.2656 Q383.1875,460.6406 382.9219,460.875 Q382.6563,461.1094 382.0469,461.1094 L379.75,461.1094 Q379.1406,461.1094 378.8906,460.875 Q378.625,460.6406 378.625,460.25 Q378.625,459.875 378.9063,459.6406 Q379.1719,459.3906 379.7969,459.4063 L382.4688,452.75 L381.3594,452.75 Q380.75,452.75 380.4844,452.5156 Q380.2188,452.2813 380.2188,451.8906 Q380.2188,451.5156 380.4844,451.2813 Q380.75,451.0469 381.3594,451.0469 L385.0313,451.0469 L388.4219,459.4063 Q389.0156,459.4063 389.2031,459.5469 Q389.5938,459.8125 389.5938,460.2656 Q389.5938,460.6406 389.3281,460.875 Q389.0781,461.1094 388.4688,461.1094 L386.1719,461.1094 Q385.5625,461.1094 385.2969,460.875 Q385.0313,460.6406 385.0313,460.25 Q385.0313,459.875 385.2969,459.6406 Q385.5625,459.4063 386.1719,459.4063 L386.5938,459.4063 L386.1875,458.375 Z M385.4688,456.6719 L384.1094,453.2969 L382.7344,456.6719 L385.4688,456.6719 Z " fill="#000000"/><text fill="#000000" font-family="sans-serif" font-size="14" font-style="italic" lengthAdjust="spacing" textLength="113" x="398" y="462.3379">relational-element</text><line style="stroke:#181818;stroke-width:0.5;" x1="370" x2="513" y1="472.6094" y2="472.6094"/><text fill="#000000" font-family="sans-serif" font-size="14" lengthAdjust="spacing" textLength="92" x="375" y="491.1426">from : keyword</text><text fill="#000000" font-family="sans-serif" font-size="14" lengthAdjust="spacing" textLength="76" x="375" y="508.752">to : keyword</text><line style="stroke:#181818;stroke-width:0.5;" x1="370" x2="513" y1="515.8281" y2="515.8281"/></g><!--class overarch_dataModel_technicalElement--><g id="elem_overarch_dataModel_technicalElement"><rect codeLine="23" fill="#F1F1F1" height="65.6094" id="overarch_dataModel_technicalElement" rx="2.5" ry="2.5" style="stroke:#181818;stroke-width:0.5;" width="143" x="245" y="314.6094"/><ellipse cx="260" cy="330.6094" fill="#A9DCDF" rx="11" ry="11" style="stroke:#181818;stroke-width:1.0;"/><path d="M262.1875,332.375 L258.0469,332.375 L257.625,333.4063 L258.0469,333.4063 Q258.6563,333.4063 258.9219,333.6406 Q259.1875,333.875 259.1875,334.2656 Q259.1875,334.6406 258.9219,334.875 Q258.6563,335.1094 258.0469,335.1094 L255.75,335.1094 Q255.1406,335.1094 254.8906,334.875 Q254.625,334.6406 254.625,334.25 Q254.625,333.875 254.9063,333.6406 Q255.1719,333.3906 255.7969,333.4063 L258.4688,326.75 L257.3594,326.75 Q256.75,326.75 256.4844,326.5156 Q256.2188,326.2813 256.2188,325.8906 Q256.2188,325.5156 256.4844,325.2813 Q256.75,325.0469 257.3594,325.0469 L261.0313,325.0469 L264.4219,333.4063 Q265.0156,333.4063 265.2031,333.5469 Q265.5938,333.8125 265.5938,334.2656 Q265.5938,334.6406 265.3281,334.875 Q265.0781,335.1094 264.4688,335.1094 L262.1719,335.1094 Q261.5625,335.1094 261.2969,334.875 Q261.0313,334.6406 261.0313,334.25 Q261.0313,333.875 261.2969,333.6406 Q261.5625,333.4063 262.1719,333.4063 L262.5938,333.4063 L262.1875,332.375 Z M261.4688,330.6719 L260.1094,327.2969 L258.7344,330.6719 L261.4688,330.6719 Z " fill="#000000"/><text fill="#000000" font-family="sans-serif" font-size="14" font-style="italic" lengthAdjust="spacing" textLength="111" x="274" y="336.3379">technical-element</text><line style="stroke:#181818;stroke-width:0.5;" x1="246" x2="387" y1="346.6094" y2="346.6094"/><text fill="#000000" font-family="sans-serif" font-size="14" lengthAdjust="spacing" textLength="110" x="251" y="365.1426">tech : string [0..1]</text><line style="stroke:#181818;stroke-width:0.5;" x1="246" x2="387" y1="372.2188" y2="372.2188"/></g><!--class overarch_dataModel_deploymentModelElement--><g id="elem_overarch_dataModel_deploymentModelElement"><rect codeLine="26" fill="#F1F1F1" height="48" id="overarch_dataModel_deploymentModelElement" rx="2.5" ry="2.5" style="stroke:#181818;stroke-width:0.5;" width="203" x="121" y="458.1094"/><ellipse cx="136" cy="474.1094" fill="#A9DCDF" rx="11" ry="11" style="stroke:#181818;stroke-width:1.0;"/><path d="M138.1875,475.875 L134.0469,475.875 L133.625,476.9063 L134.0469,476.9063 Q134.6563,476.9063 134.9219,477.1406 Q135.1875,477.375 135.1875,477.7656 Q135.1875,478.1406 134.9219,478.375 Q134.6563,478.6094 134.0469,478.6094 L131.75,478.6094 Q131.1406,478.6094 130.8906,478.375 Q130.625,478.1406 130.625,477.75 Q130.625,477.375 130.9063,477.1406 Q131.1719,476.8906 131.7969,476.9063 L134.4688,470.25 L133.3594,470.25 Q132.75,470.25 132.4844,470.0156 Q132.2188,469.7813 132.2188,469.3906 Q132.2188,469.0156 132.4844,468.7813 Q132.75,468.5469 133.3594,468.5469 L137.0313,468.5469 L140.4219,476.9063 Q141.0156,476.9063 141.2031,477.0469 Q141.5938,477.3125 141.5938,477.7656 Q141.5938,478.1406 141.3281,478.375 Q141.0781,478.6094 140.4688,478.6094 L138.1719,478.6094 Q137.5625,478.6094 137.2969,478.375 Q137.0313,478.1406 137.0313,477.75 Q137.0313,477.375 137.2969,477.1406 Q137.5625,476.9063 138.1719,476.9063 L138.5938,476.9063 L138.1875,475.875 Z M137.4688,474.1719 L136.1094,470.7969 L134.7344,474.1719 L137.4688,474.1719 Z " fill="#000000"/><text fill="#000000" font-family="sans-serif" font-size="14" font-style="italic" lengthAdjust="spacing" textLength="171" x="150" y="479.8379">deployment-model-element</text><line style="stroke:#181818;stroke-width:0.5;" x1="122" x2="323" y1="490.1094" y2="490.1094"/><line style="stroke:#181818;stroke-width:0.5;" x1="122" x2="323" y1="498.1094" y2="498.1094"/></g><!--class overarch_dataModel_deploymentModelNode--><g id="elem_overarch_dataModel_deploymentModelNode"><rect codeLine="27" fill="#F1F1F1" height="48" id="overarch_dataModel_deploymentModelNode" rx="2.5" ry="2.5" style="stroke:#181818;stroke-width:0.5;" width="185" x="121" y="583.6094"/><ellipse cx="136" cy="599.6094" fill="#A9DCDF" rx="11" ry="11" style="stroke:#181818;stroke-width:1.0;"/><path d="M138.1875,601.375 L134.0469,601.375 L133.625,602.4063 L134.0469,602.4063 Q134.6563,602.4063 134.9219,602.6406 Q135.1875,602.875 135.1875,603.2656 Q135.1875,603.6406 134.9219,603.875 Q134.6563,604.1094 134.0469,604.1094 L131.75,604.1094 Q131.1406,604.1094 130.8906,603.875 Q130.625,603.6406 130.625,603.25 Q130.625,602.875 130.9063,602.6406 Q131.1719,602.3906 131.7969,602.4063 L134.4688,595.75 L133.3594,595.75 Q132.75,595.75 132.4844,595.5156 Q132.2188,595.2813 132.2188,594.8906 Q132.2188,594.5156 132.4844,594.2813 Q132.75,594.0469 133.3594,594.0469 L137.0313,594.0469 L140.4219,602.4063 Q141.0156,602.4063 141.2031,602.5469 Q141.5938,602.8125 141.5938,603.2656 Q141.5938,603.6406 141.3281,603.875 Q141.0781,604.1094 140.4688,604.1094 L138.1719,604.1094 Q137.5625,604.1094 137.2969,603.875 Q137.0313,603.6406 137.0313,603.25 Q137.0313,602.875 137.2969,602.6406 Q137.5625,602.4063 138.1719,602.4063 L138.5938,602.4063 L138.1875,601.375 Z M137.4688,599.6719 L136.1094,596.2969 L134.7344,599.6719 L137.4688,599.6719 Z " fill="#000000"/><text fill="#000000" font-family="sans-serif" font-size="14" font-style="italic" lengthAdjust="spacing" textLength="153" x="150" y="605.3379">deployment-model-node</text><line style="stroke:#181818;stroke-width:0.5;" x1="122" x2="305" y1="615.6094" y2="615.6094"/><line style="stroke:#181818;stroke-width:0.5;" x1="122" x2="305" y1="623.6094" y2="623.6094"/></g><!--class overarch_dataModel_deploymentModelRelation--><g id="elem_overarch_dataModel_deploymentModelRelation"><rect codeLine="28" fill="#F1F1F1" height="48" id="overarch_dataModel_deploymentModelRelation" rx="2.5" ry="2.5" style="stroke:#181818;stroke-width:0.5;" width="200" x="341.5" y="583.6094"/><ellipse cx="356.5" cy="599.6094" fill="#A9DCDF" rx="11" ry="11" style="stroke:#181818;stroke-width:1.0;"/><path d="M358.6875,601.375 L354.5469,601.375 L354.125,602.4063 L354.5469,602.4063 Q355.1563,602.4063 355.4219,602.6406 Q355.6875,602.875 355.6875,603.2656 Q355.6875,603.6406 355.4219,603.875 Q355.1563,604.1094 354.5469,604.1094 L352.25,604.1094 Q351.6406,604.1094 351.3906,603.875 Q351.125,603.6406 351.125,603.25 Q351.125,602.875 351.4063,602.6406 Q351.6719,602.3906 352.2969,602.4063 L354.9688,595.75 L353.8594,595.75 Q353.25,595.75 352.9844,595.5156 Q352.7188,595.2813 352.7188,594.8906 Q352.7188,594.5156 352.9844,594.2813 Q353.25,594.0469 353.8594,594.0469 L357.5313,594.0469 L360.9219,602.4063 Q361.5156,602.4063 361.7031,602.5469 Q362.0938,602.8125 362.0938,603.2656 Q362.0938,603.6406 361.8281,603.875 Q361.5781,604.1094 360.9688,604.1094 L358.6719,604.1094 Q358.0625,604.1094 357.7969,603.875 Q357.5313,603.6406 357.5313,603.25 Q357.5313,602.875 357.7969,602.6406 Q358.0625,602.4063 358.6719,602.4063 L359.0938,602.4063 L358.6875,601.375 Z M357.9688,599.6719 L356.6094,596.2969 L355.2344,599.6719 L357.9688,599.6719 Z " fill="#000000"/><text fill="#000000" font-family="sans-serif" font-size="14" font-style="italic" lengthAdjust="spacing" textLength="168" x="370.5" y="605.3379">deployment-model-relation</text><line style="stroke:#181818;stroke-width:0.5;" x1="342.5" x2="540.5" y1="615.6094" y2="615.6094"/><line style="stroke:#181818;stroke-width:0.5;" x1="342.5" x2="540.5" y1="623.6094" y2="623.6094"/></g><!--class overarch_dataModel_container--><g id="elem_overarch_dataModel_container"><rect codeLine="29" fill="#F1F1F1" height="48" id="overarch_dataModel_container" rx="2.5" ry="2.5" style="stroke:#181818;stroke-width:0.5;" width="91" x="55" y="691.6094"/><ellipse cx="70" cy="707.6094" fill="#ADD1B2" rx="11" ry="11" style="stroke:#181818;stroke-width:1.0;"/><path d="M72.7656,703.4844 Q72.9219,703.2656 73.1094,703.1563 Q73.2969,703.0469 73.5156,703.0469 Q73.8906,703.0469 74.125,703.3125 Q74.3594,703.5625 74.3594,704.1719 L74.3594,705.625 Q74.3594,706.2344 74.125,706.5 Q73.8906,706.7656 73.5156,706.7656 Q73.1719,706.7656 72.9688,706.5625 Q72.7656,706.375 72.6563,705.8594 Q72.6094,705.5 72.4219,705.3125 Q72.0938,704.9375 71.4844,704.7188 Q70.875,704.5 70.25,704.5 Q69.4844,704.5 68.8438,704.8281 Q68.2188,705.1563 67.7188,705.9063 Q67.2344,706.6563 67.2344,707.6875 L67.2344,708.7813 Q67.2344,710.0156 68.125,710.8438 Q69.0156,711.6563 70.6094,711.6563 Q71.5469,711.6563 72.2031,711.4063 Q72.5938,711.25 73.0156,710.8125 Q73.2813,710.5469 73.4219,710.4688 Q73.5781,710.3906 73.7813,710.3906 Q74.1094,710.3906 74.3594,710.6563 Q74.625,710.9063 74.625,711.25 Q74.625,711.5938 74.2813,712 Q73.7813,712.5781 72.9844,712.9063 Q71.9063,713.3594 70.6094,713.3594 Q69.0938,713.3594 67.8906,712.7344 Q66.9063,712.2344 66.2188,711.1719 Q65.5313,710.0938 65.5313,708.8125 L65.5313,707.6563 Q65.5313,706.3281 66.1406,705.1875 Q66.7656,704.0313 67.8594,703.4219 Q68.9531,702.7969 70.1875,702.7969 Q70.9219,702.7969 71.5625,702.9688 Q72.2188,703.125 72.7656,703.4844 Z " fill="#000000"/><text fill="#000000" font-family="sans-serif" font-size="14" lengthAdjust="spacing" textLength="59" x="84" y="713.3379">container</text><line style="stroke:#181818;stroke-width:0.5;" x1="56" x2="145" y1="723.6094" y2="723.6094"/><line style="stroke:#181818;stroke-width:0.5;" x1="56" x2="145" y1="731.6094" y2="731.6094"/></g><!--class overarch_dataModel_node--><g id="elem_overarch_dataModel_node"><rect codeLine="30" fill="#F1F1F1" height="48" id="overarch_dataModel_node" rx="2.5" ry="2.5" style="stroke:#181818;stroke-width:0.5;" width="64" x="181.5" y="691.6094"/><ellipse cx="196.5" cy="707.6094" fill="#ADD1B2" rx="11" ry="11" style="stroke:#181818;stroke-width:1.0;"/><path d="M199.2656,703.4844 Q199.4219,703.2656 199.6094,703.1563 Q199.7969,703.0469 200.0156,703.0469 Q200.3906,703.0469 200.625,703.3125 Q200.8594,703.5625 200.8594,704.1719 L200.8594,705.625 Q200.8594,706.2344 200.625,706.5 Q200.3906,706.7656 200.0156,706.7656 Q199.6719,706.7656 199.4688,706.5625 Q199.2656,706.375 199.1563,705.8594 Q199.1094,705.5 198.9219,705.3125 Q198.5938,704.9375 197.9844,704.7188 Q197.375,704.5 196.75,704.5 Q195.9844,704.5 195.3438,704.8281 Q194.7188,705.1563 194.2188,705.9063 Q193.7344,706.6563 193.7344,707.6875 L193.7344,708.7813 Q193.7344,710.0156 194.625,710.8438 Q195.5156,711.6563 197.1094,711.6563 Q198.0469,711.6563 198.7031,711.4063 Q199.0938,711.25 199.5156,710.8125 Q199.7813,710.5469 199.9219,710.4688 Q200.0781,710.3906 200.2813,710.3906 Q200.6094,710.3906 200.8594,710.6563 Q201.125,710.9063 201.125,711.25 Q201.125,711.5938 200.7813,712 Q200.2813,712.5781 199.4844,712.9063 Q198.4063,713.3594 197.1094,713.3594 Q195.5938,713.3594 194.3906,712.7344 Q193.4063,712.2344 192.7188,711.1719 Q192.0313,710.0938 192.0313,708.8125 L192.0313,707.6563 Q192.0313,706.3281 192.6406,705.1875 Q193.2656,704.0313 194.3594,703.4219 Q195.4531,702.7969 196.6875,702.7969 Q197.4219,702.7969 198.0625,702.9688 Q198.7188,703.125 199.2656,703.4844 Z " fill="#000000"/><text fill="#000000" font-family="sans-serif" font-size="14" lengthAdjust="spacing" textLength="32" x="210.5" y="713.3379">node</text><line style="stroke:#181818;stroke-width:0.5;" x1="182.5" x2="244.5" y1="723.6094" y2="723.6094"/><line style="stroke:#181818;stroke-width:0.5;" x1="182.5" x2="244.5" y1="731.6094" y2="731.6094"/></g><!--class overarch_dataModel_link--><g id="elem_overarch_dataModel_link"><rect codeLine="31" fill="#F1F1F1" height="48" id="overarch_dataModel_link" rx="2.5" ry="2.5" style="stroke:#181818;stroke-width:0.5;" width="53" x="357" y="691.6094"/><ellipse cx="372" cy="707.6094" fill="#ADD1B2" rx="11" ry="11" style="stroke:#181818;stroke-width:1.0;"/><path d="M374.7656,703.4844 Q374.9219,703.2656 375.1094,703.1563 Q375.2969,703.0469 375.5156,703.0469 Q375.8906,703.0469 376.125,703.3125 Q376.3594,703.5625 376.3594,704.1719 L376.3594,705.625 Q376.3594,706.2344 376.125,706.5 Q375.8906,706.7656 375.5156,706.7656 Q375.1719,706.7656 374.9688,706.5625 Q374.7656,706.375 374.6563,705.8594 Q374.6094,705.5 374.4219,705.3125 Q374.0938,704.9375 373.4844,704.7188 Q372.875,704.5 372.25,704.5 Q371.4844,704.5 370.8438,704.8281 Q370.2188,705.1563 369.7188,705.9063 Q369.2344,706.6563 369.2344,707.6875 L369.2344,708.7813 Q369.2344,710.0156 370.125,710.8438 Q371.0156,711.6563 372.6094,711.6563 Q373.5469,711.6563 374.2031,711.4063 Q374.5938,711.25 375.0156,710.8125 Q375.2813,710.5469 375.4219,710.4688 Q375.5781,710.3906 375.7813,710.3906 Q376.1094,710.3906 376.3594,710.6563 Q376.625,710.9063 376.625,711.25 Q376.625,711.5938 376.2813,712 Q375.7813,712.5781 374.9844,712.9063 Q373.9063,713.3594 372.6094,713.3594 Q371.0938,713.3594 369.8906,712.7344 Q368.9063,712.2344 368.2188,711.1719 Q367.5313,710.0938 367.5313,708.8125 L367.5313,707.6563 Q367.5313,706.3281 368.1406,705.1875 Q368.7656,704.0313 369.8594,703.4219 Q370.9531,702.7969 372.1875,702.7969 Q372.9219,702.7969 373.5625,702.9688 Q374.2188,703.125 374.7656,703.4844 Z " fill="#000000"/><text fill="#000000" font-family="sans-serif" font-size="14" lengthAdjust="spacing" textLength="21" x="386" y="713.3379">link</text><line style="stroke:#181818;stroke-width:0.5;" x1="358" x2="409" y1="723.6094" y2="723.6094"/><line style="stroke:#181818;stroke-width:0.5;" x1="358" x2="409" y1="731.6094" y2="731.6094"/></g><!--class overarch_dataModel_deployedTo--><g id="elem_overarch_dataModel_deployedTo"><rect codeLine="32" fill="#F1F1F1" height="48" id="overarch_dataModel_deployedTo" rx="2.5" ry="2.5" style="stroke:#181818;stroke-width:0.5;" width="107" x="445" y="691.6094"/><ellipse cx="460" cy="707.6094" fill="#ADD1B2" rx="11" ry="11" style="stroke:#181818;stroke-width:1.0;"/><path d="M462.7656,703.4844 Q462.9219,703.2656 463.1094,703.1563 Q463.2969,703.0469 463.5156,703.0469 Q463.8906,703.0469 464.125,703.3125 Q464.3594,703.5625 464.3594,704.1719 L464.3594,705.625 Q464.3594,706.2344 464.125,706.5 Q463.8906,706.7656 463.5156,706.7656 Q463.1719,706.7656 462.9688,706.5625 Q462.7656,706.375 462.6563,705.8594 Q462.6094,705.5 462.4219,705.3125 Q462.0938,704.9375 461.4844,704.7188 Q460.875,704.5 460.25,704.5 Q459.4844,704.5 458.8438,704.8281 Q458.2188,705.1563 457.7188,705.9063 Q457.2344,706.6563 457.2344,707.6875 L457.2344,708.7813 Q457.2344,710.0156 458.125,710.8438 Q459.0156,711.6563 460.6094,711.6563 Q461.5469,711.6563 462.2031,711.4063 Q462.5938,711.25 463.0156,710.8125 Q463.2813,710.5469 463.4219,710.4688 Q463.5781,710.3906 463.7813,710.3906 Q464.1094,710.3906 464.3594,710.6563 Q464.625,710.9063 464.625,711.25 Q464.625,711.5938 464.2813,712 Q463.7813,712.5781 462.9844,712.9063 Q461.9063,713.3594 460.6094,713.3594 Q459.0938,713.3594 457.8906,712.7344 Q456.9063,712.2344 456.2188,711.1719 Q455.5313,710.0938 455.5313,708.8125 L455.5313,707.6563 Q455.5313,706.3281 456.1406,705.1875 Q456.7656,704.0313 457.8594,703.4219 Q458.9531,702.7969 460.1875,702.7969 Q460.9219,702.7969 461.5625,702.9688 Q462.2188,703.125 462.7656,703.4844 Z " fill="#000000"/><text fill="#000000" font-family="sans-serif" font-size="14" lengthAdjust="spacing" textLength="75" x="474" y="713.3379">deployed-to</text><line style="stroke:#181818;stroke-width:0.5;" x1="446" x2="551" y1="723.6094" y2="723.6094"/><line style="stroke:#181818;stroke-width:0.5;" x1="446" x2="551" y1="731.6094" y2="731.6094"/></g><!--reverse link overarch_dataModel_element to overarch_dataModel_identifiableElement--><g id="link_overarch_dataModel_element_overarch_dataModel_identifiableElement"><path codeLine="33" d="M230.29,128.4194 C241.81,145.5794 254.47,164.4194 264.85,179.8694 " fill="none" id="overarch_dataModel_element-backto-overarch_dataModel_identifiableElement" style="stroke:#181818;stroke-width:1.0;"/><polygon fill="none" points="224.39,132.1894,219.04,111.6794,236.01,124.3794,224.39,132.1894" style="stroke:#181818;stroke-width:1.0;"/></g><!--reverse link overarch_dataModel_element to overarch_dataModel_namedElement--><g id="link_overarch_dataModel_element_overarch_dataModel_namedElement"><path codeLine="34" d="M164.56,128.6494 C155.14,142.6794 144.97,157.8094 135.92,171.2894 " fill="none" id="overarch_dataModel_element-backto-overarch_dataModel_namedElement" style="stroke:#181818;stroke-width:1.0;"/><polygon fill="none" points="158.99,124.3794,175.96,111.6794,170.61,132.1894,158.99,124.3794" style="stroke:#181818;stroke-width:1.0;"/></g><!--reverse link overarch_dataModel_identifiableElement to overarch_dataModel_identifiableNamedElement--><g id="link_overarch_dataModel_identifiableElement_overarch_dataModel_identifiableNamedElement"><path codeLine="35" d="M227.25,258.2194 C197.88,280.0794 163.63,305.5694 139.48,323.5494 " fill="none" id="overarch_dataModel_identifiableElement-backto-overarch_dataModel_identifiableNamedElement" style="stroke:#181818;stroke-width:1.0;"/><polygon fill="none" points="223.19,252.5094,243.41,246.1794,231.55,263.7394,223.19,252.5094" style="stroke:#181818;stroke-width:1.0;"/></g><!--reverse link overarch_dataModel_namedElement to overarch_dataModel_identifiableNamedElement--><g id="link_overarch_dataModel_namedElement_overarch_dataModel_identifiableNamedElement"><path codeLine="36" d="M108.5,275.0294 C108.5,292.2494 108.5,309.9594 108.5,323.4494 " fill="none" id="overarch_dataModel_namedElement-backto-overarch_dataModel_identifiableNamedElement" style="stroke:#181818;stroke-width:1.0;"/><polygon fill="none" points="101.5,274.9494,108.5,254.9494,115.5,274.9494,101.5,274.9494" style="stroke:#181818;stroke-width:1.0;"/></g><!--reverse link overarch_dataModel_identifiableElement to overarch_dataModel_relationalElement--><g id="link_overarch_dataModel_identifiableElement_overarch_dataModel_relationalElement"><path codeLine="37" d="M354.3,258.4494 C373.47,274.0694 392.6,293.1494 405.5,314.6094 C428.73,353.2694 437.06,404.9494 440,440.4294 " fill="none" id="overarch_dataModel_identifiableElement-backto-overarch_dataModel_relationalElement" style="stroke:#181818;stroke-width:1.0;"/><polygon fill="none" points="349.92,263.9094,338.32,246.1694,358.45,252.8094,349.92,263.9094" style="stroke:#181818;stroke-width:1.0;"/></g><!--reverse link overarch_dataModel_identifiableNamedElement to overarch_dataModel_deploymentModelElement--><g id="link_overarch_dataModel_identifiableNamedElement_overarch_dataModel_deploymentModelElement"><path codeLine="38" d="M141.42,386.8694 C161.16,409.8194 185.63,438.2494 202.49,457.8494 " fill="none" id="overarch_dataModel_identifiableNamedElement-backto-overarch_dataModel_deploymentModelElement" style="stroke:#181818;stroke-width:1.0;"/><polygon fill="none" points="136.1,391.4194,128.36,371.6894,146.71,382.2894,136.1,391.4194" style="stroke:#181818;stroke-width:1.0;"/></g><!--reverse link overarch_dataModel_technicalElement to overarch_dataModel_deploymentModelElement--><g id="link_overarch_dataModel_technicalElement_overarch_dataModel_deploymentModelElement"><path codeLine="39" d="M282.15,397.0294 C267.37,417.8694 250.78,441.2394 238.86,458.0494 " fill="none" id="overarch_dataModel_technicalElement-backto-overarch_dataModel_deploymentModelElement" style="stroke:#181818;stroke-width:1.0;"/><polygon fill="none" points="276.46,392.9494,293.75,380.6794,287.88,401.0494,276.46,392.9494" style="stroke:#181818;stroke-width:1.0;"/></g><!--reverse link overarch_dataModel_deploymentModelElement to overarch_dataModel_deploymentModelNode--><g id="link_overarch_dataModel_deploymentModelElement_overarch_dataModel_deploymentModelNode"><path codeLine="40" d="M219.34,526.4594 C217.94,545.6594 216.35,567.4694 215.19,583.4794 " fill="none" id="overarch_dataModel_deploymentModelElement-backto-overarch_dataModel_deploymentModelNode" style="stroke:#181818;stroke-width:1.0;"/><polygon fill="none" points="212.37,525.7794,220.81,506.3394,226.33,526.7994,212.37,525.7794" style="stroke:#181818;stroke-width:1.0;"/></g><!--reverse link overarch_dataModel_deploymentModelElement to overarch_dataModel_deploymentModelRelation--><g id="link_overarch_dataModel_deploymentModelElement_overarch_dataModel_deploymentModelRelation"><path codeLine="41" d="M280.99,516.0894 C318.67,537.3394 366.73,564.4394 400.39,583.4294 " fill="none" id="overarch_dataModel_deploymentModelElement-backto-overarch_dataModel_deploymentModelRelation" style="stroke:#181818;stroke-width:1.0;"/><polygon fill="none" points="277.42,522.1194,263.44,506.1894,284.29,509.9194,277.42,522.1194" style="stroke:#181818;stroke-width:1.0;"/></g><!--reverse link overarch_dataModel_relationalElement to overarch_dataModel_deploymentModelRelation--><g id="link_overarch_dataModel_relationalElement_overarch_dataModel_deploymentModelRelation"><path codeLine="42" d="M441.5,544.1094 C441.5,558.1694 441.5,572.2794 441.5,583.5194 " fill="none" id="overarch_dataModel_relationalElement-backto-overarch_dataModel_deploymentModelRelation" style="stroke:#181818;stroke-width:1.0;"/><polygon fill="none" points="434.5,543.8894,441.5,523.8894,448.5,543.8894,434.5,543.8894" style="stroke:#181818;stroke-width:1.0;"/></g><!--reverse link overarch_dataModel_deploymentModelNode to overarch_dataModel_node--><g id="link_overarch_dataModel_deploymentModelNode_overarch_dataModel_node"><path codeLine="43" d="M200.95,651.6294 C200.4,665.1894 200.99,679.6494 202.73,691.2894 " fill="none" id="overarch_dataModel_deploymentModelNode-backto-overarch_dataModel_node" style="stroke:#181818;stroke-width:1.0;"/><polygon fill="none" points="193.99,650.8894,202.77,631.6094,207.93,652.1594,193.99,650.8894" style="stroke:#181818;stroke-width:1.0;"/></g><!--link overarch_dataModel_node to overarch_dataModel_deploymentModelNode--><g id="link_overarch_dataModel_node_overarch_dataModel_deploymentModelNode"><path codeLine="44" d="M226.38,678.3294 C227.2,667.5494 227.21,655.7394 226.39,644.9494 " fill="none" id="overarch_dataModel_node-overarch_dataModel_deploymentModelNode" style="stroke:#181818;stroke-width:1.0;"/><polygon fill="#181818" points="224.91,691.2894,229.5635,685.7808,226.2685,679.3665,221.6149,684.8751,224.91,691.2894" style="stroke:#181818;stroke-width:1.0;"/><polygon fill="#181818" points="224.86,631.6094,221.9046,641.0043,225.426,636.5772,229.8531,640.0987,224.86,631.6094" style="stroke:#181818;stroke-width:1.0;"/><line style="stroke:#181818;stroke-width:1.0;" x1="225.426" x2="226.34" y1="636.5772" y2="644.5244"/><text fill="#000000" font-family="sans-serif" font-size="13" lengthAdjust="spacing" textLength="22" x="202.9478" y="652.9473">0..n</text></g><!--reverse link overarch_dataModel_deploymentModelNode to overarch_dataModel_container--><g id="link_overarch_dataModel_deploymentModelNode_overarch_dataModel_container"><path codeLine="45" d="M174.26,645.4194 C158.03,660.6494 139.69,677.8494 125.36,691.2894 " fill="none" id="overarch_dataModel_deploymentModelNode-backto-overarch_dataModel_container" style="stroke:#181818;stroke-width:1.0;"/><polygon fill="none" points="169.6,640.1894,188.98,631.6094,179.18,650.3994,169.6,640.1894" style="stroke:#181818;stroke-width:1.0;"/></g><!--reverse link overarch_dataModel_deploymentModelRelation to overarch_dataModel_link--><g id="link_overarch_dataModel_deploymentModelRelation_overarch_dataModel_link"><path codeLine="46" d="M419.28,649.2194 C411.49,663.4594 403.01,678.9594 396.26,691.2894 " fill="none" id="overarch_dataModel_deploymentModelRelation-backto-overarch_dataModel_link" style="stroke:#181818;stroke-width:1.0;"/><polygon fill="none" points="413.17,645.7994,428.91,631.6094,425.46,652.5194,413.17,645.7994" style="stroke:#181818;stroke-width:1.0;"/></g><!--reverse link overarch_dataModel_deploymentModelRelation to overarch_dataModel_deployedTo--><g id="link_overarch_dataModel_deploymentModelRelation_overarch_dataModel_deployedTo"><path codeLine="47" d="M463.6,649.6994 C471.18,663.8094 479.4,679.0894 485.96,691.2894 " fill="none" id="overarch_dataModel_deploymentModelRelation-backto-overarch_dataModel_deployedTo" style="stroke:#181818;stroke-width:1.0;"/><polygon fill="none" points="457.18,652.5394,453.87,631.6094,469.51,645.9094,457.18,652.5394" style="stroke:#181818;stroke-width:1.0;"/></g><!--SRC=[hPG_JyCm4CLtVufJHwHKi2B4H4Sw83Q4AjU-KgkEZHmBL07V7JjD4rUf_nIoH7By_BlpoUzPOIN20xvBlQzHMNZK72Ki9FfLG-YwiOOo2qpIfe4P7ZPcG1lG7sYeOTiLfvQsvrRTDdmH08UvXHtkFxNXv6T44jm9nKRGjSGgWmsrYw24uCaIYjR8S-nM54Bz3uTrAA7Ut9fZm_erl5pFvpUlkViKLGvFB4-w6DCDIcg5LbJcg8ColDJ6w3gO5O3LoT5PP5ibMBvSBmoh-Py58-Fziwjg3ylL6lJjEZ6k4LcvRo5swJv5pEEa2xbFdTopEoJJobAXqCGGlI0ubBgAwdhlf5AeNKpgzmBfeLdtQArEtmVvi_Rd4kw_-wwgGXl_1HCwbXIcHKbBompt92cc05xIwCZMv994YL7FEugK-Fp_o8YT2y7UfjDJZoObHSaw0VHS-4GVVkJAhUklgkeUOEQorWNIPEDBzjEd4xaW_M8mdqTJS8QK-WK0]--></g></svg>