<?xml version="1.0" encoding="us-ascii" standalone="no"?><svg xmlns="http://www.w3.org/2000/svg" xmlns:xlink="http://www.w3.org/1999/xlink" contentStyleType="text/css" height="737px" preserveAspectRatio="none" style="width:589px;height:737px;background:#FFFFFF;" version="1.1" viewBox="0 0 589 737" width="589px" zoomAndPan="magnify"><defs/><g><text fill="#000000" font-family="sans-serif" font-size="14" font-weight="bold" lengthAdjust="spacing" textLength="223" x="176" y="22.9951">Deployment Model Elements</text><!--class overarch_dataModel_element--><g id="elem_overarch_dataModel_element"><rect codeLine="8" fill="#F1F1F1" height="64.2969" id="overarch_dataModel_element" rx="2.5" ry="2.5" style="stroke:#181818;stroke-width:0.5;" width="95" x="165" y="44.2969"/><ellipse cx="182.7" cy="60.2969" fill="#A9DCDF" rx="11" ry="11" style="stroke:#181818;stroke-width:1.0;"/><path d="M182.8094,55.6406 L181.6531,60.7188 L183.9813,60.7188 L182.8094,55.6406 Z M181.325,53.4063 L184.3094,53.4063 L187.6688,65.7969 L185.2156,65.7969 L184.45,62.7344 L181.1688,62.7344 L180.4188,65.7969 L177.9813,65.7969 L181.325,53.4063 Z " fill="#000000"/><text fill="#000000" font-family="sans-serif" font-size="14" font-style="italic" lengthAdjust="spacing" textLength="57" x="197.3" y="65.1436">element</text><line style="stroke:#181818;stroke-width:0.5;" x1="166" x2="259" y1="76.2969" y2="76.2969"/><text fill="#000000" font-family="sans-serif" font-size="14" lengthAdjust="spacing" textLength="83" x="171" y="93.292">el : keyword</text><line style="stroke:#181818;stroke-width:0.5;" x1="166" x2="259" y1="100.5938" y2="100.5938"/></g><!--class overarch_dataModel_identifiableElement--><g id="elem_overarch_dataModel_identifiableElement"><rect codeLine="11" fill="#F1F1F1" height="64.2969" id="overarch_dataModel_identifiableElement" rx="2.5" ry="2.5" style="stroke:#181818;stroke-width:0.5;" width="168" x="223.5" y="176.7969"/><ellipse cx="238.5" cy="192.7969" fill="#A9DCDF" rx="11" ry="11" style="stroke:#181818;stroke-width:1.0;"/><path d="M238.6094,188.1406 L237.4531,193.2188 L239.7813,193.2188 L238.6094,188.1406 Z M237.125,185.9063 L240.1094,185.9063 L243.4688,198.2969 L241.0156,198.2969 L240.25,195.2344 L236.9688,195.2344 L236.2188,198.2969 L233.7813,198.2969 L237.125,185.9063 Z " fill="#000000"/><text fill="#000000" font-family="sans-serif" font-size="14" font-style="italic" lengthAdjust="spacing" textLength="136" x="252.5" y="197.6436">identifiable-element</text><line style="stroke:#181818;stroke-width:0.5;" x1="224.5" x2="390.5" y1="208.7969" y2="208.7969"/><text fill="#000000" font-family="sans-serif" font-size="14" lengthAdjust="spacing" textLength="83" x="229.5" y="225.792">id : keyword</text><line style="stroke:#181818;stroke-width:0.5;" x1="224.5" x2="390.5" y1="233.0938" y2="233.0938"/></g><!--class overarch_dataModel_namedElement--><g id="elem_overarch_dataModel_namedElement"><rect codeLine="14" fill="#F1F1F1" height="80.5938" id="overarch_dataModel_namedElement" rx="2.5" ry="2.5" style="stroke:#181818;stroke-width:0.5;" width="142" x="46.5" y="168.2969"/><ellipse cx="61.5" cy="184.2969" fill="#A9DCDF" rx="11" ry="11" style="stroke:#181818;stroke-width:1.0;"/><path d="M61.6094,179.6406 L60.4531,184.7188 L62.7813,184.7188 L61.6094,179.6406 Z M60.125,177.4063 L63.1094,177.4063 L66.4688,189.7969 L64.0156,189.7969 L63.25,186.7344 L59.9688,186.7344 L59.2188,189.7969 L56.7813,189.7969 L60.125,177.4063 Z " fill="#000000"/><text fill="#000000" font-family="sans-serif" font-size="14" font-style="italic" lengthAdjust="spacing" textLength="110" x="75.5" y="189.1436">named-element</text><line style="stroke:#181818;stroke-width:0.5;" x1="47.5" x2="187.5" y1="200.2969" y2="200.2969"/><text fill="#000000" font-family="sans-serif" font-size="14" lengthAdjust="spacing" textLength="91" x="52.5" y="217.292">name : string</text><text fill="#000000" font-family="sans-serif" font-size="14" lengthAdjust="spacing" textLength="126" x="52.5" y="233.5889">desc : string [0..1]</text><line style="stroke:#181818;stroke-width:0.5;" x1="47.5" x2="187.5" y1="240.8906" y2="240.8906"/></g><!--class overarch_dataModel_identifiableNamedElement--><g id="elem_overarch_dataModel_identifiableNamedElement"><rect codeLine="18" fill="#F1F1F1" height="48" id="overarch_dataModel_identifiableNamedElement" rx="2.5" ry="2.5" style="stroke:#181818;stroke-width:0.5;" width="221" x="7" y="317.2969"/><ellipse cx="22" cy="333.2969" fill="#A9DCDF" rx="11" ry="11" style="stroke:#181818;stroke-width:1.0;"/><path d="M22.1094,328.6406 L20.9531,333.7188 L23.2813,333.7188 L22.1094,328.6406 Z M20.625,326.4063 L23.6094,326.4063 L26.9688,338.7969 L24.5156,338.7969 L23.75,335.7344 L20.4688,335.7344 L19.7188,338.7969 L17.2813,338.7969 L20.625,326.4063 Z " fill="#000000"/><text fill="#000000" font-family="sans-serif" font-size="14" font-style="italic" lengthAdjust="spacing" textLength="189" x="36" y="338.1436">identifiable-named-element</text><line style="stroke:#181818;stroke-width:0.5;" x1="8" x2="227" y1="349.2969" y2="349.2969"/><line style="stroke:#181818;stroke-width:0.5;" x1="8" x2="227" y1="357.2969" y2="357.2969"/></g><!--class overarch_dataModel_relationalElement--><g id="elem_overarch_dataModel_relationalElement"><rect codeLine="19" fill="#F1F1F1" height="80.5938" id="overarch_dataModel_relationalElement" rx="2.5" ry="2.5" style="stroke:#181818;stroke-width:0.5;" width="156" x="394.5" y="433.2969"/><ellipse cx="409.5" cy="449.2969" fill="#A9DCDF" rx="11" ry="11" style="stroke:#181818;stroke-width:1.0;"/><path d="M409.6094,444.6406 L408.4531,449.7188 L410.7813,449.7188 L409.6094,444.6406 Z M408.125,442.4063 L411.1094,442.4063 L414.4688,454.7969 L412.0156,454.7969 L411.25,451.7344 L407.9688,451.7344 L407.2188,454.7969 L404.7813,454.7969 L408.125,442.4063 Z " fill="#000000"/><text fill="#000000" font-family="sans-serif" font-size="14" font-style="italic" lengthAdjust="spacing" textLength="124" x="423.5" y="454.1436">relational-element</text><line style="stroke:#181818;stroke-width:0.5;" x1="395.5" x2="549.5" y1="465.2969" y2="465.2969"/><text fill="#000000" font-family="sans-serif" font-size="14" lengthAdjust="spacing" textLength="102" x="400.5" y="482.292">from : keyword</text><text fill="#000000" font-family="sans-serif" font-size="14" lengthAdjust="spacing" textLength="85" x="400.5" y="498.5889">to : keyword</text><line style="stroke:#181818;stroke-width:0.5;" x1="395.5" x2="549.5" y1="505.8906" y2="505.8906"/></g><!--class overarch_dataModel_technicalElement--><g id="elem_overarch_dataModel_technicalElement"><rect codeLine="23" fill="#F1F1F1" height="64.2969" id="overarch_dataModel_technicalElement" rx="2.5" ry="2.5" style="stroke:#181818;stroke-width:0.5;" width="156" x="263.5" y="309.2969"/><ellipse cx="278.5" cy="325.2969" fill="#A9DCDF" rx="11" ry="11" style="stroke:#181818;stroke-width:1.0;"/><path d="M278.6094,320.6406 L277.4531,325.7188 L279.7813,325.7188 L278.6094,320.6406 Z M277.125,318.4063 L280.1094,318.4063 L283.4688,330.7969 L281.0156,330.7969 L280.25,327.7344 L276.9688,327.7344 L276.2188,330.7969 L273.7813,330.7969 L277.125,318.4063 Z " fill="#000000"/><text fill="#000000" font-family="sans-serif" font-size="14" font-style="italic" lengthAdjust="spacing" textLength="124" x="292.5" y="330.1436">technical-element</text><line style="stroke:#181818;stroke-width:0.5;" x1="264.5" x2="418.5" y1="341.2969" y2="341.2969"/><text fill="#000000" font-family="sans-serif" font-size="14" lengthAdjust="spacing" textLength="123" x="269.5" y="358.292">tech : string [0..1]</text><line style="stroke:#181818;stroke-width:0.5;" x1="264.5" x2="418.5" y1="365.5938" y2="365.5938"/></g><!--class overarch_dataModel_deploymentModelElement--><g id="elem_overarch_dataModel_deploymentModelElement"><rect codeLine="26" fill="#F1F1F1" height="48" id="overarch_dataModel_deploymentModelElement" rx="2.5" ry="2.5" style="stroke:#181818;stroke-width:0.5;" width="225" x="123" y="449.7969"/><ellipse cx="138" cy="465.7969" fill="#A9DCDF" rx="11" ry="11" style="stroke:#181818;stroke-width:1.0;"/><path d="M138.1094,461.1406 L136.9531,466.2188 L139.2813,466.2188 L138.1094,461.1406 Z M136.625,458.9063 L139.6094,458.9063 L142.9688,471.2969 L140.5156,471.2969 L139.75,468.2344 L136.4688,468.2344 L135.7188,471.2969 L133.2813,471.2969 L136.625,458.9063 Z " fill="#000000"/><text fill="#000000" font-family="sans-serif" font-size="14" font-style="italic" lengthAdjust="spacing" textLength="193" x="152" y="470.6436">deployment-model-element</text><line style="stroke:#181818;stroke-width:0.5;" x1="124" x2="347" y1="481.7969" y2="481.7969"/><line style="stroke:#181818;stroke-width:0.5;" x1="124" x2="347" y1="489.7969" y2="489.7969"/></g><!--class overarch_dataModel_deploymentModelNode--><g id="elem_overarch_dataModel_deploymentModelNode"><rect codeLine="27" fill="#F1F1F1" height="48" id="overarch_dataModel_deploymentModelNode" rx="2.5" ry="2.5" style="stroke:#181818;stroke-width:0.5;" width="204" x="123.5" y="574.2969"/><ellipse cx="138.5" cy="590.2969" fill="#A9DCDF" rx="11" ry="11" style="stroke:#181818;stroke-width:1.0;"/><path d="M138.6094,585.6406 L137.4531,590.7188 L139.7813,590.7188 L138.6094,585.6406 Z M137.125,583.4063 L140.1094,583.4063 L143.4688,595.7969 L141.0156,595.7969 L140.25,592.7344 L136.9688,592.7344 L136.2188,595.7969 L133.7813,595.7969 L137.125,583.4063 Z " fill="#000000"/><text fill="#000000" font-family="sans-serif" font-size="14" font-style="italic" lengthAdjust="spacing" textLength="172" x="152.5" y="595.1436">deployment-model-node</text><line style="stroke:#181818;stroke-width:0.5;" x1="124.5" x2="326.5" y1="606.2969" y2="606.2969"/><line style="stroke:#181818;stroke-width:0.5;" x1="124.5" x2="326.5" y1="614.2969" y2="614.2969"/></g><!--class overarch_dataModel_deploymentModelRelation--><g id="elem_overarch_dataModel_deploymentModelRelation"><rect codeLine="28" fill="#F1F1F1" height="48" id="overarch_dataModel_deploymentModelRelation" rx="2.5" ry="2.5" style="stroke:#181818;stroke-width:0.5;" width="219" x="363" y="574.2969"/><ellipse cx="378" cy="590.2969" fill="#A9DCDF" rx="11" ry="11" style="stroke:#181818;stroke-width:1.0;"/><path d="M378.1094,585.6406 L376.9531,590.7188 L379.2813,590.7188 L378.1094,585.6406 Z M376.625,583.4063 L379.6094,583.4063 L382.9688,595.7969 L380.5156,595.7969 L379.75,592.7344 L376.4688,592.7344 L375.7188,595.7969 L373.2813,595.7969 L376.625,583.4063 Z " fill="#000000"/><text fill="#000000" font-family="sans-serif" font-size="14" font-style="italic" lengthAdjust="spacing" textLength="187" x="392" y="595.1436">deployment-model-relation</text><line style="stroke:#181818;stroke-width:0.5;" x1="364" x2="581" y1="606.2969" y2="606.2969"/><line style="stroke:#181818;stroke-width:0.5;" x1="364" x2="581" y1="614.2969" y2="614.2969"/></g><!--class overarch_dataModel_container--><g id="elem_overarch_dataModel_container"><rect codeLine="29" fill="#F1F1F1" height="48" id="overarch_dataModel_container" rx="2.5" ry="2.5" style="stroke:#181818;stroke-width:0.5;" width="97" x="59" y="682.2969"/><ellipse cx="74" cy="698.2969" fill="#ADD1B2" rx="11" ry="11" style="stroke:#181818;stroke-width:1.0;"/><path d="M76.9688,703.9375 Q76.3906,704.2344 75.75,704.375 Q75.1094,704.5313 74.4063,704.5313 Q71.9063,704.5313 70.5781,702.8906 Q69.2656,701.2344 69.2656,698.1094 Q69.2656,694.9844 70.5781,693.3281 Q71.9063,691.6719 74.4063,691.6719 Q75.1094,691.6719 75.75,691.8281 Q76.4063,691.9844 76.9688,692.2813 L76.9688,695 Q76.3438,694.4219 75.75,694.1563 Q75.1563,693.875 74.5313,693.875 Q73.1875,693.875 72.5,694.9531 Q71.8125,696.0156 71.8125,698.1094 Q71.8125,700.2031 72.5,701.2813 Q73.1875,702.3438 74.5313,702.3438 Q75.1563,702.3438 75.75,702.0781 Q76.3438,701.7969 76.9688,701.2188 L76.9688,703.9375 Z " fill="#000000"/><text fill="#000000" font-family="sans-serif" font-size="14" lengthAdjust="spacing" textLength="65" x="88" y="703.1436">container</text><line style="stroke:#181818;stroke-width:0.5;" x1="60" x2="155" y1="714.2969" y2="714.2969"/><line style="stroke:#181818;stroke-width:0.5;" x1="60" x2="155" y1="722.2969" y2="722.2969"/></g><!--class overarch_dataModel_node--><g id="elem_overarch_dataModel_node"><rect codeLine="30" fill="#F1F1F1" height="48" id="overarch_dataModel_node" rx="2.5" ry="2.5" style="stroke:#181818;stroke-width:0.5;" width="68" x="191.5" y="682.2969"/><ellipse cx="206.5" cy="698.2969" fill="#ADD1B2" rx="11" ry="11" style="stroke:#181818;stroke-width:1.0;"/><path d="M209.4688,703.9375 Q208.8906,704.2344 208.25,704.375 Q207.6094,704.5313 206.9063,704.5313 Q204.4063,704.5313 203.0781,702.8906 Q201.7656,701.2344 201.7656,698.1094 Q201.7656,694.9844 203.0781,693.3281 Q204.4063,691.6719 206.9063,691.6719 Q207.6094,691.6719 208.25,691.8281 Q208.9063,691.9844 209.4688,692.2813 L209.4688,695 Q208.8438,694.4219 208.25,694.1563 Q207.6563,693.875 207.0313,693.875 Q205.6875,693.875 205,694.9531 Q204.3125,696.0156 204.3125,698.1094 Q204.3125,700.2031 205,701.2813 Q205.6875,702.3438 207.0313,702.3438 Q207.6563,702.3438 208.25,702.0781 Q208.8438,701.7969 209.4688,701.2188 L209.4688,703.9375 Z " fill="#000000"/><text fill="#000000" font-family="sans-serif" font-size="14" lengthAdjust="spacing" textLength="36" x="220.5" y="703.1436">node</text><line style="stroke:#181818;stroke-width:0.5;" x1="192.5" x2="258.5" y1="714.2969" y2="714.2969"/><line style="stroke:#181818;stroke-width:0.5;" x1="192.5" x2="258.5" y1="722.2969" y2="722.2969"/></g><!--class overarch_dataModel_link--><g id="elem_overarch_dataModel_link"><rect codeLine="31" fill="#F1F1F1" height="48" id="overarch_dataModel_link" rx="2.5" ry="2.5" style="stroke:#181818;stroke-width:0.5;" width="55" x="445" y="682.2969"/><ellipse cx="460" cy="698.2969" fill="#ADD1B2" rx="11" ry="11" style="stroke:#181818;stroke-width:1.0;"/><path d="M462.9688,703.9375 Q462.3906,704.2344 461.75,704.375 Q461.1094,704.5313 460.4063,704.5313 Q457.9063,704.5313 456.5781,702.8906 Q455.2656,701.2344 455.2656,698.1094 Q455.2656,694.9844 456.5781,693.3281 Q457.9063,691.6719 460.4063,691.6719 Q461.1094,691.6719 461.75,691.8281 Q462.4063,691.9844 462.9688,692.2813 L462.9688,695 Q462.3438,694.4219 461.75,694.1563 Q461.1563,693.875 460.5313,693.875 Q459.1875,693.875 458.5,694.9531 Q457.8125,696.0156 457.8125,698.1094 Q457.8125,700.2031 458.5,701.2813 Q459.1875,702.3438 460.5313,702.3438 Q461.1563,702.3438 461.75,702.0781 Q462.3438,701.7969 462.9688,701.2188 L462.9688,703.9375 Z " fill="#000000"/><text fill="#000000" font-family="sans-serif" font-size="14" lengthAdjust="spacing" textLength="23" x="474" y="703.1436">link</text><line style="stroke:#181818;stroke-width:0.5;" x1="446" x2="499" y1="714.2969" y2="714.2969"/><line style="stroke:#181818;stroke-width:0.5;" x1="446" x2="499" y1="722.2969" y2="722.2969"/></g><!--reverse link overarch_dataModel_element to overarch_dataModel_identifiableElement--><g id="link_overarch_dataModel_element_overarch_dataModel_identifiableElement"><path codeLine="32" d="M247.06,124.7669 C259.68,142.1069 273.62,161.2569 284.93,176.7969 " fill="none" id="overarch_dataModel_element-backto-overarch_dataModel_identifiableElement" style="stroke:#181818;stroke-width:1.0;"/><polygon fill="none" points="241.37,128.8469,235.25,108.5569,252.68,120.6069,241.37,128.8469" style="stroke:#181818;stroke-width:1.0;"/></g><!--reverse link overarch_dataModel_element to overarch_dataModel_namedElement--><g id="link_overarch_dataModel_element_overarch_dataModel_namedElement"><path codeLine="33" d="M177.8,124.9669 C167.54,139.0569 156.42,154.3369 146.55,167.8869 " fill="none" id="overarch_dataModel_element-backto-overarch_dataModel_namedElement" style="stroke:#181818;stroke-width:1.0;"/><polygon fill="none" points="172.32,120.6069,189.75,108.5569,183.63,128.8469,172.32,120.6069" style="stroke:#181818;stroke-width:1.0;"/></g><!--reverse link overarch_dataModel_identifiableElement to overarch_dataModel_identifiableNamedElement--><g id="link_overarch_dataModel_identifiableElement_overarch_dataModel_identifiableNamedElement"><path codeLine="34" d="M245.22,252.5769 C213.85,274.1169 177.05,299.3969 151.04,317.2669 " fill="none" id="overarch_dataModel_identifiableElement-backto-overarch_dataModel_identifiableNamedElement" style="stroke:#181818;stroke-width:1.0;"/><polygon fill="none" points="241.54,246.6069,261.99,241.0569,249.47,258.1469,241.54,246.6069" style="stroke:#181818;stroke-width:1.0;"/></g><!--reverse link overarch_dataModel_namedElement to overarch_dataModel_identifiableNamedElement--><g id="link_overarch_dataModel_namedElement_overarch_dataModel_identifiableNamedElement"><path codeLine="35" d="M117.5,269.4369 C117.5,286.4069 117.5,303.8869 117.5,317.2369 " fill="none" id="overarch_dataModel_namedElement-backto-overarch_dataModel_identifiableNamedElement" style="stroke:#181818;stroke-width:1.0;"/><polygon fill="none" points="110.5,269.3069,117.5,249.3069,124.5,269.3069,110.5,269.3069" style="stroke:#181818;stroke-width:1.0;"/></g><!--reverse link overarch_dataModel_identifiableElement to overarch_dataModel_relationalElement--><g id="link_overarch_dataModel_identifiableElement_overarch_dataModel_relationalElement"><path codeLine="36" d="M381.5,252.4169 C402.47,267.8369 423.41,287.0269 437.5,309.2969 C461.33,346.9469 469.16,398.2369 471.62,433.2569 " fill="none" id="overarch_dataModel_identifiableElement-backto-overarch_dataModel_relationalElement" style="stroke:#181818;stroke-width:1.0;"/><polygon fill="none" points="377.27,258.0069,364.8,240.8769,385.23,246.4869,377.27,258.0069" style="stroke:#181818;stroke-width:1.0;"/></g><!--reverse link overarch_dataModel_identifiableNamedElement to overarch_dataModel_deploymentModelElement--><g id="link_overarch_dataModel_identifiableNamedElement_overarch_dataModel_deploymentModelElement"><path codeLine="37" d="M151.76,380.1869 C172.05,402.6269 197.1,430.3269 214.49,449.5569 " fill="none" id="overarch_dataModel_identifiableNamedElement-backto-overarch_dataModel_deploymentModelElement" style="stroke:#181818;stroke-width:1.0;"/><polygon fill="none" points="146.55,384.8569,138.32,365.3269,156.93,375.4669,146.55,384.8569" style="stroke:#181818;stroke-width:1.0;"/></g><!--reverse link overarch_dataModel_technicalElement to overarch_dataModel_deploymentModelElement--><g id="link_overarch_dataModel_technicalElement_overarch_dataModel_deploymentModelElement"><path codeLine="38" d="M303.36,389.2569 C286.72,409.7369 267.95,432.8469 254.38,449.5569 " fill="none" id="overarch_dataModel_technicalElement-backto-overarch_dataModel_deploymentModelElement" style="stroke:#181818;stroke-width:1.0;"/><polygon fill="none" points="298.07,384.6669,316.11,373.5569,308.93,393.4969,298.07,384.6669" style="stroke:#181818;stroke-width:1.0;"/></g><!--reverse link overarch_dataModel_deploymentModelElement to overarch_dataModel_deploymentModelNode--><g id="link_overarch_dataModel_deploymentModelElement_overarch_dataModel_deploymentModelNode"><path codeLine="39" d="M231.98,517.9669 C230.44,536.7969 228.7,558.1369 227.41,573.9469 " fill="none" id="overarch_dataModel_deploymentModelElement-backto-overarch_dataModel_deploymentModelNode" style="stroke:#181818;stroke-width:1.0;"/><polygon fill="none" points="225.01,517.2069,233.62,497.8369,238.97,518.3369,225.01,517.2069" style="stroke:#181818;stroke-width:1.0;"/></g><!--reverse link overarch_dataModel_deploymentModelElement to overarch_dataModel_deploymentModelRelation--><g id="link_overarch_dataModel_deploymentModelElement_overarch_dataModel_deploymentModelRelation"><path codeLine="40" d="M297.91,507.0569 C338.71,528.1469 391.03,555.1869 427.72,574.1469 " fill="none" id="overarch_dataModel_deploymentModelElement-backto-overarch_dataModel_deploymentModelRelation" style="stroke:#181818;stroke-width:1.0;"/><polygon fill="none" points="294.63,513.2369,280.08,497.8369,301.06,500.8069,294.63,513.2369" style="stroke:#181818;stroke-width:1.0;"/></g><!--reverse link overarch_dataModel_relationalElement to overarch_dataModel_deploymentModelRelation--><g id="link_overarch_dataModel_relationalElement_overarch_dataModel_deploymentModelRelation"><path codeLine="41" d="M472.5,534.7169 C472.5,548.7469 472.5,562.8669 472.5,574.1369 " fill="none" id="overarch_dataModel_relationalElement-backto-overarch_dataModel_deploymentModelRelation" style="stroke:#181818;stroke-width:1.0;"/><polygon fill="none" points="465.5,534.5669,472.5,514.5669,479.5,534.5669,465.5,534.5669" style="stroke:#181818;stroke-width:1.0;"/></g><!--reverse link overarch_dataModel_deploymentModelNode to overarch_dataModel_node--><g id="link_overarch_dataModel_deploymentModelNode_overarch_dataModel_node"><path codeLine="42" d="M212.95,642.3169 C212.4,655.8769 212.99,670.3369 214.73,681.9769 " fill="none" id="overarch_dataModel_deploymentModelNode-backto-overarch_dataModel_node" style="stroke:#181818;stroke-width:1.0;"/><polygon fill="none" points="205.99,641.5769,214.77,622.2969,219.93,642.8469,205.99,641.5769" style="stroke:#181818;stroke-width:1.0;"/></g><!--link overarch_dataModel_node to overarch_dataModel_deploymentModelNode--><g id="link_overarch_dataModel_node_overarch_dataModel_deploymentModelNode"><path codeLine="43" d="M238.38,669.0169 C239.2,658.2369 239.21,646.4269 238.39,635.6369 " fill="none" id="overarch_dataModel_node-overarch_dataModel_deploymentModelNode" style="stroke:#181818;stroke-width:1.0;"/><polygon fill="#181818" points="236.91,681.9769,241.5635,676.4683,238.2685,670.054,233.6149,675.5626,236.91,681.9769" style="stroke:#181818;stroke-width:1.0;"/><polygon fill="#181818" points="236.86,622.2969,233.9046,631.6918,237.426,627.2647,241.8531,630.7862,236.86,622.2969" style="stroke:#181818;stroke-width:1.0;"/><line style="stroke:#181818;stroke-width:1.0;" x1="237.426" x2="238.34" y1="627.2647" y2="635.2119"/><text fill="#000000" font-family="sans-serif" font-size="13" lengthAdjust="spacing" textLength="24" x="212.696" y="642.4527">0..n</text></g><!--reverse link overarch_dataModel_deploymentModelNode to overarch_dataModel_container--><g id="link_overarch_dataModel_deploymentModelNode_overarch_dataModel_container"><path codeLine="44" d="M184.79,635.8669 C167.77,651.1569 148.5,668.4669 133.46,681.9769 " fill="none" id="overarch_dataModel_deploymentModelNode-backto-overarch_dataModel_container" style="stroke:#181818;stroke-width:1.0;"/><polygon fill="none" points="180.34,630.4569,199.9,622.2969,189.7,640.8669,180.34,630.4569" style="stroke:#181818;stroke-width:1.0;"/></g><!--reverse link overarch_dataModel_deploymentModelRelation to overarch_dataModel_link--><g id="link_overarch_dataModel_deploymentModelRelation_overarch_dataModel_link"><path codeLine="45" d="M472.5,642.3169 C472.5,655.8769 472.5,670.3369 472.5,681.9769 " fill="none" id="overarch_dataModel_deploymentModelRelation-backto-overarch_dataModel_link" style="stroke:#181818;stroke-width:1.0;"/><polygon fill="none" points="465.5,642.2969,472.5,622.2969,479.5,642.2969,465.5,642.2969" style="stroke:#181818;stroke-width:1.0;"/></g><!--SRC=[hPJ1JWCX48RlFCMaHvDjz6gC9tjq3rwDQIXCBIaB1eYcKTzTMBTRcYqBgtiX6VZvPfZmZnDE8ZpWczI71fM3HyrHmafYY2oX6-iCPGwOfDR20dyF5a0jw7SqrB3TcbD7stlhxXW-2O37tC8U3n_QSF8z80dkXM8hw4PYbS76sbMKGl3H58eso7FiLXH3muR7UfHGhpxcQ5aVm_FrSddpadjFKURuHdrMnP1kK58djA8oHpqfuqTjZMwYNW4uFTewXsod1CkdwuLnjh1Pq3BUVxkg2R1ShfE-ZKVQDI0hlnPYQxyKCO-TBkG-TVB0xf1CAqU5GfD2z8BeqjXJL5Tx9vL2xLFIS1Qa8ow- -wggGZl-1HCxZnIwlgIaEiCzS_mSm2c53kn9fao65FMoCqY9N_-FJDYo41piDZ_rQ3PID25dW5uQ8icFdtXowzwhghe7MFYPwGVBREqRhQUVCcJ254l1mbpv0G00]--></g></svg>