<svg xmlns="http://www.w3.org/2000/svg" xmlns:xlink="http://www.w3.org/1999/xlink" contentStyleType="text/css" height="705px" preserveAspectRatio="none" style="width:746px;height:705px;background:#FFFFFF;" version="1.1" viewBox="0 0 746 705" width="746px" zoomAndPan="magnify"><defs/><g><text fill="#000000" font-family="sans-serif" font-size="14" font-weight="bold" lengthAdjust="spacing" textLength="200" x="266" y="24.9659">Deployment Model Elements</text><!--class overarch_dataModel_artifact--><g id="elem_overarch_dataModel_artifact"><rect codeLine="9" fill="#F1F1F1" height="48" id="overarch_dataModel_artifact" rx="2.5" ry="2.5" style="stroke:#181818;stroke-width:0.5;" width="80" x="7" y="415.0679"/><ellipse cx="22" cy="431.0679" fill="#ADD1B2" rx="11" ry="11" style="stroke:#181818;stroke-width:1.0;"/><path d="M24.9688,436.7085 Q24.3906,437.0054 23.75,437.146 Q23.1094,437.3023 22.4063,437.3023 Q19.9063,437.3023 18.5781,435.6617 Q17.2656,434.0054 17.2656,430.8804 Q17.2656,427.7554 18.5781,426.0992 Q19.9063,424.4429 22.4063,424.4429 Q23.1094,424.4429 23.75,424.5992 Q24.4063,424.7554 24.9688,425.0523 L24.9688,427.771 Q24.3438,427.1929 23.75,426.9273 Q23.1563,426.646 22.5313,426.646 Q21.1875,426.646 20.5,427.7242 Q19.8125,428.7867 19.8125,430.8804 Q19.8125,432.9742 20.5,434.0523 Q21.1875,435.1148 22.5313,435.1148 Q23.1563,435.1148 23.75,434.8492 Q24.3438,434.5679 24.9688,433.9898 L24.9688,436.7085 Z " fill="#000000"/><text fill="#000000" font-family="sans-serif" font-size="14" lengthAdjust="spacing" textLength="48" x="36" y="436.4999">artifact</text><line style="stroke:#181818;stroke-width:0.5;" x1="8" x2="86" y1="447.0679" y2="447.0679"/><line style="stroke:#181818;stroke-width:0.5;" x1="8" x2="86" y1="455.0679" y2="455.0679"/></g><!--class overarch_dataModel_deploymentModelRelation--><g id="elem_overarch_dataModel_deploymentModelRelation"><rect codeLine="10" fill="#F1F1F1" height="48" id="overarch_dataModel_deploymentModelRelation" rx="2.5" ry="2.5" style="stroke:#181818;stroke-width:0.5;" width="203" x="169.5" y="542.0679"/><ellipse cx="184.5" cy="558.0679" fill="#A9DCDF" rx="11" ry="11" style="stroke:#181818;stroke-width:1.0;"/><path d="M184.6094,553.4117 L183.4531,558.4898 L185.7813,558.4898 L184.6094,553.4117 Z M183.125,551.1773 L186.1094,551.1773 L189.4688,563.5679 L187.0156,563.5679 L186.25,560.5054 L182.9688,560.5054 L182.2188,563.5679 L179.7813,563.5679 L183.125,551.1773 Z " fill="#000000"/><text fill="#000000" font-family="sans-serif" font-size="14" font-style="italic" lengthAdjust="spacing" textLength="171" x="198.5" y="563.4999">deployment-model-relation</text><line style="stroke:#181818;stroke-width:0.5;" x1="170.5" x2="371.5" y1="574.0679" y2="574.0679"/><line style="stroke:#181818;stroke-width:0.5;" x1="170.5" x2="371.5" y1="582.0679" y2="582.0679"/></g><!--class overarch_dataModel_link--><g id="elem_overarch_dataModel_link"><rect codeLine="11" fill="#F1F1F1" height="48" id="overarch_dataModel_link" rx="2.5" ry="2.5" style="stroke:#181818;stroke-width:0.5;" width="56" x="136" y="650.0679"/><ellipse cx="151" cy="666.0679" fill="#ADD1B2" rx="11" ry="11" style="stroke:#181818;stroke-width:1.0;"/><path d="M153.9688,671.7085 Q153.3906,672.0054 152.75,672.146 Q152.1094,672.3023 151.4063,672.3023 Q148.9063,672.3023 147.5781,670.6617 Q146.2656,669.0054 146.2656,665.8804 Q146.2656,662.7554 147.5781,661.0992 Q148.9063,659.4429 151.4063,659.4429 Q152.1094,659.4429 152.75,659.5992 Q153.4063,659.7554 153.9688,660.0523 L153.9688,662.771 Q153.3438,662.1929 152.75,661.9273 Q152.1563,661.646 151.5313,661.646 Q150.1875,661.646 149.5,662.7242 Q148.8125,663.7867 148.8125,665.8804 Q148.8125,667.9742 149.5,669.0523 Q150.1875,670.1148 151.5313,670.1148 Q152.1563,670.1148 152.75,669.8492 Q153.3438,669.5679 153.9688,668.9898 L153.9688,671.7085 Z " fill="#000000"/><text fill="#000000" font-family="sans-serif" font-size="14" lengthAdjust="spacing" textLength="24" x="165" y="671.4999">link</text><line style="stroke:#181818;stroke-width:0.5;" x1="137" x2="191" y1="682.0679" y2="682.0679"/><line style="stroke:#181818;stroke-width:0.5;" x1="137" x2="191" y1="690.0679" y2="690.0679"/></g><!--class overarch_dataModel_modelElement--><g id="elem_overarch_dataModel_modelElement"><rect codeLine="12" fill="#F1F1F1" height="86.1358" id="overarch_dataModel_modelElement" rx="2.5" ry="2.5" style="stroke:#181818;stroke-width:0.5;" width="175" x="335.5" y="250.0679"/><ellipse cx="373" cy="266.0679" fill="#A9DCDF" rx="11" ry="11" style="stroke:#181818;stroke-width:1.0;"/><path d="M373.1094,261.4117 L371.9531,266.4898 L374.2813,266.4898 L373.1094,261.4117 Z M371.625,259.1773 L374.6094,259.1773 L377.9688,271.5679 L375.5156,271.5679 L374.75,268.5054 L371.4688,268.5054 L370.7188,271.5679 L368.2813,271.5679 L371.625,259.1773 Z " fill="#000000"/><text fill="#000000" font-family="sans-serif" font-size="14" font-style="italic" lengthAdjust="spacing" textLength="93" x="392" y="271.4999">model-element</text><line style="stroke:#181818;stroke-width:0.5;" x1="336.5" x2="509.5" y1="282.0679" y2="282.0679"/><text fill="#000000" font-family="sans-serif" font-size="14" lengthAdjust="spacing" textLength="163" x="341.5" y="301.0339">maturity : keyword [0..1]</text><text fill="#000000" font-family="sans-serif" font-size="14" lengthAdjust="spacing" textLength="99" x="341.5" y="320.1018">tags : set [0..1]</text><line style="stroke:#181818;stroke-width:0.5;" x1="336.5" x2="509.5" y1="328.2038" y2="328.2038"/></g><!--class overarch_dataModel_deployedTo--><g id="elem_overarch_dataModel_deployedTo"><rect codeLine="16" fill="#F1F1F1" height="48" id="overarch_dataModel_deployedTo" rx="2.5" ry="2.5" style="stroke:#181818;stroke-width:0.5;" width="112" x="227" y="650.0679"/><ellipse cx="242" cy="666.0679" fill="#ADD1B2" rx="11" ry="11" style="stroke:#181818;stroke-width:1.0;"/><path d="M244.9688,671.7085 Q244.3906,672.0054 243.75,672.146 Q243.1094,672.3023 242.4063,672.3023 Q239.9063,672.3023 238.5781,670.6617 Q237.2656,669.0054 237.2656,665.8804 Q237.2656,662.7554 238.5781,661.0992 Q239.9063,659.4429 242.4063,659.4429 Q243.1094,659.4429 243.75,659.5992 Q244.4063,659.7554 244.9688,660.0523 L244.9688,662.771 Q244.3438,662.1929 243.75,661.9273 Q243.1563,661.646 242.5313,661.646 Q241.1875,661.646 240.5,662.7242 Q239.8125,663.7867 239.8125,665.8804 Q239.8125,667.9742 240.5,669.0523 Q241.1875,670.1148 242.5313,670.1148 Q243.1563,670.1148 243.75,669.8492 Q244.3438,669.5679 244.9688,668.9898 L244.9688,671.7085 Z " fill="#000000"/><text fill="#000000" font-family="sans-serif" font-size="14" lengthAdjust="spacing" textLength="80" x="256" y="671.4999">deployed-to</text><line style="stroke:#181818;stroke-width:0.5;" x1="228" x2="338" y1="682.0679" y2="682.0679"/><line style="stroke:#181818;stroke-width:0.5;" x1="228" x2="338" y1="690.0679" y2="690.0679"/></g><!--class overarch_dataModel_technicalElement--><g id="elem_overarch_dataModel_technicalElement"><rect codeLine="17" fill="#F1F1F1" height="67.0679" id="overarch_dataModel_technicalElement" rx="2.5" ry="2.5" style="stroke:#181818;stroke-width:0.5;" width="142" x="65" y="259.5679"/><ellipse cx="80" cy="275.5679" fill="#A9DCDF" rx="11" ry="11" style="stroke:#181818;stroke-width:1.0;"/><path d="M80.1094,270.9117 L78.9531,275.9898 L81.2813,275.9898 L80.1094,270.9117 Z M78.625,268.6773 L81.6094,268.6773 L84.9688,281.0679 L82.5156,281.0679 L81.75,278.0054 L78.4688,278.0054 L77.7188,281.0679 L75.2813,281.0679 L78.625,268.6773 Z " fill="#000000"/><text fill="#000000" font-family="sans-serif" font-size="14" font-style="italic" lengthAdjust="spacing" textLength="110" x="94" y="280.9999">technical-element</text><line style="stroke:#181818;stroke-width:0.5;" x1="66" x2="206" y1="291.5679" y2="291.5679"/><text fill="#000000" font-family="sans-serif" font-size="14" lengthAdjust="spacing" textLength="119" x="71" y="310.5339">tech : string [0..1]</text><line style="stroke:#181818;stroke-width:0.5;" x1="66" x2="206" y1="318.6358" y2="318.6358"/></g><!--class overarch_dataModel_version--><g id="elem_overarch_dataModel_version"><rect codeLine="20" fill="#F1F1F1" height="48" id="overarch_dataModel_version" rx="2.5" ry="2.5" style="stroke:#181818;stroke-width:0.5;" width="81" x="524.5" y="94.5679"/><ellipse cx="539.5" cy="110.5679" fill="#ADD1B2" rx="11" ry="11" style="stroke:#181818;stroke-width:1.0;"/><path d="M542.4688,116.2085 Q541.8906,116.5054 541.25,116.646 Q540.6094,116.8023 539.9063,116.8023 Q537.4063,116.8023 536.0781,115.1617 Q534.7656,113.5054 534.7656,110.3804 Q534.7656,107.2554 536.0781,105.5992 Q537.4063,103.9429 539.9063,103.9429 Q540.6094,103.9429 541.25,104.0992 Q541.9063,104.2554 542.4688,104.5523 L542.4688,107.271 Q541.8438,106.6929 541.25,106.4273 Q540.6563,106.146 540.0313,106.146 Q538.6875,106.146 538,107.2242 Q537.3125,108.2867 537.3125,110.3804 Q537.3125,112.4742 538,113.5523 Q538.6875,114.6148 540.0313,114.6148 Q540.6563,114.6148 541.25,114.3492 Q541.8438,114.0679 542.4688,113.4898 L542.4688,116.2085 Z " fill="#000000"/><text fill="#000000" font-family="sans-serif" font-size="14" lengthAdjust="spacing" textLength="49" x="553.5" y="115.9999">version</text><line style="stroke:#181818;stroke-width:0.5;" x1="525.5" x2="604.5" y1="126.5679" y2="126.5679"/><line style="stroke:#181818;stroke-width:0.5;" x1="525.5" x2="604.5" y1="134.5679" y2="134.5679"/></g><!--class overarch_dataModel_artifactOf--><g id="elem_overarch_dataModel_artifactOf"><rect codeLine="21" fill="#F1F1F1" height="48" id="overarch_dataModel_artifactOf" rx="2.5" ry="2.5" style="stroke:#181818;stroke-width:0.5;" width="98" x="641" y="94.5679"/><ellipse cx="656" cy="110.5679" fill="#ADD1B2" rx="11" ry="11" style="stroke:#181818;stroke-width:1.0;"/><path d="M658.9688,116.2085 Q658.3906,116.5054 657.75,116.646 Q657.1094,116.8023 656.4063,116.8023 Q653.9063,116.8023 652.5781,115.1617 Q651.2656,113.5054 651.2656,110.3804 Q651.2656,107.2554 652.5781,105.5992 Q653.9063,103.9429 656.4063,103.9429 Q657.1094,103.9429 657.75,104.0992 Q658.4063,104.2554 658.9688,104.5523 L658.9688,107.271 Q658.3438,106.6929 657.75,106.4273 Q657.1563,106.146 656.5313,106.146 Q655.1875,106.146 654.5,107.2242 Q653.8125,108.2867 653.8125,110.3804 Q653.8125,112.4742 654.5,113.5523 Q655.1875,114.6148 656.5313,114.6148 Q657.1563,114.6148 657.75,114.3492 Q658.3438,114.0679 658.9688,113.4898 L658.9688,116.2085 Z " fill="#000000"/><text fill="#000000" font-family="sans-serif" font-size="14" lengthAdjust="spacing" textLength="66" x="670" y="115.9999">artifact-of</text><line style="stroke:#181818;stroke-width:0.5;" x1="642" x2="738" y1="126.5679" y2="126.5679"/><line style="stroke:#181818;stroke-width:0.5;" x1="642" x2="738" y1="134.5679" y2="134.5679"/></g><!--class overarch_dataModel_container--><g id="elem_overarch_dataModel_container"><rect codeLine="22" fill="#F1F1F1" height="48" id="overarch_dataModel_container" rx="2.5" ry="2.5" style="stroke:#181818;stroke-width:0.5;" width="96" x="398" y="650.0679"/><ellipse cx="413" cy="666.0679" fill="#ADD1B2" rx="11" ry="11" style="stroke:#181818;stroke-width:1.0;"/><path d="M415.9688,671.7085 Q415.3906,672.0054 414.75,672.146 Q414.1094,672.3023 413.4063,672.3023 Q410.9063,672.3023 409.5781,670.6617 Q408.2656,669.0054 408.2656,665.8804 Q408.2656,662.7554 409.5781,661.0992 Q410.9063,659.4429 413.4063,659.4429 Q414.1094,659.4429 414.75,659.5992 Q415.4063,659.7554 415.9688,660.0523 L415.9688,662.771 Q415.3438,662.1929 414.75,661.9273 Q414.1563,661.646 413.5313,661.646 Q412.1875,661.646 411.5,662.7242 Q410.8125,663.7867 410.8125,665.8804 Q410.8125,667.9742 411.5,669.0523 Q412.1875,670.1148 413.5313,670.1148 Q414.1563,670.1148 414.75,669.8492 Q415.3438,669.5679 415.9688,668.9898 L415.9688,671.7085 Z " fill="#000000"/><text fill="#000000" font-family="sans-serif" font-size="14" lengthAdjust="spacing" textLength="64" x="427" y="671.4999">container</text><line style="stroke:#181818;stroke-width:0.5;" x1="399" x2="493" y1="682.0679" y2="682.0679"/><line style="stroke:#181818;stroke-width:0.5;" x1="399" x2="493" y1="690.0679" y2="690.0679"/></g><!--class overarch_dataModel_deploymentModelNode--><g id="elem_overarch_dataModel_deploymentModelNode"><rect codeLine="23" fill="#F1F1F1" height="48" id="overarch_dataModel_deploymentModelNode" rx="2.5" ry="2.5" style="stroke:#181818;stroke-width:0.5;" width="184" x="470" y="542.0679"/><ellipse cx="485" cy="558.0679" fill="#A9DCDF" rx="11" ry="11" style="stroke:#181818;stroke-width:1.0;"/><path d="M485.1094,553.4117 L483.9531,558.4898 L486.2813,558.4898 L485.1094,553.4117 Z M483.625,551.1773 L486.6094,551.1773 L489.9688,563.5679 L487.5156,563.5679 L486.75,560.5054 L483.4688,560.5054 L482.7188,563.5679 L480.2813,563.5679 L483.625,551.1773 Z " fill="#000000"/><text fill="#000000" font-family="sans-serif" font-size="14" font-style="italic" lengthAdjust="spacing" textLength="152" x="499" y="563.4999">deployment-model-node</text><line style="stroke:#181818;stroke-width:0.5;" x1="471" x2="653" y1="574.0679" y2="574.0679"/><line style="stroke:#181818;stroke-width:0.5;" x1="471" x2="653" y1="582.0679" y2="582.0679"/></g><!--class overarch_dataModel_node--><g id="elem_overarch_dataModel_node"><rect codeLine="24" fill="#F1F1F1" height="48" id="overarch_dataModel_node" rx="2.5" ry="2.5" style="stroke:#181818;stroke-width:0.5;" width="66" x="529" y="650.0679"/><ellipse cx="544" cy="666.0679" fill="#ADD1B2" rx="11" ry="11" style="stroke:#181818;stroke-width:1.0;"/><path d="M546.9688,671.7085 Q546.3906,672.0054 545.75,672.146 Q545.1094,672.3023 544.4063,672.3023 Q541.9063,672.3023 540.5781,670.6617 Q539.2656,669.0054 539.2656,665.8804 Q539.2656,662.7554 540.5781,661.0992 Q541.9063,659.4429 544.4063,659.4429 Q545.1094,659.4429 545.75,659.5992 Q546.4063,659.7554 546.9688,660.0523 L546.9688,662.771 Q546.3438,662.1929 545.75,661.9273 Q545.1563,661.646 544.5313,661.646 Q543.1875,661.646 542.5,662.7242 Q541.8125,663.7867 541.8125,665.8804 Q541.8125,667.9742 542.5,669.0523 Q543.1875,670.1148 544.5313,670.1148 Q545.1563,670.1148 545.75,669.8492 Q546.3438,669.5679 546.9688,668.9898 L546.9688,671.7085 Z " fill="#000000"/><text fill="#000000" font-family="sans-serif" font-size="14" lengthAdjust="spacing" textLength="34" x="558" y="671.4999">node</text><line style="stroke:#181818;stroke-width:0.5;" x1="530" x2="594" y1="682.0679" y2="682.0679"/><line style="stroke:#181818;stroke-width:0.5;" x1="530" x2="594" y1="690.0679" y2="690.0679"/></g><!--class overarch_dataModel_modelNode--><g id="elem_overarch_dataModel_modelNode"><rect codeLine="25" fill="#F1F1F1" height="48" id="overarch_dataModel_modelNode" rx="2.5" ry="2.5" style="stroke:#181818;stroke-width:0.5;" width="106" x="521" y="415.0679"/><ellipse cx="536" cy="431.0679" fill="#A9DCDF" rx="11" ry="11" style="stroke:#181818;stroke-width:1.0;"/><path d="M536.1094,426.4117 L534.9531,431.4898 L537.2813,431.4898 L536.1094,426.4117 Z M534.625,424.1773 L537.6094,424.1773 L540.9688,436.5679 L538.5156,436.5679 L537.75,433.5054 L534.4688,433.5054 L533.7188,436.5679 L531.2813,436.5679 L534.625,424.1773 Z " fill="#000000"/><text fill="#000000" font-family="sans-serif" font-size="14" font-style="italic" lengthAdjust="spacing" textLength="74" x="550" y="436.4999">model-node</text><line style="stroke:#181818;stroke-width:0.5;" x1="522" x2="626" y1="447.0679" y2="447.0679"/><line style="stroke:#181818;stroke-width:0.5;" x1="522" x2="626" y1="455.0679" y2="455.0679"/></g><!--class overarch_dataModel_modelRelation--><g id="elem_overarch_dataModel_modelRelation"><rect codeLine="26" fill="#F1F1F1" height="86.1358" id="overarch_dataModel_modelRelation" rx="2.5" ry="2.5" style="stroke:#181818;stroke-width:0.5;" width="125" x="360.5" y="396.0679"/><ellipse cx="375.5" cy="412.0679" fill="#A9DCDF" rx="11" ry="11" style="stroke:#181818;stroke-width:1.0;"/><path d="M375.6094,407.4117 L374.4531,412.4898 L376.7813,412.4898 L375.6094,407.4117 Z M374.125,405.1773 L377.1094,405.1773 L380.4688,417.5679 L378.0156,417.5679 L377.25,414.5054 L373.9688,414.5054 L373.2188,417.5679 L370.7813,417.5679 L374.125,405.1773 Z " fill="#000000"/><text fill="#000000" font-family="sans-serif" font-size="14" font-style="italic" lengthAdjust="spacing" textLength="93" x="389.5" y="417.4999">model-relation</text><line style="stroke:#181818;stroke-width:0.5;" x1="361.5" x2="484.5" y1="428.0679" y2="428.0679"/><text fill="#000000" font-family="sans-serif" font-size="14" lengthAdjust="spacing" textLength="100" x="366.5" y="447.0339">from : keyword</text><text fill="#000000" font-family="sans-serif" font-size="14" lengthAdjust="spacing" textLength="81" x="366.5" y="466.1018">to : keyword</text><line style="stroke:#181818;stroke-width:0.5;" x1="361.5" x2="484.5" y1="474.2038" y2="474.2038"/></g><!--class overarch_dataModel_deploymentModelElement--><g id="elem_overarch_dataModel_deploymentModelElement"><rect codeLine="30" fill="#F1F1F1" height="48" id="overarch_dataModel_deploymentModelElement" rx="2.5" ry="2.5" style="stroke:#181818;stroke-width:0.5;" width="203" x="122.5" y="415.0679"/><ellipse cx="137.5" cy="431.0679" fill="#A9DCDF" rx="11" ry="11" style="stroke:#181818;stroke-width:1.0;"/><path d="M137.6094,426.4117 L136.4531,431.4898 L138.7813,431.4898 L137.6094,426.4117 Z M136.125,424.1773 L139.1094,424.1773 L142.4688,436.5679 L140.0156,436.5679 L139.25,433.5054 L135.9688,433.5054 L135.2188,436.5679 L132.7813,436.5679 L136.125,424.1773 Z " fill="#000000"/><text fill="#000000" font-family="sans-serif" font-size="14" font-style="italic" lengthAdjust="spacing" textLength="171" x="151.5" y="436.4999">deployment-model-element</text><line style="stroke:#181818;stroke-width:0.5;" x1="123.5" x2="324.5" y1="447.0679" y2="447.0679"/><line style="stroke:#181818;stroke-width:0.5;" x1="123.5" x2="324.5" y1="455.0679" y2="455.0679"/></g><!--class overarch_dataModel_element--><g id="elem_overarch_dataModel_element"><rect codeLine="31" fill="#F1F1F1" height="143.3396" id="overarch_dataModel_element" rx="2.5" ry="2.5" style="stroke:#181818;stroke-width:0.5;" width="133" x="356.5" y="47.0679"/><ellipse cx="394.45" cy="63.0679" fill="#A9DCDF" rx="11" ry="11" style="stroke:#181818;stroke-width:1.0;"/><path d="M394.5594,58.4117 L393.4031,63.4898 L395.7313,63.4898 L394.5594,58.4117 Z M393.075,56.1773 L396.0594,56.1773 L399.4188,68.5679 L396.9656,68.5679 L396.2,65.5054 L392.9188,65.5054 L392.1688,68.5679 L389.7313,68.5679 L393.075,56.1773 Z " fill="#000000"/><text fill="#000000" font-family="sans-serif" font-size="14" font-style="italic" lengthAdjust="spacing" textLength="50" x="413.55" y="68.4999">element</text><line style="stroke:#181818;stroke-width:0.5;" x1="357.5" x2="488.5" y1="79.0679" y2="79.0679"/><text fill="#000000" font-family="sans-serif" font-size="14" lengthAdjust="spacing" textLength="121" x="362.5" y="98.0339">desc : string [0..1]</text><text fill="#000000" font-family="sans-serif" font-size="14" lengthAdjust="spacing" textLength="114" x="362.5" y="117.1018">doc : string [0..1]</text><text fill="#000000" font-family="sans-serif" font-size="14" lengthAdjust="spacing" textLength="80" x="362.5" y="136.1697">el : keyword</text><text fill="#000000" font-family="sans-serif" font-size="14" lengthAdjust="spacing" textLength="81" x="362.5" y="155.2376">id : keyword</text><text fill="#000000" font-family="sans-serif" font-size="14" lengthAdjust="spacing" textLength="90" x="362.5" y="174.3055">name : string</text><line style="stroke:#181818;stroke-width:0.5;" x1="357.5" x2="488.5" y1="182.4075" y2="182.4075"/></g><!--reverse link overarch_dataModel_element to overarch_dataModel_modelElement--><g id="link_overarch_dataModel_element_overarch_dataModel_modelElement"><path codeLine="38" d="M423,208.2279 C423,228.5079 423,231.9879 423,249.9579 " fill="none" id="overarch_dataModel_element-backto-overarch_dataModel_modelElement" style="stroke:#181818;stroke-width:1.0;"/><polygon fill="none" points="423,190.2279,417,208.2279,429,208.2279,423,190.2279" style="stroke:#181818;stroke-width:1.0;"/></g><!--reverse link overarch_dataModel_modelRelation to overarch_dataModel_deploymentModelRelation--><g id="link_overarch_dataModel_modelRelation_overarch_dataModel_deploymentModelRelation"><path codeLine="39" d="M357.6358,493.8191 C333.5158,513.6491 319.62,525.0879 299.37,541.7379 " fill="none" id="overarch_dataModel_modelRelation-backto-overarch_dataModel_deploymentModelRelation" style="stroke:#181818;stroke-width:1.0;"/><polygon fill="none" points="371.54,482.3879,353.8254,489.1844,361.4462,498.4539,371.54,482.3879" style="stroke:#181818;stroke-width:1.0;"/></g><!--reverse link overarch_dataModel_modelElement to overarch_dataModel_modelNode--><g id="link_overarch_dataModel_modelElement_overarch_dataModel_modelNode"><path codeLine="40" d="M480.1084,348.5281 C507.0984,374.2581 527.57,393.7879 549.81,414.9979 " fill="none" id="overarch_dataModel_modelElement-backto-overarch_dataModel_modelNode" style="stroke:#181818;stroke-width:1.0;"/><polygon fill="none" points="467.08,336.1079,475.9683,352.8709,484.2485,344.1853,467.08,336.1079" style="stroke:#181818;stroke-width:1.0;"/></g><!--link overarch_dataModel_node to overarch_dataModel_deploymentModelNode--><g id="link_overarch_dataModel_node_overarch_dataModel_deploymentModelNode"><path codeLine="41" d="M575.2809,637.8947 C578.0809,620.1547 577.1527,613.6518 574.3127,595.9918 " fill="none" id="overarch_dataModel_node-overarch_dataModel_deploymentModelNode" style="stroke:#181818;stroke-width:1.0;"/><polygon fill="#181818" points="573.41,649.7479,578.2965,644.4449,575.2809,637.8947,570.3943,643.1977,573.41,649.7479" style="stroke:#181818;stroke-width:1.0;"/><polygon fill="#181818" points="573.36,590.0679,570.8397,599.5889,574.1539,595.0045,578.7382,598.3186,573.36,590.0679" style="stroke:#181818;stroke-width:1.0;"/><text fill="#000000" font-family="sans-serif" font-size="13" lengthAdjust="spacing" textLength="11" x="557.5239" y="611.9151">ct</text><text fill="#000000" font-family="sans-serif" font-size="13" lengthAdjust="spacing" textLength="21" x="552.5239" y="629.6212">0..n</text></g><!--reverse link overarch_dataModel_deploymentModelNode to overarch_dataModel_node--><g id="link_overarch_dataModel_deploymentModelNode_overarch_dataModel_node"><path codeLine="50" d="M548.5693,607.8642 C545.8893,625.5242 548.58,632.0079 551.23,649.7479 " fill="none" id="overarch_dataModel_deploymentModelNode-backto-overarch_dataModel_node" style="stroke:#181818;stroke-width:1.0;"/><polygon fill="none" points="551.27,590.0679,542.6372,606.9639,554.5014,608.7644,551.27,590.0679" style="stroke:#181818;stroke-width:1.0;"/></g><!--reverse link overarch_dataModel_modelElement to overarch_dataModel_modelRelation--><g id="link_overarch_dataModel_modelElement_overarch_dataModel_modelRelation"><path codeLine="42" d="M423,354.1079 C423,372.8679 423,376.9279 423,395.7279 " fill="none" id="overarch_dataModel_modelElement-backto-overarch_dataModel_modelRelation" style="stroke:#181818;stroke-width:1.0;"/><polygon fill="none" points="423,336.1079,417,354.1079,429,354.1079,423,336.1079" style="stroke:#181818;stroke-width:1.0;"/></g><!--reverse link overarch_dataModel_deploymentModelElement to overarch_dataModel_deploymentModelNode--><g id="link_overarch_dataModel_deploymentModelElement_overarch_dataModel_deploymentModelNode"><path codeLine="43" d="M303.2722,469.3822 C364.0222,491.8522 438.96,519.5679 499.69,542.0279 " fill="none" id="overarch_dataModel_deploymentModelElement-backto-overarch_dataModel_deploymentModelNode" style="stroke:#181818;stroke-width:1.0;"/><polygon fill="none" points="286.39,463.1379,301.1907,475.0096,305.3536,463.7548,286.39,463.1379" style="stroke:#181818;stroke-width:1.0;"/></g><!--reverse link overarch_dataModel_technicalElement to overarch_dataModel_artifact--><g id="link_overarch_dataModel_technicalElement_overarch_dataModel_artifact"><path codeLine="44" d="M106.338,342.0603 C89.728,368.9403 76.05,391.0679 61.3,414.9379 " fill="none" id="overarch_dataModel_technicalElement-backto-overarch_dataModel_artifact" style="stroke:#181818;stroke-width:1.0;"/><polygon fill="none" points="115.8,326.7479,101.2338,338.9063,111.4421,345.2143,115.8,326.7479" style="stroke:#181818;stroke-width:1.0;"/></g><!--reverse link overarch_dataModel_deploymentModelRelation to overarch_dataModel_deployedTo--><g id="link_overarch_dataModel_deploymentModelRelation_overarch_dataModel_deployedTo"><path codeLine="45" d="M275.6256,607.9536 C277.6256,625.6136 278.35,632.0079 280.36,649.7479 " fill="none" id="overarch_dataModel_deploymentModelRelation-backto-overarch_dataModel_deployedTo" style="stroke:#181818;stroke-width:1.0;"/><polygon fill="none" points="273.6,590.0679,269.6637,608.6288,281.5874,607.2784,273.6,590.0679" style="stroke:#181818;stroke-width:1.0;"/></g><!--reverse link overarch_dataModel_modelNode to overarch_dataModel_deploymentModelNode--><g id="link_overarch_dataModel_modelNode_overarch_dataModel_deploymentModelNode"><path codeLine="46" d="M570.054,481.2059 C567.904,503.6559 566.37,519.5679 564.22,541.9779 " fill="none" id="overarch_dataModel_modelNode-backto-overarch_dataModel_deploymentModelNode" style="stroke:#181818;stroke-width:1.0;"/><polygon fill="none" points="571.77,463.2879,564.0813,480.6339,576.0267,481.7779,571.77,463.2879" style="stroke:#181818;stroke-width:1.0;"/></g><!--reverse link overarch_dataModel_technicalElement to overarch_dataModel_deploymentModelElement--><g id="link_overarch_dataModel_technicalElement_overarch_dataModel_deploymentModelElement"><path codeLine="47" d="M165.3575,342.1061 C181.7875,368.9861 195.28,391.0679 209.86,414.9379 " fill="none" id="overarch_dataModel_technicalElement-backto-overarch_dataModel_deploymentModelElement" style="stroke:#181818;stroke-width:1.0;"/><polygon fill="none" points="155.97,326.7479,160.2381,345.2353,170.4769,338.977,155.97,326.7479" style="stroke:#181818;stroke-width:1.0;"/></g><!--reverse link overarch_dataModel_modelElement to overarch_dataModel_deploymentModelElement--><g id="link_overarch_dataModel_modelElement_overarch_dataModel_deploymentModelElement"><path codeLine="48" d="M350.3257,346.6577 C314.7557,372.3877 285.19,393.7879 255.88,414.9979 " fill="none" id="overarch_dataModel_modelElement-backto-overarch_dataModel_deploymentModelElement" style="stroke:#181818;stroke-width:1.0;"/><polygon fill="none" points="364.91,336.1079,346.8091,341.7962,353.8423,351.5191,364.91,336.1079" style="stroke:#181818;stroke-width:1.0;"/></g><!--reverse link overarch_dataModel_deploymentModelRelation to overarch_dataModel_link--><g id="link_overarch_dataModel_deploymentModelRelation_overarch_dataModel_link"><path codeLine="49" d="M234.9948,602.7383 C217.1748,620.3983 205.45,632.0079 187.54,649.7479 " fill="none" id="overarch_dataModel_deploymentModelRelation-backto-overarch_dataModel_link" style="stroke:#181818;stroke-width:1.0;"/><polygon fill="none" points="247.78,590.0679,230.7713,598.4766,239.2183,607,247.78,590.0679" style="stroke:#181818;stroke-width:1.0;"/></g><!--reverse link overarch_dataModel_deploymentModelNode to overarch_dataModel_container--><g id="link_overarch_dataModel_deploymentModelNode_overarch_dataModel_container"><path codeLine="51" d="M523.5441,602.2123 C504.2241,619.8723 490.93,632.0079 471.52,649.7479 " fill="none" id="overarch_dataModel_deploymentModelNode-backto-overarch_dataModel_container" style="stroke:#181818;stroke-width:1.0;"/><polygon fill="none" points="536.83,590.0679,519.496,597.7836,527.5922,606.6409,536.83,590.0679" style="stroke:#181818;stroke-width:1.0;"/></g><!--reverse link overarch_dataModel_deploymentModelElement to overarch_dataModel_deploymentModelRelation--><g id="link_overarch_dataModel_deploymentModelElement_overarch_dataModel_deploymentModelRelation"><path codeLine="52" d="M239.0642,480.1366 C247.5042,502.5866 253.89,519.5679 262.32,541.9779 " fill="none" id="overarch_dataModel_deploymentModelElement-backto-overarch_dataModel_deploymentModelRelation" style="stroke:#181818;stroke-width:1.0;"/><polygon fill="none" points="232.73,463.2879,233.448,482.248,244.6804,478.0252,232.73,463.2879" style="stroke:#181818;stroke-width:1.0;"/></g><!--SRC=[lLN1JWCX4Btp5QH74ngz6kD9ZsfYlAbfS9bjINV1mAXfglykjBjRwYwmhSRBPe6Pnvl7Oq295T0hUAtqgWQ5z4OBgEXr1Nva2IagRYsTS8Eov0LEABTKluFXfbZC14U-IPYrwtJzHVYBHUF_crpHeRFQ1pC35KUfLGnibx0PtpVX7hk1hAHQnhBzsX2DxTwmhIoMl0bgggThGcdDySr8ND5pkeJLXpQ2FfvEfsVFRWtvtBfv2zZETGIt9O1WgDDLWdZGGsmHYeMI1SyoxW93rdxICqCZrRn7pe7OXFpDSY1tUxfCbpa3t9L1Ng4LSgd0nBAwW56-KUuxqZEtxXCGIMMg9dJOBwdCEjnfE3rdzNhVuExeIgFhdTdyMUfWE4AbZ5z-2DMvfe-S0OB0Rm9iqVERczP3iww_XFL9iJTKl8OkoTMRsFdYax7S9IPPqMCeaIv4SbqZoSgxXSHCUCBO9NMt1f-KqyfvPfpFVySeLLV4AoCLYt7hTQmONjjJo05lH9gRxxOaUPF_gxPXQOy-ol5mXmhddrCoik76C5H4hKCmkgVYxutQQl0D]--></g></svg>