<svg xmlns="http://www.w3.org/2000/svg" xmlns:xlink="http://www.w3.org/1999/xlink" contentStyleType="text/css" height="705px" preserveAspectRatio="none" style="width:1180px;height:705px;background:#FFFFFF;" version="1.1" viewBox="0 0 1180 705" width="1180px" zoomAndPan="magnify"><defs/><g><text fill="#000000" font-family="sans-serif" font-size="14" font-weight="bold" lengthAdjust="spacing" textLength="169" x="498.75" y="24.9659">Domain Model Elements</text><!--class overarch_dataModel_aggregate--><g id="elem_overarch_dataModel_aggregate"><rect codeLine="9" fill="#F1F1F1" height="48" id="overarch_dataModel_aggregate" rx="2.5" ry="2.5" style="stroke:#181818;stroke-width:0.5;" width="102" x="7" y="650.0679"/><ellipse cx="22" cy="666.0679" fill="#ADD1B2" rx="11" ry="11" style="stroke:#181818;stroke-width:1.0;"/><path d="M24.9688,671.7085 Q24.3906,672.0054 23.75,672.146 Q23.1094,672.3023 22.4063,672.3023 Q19.9063,672.3023 18.5781,670.6617 Q17.2656,669.0054 17.2656,665.8804 Q17.2656,662.7554 18.5781,661.0992 Q19.9063,659.4429 22.4063,659.4429 Q23.1094,659.4429 23.75,659.5992 Q24.4063,659.7554 24.9688,660.0523 L24.9688,662.771 Q24.3438,662.1929 23.75,661.9273 Q23.1563,661.646 22.5313,661.646 Q21.1875,661.646 20.5,662.7242 Q19.8125,663.7867 19.8125,665.8804 Q19.8125,667.9742 20.5,669.0523 Q21.1875,670.1148 22.5313,670.1148 Q23.1563,670.1148 23.75,669.8492 Q24.3438,669.5679 24.9688,668.9898 L24.9688,671.7085 Z " fill="#000000"/><text fill="#000000" font-family="sans-serif" font-size="14" lengthAdjust="spacing" textLength="70" x="36" y="671.4999">aggregate</text><line style="stroke:#181818;stroke-width:0.5;" x1="8" x2="108" y1="682.0679" y2="682.0679"/><line style="stroke:#181818;stroke-width:0.5;" x1="8" x2="108" y1="690.0679" y2="690.0679"/></g><!--class overarch_dataModel_domainModelRelation--><g id="elem_overarch_dataModel_domainModelRelation"><rect codeLine="10" fill="#F1F1F1" height="48" id="overarch_dataModel_domainModelRelation" rx="2.5" ry="2.5" style="stroke:#181818;stroke-width:0.5;" width="177" x="725.5" y="542.0679"/><ellipse cx="740.5" cy="558.0679" fill="#A9DCDF" rx="11" ry="11" style="stroke:#181818;stroke-width:1.0;"/><path d="M740.6094,553.4117 L739.4531,558.4898 L741.7813,558.4898 L740.6094,553.4117 Z M739.125,551.1773 L742.1094,551.1773 L745.4688,563.5679 L743.0156,563.5679 L742.25,560.5054 L738.9688,560.5054 L738.2188,563.5679 L735.7813,563.5679 L739.125,551.1773 Z " fill="#000000"/><text fill="#000000" font-family="sans-serif" font-size="14" font-style="italic" lengthAdjust="spacing" textLength="145" x="754.5" y="563.4999">domain-model-relation</text><line style="stroke:#181818;stroke-width:0.5;" x1="726.5" x2="901.5" y1="574.0679" y2="574.0679"/><line style="stroke:#181818;stroke-width:0.5;" x1="726.5" x2="901.5" y1="582.0679" y2="582.0679"/></g><!--class overarch_dataModel_modelElement--><g id="elem_overarch_dataModel_modelElement"><rect codeLine="11" fill="#F1F1F1" height="86.1358" id="overarch_dataModel_modelElement" rx="2.5" ry="2.5" style="stroke:#181818;stroke-width:0.5;" width="175" x="581.5" y="250.0679"/><ellipse cx="619" cy="266.0679" fill="#A9DCDF" rx="11" ry="11" style="stroke:#181818;stroke-width:1.0;"/><path d="M619.1094,261.4117 L617.9531,266.4898 L620.2813,266.4898 L619.1094,261.4117 Z M617.625,259.1773 L620.6094,259.1773 L623.9688,271.5679 L621.5156,271.5679 L620.75,268.5054 L617.4688,268.5054 L616.7188,271.5679 L614.2813,271.5679 L617.625,259.1773 Z " fill="#000000"/><text fill="#000000" font-family="sans-serif" font-size="14" font-style="italic" lengthAdjust="spacing" textLength="93" x="638" y="271.4999">model-element</text><line style="stroke:#181818;stroke-width:0.5;" x1="582.5" x2="755.5" y1="282.0679" y2="282.0679"/><text fill="#000000" font-family="sans-serif" font-size="14" lengthAdjust="spacing" textLength="163" x="587.5" y="301.0339">maturity : keyword [0..1]</text><text fill="#000000" font-family="sans-serif" font-size="14" lengthAdjust="spacing" textLength="99" x="587.5" y="320.1018">tags : set [0..1]</text><line style="stroke:#181818;stroke-width:0.5;" x1="582.5" x2="755.5" y1="328.2038" y2="328.2038"/></g><!--class overarch_dataModel_command--><g id="elem_overarch_dataModel_command"><rect codeLine="15" fill="#F1F1F1" height="48" id="overarch_dataModel_command" rx="2.5" ry="2.5" style="stroke:#181818;stroke-width:0.5;" width="99" x="144.5" y="650.0679"/><ellipse cx="159.5" cy="666.0679" fill="#ADD1B2" rx="11" ry="11" style="stroke:#181818;stroke-width:1.0;"/><path d="M162.4688,671.7085 Q161.8906,672.0054 161.25,672.146 Q160.6094,672.3023 159.9063,672.3023 Q157.4063,672.3023 156.0781,670.6617 Q154.7656,669.0054 154.7656,665.8804 Q154.7656,662.7554 156.0781,661.0992 Q157.4063,659.4429 159.9063,659.4429 Q160.6094,659.4429 161.25,659.5992 Q161.9063,659.7554 162.4688,660.0523 L162.4688,662.771 Q161.8438,662.1929 161.25,661.9273 Q160.6563,661.646 160.0313,661.646 Q158.6875,661.646 158,662.7242 Q157.3125,663.7867 157.3125,665.8804 Q157.3125,667.9742 158,669.0523 Q158.6875,670.1148 160.0313,670.1148 Q160.6563,670.1148 161.25,669.8492 Q161.8438,669.5679 162.4688,668.9898 L162.4688,671.7085 Z " fill="#000000"/><text fill="#000000" font-family="sans-serif" font-size="14" lengthAdjust="spacing" textLength="67" x="173.5" y="671.4999">command</text><line style="stroke:#181818;stroke-width:0.5;" x1="145.5" x2="242.5" y1="682.0679" y2="682.0679"/><line style="stroke:#181818;stroke-width:0.5;" x1="145.5" x2="242.5" y1="690.0679" y2="690.0679"/></g><!--class overarch_dataModel_model--><g id="elem_overarch_dataModel_model"><rect codeLine="16" fill="#F1F1F1" height="48" id="overarch_dataModel_model" rx="2.5" ry="2.5" style="stroke:#181818;stroke-width:0.5;" width="74" x="279" y="650.0679"/><ellipse cx="294" cy="666.0679" fill="#ADD1B2" rx="11" ry="11" style="stroke:#181818;stroke-width:1.0;"/><path d="M296.9688,671.7085 Q296.3906,672.0054 295.75,672.146 Q295.1094,672.3023 294.4063,672.3023 Q291.9063,672.3023 290.5781,670.6617 Q289.2656,669.0054 289.2656,665.8804 Q289.2656,662.7554 290.5781,661.0992 Q291.9063,659.4429 294.4063,659.4429 Q295.1094,659.4429 295.75,659.5992 Q296.4063,659.7554 296.9688,660.0523 L296.9688,662.771 Q296.3438,662.1929 295.75,661.9273 Q295.1563,661.646 294.5313,661.646 Q293.1875,661.646 292.5,662.7242 Q291.8125,663.7867 291.8125,665.8804 Q291.8125,667.9742 292.5,669.0523 Q293.1875,670.1148 294.5313,670.1148 Q295.1563,670.1148 295.75,669.8492 Q296.3438,669.5679 296.9688,668.9898 L296.9688,671.7085 Z " fill="#000000"/><text fill="#000000" font-family="sans-serif" font-size="14" lengthAdjust="spacing" textLength="42" x="308" y="671.4999">model</text><line style="stroke:#181818;stroke-width:0.5;" x1="280" x2="352" y1="682.0679" y2="682.0679"/><line style="stroke:#181818;stroke-width:0.5;" x1="280" x2="352" y1="690.0679" y2="690.0679"/></g><!--class overarch_dataModel_valueObject--><g id="elem_overarch_dataModel_valueObject"><rect codeLine="17" fill="#F1F1F1" height="48" id="overarch_dataModel_valueObject" rx="2.5" ry="2.5" style="stroke:#181818;stroke-width:0.5;" width="114" x="388" y="650.0679"/><ellipse cx="403" cy="666.0679" fill="#ADD1B2" rx="11" ry="11" style="stroke:#181818;stroke-width:1.0;"/><path d="M405.9688,671.7085 Q405.3906,672.0054 404.75,672.146 Q404.1094,672.3023 403.4063,672.3023 Q400.9063,672.3023 399.5781,670.6617 Q398.2656,669.0054 398.2656,665.8804 Q398.2656,662.7554 399.5781,661.0992 Q400.9063,659.4429 403.4063,659.4429 Q404.1094,659.4429 404.75,659.5992 Q405.4063,659.7554 405.9688,660.0523 L405.9688,662.771 Q405.3438,662.1929 404.75,661.9273 Q404.1563,661.646 403.5313,661.646 Q402.1875,661.646 401.5,662.7242 Q400.8125,663.7867 400.8125,665.8804 Q400.8125,667.9742 401.5,669.0523 Q402.1875,670.1148 403.5313,670.1148 Q404.1563,670.1148 404.75,669.8492 Q405.3438,669.5679 405.9688,668.9898 L405.9688,671.7085 Z " fill="#000000"/><text fill="#000000" font-family="sans-serif" font-size="14" lengthAdjust="spacing" textLength="82" x="417" y="671.4999">value-object</text><line style="stroke:#181818;stroke-width:0.5;" x1="389" x2="501" y1="682.0679" y2="682.0679"/><line style="stroke:#181818;stroke-width:0.5;" x1="389" x2="501" y1="690.0679" y2="690.0679"/></g><!--class overarch_dataModel_entity--><g id="elem_overarch_dataModel_entity"><rect codeLine="18" fill="#F1F1F1" height="48" id="overarch_dataModel_entity" rx="2.5" ry="2.5" style="stroke:#181818;stroke-width:0.5;" width="70" x="537" y="650.0679"/><ellipse cx="552" cy="666.0679" fill="#ADD1B2" rx="11" ry="11" style="stroke:#181818;stroke-width:1.0;"/><path d="M554.9688,671.7085 Q554.3906,672.0054 553.75,672.146 Q553.1094,672.3023 552.4063,672.3023 Q549.9063,672.3023 548.5781,670.6617 Q547.2656,669.0054 547.2656,665.8804 Q547.2656,662.7554 548.5781,661.0992 Q549.9063,659.4429 552.4063,659.4429 Q553.1094,659.4429 553.75,659.5992 Q554.4063,659.7554 554.9688,660.0523 L554.9688,662.771 Q554.3438,662.1929 553.75,661.9273 Q553.1563,661.646 552.5313,661.646 Q551.1875,661.646 550.5,662.7242 Q549.8125,663.7867 549.8125,665.8804 Q549.8125,667.9742 550.5,669.0523 Q551.1875,670.1148 552.5313,670.1148 Q553.1563,670.1148 553.75,669.8492 Q554.3438,669.5679 554.9688,668.9898 L554.9688,671.7085 Z " fill="#000000"/><text fill="#000000" font-family="sans-serif" font-size="14" lengthAdjust="spacing" textLength="38" x="566" y="671.4999">entity</text><line style="stroke:#181818;stroke-width:0.5;" x1="538" x2="606" y1="682.0679" y2="682.0679"/><line style="stroke:#181818;stroke-width:0.5;" x1="538" x2="606" y1="690.0679" y2="690.0679"/></g><!--class overarch_dataModel_policy--><g id="elem_overarch_dataModel_policy"><rect codeLine="19" fill="#F1F1F1" height="48" id="overarch_dataModel_policy" rx="2.5" ry="2.5" style="stroke:#181818;stroke-width:0.5;" width="71" x="642.5" y="650.0679"/><ellipse cx="657.5" cy="666.0679" fill="#ADD1B2" rx="11" ry="11" style="stroke:#181818;stroke-width:1.0;"/><path d="M660.4688,671.7085 Q659.8906,672.0054 659.25,672.146 Q658.6094,672.3023 657.9063,672.3023 Q655.4063,672.3023 654.0781,670.6617 Q652.7656,669.0054 652.7656,665.8804 Q652.7656,662.7554 654.0781,661.0992 Q655.4063,659.4429 657.9063,659.4429 Q658.6094,659.4429 659.25,659.5992 Q659.9063,659.7554 660.4688,660.0523 L660.4688,662.771 Q659.8438,662.1929 659.25,661.9273 Q658.6563,661.646 658.0313,661.646 Q656.6875,661.646 656,662.7242 Q655.3125,663.7867 655.3125,665.8804 Q655.3125,667.9742 656,669.0523 Q656.6875,670.1148 658.0313,670.1148 Q658.6563,670.1148 659.25,669.8492 Q659.8438,669.5679 660.4688,668.9898 L660.4688,671.7085 Z " fill="#000000"/><text fill="#000000" font-family="sans-serif" font-size="14" lengthAdjust="spacing" textLength="39" x="671.5" y="671.4999">policy</text><line style="stroke:#181818;stroke-width:0.5;" x1="643.5" x2="712.5" y1="682.0679" y2="682.0679"/><line style="stroke:#181818;stroke-width:0.5;" x1="643.5" x2="712.5" y1="690.0679" y2="690.0679"/></g><!--class overarch_dataModel_modelNode--><g id="elem_overarch_dataModel_modelNode"><rect codeLine="20" fill="#F1F1F1" height="48" id="overarch_dataModel_modelNode" rx="2.5" ry="2.5" style="stroke:#181818;stroke-width:0.5;" width="106" x="439" y="415.0679"/><ellipse cx="454" cy="431.0679" fill="#A9DCDF" rx="11" ry="11" style="stroke:#181818;stroke-width:1.0;"/><path d="M454.1094,426.4117 L452.9531,431.4898 L455.2813,431.4898 L454.1094,426.4117 Z M452.625,424.1773 L455.6094,424.1773 L458.9688,436.5679 L456.5156,436.5679 L455.75,433.5054 L452.4688,433.5054 L451.7188,436.5679 L449.2813,436.5679 L452.625,424.1773 Z " fill="#000000"/><text fill="#000000" font-family="sans-serif" font-size="14" font-style="italic" lengthAdjust="spacing" textLength="74" x="468" y="436.4999">model-node</text><line style="stroke:#181818;stroke-width:0.5;" x1="440" x2="544" y1="447.0679" y2="447.0679"/><line style="stroke:#181818;stroke-width:0.5;" x1="440" x2="544" y1="455.0679" y2="455.0679"/></g><!--class overarch_dataModel_modelRelation--><g id="elem_overarch_dataModel_modelRelation"><rect codeLine="21" fill="#F1F1F1" height="86.1358" id="overarch_dataModel_modelRelation" rx="2.5" ry="2.5" style="stroke:#181818;stroke-width:0.5;" width="125" x="792.5" y="396.0679"/><ellipse cx="807.5" cy="412.0679" fill="#A9DCDF" rx="11" ry="11" style="stroke:#181818;stroke-width:1.0;"/><path d="M807.6094,407.4117 L806.4531,412.4898 L808.7813,412.4898 L807.6094,407.4117 Z M806.125,405.1773 L809.1094,405.1773 L812.4688,417.5679 L810.0156,417.5679 L809.25,414.5054 L805.9688,414.5054 L805.2188,417.5679 L802.7813,417.5679 L806.125,405.1773 Z " fill="#000000"/><text fill="#000000" font-family="sans-serif" font-size="14" font-style="italic" lengthAdjust="spacing" textLength="93" x="821.5" y="417.4999">model-relation</text><line style="stroke:#181818;stroke-width:0.5;" x1="793.5" x2="916.5" y1="428.0679" y2="428.0679"/><text fill="#000000" font-family="sans-serif" font-size="14" lengthAdjust="spacing" textLength="100" x="798.5" y="447.0339">from : keyword</text><text fill="#000000" font-family="sans-serif" font-size="14" lengthAdjust="spacing" textLength="81" x="798.5" y="466.1018">to : keyword</text><line style="stroke:#181818;stroke-width:0.5;" x1="793.5" x2="916.5" y1="474.2038" y2="474.2038"/></g><!--class overarch_dataModel_domainModelElement--><g id="elem_overarch_dataModel_domainModelElement"><rect codeLine="25" fill="#F1F1F1" height="48" id="overarch_dataModel_domainModelElement" rx="2.5" ry="2.5" style="stroke:#181818;stroke-width:0.5;" width="177" x="580.5" y="415.0679"/><ellipse cx="595.5" cy="431.0679" fill="#A9DCDF" rx="11" ry="11" style="stroke:#181818;stroke-width:1.0;"/><path d="M595.6094,426.4117 L594.4531,431.4898 L596.7813,431.4898 L595.6094,426.4117 Z M594.125,424.1773 L597.1094,424.1773 L600.4688,436.5679 L598.0156,436.5679 L597.25,433.5054 L593.9688,433.5054 L593.2188,436.5679 L590.7813,436.5679 L594.125,424.1773 Z " fill="#000000"/><text fill="#000000" font-family="sans-serif" font-size="14" font-style="italic" lengthAdjust="spacing" textLength="145" x="609.5" y="436.4999">domain-model-element</text><line style="stroke:#181818;stroke-width:0.5;" x1="581.5" x2="756.5" y1="447.0679" y2="447.0679"/><line style="stroke:#181818;stroke-width:0.5;" x1="581.5" x2="756.5" y1="455.0679" y2="455.0679"/></g><!--class overarch_dataModel_domainModelNode--><g id="elem_overarch_dataModel_domainModelNode"><rect codeLine="26" fill="#F1F1F1" height="48" id="overarch_dataModel_domainModelNode" rx="2.5" ry="2.5" style="stroke:#181818;stroke-width:0.5;" width="158" x="493" y="542.0679"/><ellipse cx="508" cy="558.0679" fill="#A9DCDF" rx="11" ry="11" style="stroke:#181818;stroke-width:1.0;"/><path d="M508.1094,553.4117 L506.9531,558.4898 L509.2813,558.4898 L508.1094,553.4117 Z M506.625,551.1773 L509.6094,551.1773 L512.9688,563.5679 L510.5156,563.5679 L509.75,560.5054 L506.4688,560.5054 L505.7188,563.5679 L503.2813,563.5679 L506.625,551.1773 Z " fill="#000000"/><text fill="#000000" font-family="sans-serif" font-size="14" font-style="italic" lengthAdjust="spacing" textLength="126" x="522" y="563.4999">domain-model-node</text><line style="stroke:#181818;stroke-width:0.5;" x1="494" x2="650" y1="574.0679" y2="574.0679"/><line style="stroke:#181818;stroke-width:0.5;" x1="494" x2="650" y1="582.0679" y2="582.0679"/></g><!--class overarch_dataModel_boundedContext--><g id="elem_overarch_dataModel_boundedContext"><rect codeLine="27" fill="#F1F1F1" height="48" id="overarch_dataModel_boundedContext" rx="2.5" ry="2.5" style="stroke:#181818;stroke-width:0.5;" width="147" x="748.5" y="650.0679"/><ellipse cx="763.5" cy="666.0679" fill="#ADD1B2" rx="11" ry="11" style="stroke:#181818;stroke-width:1.0;"/><path d="M766.4688,671.7085 Q765.8906,672.0054 765.25,672.146 Q764.6094,672.3023 763.9063,672.3023 Q761.4063,672.3023 760.0781,670.6617 Q758.7656,669.0054 758.7656,665.8804 Q758.7656,662.7554 760.0781,661.0992 Q761.4063,659.4429 763.9063,659.4429 Q764.6094,659.4429 765.25,659.5992 Q765.9063,659.7554 766.4688,660.0523 L766.4688,662.771 Q765.8438,662.1929 765.25,661.9273 Q764.6563,661.646 764.0313,661.646 Q762.6875,661.646 762,662.7242 Q761.3125,663.7867 761.3125,665.8804 Q761.3125,667.9742 762,669.0523 Q762.6875,670.1148 764.0313,670.1148 Q764.6563,670.1148 765.25,669.8492 Q765.8438,669.5679 766.4688,668.9898 L766.4688,671.7085 Z " fill="#000000"/><text fill="#000000" font-family="sans-serif" font-size="14" lengthAdjust="spacing" textLength="115" x="777.5" y="671.4999">bounded-context</text><line style="stroke:#181818;stroke-width:0.5;" x1="749.5" x2="894.5" y1="682.0679" y2="682.0679"/><line style="stroke:#181818;stroke-width:0.5;" x1="749.5" x2="894.5" y1="690.0679" y2="690.0679"/></g><!--class overarch_dataModel_element--><g id="elem_overarch_dataModel_element"><rect codeLine="28" fill="#F1F1F1" height="143.3396" id="overarch_dataModel_element" rx="2.5" ry="2.5" style="stroke:#181818;stroke-width:0.5;" width="133" x="602.5" y="47.0679"/><ellipse cx="640.45" cy="63.0679" fill="#A9DCDF" rx="11" ry="11" style="stroke:#181818;stroke-width:1.0;"/><path d="M640.5594,58.4117 L639.4031,63.4898 L641.7313,63.4898 L640.5594,58.4117 Z M639.075,56.1773 L642.0594,56.1773 L645.4188,68.5679 L642.9656,68.5679 L642.2,65.5054 L638.9188,65.5054 L638.1688,68.5679 L635.7313,68.5679 L639.075,56.1773 Z " fill="#000000"/><text fill="#000000" font-family="sans-serif" font-size="14" font-style="italic" lengthAdjust="spacing" textLength="50" x="659.55" y="68.4999">element</text><line style="stroke:#181818;stroke-width:0.5;" x1="603.5" x2="734.5" y1="79.0679" y2="79.0679"/><text fill="#000000" font-family="sans-serif" font-size="14" lengthAdjust="spacing" textLength="121" x="608.5" y="98.0339">desc : string [0..1]</text><text fill="#000000" font-family="sans-serif" font-size="14" lengthAdjust="spacing" textLength="114" x="608.5" y="117.1018">doc : string [0..1]</text><text fill="#000000" font-family="sans-serif" font-size="14" lengthAdjust="spacing" textLength="80" x="608.5" y="136.1697">el : keyword</text><text fill="#000000" font-family="sans-serif" font-size="14" lengthAdjust="spacing" textLength="81" x="608.5" y="155.2376">id : keyword</text><text fill="#000000" font-family="sans-serif" font-size="14" lengthAdjust="spacing" textLength="90" x="608.5" y="174.3055">name : string</text><line style="stroke:#181818;stroke-width:0.5;" x1="603.5" x2="734.5" y1="182.4075" y2="182.4075"/></g><!--class overarch_dataModel_domainEvent--><g id="elem_overarch_dataModel_domainEvent"><rect codeLine="35" fill="#F1F1F1" height="48" id="overarch_dataModel_domainEvent" rx="2.5" ry="2.5" style="stroke:#181818;stroke-width:0.5;" width="125" x="930.5" y="650.0679"/><ellipse cx="945.5" cy="666.0679" fill="#ADD1B2" rx="11" ry="11" style="stroke:#181818;stroke-width:1.0;"/><path d="M948.4688,671.7085 Q947.8906,672.0054 947.25,672.146 Q946.6094,672.3023 945.9063,672.3023 Q943.4063,672.3023 942.0781,670.6617 Q940.7656,669.0054 940.7656,665.8804 Q940.7656,662.7554 942.0781,661.0992 Q943.4063,659.4429 945.9063,659.4429 Q946.6094,659.4429 947.25,659.5992 Q947.9063,659.7554 948.4688,660.0523 L948.4688,662.771 Q947.8438,662.1929 947.25,661.9273 Q946.6563,661.646 946.0313,661.646 Q944.6875,661.646 944,662.7242 Q943.3125,663.7867 943.3125,665.8804 Q943.3125,667.9742 944,669.0523 Q944.6875,670.1148 946.0313,670.1148 Q946.6563,670.1148 947.25,669.8492 Q947.8438,669.5679 948.4688,668.9898 L948.4688,671.7085 Z " fill="#000000"/><text fill="#000000" font-family="sans-serif" font-size="14" lengthAdjust="spacing" textLength="93" x="959.5" y="671.4999">domain-event</text><line style="stroke:#181818;stroke-width:0.5;" x1="931.5" x2="1054.5" y1="682.0679" y2="682.0679"/><line style="stroke:#181818;stroke-width:0.5;" x1="931.5" x2="1054.5" y1="690.0679" y2="690.0679"/></g><!--class overarch_dataModel_domain--><g id="elem_overarch_dataModel_domain"><rect codeLine="36" fill="#F1F1F1" height="48" id="overarch_dataModel_domain" rx="2.5" ry="2.5" style="stroke:#181818;stroke-width:0.5;" width="83" x="1090.5" y="650.0679"/><ellipse cx="1105.5" cy="666.0679" fill="#ADD1B2" rx="11" ry="11" style="stroke:#181818;stroke-width:1.0;"/><path d="M1108.4688,671.7085 Q1107.8906,672.0054 1107.25,672.146 Q1106.6094,672.3023 1105.9063,672.3023 Q1103.4063,672.3023 1102.0781,670.6617 Q1100.7656,669.0054 1100.7656,665.8804 Q1100.7656,662.7554 1102.0781,661.0992 Q1103.4063,659.4429 1105.9063,659.4429 Q1106.6094,659.4429 1107.25,659.5992 Q1107.9063,659.7554 1108.4688,660.0523 L1108.4688,662.771 Q1107.8438,662.1929 1107.25,661.9273 Q1106.6563,661.646 1106.0313,661.646 Q1104.6875,661.646 1104,662.7242 Q1103.3125,663.7867 1103.3125,665.8804 Q1103.3125,667.9742 1104,669.0523 Q1104.6875,670.1148 1106.0313,670.1148 Q1106.6563,670.1148 1107.25,669.8492 Q1107.8438,669.5679 1108.4688,668.9898 L1108.4688,671.7085 Z " fill="#000000"/><text fill="#000000" font-family="sans-serif" font-size="14" lengthAdjust="spacing" textLength="51" x="1119.5" y="671.4999">domain</text><line style="stroke:#181818;stroke-width:0.5;" x1="1091.5" x2="1172.5" y1="682.0679" y2="682.0679"/><line style="stroke:#181818;stroke-width:0.5;" x1="1091.5" x2="1172.5" y1="690.0679" y2="690.0679"/></g><!--reverse link overarch_dataModel_element to overarch_dataModel_modelElement--><g id="link_overarch_dataModel_element_overarch_dataModel_modelElement"><path codeLine="37" d="M669,208.2279 C669,228.5079 669,231.9879 669,249.9579 " fill="none" id="overarch_dataModel_element-backto-overarch_dataModel_modelElement" style="stroke:#181818;stroke-width:1.0;"/><polygon fill="none" points="669,190.2279,663,208.2279,675,208.2279,669,190.2279" style="stroke:#181818;stroke-width:1.0;"/></g><!--reverse link overarch_dataModel_modelNode to overarch_dataModel_domainModelNode--><g id="link_overarch_dataModel_modelNode_overarch_dataModel_domainModelNode"><path codeLine="38" d="M516.5639,478.4482 C530.9339,500.8982 542.88,519.5679 557.22,541.9779 " fill="none" id="overarch_dataModel_modelNode-backto-overarch_dataModel_domainModelNode" style="stroke:#181818;stroke-width:1.0;"/><polygon fill="none" points="506.86,463.2879,511.5105,481.6828,521.6173,475.2135,506.86,463.2879" style="stroke:#181818;stroke-width:1.0;"/></g><!--reverse link overarch_dataModel_domainModelNode to overarch_dataModel_domainEvent--><g id="link_overarch_dataModel_domainModelNode_overarch_dataModel_domainEvent"><path codeLine="39" d="M668.6553,589.4647 C737.9153,605.6947 823.63,626.3579 913,650.0679 C918.59,651.5479 924.38,653.1279 930.18,654.7479 " fill="none" id="overarch_dataModel_domainModelNode-backto-overarch_dataModel_domainEvent" style="stroke:#181818;stroke-width:1.0;"/><polygon fill="none" points="651.13,585.3579,667.2863,595.3064,670.0242,583.6229,651.13,585.3579" style="stroke:#181818;stroke-width:1.0;"/></g><!--reverse link overarch_dataModel_modelElement to overarch_dataModel_modelNode--><g id="link_overarch_dataModel_modelElement_overarch_dataModel_modelNode"><path codeLine="40" d="M603.3666,347.4667 C571.7366,373.1967 546.42,393.7879 520.36,414.9979 " fill="none" id="overarch_dataModel_modelElement-backto-overarch_dataModel_modelNode" style="stroke:#181818;stroke-width:1.0;"/><polygon fill="none" points="617.33,336.1079,599.5803,342.8122,607.1528,352.1212,617.33,336.1079" style="stroke:#181818;stroke-width:1.0;"/></g><!--reverse link overarch_dataModel_domainModelNode to overarch_dataModel_valueObject--><g id="link_overarch_dataModel_domainModelNode_overarch_dataModel_valueObject"><path codeLine="41" d="M530.6233,601.6047 C509.4733,619.2647 494.19,632.0079 472.94,649.7479 " fill="none" id="overarch_dataModel_domainModelNode-backto-overarch_dataModel_valueObject" style="stroke:#181818;stroke-width:1.0;"/><polygon fill="none" points="544.44,590.0679,526.7777,596.9991,534.4689,606.2103,544.44,590.0679" style="stroke:#181818;stroke-width:1.0;"/></g><!--reverse link overarch_dataModel_domainModelElement to overarch_dataModel_domainModelRelation--><g id="link_overarch_dataModel_domainModelElement_overarch_dataModel_domainModelRelation"><path codeLine="42" d="M709.5652,475.0388 C735.6152,497.4888 761.22,519.5679 787.21,541.9779 " fill="none" id="overarch_dataModel_domainModelElement-backto-overarch_dataModel_domainModelRelation" style="stroke:#181818;stroke-width:1.0;"/><polygon fill="none" points="695.93,463.2879,705.6482,479.5838,713.4821,470.4937,695.93,463.2879" style="stroke:#181818;stroke-width:1.0;"/></g><!--reverse link overarch_dataModel_modelElement to overarch_dataModel_modelRelation--><g id="link_overarch_dataModel_modelElement_overarch_dataModel_modelRelation"><path codeLine="43" d="M737.5341,347.1256 C761.8741,365.9656 776.29,377.1279 800.63,395.9779 " fill="none" id="overarch_dataModel_modelElement-backto-overarch_dataModel_modelRelation" style="stroke:#181818;stroke-width:1.0;"/><polygon fill="none" points="723.3,336.1079,733.8616,351.8703,741.2067,342.3809,723.3,336.1079" style="stroke:#181818;stroke-width:1.0;"/></g><!--reverse link overarch_dataModel_modelElement to overarch_dataModel_domainModelElement--><g id="link_overarch_dataModel_modelElement_overarch_dataModel_domainModelElement"><path codeLine="44" d="M669,354.1079 C669,379.8379 669,393.7879 669,414.9979 " fill="none" id="overarch_dataModel_modelElement-backto-overarch_dataModel_domainModelElement" style="stroke:#181818;stroke-width:1.0;"/><polygon fill="none" points="669,336.1079,663,354.1079,675,354.1079,669,336.1079" style="stroke:#181818;stroke-width:1.0;"/></g><!--reverse link overarch_dataModel_modelRelation to overarch_dataModel_domainModelRelation--><g id="link_overarch_dataModel_modelRelation_overarch_dataModel_domainModelRelation"><path codeLine="45" d="M835.5056,499.4899 C828.9956,519.3199 827.11,525.0879 821.65,541.7379 " fill="none" id="overarch_dataModel_modelRelation-backto-overarch_dataModel_domainModelRelation" style="stroke:#181818;stroke-width:1.0;"/><polygon fill="none" points="841.12,482.3879,829.8049,497.6184,841.2062,501.3614,841.12,482.3879" style="stroke:#181818;stroke-width:1.0;"/></g><!--reverse link overarch_dataModel_domainModelNode to overarch_dataModel_aggregate--><g id="link_overarch_dataModel_domainModelNode_overarch_dataModel_aggregate"><path codeLine="46" d="M475.1162,581.1745 C385.5762,594.8445 253.49,617.3579 127,650.0679 C121.13,651.5879 115.04,653.3379 109.01,655.1979 " fill="none" id="overarch_dataModel_domainModelNode-backto-overarch_dataModel_aggregate" style="stroke:#181818;stroke-width:1.0;"/><polygon fill="none" points="492.91,578.4579,474.2107,575.2432,476.0217,587.1058,492.91,578.4579" style="stroke:#181818;stroke-width:1.0;"/></g><!--reverse link overarch_dataModel_domainModelNode to overarch_dataModel_boundedContext--><g id="link_overarch_dataModel_domainModelNode_overarch_dataModel_boundedContext"><path codeLine="47" d="M642.8218,597.0948 C684.6118,614.8148 725.56,632.1779 767.43,649.9279 " fill="none" id="overarch_dataModel_domainModelNode-backto-overarch_dataModel_boundedContext" style="stroke:#181818;stroke-width:1.0;"/><polygon fill="none" points="626.25,590.0679,640.4795,602.6187,645.164,591.5708,626.25,590.0679" style="stroke:#181818;stroke-width:1.0;"/></g><!--reverse link overarch_dataModel_domainModelNode to overarch_dataModel_entity--><g id="link_overarch_dataModel_domainModelNode_overarch_dataModel_entity"><path codeLine="48" d="M572,608.0679 C572,625.7279 572,632.0079 572,649.7479 " fill="none" id="overarch_dataModel_domainModelNode-backto-overarch_dataModel_entity" style="stroke:#181818;stroke-width:1.0;"/><polygon fill="none" points="572,590.0679,566,608.0679,578,608.0679,572,590.0679" style="stroke:#181818;stroke-width:1.0;"/></g><!--reverse link overarch_dataModel_domainModelElement to overarch_dataModel_domainModelNode--><g id="link_overarch_dataModel_domainModelElement_overarch_dataModel_domainModelNode"><path codeLine="49" d="M639.9453,477.5089 C622.5253,499.9589 607.31,519.5679 589.92,541.9779 " fill="none" id="overarch_dataModel_domainModelElement-backto-overarch_dataModel_domainModelNode" style="stroke:#181818;stroke-width:1.0;"/><polygon fill="none" points="650.98,463.2879,635.205,473.8306,644.6856,481.1871,650.98,463.2879" style="stroke:#181818;stroke-width:1.0;"/></g><!--reverse link overarch_dataModel_domainModelNode to overarch_dataModel_model--><g id="link_overarch_dataModel_domainModelNode_overarch_dataModel_model"><path codeLine="50" d="M498.6558,596.9326 C458.1258,613.4826 418.97,629.5779 370,650.0679 C364.55,652.3479 358.79,654.7779 353.16,657.1679 " fill="none" id="overarch_dataModel_domainModelNode-backto-overarch_dataModel_model" style="stroke:#181818;stroke-width:1.0;"/><polygon fill="none" points="515.32,590.1279,496.3875,591.3778,500.924,602.4873,515.32,590.1279" style="stroke:#181818;stroke-width:1.0;"/></g><!--reverse link overarch_dataModel_domainModelNode to overarch_dataModel_command--><g id="link_overarch_dataModel_domainModelNode_overarch_dataModel_command"><path codeLine="51" d="M475.5079,590.9452 C412.3879,606.8852 339.31,626.2079 261,650.0679 C255.35,651.7879 249.47,653.6679 243.63,655.5979 " fill="none" id="overarch_dataModel_domainModelNode-backto-overarch_dataModel_command" style="stroke:#181818;stroke-width:1.0;"/><polygon fill="none" points="492.96,586.5379,474.0388,585.1278,476.977,596.7626,492.96,586.5379" style="stroke:#181818;stroke-width:1.0;"/></g><!--reverse link overarch_dataModel_domainModelNode to overarch_dataModel_domain--><g id="link_overarch_dataModel_domainModelNode_overarch_dataModel_domain"><path codeLine="52" d="M668.8486,583.5057 C687.4986,586.6557 689.58,586.9979 708,590.0679 C870.16,617.1079 914.44,606.6379 1073,650.0679 C1078.73,651.6379 1084.66,653.5679 1090.46,655.6379 " fill="none" id="overarch_dataModel_domainModelNode-backto-overarch_dataModel_domain" style="stroke:#181818;stroke-width:1.0;"/><polygon fill="none" points="651.1,580.5079,667.8494,589.4219,669.8479,577.5895,651.1,580.5079" style="stroke:#181818;stroke-width:1.0;"/></g><!--reverse link overarch_dataModel_domainModelNode to overarch_dataModel_policy--><g id="link_overarch_dataModel_domainModelNode_overarch_dataModel_policy"><path codeLine="53" d="M607.7279,602.7958 C625.3879,620.4558 636.94,632.0079 654.68,649.7479 " fill="none" id="overarch_dataModel_domainModelNode-backto-overarch_dataModel_policy" style="stroke:#181818;stroke-width:1.0;"/><polygon fill="none" points="595,590.0679,603.4853,607.0385,611.9706,598.5532,595,590.0679" style="stroke:#181818;stroke-width:1.0;"/></g><!--SRC=[hLN1JiGW4Btp5MJltUZLUDCzgebNOpOiZBLQm01RtQpxxr9ATwakq0GlJGjlNkVDl07Jc1RmhUIa4VXECcZngWKEmcY4Q4kqnWjIrmfgOc21YSQo0qKKVLqpOeYBM1y1U7z0PAED8jHW7yqSTyLxPAMW9QQH8iOqWDtxeuUUunp8O4WqnkL0NWpU8umvCLlLc1s-mk-m-vIAuQUBvVBosUuPKckxhi6CQuTHFfMS4y5Yl_7RVPfXTici0d17sYrKSlC6DAh4OHuS98YqigoOMCom6y0_PDlGA7pOZTTQs6TIqhrznCDpVUVJZjk6l2Z9JutgEoI3pupDCiu8N7RqHuOnfJ-W6wlWAJPoAnYmYafXu2kQZuVT3AXpkMG4GU1o1fhsJZQg4VN9u4oUMxLM36lSiCcd81oEGQU1y8M1BblYLUThEubCn_JmXCJhxwhAJJjAcZJ6yAkDQ4QdqrHEFSgTJ4b1fOa49mUQDmWpgZFEQPcqOfQ_oQFioLAeRcxPZnTY2SdqL2XX6kw2_pD0gIjTJqe8_9rRFg8b3CEL-GC0]--></g></svg>