<svg xmlns="http://www.w3.org/2000/svg" xmlns:xlink="http://www.w3.org/1999/xlink" contentStyleType="text/css" height="705px" preserveAspectRatio="none" style="width:740px;height:705px;background:#FFFFFF;" version="1.1" viewBox="0 0 740 705" width="740px" zoomAndPan="magnify"><defs/><g><text fill="#000000" font-family="sans-serif" font-size="14" font-weight="bold" lengthAdjust="spacing" textLength="205" x="260.75" y="24.9659">Organization Model Elements</text><!--class overarch_dataModel_organizationModelRelation--><g id="elem_overarch_dataModel_organizationModelRelation"><rect codeLine="9" fill="#F1F1F1" height="48" id="overarch_dataModel_organizationModelRelation" rx="2.5" ry="2.5" style="stroke:#181818;stroke-width:0.5;" width="210" x="123" y="542.0679"/><ellipse cx="138" cy="558.0679" fill="#A9DCDF" rx="11" ry="11" style="stroke:#181818;stroke-width:1.0;"/><path d="M138.1094,553.4117 L136.9531,558.4898 L139.2813,558.4898 L138.1094,553.4117 Z M136.625,551.1773 L139.6094,551.1773 L142.9688,563.5679 L140.5156,563.5679 L139.75,560.5054 L136.4688,560.5054 L135.7188,563.5679 L133.2813,563.5679 L136.625,551.1773 Z " fill="#000000"/><text fill="#000000" font-family="sans-serif" font-size="14" font-style="italic" lengthAdjust="spacing" textLength="178" x="152" y="563.4999">organization-model-relation</text><line style="stroke:#181818;stroke-width:0.5;" x1="124" x2="332" y1="574.0679" y2="574.0679"/><line style="stroke:#181818;stroke-width:0.5;" x1="124" x2="332" y1="582.0679" y2="582.0679"/></g><!--class overarch_dataModel_modelElement--><g id="elem_overarch_dataModel_modelElement"><rect codeLine="10" fill="#F1F1F1" height="86.1358" id="overarch_dataModel_modelElement" rx="2.5" ry="2.5" style="stroke:#181818;stroke-width:0.5;" width="175" x="296.5" y="250.0679"/><ellipse cx="334" cy="266.0679" fill="#A9DCDF" rx="11" ry="11" style="stroke:#181818;stroke-width:1.0;"/><path d="M334.1094,261.4117 L332.9531,266.4898 L335.2813,266.4898 L334.1094,261.4117 Z M332.625,259.1773 L335.6094,259.1773 L338.9688,271.5679 L336.5156,271.5679 L335.75,268.5054 L332.4688,268.5054 L331.7188,271.5679 L329.2813,271.5679 L332.625,259.1773 Z " fill="#000000"/><text fill="#000000" font-family="sans-serif" font-size="14" font-style="italic" lengthAdjust="spacing" textLength="93" x="353" y="271.4999">model-element</text><line style="stroke:#181818;stroke-width:0.5;" x1="297.5" x2="470.5" y1="282.0679" y2="282.0679"/><text fill="#000000" font-family="sans-serif" font-size="14" lengthAdjust="spacing" textLength="163" x="302.5" y="301.0339">maturity : keyword [0..1]</text><text fill="#000000" font-family="sans-serif" font-size="14" lengthAdjust="spacing" textLength="99" x="302.5" y="320.1018">tags : set [0..1]</text><line style="stroke:#181818;stroke-width:0.5;" x1="297.5" x2="470.5" y1="328.2038" y2="328.2038"/></g><!--class overarch_dataModel_orgUnit--><g id="elem_overarch_dataModel_orgUnit"><rect codeLine="14" fill="#F1F1F1" height="48" id="overarch_dataModel_orgUnit" rx="2.5" ry="2.5" style="stroke:#181818;stroke-width:0.5;" width="87" x="646.5" y="650.0679"/><ellipse cx="661.5" cy="666.0679" fill="#ADD1B2" rx="11" ry="11" style="stroke:#181818;stroke-width:1.0;"/><path d="M664.4688,671.7085 Q663.8906,672.0054 663.25,672.146 Q662.6094,672.3023 661.9063,672.3023 Q659.4063,672.3023 658.0781,670.6617 Q656.7656,669.0054 656.7656,665.8804 Q656.7656,662.7554 658.0781,661.0992 Q659.4063,659.4429 661.9063,659.4429 Q662.6094,659.4429 663.25,659.5992 Q663.9063,659.7554 664.4688,660.0523 L664.4688,662.771 Q663.8438,662.1929 663.25,661.9273 Q662.6563,661.646 662.0313,661.646 Q660.6875,661.646 660,662.7242 Q659.3125,663.7867 659.3125,665.8804 Q659.3125,667.9742 660,669.0523 Q660.6875,670.1148 662.0313,670.1148 Q662.6563,670.1148 663.25,669.8492 Q663.8438,669.5679 664.4688,668.9898 L664.4688,671.7085 Z " fill="#000000"/><text fill="#000000" font-family="sans-serif" font-size="14" lengthAdjust="spacing" textLength="55" x="675.5" y="671.4999">org-unit</text><line style="stroke:#181818;stroke-width:0.5;" x1="647.5" x2="732.5" y1="682.0679" y2="682.0679"/><line style="stroke:#181818;stroke-width:0.5;" x1="647.5" x2="732.5" y1="690.0679" y2="690.0679"/></g><!--class overarch_dataModel_organizationModelElement--><g id="elem_overarch_dataModel_organizationModelElement"><rect codeLine="15" fill="#F1F1F1" height="48" id="overarch_dataModel_organizationModelElement" rx="2.5" ry="2.5" style="stroke:#181818;stroke-width:0.5;" width="210" x="279" y="415.0679"/><ellipse cx="294" cy="431.0679" fill="#A9DCDF" rx="11" ry="11" style="stroke:#181818;stroke-width:1.0;"/><path d="M294.1094,426.4117 L292.9531,431.4898 L295.2813,431.4898 L294.1094,426.4117 Z M292.625,424.1773 L295.6094,424.1773 L298.9688,436.5679 L296.5156,436.5679 L295.75,433.5054 L292.4688,433.5054 L291.7188,436.5679 L289.2813,436.5679 L292.625,424.1773 Z " fill="#000000"/><text fill="#000000" font-family="sans-serif" font-size="14" font-style="italic" lengthAdjust="spacing" textLength="178" x="308" y="436.4999">organization-model-element</text><line style="stroke:#181818;stroke-width:0.5;" x1="280" x2="488" y1="447.0679" y2="447.0679"/><line style="stroke:#181818;stroke-width:0.5;" x1="280" x2="488" y1="455.0679" y2="455.0679"/></g><!--class overarch_dataModel_collaboratesWith--><g id="elem_overarch_dataModel_collaboratesWith"><rect codeLine="16" fill="#F1F1F1" height="48" id="overarch_dataModel_collaboratesWith" rx="2.5" ry="2.5" style="stroke:#181818;stroke-width:0.5;" width="148" x="7" y="650.0679"/><ellipse cx="22" cy="666.0679" fill="#ADD1B2" rx="11" ry="11" style="stroke:#181818;stroke-width:1.0;"/><path d="M24.9688,671.7085 Q24.3906,672.0054 23.75,672.146 Q23.1094,672.3023 22.4063,672.3023 Q19.9063,672.3023 18.5781,670.6617 Q17.2656,669.0054 17.2656,665.8804 Q17.2656,662.7554 18.5781,661.0992 Q19.9063,659.4429 22.4063,659.4429 Q23.1094,659.4429 23.75,659.5992 Q24.4063,659.7554 24.9688,660.0523 L24.9688,662.771 Q24.3438,662.1929 23.75,661.9273 Q23.1563,661.646 22.5313,661.646 Q21.1875,661.646 20.5,662.7242 Q19.8125,663.7867 19.8125,665.8804 Q19.8125,667.9742 20.5,669.0523 Q21.1875,670.1148 22.5313,670.1148 Q23.1563,670.1148 23.75,669.8492 Q24.3438,669.5679 24.9688,668.9898 L24.9688,671.7085 Z " fill="#000000"/><text fill="#000000" font-family="sans-serif" font-size="14" lengthAdjust="spacing" textLength="116" x="36" y="671.4999">collaborates-with</text><line style="stroke:#181818;stroke-width:0.5;" x1="8" x2="154" y1="682.0679" y2="682.0679"/><line style="stroke:#181818;stroke-width:0.5;" x1="8" x2="154" y1="690.0679" y2="690.0679"/></g><!--class overarch_dataModel_roleIn--><g id="elem_overarch_dataModel_roleIn"><rect codeLine="17" fill="#F1F1F1" height="48" id="overarch_dataModel_roleIn" rx="2.5" ry="2.5" style="stroke:#181818;stroke-width:0.5;" width="76" x="190" y="650.0679"/><ellipse cx="205" cy="666.0679" fill="#ADD1B2" rx="11" ry="11" style="stroke:#181818;stroke-width:1.0;"/><path d="M207.9688,671.7085 Q207.3906,672.0054 206.75,672.146 Q206.1094,672.3023 205.4063,672.3023 Q202.9063,672.3023 201.5781,670.6617 Q200.2656,669.0054 200.2656,665.8804 Q200.2656,662.7554 201.5781,661.0992 Q202.9063,659.4429 205.4063,659.4429 Q206.1094,659.4429 206.75,659.5992 Q207.4063,659.7554 207.9688,660.0523 L207.9688,662.771 Q207.3438,662.1929 206.75,661.9273 Q206.1563,661.646 205.5313,661.646 Q204.1875,661.646 203.5,662.7242 Q202.8125,663.7867 202.8125,665.8804 Q202.8125,667.9742 203.5,669.0523 Q204.1875,670.1148 205.5313,670.1148 Q206.1563,670.1148 206.75,669.8492 Q207.3438,669.5679 207.9688,668.9898 L207.9688,671.7085 Z " fill="#000000"/><text fill="#000000" font-family="sans-serif" font-size="14" lengthAdjust="spacing" textLength="44" x="219" y="671.4999">role-in</text><line style="stroke:#181818;stroke-width:0.5;" x1="191" x2="265" y1="682.0679" y2="682.0679"/><line style="stroke:#181818;stroke-width:0.5;" x1="191" x2="265" y1="690.0679" y2="690.0679"/></g><!--class overarch_dataModel_modelNode--><g id="elem_overarch_dataModel_modelNode"><rect codeLine="18" fill="#F1F1F1" height="48" id="overarch_dataModel_modelNode" rx="2.5" ry="2.5" style="stroke:#181818;stroke-width:0.5;" width="106" x="524" y="415.0679"/><ellipse cx="539" cy="431.0679" fill="#A9DCDF" rx="11" ry="11" style="stroke:#181818;stroke-width:1.0;"/><path d="M539.1094,426.4117 L537.9531,431.4898 L540.2813,431.4898 L539.1094,426.4117 Z M537.625,424.1773 L540.6094,424.1773 L543.9688,436.5679 L541.5156,436.5679 L540.75,433.5054 L537.4688,433.5054 L536.7188,436.5679 L534.2813,436.5679 L537.625,424.1773 Z " fill="#000000"/><text fill="#000000" font-family="sans-serif" font-size="14" font-style="italic" lengthAdjust="spacing" textLength="74" x="553" y="436.4999">model-node</text><line style="stroke:#181818;stroke-width:0.5;" x1="525" x2="629" y1="447.0679" y2="447.0679"/><line style="stroke:#181818;stroke-width:0.5;" x1="525" x2="629" y1="455.0679" y2="455.0679"/></g><!--class overarch_dataModel_responsibleFor--><g id="elem_overarch_dataModel_responsibleFor"><rect codeLine="19" fill="#F1F1F1" height="48" id="overarch_dataModel_responsibleFor" rx="2.5" ry="2.5" style="stroke:#181818;stroke-width:0.5;" width="135" x="301.5" y="650.0679"/><ellipse cx="316.5" cy="666.0679" fill="#ADD1B2" rx="11" ry="11" style="stroke:#181818;stroke-width:1.0;"/><path d="M319.4688,671.7085 Q318.8906,672.0054 318.25,672.146 Q317.6094,672.3023 316.9063,672.3023 Q314.4063,672.3023 313.0781,670.6617 Q311.7656,669.0054 311.7656,665.8804 Q311.7656,662.7554 313.0781,661.0992 Q314.4063,659.4429 316.9063,659.4429 Q317.6094,659.4429 318.25,659.5992 Q318.9063,659.7554 319.4688,660.0523 L319.4688,662.771 Q318.8438,662.1929 318.25,661.9273 Q317.6563,661.646 317.0313,661.646 Q315.6875,661.646 315,662.7242 Q314.3125,663.7867 314.3125,665.8804 Q314.3125,667.9742 315,669.0523 Q315.6875,670.1148 317.0313,670.1148 Q317.6563,670.1148 318.25,669.8492 Q318.8438,669.5679 319.4688,668.9898 L319.4688,671.7085 Z " fill="#000000"/><text fill="#000000" font-family="sans-serif" font-size="14" lengthAdjust="spacing" textLength="103" x="330.5" y="671.4999">responsible-for</text><line style="stroke:#181818;stroke-width:0.5;" x1="302.5" x2="435.5" y1="682.0679" y2="682.0679"/><line style="stroke:#181818;stroke-width:0.5;" x1="302.5" x2="435.5" y1="690.0679" y2="690.0679"/></g><!--class overarch_dataModel_modelRelation--><g id="elem_overarch_dataModel_modelRelation"><rect codeLine="20" fill="#F1F1F1" height="86.1358" id="overarch_dataModel_modelRelation" rx="2.5" ry="2.5" style="stroke:#181818;stroke-width:0.5;" width="125" x="118.5" y="396.0679"/><ellipse cx="133.5" cy="412.0679" fill="#A9DCDF" rx="11" ry="11" style="stroke:#181818;stroke-width:1.0;"/><path d="M133.6094,407.4117 L132.4531,412.4898 L134.7813,412.4898 L133.6094,407.4117 Z M132.125,405.1773 L135.1094,405.1773 L138.4688,417.5679 L136.0156,417.5679 L135.25,414.5054 L131.9688,414.5054 L131.2188,417.5679 L128.7813,417.5679 L132.125,405.1773 Z " fill="#000000"/><text fill="#000000" font-family="sans-serif" font-size="14" font-style="italic" lengthAdjust="spacing" textLength="93" x="147.5" y="417.4999">model-relation</text><line style="stroke:#181818;stroke-width:0.5;" x1="119.5" x2="242.5" y1="428.0679" y2="428.0679"/><text fill="#000000" font-family="sans-serif" font-size="14" lengthAdjust="spacing" textLength="100" x="124.5" y="447.0339">from : keyword</text><text fill="#000000" font-family="sans-serif" font-size="14" lengthAdjust="spacing" textLength="81" x="124.5" y="466.1018">to : keyword</text><line style="stroke:#181818;stroke-width:0.5;" x1="119.5" x2="242.5" y1="474.2038" y2="474.2038"/></g><!--class overarch_dataModel_organization--><g id="elem_overarch_dataModel_organization"><rect codeLine="24" fill="#F1F1F1" height="48" id="overarch_dataModel_organization" rx="2.5" ry="2.5" style="stroke:#181818;stroke-width:0.5;" width="117" x="494.5" y="650.0679"/><ellipse cx="509.5" cy="666.0679" fill="#ADD1B2" rx="11" ry="11" style="stroke:#181818;stroke-width:1.0;"/><path d="M512.4688,671.7085 Q511.8906,672.0054 511.25,672.146 Q510.6094,672.3023 509.9063,672.3023 Q507.4063,672.3023 506.0781,670.6617 Q504.7656,669.0054 504.7656,665.8804 Q504.7656,662.7554 506.0781,661.0992 Q507.4063,659.4429 509.9063,659.4429 Q510.6094,659.4429 511.25,659.5992 Q511.9063,659.7554 512.4688,660.0523 L512.4688,662.771 Q511.8438,662.1929 511.25,661.9273 Q510.6563,661.646 510.0313,661.646 Q508.6875,661.646 508,662.7242 Q507.3125,663.7867 507.3125,665.8804 Q507.3125,667.9742 508,669.0523 Q508.6875,670.1148 510.0313,670.1148 Q510.6563,670.1148 511.25,669.8492 Q511.8438,669.5679 512.4688,668.9898 L512.4688,671.7085 Z " fill="#000000"/><text fill="#000000" font-family="sans-serif" font-size="14" lengthAdjust="spacing" textLength="85" x="523.5" y="671.4999">organization</text><line style="stroke:#181818;stroke-width:0.5;" x1="495.5" x2="610.5" y1="682.0679" y2="682.0679"/><line style="stroke:#181818;stroke-width:0.5;" x1="495.5" x2="610.5" y1="690.0679" y2="690.0679"/></g><!--class overarch_dataModel_element--><g id="elem_overarch_dataModel_element"><rect codeLine="25" fill="#F1F1F1" height="143.3396" id="overarch_dataModel_element" rx="2.5" ry="2.5" style="stroke:#181818;stroke-width:0.5;" width="133" x="317.5" y="47.0679"/><ellipse cx="355.45" cy="63.0679" fill="#A9DCDF" rx="11" ry="11" style="stroke:#181818;stroke-width:1.0;"/><path d="M355.5594,58.4117 L354.4031,63.4898 L356.7313,63.4898 L355.5594,58.4117 Z M354.075,56.1773 L357.0594,56.1773 L360.4188,68.5679 L357.9656,68.5679 L357.2,65.5054 L353.9188,65.5054 L353.1688,68.5679 L350.7313,68.5679 L354.075,56.1773 Z " fill="#000000"/><text fill="#000000" font-family="sans-serif" font-size="14" font-style="italic" lengthAdjust="spacing" textLength="50" x="374.55" y="68.4999">element</text><line style="stroke:#181818;stroke-width:0.5;" x1="318.5" x2="449.5" y1="79.0679" y2="79.0679"/><text fill="#000000" font-family="sans-serif" font-size="14" lengthAdjust="spacing" textLength="121" x="323.5" y="98.0339">desc : string [0..1]</text><text fill="#000000" font-family="sans-serif" font-size="14" lengthAdjust="spacing" textLength="114" x="323.5" y="117.1018">doc : string [0..1]</text><text fill="#000000" font-family="sans-serif" font-size="14" lengthAdjust="spacing" textLength="80" x="323.5" y="136.1697">el : keyword</text><text fill="#000000" font-family="sans-serif" font-size="14" lengthAdjust="spacing" textLength="81" x="323.5" y="155.2376">id : keyword</text><text fill="#000000" font-family="sans-serif" font-size="14" lengthAdjust="spacing" textLength="90" x="323.5" y="174.3055">name : string</text><line style="stroke:#181818;stroke-width:0.5;" x1="318.5" x2="449.5" y1="182.4075" y2="182.4075"/></g><!--class overarch_dataModel_organizationModelNode--><g id="elem_overarch_dataModel_organizationModelNode"><rect codeLine="32" fill="#F1F1F1" height="48" id="overarch_dataModel_organizationModelNode" rx="2.5" ry="2.5" style="stroke:#181818;stroke-width:0.5;" width="191" x="457.5" y="542.0679"/><ellipse cx="472.5" cy="558.0679" fill="#A9DCDF" rx="11" ry="11" style="stroke:#181818;stroke-width:1.0;"/><path d="M472.6094,553.4117 L471.4531,558.4898 L473.7813,558.4898 L472.6094,553.4117 Z M471.125,551.1773 L474.1094,551.1773 L477.4688,563.5679 L475.0156,563.5679 L474.25,560.5054 L470.9688,560.5054 L470.2188,563.5679 L467.7813,563.5679 L471.125,551.1773 Z " fill="#000000"/><text fill="#000000" font-family="sans-serif" font-size="14" font-style="italic" lengthAdjust="spacing" textLength="159" x="486.5" y="563.4999">organization-model-node</text><line style="stroke:#181818;stroke-width:0.5;" x1="458.5" x2="647.5" y1="574.0679" y2="574.0679"/><line style="stroke:#181818;stroke-width:0.5;" x1="458.5" x2="647.5" y1="582.0679" y2="582.0679"/></g><!--reverse link overarch_dataModel_element to overarch_dataModel_modelElement--><g id="link_overarch_dataModel_element_overarch_dataModel_modelElement"><path codeLine="33" d="M384,208.2279 C384,228.5079 384,231.9879 384,249.9579 " fill="none" id="overarch_dataModel_element-backto-overarch_dataModel_modelElement" style="stroke:#181818;stroke-width:1.0;"/><polygon fill="none" points="384,190.2279,378,208.2279,390,208.2279,384,190.2279" style="stroke:#181818;stroke-width:1.0;"/></g><!--reverse link overarch_dataModel_modelElement to overarch_dataModel_modelNode--><g id="link_overarch_dataModel_modelElement_overarch_dataModel_modelNode"><path codeLine="34" d="M454.7676,346.8711 C489.2576,372.6011 517.66,393.7879 546.08,414.9979 " fill="none" id="overarch_dataModel_modelElement-backto-overarch_dataModel_modelNode" style="stroke:#181818;stroke-width:1.0;"/><polygon fill="none" points="440.34,336.1079,451.1798,351.6803,458.3553,342.0619,440.34,336.1079" style="stroke:#181818;stroke-width:1.0;"/></g><!--link overarch_dataModel_organization to overarch_dataModel_organizationModelNode--><g id="link_overarch_dataModel_organization_overarch_dataModel_organizationModelNode"><path codeLine="35" d="M566.2809,637.8947 C569.0809,620.1547 568.1527,613.6518 565.3127,595.9918 " fill="none" id="overarch_dataModel_organization-overarch_dataModel_organizationModelNode" style="stroke:#181818;stroke-width:1.0;"/><polygon fill="#181818" points="564.41,649.7479,569.2965,644.4449,566.2809,637.8947,561.3943,643.1977,564.41,649.7479" style="stroke:#181818;stroke-width:1.0;"/><polygon fill="#181818" points="564.36,590.0679,561.8397,599.5889,565.1539,595.0045,569.7382,598.3186,564.36,590.0679" style="stroke:#181818;stroke-width:1.0;"/><text fill="#000000" font-family="sans-serif" font-size="13" lengthAdjust="spacing" textLength="21" x="543.5696" y="611.9729">1..n</text></g><!--reverse link overarch_dataModel_organizationModelNode to overarch_dataModel_organization--><g id="link_overarch_dataModel_organizationModelNode_overarch_dataModel_organization"><path codeLine="46" d="M539.5693,607.8642 C536.8893,625.5242 539.58,632.0079 542.23,649.7479 " fill="none" id="overarch_dataModel_organizationModelNode-backto-overarch_dataModel_organization" style="stroke:#181818;stroke-width:1.0;"/><polygon fill="none" points="542.27,590.0679,533.6372,606.9639,545.5014,608.7644,542.27,590.0679" style="stroke:#181818;stroke-width:1.0;"/></g><!--reverse link overarch_dataModel_modelRelation to overarch_dataModel_organizationModelRelation--><g id="link_overarch_dataModel_modelRelation_overarch_dataModel_organizationModelRelation"><path codeLine="36" d="M203.2479,499.2352 C210.7079,519.0652 212.97,525.0879 219.23,541.7379 " fill="none" id="overarch_dataModel_modelRelation-backto-overarch_dataModel_organizationModelRelation" style="stroke:#181818;stroke-width:1.0;"/><polygon fill="none" points="196.91,482.3879,197.6321,501.3478,208.8637,497.1226,196.91,482.3879" style="stroke:#181818;stroke-width:1.0;"/></g><!--reverse link overarch_dataModel_organizationModelElement to overarch_dataModel_organizationModelNode--><g id="link_overarch_dataModel_organizationModelElement_overarch_dataModel_organizationModelNode"><path codeLine="37" d="M429.8629,473.99 C460.2229,496.44 491.48,519.5679 521.78,541.9779 " fill="none" id="overarch_dataModel_organizationModelElement-backto-overarch_dataModel_organizationModelNode" style="stroke:#181818;stroke-width:1.0;"/><polygon fill="none" points="415.39,463.2879,426.2955,478.8143,433.4303,469.1657,415.39,463.2879" style="stroke:#181818;stroke-width:1.0;"/></g><!--reverse link overarch_dataModel_organizationModelRelation to overarch_dataModel_collaboratesWith--><g id="link_overarch_dataModel_organizationModelRelation_overarch_dataModel_collaboratesWith"><path codeLine="38" d="M181.5007,600.597 C156.9307,618.317 137.71,632.1779 113.09,649.9279 " fill="none" id="overarch_dataModel_organizationModelRelation-backto-overarch_dataModel_collaboratesWith" style="stroke:#181818;stroke-width:1.0;"/><polygon fill="none" points="196.1,590.0679,177.991,595.7306,185.0104,605.4634,196.1,590.0679" style="stroke:#181818;stroke-width:1.0;"/></g><!--reverse link overarch_dataModel_modelElement to overarch_dataModel_modelRelation--><g id="link_overarch_dataModel_modelElement_overarch_dataModel_modelRelation"><path codeLine="39" d="M310.0567,346.5194 C283.4867,365.3594 266.91,377.1279 240.34,395.9779 " fill="none" id="overarch_dataModel_modelElement-backto-overarch_dataModel_modelRelation" style="stroke:#181818;stroke-width:1.0;"/><polygon fill="none" points="324.74,336.1079,306.5862,341.625,313.5272,351.4139,324.74,336.1079" style="stroke:#181818;stroke-width:1.0;"/></g><!--reverse link overarch_dataModel_organizationModelElement to overarch_dataModel_organizationModelRelation--><g id="link_overarch_dataModel_organizationModelElement_overarch_dataModel_organizationModelRelation"><path codeLine="40" d="M340.9727,474.5428 C312.9527,496.9928 284.79,519.5679 256.82,541.9779 " fill="none" id="overarch_dataModel_organizationModelElement-backto-overarch_dataModel_organizationModelRelation" style="stroke:#181818;stroke-width:1.0;"/><polygon fill="none" points="355.02,463.2879,337.221,469.8604,344.7243,479.2253,355.02,463.2879" style="stroke:#181818;stroke-width:1.0;"/></g><!--reverse link overarch_dataModel_modelElement to overarch_dataModel_organizationModelElement--><g id="link_overarch_dataModel_modelElement_overarch_dataModel_organizationModelElement"><path codeLine="41" d="M384,354.1079 C384,379.8379 384,393.7879 384,414.9979 " fill="none" id="overarch_dataModel_modelElement-backto-overarch_dataModel_organizationModelElement" style="stroke:#181818;stroke-width:1.0;"/><polygon fill="none" points="384,336.1079,378,354.1079,390,354.1079,384,336.1079" style="stroke:#181818;stroke-width:1.0;"/></g><!--reverse link overarch_dataModel_organizationModelNode to overarch_dataModel_orgUnit--><g id="link_overarch_dataModel_organizationModelNode_overarch_dataModel_orgUnit"><path codeLine="42" d="M596.9652,601.0843 C619.7852,618.7443 636.93,632.0079 659.86,649.7479 " fill="none" id="overarch_dataModel_organizationModelNode-backto-overarch_dataModel_orgUnit" style="stroke:#181818;stroke-width:1.0;"/><polygon fill="none" points="582.73,590.0679,593.2931,605.8293,600.6373,596.3392,582.73,590.0679" style="stroke:#181818;stroke-width:1.0;"/></g><!--reverse link overarch_dataModel_organizationModelRelation to overarch_dataModel_responsibleFor--><g id="link_overarch_dataModel_organizationModelRelation_overarch_dataModel_responsibleFor"><path codeLine="43" d="M272.9775,600.8846 C296.4675,618.5446 314.38,632.0079 337.98,649.7479 " fill="none" id="overarch_dataModel_organizationModelRelation-backto-overarch_dataModel_responsibleFor" style="stroke:#181818;stroke-width:1.0;"/><polygon fill="none" points="258.59,590.0679,269.3719,605.6804,276.583,596.0887,258.59,590.0679" style="stroke:#181818;stroke-width:1.0;"/></g><!--reverse link overarch_dataModel_organizationModelRelation to overarch_dataModel_roleIn--><g id="link_overarch_dataModel_organizationModelRelation_overarch_dataModel_roleIn"><path codeLine="44" d="M228,608.0679 C228,625.7279 228,632.0079 228,649.7479 " fill="none" id="overarch_dataModel_organizationModelRelation-backto-overarch_dataModel_roleIn" style="stroke:#181818;stroke-width:1.0;"/><polygon fill="none" points="228,590.0679,222,608.0679,234,608.0679,228,590.0679" style="stroke:#181818;stroke-width:1.0;"/></g><!--reverse link overarch_dataModel_modelNode to overarch_dataModel_organizationModelNode--><g id="link_overarch_dataModel_modelNode_overarch_dataModel_organizationModelNode"><path codeLine="45" d="M569.1463,480.9651 C564.8363,503.4151 561.74,519.5679 557.43,541.9779 " fill="none" id="overarch_dataModel_modelNode-backto-overarch_dataModel_organizationModelNode" style="stroke:#181818;stroke-width:1.0;"/><polygon fill="none" points="572.54,463.2879,563.2539,479.8339,575.0387,482.0963,572.54,463.2879" style="stroke:#181818;stroke-width:1.0;"/></g><!--SRC=[jLJ1IWCn4BtdAuOUXIpsAk9DmKCL1F4WKjBTQHlC9f9CBRNstyrksztKxcPNhPT0aicRD_DUXYGfX7ix4rf-2996myXagE1QOOwQ76DYuiYAb21LmZaOc22OvqKmjwZAxG240_EELjXqFiu4YH9i73ufJnvs3s2zESBVGk8sVnjY6RJZ26i6a0jQM4ahk81NN2sDpU3vF4c6B_wEnCpvSuUqFzkmkXY-q98Yp1_zTHFFXZvqa3vgGrL0nISrIec9iOBGyQMaUHjM6FZaum8CQnHosIf6SNqRwRpsQxJjTtu9qw5xCzh9YSywDROrRHrsOsnx-YulvOV-yV9EhSbhsGkzJR0DfQwwtqUX9eeT0cDWo0nTMfYEhDIpsekPQJhr7ouiG6O7Moroh1wnNawCYNXamxsWaOekFpdl-eUiwvz6GGeIh4kICywl00R39F4IzYsDTRgeZLZht68_-TszqVkqODIB-FVfy3Tf_hVg67h-AyI87vkz7q4kflzfD3aSW2V2B6SvYqxgqzklD-mN]--></g></svg>