<svg xmlns="http://www.w3.org/2000/svg" xmlns:xlink="http://www.w3.org/1999/xlink" contentStyleType="text/css" height="534px" preserveAspectRatio="none" style="width:744px;height:534px;background:#FFFFFF;" version="1.1" viewBox="0 0 744 534" width="744px" zoomAndPan="magnify"><defs/><g><text fill="#000000" font-family="sans-serif" font-size="14" font-weight="bold" lengthAdjust="spacing" textLength="205" x="262.75" y="24.9659">Organization Model Elements</text><!--class overarch_dataModel_element--><g id="elem_overarch_dataModel_element"><rect codeLine="9" fill="#F1F1F1" height="48" id="overarch_dataModel_element" rx="2.5" ry="2.5" style="stroke:#181818;stroke-width:0.5;" width="82" x="336" y="47.0679"/><ellipse cx="351" cy="63.0679" fill="#A9DCDF" rx="11" ry="11" style="stroke:#181818;stroke-width:1.0;"/><path d="M351.1094,58.4117 L349.9531,63.4898 L352.2813,63.4898 L351.1094,58.4117 Z M349.625,56.1773 L352.6094,56.1773 L355.9688,68.5679 L353.5156,68.5679 L352.75,65.5054 L349.4688,65.5054 L348.7188,68.5679 L346.2813,68.5679 L349.625,56.1773 Z " fill="#000000"/><text fill="#000000" font-family="sans-serif" font-size="14" font-style="italic" lengthAdjust="spacing" textLength="50" x="365" y="68.4999">element</text><line style="stroke:#181818;stroke-width:0.5;" x1="337" x2="417" y1="79.0679" y2="79.0679"/><line style="stroke:#181818;stroke-width:0.5;" x1="337" x2="417" y1="87.0679" y2="87.0679"/></g><!--class overarch_dataModel_organizationModelRelation--><g id="elem_overarch_dataModel_organizationModelRelation"><rect codeLine="10" fill="#F1F1F1" height="48" id="overarch_dataModel_organizationModelRelation" rx="2.5" ry="2.5" style="stroke:#181818;stroke-width:0.5;" width="210" x="123" y="371.0679"/><ellipse cx="138" cy="387.0679" fill="#A9DCDF" rx="11" ry="11" style="stroke:#181818;stroke-width:1.0;"/><path d="M138.1094,382.4117 L136.9531,387.4898 L139.2813,387.4898 L138.1094,382.4117 Z M136.625,380.1773 L139.6094,380.1773 L142.9688,392.5679 L140.5156,392.5679 L139.75,389.5054 L136.4688,389.5054 L135.7188,392.5679 L133.2813,392.5679 L136.625,380.1773 Z " fill="#000000"/><text fill="#000000" font-family="sans-serif" font-size="14" font-style="italic" lengthAdjust="spacing" textLength="178" x="152" y="392.4999">organization-model-relation</text><line style="stroke:#181818;stroke-width:0.5;" x1="124" x2="332" y1="403.0679" y2="403.0679"/><line style="stroke:#181818;stroke-width:0.5;" x1="124" x2="332" y1="411.0679" y2="411.0679"/></g><!--class overarch_dataModel_orgUnit--><g id="elem_overarch_dataModel_orgUnit"><rect codeLine="11" fill="#F1F1F1" height="48" id="overarch_dataModel_orgUnit" rx="2.5" ry="2.5" style="stroke:#181818;stroke-width:0.5;" width="87" x="498.5" y="479.0679"/><ellipse cx="513.5" cy="495.0679" fill="#ADD1B2" rx="11" ry="11" style="stroke:#181818;stroke-width:1.0;"/><path d="M516.4688,500.7085 Q515.8906,501.0054 515.25,501.146 Q514.6094,501.3023 513.9063,501.3023 Q511.4063,501.3023 510.0781,499.6617 Q508.7656,498.0054 508.7656,494.8804 Q508.7656,491.7554 510.0781,490.0992 Q511.4063,488.4429 513.9063,488.4429 Q514.6094,488.4429 515.25,488.5992 Q515.9063,488.7554 516.4688,489.0523 L516.4688,491.771 Q515.8438,491.1929 515.25,490.9273 Q514.6563,490.646 514.0313,490.646 Q512.6875,490.646 512,491.7242 Q511.3125,492.7867 511.3125,494.8804 Q511.3125,496.9742 512,498.0523 Q512.6875,499.1148 514.0313,499.1148 Q514.6563,499.1148 515.25,498.8492 Q515.8438,498.5679 516.4688,497.9898 L516.4688,500.7085 Z " fill="#000000"/><text fill="#000000" font-family="sans-serif" font-size="14" lengthAdjust="spacing" textLength="55" x="527.5" y="500.4999">org-unit</text><line style="stroke:#181818;stroke-width:0.5;" x1="499.5" x2="584.5" y1="511.0679" y2="511.0679"/><line style="stroke:#181818;stroke-width:0.5;" x1="499.5" x2="584.5" y1="519.0679" y2="519.0679"/></g><!--class overarch_dataModel_organizationModelElement--><g id="elem_overarch_dataModel_organizationModelElement"><rect codeLine="12" fill="#F1F1F1" height="48" id="overarch_dataModel_organizationModelElement" rx="2.5" ry="2.5" style="stroke:#181818;stroke-width:0.5;" width="210" x="272" y="263.0679"/><ellipse cx="287" cy="279.0679" fill="#A9DCDF" rx="11" ry="11" style="stroke:#181818;stroke-width:1.0;"/><path d="M287.1094,274.4117 L285.9531,279.4898 L288.2813,279.4898 L287.1094,274.4117 Z M285.625,272.1773 L288.6094,272.1773 L291.9688,284.5679 L289.5156,284.5679 L288.75,281.5054 L285.4688,281.5054 L284.7188,284.5679 L282.2813,284.5679 L285.625,272.1773 Z " fill="#000000"/><text fill="#000000" font-family="sans-serif" font-size="14" font-style="italic" lengthAdjust="spacing" textLength="178" x="301" y="284.4999">organization-model-element</text><line style="stroke:#181818;stroke-width:0.5;" x1="273" x2="481" y1="295.0679" y2="295.0679"/><line style="stroke:#181818;stroke-width:0.5;" x1="273" x2="481" y1="303.0679" y2="303.0679"/></g><!--class overarch_dataModel_collaboratesWith--><g id="elem_overarch_dataModel_collaboratesWith"><rect codeLine="13" fill="#F1F1F1" height="48" id="overarch_dataModel_collaboratesWith" rx="2.5" ry="2.5" style="stroke:#181818;stroke-width:0.5;" width="148" x="7" y="479.0679"/><ellipse cx="22" cy="495.0679" fill="#ADD1B2" rx="11" ry="11" style="stroke:#181818;stroke-width:1.0;"/><path d="M24.9688,500.7085 Q24.3906,501.0054 23.75,501.146 Q23.1094,501.3023 22.4063,501.3023 Q19.9063,501.3023 18.5781,499.6617 Q17.2656,498.0054 17.2656,494.8804 Q17.2656,491.7554 18.5781,490.0992 Q19.9063,488.4429 22.4063,488.4429 Q23.1094,488.4429 23.75,488.5992 Q24.4063,488.7554 24.9688,489.0523 L24.9688,491.771 Q24.3438,491.1929 23.75,490.9273 Q23.1563,490.646 22.5313,490.646 Q21.1875,490.646 20.5,491.7242 Q19.8125,492.7867 19.8125,494.8804 Q19.8125,496.9742 20.5,498.0523 Q21.1875,499.1148 22.5313,499.1148 Q23.1563,499.1148 23.75,498.8492 Q24.3438,498.5679 24.9688,497.9898 L24.9688,500.7085 Z " fill="#000000"/><text fill="#000000" font-family="sans-serif" font-size="14" lengthAdjust="spacing" textLength="116" x="36" y="500.4999">collaborates-with</text><line style="stroke:#181818;stroke-width:0.5;" x1="8" x2="154" y1="511.0679" y2="511.0679"/><line style="stroke:#181818;stroke-width:0.5;" x1="8" x2="154" y1="519.0679" y2="519.0679"/></g><!--class overarch_dataModel_roleIn--><g id="elem_overarch_dataModel_roleIn"><rect codeLine="14" fill="#F1F1F1" height="48" id="overarch_dataModel_roleIn" rx="2.5" ry="2.5" style="stroke:#181818;stroke-width:0.5;" width="76" x="190" y="479.0679"/><ellipse cx="205" cy="495.0679" fill="#ADD1B2" rx="11" ry="11" style="stroke:#181818;stroke-width:1.0;"/><path d="M207.9688,500.7085 Q207.3906,501.0054 206.75,501.146 Q206.1094,501.3023 205.4063,501.3023 Q202.9063,501.3023 201.5781,499.6617 Q200.2656,498.0054 200.2656,494.8804 Q200.2656,491.7554 201.5781,490.0992 Q202.9063,488.4429 205.4063,488.4429 Q206.1094,488.4429 206.75,488.5992 Q207.4063,488.7554 207.9688,489.0523 L207.9688,491.771 Q207.3438,491.1929 206.75,490.9273 Q206.1563,490.646 205.5313,490.646 Q204.1875,490.646 203.5,491.7242 Q202.8125,492.7867 202.8125,494.8804 Q202.8125,496.9742 203.5,498.0523 Q204.1875,499.1148 205.5313,499.1148 Q206.1563,499.1148 206.75,498.8492 Q207.3438,498.5679 207.9688,497.9898 L207.9688,500.7085 Z " fill="#000000"/><text fill="#000000" font-family="sans-serif" font-size="14" lengthAdjust="spacing" textLength="44" x="219" y="500.4999">role-in</text><line style="stroke:#181818;stroke-width:0.5;" x1="191" x2="265" y1="511.0679" y2="511.0679"/><line style="stroke:#181818;stroke-width:0.5;" x1="191" x2="265" y1="519.0679" y2="519.0679"/></g><!--class overarch_dataModel_modelNode--><g id="elem_overarch_dataModel_modelNode"><rect codeLine="15" fill="#F1F1F1" height="48" id="overarch_dataModel_modelNode" rx="2.5" ry="2.5" style="stroke:#181818;stroke-width:0.5;" width="106" x="517" y="263.0679"/><ellipse cx="532" cy="279.0679" fill="#A9DCDF" rx="11" ry="11" style="stroke:#181818;stroke-width:1.0;"/><path d="M532.1094,274.4117 L530.9531,279.4898 L533.2813,279.4898 L532.1094,274.4117 Z M530.625,272.1773 L533.6094,272.1773 L536.9688,284.5679 L534.5156,284.5679 L533.75,281.5054 L530.4688,281.5054 L529.7188,284.5679 L527.2813,284.5679 L530.625,272.1773 Z " fill="#000000"/><text fill="#000000" font-family="sans-serif" font-size="14" font-style="italic" lengthAdjust="spacing" textLength="74" x="546" y="284.4999">model-node</text><line style="stroke:#181818;stroke-width:0.5;" x1="518" x2="622" y1="295.0679" y2="295.0679"/><line style="stroke:#181818;stroke-width:0.5;" x1="518" x2="622" y1="303.0679" y2="303.0679"/></g><!--class overarch_dataModel_responsibleFor--><g id="elem_overarch_dataModel_responsibleFor"><rect codeLine="16" fill="#F1F1F1" height="48" id="overarch_dataModel_responsibleFor" rx="2.5" ry="2.5" style="stroke:#181818;stroke-width:0.5;" width="135" x="301.5" y="479.0679"/><ellipse cx="316.5" cy="495.0679" fill="#ADD1B2" rx="11" ry="11" style="stroke:#181818;stroke-width:1.0;"/><path d="M319.4688,500.7085 Q318.8906,501.0054 318.25,501.146 Q317.6094,501.3023 316.9063,501.3023 Q314.4063,501.3023 313.0781,499.6617 Q311.7656,498.0054 311.7656,494.8804 Q311.7656,491.7554 313.0781,490.0992 Q314.4063,488.4429 316.9063,488.4429 Q317.6094,488.4429 318.25,488.5992 Q318.9063,488.7554 319.4688,489.0523 L319.4688,491.771 Q318.8438,491.1929 318.25,490.9273 Q317.6563,490.646 317.0313,490.646 Q315.6875,490.646 315,491.7242 Q314.3125,492.7867 314.3125,494.8804 Q314.3125,496.9742 315,498.0523 Q315.6875,499.1148 317.0313,499.1148 Q317.6563,499.1148 318.25,498.8492 Q318.8438,498.5679 319.4688,497.9898 L319.4688,500.7085 Z " fill="#000000"/><text fill="#000000" font-family="sans-serif" font-size="14" lengthAdjust="spacing" textLength="103" x="330.5" y="500.4999">responsible-for</text><line style="stroke:#181818;stroke-width:0.5;" x1="302.5" x2="435.5" y1="511.0679" y2="511.0679"/><line style="stroke:#181818;stroke-width:0.5;" x1="302.5" x2="435.5" y1="519.0679" y2="519.0679"/></g><!--class overarch_dataModel_organization--><g id="elem_overarch_dataModel_organization"><rect codeLine="17" fill="#F1F1F1" height="48" id="overarch_dataModel_organization" rx="2.5" ry="2.5" style="stroke:#181818;stroke-width:0.5;" width="117" x="620.5" y="479.0679"/><ellipse cx="635.5" cy="495.0679" fill="#ADD1B2" rx="11" ry="11" style="stroke:#181818;stroke-width:1.0;"/><path d="M638.4688,500.7085 Q637.8906,501.0054 637.25,501.146 Q636.6094,501.3023 635.9063,501.3023 Q633.4063,501.3023 632.0781,499.6617 Q630.7656,498.0054 630.7656,494.8804 Q630.7656,491.7554 632.0781,490.0992 Q633.4063,488.4429 635.9063,488.4429 Q636.6094,488.4429 637.25,488.5992 Q637.9063,488.7554 638.4688,489.0523 L638.4688,491.771 Q637.8438,491.1929 637.25,490.9273 Q636.6563,490.646 636.0313,490.646 Q634.6875,490.646 634,491.7242 Q633.3125,492.7867 633.3125,494.8804 Q633.3125,496.9742 634,498.0523 Q634.6875,499.1148 636.0313,499.1148 Q636.6563,499.1148 637.25,498.8492 Q637.8438,498.5679 638.4688,497.9898 L638.4688,500.7085 Z " fill="#000000"/><text fill="#000000" font-family="sans-serif" font-size="14" lengthAdjust="spacing" textLength="85" x="649.5" y="500.4999">organization</text><line style="stroke:#181818;stroke-width:0.5;" x1="621.5" x2="736.5" y1="511.0679" y2="511.0679"/><line style="stroke:#181818;stroke-width:0.5;" x1="621.5" x2="736.5" y1="519.0679" y2="519.0679"/></g><!--class overarch_dataModel_modelRelation--><g id="elem_overarch_dataModel_modelRelation"><rect codeLine="18" fill="#F1F1F1" height="48" id="overarch_dataModel_modelRelation" rx="2.5" ry="2.5" style="stroke:#181818;stroke-width:0.5;" width="125" x="111.5" y="263.0679"/><ellipse cx="126.5" cy="279.0679" fill="#A9DCDF" rx="11" ry="11" style="stroke:#181818;stroke-width:1.0;"/><path d="M126.6094,274.4117 L125.4531,279.4898 L127.7813,279.4898 L126.6094,274.4117 Z M125.125,272.1773 L128.1094,272.1773 L131.4688,284.5679 L129.0156,284.5679 L128.25,281.5054 L124.9688,281.5054 L124.2188,284.5679 L121.7813,284.5679 L125.125,272.1773 Z " fill="#000000"/><text fill="#000000" font-family="sans-serif" font-size="14" font-style="italic" lengthAdjust="spacing" textLength="93" x="140.5" y="284.4999">model-relation</text><line style="stroke:#181818;stroke-width:0.5;" x1="112.5" x2="235.5" y1="295.0679" y2="295.0679"/><line style="stroke:#181818;stroke-width:0.5;" x1="112.5" x2="235.5" y1="303.0679" y2="303.0679"/></g><!--class overarch_dataModel_modelElement--><g id="elem_overarch_dataModel_modelElement"><rect codeLine="19" fill="#F1F1F1" height="48" id="overarch_dataModel_modelElement" rx="2.5" ry="2.5" style="stroke:#181818;stroke-width:0.5;" width="125" x="314.5" y="155.0679"/><ellipse cx="329.5" cy="171.0679" fill="#A9DCDF" rx="11" ry="11" style="stroke:#181818;stroke-width:1.0;"/><path d="M329.6094,166.4117 L328.4531,171.4898 L330.7813,171.4898 L329.6094,166.4117 Z M328.125,164.1773 L331.1094,164.1773 L334.4688,176.5679 L332.0156,176.5679 L331.25,173.5054 L327.9688,173.5054 L327.2188,176.5679 L324.7813,176.5679 L328.125,164.1773 Z " fill="#000000"/><text fill="#000000" font-family="sans-serif" font-size="14" font-style="italic" lengthAdjust="spacing" textLength="93" x="343.5" y="176.4999">model-element</text><line style="stroke:#181818;stroke-width:0.5;" x1="315.5" x2="438.5" y1="187.0679" y2="187.0679"/><line style="stroke:#181818;stroke-width:0.5;" x1="315.5" x2="438.5" y1="195.0679" y2="195.0679"/></g><!--class overarch_dataModel_organizationModelNode--><g id="elem_overarch_dataModel_organizationModelNode"><rect codeLine="20" fill="#F1F1F1" height="48" id="overarch_dataModel_organizationModelNode" rx="2.5" ry="2.5" style="stroke:#181818;stroke-width:0.5;" width="191" x="460.5" y="371.0679"/><ellipse cx="475.5" cy="387.0679" fill="#A9DCDF" rx="11" ry="11" style="stroke:#181818;stroke-width:1.0;"/><path d="M475.6094,382.4117 L474.4531,387.4898 L476.7813,387.4898 L475.6094,382.4117 Z M474.125,380.1773 L477.1094,380.1773 L480.4688,392.5679 L478.0156,392.5679 L477.25,389.5054 L473.9688,389.5054 L473.2188,392.5679 L470.7813,392.5679 L474.125,380.1773 Z " fill="#000000"/><text fill="#000000" font-family="sans-serif" font-size="14" font-style="italic" lengthAdjust="spacing" textLength="159" x="489.5" y="392.4999">organization-model-node</text><line style="stroke:#181818;stroke-width:0.5;" x1="461.5" x2="650.5" y1="403.0679" y2="403.0679"/><line style="stroke:#181818;stroke-width:0.5;" x1="461.5" x2="650.5" y1="411.0679" y2="411.0679"/></g><!--reverse link overarch_dataModel_element to overarch_dataModel_modelElement--><g id="link_overarch_dataModel_element_overarch_dataModel_modelElement"><path codeLine="21" d="M377,113.0679 C377,130.7279 377,137.0079 377,154.7479 " fill="none" id="overarch_dataModel_element-backto-overarch_dataModel_modelElement" style="stroke:#181818;stroke-width:1.0;"/><polygon fill="none" points="377,95.0679,371,113.0679,383,113.0679,377,95.0679" style="stroke:#181818;stroke-width:1.0;"/></g><!--reverse link overarch_dataModel_modelElement to overarch_dataModel_modelNode--><g id="link_overarch_dataModel_modelElement_overarch_dataModel_modelNode"><path codeLine="22" d="M434.6566,211.7338 C466.9166,229.4538 495.55,245.1779 527.87,262.9279 " fill="none" id="overarch_dataModel_modelElement-backto-overarch_dataModel_modelNode" style="stroke:#181818;stroke-width:1.0;"/><polygon fill="none" points="418.88,203.0679,431.768,216.9927,437.5453,206.4749,418.88,203.0679" style="stroke:#181818;stroke-width:1.0;"/></g><!--reverse link overarch_dataModel_modelRelation to overarch_dataModel_organizationModelRelation--><g id="link_overarch_dataModel_modelRelation_overarch_dataModel_organizationModelRelation"><path codeLine="23" d="M193.8859,327.1091 C202.8759,344.7691 207.08,353.0079 216.12,370.7479 " fill="none" id="overarch_dataModel_modelRelation-backto-overarch_dataModel_organizationModelRelation" style="stroke:#181818;stroke-width:1.0;"/><polygon fill="none" points="185.72,311.0679,188.5389,329.831,199.2329,324.3871,185.72,311.0679" style="stroke:#181818;stroke-width:1.0;"/></g><!--reverse link overarch_dataModel_organizationModelElement to overarch_dataModel_organizationModelNode--><g id="link_overarch_dataModel_organizationModelElement_overarch_dataModel_organizationModelNode"><path codeLine="24" d="M431.3276,320.2404 C461.2476,337.9604 486.95,353.1779 516.93,370.9279 " fill="none" id="overarch_dataModel_organizationModelElement-backto-overarch_dataModel_organizationModelNode" style="stroke:#181818;stroke-width:1.0;"/><polygon fill="none" points="415.84,311.0679,428.2701,325.4029,434.3851,315.0779,415.84,311.0679" style="stroke:#181818;stroke-width:1.0;"/></g><!--reverse link overarch_dataModel_organizationModelRelation to overarch_dataModel_collaboratesWith--><g id="link_overarch_dataModel_organizationModelRelation_overarch_dataModel_collaboratesWith"><path codeLine="25" d="M181.5007,429.597 C156.9307,447.317 137.71,461.1779 113.09,478.9279 " fill="none" id="overarch_dataModel_organizationModelRelation-backto-overarch_dataModel_collaboratesWith" style="stroke:#181818;stroke-width:1.0;"/><polygon fill="none" points="196.1,419.0679,177.991,424.7306,185.0104,434.4634,196.1,419.0679" style="stroke:#181818;stroke-width:1.0;"/></g><!--reverse link overarch_dataModel_modelElement to overarch_dataModel_modelRelation--><g id="link_overarch_dataModel_modelElement_overarch_dataModel_modelRelation"><path codeLine="26" d="M316.9948,211.4005 C283.0648,229.1205 252.31,245.1779 218.31,262.9279 " fill="none" id="overarch_dataModel_modelElement-backto-overarch_dataModel_modelRelation" style="stroke:#181818;stroke-width:1.0;"/><polygon fill="none" points="332.95,203.0679,314.2173,206.0821,319.7724,216.7189,332.95,203.0679" style="stroke:#181818;stroke-width:1.0;"/></g><!--reverse link overarch_dataModel_organizationModelElement to overarch_dataModel_organizationModelRelation--><g id="link_overarch_dataModel_organizationModelElement_overarch_dataModel_organizationModelRelation"><path codeLine="27" d="M330.0025,321.5018 C305.0925,339.2218 285.48,353.1779 260.52,370.9279 " fill="none" id="overarch_dataModel_organizationModelElement-backto-overarch_dataModel_organizationModelRelation" style="stroke:#181818;stroke-width:1.0;"/><polygon fill="none" points="344.67,311.0679,326.5246,316.6126,333.4805,326.3909,344.67,311.0679" style="stroke:#181818;stroke-width:1.0;"/></g><!--reverse link overarch_dataModel_modelElement to overarch_dataModel_organizationModelElement--><g id="link_overarch_dataModel_modelElement_overarch_dataModel_organizationModelElement"><path codeLine="28" d="M377,221.0679 C377,238.7279 377,245.0079 377,262.7479 " fill="none" id="overarch_dataModel_modelElement-backto-overarch_dataModel_organizationModelElement" style="stroke:#181818;stroke-width:1.0;"/><polygon fill="none" points="377,203.0679,371,221.0679,383,221.0679,377,203.0679" style="stroke:#181818;stroke-width:1.0;"/></g><!--reverse link overarch_dataModel_organizationModelNode to overarch_dataModel_orgUnit--><g id="link_overarch_dataModel_organizationModelNode_overarch_dataModel_orgUnit"><path codeLine="29" d="M550.6055,436.9133 C548.2755,454.5733 547.42,461.0079 545.08,478.7479 " fill="none" id="overarch_dataModel_organizationModelNode-backto-overarch_dataModel_orgUnit" style="stroke:#181818;stroke-width:1.0;"/><polygon fill="none" points="552.96,419.0679,544.6571,436.1284,556.554,437.6981,552.96,419.0679" style="stroke:#181818;stroke-width:1.0;"/></g><!--reverse link overarch_dataModel_organizationModelRelation to overarch_dataModel_responsibleFor--><g id="link_overarch_dataModel_organizationModelRelation_overarch_dataModel_responsibleFor"><path codeLine="30" d="M272.9775,429.8846 C296.4675,447.5446 314.38,461.0079 337.98,478.7479 " fill="none" id="overarch_dataModel_organizationModelRelation-backto-overarch_dataModel_responsibleFor" style="stroke:#181818;stroke-width:1.0;"/><polygon fill="none" points="258.59,419.0679,269.3719,434.6804,276.583,425.0887,258.59,419.0679" style="stroke:#181818;stroke-width:1.0;"/></g><!--reverse link overarch_dataModel_organizationModelRelation to overarch_dataModel_roleIn--><g id="link_overarch_dataModel_organizationModelRelation_overarch_dataModel_roleIn"><path codeLine="31" d="M228,437.0679 C228,454.7279 228,461.0079 228,478.7479 " fill="none" id="overarch_dataModel_organizationModelRelation-backto-overarch_dataModel_roleIn" style="stroke:#181818;stroke-width:1.0;"/><polygon fill="none" points="228,419.0679,222,437.0679,234,437.0679,228,419.0679" style="stroke:#181818;stroke-width:1.0;"/></g><!--reverse link overarch_dataModel_modelNode to overarch_dataModel_organizationModelNode--><g id="link_overarch_dataModel_modelNode_overarch_dataModel_organizationModelNode"><path codeLine="32" d="M564.6055,328.9133 C562.2755,346.5733 561.42,353.0079 559.08,370.7479 " fill="none" id="overarch_dataModel_modelNode-backto-overarch_dataModel_organizationModelNode" style="stroke:#181818;stroke-width:1.0;"/><polygon fill="none" points="566.96,311.0679,558.6571,328.1284,570.554,329.6981,566.96,311.0679" style="stroke:#181818;stroke-width:1.0;"/></g><!--reverse link overarch_dataModel_organizationModelNode to overarch_dataModel_organization--><g id="link_overarch_dataModel_organizationModelNode_overarch_dataModel_organization"><path codeLine="33" d="M596.3246,430.8194 C616.8146,448.4794 631.36,461.0079 651.94,478.7479 " fill="none" id="overarch_dataModel_organizationModelNode-backto-overarch_dataModel_organization" style="stroke:#181818;stroke-width:1.0;"/><polygon fill="none" points="582.69,419.0679,592.4075,435.3643,600.2418,426.2745,582.69,419.0679" style="stroke:#181818;stroke-width:1.0;"/></g><!--SRC=[jPHBJyGW483l_0goT_w1rpNne2OcnkDcsaMNX8S1rCJ7VnVOQjcs0wZrGjBEp3VlyS9BJg_j0sZn2buOJI_DdakwbLnnxHqXq3bleVUqb-0StV2ZP4F1KVFCBTZ-iDk3XsIu6yJqxMDcQJ8tJ4LjPhbCdnWjDqb_RWQ3o1-nx4aBNs3S1d5ZH9NqPW5jntm7Q6-aXCvOyDon5-4F62jNl0jw6SCQoPb0onB55tefesCIEhoORTAu2a_kZhj7evteWjTxOr6tezgviQSj-AvAI-Nmo6i3eQP3i8ofT55DEjSm5wMIpeRYgxo5_JXxPwmM6gc5NeJ484YrX1W2tJpoawrefcF1uWS0Gq-twcz5_D-iItJrAs9XSfQdj42ELtETdfmUZfMOwGQIueLRV_oQiPy0]--></g></svg>