<?xml version="1.0" encoding="us-ascii" standalone="no"?><svg xmlns="http://www.w3.org/2000/svg" xmlns:xlink="http://www.w3.org/1999/xlink" contentStyleType="text/css" height="690px" preserveAspectRatio="none" style="width:621px;height:690px;background:#FFFFFF;" version="1.1" viewBox="0 0 621 690" width="621px" zoomAndPan="magnify"><defs/><g><text fill="#000000" font-family="sans-serif" font-size="14" font-weight="bold" lengthAdjust="spacing" textLength="206" x="200.75" y="24.5332">Organization Model Elements</text><!--class overarch_dataModel_element--><g id="elem_overarch_dataModel_element"><rect codeLine="9" fill="#F1F1F1" height="136.0469" id="overarch_dataModel_element" rx="2.5" ry="2.5" style="stroke:#181818;stroke-width:0.5;" width="125" x="257.5" y="45.6094"/><ellipse cx="291.85" cy="61.6094" fill="#A9DCDF" rx="11" ry="11" style="stroke:#181818;stroke-width:1.0;"/><path d="M294.0375,63.375 L289.8969,63.375 L289.475,64.4063 L289.8969,64.4063 Q290.5063,64.4063 290.7719,64.6406 Q291.0375,64.875 291.0375,65.2656 Q291.0375,65.6406 290.7719,65.875 Q290.5063,66.1094 289.8969,66.1094 L287.6,66.1094 Q286.9906,66.1094 286.7406,65.875 Q286.475,65.6406 286.475,65.25 Q286.475,64.875 286.7563,64.6406 Q287.0219,64.3906 287.6469,64.4063 L290.3188,57.75 L289.2094,57.75 Q288.6,57.75 288.3344,57.5156 Q288.0688,57.2813 288.0688,56.8906 Q288.0688,56.5156 288.3344,56.2813 Q288.6,56.0469 289.2094,56.0469 L292.8813,56.0469 L296.2719,64.4063 Q296.8656,64.4063 297.0531,64.5469 Q297.4438,64.8125 297.4438,65.2656 Q297.4438,65.6406 297.1781,65.875 Q296.9281,66.1094 296.3188,66.1094 L294.0219,66.1094 Q293.4125,66.1094 293.1469,65.875 Q292.8813,65.6406 292.8813,65.25 Q292.8813,64.875 293.1469,64.6406 Q293.4125,64.4063 294.0219,64.4063 L294.4438,64.4063 L294.0375,63.375 Z M293.3188,61.6719 L291.9594,58.2969 L290.5844,61.6719 L293.3188,61.6719 Z " fill="#000000"/><text fill="#000000" font-family="sans-serif" font-size="14" font-style="italic" lengthAdjust="spacing" textLength="50" x="310.15" y="67.3379">element</text><line style="stroke:#181818;stroke-width:0.5;" x1="258.5" x2="381.5" y1="77.6094" y2="77.6094"/><text fill="#000000" font-family="sans-serif" font-size="14" lengthAdjust="spacing" textLength="113" x="263.5" y="96.1426">desc : string [0..1]</text><text fill="#000000" font-family="sans-serif" font-size="14" lengthAdjust="spacing" textLength="106" x="263.5" y="113.752">doc : string [0..1]</text><text fill="#000000" font-family="sans-serif" font-size="14" lengthAdjust="spacing" textLength="75" x="263.5" y="131.3613">el : keyword</text><text fill="#000000" font-family="sans-serif" font-size="14" lengthAdjust="spacing" textLength="75" x="263.5" y="148.9707">id : keyword</text><text fill="#000000" font-family="sans-serif" font-size="14" lengthAdjust="spacing" textLength="82" x="263.5" y="166.5801">name : string</text><line style="stroke:#181818;stroke-width:0.5;" x1="258.5" x2="381.5" y1="173.6563" y2="173.6563"/></g><!--class overarch_dataModel_organizationModelRelation--><g id="elem_overarch_dataModel_organizationModelRelation"><rect codeLine="16" fill="#F1F1F1" height="48" id="overarch_dataModel_organizationModelRelation" rx="2.5" ry="2.5" style="stroke:#181818;stroke-width:0.5;" width="205" x="97.5" y="527.6094"/><ellipse cx="112.5" cy="543.6094" fill="#A9DCDF" rx="11" ry="11" style="stroke:#181818;stroke-width:1.0;"/><path d="M114.6875,545.375 L110.5469,545.375 L110.125,546.4063 L110.5469,546.4063 Q111.1563,546.4063 111.4219,546.6406 Q111.6875,546.875 111.6875,547.2656 Q111.6875,547.6406 111.4219,547.875 Q111.1563,548.1094 110.5469,548.1094 L108.25,548.1094 Q107.6406,548.1094 107.3906,547.875 Q107.125,547.6406 107.125,547.25 Q107.125,546.875 107.4063,546.6406 Q107.6719,546.3906 108.2969,546.4063 L110.9688,539.75 L109.8594,539.75 Q109.25,539.75 108.9844,539.5156 Q108.7188,539.2813 108.7188,538.8906 Q108.7188,538.5156 108.9844,538.2813 Q109.25,538.0469 109.8594,538.0469 L113.5313,538.0469 L116.9219,546.4063 Q117.5156,546.4063 117.7031,546.5469 Q118.0938,546.8125 118.0938,547.2656 Q118.0938,547.6406 117.8281,547.875 Q117.5781,548.1094 116.9688,548.1094 L114.6719,548.1094 Q114.0625,548.1094 113.7969,547.875 Q113.5313,547.6406 113.5313,547.25 Q113.5313,546.875 113.7969,546.6406 Q114.0625,546.4063 114.6719,546.4063 L115.0938,546.4063 L114.6875,545.375 Z M113.9688,543.6719 L112.6094,540.2969 L111.2344,543.6719 L113.9688,543.6719 Z " fill="#000000"/><text fill="#000000" font-family="sans-serif" font-size="14" font-style="italic" lengthAdjust="spacing" textLength="173" x="126.5" y="549.3379">organization-model-relation</text><line style="stroke:#181818;stroke-width:0.5;" x1="98.5" x2="301.5" y1="559.6094" y2="559.6094"/><line style="stroke:#181818;stroke-width:0.5;" x1="98.5" x2="301.5" y1="567.6094" y2="567.6094"/></g><!--class overarch_dataModel_orgUnit--><g id="elem_overarch_dataModel_orgUnit"><rect codeLine="17" fill="#F1F1F1" height="48" id="overarch_dataModel_orgUnit" rx="2.5" ry="2.5" style="stroke:#181818;stroke-width:0.5;" width="81" x="389.5" y="635.6094"/><ellipse cx="404.5" cy="651.6094" fill="#ADD1B2" rx="11" ry="11" style="stroke:#181818;stroke-width:1.0;"/><path d="M407.2656,647.4844 Q407.4219,647.2656 407.6094,647.1563 Q407.7969,647.0469 408.0156,647.0469 Q408.3906,647.0469 408.625,647.3125 Q408.8594,647.5625 408.8594,648.1719 L408.8594,649.625 Q408.8594,650.2344 408.625,650.5 Q408.3906,650.7656 408.0156,650.7656 Q407.6719,650.7656 407.4688,650.5625 Q407.2656,650.375 407.1563,649.8594 Q407.1094,649.5 406.9219,649.3125 Q406.5938,648.9375 405.9844,648.7188 Q405.375,648.5 404.75,648.5 Q403.9844,648.5 403.3438,648.8281 Q402.7188,649.1563 402.2188,649.9063 Q401.7344,650.6563 401.7344,651.6875 L401.7344,652.7813 Q401.7344,654.0156 402.625,654.8438 Q403.5156,655.6563 405.1094,655.6563 Q406.0469,655.6563 406.7031,655.4063 Q407.0938,655.25 407.5156,654.8125 Q407.7813,654.5469 407.9219,654.4688 Q408.0781,654.3906 408.2813,654.3906 Q408.6094,654.3906 408.8594,654.6563 Q409.125,654.9063 409.125,655.25 Q409.125,655.5938 408.7813,656 Q408.2813,656.5781 407.4844,656.9063 Q406.4063,657.3594 405.1094,657.3594 Q403.5938,657.3594 402.3906,656.7344 Q401.4063,656.2344 400.7188,655.1719 Q400.0313,654.0938 400.0313,652.8125 L400.0313,651.6563 Q400.0313,650.3281 400.6406,649.1875 Q401.2656,648.0313 402.3594,647.4219 Q403.4531,646.7969 404.6875,646.7969 Q405.4219,646.7969 406.0625,646.9688 Q406.7188,647.125 407.2656,647.4844 Z " fill="#000000"/><text fill="#000000" font-family="sans-serif" font-size="14" lengthAdjust="spacing" textLength="49" x="418.5" y="657.3379">org-unit</text><line style="stroke:#181818;stroke-width:0.5;" x1="390.5" x2="469.5" y1="667.6094" y2="667.6094"/><line style="stroke:#181818;stroke-width:0.5;" x1="390.5" x2="469.5" y1="675.6094" y2="675.6094"/></g><!--class overarch_dataModel_organizationModelElement--><g id="elem_overarch_dataModel_organizationModelElement"><rect codeLine="18" fill="#F1F1F1" height="48" id="overarch_dataModel_organizationModelElement" rx="2.5" ry="2.5" style="stroke:#181818;stroke-width:0.5;" width="208" x="216" y="402.1094"/><ellipse cx="231" cy="418.1094" fill="#A9DCDF" rx="11" ry="11" style="stroke:#181818;stroke-width:1.0;"/><path d="M233.1875,419.875 L229.0469,419.875 L228.625,420.9063 L229.0469,420.9063 Q229.6563,420.9063 229.9219,421.1406 Q230.1875,421.375 230.1875,421.7656 Q230.1875,422.1406 229.9219,422.375 Q229.6563,422.6094 229.0469,422.6094 L226.75,422.6094 Q226.1406,422.6094 225.8906,422.375 Q225.625,422.1406 225.625,421.75 Q225.625,421.375 225.9063,421.1406 Q226.1719,420.8906 226.7969,420.9063 L229.4688,414.25 L228.3594,414.25 Q227.75,414.25 227.4844,414.0156 Q227.2188,413.7813 227.2188,413.3906 Q227.2188,413.0156 227.4844,412.7813 Q227.75,412.5469 228.3594,412.5469 L232.0313,412.5469 L235.4219,420.9063 Q236.0156,420.9063 236.2031,421.0469 Q236.5938,421.3125 236.5938,421.7656 Q236.5938,422.1406 236.3281,422.375 Q236.0781,422.6094 235.4688,422.6094 L233.1719,422.6094 Q232.5625,422.6094 232.2969,422.375 Q232.0313,422.1406 232.0313,421.75 Q232.0313,421.375 232.2969,421.1406 Q232.5625,420.9063 233.1719,420.9063 L233.5938,420.9063 L233.1875,419.875 Z M232.4688,418.1719 L231.1094,414.7969 L229.7344,418.1719 L232.4688,418.1719 Z " fill="#000000"/><text fill="#000000" font-family="sans-serif" font-size="14" font-style="italic" lengthAdjust="spacing" textLength="176" x="245" y="423.8379">organization-model-element</text><line style="stroke:#181818;stroke-width:0.5;" x1="217" x2="423" y1="434.1094" y2="434.1094"/><line style="stroke:#181818;stroke-width:0.5;" x1="217" x2="423" y1="442.1094" y2="442.1094"/></g><!--class overarch_dataModel_collaboratesWith--><g id="elem_overarch_dataModel_collaboratesWith"><rect codeLine="19" fill="#F1F1F1" height="48" id="overarch_dataModel_collaboratesWith" rx="2.5" ry="2.5" style="stroke:#181818;stroke-width:0.5;" width="138" x="7" y="635.6094"/><ellipse cx="22" cy="651.6094" fill="#ADD1B2" rx="11" ry="11" style="stroke:#181818;stroke-width:1.0;"/><path d="M24.7656,647.4844 Q24.9219,647.2656 25.1094,647.1563 Q25.2969,647.0469 25.5156,647.0469 Q25.8906,647.0469 26.125,647.3125 Q26.3594,647.5625 26.3594,648.1719 L26.3594,649.625 Q26.3594,650.2344 26.125,650.5 Q25.8906,650.7656 25.5156,650.7656 Q25.1719,650.7656 24.9688,650.5625 Q24.7656,650.375 24.6563,649.8594 Q24.6094,649.5 24.4219,649.3125 Q24.0938,648.9375 23.4844,648.7188 Q22.875,648.5 22.25,648.5 Q21.4844,648.5 20.8438,648.8281 Q20.2188,649.1563 19.7188,649.9063 Q19.2344,650.6563 19.2344,651.6875 L19.2344,652.7813 Q19.2344,654.0156 20.125,654.8438 Q21.0156,655.6563 22.6094,655.6563 Q23.5469,655.6563 24.2031,655.4063 Q24.5938,655.25 25.0156,654.8125 Q25.2813,654.5469 25.4219,654.4688 Q25.5781,654.3906 25.7813,654.3906 Q26.1094,654.3906 26.3594,654.6563 Q26.625,654.9063 26.625,655.25 Q26.625,655.5938 26.2813,656 Q25.7813,656.5781 24.9844,656.9063 Q23.9063,657.3594 22.6094,657.3594 Q21.0938,657.3594 19.8906,656.7344 Q18.9063,656.2344 18.2188,655.1719 Q17.5313,654.0938 17.5313,652.8125 L17.5313,651.6563 Q17.5313,650.3281 18.1406,649.1875 Q18.7656,648.0313 19.8594,647.4219 Q20.9531,646.7969 22.1875,646.7969 Q22.9219,646.7969 23.5625,646.9688 Q24.2188,647.125 24.7656,647.4844 Z " fill="#000000"/><text fill="#000000" font-family="sans-serif" font-size="14" lengthAdjust="spacing" textLength="106" x="36" y="657.3379">collaborates-with</text><line style="stroke:#181818;stroke-width:0.5;" x1="8" x2="144" y1="667.6094" y2="667.6094"/><line style="stroke:#181818;stroke-width:0.5;" x1="8" x2="144" y1="675.6094" y2="675.6094"/></g><!--class overarch_dataModel_modelNode--><g id="elem_overarch_dataModel_modelNode"><rect codeLine="20" fill="#F1F1F1" height="48" id="overarch_dataModel_modelNode" rx="2.5" ry="2.5" style="stroke:#181818;stroke-width:0.5;" width="107" x="459.5" y="402.1094"/><ellipse cx="474.5" cy="418.1094" fill="#A9DCDF" rx="11" ry="11" style="stroke:#181818;stroke-width:1.0;"/><path d="M476.6875,419.875 L472.5469,419.875 L472.125,420.9063 L472.5469,420.9063 Q473.1563,420.9063 473.4219,421.1406 Q473.6875,421.375 473.6875,421.7656 Q473.6875,422.1406 473.4219,422.375 Q473.1563,422.6094 472.5469,422.6094 L470.25,422.6094 Q469.6406,422.6094 469.3906,422.375 Q469.125,422.1406 469.125,421.75 Q469.125,421.375 469.4063,421.1406 Q469.6719,420.8906 470.2969,420.9063 L472.9688,414.25 L471.8594,414.25 Q471.25,414.25 470.9844,414.0156 Q470.7188,413.7813 470.7188,413.3906 Q470.7188,413.0156 470.9844,412.7813 Q471.25,412.5469 471.8594,412.5469 L475.5313,412.5469 L478.9219,420.9063 Q479.5156,420.9063 479.7031,421.0469 Q480.0938,421.3125 480.0938,421.7656 Q480.0938,422.1406 479.8281,422.375 Q479.5781,422.6094 478.9688,422.6094 L476.6719,422.6094 Q476.0625,422.6094 475.7969,422.375 Q475.5313,422.1406 475.5313,421.75 Q475.5313,421.375 475.7969,421.1406 Q476.0625,420.9063 476.6719,420.9063 L477.0938,420.9063 L476.6875,419.875 Z M475.9688,418.1719 L474.6094,414.7969 L473.2344,418.1719 L475.9688,418.1719 Z " fill="#000000"/><text fill="#000000" font-family="sans-serif" font-size="14" font-style="italic" lengthAdjust="spacing" textLength="75" x="488.5" y="423.8379">model-node</text><line style="stroke:#181818;stroke-width:0.5;" x1="460.5" x2="565.5" y1="434.1094" y2="434.1094"/><line style="stroke:#181818;stroke-width:0.5;" x1="460.5" x2="565.5" y1="442.1094" y2="442.1094"/></g><!--class overarch_dataModel_responsibleFor--><g id="elem_overarch_dataModel_responsibleFor"><rect codeLine="21" fill="#F1F1F1" height="48" id="overarch_dataModel_responsibleFor" rx="2.5" ry="2.5" style="stroke:#181818;stroke-width:0.5;" width="127" x="180.5" y="635.6094"/><ellipse cx="195.5" cy="651.6094" fill="#ADD1B2" rx="11" ry="11" style="stroke:#181818;stroke-width:1.0;"/><path d="M198.2656,647.4844 Q198.4219,647.2656 198.6094,647.1563 Q198.7969,647.0469 199.0156,647.0469 Q199.3906,647.0469 199.625,647.3125 Q199.8594,647.5625 199.8594,648.1719 L199.8594,649.625 Q199.8594,650.2344 199.625,650.5 Q199.3906,650.7656 199.0156,650.7656 Q198.6719,650.7656 198.4688,650.5625 Q198.2656,650.375 198.1563,649.8594 Q198.1094,649.5 197.9219,649.3125 Q197.5938,648.9375 196.9844,648.7188 Q196.375,648.5 195.75,648.5 Q194.9844,648.5 194.3438,648.8281 Q193.7188,649.1563 193.2188,649.9063 Q192.7344,650.6563 192.7344,651.6875 L192.7344,652.7813 Q192.7344,654.0156 193.625,654.8438 Q194.5156,655.6563 196.1094,655.6563 Q197.0469,655.6563 197.7031,655.4063 Q198.0938,655.25 198.5156,654.8125 Q198.7813,654.5469 198.9219,654.4688 Q199.0781,654.3906 199.2813,654.3906 Q199.6094,654.3906 199.8594,654.6563 Q200.125,654.9063 200.125,655.25 Q200.125,655.5938 199.7813,656 Q199.2813,656.5781 198.4844,656.9063 Q197.4063,657.3594 196.1094,657.3594 Q194.5938,657.3594 193.3906,656.7344 Q192.4063,656.2344 191.7188,655.1719 Q191.0313,654.0938 191.0313,652.8125 L191.0313,651.6563 Q191.0313,650.3281 191.6406,649.1875 Q192.2656,648.0313 193.3594,647.4219 Q194.4531,646.7969 195.6875,646.7969 Q196.4219,646.7969 197.0625,646.9688 Q197.7188,647.125 198.2656,647.4844 Z " fill="#000000"/><text fill="#000000" font-family="sans-serif" font-size="14" lengthAdjust="spacing" textLength="95" x="209.5" y="657.3379">responsible-for</text><line style="stroke:#181818;stroke-width:0.5;" x1="181.5" x2="306.5" y1="667.6094" y2="667.6094"/><line style="stroke:#181818;stroke-width:0.5;" x1="181.5" x2="306.5" y1="675.6094" y2="675.6094"/></g><!--class overarch_dataModel_organization--><g id="elem_overarch_dataModel_organization"><rect codeLine="22" fill="#F1F1F1" height="48" id="overarch_dataModel_organization" rx="2.5" ry="2.5" style="stroke:#181818;stroke-width:0.5;" width="109" x="505.5" y="635.6094"/><ellipse cx="520.5" cy="651.6094" fill="#ADD1B2" rx="11" ry="11" style="stroke:#181818;stroke-width:1.0;"/><path d="M523.2656,647.4844 Q523.4219,647.2656 523.6094,647.1563 Q523.7969,647.0469 524.0156,647.0469 Q524.3906,647.0469 524.625,647.3125 Q524.8594,647.5625 524.8594,648.1719 L524.8594,649.625 Q524.8594,650.2344 524.625,650.5 Q524.3906,650.7656 524.0156,650.7656 Q523.6719,650.7656 523.4688,650.5625 Q523.2656,650.375 523.1563,649.8594 Q523.1094,649.5 522.9219,649.3125 Q522.5938,648.9375 521.9844,648.7188 Q521.375,648.5 520.75,648.5 Q519.9844,648.5 519.3438,648.8281 Q518.7188,649.1563 518.2188,649.9063 Q517.7344,650.6563 517.7344,651.6875 L517.7344,652.7813 Q517.7344,654.0156 518.625,654.8438 Q519.5156,655.6563 521.1094,655.6563 Q522.0469,655.6563 522.7031,655.4063 Q523.0938,655.25 523.5156,654.8125 Q523.7813,654.5469 523.9219,654.4688 Q524.0781,654.3906 524.2813,654.3906 Q524.6094,654.3906 524.8594,654.6563 Q525.125,654.9063 525.125,655.25 Q525.125,655.5938 524.7813,656 Q524.2813,656.5781 523.4844,656.9063 Q522.4063,657.3594 521.1094,657.3594 Q519.5938,657.3594 518.3906,656.7344 Q517.4063,656.2344 516.7188,655.1719 Q516.0313,654.0938 516.0313,652.8125 L516.0313,651.6563 Q516.0313,650.3281 516.6406,649.1875 Q517.2656,648.0313 518.3594,647.4219 Q519.4531,646.7969 520.6875,646.7969 Q521.4219,646.7969 522.0625,646.9688 Q522.7188,647.125 523.2656,647.4844 Z " fill="#000000"/><text fill="#000000" font-family="sans-serif" font-size="14" lengthAdjust="spacing" textLength="77" x="534.5" y="657.3379">organization</text><line style="stroke:#181818;stroke-width:0.5;" x1="506.5" x2="613.5" y1="667.6094" y2="667.6094"/><line style="stroke:#181818;stroke-width:0.5;" x1="506.5" x2="613.5" y1="675.6094" y2="675.6094"/></g><!--class overarch_dataModel_modelRelation--><g id="elem_overarch_dataModel_modelRelation"><rect codeLine="23" fill="#F1F1F1" height="83.2188" id="overarch_dataModel_modelRelation" rx="2.5" ry="2.5" style="stroke:#181818;stroke-width:0.5;" width="122" x="59" y="384.6094"/><ellipse cx="74" cy="400.6094" fill="#A9DCDF" rx="11" ry="11" style="stroke:#181818;stroke-width:1.0;"/><path d="M76.1875,402.375 L72.0469,402.375 L71.625,403.4063 L72.0469,403.4063 Q72.6563,403.4063 72.9219,403.6406 Q73.1875,403.875 73.1875,404.2656 Q73.1875,404.6406 72.9219,404.875 Q72.6563,405.1094 72.0469,405.1094 L69.75,405.1094 Q69.1406,405.1094 68.8906,404.875 Q68.625,404.6406 68.625,404.25 Q68.625,403.875 68.9063,403.6406 Q69.1719,403.3906 69.7969,403.4063 L72.4688,396.75 L71.3594,396.75 Q70.75,396.75 70.4844,396.5156 Q70.2188,396.2813 70.2188,395.8906 Q70.2188,395.5156 70.4844,395.2813 Q70.75,395.0469 71.3594,395.0469 L75.0313,395.0469 L78.4219,403.4063 Q79.0156,403.4063 79.2031,403.5469 Q79.5938,403.8125 79.5938,404.2656 Q79.5938,404.6406 79.3281,404.875 Q79.0781,405.1094 78.4688,405.1094 L76.1719,405.1094 Q75.5625,405.1094 75.2969,404.875 Q75.0313,404.6406 75.0313,404.25 Q75.0313,403.875 75.2969,403.6406 Q75.5625,403.4063 76.1719,403.4063 L76.5938,403.4063 L76.1875,402.375 Z M75.4688,400.6719 L74.1094,397.2969 L72.7344,400.6719 L75.4688,400.6719 Z " fill="#000000"/><text fill="#000000" font-family="sans-serif" font-size="14" font-style="italic" lengthAdjust="spacing" textLength="90" x="88" y="406.3379">model-relation</text><line style="stroke:#181818;stroke-width:0.5;" x1="60" x2="180" y1="416.6094" y2="416.6094"/><text fill="#000000" font-family="sans-serif" font-size="14" lengthAdjust="spacing" textLength="92" x="65" y="435.1426">from : keyword</text><text fill="#000000" font-family="sans-serif" font-size="14" lengthAdjust="spacing" textLength="76" x="65" y="452.752">to : keyword</text><line style="stroke:#181818;stroke-width:0.5;" x1="60" x2="180" y1="459.8281" y2="459.8281"/></g><!--class overarch_dataModel_modelElement--><g id="elem_overarch_dataModel_modelElement"><rect codeLine="27" fill="#F1F1F1" height="83.2188" id="overarch_dataModel_modelElement" rx="2.5" ry="2.5" style="stroke:#181818;stroke-width:0.5;" width="162" x="239" y="241.6094"/><ellipse cx="270.65" cy="257.6094" fill="#A9DCDF" rx="11" ry="11" style="stroke:#181818;stroke-width:1.0;"/><path d="M272.8375,259.375 L268.6969,259.375 L268.275,260.4063 L268.6969,260.4063 Q269.3063,260.4063 269.5719,260.6406 Q269.8375,260.875 269.8375,261.2656 Q269.8375,261.6406 269.5719,261.875 Q269.3063,262.1094 268.6969,262.1094 L266.4,262.1094 Q265.7906,262.1094 265.5406,261.875 Q265.275,261.6406 265.275,261.25 Q265.275,260.875 265.5563,260.6406 Q265.8219,260.3906 266.4469,260.4063 L269.1188,253.75 L268.0094,253.75 Q267.4,253.75 267.1344,253.5156 Q266.8688,253.2813 266.8688,252.8906 Q266.8688,252.5156 267.1344,252.2813 Q267.4,252.0469 268.0094,252.0469 L271.6813,252.0469 L275.0719,260.4063 Q275.6656,260.4063 275.8531,260.5469 Q276.2438,260.8125 276.2438,261.2656 Q276.2438,261.6406 275.9781,261.875 Q275.7281,262.1094 275.1188,262.1094 L272.8219,262.1094 Q272.2125,262.1094 271.9469,261.875 Q271.6813,261.6406 271.6813,261.25 Q271.6813,260.875 271.9469,260.6406 Q272.2125,260.4063 272.8219,260.4063 L273.2438,260.4063 L272.8375,259.375 Z M272.1188,257.6719 L270.7594,254.2969 L269.3844,257.6719 L272.1188,257.6719 Z " fill="#000000"/><text fill="#000000" font-family="sans-serif" font-size="14" font-style="italic" lengthAdjust="spacing" textLength="93" x="288.35" y="263.3379">model-element</text><line style="stroke:#181818;stroke-width:0.5;" x1="240" x2="400" y1="273.6094" y2="273.6094"/><text fill="#000000" font-family="sans-serif" font-size="14" lengthAdjust="spacing" textLength="150" x="245" y="292.1426">maturity : keyword [0..1]</text><text fill="#000000" font-family="sans-serif" font-size="14" lengthAdjust="spacing" textLength="94" x="245" y="309.752">tags : set [0..1]</text><line style="stroke:#181818;stroke-width:0.5;" x1="240" x2="400" y1="316.8281" y2="316.8281"/></g><!--class overarch_dataModel_organizationModelNode--><g id="elem_overarch_dataModel_organizationModelNode"><rect codeLine="31" fill="#F1F1F1" height="48" id="overarch_dataModel_organizationModelNode" rx="2.5" ry="2.5" style="stroke:#181818;stroke-width:0.5;" width="190" x="378" y="527.6094"/><ellipse cx="393" cy="543.6094" fill="#A9DCDF" rx="11" ry="11" style="stroke:#181818;stroke-width:1.0;"/><path d="M395.1875,545.375 L391.0469,545.375 L390.625,546.4063 L391.0469,546.4063 Q391.6563,546.4063 391.9219,546.6406 Q392.1875,546.875 392.1875,547.2656 Q392.1875,547.6406 391.9219,547.875 Q391.6563,548.1094 391.0469,548.1094 L388.75,548.1094 Q388.1406,548.1094 387.8906,547.875 Q387.625,547.6406 387.625,547.25 Q387.625,546.875 387.9063,546.6406 Q388.1719,546.3906 388.7969,546.4063 L391.4688,539.75 L390.3594,539.75 Q389.75,539.75 389.4844,539.5156 Q389.2188,539.2813 389.2188,538.8906 Q389.2188,538.5156 389.4844,538.2813 Q389.75,538.0469 390.3594,538.0469 L394.0313,538.0469 L397.4219,546.4063 Q398.0156,546.4063 398.2031,546.5469 Q398.5938,546.8125 398.5938,547.2656 Q398.5938,547.6406 398.3281,547.875 Q398.0781,548.1094 397.4688,548.1094 L395.1719,548.1094 Q394.5625,548.1094 394.2969,547.875 Q394.0313,547.6406 394.0313,547.25 Q394.0313,546.875 394.2969,546.6406 Q394.5625,546.4063 395.1719,546.4063 L395.5938,546.4063 L395.1875,545.375 Z M394.4688,543.6719 L393.1094,540.2969 L391.7344,543.6719 L394.4688,543.6719 Z " fill="#000000"/><text fill="#000000" font-family="sans-serif" font-size="14" font-style="italic" lengthAdjust="spacing" textLength="158" x="407" y="549.3379">organization-model-node</text><line style="stroke:#181818;stroke-width:0.5;" x1="379" x2="567" y1="559.6094" y2="559.6094"/><line style="stroke:#181818;stroke-width:0.5;" x1="379" x2="567" y1="567.6094" y2="567.6094"/></g><!--reverse link overarch_dataModel_element to overarch_dataModel_modelElement--><g id="link_overarch_dataModel_element_overarch_dataModel_modelElement"><path codeLine="32" d="M320,199.7694 C320,219.9794 320,223.5294 320,241.4494 " fill="none" id="overarch_dataModel_element-backto-overarch_dataModel_modelElement" style="stroke:#181818;stroke-width:1.0;"/><polygon fill="none" points="320,181.7694,314,199.7694,326,199.7694,320,181.7694" style="stroke:#181818;stroke-width:1.0;"/></g><!--reverse link overarch_dataModel_modelElement to overarch_dataModel_modelNode--><g id="link_overarch_dataModel_modelElement_overarch_dataModel_modelNode"><path codeLine="33" d="M390.0941,335.3182 C424.3941,360.3782 452.63,381.0094 481.27,401.9294 " fill="none" id="overarch_dataModel_modelElement-backto-overarch_dataModel_modelNode" style="stroke:#181818;stroke-width:1.0;"/><polygon fill="none" points="375.56,324.6994,386.5545,340.1629,393.6337,330.4735,375.56,324.6994" style="stroke:#181818;stroke-width:1.0;"/></g><!--reverse link overarch_dataModel_modelRelation to overarch_dataModel_organizationModelRelation--><g id="link_overarch_dataModel_modelRelation_overarch_dataModel_organizationModelRelation"><path codeLine="34" d="M156.2048,482.9975 C169.0348,502.8075 174.2,510.7894 185.05,527.5194 " fill="none" id="overarch_dataModel_modelRelation-backto-overarch_dataModel_organizationModelRelation" style="stroke:#181818;stroke-width:1.0;"/><polygon fill="none" points="146.42,467.8894,151.1688,486.2592,161.2409,479.7359,146.42,467.8894" style="stroke:#181818;stroke-width:1.0;"/></g><!--reverse link overarch_dataModel_organizationModelElement to overarch_dataModel_organizationModelNode--><g id="link_overarch_dataModel_organizationModelElement_overarch_dataModel_organizationModelNode"><path codeLine="35" d="M362.7855,461.6462 C390.1355,483.7262 417.04,505.4394 444.35,527.4794 " fill="none" id="overarch_dataModel_organizationModelElement-backto-overarch_dataModel_organizationModelNode" style="stroke:#181818;stroke-width:1.0;"/><polygon fill="none" points="348.78,450.3394,359.0166,466.3147,366.5545,456.9777,348.78,450.3394" style="stroke:#181818;stroke-width:1.0;"/></g><!--reverse link overarch_dataModel_organizationModelRelation to overarch_dataModel_collaboratesWith--><g id="link_overarch_dataModel_organizationModelRelation_overarch_dataModel_collaboratesWith"><path codeLine="36" d="M159.4103,587.3083 C138.7603,604.9683 124.03,617.5494 103.28,635.2894 " fill="none" id="overarch_dataModel_organizationModelRelation-backto-overarch_dataModel_collaboratesWith" style="stroke:#181818;stroke-width:1.0;"/><polygon fill="none" points="173.09,575.6094,155.5106,582.7484,163.31,591.8682,173.09,575.6094" style="stroke:#181818;stroke-width:1.0;"/></g><!--reverse link overarch_dataModel_modelElement to overarch_dataModel_modelRelation--><g id="link_overarch_dataModel_modelElement_overarch_dataModel_modelRelation"><path codeLine="37" d="M247.7097,335.0727 C221.0497,353.8727 204.17,365.7694 177.52,384.5594 " fill="none" id="overarch_dataModel_modelElement-backto-overarch_dataModel_modelRelation" style="stroke:#181818;stroke-width:1.0;"/><polygon fill="none" points="262.42,324.6994,244.2519,330.1693,251.1675,339.9762,262.42,324.6994" style="stroke:#181818;stroke-width:1.0;"/></g><!--reverse link overarch_dataModel_organizationModelElement to overarch_dataModel_organizationModelRelation--><g id="link_overarch_dataModel_organizationModelElement_overarch_dataModel_organizationModelRelation"><path codeLine="38" d="M284.8846,463.2472 C263.4246,485.3272 243.89,505.4394 222.47,527.4794 " fill="none" id="overarch_dataModel_organizationModelElement-backto-overarch_dataModel_organizationModelRelation" style="stroke:#181818;stroke-width:1.0;"/><polygon fill="none" points="297.43,450.3394,280.582,459.0654,289.1872,467.429,297.43,450.3394" style="stroke:#181818;stroke-width:1.0;"/></g><!--reverse link overarch_dataModel_modelElement to overarch_dataModel_organizationModelElement--><g id="link_overarch_dataModel_modelElement_overarch_dataModel_organizationModelElement"><path codeLine="39" d="M320,342.8894 C320,367.9394 320,381.1194 320,401.9894 " fill="none" id="overarch_dataModel_modelElement-backto-overarch_dataModel_organizationModelElement" style="stroke:#181818;stroke-width:1.0;"/><polygon fill="none" points="320,324.8894,314,342.8894,326,342.8894,320,324.8894" style="stroke:#181818;stroke-width:1.0;"/></g><!--reverse link overarch_dataModel_organizationModelNode to overarch_dataModel_orgUnit--><g id="link_overarch_dataModel_organizationModelNode_overarch_dataModel_orgUnit"><path codeLine="40" d="M456.9069,592.2905 C449.7469,609.9505 446.66,617.5494 439.46,635.2894 " fill="none" id="overarch_dataModel_organizationModelNode-backto-overarch_dataModel_orgUnit" style="stroke:#181818;stroke-width:1.0;"/><polygon fill="none" points="463.67,575.6094,451.3465,590.0361,462.4672,594.5449,463.67,575.6094" style="stroke:#181818;stroke-width:1.0;"/></g><!--reverse link overarch_dataModel_organizationModelRelation to overarch_dataModel_responsibleFor--><g id="link_overarch_dataModel_organizationModelRelation_overarch_dataModel_responsibleFor"><path codeLine="41" d="M216.4503,592.2342 C223.7803,609.8942 226.96,617.5494 234.32,635.2894 " fill="none" id="overarch_dataModel_organizationModelRelation-backto-overarch_dataModel_responsibleFor" style="stroke:#181818;stroke-width:1.0;"/><polygon fill="none" points="209.55,575.6094,210.9087,594.5343,221.992,589.9341,209.55,575.6094" style="stroke:#181818;stroke-width:1.0;"/></g><!--reverse link overarch_dataModel_modelNode to overarch_dataModel_organizationModelNode--><g id="link_overarch_dataModel_modelNode_overarch_dataModel_organizationModelNode"><path codeLine="42" d="M499.9277,467.4616 C492.7677,489.5416 487.63,505.4394 480.49,527.4794 " fill="none" id="overarch_dataModel_modelNode-backto-overarch_dataModel_organizationModelNode" style="stroke:#181818;stroke-width:1.0;"/><polygon fill="none" points="505.48,450.3394,494.2203,465.6109,505.6351,469.3124,505.48,450.3394" style="stroke:#181818;stroke-width:1.0;"/></g><!--reverse link overarch_dataModel_organizationModelNode to overarch_dataModel_organization--><g id="link_overarch_dataModel_organizationModelNode_overarch_dataModel_organization"><path codeLine="43" d="M503.2976,589.5248 C517.7876,607.1848 526.3,617.5494 540.86,635.2894 " fill="none" id="overarch_dataModel_organizationModelNode-backto-overarch_dataModel_organization" style="stroke:#181818;stroke-width:1.0;"/><polygon fill="none" points="491.88,575.6094,498.6591,593.3307,507.9361,585.7189,491.88,575.6094" style="stroke:#181818;stroke-width:1.0;"/></g><!--SRC=[jLHDJyCm3BtdLrYxTuBhn7NS00a9SK1eybflYyW7IZocCVRVIRklbYrf1-CIoOxzyco_c2KhWWStHIC_aQKrS6SBKZ1KfCcm5mB7dXtc3Bb2xw57cviUe0VxGGvTFXiLo5WbZhRNi1801VaS1X3ofPd2orM_V_rQkkqfRtXq06-qN5XN15CM3TEWfdsIM1-nihKICbqooHofoemnhQTKdiTj0gpMuW2RpOta1CPJk2upEZ1gQTqHeU6kbti-kLKAnzOXayyMacSnh7hWSuWxnN13oeGpXb95t8UZHi6HVxV6ox6YR69TBBKMTcjTiwNxAhjq8iwyRS2wETIWeecpkY4hjZKpzaxBs7HZL05K8y-TvEK1-g1ongalTKoyytLIJcf8HxBP3IpnEs- -igoj5j5MQnAa925QXnA3YFvDSSw_wOmU8njV4J7ed__kRqtytwfJwFfNY0dbd5Pf0hdSgvUPINCLYUIUkxnaEiD-0m00]--></g></svg>