<svg xmlns="http://www.w3.org/2000/svg" xmlns:xlink="http://www.w3.org/1999/xlink" contentStyleType="text/css" height="724px" preserveAspectRatio="none" style="width:1720px;height:724px;background:#FFFFFF;" version="1.1" viewBox="0 0 1720 724" width="1720px" zoomAndPan="magnify"><defs/><g><text fill="#000000" font-family="sans-serif" font-size="14" font-weight="bold" lengthAdjust="spacing" textLength="168" x="769.25" y="24.9659">Process Model Elements</text><!--class overarch_dataModel_artifact--><g id="elem_overarch_dataModel_artifact"><rect codeLine="9" fill="#F1F1F1" height="48" id="overarch_dataModel_artifact" rx="2.5" ry="2.5" style="stroke:#181818;stroke-width:0.5;" width="80" x="38" y="669.0679"/><ellipse cx="53" cy="685.0679" fill="#ADD1B2" rx="11" ry="11" style="stroke:#181818;stroke-width:1.0;"/><path d="M55.9688,690.7085 Q55.3906,691.0054 54.75,691.146 Q54.1094,691.3023 53.4063,691.3023 Q50.9063,691.3023 49.5781,689.6617 Q48.2656,688.0054 48.2656,684.8804 Q48.2656,681.7554 49.5781,680.0992 Q50.9063,678.4429 53.4063,678.4429 Q54.1094,678.4429 54.75,678.5992 Q55.4063,678.7554 55.9688,679.0523 L55.9688,681.771 Q55.3438,681.1929 54.75,680.9273 Q54.1563,680.646 53.5313,680.646 Q52.1875,680.646 51.5,681.7242 Q50.8125,682.7867 50.8125,684.8804 Q50.8125,686.9742 51.5,688.0523 Q52.1875,689.1148 53.5313,689.1148 Q54.1563,689.1148 54.75,688.8492 Q55.3438,688.5679 55.9688,687.9898 L55.9688,690.7085 Z " fill="#000000"/><text fill="#000000" font-family="sans-serif" font-size="14" lengthAdjust="spacing" textLength="48" x="67" y="690.4999">artifact</text><line style="stroke:#181818;stroke-width:0.5;" x1="39" x2="117" y1="701.0679" y2="701.0679"/><line style="stroke:#181818;stroke-width:0.5;" x1="39" x2="117" y1="709.0679" y2="709.0679"/></g><!--class overarch_dataModel_information--><g id="elem_overarch_dataModel_information"><rect codeLine="10" fill="#F1F1F1" height="48" id="overarch_dataModel_information" rx="2.5" ry="2.5" style="stroke:#181818;stroke-width:0.5;" width="111" x="153.5" y="669.0679"/><ellipse cx="168.5" cy="685.0679" fill="#ADD1B2" rx="11" ry="11" style="stroke:#181818;stroke-width:1.0;"/><path d="M171.4688,690.7085 Q170.8906,691.0054 170.25,691.146 Q169.6094,691.3023 168.9063,691.3023 Q166.4063,691.3023 165.0781,689.6617 Q163.7656,688.0054 163.7656,684.8804 Q163.7656,681.7554 165.0781,680.0992 Q166.4063,678.4429 168.9063,678.4429 Q169.6094,678.4429 170.25,678.5992 Q170.9063,678.7554 171.4688,679.0523 L171.4688,681.771 Q170.8438,681.1929 170.25,680.9273 Q169.6563,680.646 169.0313,680.646 Q167.6875,680.646 167,681.7242 Q166.3125,682.7867 166.3125,684.8804 Q166.3125,686.9742 167,688.0523 Q167.6875,689.1148 169.0313,689.1148 Q169.6563,689.1148 170.25,688.8492 Q170.8438,688.5679 171.4688,687.9898 L171.4688,690.7085 Z " fill="#000000"/><text fill="#000000" font-family="sans-serif" font-size="14" lengthAdjust="spacing" textLength="79" x="182.5" y="690.4999">information</text><line style="stroke:#181818;stroke-width:0.5;" x1="154.5" x2="263.5" y1="701.0679" y2="701.0679"/><line style="stroke:#181818;stroke-width:0.5;" x1="154.5" x2="263.5" y1="709.0679" y2="709.0679"/></g><!--class overarch_dataModel_modelElement--><g id="elem_overarch_dataModel_modelElement"><rect codeLine="11" fill="#F1F1F1" height="86.1358" id="overarch_dataModel_modelElement" rx="2.5" ry="2.5" style="stroke:#181818;stroke-width:0.5;" width="175" x="830.5" y="250.0679"/><ellipse cx="868" cy="266.0679" fill="#A9DCDF" rx="11" ry="11" style="stroke:#181818;stroke-width:1.0;"/><path d="M868.1094,261.4117 L866.9531,266.4898 L869.2813,266.4898 L868.1094,261.4117 Z M866.625,259.1773 L869.6094,259.1773 L872.9688,271.5679 L870.5156,271.5679 L869.75,268.5054 L866.4688,268.5054 L865.7188,271.5679 L863.2813,271.5679 L866.625,259.1773 Z " fill="#000000"/><text fill="#000000" font-family="sans-serif" font-size="14" font-style="italic" lengthAdjust="spacing" textLength="93" x="887" y="271.4999">model-element</text><line style="stroke:#181818;stroke-width:0.5;" x1="831.5" x2="1004.5" y1="282.0679" y2="282.0679"/><text fill="#000000" font-family="sans-serif" font-size="14" lengthAdjust="spacing" textLength="163" x="836.5" y="301.0339">maturity : keyword [0..1]</text><text fill="#000000" font-family="sans-serif" font-size="14" lengthAdjust="spacing" textLength="99" x="836.5" y="320.1018">tags : set [0..1]</text><line style="stroke:#181818;stroke-width:0.5;" x1="831.5" x2="1004.5" y1="328.2038" y2="328.2038"/></g><!--class overarch_dataModel_inputOf--><g id="elem_overarch_dataModel_inputOf"><rect codeLine="15" fill="#F1F1F1" height="48" id="overarch_dataModel_inputOf" rx="2.5" ry="2.5" style="stroke:#181818;stroke-width:0.5;" width="86" x="967" y="669.0679"/><ellipse cx="982" cy="685.0679" fill="#ADD1B2" rx="11" ry="11" style="stroke:#181818;stroke-width:1.0;"/><path d="M984.9688,690.7085 Q984.3906,691.0054 983.75,691.146 Q983.1094,691.3023 982.4063,691.3023 Q979.9063,691.3023 978.5781,689.6617 Q977.2656,688.0054 977.2656,684.8804 Q977.2656,681.7554 978.5781,680.0992 Q979.9063,678.4429 982.4063,678.4429 Q983.1094,678.4429 983.75,678.5992 Q984.4063,678.7554 984.9688,679.0523 L984.9688,681.771 Q984.3438,681.1929 983.75,680.9273 Q983.1563,680.646 982.5313,680.646 Q981.1875,680.646 980.5,681.7242 Q979.8125,682.7867 979.8125,684.8804 Q979.8125,686.9742 980.5,688.0523 Q981.1875,689.1148 982.5313,689.1148 Q983.1563,689.1148 983.75,688.8492 Q984.3438,688.5679 984.9688,687.9898 L984.9688,690.7085 Z " fill="#000000"/><text fill="#000000" font-family="sans-serif" font-size="14" lengthAdjust="spacing" textLength="54" x="996" y="690.4999">input-of</text><line style="stroke:#181818;stroke-width:0.5;" x1="968" x2="1052" y1="701.0679" y2="701.0679"/><line style="stroke:#181818;stroke-width:0.5;" x1="968" x2="1052" y1="709.0679" y2="709.0679"/></g><!--class overarch_dataModel_processModelElement--><g id="elem_overarch_dataModel_processModelElement"><rect codeLine="16" fill="#F1F1F1" height="48" id="overarch_dataModel_processModelElement" rx="2.5" ry="2.5" style="stroke:#181818;stroke-width:0.5;" width="176" x="830" y="415.0679"/><ellipse cx="845" cy="431.0679" fill="#A9DCDF" rx="11" ry="11" style="stroke:#181818;stroke-width:1.0;"/><path d="M845.1094,426.4117 L843.9531,431.4898 L846.2813,431.4898 L845.1094,426.4117 Z M843.625,424.1773 L846.6094,424.1773 L849.9688,436.5679 L847.5156,436.5679 L846.75,433.5054 L843.4688,433.5054 L842.7188,436.5679 L840.2813,436.5679 L843.625,424.1773 Z " fill="#000000"/><text fill="#000000" font-family="sans-serif" font-size="14" font-style="italic" lengthAdjust="spacing" textLength="144" x="859" y="436.4999">process-model-element</text><line style="stroke:#181818;stroke-width:0.5;" x1="831" x2="1005" y1="447.0679" y2="447.0679"/><line style="stroke:#181818;stroke-width:0.5;" x1="831" x2="1005" y1="455.0679" y2="455.0679"/></g><!--class overarch_dataModel_capability--><g id="elem_overarch_dataModel_capability"><rect codeLine="17" fill="#F1F1F1" height="48" id="overarch_dataModel_capability" rx="2.5" ry="2.5" style="stroke:#181818;stroke-width:0.5;" width="97" x="299.5" y="669.0679"/><ellipse cx="314.5" cy="685.0679" fill="#ADD1B2" rx="11" ry="11" style="stroke:#181818;stroke-width:1.0;"/><path d="M317.4688,690.7085 Q316.8906,691.0054 316.25,691.146 Q315.6094,691.3023 314.9063,691.3023 Q312.4063,691.3023 311.0781,689.6617 Q309.7656,688.0054 309.7656,684.8804 Q309.7656,681.7554 311.0781,680.0992 Q312.4063,678.4429 314.9063,678.4429 Q315.6094,678.4429 316.25,678.5992 Q316.9063,678.7554 317.4688,679.0523 L317.4688,681.771 Q316.8438,681.1929 316.25,680.9273 Q315.6563,680.646 315.0313,680.646 Q313.6875,680.646 313,681.7242 Q312.3125,682.7867 312.3125,684.8804 Q312.3125,686.9742 313,688.0523 Q313.6875,689.1148 315.0313,689.1148 Q315.6563,689.1148 316.25,688.8492 Q316.8438,688.5679 317.4688,687.9898 L317.4688,690.7085 Z " fill="#000000"/><text fill="#000000" font-family="sans-serif" font-size="14" lengthAdjust="spacing" textLength="65" x="328.5" y="690.4999">capability</text><line style="stroke:#181818;stroke-width:0.5;" x1="300.5" x2="395.5" y1="701.0679" y2="701.0679"/><line style="stroke:#181818;stroke-width:0.5;" x1="300.5" x2="395.5" y1="709.0679" y2="709.0679"/></g><!--class overarch_dataModel_technicalElement--><g id="elem_overarch_dataModel_technicalElement"><rect codeLine="18" fill="#F1F1F1" height="67.0679" id="overarch_dataModel_technicalElement" rx="2.5" ry="2.5" style="stroke:#181818;stroke-width:0.5;" width="142" x="7" y="542.0679"/><ellipse cx="22" cy="558.0679" fill="#A9DCDF" rx="11" ry="11" style="stroke:#181818;stroke-width:1.0;"/><path d="M22.1094,553.4117 L20.9531,558.4898 L23.2813,558.4898 L22.1094,553.4117 Z M20.625,551.1773 L23.6094,551.1773 L26.9688,563.5679 L24.5156,563.5679 L23.75,560.5054 L20.4688,560.5054 L19.7188,563.5679 L17.2813,563.5679 L20.625,551.1773 Z " fill="#000000"/><text fill="#000000" font-family="sans-serif" font-size="14" font-style="italic" lengthAdjust="spacing" textLength="110" x="36" y="563.4999">technical-element</text><line style="stroke:#181818;stroke-width:0.5;" x1="8" x2="148" y1="574.0679" y2="574.0679"/><text fill="#000000" font-family="sans-serif" font-size="14" lengthAdjust="spacing" textLength="119" x="13" y="593.0339">tech : string [0..1]</text><line style="stroke:#181818;stroke-width:0.5;" x1="8" x2="148" y1="601.1358" y2="601.1358"/></g><!--class overarch_dataModel_knowledge--><g id="elem_overarch_dataModel_knowledge"><rect codeLine="21" fill="#F1F1F1" height="48" id="overarch_dataModel_knowledge" rx="2.5" ry="2.5" style="stroke:#181818;stroke-width:0.5;" width="105" x="431.5" y="669.0679"/><ellipse cx="446.5" cy="685.0679" fill="#ADD1B2" rx="11" ry="11" style="stroke:#181818;stroke-width:1.0;"/><path d="M449.4688,690.7085 Q448.8906,691.0054 448.25,691.146 Q447.6094,691.3023 446.9063,691.3023 Q444.4063,691.3023 443.0781,689.6617 Q441.7656,688.0054 441.7656,684.8804 Q441.7656,681.7554 443.0781,680.0992 Q444.4063,678.4429 446.9063,678.4429 Q447.6094,678.4429 448.25,678.5992 Q448.9063,678.7554 449.4688,679.0523 L449.4688,681.771 Q448.8438,681.1929 448.25,680.9273 Q447.6563,680.646 447.0313,680.646 Q445.6875,680.646 445,681.7242 Q444.3125,682.7867 444.3125,684.8804 Q444.3125,686.9742 445,688.0523 Q445.6875,689.1148 447.0313,689.1148 Q447.6563,689.1148 448.25,688.8492 Q448.8438,688.5679 449.4688,687.9898 L449.4688,690.7085 Z " fill="#000000"/><text fill="#000000" font-family="sans-serif" font-size="14" lengthAdjust="spacing" textLength="73" x="460.5" y="690.4999">knowledge</text><line style="stroke:#181818;stroke-width:0.5;" x1="432.5" x2="535.5" y1="701.0679" y2="701.0679"/><line style="stroke:#181818;stroke-width:0.5;" x1="432.5" x2="535.5" y1="709.0679" y2="709.0679"/></g><!--class overarch_dataModel_version--><g id="elem_overarch_dataModel_version"><rect codeLine="22" fill="#F1F1F1" height="48" id="overarch_dataModel_version" rx="2.5" ry="2.5" style="stroke:#181818;stroke-width:0.5;" width="81" x="1019.5" y="94.5679"/><ellipse cx="1034.5" cy="110.5679" fill="#ADD1B2" rx="11" ry="11" style="stroke:#181818;stroke-width:1.0;"/><path d="M1037.4688,116.2085 Q1036.8906,116.5054 1036.25,116.646 Q1035.6094,116.8023 1034.9063,116.8023 Q1032.4063,116.8023 1031.0781,115.1617 Q1029.7656,113.5054 1029.7656,110.3804 Q1029.7656,107.2554 1031.0781,105.5992 Q1032.4063,103.9429 1034.9063,103.9429 Q1035.6094,103.9429 1036.25,104.0992 Q1036.9063,104.2554 1037.4688,104.5523 L1037.4688,107.271 Q1036.8438,106.6929 1036.25,106.4273 Q1035.6563,106.146 1035.0313,106.146 Q1033.6875,106.146 1033,107.2242 Q1032.3125,108.2867 1032.3125,110.3804 Q1032.3125,112.4742 1033,113.5523 Q1033.6875,114.6148 1035.0313,114.6148 Q1035.6563,114.6148 1036.25,114.3492 Q1036.8438,114.0679 1037.4688,113.4898 L1037.4688,116.2085 Z " fill="#000000"/><text fill="#000000" font-family="sans-serif" font-size="14" lengthAdjust="spacing" textLength="49" x="1048.5" y="115.9999">version</text><line style="stroke:#181818;stroke-width:0.5;" x1="1020.5" x2="1099.5" y1="126.5679" y2="126.5679"/><line style="stroke:#181818;stroke-width:0.5;" x1="1020.5" x2="1099.5" y1="134.5679" y2="134.5679"/></g><!--class overarch_dataModel_requiredFor--><g id="elem_overarch_dataModel_requiredFor"><rect codeLine="23" fill="#F1F1F1" height="48" id="overarch_dataModel_requiredFor" rx="2.5" ry="2.5" style="stroke:#181818;stroke-width:0.5;" width="115" x="1088.5" y="669.0679"/><ellipse cx="1103.5" cy="685.0679" fill="#ADD1B2" rx="11" ry="11" style="stroke:#181818;stroke-width:1.0;"/><path d="M1106.4688,690.7085 Q1105.8906,691.0054 1105.25,691.146 Q1104.6094,691.3023 1103.9063,691.3023 Q1101.4063,691.3023 1100.0781,689.6617 Q1098.7656,688.0054 1098.7656,684.8804 Q1098.7656,681.7554 1100.0781,680.0992 Q1101.4063,678.4429 1103.9063,678.4429 Q1104.6094,678.4429 1105.25,678.5992 Q1105.9063,678.7554 1106.4688,679.0523 L1106.4688,681.771 Q1105.8438,681.1929 1105.25,680.9273 Q1104.6563,680.646 1104.0313,680.646 Q1102.6875,680.646 1102,681.7242 Q1101.3125,682.7867 1101.3125,684.8804 Q1101.3125,686.9742 1102,688.0523 Q1102.6875,689.1148 1104.0313,689.1148 Q1104.6563,689.1148 1105.25,688.8492 Q1105.8438,688.5679 1106.4688,687.9898 L1106.4688,690.7085 Z " fill="#000000"/><text fill="#000000" font-family="sans-serif" font-size="14" lengthAdjust="spacing" textLength="83" x="1117.5" y="690.4999">required-for</text><line style="stroke:#181818;stroke-width:0.5;" x1="1089.5" x2="1202.5" y1="701.0679" y2="701.0679"/><line style="stroke:#181818;stroke-width:0.5;" x1="1089.5" x2="1202.5" y1="709.0679" y2="709.0679"/></g><!--class overarch_dataModel_artifactOf--><g id="elem_overarch_dataModel_artifactOf"><rect codeLine="24" fill="#F1F1F1" height="48" id="overarch_dataModel_artifactOf" rx="2.5" ry="2.5" style="stroke:#181818;stroke-width:0.5;" width="98" x="1239" y="669.0679"/><ellipse cx="1254" cy="685.0679" fill="#ADD1B2" rx="11" ry="11" style="stroke:#181818;stroke-width:1.0;"/><path d="M1256.9688,690.7085 Q1256.3906,691.0054 1255.75,691.146 Q1255.1094,691.3023 1254.4063,691.3023 Q1251.9063,691.3023 1250.5781,689.6617 Q1249.2656,688.0054 1249.2656,684.8804 Q1249.2656,681.7554 1250.5781,680.0992 Q1251.9063,678.4429 1254.4063,678.4429 Q1255.1094,678.4429 1255.75,678.5992 Q1256.4063,678.7554 1256.9688,679.0523 L1256.9688,681.771 Q1256.3438,681.1929 1255.75,680.9273 Q1255.1563,680.646 1254.5313,680.646 Q1253.1875,680.646 1252.5,681.7242 Q1251.8125,682.7867 1251.8125,684.8804 Q1251.8125,686.9742 1252.5,688.0523 Q1253.1875,689.1148 1254.5313,689.1148 Q1255.1563,689.1148 1255.75,688.8492 Q1256.3438,688.5679 1256.9688,687.9898 L1256.9688,690.7085 Z " fill="#000000"/><text fill="#000000" font-family="sans-serif" font-size="14" lengthAdjust="spacing" textLength="66" x="1268" y="690.4999">artifact-of</text><line style="stroke:#181818;stroke-width:0.5;" x1="1240" x2="1336" y1="701.0679" y2="701.0679"/><line style="stroke:#181818;stroke-width:0.5;" x1="1240" x2="1336" y1="709.0679" y2="709.0679"/></g><!--class overarch_dataModel_processModelNode--><g id="elem_overarch_dataModel_processModelNode"><rect codeLine="25" fill="#F1F1F1" height="48" id="overarch_dataModel_processModelNode" rx="2.5" ry="2.5" style="stroke:#181818;stroke-width:0.5;" width="157" x="535.5" y="551.5679"/><ellipse cx="550.5" cy="567.5679" fill="#A9DCDF" rx="11" ry="11" style="stroke:#181818;stroke-width:1.0;"/><path d="M550.6094,562.9117 L549.4531,567.9898 L551.7813,567.9898 L550.6094,562.9117 Z M549.125,560.6773 L552.1094,560.6773 L555.4688,573.0679 L553.0156,573.0679 L552.25,570.0054 L548.9688,570.0054 L548.2188,573.0679 L545.7813,573.0679 L549.125,560.6773 Z " fill="#000000"/><text fill="#000000" font-family="sans-serif" font-size="14" font-style="italic" lengthAdjust="spacing" textLength="125" x="564.5" y="572.9999">process-model-node</text><line style="stroke:#181818;stroke-width:0.5;" x1="536.5" x2="691.5" y1="583.5679" y2="583.5679"/><line style="stroke:#181818;stroke-width:0.5;" x1="536.5" x2="691.5" y1="591.5679" y2="591.5679"/></g><!--class overarch_dataModel_processModelRelation--><g id="elem_overarch_dataModel_processModelRelation"><rect codeLine="26" fill="#F1F1F1" height="48" id="overarch_dataModel_processModelRelation" rx="2.5" ry="2.5" style="stroke:#181818;stroke-width:0.5;" width="176" x="1129" y="551.5679"/><ellipse cx="1144" cy="567.5679" fill="#A9DCDF" rx="11" ry="11" style="stroke:#181818;stroke-width:1.0;"/><path d="M1144.1094,562.9117 L1142.9531,567.9898 L1145.2813,567.9898 L1144.1094,562.9117 Z M1142.625,560.6773 L1145.6094,560.6773 L1148.9688,573.0679 L1146.5156,573.0679 L1145.75,570.0054 L1142.4688,570.0054 L1141.7188,573.0679 L1139.2813,573.0679 L1142.625,560.6773 Z " fill="#000000"/><text fill="#000000" font-family="sans-serif" font-size="14" font-style="italic" lengthAdjust="spacing" textLength="144" x="1158" y="572.9999">process-model-relation</text><line style="stroke:#181818;stroke-width:0.5;" x1="1130" x2="1304" y1="583.5679" y2="583.5679"/><line style="stroke:#181818;stroke-width:0.5;" x1="1130" x2="1304" y1="591.5679" y2="591.5679"/></g><!--class overarch_dataModel_outputOf--><g id="elem_overarch_dataModel_outputOf"><rect codeLine="27" fill="#F1F1F1" height="48" id="overarch_dataModel_outputOf" rx="2.5" ry="2.5" style="stroke:#181818;stroke-width:0.5;" width="95" x="1372.5" y="669.0679"/><ellipse cx="1387.5" cy="685.0679" fill="#ADD1B2" rx="11" ry="11" style="stroke:#181818;stroke-width:1.0;"/><path d="M1390.4688,690.7085 Q1389.8906,691.0054 1389.25,691.146 Q1388.6094,691.3023 1387.9063,691.3023 Q1385.4063,691.3023 1384.0781,689.6617 Q1382.7656,688.0054 1382.7656,684.8804 Q1382.7656,681.7554 1384.0781,680.0992 Q1385.4063,678.4429 1387.9063,678.4429 Q1388.6094,678.4429 1389.25,678.5992 Q1389.9063,678.7554 1390.4688,679.0523 L1390.4688,681.771 Q1389.8438,681.1929 1389.25,680.9273 Q1388.6563,680.646 1388.0313,680.646 Q1386.6875,680.646 1386,681.7242 Q1385.3125,682.7867 1385.3125,684.8804 Q1385.3125,686.9742 1386,688.0523 Q1386.6875,689.1148 1388.0313,689.1148 Q1388.6563,689.1148 1389.25,688.8492 Q1389.8438,688.5679 1390.4688,687.9898 L1390.4688,690.7085 Z " fill="#000000"/><text fill="#000000" font-family="sans-serif" font-size="14" lengthAdjust="spacing" textLength="63" x="1401.5" y="690.4999">output-of</text><line style="stroke:#181818;stroke-width:0.5;" x1="1373.5" x2="1466.5" y1="701.0679" y2="701.0679"/><line style="stroke:#181818;stroke-width:0.5;" x1="1373.5" x2="1466.5" y1="709.0679" y2="709.0679"/></g><!--class overarch_dataModel_process--><g id="elem_overarch_dataModel_process"><rect codeLine="28" fill="#F1F1F1" height="48" id="overarch_dataModel_process" rx="2.5" ry="2.5" style="stroke:#181818;stroke-width:0.5;" width="84" x="572" y="669.0679"/><ellipse cx="587" cy="685.0679" fill="#ADD1B2" rx="11" ry="11" style="stroke:#181818;stroke-width:1.0;"/><path d="M589.9688,690.7085 Q589.3906,691.0054 588.75,691.146 Q588.1094,691.3023 587.4063,691.3023 Q584.9063,691.3023 583.5781,689.6617 Q582.2656,688.0054 582.2656,684.8804 Q582.2656,681.7554 583.5781,680.0992 Q584.9063,678.4429 587.4063,678.4429 Q588.1094,678.4429 588.75,678.5992 Q589.4063,678.7554 589.9688,679.0523 L589.9688,681.771 Q589.3438,681.1929 588.75,680.9273 Q588.1563,680.646 587.5313,680.646 Q586.1875,680.646 585.5,681.7242 Q584.8125,682.7867 584.8125,684.8804 Q584.8125,686.9742 585.5,688.0523 Q586.1875,689.1148 587.5313,689.1148 Q588.1563,689.1148 588.75,688.8492 Q589.3438,688.5679 589.9688,687.9898 L589.9688,690.7085 Z " fill="#000000"/><text fill="#000000" font-family="sans-serif" font-size="14" lengthAdjust="spacing" textLength="52" x="601" y="690.4999">process</text><line style="stroke:#181818;stroke-width:0.5;" x1="573" x2="655" y1="701.0679" y2="701.0679"/><line style="stroke:#181818;stroke-width:0.5;" x1="573" x2="655" y1="709.0679" y2="709.0679"/></g><!--class overarch_dataModel_roleIn--><g id="elem_overarch_dataModel_roleIn"><rect codeLine="29" fill="#F1F1F1" height="48" id="overarch_dataModel_roleIn" rx="2.5" ry="2.5" style="stroke:#181818;stroke-width:0.5;" width="76" x="1503" y="669.0679"/><ellipse cx="1518" cy="685.0679" fill="#ADD1B2" rx="11" ry="11" style="stroke:#181818;stroke-width:1.0;"/><path d="M1520.9688,690.7085 Q1520.3906,691.0054 1519.75,691.146 Q1519.1094,691.3023 1518.4063,691.3023 Q1515.9063,691.3023 1514.5781,689.6617 Q1513.2656,688.0054 1513.2656,684.8804 Q1513.2656,681.7554 1514.5781,680.0992 Q1515.9063,678.4429 1518.4063,678.4429 Q1519.1094,678.4429 1519.75,678.5992 Q1520.4063,678.7554 1520.9688,679.0523 L1520.9688,681.771 Q1520.3438,681.1929 1519.75,680.9273 Q1519.1563,680.646 1518.5313,680.646 Q1517.1875,680.646 1516.5,681.7242 Q1515.8125,682.7867 1515.8125,684.8804 Q1515.8125,686.9742 1516.5,688.0523 Q1517.1875,689.1148 1518.5313,689.1148 Q1519.1563,689.1148 1519.75,688.8492 Q1520.3438,688.5679 1520.9688,687.9898 L1520.9688,690.7085 Z " fill="#000000"/><text fill="#000000" font-family="sans-serif" font-size="14" lengthAdjust="spacing" textLength="44" x="1532" y="690.4999">role-in</text><line style="stroke:#181818;stroke-width:0.5;" x1="1504" x2="1578" y1="701.0679" y2="701.0679"/><line style="stroke:#181818;stroke-width:0.5;" x1="1504" x2="1578" y1="709.0679" y2="709.0679"/></g><!--class overarch_dataModel_modelNode--><g id="elem_overarch_dataModel_modelNode"><rect codeLine="30" fill="#F1F1F1" height="48" id="overarch_dataModel_modelNode" rx="2.5" ry="2.5" style="stroke:#181818;stroke-width:0.5;" width="106" x="646" y="415.0679"/><ellipse cx="661" cy="431.0679" fill="#A9DCDF" rx="11" ry="11" style="stroke:#181818;stroke-width:1.0;"/><path d="M661.1094,426.4117 L659.9531,431.4898 L662.2813,431.4898 L661.1094,426.4117 Z M659.625,424.1773 L662.6094,424.1773 L665.9688,436.5679 L663.5156,436.5679 L662.75,433.5054 L659.4688,433.5054 L658.7188,436.5679 L656.2813,436.5679 L659.625,424.1773 Z " fill="#000000"/><text fill="#000000" font-family="sans-serif" font-size="14" font-style="italic" lengthAdjust="spacing" textLength="74" x="675" y="436.4999">model-node</text><line style="stroke:#181818;stroke-width:0.5;" x1="647" x2="751" y1="447.0679" y2="447.0679"/><line style="stroke:#181818;stroke-width:0.5;" x1="647" x2="751" y1="455.0679" y2="455.0679"/></g><!--class overarch_dataModel_modelRelation--><g id="elem_overarch_dataModel_modelRelation"><rect codeLine="31" fill="#F1F1F1" height="86.1358" id="overarch_dataModel_modelRelation" rx="2.5" ry="2.5" style="stroke:#181818;stroke-width:0.5;" width="125" x="1061.5" y="396.0679"/><ellipse cx="1076.5" cy="412.0679" fill="#A9DCDF" rx="11" ry="11" style="stroke:#181818;stroke-width:1.0;"/><path d="M1076.6094,407.4117 L1075.4531,412.4898 L1077.7813,412.4898 L1076.6094,407.4117 Z M1075.125,405.1773 L1078.1094,405.1773 L1081.4688,417.5679 L1079.0156,417.5679 L1078.25,414.5054 L1074.9688,414.5054 L1074.2188,417.5679 L1071.7813,417.5679 L1075.125,405.1773 Z " fill="#000000"/><text fill="#000000" font-family="sans-serif" font-size="14" font-style="italic" lengthAdjust="spacing" textLength="93" x="1090.5" y="417.4999">model-relation</text><line style="stroke:#181818;stroke-width:0.5;" x1="1062.5" x2="1185.5" y1="428.0679" y2="428.0679"/><text fill="#000000" font-family="sans-serif" font-size="14" lengthAdjust="spacing" textLength="100" x="1067.5" y="447.0339">from : keyword</text><text fill="#000000" font-family="sans-serif" font-size="14" lengthAdjust="spacing" textLength="81" x="1067.5" y="466.1018">to : keyword</text><line style="stroke:#181818;stroke-width:0.5;" x1="1062.5" x2="1185.5" y1="474.2038" y2="474.2038"/></g><!--class overarch_dataModel_requirement--><g id="elem_overarch_dataModel_requirement"><rect codeLine="35" fill="#F1F1F1" height="48" id="overarch_dataModel_requirement" rx="2.5" ry="2.5" style="stroke:#181818;stroke-width:0.5;" width="117" x="691.5" y="669.0679"/><ellipse cx="706.5" cy="685.0679" fill="#ADD1B2" rx="11" ry="11" style="stroke:#181818;stroke-width:1.0;"/><path d="M709.4688,690.7085 Q708.8906,691.0054 708.25,691.146 Q707.6094,691.3023 706.9063,691.3023 Q704.4063,691.3023 703.0781,689.6617 Q701.7656,688.0054 701.7656,684.8804 Q701.7656,681.7554 703.0781,680.0992 Q704.4063,678.4429 706.9063,678.4429 Q707.6094,678.4429 708.25,678.5992 Q708.9063,678.7554 709.4688,679.0523 L709.4688,681.771 Q708.8438,681.1929 708.25,680.9273 Q707.6563,680.646 707.0313,680.646 Q705.6875,680.646 705,681.7242 Q704.3125,682.7867 704.3125,684.8804 Q704.3125,686.9742 705,688.0523 Q705.6875,689.1148 707.0313,689.1148 Q707.6563,689.1148 708.25,688.8492 Q708.8438,688.5679 709.4688,687.9898 L709.4688,690.7085 Z " fill="#000000"/><text fill="#000000" font-family="sans-serif" font-size="14" lengthAdjust="spacing" textLength="85" x="720.5" y="690.4999">requirement</text><line style="stroke:#181818;stroke-width:0.5;" x1="692.5" x2="807.5" y1="701.0679" y2="701.0679"/><line style="stroke:#181818;stroke-width:0.5;" x1="692.5" x2="807.5" y1="709.0679" y2="709.0679"/></g><!--class overarch_dataModel_decision--><g id="elem_overarch_dataModel_decision"><rect codeLine="36" fill="#F1F1F1" height="48" id="overarch_dataModel_decision" rx="2.5" ry="2.5" style="stroke:#181818;stroke-width:0.5;" width="88" x="844" y="669.0679"/><ellipse cx="859" cy="685.0679" fill="#ADD1B2" rx="11" ry="11" style="stroke:#181818;stroke-width:1.0;"/><path d="M861.9688,690.7085 Q861.3906,691.0054 860.75,691.146 Q860.1094,691.3023 859.4063,691.3023 Q856.9063,691.3023 855.5781,689.6617 Q854.2656,688.0054 854.2656,684.8804 Q854.2656,681.7554 855.5781,680.0992 Q856.9063,678.4429 859.4063,678.4429 Q860.1094,678.4429 860.75,678.5992 Q861.4063,678.7554 861.9688,679.0523 L861.9688,681.771 Q861.3438,681.1929 860.75,680.9273 Q860.1563,680.646 859.5313,680.646 Q858.1875,680.646 857.5,681.7242 Q856.8125,682.7867 856.8125,684.8804 Q856.8125,686.9742 857.5,688.0523 Q858.1875,689.1148 859.5313,689.1148 Q860.1563,689.1148 860.75,688.8492 Q861.3438,688.5679 861.9688,687.9898 L861.9688,690.7085 Z " fill="#000000"/><text fill="#000000" font-family="sans-serif" font-size="14" lengthAdjust="spacing" textLength="56" x="873" y="690.4999">decision</text><line style="stroke:#181818;stroke-width:0.5;" x1="845" x2="931" y1="701.0679" y2="701.0679"/><line style="stroke:#181818;stroke-width:0.5;" x1="845" x2="931" y1="709.0679" y2="709.0679"/></g><!--class overarch_dataModel_element--><g id="elem_overarch_dataModel_element"><rect codeLine="37" fill="#F1F1F1" height="143.3396" id="overarch_dataModel_element" rx="2.5" ry="2.5" style="stroke:#181818;stroke-width:0.5;" width="133" x="851.5" y="47.0679"/><ellipse cx="889.45" cy="63.0679" fill="#A9DCDF" rx="11" ry="11" style="stroke:#181818;stroke-width:1.0;"/><path d="M889.5594,58.4117 L888.4031,63.4898 L890.7313,63.4898 L889.5594,58.4117 Z M888.075,56.1773 L891.0594,56.1773 L894.4188,68.5679 L891.9656,68.5679 L891.2,65.5054 L887.9188,65.5054 L887.1688,68.5679 L884.7313,68.5679 L888.075,56.1773 Z " fill="#000000"/><text fill="#000000" font-family="sans-serif" font-size="14" font-style="italic" lengthAdjust="spacing" textLength="50" x="908.55" y="68.4999">element</text><line style="stroke:#181818;stroke-width:0.5;" x1="852.5" x2="983.5" y1="79.0679" y2="79.0679"/><text fill="#000000" font-family="sans-serif" font-size="14" lengthAdjust="spacing" textLength="121" x="857.5" y="98.0339">desc : string [0..1]</text><text fill="#000000" font-family="sans-serif" font-size="14" lengthAdjust="spacing" textLength="114" x="857.5" y="117.1018">doc : string [0..1]</text><text fill="#000000" font-family="sans-serif" font-size="14" lengthAdjust="spacing" textLength="80" x="857.5" y="136.1697">el : keyword</text><text fill="#000000" font-family="sans-serif" font-size="14" lengthAdjust="spacing" textLength="81" x="857.5" y="155.2376">id : keyword</text><text fill="#000000" font-family="sans-serif" font-size="14" lengthAdjust="spacing" textLength="90" x="857.5" y="174.3055">name : string</text><line style="stroke:#181818;stroke-width:0.5;" x1="852.5" x2="983.5" y1="182.4075" y2="182.4075"/></g><!--class overarch_dataModel_versionOf--><g id="elem_overarch_dataModel_versionOf"><rect codeLine="44" fill="#F1F1F1" height="48" id="overarch_dataModel_versionOf" rx="2.5" ry="2.5" style="stroke:#181818;stroke-width:0.5;" width="99" x="1614.5" y="669.0679"/><ellipse cx="1629.5" cy="685.0679" fill="#ADD1B2" rx="11" ry="11" style="stroke:#181818;stroke-width:1.0;"/><path d="M1632.4688,690.7085 Q1631.8906,691.0054 1631.25,691.146 Q1630.6094,691.3023 1629.9063,691.3023 Q1627.4063,691.3023 1626.0781,689.6617 Q1624.7656,688.0054 1624.7656,684.8804 Q1624.7656,681.7554 1626.0781,680.0992 Q1627.4063,678.4429 1629.9063,678.4429 Q1630.6094,678.4429 1631.25,678.5992 Q1631.9063,678.7554 1632.4688,679.0523 L1632.4688,681.771 Q1631.8438,681.1929 1631.25,680.9273 Q1630.6563,680.646 1630.0313,680.646 Q1628.6875,680.646 1628,681.7242 Q1627.3125,682.7867 1627.3125,684.8804 Q1627.3125,686.9742 1628,688.0523 Q1628.6875,689.1148 1630.0313,689.1148 Q1630.6563,689.1148 1631.25,688.8492 Q1631.8438,688.5679 1632.4688,687.9898 L1632.4688,690.7085 Z " fill="#000000"/><text fill="#000000" font-family="sans-serif" font-size="14" lengthAdjust="spacing" textLength="67" x="1643.5" y="690.4999">version-of</text><line style="stroke:#181818;stroke-width:0.5;" x1="1615.5" x2="1712.5" y1="701.0679" y2="701.0679"/><line style="stroke:#181818;stroke-width:0.5;" x1="1615.5" x2="1712.5" y1="709.0679" y2="709.0679"/></g><!--reverse link overarch_dataModel_modelNode to overarch_dataModel_processModelNode--><g id="link_overarch_dataModel_modelNode_overarch_dataModel_processModelNode"><path codeLine="45" d="M674.7746,478.4045 C659.2046,503.0445 644.31,526.6079 628.71,551.2979 " fill="none" id="overarch_dataModel_modelNode-backto-overarch_dataModel_processModelNode" style="stroke:#181818;stroke-width:1.0;"/><polygon fill="none" points="684.39,463.1879,669.7024,475.1994,679.8468,481.6096,684.39,463.1879" style="stroke:#181818;stroke-width:1.0;"/></g><!--reverse link overarch_dataModel_processModelNode to overarch_dataModel_knowledge--><g id="link_overarch_dataModel_processModelNode_overarch_dataModel_knowledge"><path codeLine="46" d="M574.5507,611.6198 C551.8707,631.7598 532.61,648.8779 509.95,669.0079 " fill="none" id="overarch_dataModel_processModelNode-backto-overarch_dataModel_knowledge" style="stroke:#181818;stroke-width:1.0;"/><polygon fill="none" points="588.01,599.6679,570.5668,607.1334,578.5347,616.1063,588.01,599.6679" style="stroke:#181818;stroke-width:1.0;"/></g><!--reverse link overarch_dataModel_element to overarch_dataModel_modelElement--><g id="link_overarch_dataModel_element_overarch_dataModel_modelElement"><path codeLine="47" d="M918,208.2279 C918,228.5079 918,231.9879 918,249.9579 " fill="none" id="overarch_dataModel_element-backto-overarch_dataModel_modelElement" style="stroke:#181818;stroke-width:1.0;"/><polygon fill="none" points="918,190.2279,912,208.2279,924,208.2279,918,190.2279" style="stroke:#181818;stroke-width:1.0;"/></g><!--reverse link overarch_dataModel_processModelRelation to overarch_dataModel_inputOf--><g id="link_overarch_dataModel_processModelRelation_overarch_dataModel_inputOf"><path codeLine="48" d="M1159.8898,608.4357 C1123.7798,628.5757 1087.4,648.8779 1051.32,669.0079 " fill="none" id="overarch_dataModel_processModelRelation-backto-overarch_dataModel_inputOf" style="stroke:#181818;stroke-width:1.0;"/><polygon fill="none" points="1175.61,599.6679,1156.9672,603.1956,1162.8124,613.6758,1175.61,599.6679" style="stroke:#181818;stroke-width:1.0;"/></g><!--reverse link overarch_dataModel_processModelNode to overarch_dataModel_information--><g id="link_overarch_dataModel_processModelNode_overarch_dataModel_information"><path codeLine="49" d="M517.9283,602.412 C450.5283,620.702 368.33,643.4479 282,669.0679 C276.39,670.7279 270.56,672.4979 264.74,674.2979 " fill="none" id="overarch_dataModel_processModelNode-backto-overarch_dataModel_information" style="stroke:#181818;stroke-width:1.0;"/><polygon fill="none" points="535.3,597.6979,516.3569,596.6214,519.4996,608.2026,535.3,597.6979" style="stroke:#181818;stroke-width:1.0;"/></g><!--reverse link overarch_dataModel_modelRelation to overarch_dataModel_processModelRelation--><g id="link_overarch_dataModel_modelRelation_overarch_dataModel_processModelRelation"><path codeLine="50" d="M1163.4094,497.0618 C1179.1794,519.8618 1187.81,532.3479 1200.92,551.3179 " fill="none" id="overarch_dataModel_modelRelation-backto-overarch_dataModel_processModelRelation" style="stroke:#181818;stroke-width:1.0;"/><polygon fill="none" points="1153.17,482.2579,1158.4747,500.4749,1168.344,493.6487,1153.17,482.2579" style="stroke:#181818;stroke-width:1.0;"/></g><!--reverse link overarch_dataModel_modelElement to overarch_dataModel_modelNode--><g id="link_overarch_dataModel_modelElement_overarch_dataModel_modelNode"><path codeLine="51" d="M839.029,345.9956 C799.889,371.7256 766.34,393.7879 734.09,414.9979 " fill="none" id="overarch_dataModel_modelElement-backto-overarch_dataModel_modelNode" style="stroke:#181818;stroke-width:1.0;"/><polygon fill="none" points="854.07,336.1079,835.7331,340.982,842.3249,351.0093,854.07,336.1079" style="stroke:#181818;stroke-width:1.0;"/></g><!--reverse link overarch_dataModel_processModelNode to overarch_dataModel_process--><g id="link_overarch_dataModel_processModelNode_overarch_dataModel_process"><path codeLine="52" d="M614,617.6679 C614,637.8079 614,648.8779 614,669.0079 " fill="none" id="overarch_dataModel_processModelNode-backto-overarch_dataModel_process" style="stroke:#181818;stroke-width:1.0;"/><polygon fill="none" points="614,599.6679,608,617.6679,620,617.6679,614,599.6679" style="stroke:#181818;stroke-width:1.0;"/></g><!--reverse link overarch_dataModel_processModelElement to overarch_dataModel_processModelNode--><g id="link_overarch_dataModel_processModelElement_overarch_dataModel_processModelNode"><path codeLine="53" d="M849.2791,470.4708 C793.4291,495.1808 721.87,526.8379 666.09,551.5279 " fill="none" id="overarch_dataModel_processModelElement-backto-overarch_dataModel_processModelNode" style="stroke:#181818;stroke-width:1.0;"/><polygon fill="none" points="865.74,463.1879,846.8515,464.9838,851.7068,475.9577,865.74,463.1879" style="stroke:#181818;stroke-width:1.0;"/></g><!--reverse link overarch_dataModel_modelElement to overarch_dataModel_processModelElement--><g id="link_overarch_dataModel_modelElement_overarch_dataModel_processModelElement"><path codeLine="54" d="M918,354.1079 C918,379.8379 918,393.7879 918,414.9979 " fill="none" id="overarch_dataModel_modelElement-backto-overarch_dataModel_processModelElement" style="stroke:#181818;stroke-width:1.0;"/><polygon fill="none" points="918,336.1079,912,354.1079,924,354.1079,918,336.1079" style="stroke:#181818;stroke-width:1.0;"/></g><!--reverse link overarch_dataModel_processModelNode to overarch_dataModel_decision--><g id="link_overarch_dataModel_processModelNode_overarch_dataModel_decision"><path codeLine="55" d="M685.3776,606.6574 C736.7576,628.3074 796.03,653.2979 843.7,673.3979 " fill="none" id="overarch_dataModel_processModelNode-backto-overarch_dataModel_decision" style="stroke:#181818;stroke-width:1.0;"/><polygon fill="none" points="668.79,599.6679,683.0477,612.1866,687.7074,601.1282,668.79,599.6679" style="stroke:#181818;stroke-width:1.0;"/></g><!--reverse link overarch_dataModel_modelElement to overarch_dataModel_modelRelation--><g id="link_overarch_dataModel_modelElement_overarch_dataModel_modelRelation"><path codeLine="56" d="M992.8944,346.4185 C1019.8544,365.2585 1036.82,377.1279 1063.79,395.9779 " fill="none" id="overarch_dataModel_modelElement-backto-overarch_dataModel_modelRelation" style="stroke:#181818;stroke-width:1.0;"/><polygon fill="none" points="978.14,336.1079,989.4575,351.3366,996.3313,341.5003,978.14,336.1079" style="stroke:#181818;stroke-width:1.0;"/></g><!--reverse link overarch_dataModel_processModelRelation to overarch_dataModel_roleIn--><g id="link_overarch_dataModel_processModelRelation_overarch_dataModel_roleIn"><path codeLine="57" d="M1304.4476,605.3162 C1358.7276,623.3962 1418.46,643.9479 1485,669.0679 C1490.8,671.2579 1496.9,673.6579 1502.86,676.0579 " fill="none" id="overarch_dataModel_processModelRelation-backto-overarch_dataModel_roleIn" style="stroke:#181818;stroke-width:1.0;"/><polygon fill="none" points="1287.37,599.6279,1302.5514,611.0088,1306.3437,599.6237,1287.37,599.6279" style="stroke:#181818;stroke-width:1.0;"/></g><!--reverse link overarch_dataModel_processModelRelation to overarch_dataModel_versionOf--><g id="link_overarch_dataModel_processModelRelation_overarch_dataModel_versionOf"><path codeLine="58" d="M1322.7167,599.5338 C1400.1267,616.8338 1497.95,640.0779 1597,669.0679 C1602.67,670.7279 1608.56,672.5679 1614.4,674.4779 " fill="none" id="overarch_dataModel_processModelRelation-backto-overarch_dataModel_versionOf" style="stroke:#181818;stroke-width:1.0;"/><polygon fill="none" points="1305.15,595.6079,1321.408,605.3894,1324.0253,593.6783,1305.15,595.6079" style="stroke:#181818;stroke-width:1.0;"/></g><!--reverse link overarch_dataModel_technicalElement to overarch_dataModel_artifact--><g id="link_overarch_dataModel_technicalElement_overarch_dataModel_artifact"><path codeLine="59" d="M78,627.3579 C78,646.2979 78,651.6779 78,668.7379 " fill="none" id="overarch_dataModel_technicalElement-backto-overarch_dataModel_artifact" style="stroke:#181818;stroke-width:1.0;"/><polygon fill="none" points="78,609.3579,72,627.3579,84,627.3579,78,609.3579" style="stroke:#181818;stroke-width:1.0;"/></g><!--reverse link overarch_dataModel_processModelNode to overarch_dataModel_requirement--><g id="link_overarch_dataModel_processModelNode_overarch_dataModel_requirement"><path codeLine="60" d="M654.9112,611.3182 C678.6312,631.4582 699.15,648.8779 722.85,669.0079 " fill="none" id="overarch_dataModel_processModelNode-backto-overarch_dataModel_requirement" style="stroke:#181818;stroke-width:1.0;"/><polygon fill="none" points="641.19,599.6679,651.0278,615.8919,658.7946,606.7445,641.19,599.6679" style="stroke:#181818;stroke-width:1.0;"/></g><!--reverse link overarch_dataModel_processModelRelation to overarch_dataModel_requiredFor--><g id="link_overarch_dataModel_processModelRelation_overarch_dataModel_requiredFor"><path codeLine="61" d="M1193.3739,615.0025 C1180.9939,635.1425 1172.55,648.8779 1160.17,669.0079 " fill="none" id="overarch_dataModel_processModelRelation-backto-overarch_dataModel_requiredFor" style="stroke:#181818;stroke-width:1.0;"/><polygon fill="none" points="1202.8,599.6679,1188.2624,611.8604,1198.4854,618.1445,1202.8,599.6679" style="stroke:#181818;stroke-width:1.0;"/></g><!--reverse link overarch_dataModel_processModelNode to overarch_dataModel_capability--><g id="link_overarch_dataModel_processModelNode_overarch_dataModel_capability"><path codeLine="62" d="M544.2989,606.8362 C496.3889,627.6362 443.07,650.7879 396.62,670.9579 " fill="none" id="overarch_dataModel_processModelNode-backto-overarch_dataModel_capability" style="stroke:#181818;stroke-width:1.0;"/><polygon fill="none" points="560.81,599.6679,541.9095,601.3325,546.6883,612.3399,560.81,599.6679" style="stroke:#181818;stroke-width:1.0;"/></g><!--reverse link overarch_dataModel_processModelRelation to overarch_dataModel_artifactOf--><g id="link_overarch_dataModel_processModelRelation_overarch_dataModel_artifactOf"><path codeLine="63" d="M1240.6261,615.0025 C1253.0061,635.1425 1261.45,648.8779 1273.83,669.0079 " fill="none" id="overarch_dataModel_processModelRelation-backto-overarch_dataModel_artifactOf" style="stroke:#181818;stroke-width:1.0;"/><polygon fill="none" points="1231.2,599.6679,1235.5146,618.1445,1245.7376,611.8604,1231.2,599.6679" style="stroke:#181818;stroke-width:1.0;"/></g><!--reverse link overarch_dataModel_processModelElement to overarch_dataModel_processModelRelation--><g id="link_overarch_dataModel_processModelElement_overarch_dataModel_processModelRelation"><path codeLine="64" d="M985.8155,470.5724 C1040.7455,495.2824 1110.9,526.8379 1165.77,551.5279 " fill="none" id="overarch_dataModel_processModelElement-backto-overarch_dataModel_processModelRelation" style="stroke:#181818;stroke-width:1.0;"/><polygon fill="none" points="969.4,463.1879,983.3541,476.0442,988.277,465.1005,969.4,463.1879" style="stroke:#181818;stroke-width:1.0;"/></g><!--reverse link overarch_dataModel_processModelNode to overarch_dataModel_artifact--><g id="link_overarch_dataModel_processModelNode_overarch_dataModel_artifact"><path codeLine="65" d="M517.299,589.8293 C421.649,603.7993 273.92,628.7579 136,669.0679 C130.18,670.7679 124.13,672.8279 118.23,675.0079 " fill="none" id="overarch_dataModel_processModelNode-backto-overarch_dataModel_artifact" style="stroke:#181818;stroke-width:1.0;"/><polygon fill="none" points="535.11,587.2279,516.4318,583.8923,518.1661,595.7663,535.11,587.2279" style="stroke:#181818;stroke-width:1.0;"/></g><!--reverse link overarch_dataModel_processModelRelation to overarch_dataModel_outputOf--><g id="link_overarch_dataModel_processModelRelation_overarch_dataModel_outputOf"><path codeLine="66" d="M1273.2363,608.567 C1308.6463,628.707 1344.09,648.8779 1379.48,669.0079 " fill="none" id="overarch_dataModel_processModelRelation-backto-overarch_dataModel_outputOf" style="stroke:#181818;stroke-width:1.0;"/><polygon fill="none" points="1257.59,599.6679,1270.2699,613.7824,1276.2027,603.3516,1257.59,599.6679" style="stroke:#181818;stroke-width:1.0;"/></g><!--SRC=[hLRBJiCm4BpxAopkgU2Ak8B4eO2u8bIvpgQrciJ5Tgcgmh_ZD76oVTXnPIwLOizkPsTdRHjXIg1lIdBGcavb3YLzBA62scX2UCdiwWrJHXICcnlAD9NVe9ZYordE33i4pDm-tV-w454NKbNC25dxeX2a2MHpRLIJfCjGDQ0CMYw-70TGnvVk2QKstqO9iwFtT0MxhLGv_RYTJEu-xPvX2stNDHYtXkYkDoQJXP-htNyjBl5SjzfbKNmxyFI8Ti-2ipMRYzBIzyKFY4jK3F1bBJWRfT43iNJDOYEFKQ9Ud2cqgkMsX7m1lfmz01LaKJhWW6uR1IZusWW5UMQjuOjoc2UfKAJpOA293XBJnzh-nZJnnVwCPrDG1aS1PtpliAWskJ5XUxQ0jgvZ0YF_YAMN9MJ2Ix7PVWuCQaYmAgHKd4BLiJJMheMIrJ3bZNyb-ZnrL6WQ40JfaGCN8VEw_KirZOmVeAdBGVEpgRFByjAgFPnnnI8_-gnP1NqGEHt2W7qwHEkVOFyUVh8iPYH8pDZualKd2Gbevml6DmA97JLVikxOJwe6NNDarDWn-Zem6RiFWn8bTwa3aiXRBiKvrRM98liVhC_DTvhCeMPTPSNs_4rEquywYNaM-BAucpH9O7Jifgipl0cIE0tlgsHAmslZFqSara_1AcFRDrgZUtVy0G00]--></g></svg>