<svg xmlns="http://www.w3.org/2000/svg" xmlns:xlink="http://www.w3.org/1999/xlink" contentStyleType="text/css" height="534px" preserveAspectRatio="none" style="width:907px;height:534px;background:#FFFFFF;" version="1.1" viewBox="0 0 907 534" width="907px" zoomAndPan="magnify"><defs/><g><text fill="#000000" font-family="sans-serif" font-size="14" font-weight="bold" lengthAdjust="spacing" textLength="168" x="362.75" y="24.9659">Process Model Elements</text><!--class overarch_dataModel_element--><g id="elem_overarch_dataModel_element"><rect codeLine="9" fill="#F1F1F1" height="48" id="overarch_dataModel_element" rx="2.5" ry="2.5" style="stroke:#181818;stroke-width:0.5;" width="82" x="523.5" y="47.0679"/><ellipse cx="538.5" cy="63.0679" fill="#A9DCDF" rx="11" ry="11" style="stroke:#181818;stroke-width:1.0;"/><path d="M538.6094,58.4117 L537.4531,63.4898 L539.7813,63.4898 L538.6094,58.4117 Z M537.125,56.1773 L540.1094,56.1773 L543.4688,68.5679 L541.0156,68.5679 L540.25,65.5054 L536.9688,65.5054 L536.2188,68.5679 L533.7813,68.5679 L537.125,56.1773 Z " fill="#000000"/><text fill="#000000" font-family="sans-serif" font-size="14" font-style="italic" lengthAdjust="spacing" textLength="50" x="552.5" y="68.4999">element</text><line style="stroke:#181818;stroke-width:0.5;" x1="524.5" x2="604.5" y1="79.0679" y2="79.0679"/><line style="stroke:#181818;stroke-width:0.5;" x1="524.5" x2="604.5" y1="87.0679" y2="87.0679"/></g><!--class overarch_dataModel_information--><g id="elem_overarch_dataModel_information"><rect codeLine="10" fill="#F1F1F1" height="48" id="overarch_dataModel_information" rx="2.5" ry="2.5" style="stroke:#181818;stroke-width:0.5;" width="111" x="7" y="479.0679"/><ellipse cx="22" cy="495.0679" fill="#ADD1B2" rx="11" ry="11" style="stroke:#181818;stroke-width:1.0;"/><path d="M24.9688,500.7085 Q24.3906,501.0054 23.75,501.146 Q23.1094,501.3023 22.4063,501.3023 Q19.9063,501.3023 18.5781,499.6617 Q17.2656,498.0054 17.2656,494.8804 Q17.2656,491.7554 18.5781,490.0992 Q19.9063,488.4429 22.4063,488.4429 Q23.1094,488.4429 23.75,488.5992 Q24.4063,488.7554 24.9688,489.0523 L24.9688,491.771 Q24.3438,491.1929 23.75,490.9273 Q23.1563,490.646 22.5313,490.646 Q21.1875,490.646 20.5,491.7242 Q19.8125,492.7867 19.8125,494.8804 Q19.8125,496.9742 20.5,498.0523 Q21.1875,499.1148 22.5313,499.1148 Q23.1563,499.1148 23.75,498.8492 Q24.3438,498.5679 24.9688,497.9898 L24.9688,500.7085 Z " fill="#000000"/><text fill="#000000" font-family="sans-serif" font-size="14" lengthAdjust="spacing" textLength="79" x="36" y="500.4999">information</text><line style="stroke:#181818;stroke-width:0.5;" x1="8" x2="117" y1="511.0679" y2="511.0679"/><line style="stroke:#181818;stroke-width:0.5;" x1="8" x2="117" y1="519.0679" y2="519.0679"/></g><!--class overarch_dataModel_processModelElement--><g id="elem_overarch_dataModel_processModelElement"><rect codeLine="11" fill="#F1F1F1" height="48" id="overarch_dataModel_processModelElement" rx="2.5" ry="2.5" style="stroke:#181818;stroke-width:0.5;" width="176" x="476.5" y="263.0679"/><ellipse cx="491.5" cy="279.0679" fill="#A9DCDF" rx="11" ry="11" style="stroke:#181818;stroke-width:1.0;"/><path d="M491.6094,274.4117 L490.4531,279.4898 L492.7813,279.4898 L491.6094,274.4117 Z M490.125,272.1773 L493.1094,272.1773 L496.4688,284.5679 L494.0156,284.5679 L493.25,281.5054 L489.9688,281.5054 L489.2188,284.5679 L486.7813,284.5679 L490.125,272.1773 Z " fill="#000000"/><text fill="#000000" font-family="sans-serif" font-size="14" font-style="italic" lengthAdjust="spacing" textLength="144" x="505.5" y="284.4999">process-model-element</text><line style="stroke:#181818;stroke-width:0.5;" x1="477.5" x2="651.5" y1="295.0679" y2="295.0679"/><line style="stroke:#181818;stroke-width:0.5;" x1="477.5" x2="651.5" y1="303.0679" y2="303.0679"/></g><!--class overarch_dataModel_capability--><g id="elem_overarch_dataModel_capability"><rect codeLine="12" fill="#F1F1F1" height="48" id="overarch_dataModel_capability" rx="2.5" ry="2.5" style="stroke:#181818;stroke-width:0.5;" width="97" x="153" y="479.0679"/><ellipse cx="168" cy="495.0679" fill="#ADD1B2" rx="11" ry="11" style="stroke:#181818;stroke-width:1.0;"/><path d="M170.9688,500.7085 Q170.3906,501.0054 169.75,501.146 Q169.1094,501.3023 168.4063,501.3023 Q165.9063,501.3023 164.5781,499.6617 Q163.2656,498.0054 163.2656,494.8804 Q163.2656,491.7554 164.5781,490.0992 Q165.9063,488.4429 168.4063,488.4429 Q169.1094,488.4429 169.75,488.5992 Q170.4063,488.7554 170.9688,489.0523 L170.9688,491.771 Q170.3438,491.1929 169.75,490.9273 Q169.1563,490.646 168.5313,490.646 Q167.1875,490.646 166.5,491.7242 Q165.8125,492.7867 165.8125,494.8804 Q165.8125,496.9742 166.5,498.0523 Q167.1875,499.1148 168.5313,499.1148 Q169.1563,499.1148 169.75,498.8492 Q170.3438,498.5679 170.9688,497.9898 L170.9688,500.7085 Z " fill="#000000"/><text fill="#000000" font-family="sans-serif" font-size="14" lengthAdjust="spacing" textLength="65" x="182" y="500.4999">capability</text><line style="stroke:#181818;stroke-width:0.5;" x1="154" x2="249" y1="511.0679" y2="511.0679"/><line style="stroke:#181818;stroke-width:0.5;" x1="154" x2="249" y1="519.0679" y2="519.0679"/></g><!--class overarch_dataModel_knowledge--><g id="elem_overarch_dataModel_knowledge"><rect codeLine="13" fill="#F1F1F1" height="48" id="overarch_dataModel_knowledge" rx="2.5" ry="2.5" style="stroke:#181818;stroke-width:0.5;" width="105" x="285" y="479.0679"/><ellipse cx="300" cy="495.0679" fill="#ADD1B2" rx="11" ry="11" style="stroke:#181818;stroke-width:1.0;"/><path d="M302.9688,500.7085 Q302.3906,501.0054 301.75,501.146 Q301.1094,501.3023 300.4063,501.3023 Q297.9063,501.3023 296.5781,499.6617 Q295.2656,498.0054 295.2656,494.8804 Q295.2656,491.7554 296.5781,490.0992 Q297.9063,488.4429 300.4063,488.4429 Q301.1094,488.4429 301.75,488.5992 Q302.4063,488.7554 302.9688,489.0523 L302.9688,491.771 Q302.3438,491.1929 301.75,490.9273 Q301.1563,490.646 300.5313,490.646 Q299.1875,490.646 298.5,491.7242 Q297.8125,492.7867 297.8125,494.8804 Q297.8125,496.9742 298.5,498.0523 Q299.1875,499.1148 300.5313,499.1148 Q301.1563,499.1148 301.75,498.8492 Q302.3438,498.5679 302.9688,497.9898 L302.9688,500.7085 Z " fill="#000000"/><text fill="#000000" font-family="sans-serif" font-size="14" lengthAdjust="spacing" textLength="73" x="314" y="500.4999">knowledge</text><line style="stroke:#181818;stroke-width:0.5;" x1="286" x2="389" y1="511.0679" y2="511.0679"/><line style="stroke:#181818;stroke-width:0.5;" x1="286" x2="389" y1="519.0679" y2="519.0679"/></g><!--class overarch_dataModel_processModelNode--><g id="elem_overarch_dataModel_processModelNode"><rect codeLine="14" fill="#F1F1F1" height="48" id="overarch_dataModel_processModelNode" rx="2.5" ry="2.5" style="stroke:#181818;stroke-width:0.5;" width="157" x="389" y="371.0679"/><ellipse cx="404" cy="387.0679" fill="#A9DCDF" rx="11" ry="11" style="stroke:#181818;stroke-width:1.0;"/><path d="M404.1094,382.4117 L402.9531,387.4898 L405.2813,387.4898 L404.1094,382.4117 Z M402.625,380.1773 L405.6094,380.1773 L408.9688,392.5679 L406.5156,392.5679 L405.75,389.5054 L402.4688,389.5054 L401.7188,392.5679 L399.2813,392.5679 L402.625,380.1773 Z " fill="#000000"/><text fill="#000000" font-family="sans-serif" font-size="14" font-style="italic" lengthAdjust="spacing" textLength="125" x="418" y="392.4999">process-model-node</text><line style="stroke:#181818;stroke-width:0.5;" x1="390" x2="545" y1="403.0679" y2="403.0679"/><line style="stroke:#181818;stroke-width:0.5;" x1="390" x2="545" y1="411.0679" y2="411.0679"/></g><!--class overarch_dataModel_processModelRelation--><g id="elem_overarch_dataModel_processModelRelation"><rect codeLine="15" fill="#F1F1F1" height="48" id="overarch_dataModel_processModelRelation" rx="2.5" ry="2.5" style="stroke:#181818;stroke-width:0.5;" width="176" x="621.5" y="371.0679"/><ellipse cx="636.5" cy="387.0679" fill="#A9DCDF" rx="11" ry="11" style="stroke:#181818;stroke-width:1.0;"/><path d="M636.6094,382.4117 L635.4531,387.4898 L637.7813,387.4898 L636.6094,382.4117 Z M635.125,380.1773 L638.1094,380.1773 L641.4688,392.5679 L639.0156,392.5679 L638.25,389.5054 L634.9688,389.5054 L634.2188,392.5679 L631.7813,392.5679 L635.125,380.1773 Z " fill="#000000"/><text fill="#000000" font-family="sans-serif" font-size="14" font-style="italic" lengthAdjust="spacing" textLength="144" x="650.5" y="392.4999">process-model-relation</text><line style="stroke:#181818;stroke-width:0.5;" x1="622.5" x2="796.5" y1="403.0679" y2="403.0679"/><line style="stroke:#181818;stroke-width:0.5;" x1="622.5" x2="796.5" y1="411.0679" y2="411.0679"/></g><!--class overarch_dataModel_process--><g id="elem_overarch_dataModel_process"><rect codeLine="16" fill="#F1F1F1" height="48" id="overarch_dataModel_process" rx="2.5" ry="2.5" style="stroke:#181818;stroke-width:0.5;" width="84" x="425.5" y="479.0679"/><ellipse cx="440.5" cy="495.0679" fill="#ADD1B2" rx="11" ry="11" style="stroke:#181818;stroke-width:1.0;"/><path d="M443.4688,500.7085 Q442.8906,501.0054 442.25,501.146 Q441.6094,501.3023 440.9063,501.3023 Q438.4063,501.3023 437.0781,499.6617 Q435.7656,498.0054 435.7656,494.8804 Q435.7656,491.7554 437.0781,490.0992 Q438.4063,488.4429 440.9063,488.4429 Q441.6094,488.4429 442.25,488.5992 Q442.9063,488.7554 443.4688,489.0523 L443.4688,491.771 Q442.8438,491.1929 442.25,490.9273 Q441.6563,490.646 441.0313,490.646 Q439.6875,490.646 439,491.7242 Q438.3125,492.7867 438.3125,494.8804 Q438.3125,496.9742 439,498.0523 Q439.6875,499.1148 441.0313,499.1148 Q441.6563,499.1148 442.25,498.8492 Q442.8438,498.5679 443.4688,497.9898 L443.4688,500.7085 Z " fill="#000000"/><text fill="#000000" font-family="sans-serif" font-size="14" lengthAdjust="spacing" textLength="52" x="454.5" y="500.4999">process</text><line style="stroke:#181818;stroke-width:0.5;" x1="426.5" x2="508.5" y1="511.0679" y2="511.0679"/><line style="stroke:#181818;stroke-width:0.5;" x1="426.5" x2="508.5" y1="519.0679" y2="519.0679"/></g><!--class overarch_dataModel_modelNode--><g id="elem_overarch_dataModel_modelNode"><rect codeLine="17" fill="#F1F1F1" height="48" id="overarch_dataModel_modelNode" rx="2.5" ry="2.5" style="stroke:#181818;stroke-width:0.5;" width="106" x="335.5" y="263.0679"/><ellipse cx="350.5" cy="279.0679" fill="#A9DCDF" rx="11" ry="11" style="stroke:#181818;stroke-width:1.0;"/><path d="M350.6094,274.4117 L349.4531,279.4898 L351.7813,279.4898 L350.6094,274.4117 Z M349.125,272.1773 L352.1094,272.1773 L355.4688,284.5679 L353.0156,284.5679 L352.25,281.5054 L348.9688,281.5054 L348.2188,284.5679 L345.7813,284.5679 L349.125,272.1773 Z " fill="#000000"/><text fill="#000000" font-family="sans-serif" font-size="14" font-style="italic" lengthAdjust="spacing" textLength="74" x="364.5" y="284.4999">model-node</text><line style="stroke:#181818;stroke-width:0.5;" x1="336.5" x2="440.5" y1="295.0679" y2="295.0679"/><line style="stroke:#181818;stroke-width:0.5;" x1="336.5" x2="440.5" y1="303.0679" y2="303.0679"/></g><!--class overarch_dataModel_requirement--><g id="elem_overarch_dataModel_requirement"><rect codeLine="18" fill="#F1F1F1" height="48" id="overarch_dataModel_requirement" rx="2.5" ry="2.5" style="stroke:#181818;stroke-width:0.5;" width="117" x="545" y="479.0679"/><ellipse cx="560" cy="495.0679" fill="#ADD1B2" rx="11" ry="11" style="stroke:#181818;stroke-width:1.0;"/><path d="M562.9688,500.7085 Q562.3906,501.0054 561.75,501.146 Q561.1094,501.3023 560.4063,501.3023 Q557.9063,501.3023 556.5781,499.6617 Q555.2656,498.0054 555.2656,494.8804 Q555.2656,491.7554 556.5781,490.0992 Q557.9063,488.4429 560.4063,488.4429 Q561.1094,488.4429 561.75,488.5992 Q562.4063,488.7554 562.9688,489.0523 L562.9688,491.771 Q562.3438,491.1929 561.75,490.9273 Q561.1563,490.646 560.5313,490.646 Q559.1875,490.646 558.5,491.7242 Q557.8125,492.7867 557.8125,494.8804 Q557.8125,496.9742 558.5,498.0523 Q559.1875,499.1148 560.5313,499.1148 Q561.1563,499.1148 561.75,498.8492 Q562.3438,498.5679 562.9688,497.9898 L562.9688,500.7085 Z " fill="#000000"/><text fill="#000000" font-family="sans-serif" font-size="14" lengthAdjust="spacing" textLength="85" x="574" y="500.4999">requirement</text><line style="stroke:#181818;stroke-width:0.5;" x1="546" x2="661" y1="511.0679" y2="511.0679"/><line style="stroke:#181818;stroke-width:0.5;" x1="546" x2="661" y1="519.0679" y2="519.0679"/></g><!--class overarch_dataModel_modelRelation--><g id="elem_overarch_dataModel_modelRelation"><rect codeLine="19" fill="#F1F1F1" height="48" id="overarch_dataModel_modelRelation" rx="2.5" ry="2.5" style="stroke:#181818;stroke-width:0.5;" width="125" x="687" y="263.0679"/><ellipse cx="702" cy="279.0679" fill="#A9DCDF" rx="11" ry="11" style="stroke:#181818;stroke-width:1.0;"/><path d="M702.1094,274.4117 L700.9531,279.4898 L703.2813,279.4898 L702.1094,274.4117 Z M700.625,272.1773 L703.6094,272.1773 L706.9688,284.5679 L704.5156,284.5679 L703.75,281.5054 L700.4688,281.5054 L699.7188,284.5679 L697.2813,284.5679 L700.625,272.1773 Z " fill="#000000"/><text fill="#000000" font-family="sans-serif" font-size="14" font-style="italic" lengthAdjust="spacing" textLength="93" x="716" y="284.4999">model-relation</text><line style="stroke:#181818;stroke-width:0.5;" x1="688" x2="811" y1="295.0679" y2="295.0679"/><line style="stroke:#181818;stroke-width:0.5;" x1="688" x2="811" y1="303.0679" y2="303.0679"/></g><!--class overarch_dataModel_modelElement--><g id="elem_overarch_dataModel_modelElement"><rect codeLine="20" fill="#F1F1F1" height="48" id="overarch_dataModel_modelElement" rx="2.5" ry="2.5" style="stroke:#181818;stroke-width:0.5;" width="125" x="502" y="155.0679"/><ellipse cx="517" cy="171.0679" fill="#A9DCDF" rx="11" ry="11" style="stroke:#181818;stroke-width:1.0;"/><path d="M517.1094,166.4117 L515.9531,171.4898 L518.2813,171.4898 L517.1094,166.4117 Z M515.625,164.1773 L518.6094,164.1773 L521.9688,176.5679 L519.5156,176.5679 L518.75,173.5054 L515.4688,173.5054 L514.7188,176.5679 L512.2813,176.5679 L515.625,164.1773 Z " fill="#000000"/><text fill="#000000" font-family="sans-serif" font-size="14" font-style="italic" lengthAdjust="spacing" textLength="93" x="531" y="176.4999">model-element</text><line style="stroke:#181818;stroke-width:0.5;" x1="503" x2="626" y1="187.0679" y2="187.0679"/><line style="stroke:#181818;stroke-width:0.5;" x1="503" x2="626" y1="195.0679" y2="195.0679"/></g><!--class overarch_dataModel_decision--><g id="elem_overarch_dataModel_decision"><rect codeLine="21" fill="#F1F1F1" height="48" id="overarch_dataModel_decision" rx="2.5" ry="2.5" style="stroke:#181818;stroke-width:0.5;" width="88" x="697.5" y="479.0679"/><ellipse cx="712.5" cy="495.0679" fill="#ADD1B2" rx="11" ry="11" style="stroke:#181818;stroke-width:1.0;"/><path d="M715.4688,500.7085 Q714.8906,501.0054 714.25,501.146 Q713.6094,501.3023 712.9063,501.3023 Q710.4063,501.3023 709.0781,499.6617 Q707.7656,498.0054 707.7656,494.8804 Q707.7656,491.7554 709.0781,490.0992 Q710.4063,488.4429 712.9063,488.4429 Q713.6094,488.4429 714.25,488.5992 Q714.9063,488.7554 715.4688,489.0523 L715.4688,491.771 Q714.8438,491.1929 714.25,490.9273 Q713.6563,490.646 713.0313,490.646 Q711.6875,490.646 711,491.7242 Q710.3125,492.7867 710.3125,494.8804 Q710.3125,496.9742 711,498.0523 Q711.6875,499.1148 713.0313,499.1148 Q713.6563,499.1148 714.25,498.8492 Q714.8438,498.5679 715.4688,497.9898 L715.4688,500.7085 Z " fill="#000000"/><text fill="#000000" font-family="sans-serif" font-size="14" lengthAdjust="spacing" textLength="56" x="726.5" y="500.4999">decision</text><line style="stroke:#181818;stroke-width:0.5;" x1="698.5" x2="784.5" y1="511.0679" y2="511.0679"/><line style="stroke:#181818;stroke-width:0.5;" x1="698.5" x2="784.5" y1="519.0679" y2="519.0679"/></g><!--class overarch_dataModel_artifact--><g id="elem_overarch_dataModel_artifact"><rect codeLine="22" fill="#F1F1F1" height="48" id="overarch_dataModel_artifact" rx="2.5" ry="2.5" style="stroke:#181818;stroke-width:0.5;" width="80" x="820.5" y="479.0679"/><ellipse cx="835.5" cy="495.0679" fill="#ADD1B2" rx="11" ry="11" style="stroke:#181818;stroke-width:1.0;"/><path d="M838.4688,500.7085 Q837.8906,501.0054 837.25,501.146 Q836.6094,501.3023 835.9063,501.3023 Q833.4063,501.3023 832.0781,499.6617 Q830.7656,498.0054 830.7656,494.8804 Q830.7656,491.7554 832.0781,490.0992 Q833.4063,488.4429 835.9063,488.4429 Q836.6094,488.4429 837.25,488.5992 Q837.9063,488.7554 838.4688,489.0523 L838.4688,491.771 Q837.8438,491.1929 837.25,490.9273 Q836.6563,490.646 836.0313,490.646 Q834.6875,490.646 834,491.7242 Q833.3125,492.7867 833.3125,494.8804 Q833.3125,496.9742 834,498.0523 Q834.6875,499.1148 836.0313,499.1148 Q836.6563,499.1148 837.25,498.8492 Q837.8438,498.5679 838.4688,497.9898 L838.4688,500.7085 Z " fill="#000000"/><text fill="#000000" font-family="sans-serif" font-size="14" lengthAdjust="spacing" textLength="48" x="849.5" y="500.4999">artifact</text><line style="stroke:#181818;stroke-width:0.5;" x1="821.5" x2="899.5" y1="511.0679" y2="511.0679"/><line style="stroke:#181818;stroke-width:0.5;" x1="821.5" x2="899.5" y1="519.0679" y2="519.0679"/></g><!--reverse link overarch_dataModel_modelNode to overarch_dataModel_processModelNode--><g id="link_overarch_dataModel_modelNode_overarch_dataModel_processModelNode"><path codeLine="23" d="M416.3955,325.5012 C429.5555,343.1612 436.9,353.0079 450.12,370.7479 " fill="none" id="overarch_dataModel_modelNode-backto-overarch_dataModel_processModelNode" style="stroke:#181818;stroke-width:1.0;"/><polygon fill="none" points="405.64,311.0679,411.5844,329.0864,421.2066,321.916,405.64,311.0679" style="stroke:#181818;stroke-width:1.0;"/></g><!--reverse link overarch_dataModel_processModelNode to overarch_dataModel_knowledge--><g id="link_overarch_dataModel_processModelNode_overarch_dataModel_knowledge"><path codeLine="24" d="M425.3418,430.4455 C403.6918,448.1055 387.86,461.0079 366.1,478.7479 " fill="none" id="overarch_dataModel_processModelNode-backto-overarch_dataModel_knowledge" style="stroke:#181818;stroke-width:1.0;"/><polygon fill="none" points="439.29,419.0679,421.5493,425.7961,429.1344,435.0949,439.29,419.0679" style="stroke:#181818;stroke-width:1.0;"/></g><!--reverse link overarch_dataModel_element to overarch_dataModel_modelElement--><g id="link_overarch_dataModel_element_overarch_dataModel_modelElement"><path codeLine="25" d="M564.5,113.0679 C564.5,130.7279 564.5,137.0079 564.5,154.7479 " fill="none" id="overarch_dataModel_element-backto-overarch_dataModel_modelElement" style="stroke:#181818;stroke-width:1.0;"/><polygon fill="none" points="564.5,95.0679,558.5,113.0679,570.5,113.0679,564.5,95.0679" style="stroke:#181818;stroke-width:1.0;"/></g><!--reverse link overarch_dataModel_processModelNode to overarch_dataModel_information--><g id="link_overarch_dataModel_processModelNode_overarch_dataModel_information"><path codeLine="26" d="M371.4847,418.4371 C303.9847,434.4271 221.7,454.7379 135.5,479.0679 C129.87,480.6579 124.02,482.3779 118.2,484.1379 " fill="none" id="overarch_dataModel_processModelNode-backto-overarch_dataModel_information" style="stroke:#181818;stroke-width:1.0;"/><polygon fill="none" points="389,414.2879,370.1017,412.5987,372.8678,424.2755,389,414.2879" style="stroke:#181818;stroke-width:1.0;"/></g><!--reverse link overarch_dataModel_modelRelation to overarch_dataModel_processModelRelation--><g id="link_overarch_dataModel_modelRelation_overarch_dataModel_processModelRelation"><path codeLine="27" d="M734.4684,327.9101 C727.8084,345.5701 724.99,353.0079 718.3,370.7479 " fill="none" id="overarch_dataModel_modelRelation-backto-overarch_dataModel_processModelRelation" style="stroke:#181818;stroke-width:1.0;"/><polygon fill="none" points="740.82,311.0679,728.8544,325.7929,740.0825,330.0272,740.82,311.0679" style="stroke:#181818;stroke-width:1.0;"/></g><!--reverse link overarch_dataModel_modelElement to overarch_dataModel_modelNode--><g id="link_overarch_dataModel_modelElement_overarch_dataModel_modelNode"><path codeLine="28" d="M510.8909,212.355 C481.4709,230.075 456.4,245.1779 426.92,262.9279 " fill="none" id="overarch_dataModel_modelElement-backto-overarch_dataModel_modelNode" style="stroke:#181818;stroke-width:1.0;"/><polygon fill="none" points="526.31,203.0679,507.7952,207.2153,513.9866,217.4947,526.31,203.0679" style="stroke:#181818;stroke-width:1.0;"/></g><!--reverse link overarch_dataModel_processModelNode to overarch_dataModel_process--><g id="link_overarch_dataModel_processModelNode_overarch_dataModel_process"><path codeLine="29" d="M467.5,437.0679 C467.5,454.7279 467.5,461.0079 467.5,478.7479 " fill="none" id="overarch_dataModel_processModelNode-backto-overarch_dataModel_process" style="stroke:#181818;stroke-width:1.0;"/><polygon fill="none" points="467.5,419.0679,461.5,437.0679,473.5,437.0679,467.5,419.0679" style="stroke:#181818;stroke-width:1.0;"/></g><!--reverse link overarch_dataModel_processModelElement to overarch_dataModel_processModelNode--><g id="link_overarch_dataModel_processModelElement_overarch_dataModel_processModelNode"><path codeLine="30" d="M531.2985,324.3473 C515.1385,342.0073 505.07,353.0079 488.84,370.7479 " fill="none" id="overarch_dataModel_processModelElement-backto-overarch_dataModel_processModelNode" style="stroke:#181818;stroke-width:1.0;"/><polygon fill="none" points="543.45,311.0679,526.8721,320.2968,535.725,328.3978,543.45,311.0679" style="stroke:#181818;stroke-width:1.0;"/></g><!--reverse link overarch_dataModel_modelElement to overarch_dataModel_processModelElement--><g id="link_overarch_dataModel_modelElement_overarch_dataModel_processModelElement"><path codeLine="31" d="M564.5,221.0679 C564.5,238.7279 564.5,245.0079 564.5,262.7479 " fill="none" id="overarch_dataModel_modelElement-backto-overarch_dataModel_processModelElement" style="stroke:#181818;stroke-width:1.0;"/><polygon fill="none" points="564.5,203.0679,558.5,221.0679,570.5,221.0679,564.5,203.0679" style="stroke:#181818;stroke-width:1.0;"/></g><!--reverse link overarch_dataModel_processModelNode to overarch_dataModel_decision--><g id="link_overarch_dataModel_processModelNode_overarch_dataModel_decision"><path codeLine="32" d="M543.7375,425.5624 C595.0475,445.4124 651.21,467.1379 697.44,485.0279 " fill="none" id="overarch_dataModel_processModelNode-backto-overarch_dataModel_decision" style="stroke:#181818;stroke-width:1.0;"/><polygon fill="none" points="526.95,419.0679,541.5727,431.1583,545.9024,419.9666,526.95,419.0679" style="stroke:#181818;stroke-width:1.0;"/></g><!--reverse link overarch_dataModel_modelElement to overarch_dataModel_modelRelation--><g id="link_overarch_dataModel_modelElement_overarch_dataModel_modelRelation"><path codeLine="33" d="M620.2584,212.0158 C651.1884,229.7358 678.13,245.1779 709.12,262.9279 " fill="none" id="overarch_dataModel_modelElement-backto-overarch_dataModel_modelRelation" style="stroke:#181818;stroke-width:1.0;"/><polygon fill="none" points="604.64,203.0679,617.2758,217.222,623.2411,206.8097,604.64,203.0679" style="stroke:#181818;stroke-width:1.0;"/></g><!--reverse link overarch_dataModel_processModelNode to overarch_dataModel_requirement--><g id="link_overarch_dataModel_processModelNode_overarch_dataModel_requirement"><path codeLine="34" d="M511.2075,430.1327 C533.8675,447.7927 550.82,461.0079 573.58,478.7479 " fill="none" id="overarch_dataModel_processModelNode-backto-overarch_dataModel_requirement" style="stroke:#181818;stroke-width:1.0;"/><polygon fill="none" points="497.01,419.0679,507.5193,434.8652,514.8958,425.4002,497.01,419.0679" style="stroke:#181818;stroke-width:1.0;"/></g><!--reverse link overarch_dataModel_processModelNode to overarch_dataModel_capability--><g id="link_overarch_dataModel_processModelNode_overarch_dataModel_capability"><path codeLine="35" d="M393.0592,425.7324 C345.3892,444.7324 295.19,464.7279 250.19,482.6679 " fill="none" id="overarch_dataModel_processModelNode-backto-overarch_dataModel_capability" style="stroke:#181818;stroke-width:1.0;"/><polygon fill="none" points="409.78,419.0679,390.8377,420.1588,395.2807,431.306,409.78,419.0679" style="stroke:#181818;stroke-width:1.0;"/></g><!--reverse link overarch_dataModel_processModelElement to overarch_dataModel_processModelRelation--><g id="link_overarch_dataModel_processModelElement_overarch_dataModel_processModelRelation"><path codeLine="36" d="M610.4913,321.6906 C634.7313,339.4106 653.56,353.1779 677.85,370.9279 " fill="none" id="overarch_dataModel_processModelElement-backto-overarch_dataModel_processModelRelation" style="stroke:#181818;stroke-width:1.0;"/><polygon fill="none" points="595.96,311.0679,606.9504,326.5344,614.0322,316.8469,595.96,311.0679" style="stroke:#181818;stroke-width:1.0;"/></g><!--reverse link overarch_dataModel_processModelNode to overarch_dataModel_artifact--><g id="link_overarch_dataModel_processModelNode_overarch_dataModel_artifact"><path codeLine="37" d="M563.7127,415.9955 C632.3727,430.8555 716.74,451.0079 803.5,479.0679 C808.98,480.8379 814.69,482.8879 820.28,485.0179 " fill="none" id="overarch_dataModel_processModelNode-backto-overarch_dataModel_artifact" style="stroke:#181818;stroke-width:1.0;"/><polygon fill="none" points="546.12,412.1879,562.4435,421.8597,564.9819,410.1313,546.12,412.1879" style="stroke:#181818;stroke-width:1.0;"/></g><!--SRC=[hLNRJiCm37tFLqHxxn_mkaSGuWScB_KW8cb64eOGsx_JRibcZUQ2qfTAbS-npx5Trqkla3zR8z0v_cXwL7ojKEFW7MEmTTw2y5me6CChl4HM71mt1xHWnTkc1mzduYQ4-S-91O8STiPgyD8CAHA1JCJxalkBj4vFuAuW883FB-i_OWJiOIkLzDyf_Wr1QE-3-LBOlsAATGMKzG_ZiqRyq_WePxEeigsb6Ly2bXWBuG9xJaRPZAOk0ilYnwUqsG4IIBfkoRQ-zpkVfh1BUdw9UXJIPOh7EA60zN8tbazHOdoYP5lvSEowcirXDTkLIdRTPfRvmbDashGc5UGgiEA8Q_eImQmqwgorvku68AiyNYqJr_zDjCJSulgtjJath6efv9OqvRdz59QSsY8Mu-Nu1G00]--></g></svg>