<svg xmlns="http://www.w3.org/2000/svg" xmlns:xlink="http://www.w3.org/1999/xlink" contentStyleType="text/css" height="724px" preserveAspectRatio="none" style="width:3107px;height:724px;background:#FFFFFF;" version="1.1" viewBox="0 0 3107 724" width="3107px" zoomAndPan="magnify"><defs/><g><text fill="#000000" font-family="sans-serif" font-size="14" font-weight="bold" lengthAdjust="spacing" textLength="168" x="1462.75" y="24.9659">Process Model Elements</text><!--class overarch_dataModel_control--><g id="elem_overarch_dataModel_control"><rect codeLine="9" fill="#F1F1F1" height="48" id="overarch_dataModel_control" rx="2.5" ry="2.5" style="stroke:#181818;stroke-width:0.5;" width="79" x="153.5" y="669.0679"/><ellipse cx="168.5" cy="685.0679" fill="#ADD1B2" rx="11" ry="11" style="stroke:#181818;stroke-width:1.0;"/><path d="M171.4688,690.7085 Q170.8906,691.0054 170.25,691.146 Q169.6094,691.3023 168.9063,691.3023 Q166.4063,691.3023 165.0781,689.6617 Q163.7656,688.0054 163.7656,684.8804 Q163.7656,681.7554 165.0781,680.0992 Q166.4063,678.4429 168.9063,678.4429 Q169.6094,678.4429 170.25,678.5992 Q170.9063,678.7554 171.4688,679.0523 L171.4688,681.771 Q170.8438,681.1929 170.25,680.9273 Q169.6563,680.646 169.0313,680.646 Q167.6875,680.646 167,681.7242 Q166.3125,682.7867 166.3125,684.8804 Q166.3125,686.9742 167,688.0523 Q167.6875,689.1148 169.0313,689.1148 Q169.6563,689.1148 170.25,688.8492 Q170.8438,688.5679 171.4688,687.9898 L171.4688,690.7085 Z " fill="#000000"/><text fill="#000000" font-family="sans-serif" font-size="14" lengthAdjust="spacing" textLength="47" x="182.5" y="690.4999">control</text><line style="stroke:#181818;stroke-width:0.5;" x1="154.5" x2="231.5" y1="701.0679" y2="701.0679"/><line style="stroke:#181818;stroke-width:0.5;" x1="154.5" x2="231.5" y1="709.0679" y2="709.0679"/></g><!--class overarch_dataModel_regulationFor--><g id="elem_overarch_dataModel_regulationFor"><rect codeLine="10" fill="#F1F1F1" height="48" id="overarch_dataModel_regulationFor" rx="2.5" ry="2.5" style="stroke:#181818;stroke-width:0.5;" width="126" x="1659" y="669.0679"/><ellipse cx="1674" cy="685.0679" fill="#ADD1B2" rx="11" ry="11" style="stroke:#181818;stroke-width:1.0;"/><path d="M1676.9688,690.7085 Q1676.3906,691.0054 1675.75,691.146 Q1675.1094,691.3023 1674.4063,691.3023 Q1671.9063,691.3023 1670.5781,689.6617 Q1669.2656,688.0054 1669.2656,684.8804 Q1669.2656,681.7554 1670.5781,680.0992 Q1671.9063,678.4429 1674.4063,678.4429 Q1675.1094,678.4429 1675.75,678.5992 Q1676.4063,678.7554 1676.9688,679.0523 L1676.9688,681.771 Q1676.3438,681.1929 1675.75,680.9273 Q1675.1563,680.646 1674.5313,680.646 Q1673.1875,680.646 1672.5,681.7242 Q1671.8125,682.7867 1671.8125,684.8804 Q1671.8125,686.9742 1672.5,688.0523 Q1673.1875,689.1148 1674.5313,689.1148 Q1675.1563,689.1148 1675.75,688.8492 Q1676.3438,688.5679 1676.9688,687.9898 L1676.9688,690.7085 Z " fill="#000000"/><text fill="#000000" font-family="sans-serif" font-size="14" lengthAdjust="spacing" textLength="94" x="1688" y="690.4999">regulation-for</text><line style="stroke:#181818;stroke-width:0.5;" x1="1660" x2="1784" y1="701.0679" y2="701.0679"/><line style="stroke:#181818;stroke-width:0.5;" x1="1660" x2="1784" y1="709.0679" y2="709.0679"/></g><!--class overarch_dataModel_artifact--><g id="elem_overarch_dataModel_artifact"><rect codeLine="11" fill="#F1F1F1" height="48" id="overarch_dataModel_artifact" rx="2.5" ry="2.5" style="stroke:#181818;stroke-width:0.5;" width="80" x="38" y="669.0679"/><ellipse cx="53" cy="685.0679" fill="#ADD1B2" rx="11" ry="11" style="stroke:#181818;stroke-width:1.0;"/><path d="M55.9688,690.7085 Q55.3906,691.0054 54.75,691.146 Q54.1094,691.3023 53.4063,691.3023 Q50.9063,691.3023 49.5781,689.6617 Q48.2656,688.0054 48.2656,684.8804 Q48.2656,681.7554 49.5781,680.0992 Q50.9063,678.4429 53.4063,678.4429 Q54.1094,678.4429 54.75,678.5992 Q55.4063,678.7554 55.9688,679.0523 L55.9688,681.771 Q55.3438,681.1929 54.75,680.9273 Q54.1563,680.646 53.5313,680.646 Q52.1875,680.646 51.5,681.7242 Q50.8125,682.7867 50.8125,684.8804 Q50.8125,686.9742 51.5,688.0523 Q52.1875,689.1148 53.5313,689.1148 Q54.1563,689.1148 54.75,688.8492 Q55.3438,688.5679 55.9688,687.9898 L55.9688,690.7085 Z " fill="#000000"/><text fill="#000000" font-family="sans-serif" font-size="14" lengthAdjust="spacing" textLength="48" x="67" y="690.4999">artifact</text><line style="stroke:#181818;stroke-width:0.5;" x1="39" x2="117" y1="701.0679" y2="701.0679"/><line style="stroke:#181818;stroke-width:0.5;" x1="39" x2="117" y1="709.0679" y2="709.0679"/></g><!--class overarch_dataModel_testFor--><g id="elem_overarch_dataModel_testFor"><rect codeLine="12" fill="#F1F1F1" height="48" id="overarch_dataModel_testFor" rx="2.5" ry="2.5" style="stroke:#181818;stroke-width:0.5;" width="81" x="1820.5" y="669.0679"/><ellipse cx="1835.5" cy="685.0679" fill="#ADD1B2" rx="11" ry="11" style="stroke:#181818;stroke-width:1.0;"/><path d="M1838.4688,690.7085 Q1837.8906,691.0054 1837.25,691.146 Q1836.6094,691.3023 1835.9063,691.3023 Q1833.4063,691.3023 1832.0781,689.6617 Q1830.7656,688.0054 1830.7656,684.8804 Q1830.7656,681.7554 1832.0781,680.0992 Q1833.4063,678.4429 1835.9063,678.4429 Q1836.6094,678.4429 1837.25,678.5992 Q1837.9063,678.7554 1838.4688,679.0523 L1838.4688,681.771 Q1837.8438,681.1929 1837.25,680.9273 Q1836.6563,680.646 1836.0313,680.646 Q1834.6875,680.646 1834,681.7242 Q1833.3125,682.7867 1833.3125,684.8804 Q1833.3125,686.9742 1834,688.0523 Q1834.6875,689.1148 1836.0313,689.1148 Q1836.6563,689.1148 1837.25,688.8492 Q1837.8438,688.5679 1838.4688,687.9898 L1838.4688,690.7085 Z " fill="#000000"/><text fill="#000000" font-family="sans-serif" font-size="14" lengthAdjust="spacing" textLength="49" x="1849.5" y="690.4999">test-for</text><line style="stroke:#181818;stroke-width:0.5;" x1="1821.5" x2="1900.5" y1="701.0679" y2="701.0679"/><line style="stroke:#181818;stroke-width:0.5;" x1="1821.5" x2="1900.5" y1="709.0679" y2="709.0679"/></g><!--class overarch_dataModel_controlFor--><g id="elem_overarch_dataModel_controlFor"><rect codeLine="13" fill="#F1F1F1" height="48" id="overarch_dataModel_controlFor" rx="2.5" ry="2.5" style="stroke:#181818;stroke-width:0.5;" width="103" x="1936.5" y="669.0679"/><ellipse cx="1951.5" cy="685.0679" fill="#ADD1B2" rx="11" ry="11" style="stroke:#181818;stroke-width:1.0;"/><path d="M1954.4688,690.7085 Q1953.8906,691.0054 1953.25,691.146 Q1952.6094,691.3023 1951.9063,691.3023 Q1949.4063,691.3023 1948.0781,689.6617 Q1946.7656,688.0054 1946.7656,684.8804 Q1946.7656,681.7554 1948.0781,680.0992 Q1949.4063,678.4429 1951.9063,678.4429 Q1952.6094,678.4429 1953.25,678.5992 Q1953.9063,678.7554 1954.4688,679.0523 L1954.4688,681.771 Q1953.8438,681.1929 1953.25,680.9273 Q1952.6563,680.646 1952.0313,680.646 Q1950.6875,680.646 1950,681.7242 Q1949.3125,682.7867 1949.3125,684.8804 Q1949.3125,686.9742 1950,688.0523 Q1950.6875,689.1148 1952.0313,689.1148 Q1952.6563,689.1148 1953.25,688.8492 Q1953.8438,688.5679 1954.4688,687.9898 L1954.4688,690.7085 Z " fill="#000000"/><text fill="#000000" font-family="sans-serif" font-size="14" lengthAdjust="spacing" textLength="71" x="1965.5" y="690.4999">control-for</text><line style="stroke:#181818;stroke-width:0.5;" x1="1937.5" x2="2038.5" y1="701.0679" y2="701.0679"/><line style="stroke:#181818;stroke-width:0.5;" x1="1937.5" x2="2038.5" y1="709.0679" y2="709.0679"/></g><!--class overarch_dataModel_information--><g id="elem_overarch_dataModel_information"><rect codeLine="14" fill="#F1F1F1" height="48" id="overarch_dataModel_information" rx="2.5" ry="2.5" style="stroke:#181818;stroke-width:0.5;" width="111" x="267.5" y="669.0679"/><ellipse cx="282.5" cy="685.0679" fill="#ADD1B2" rx="11" ry="11" style="stroke:#181818;stroke-width:1.0;"/><path d="M285.4688,690.7085 Q284.8906,691.0054 284.25,691.146 Q283.6094,691.3023 282.9063,691.3023 Q280.4063,691.3023 279.0781,689.6617 Q277.7656,688.0054 277.7656,684.8804 Q277.7656,681.7554 279.0781,680.0992 Q280.4063,678.4429 282.9063,678.4429 Q283.6094,678.4429 284.25,678.5992 Q284.9063,678.7554 285.4688,679.0523 L285.4688,681.771 Q284.8438,681.1929 284.25,680.9273 Q283.6563,680.646 283.0313,680.646 Q281.6875,680.646 281,681.7242 Q280.3125,682.7867 280.3125,684.8804 Q280.3125,686.9742 281,688.0523 Q281.6875,689.1148 283.0313,689.1148 Q283.6563,689.1148 284.25,688.8492 Q284.8438,688.5679 285.4688,687.9898 L285.4688,690.7085 Z " fill="#000000"/><text fill="#000000" font-family="sans-serif" font-size="14" lengthAdjust="spacing" textLength="79" x="296.5" y="690.4999">information</text><line style="stroke:#181818;stroke-width:0.5;" x1="268.5" x2="377.5" y1="701.0679" y2="701.0679"/><line style="stroke:#181818;stroke-width:0.5;" x1="268.5" x2="377.5" y1="709.0679" y2="709.0679"/></g><!--class overarch_dataModel_modelElement--><g id="elem_overarch_dataModel_modelElement"><rect codeLine="15" fill="#F1F1F1" height="86.1358" id="overarch_dataModel_modelElement" rx="2.5" ry="2.5" style="stroke:#181818;stroke-width:0.5;" width="175" x="1752.5" y="250.0679"/><ellipse cx="1790" cy="266.0679" fill="#A9DCDF" rx="11" ry="11" style="stroke:#181818;stroke-width:1.0;"/><path d="M1790.1094,261.4117 L1788.9531,266.4898 L1791.2813,266.4898 L1790.1094,261.4117 Z M1788.625,259.1773 L1791.6094,259.1773 L1794.9688,271.5679 L1792.5156,271.5679 L1791.75,268.5054 L1788.4688,268.5054 L1787.7188,271.5679 L1785.2813,271.5679 L1788.625,259.1773 Z " fill="#000000"/><text fill="#000000" font-family="sans-serif" font-size="14" font-style="italic" lengthAdjust="spacing" textLength="93" x="1809" y="271.4999">model-element</text><line style="stroke:#181818;stroke-width:0.5;" x1="1753.5" x2="1926.5" y1="282.0679" y2="282.0679"/><text fill="#000000" font-family="sans-serif" font-size="14" lengthAdjust="spacing" textLength="163" x="1758.5" y="301.0339">maturity : keyword [0..1]</text><text fill="#000000" font-family="sans-serif" font-size="14" lengthAdjust="spacing" textLength="99" x="1758.5" y="320.1018">tags : set [0..1]</text><line style="stroke:#181818;stroke-width:0.5;" x1="1753.5" x2="1926.5" y1="328.2038" y2="328.2038"/></g><!--class overarch_dataModel_inputOf--><g id="elem_overarch_dataModel_inputOf"><rect codeLine="19" fill="#F1F1F1" height="48" id="overarch_dataModel_inputOf" rx="2.5" ry="2.5" style="stroke:#181818;stroke-width:0.5;" width="86" x="2075" y="669.0679"/><ellipse cx="2090" cy="685.0679" fill="#ADD1B2" rx="11" ry="11" style="stroke:#181818;stroke-width:1.0;"/><path d="M2092.9688,690.7085 Q2092.3906,691.0054 2091.75,691.146 Q2091.1094,691.3023 2090.4063,691.3023 Q2087.9063,691.3023 2086.5781,689.6617 Q2085.2656,688.0054 2085.2656,684.8804 Q2085.2656,681.7554 2086.5781,680.0992 Q2087.9063,678.4429 2090.4063,678.4429 Q2091.1094,678.4429 2091.75,678.5992 Q2092.4063,678.7554 2092.9688,679.0523 L2092.9688,681.771 Q2092.3438,681.1929 2091.75,680.9273 Q2091.1563,680.646 2090.5313,680.646 Q2089.1875,680.646 2088.5,681.7242 Q2087.8125,682.7867 2087.8125,684.8804 Q2087.8125,686.9742 2088.5,688.0523 Q2089.1875,689.1148 2090.5313,689.1148 Q2091.1563,689.1148 2091.75,688.8492 Q2092.3438,688.5679 2092.9688,687.9898 L2092.9688,690.7085 Z " fill="#000000"/><text fill="#000000" font-family="sans-serif" font-size="14" lengthAdjust="spacing" textLength="54" x="2104" y="690.4999">input-of</text><line style="stroke:#181818;stroke-width:0.5;" x1="2076" x2="2160" y1="701.0679" y2="701.0679"/><line style="stroke:#181818;stroke-width:0.5;" x1="2076" x2="2160" y1="709.0679" y2="709.0679"/></g><!--class overarch_dataModel_constraint--><g id="elem_overarch_dataModel_constraint"><rect codeLine="20" fill="#F1F1F1" height="48" id="overarch_dataModel_constraint" rx="2.5" ry="2.5" style="stroke:#181818;stroke-width:0.5;" width="100" x="414" y="669.0679"/><ellipse cx="429" cy="685.0679" fill="#ADD1B2" rx="11" ry="11" style="stroke:#181818;stroke-width:1.0;"/><path d="M431.9688,690.7085 Q431.3906,691.0054 430.75,691.146 Q430.1094,691.3023 429.4063,691.3023 Q426.9063,691.3023 425.5781,689.6617 Q424.2656,688.0054 424.2656,684.8804 Q424.2656,681.7554 425.5781,680.0992 Q426.9063,678.4429 429.4063,678.4429 Q430.1094,678.4429 430.75,678.5992 Q431.4063,678.7554 431.9688,679.0523 L431.9688,681.771 Q431.3438,681.1929 430.75,680.9273 Q430.1563,680.646 429.5313,680.646 Q428.1875,680.646 427.5,681.7242 Q426.8125,682.7867 426.8125,684.8804 Q426.8125,686.9742 427.5,688.0523 Q428.1875,689.1148 429.5313,689.1148 Q430.1563,689.1148 430.75,688.8492 Q431.3438,688.5679 431.9688,687.9898 L431.9688,690.7085 Z " fill="#000000"/><text fill="#000000" font-family="sans-serif" font-size="14" lengthAdjust="spacing" textLength="68" x="443" y="690.4999">constraint</text><line style="stroke:#181818;stroke-width:0.5;" x1="415" x2="513" y1="701.0679" y2="701.0679"/><line style="stroke:#181818;stroke-width:0.5;" x1="415" x2="513" y1="709.0679" y2="709.0679"/></g><!--class overarch_dataModel_processModelElement--><g id="elem_overarch_dataModel_processModelElement"><rect codeLine="21" fill="#F1F1F1" height="48" id="overarch_dataModel_processModelElement" rx="2.5" ry="2.5" style="stroke:#181818;stroke-width:0.5;" width="176" x="1752" y="415.0679"/><ellipse cx="1767" cy="431.0679" fill="#A9DCDF" rx="11" ry="11" style="stroke:#181818;stroke-width:1.0;"/><path d="M1767.1094,426.4117 L1765.9531,431.4898 L1768.2813,431.4898 L1767.1094,426.4117 Z M1765.625,424.1773 L1768.6094,424.1773 L1771.9688,436.5679 L1769.5156,436.5679 L1768.75,433.5054 L1765.4688,433.5054 L1764.7188,436.5679 L1762.2813,436.5679 L1765.625,424.1773 Z " fill="#000000"/><text fill="#000000" font-family="sans-serif" font-size="14" font-style="italic" lengthAdjust="spacing" textLength="144" x="1781" y="436.4999">process-model-element</text><line style="stroke:#181818;stroke-width:0.5;" x1="1753" x2="1927" y1="447.0679" y2="447.0679"/><line style="stroke:#181818;stroke-width:0.5;" x1="1753" x2="1927" y1="455.0679" y2="455.0679"/></g><!--class overarch_dataModel_capability--><g id="elem_overarch_dataModel_capability"><rect codeLine="22" fill="#F1F1F1" height="48" id="overarch_dataModel_capability" rx="2.5" ry="2.5" style="stroke:#181818;stroke-width:0.5;" width="97" x="549.5" y="669.0679"/><ellipse cx="564.5" cy="685.0679" fill="#ADD1B2" rx="11" ry="11" style="stroke:#181818;stroke-width:1.0;"/><path d="M567.4688,690.7085 Q566.8906,691.0054 566.25,691.146 Q565.6094,691.3023 564.9063,691.3023 Q562.4063,691.3023 561.0781,689.6617 Q559.7656,688.0054 559.7656,684.8804 Q559.7656,681.7554 561.0781,680.0992 Q562.4063,678.4429 564.9063,678.4429 Q565.6094,678.4429 566.25,678.5992 Q566.9063,678.7554 567.4688,679.0523 L567.4688,681.771 Q566.8438,681.1929 566.25,680.9273 Q565.6563,680.646 565.0313,680.646 Q563.6875,680.646 563,681.7242 Q562.3125,682.7867 562.3125,684.8804 Q562.3125,686.9742 563,688.0523 Q563.6875,689.1148 565.0313,689.1148 Q565.6563,689.1148 566.25,688.8492 Q566.8438,688.5679 567.4688,687.9898 L567.4688,690.7085 Z " fill="#000000"/><text fill="#000000" font-family="sans-serif" font-size="14" lengthAdjust="spacing" textLength="65" x="578.5" y="690.4999">capability</text><line style="stroke:#181818;stroke-width:0.5;" x1="550.5" x2="645.5" y1="701.0679" y2="701.0679"/><line style="stroke:#181818;stroke-width:0.5;" x1="550.5" x2="645.5" y1="709.0679" y2="709.0679"/></g><!--class overarch_dataModel_technicalElement--><g id="elem_overarch_dataModel_technicalElement"><rect codeLine="23" fill="#F1F1F1" height="67.0679" id="overarch_dataModel_technicalElement" rx="2.5" ry="2.5" style="stroke:#181818;stroke-width:0.5;" width="142" x="7" y="542.0679"/><ellipse cx="22" cy="558.0679" fill="#A9DCDF" rx="11" ry="11" style="stroke:#181818;stroke-width:1.0;"/><path d="M22.1094,553.4117 L20.9531,558.4898 L23.2813,558.4898 L22.1094,553.4117 Z M20.625,551.1773 L23.6094,551.1773 L26.9688,563.5679 L24.5156,563.5679 L23.75,560.5054 L20.4688,560.5054 L19.7188,563.5679 L17.2813,563.5679 L20.625,551.1773 Z " fill="#000000"/><text fill="#000000" font-family="sans-serif" font-size="14" font-style="italic" lengthAdjust="spacing" textLength="110" x="36" y="563.4999">technical-element</text><line style="stroke:#181818;stroke-width:0.5;" x1="8" x2="148" y1="574.0679" y2="574.0679"/><text fill="#000000" font-family="sans-serif" font-size="14" lengthAdjust="spacing" textLength="119" x="13" y="593.0339">tech : string [0..1]</text><line style="stroke:#181818;stroke-width:0.5;" x1="8" x2="148" y1="601.1358" y2="601.1358"/></g><!--class overarch_dataModel_knowledge--><g id="elem_overarch_dataModel_knowledge"><rect codeLine="26" fill="#F1F1F1" height="48" id="overarch_dataModel_knowledge" rx="2.5" ry="2.5" style="stroke:#181818;stroke-width:0.5;" width="105" x="681.5" y="669.0679"/><ellipse cx="696.5" cy="685.0679" fill="#ADD1B2" rx="11" ry="11" style="stroke:#181818;stroke-width:1.0;"/><path d="M699.4688,690.7085 Q698.8906,691.0054 698.25,691.146 Q697.6094,691.3023 696.9063,691.3023 Q694.4063,691.3023 693.0781,689.6617 Q691.7656,688.0054 691.7656,684.8804 Q691.7656,681.7554 693.0781,680.0992 Q694.4063,678.4429 696.9063,678.4429 Q697.6094,678.4429 698.25,678.5992 Q698.9063,678.7554 699.4688,679.0523 L699.4688,681.771 Q698.8438,681.1929 698.25,680.9273 Q697.6563,680.646 697.0313,680.646 Q695.6875,680.646 695,681.7242 Q694.3125,682.7867 694.3125,684.8804 Q694.3125,686.9742 695,688.0523 Q695.6875,689.1148 697.0313,689.1148 Q697.6563,689.1148 698.25,688.8492 Q698.8438,688.5679 699.4688,687.9898 L699.4688,690.7085 Z " fill="#000000"/><text fill="#000000" font-family="sans-serif" font-size="14" lengthAdjust="spacing" textLength="73" x="710.5" y="690.4999">knowledge</text><line style="stroke:#181818;stroke-width:0.5;" x1="682.5" x2="785.5" y1="701.0679" y2="701.0679"/><line style="stroke:#181818;stroke-width:0.5;" x1="682.5" x2="785.5" y1="709.0679" y2="709.0679"/></g><!--class overarch_dataModel_version--><g id="elem_overarch_dataModel_version"><rect codeLine="27" fill="#F1F1F1" height="48" id="overarch_dataModel_version" rx="2.5" ry="2.5" style="stroke:#181818;stroke-width:0.5;" width="81" x="821.5" y="669.0679"/><ellipse cx="836.5" cy="685.0679" fill="#ADD1B2" rx="11" ry="11" style="stroke:#181818;stroke-width:1.0;"/><path d="M839.4688,690.7085 Q838.8906,691.0054 838.25,691.146 Q837.6094,691.3023 836.9063,691.3023 Q834.4063,691.3023 833.0781,689.6617 Q831.7656,688.0054 831.7656,684.8804 Q831.7656,681.7554 833.0781,680.0992 Q834.4063,678.4429 836.9063,678.4429 Q837.6094,678.4429 838.25,678.5992 Q838.9063,678.7554 839.4688,679.0523 L839.4688,681.771 Q838.8438,681.1929 838.25,680.9273 Q837.6563,680.646 837.0313,680.646 Q835.6875,680.646 835,681.7242 Q834.3125,682.7867 834.3125,684.8804 Q834.3125,686.9742 835,688.0523 Q835.6875,689.1148 837.0313,689.1148 Q837.6563,689.1148 838.25,688.8492 Q838.8438,688.5679 839.4688,687.9898 L839.4688,690.7085 Z " fill="#000000"/><text fill="#000000" font-family="sans-serif" font-size="14" lengthAdjust="spacing" textLength="49" x="850.5" y="690.4999">version</text><line style="stroke:#181818;stroke-width:0.5;" x1="822.5" x2="901.5" y1="701.0679" y2="701.0679"/><line style="stroke:#181818;stroke-width:0.5;" x1="822.5" x2="901.5" y1="709.0679" y2="709.0679"/></g><!--class overarch_dataModel_requiredFor--><g id="elem_overarch_dataModel_requiredFor"><rect codeLine="28" fill="#F1F1F1" height="48" id="overarch_dataModel_requiredFor" rx="2.5" ry="2.5" style="stroke:#181818;stroke-width:0.5;" width="115" x="2196.5" y="669.0679"/><ellipse cx="2211.5" cy="685.0679" fill="#ADD1B2" rx="11" ry="11" style="stroke:#181818;stroke-width:1.0;"/><path d="M2214.4688,690.7085 Q2213.8906,691.0054 2213.25,691.146 Q2212.6094,691.3023 2211.9063,691.3023 Q2209.4063,691.3023 2208.0781,689.6617 Q2206.7656,688.0054 2206.7656,684.8804 Q2206.7656,681.7554 2208.0781,680.0992 Q2209.4063,678.4429 2211.9063,678.4429 Q2212.6094,678.4429 2213.25,678.5992 Q2213.9063,678.7554 2214.4688,679.0523 L2214.4688,681.771 Q2213.8438,681.1929 2213.25,680.9273 Q2212.6563,680.646 2212.0313,680.646 Q2210.6875,680.646 2210,681.7242 Q2209.3125,682.7867 2209.3125,684.8804 Q2209.3125,686.9742 2210,688.0523 Q2210.6875,689.1148 2212.0313,689.1148 Q2212.6563,689.1148 2213.25,688.8492 Q2213.8438,688.5679 2214.4688,687.9898 L2214.4688,690.7085 Z " fill="#000000"/><text fill="#000000" font-family="sans-serif" font-size="14" lengthAdjust="spacing" textLength="83" x="2225.5" y="690.4999">required-for</text><line style="stroke:#181818;stroke-width:0.5;" x1="2197.5" x2="2310.5" y1="701.0679" y2="701.0679"/><line style="stroke:#181818;stroke-width:0.5;" x1="2197.5" x2="2310.5" y1="709.0679" y2="709.0679"/></g><!--class overarch_dataModel_artifactOf--><g id="elem_overarch_dataModel_artifactOf"><rect codeLine="29" fill="#F1F1F1" height="48" id="overarch_dataModel_artifactOf" rx="2.5" ry="2.5" style="stroke:#181818;stroke-width:0.5;" width="98" x="2347" y="669.0679"/><ellipse cx="2362" cy="685.0679" fill="#ADD1B2" rx="11" ry="11" style="stroke:#181818;stroke-width:1.0;"/><path d="M2364.9688,690.7085 Q2364.3906,691.0054 2363.75,691.146 Q2363.1094,691.3023 2362.4063,691.3023 Q2359.9063,691.3023 2358.5781,689.6617 Q2357.2656,688.0054 2357.2656,684.8804 Q2357.2656,681.7554 2358.5781,680.0992 Q2359.9063,678.4429 2362.4063,678.4429 Q2363.1094,678.4429 2363.75,678.5992 Q2364.4063,678.7554 2364.9688,679.0523 L2364.9688,681.771 Q2364.3438,681.1929 2363.75,680.9273 Q2363.1563,680.646 2362.5313,680.646 Q2361.1875,680.646 2360.5,681.7242 Q2359.8125,682.7867 2359.8125,684.8804 Q2359.8125,686.9742 2360.5,688.0523 Q2361.1875,689.1148 2362.5313,689.1148 Q2363.1563,689.1148 2363.75,688.8492 Q2364.3438,688.5679 2364.9688,687.9898 L2364.9688,690.7085 Z " fill="#000000"/><text fill="#000000" font-family="sans-serif" font-size="14" lengthAdjust="spacing" textLength="66" x="2376" y="690.4999">artifact-of</text><line style="stroke:#181818;stroke-width:0.5;" x1="2348" x2="2444" y1="701.0679" y2="701.0679"/><line style="stroke:#181818;stroke-width:0.5;" x1="2348" x2="2444" y1="709.0679" y2="709.0679"/></g><!--class overarch_dataModel_processModelNode--><g id="elem_overarch_dataModel_processModelNode"><rect codeLine="30" fill="#F1F1F1" height="48" id="overarch_dataModel_processModelNode" rx="2.5" ry="2.5" style="stroke:#181818;stroke-width:0.5;" width="157" x="901.5" y="551.5679"/><ellipse cx="916.5" cy="567.5679" fill="#A9DCDF" rx="11" ry="11" style="stroke:#181818;stroke-width:1.0;"/><path d="M916.6094,562.9117 L915.4531,567.9898 L917.7813,567.9898 L916.6094,562.9117 Z M915.125,560.6773 L918.1094,560.6773 L921.4688,573.0679 L919.0156,573.0679 L918.25,570.0054 L914.9688,570.0054 L914.2188,573.0679 L911.7813,573.0679 L915.125,560.6773 Z " fill="#000000"/><text fill="#000000" font-family="sans-serif" font-size="14" font-style="italic" lengthAdjust="spacing" textLength="125" x="930.5" y="572.9999">process-model-node</text><line style="stroke:#181818;stroke-width:0.5;" x1="902.5" x2="1057.5" y1="583.5679" y2="583.5679"/><line style="stroke:#181818;stroke-width:0.5;" x1="902.5" x2="1057.5" y1="591.5679" y2="591.5679"/></g><!--class overarch_dataModel_processModelRelation--><g id="elem_overarch_dataModel_processModelRelation"><rect codeLine="31" fill="#F1F1F1" height="48" id="overarch_dataModel_processModelRelation" rx="2.5" ry="2.5" style="stroke:#181818;stroke-width:0.5;" width="176" x="2166" y="551.5679"/><ellipse cx="2181" cy="567.5679" fill="#A9DCDF" rx="11" ry="11" style="stroke:#181818;stroke-width:1.0;"/><path d="M2181.1094,562.9117 L2179.9531,567.9898 L2182.2813,567.9898 L2181.1094,562.9117 Z M2179.625,560.6773 L2182.6094,560.6773 L2185.9688,573.0679 L2183.5156,573.0679 L2182.75,570.0054 L2179.4688,570.0054 L2178.7188,573.0679 L2176.2813,573.0679 L2179.625,560.6773 Z " fill="#000000"/><text fill="#000000" font-family="sans-serif" font-size="14" font-style="italic" lengthAdjust="spacing" textLength="144" x="2195" y="572.9999">process-model-relation</text><line style="stroke:#181818;stroke-width:0.5;" x1="2167" x2="2341" y1="583.5679" y2="583.5679"/><line style="stroke:#181818;stroke-width:0.5;" x1="2167" x2="2341" y1="591.5679" y2="591.5679"/></g><!--class overarch_dataModel_goalFor--><g id="elem_overarch_dataModel_goalFor"><rect codeLine="32" fill="#F1F1F1" height="48" id="overarch_dataModel_goalFor" rx="2.5" ry="2.5" style="stroke:#181818;stroke-width:0.5;" width="85" x="2480.5" y="669.0679"/><ellipse cx="2495.5" cy="685.0679" fill="#ADD1B2" rx="11" ry="11" style="stroke:#181818;stroke-width:1.0;"/><path d="M2498.4688,690.7085 Q2497.8906,691.0054 2497.25,691.146 Q2496.6094,691.3023 2495.9063,691.3023 Q2493.4063,691.3023 2492.0781,689.6617 Q2490.7656,688.0054 2490.7656,684.8804 Q2490.7656,681.7554 2492.0781,680.0992 Q2493.4063,678.4429 2495.9063,678.4429 Q2496.6094,678.4429 2497.25,678.5992 Q2497.9063,678.7554 2498.4688,679.0523 L2498.4688,681.771 Q2497.8438,681.1929 2497.25,680.9273 Q2496.6563,680.646 2496.0313,680.646 Q2494.6875,680.646 2494,681.7242 Q2493.3125,682.7867 2493.3125,684.8804 Q2493.3125,686.9742 2494,688.0523 Q2494.6875,689.1148 2496.0313,689.1148 Q2496.6563,689.1148 2497.25,688.8492 Q2497.8438,688.5679 2498.4688,687.9898 L2498.4688,690.7085 Z " fill="#000000"/><text fill="#000000" font-family="sans-serif" font-size="14" lengthAdjust="spacing" textLength="53" x="2509.5" y="690.4999">goal-for</text><line style="stroke:#181818;stroke-width:0.5;" x1="2481.5" x2="2564.5" y1="701.0679" y2="701.0679"/><line style="stroke:#181818;stroke-width:0.5;" x1="2481.5" x2="2564.5" y1="709.0679" y2="709.0679"/></g><!--class overarch_dataModel_outputOf--><g id="elem_overarch_dataModel_outputOf"><rect codeLine="33" fill="#F1F1F1" height="48" id="overarch_dataModel_outputOf" rx="2.5" ry="2.5" style="stroke:#181818;stroke-width:0.5;" width="95" x="2600.5" y="669.0679"/><ellipse cx="2615.5" cy="685.0679" fill="#ADD1B2" rx="11" ry="11" style="stroke:#181818;stroke-width:1.0;"/><path d="M2618.4688,690.7085 Q2617.8906,691.0054 2617.25,691.146 Q2616.6094,691.3023 2615.9063,691.3023 Q2613.4063,691.3023 2612.0781,689.6617 Q2610.7656,688.0054 2610.7656,684.8804 Q2610.7656,681.7554 2612.0781,680.0992 Q2613.4063,678.4429 2615.9063,678.4429 Q2616.6094,678.4429 2617.25,678.5992 Q2617.9063,678.7554 2618.4688,679.0523 L2618.4688,681.771 Q2617.8438,681.1929 2617.25,680.9273 Q2616.6563,680.646 2616.0313,680.646 Q2614.6875,680.646 2614,681.7242 Q2613.3125,682.7867 2613.3125,684.8804 Q2613.3125,686.9742 2614,688.0523 Q2614.6875,689.1148 2616.0313,689.1148 Q2616.6563,689.1148 2617.25,688.8492 Q2617.8438,688.5679 2618.4688,687.9898 L2618.4688,690.7085 Z " fill="#000000"/><text fill="#000000" font-family="sans-serif" font-size="14" lengthAdjust="spacing" textLength="63" x="2629.5" y="690.4999">output-of</text><line style="stroke:#181818;stroke-width:0.5;" x1="2601.5" x2="2694.5" y1="701.0679" y2="701.0679"/><line style="stroke:#181818;stroke-width:0.5;" x1="2601.5" x2="2694.5" y1="709.0679" y2="709.0679"/></g><!--class overarch_dataModel_process--><g id="elem_overarch_dataModel_process"><rect codeLine="34" fill="#F1F1F1" height="48" id="overarch_dataModel_process" rx="2.5" ry="2.5" style="stroke:#181818;stroke-width:0.5;" width="84" x="938" y="669.0679"/><ellipse cx="953" cy="685.0679" fill="#ADD1B2" rx="11" ry="11" style="stroke:#181818;stroke-width:1.0;"/><path d="M955.9688,690.7085 Q955.3906,691.0054 954.75,691.146 Q954.1094,691.3023 953.4063,691.3023 Q950.9063,691.3023 949.5781,689.6617 Q948.2656,688.0054 948.2656,684.8804 Q948.2656,681.7554 949.5781,680.0992 Q950.9063,678.4429 953.4063,678.4429 Q954.1094,678.4429 954.75,678.5992 Q955.4063,678.7554 955.9688,679.0523 L955.9688,681.771 Q955.3438,681.1929 954.75,680.9273 Q954.1563,680.646 953.5313,680.646 Q952.1875,680.646 951.5,681.7242 Q950.8125,682.7867 950.8125,684.8804 Q950.8125,686.9742 951.5,688.0523 Q952.1875,689.1148 953.5313,689.1148 Q954.1563,689.1148 954.75,688.8492 Q955.3438,688.5679 955.9688,687.9898 L955.9688,690.7085 Z " fill="#000000"/><text fill="#000000" font-family="sans-serif" font-size="14" lengthAdjust="spacing" textLength="52" x="967" y="690.4999">process</text><line style="stroke:#181818;stroke-width:0.5;" x1="939" x2="1021" y1="701.0679" y2="701.0679"/><line style="stroke:#181818;stroke-width:0.5;" x1="939" x2="1021" y1="709.0679" y2="709.0679"/></g><!--class overarch_dataModel_roleIn--><g id="elem_overarch_dataModel_roleIn"><rect codeLine="35" fill="#F1F1F1" height="48" id="overarch_dataModel_roleIn" rx="2.5" ry="2.5" style="stroke:#181818;stroke-width:0.5;" width="76" x="2731" y="669.0679"/><ellipse cx="2746" cy="685.0679" fill="#ADD1B2" rx="11" ry="11" style="stroke:#181818;stroke-width:1.0;"/><path d="M2748.9688,690.7085 Q2748.3906,691.0054 2747.75,691.146 Q2747.1094,691.3023 2746.4063,691.3023 Q2743.9063,691.3023 2742.5781,689.6617 Q2741.2656,688.0054 2741.2656,684.8804 Q2741.2656,681.7554 2742.5781,680.0992 Q2743.9063,678.4429 2746.4063,678.4429 Q2747.1094,678.4429 2747.75,678.5992 Q2748.4063,678.7554 2748.9688,679.0523 L2748.9688,681.771 Q2748.3438,681.1929 2747.75,680.9273 Q2747.1563,680.646 2746.5313,680.646 Q2745.1875,680.646 2744.5,681.7242 Q2743.8125,682.7867 2743.8125,684.8804 Q2743.8125,686.9742 2744.5,688.0523 Q2745.1875,689.1148 2746.5313,689.1148 Q2747.1563,689.1148 2747.75,688.8492 Q2748.3438,688.5679 2748.9688,687.9898 L2748.9688,690.7085 Z " fill="#000000"/><text fill="#000000" font-family="sans-serif" font-size="14" lengthAdjust="spacing" textLength="44" x="2760" y="690.4999">role-in</text><line style="stroke:#181818;stroke-width:0.5;" x1="2732" x2="2806" y1="701.0679" y2="701.0679"/><line style="stroke:#181818;stroke-width:0.5;" x1="2732" x2="2806" y1="709.0679" y2="709.0679"/></g><!--class overarch_dataModel_modelNode--><g id="elem_overarch_dataModel_modelNode"><rect codeLine="36" fill="#F1F1F1" height="48" id="overarch_dataModel_modelNode" rx="2.5" ry="2.5" style="stroke:#181818;stroke-width:0.5;" width="106" x="1383" y="415.0679"/><ellipse cx="1398" cy="431.0679" fill="#A9DCDF" rx="11" ry="11" style="stroke:#181818;stroke-width:1.0;"/><path d="M1398.1094,426.4117 L1396.9531,431.4898 L1399.2813,431.4898 L1398.1094,426.4117 Z M1396.625,424.1773 L1399.6094,424.1773 L1402.9688,436.5679 L1400.5156,436.5679 L1399.75,433.5054 L1396.4688,433.5054 L1395.7188,436.5679 L1393.2813,436.5679 L1396.625,424.1773 Z " fill="#000000"/><text fill="#000000" font-family="sans-serif" font-size="14" font-style="italic" lengthAdjust="spacing" textLength="74" x="1412" y="436.4999">model-node</text><line style="stroke:#181818;stroke-width:0.5;" x1="1384" x2="1488" y1="447.0679" y2="447.0679"/><line style="stroke:#181818;stroke-width:0.5;" x1="1384" x2="1488" y1="455.0679" y2="455.0679"/></g><!--class overarch_dataModel_modelRelation--><g id="elem_overarch_dataModel_modelRelation"><rect codeLine="37" fill="#F1F1F1" height="86.1358" id="overarch_dataModel_modelRelation" rx="2.5" ry="2.5" style="stroke:#181818;stroke-width:0.5;" width="125" x="2076.5" y="396.0679"/><ellipse cx="2091.5" cy="412.0679" fill="#A9DCDF" rx="11" ry="11" style="stroke:#181818;stroke-width:1.0;"/><path d="M2091.6094,407.4117 L2090.4531,412.4898 L2092.7813,412.4898 L2091.6094,407.4117 Z M2090.125,405.1773 L2093.1094,405.1773 L2096.4688,417.5679 L2094.0156,417.5679 L2093.25,414.5054 L2089.9688,414.5054 L2089.2188,417.5679 L2086.7813,417.5679 L2090.125,405.1773 Z " fill="#000000"/><text fill="#000000" font-family="sans-serif" font-size="14" font-style="italic" lengthAdjust="spacing" textLength="93" x="2105.5" y="417.4999">model-relation</text><line style="stroke:#181818;stroke-width:0.5;" x1="2077.5" x2="2200.5" y1="428.0679" y2="428.0679"/><text fill="#000000" font-family="sans-serif" font-size="14" lengthAdjust="spacing" textLength="100" x="2082.5" y="447.0339">from : keyword</text><text fill="#000000" font-family="sans-serif" font-size="14" lengthAdjust="spacing" textLength="81" x="2082.5" y="466.1018">to : keyword</text><line style="stroke:#181818;stroke-width:0.5;" x1="2077.5" x2="2200.5" y1="474.2038" y2="474.2038"/></g><!--class overarch_dataModel_requirement--><g id="elem_overarch_dataModel_requirement"><rect codeLine="41" fill="#F1F1F1" height="48" id="overarch_dataModel_requirement" rx="2.5" ry="2.5" style="stroke:#181818;stroke-width:0.5;" width="117" x="1057.5" y="669.0679"/><ellipse cx="1072.5" cy="685.0679" fill="#ADD1B2" rx="11" ry="11" style="stroke:#181818;stroke-width:1.0;"/><path d="M1075.4688,690.7085 Q1074.8906,691.0054 1074.25,691.146 Q1073.6094,691.3023 1072.9063,691.3023 Q1070.4063,691.3023 1069.0781,689.6617 Q1067.7656,688.0054 1067.7656,684.8804 Q1067.7656,681.7554 1069.0781,680.0992 Q1070.4063,678.4429 1072.9063,678.4429 Q1073.6094,678.4429 1074.25,678.5992 Q1074.9063,678.7554 1075.4688,679.0523 L1075.4688,681.771 Q1074.8438,681.1929 1074.25,680.9273 Q1073.6563,680.646 1073.0313,680.646 Q1071.6875,680.646 1071,681.7242 Q1070.3125,682.7867 1070.3125,684.8804 Q1070.3125,686.9742 1071,688.0523 Q1071.6875,689.1148 1073.0313,689.1148 Q1073.6563,689.1148 1074.25,688.8492 Q1074.8438,688.5679 1075.4688,687.9898 L1075.4688,690.7085 Z " fill="#000000"/><text fill="#000000" font-family="sans-serif" font-size="14" lengthAdjust="spacing" textLength="85" x="1086.5" y="690.4999">requirement</text><line style="stroke:#181818;stroke-width:0.5;" x1="1058.5" x2="1173.5" y1="701.0679" y2="701.0679"/><line style="stroke:#181818;stroke-width:0.5;" x1="1058.5" x2="1173.5" y1="709.0679" y2="709.0679"/></g><!--class overarch_dataModel_regulation--><g id="elem_overarch_dataModel_regulation"><rect codeLine="42" fill="#F1F1F1" height="48" id="overarch_dataModel_regulation" rx="2.5" ry="2.5" style="stroke:#181818;stroke-width:0.5;" width="102" x="1210" y="669.0679"/><ellipse cx="1225" cy="685.0679" fill="#ADD1B2" rx="11" ry="11" style="stroke:#181818;stroke-width:1.0;"/><path d="M1227.9688,690.7085 Q1227.3906,691.0054 1226.75,691.146 Q1226.1094,691.3023 1225.4063,691.3023 Q1222.9063,691.3023 1221.5781,689.6617 Q1220.2656,688.0054 1220.2656,684.8804 Q1220.2656,681.7554 1221.5781,680.0992 Q1222.9063,678.4429 1225.4063,678.4429 Q1226.1094,678.4429 1226.75,678.5992 Q1227.4063,678.7554 1227.9688,679.0523 L1227.9688,681.771 Q1227.3438,681.1929 1226.75,680.9273 Q1226.1563,680.646 1225.5313,680.646 Q1224.1875,680.646 1223.5,681.7242 Q1222.8125,682.7867 1222.8125,684.8804 Q1222.8125,686.9742 1223.5,688.0523 Q1224.1875,689.1148 1225.5313,689.1148 Q1226.1563,689.1148 1226.75,688.8492 Q1227.3438,688.5679 1227.9688,687.9898 L1227.9688,690.7085 Z " fill="#000000"/><text fill="#000000" font-family="sans-serif" font-size="14" lengthAdjust="spacing" textLength="70" x="1239" y="690.4999">regulation</text><line style="stroke:#181818;stroke-width:0.5;" x1="1211" x2="1311" y1="701.0679" y2="701.0679"/><line style="stroke:#181818;stroke-width:0.5;" x1="1211" x2="1311" y1="709.0679" y2="709.0679"/></g><!--class overarch_dataModel_constraintFor--><g id="elem_overarch_dataModel_constraintFor"><rect codeLine="43" fill="#F1F1F1" height="48" id="overarch_dataModel_constraintFor" rx="2.5" ry="2.5" style="stroke:#181818;stroke-width:0.5;" width="124" x="2842" y="669.0679"/><ellipse cx="2857" cy="685.0679" fill="#ADD1B2" rx="11" ry="11" style="stroke:#181818;stroke-width:1.0;"/><path d="M2859.9688,690.7085 Q2859.3906,691.0054 2858.75,691.146 Q2858.1094,691.3023 2857.4063,691.3023 Q2854.9063,691.3023 2853.5781,689.6617 Q2852.2656,688.0054 2852.2656,684.8804 Q2852.2656,681.7554 2853.5781,680.0992 Q2854.9063,678.4429 2857.4063,678.4429 Q2858.1094,678.4429 2858.75,678.5992 Q2859.4063,678.7554 2859.9688,679.0523 L2859.9688,681.771 Q2859.3438,681.1929 2858.75,680.9273 Q2858.1563,680.646 2857.5313,680.646 Q2856.1875,680.646 2855.5,681.7242 Q2854.8125,682.7867 2854.8125,684.8804 Q2854.8125,686.9742 2855.5,688.0523 Q2856.1875,689.1148 2857.5313,689.1148 Q2858.1563,689.1148 2858.75,688.8492 Q2859.3438,688.5679 2859.9688,687.9898 L2859.9688,690.7085 Z " fill="#000000"/><text fill="#000000" font-family="sans-serif" font-size="14" lengthAdjust="spacing" textLength="92" x="2871" y="690.4999">constraint-for</text><line style="stroke:#181818;stroke-width:0.5;" x1="2843" x2="2965" y1="701.0679" y2="701.0679"/><line style="stroke:#181818;stroke-width:0.5;" x1="2843" x2="2965" y1="709.0679" y2="709.0679"/></g><!--class overarch_dataModel_test--><g id="elem_overarch_dataModel_test"><rect codeLine="44" fill="#F1F1F1" height="48" id="overarch_dataModel_test" rx="2.5" ry="2.5" style="stroke:#181818;stroke-width:0.5;" width="57" x="1347.5" y="669.0679"/><ellipse cx="1362.5" cy="685.0679" fill="#ADD1B2" rx="11" ry="11" style="stroke:#181818;stroke-width:1.0;"/><path d="M1365.4688,690.7085 Q1364.8906,691.0054 1364.25,691.146 Q1363.6094,691.3023 1362.9063,691.3023 Q1360.4063,691.3023 1359.0781,689.6617 Q1357.7656,688.0054 1357.7656,684.8804 Q1357.7656,681.7554 1359.0781,680.0992 Q1360.4063,678.4429 1362.9063,678.4429 Q1363.6094,678.4429 1364.25,678.5992 Q1364.9063,678.7554 1365.4688,679.0523 L1365.4688,681.771 Q1364.8438,681.1929 1364.25,680.9273 Q1363.6563,680.646 1363.0313,680.646 Q1361.6875,680.646 1361,681.7242 Q1360.3125,682.7867 1360.3125,684.8804 Q1360.3125,686.9742 1361,688.0523 Q1361.6875,689.1148 1363.0313,689.1148 Q1363.6563,689.1148 1364.25,688.8492 Q1364.8438,688.5679 1365.4688,687.9898 L1365.4688,690.7085 Z " fill="#000000"/><text fill="#000000" font-family="sans-serif" font-size="14" lengthAdjust="spacing" textLength="25" x="1376.5" y="690.4999">test</text><line style="stroke:#181818;stroke-width:0.5;" x1="1348.5" x2="1403.5" y1="701.0679" y2="701.0679"/><line style="stroke:#181818;stroke-width:0.5;" x1="1348.5" x2="1403.5" y1="709.0679" y2="709.0679"/></g><!--class overarch_dataModel_goal--><g id="elem_overarch_dataModel_goal"><rect codeLine="45" fill="#F1F1F1" height="48" id="overarch_dataModel_goal" rx="2.5" ry="2.5" style="stroke:#181818;stroke-width:0.5;" width="61" x="1439.5" y="669.0679"/><ellipse cx="1454.5" cy="685.0679" fill="#ADD1B2" rx="11" ry="11" style="stroke:#181818;stroke-width:1.0;"/><path d="M1457.4688,690.7085 Q1456.8906,691.0054 1456.25,691.146 Q1455.6094,691.3023 1454.9063,691.3023 Q1452.4063,691.3023 1451.0781,689.6617 Q1449.7656,688.0054 1449.7656,684.8804 Q1449.7656,681.7554 1451.0781,680.0992 Q1452.4063,678.4429 1454.9063,678.4429 Q1455.6094,678.4429 1456.25,678.5992 Q1456.9063,678.7554 1457.4688,679.0523 L1457.4688,681.771 Q1456.8438,681.1929 1456.25,680.9273 Q1455.6563,680.646 1455.0313,680.646 Q1453.6875,680.646 1453,681.7242 Q1452.3125,682.7867 1452.3125,684.8804 Q1452.3125,686.9742 1453,688.0523 Q1453.6875,689.1148 1455.0313,689.1148 Q1455.6563,689.1148 1456.25,688.8492 Q1456.8438,688.5679 1457.4688,687.9898 L1457.4688,690.7085 Z " fill="#000000"/><text fill="#000000" font-family="sans-serif" font-size="14" lengthAdjust="spacing" textLength="29" x="1468.5" y="690.4999">goal</text><line style="stroke:#181818;stroke-width:0.5;" x1="1440.5" x2="1499.5" y1="701.0679" y2="701.0679"/><line style="stroke:#181818;stroke-width:0.5;" x1="1440.5" x2="1499.5" y1="709.0679" y2="709.0679"/></g><!--class overarch_dataModel_decision--><g id="elem_overarch_dataModel_decision"><rect codeLine="46" fill="#F1F1F1" height="48" id="overarch_dataModel_decision" rx="2.5" ry="2.5" style="stroke:#181818;stroke-width:0.5;" width="88" x="1536" y="669.0679"/><ellipse cx="1551" cy="685.0679" fill="#ADD1B2" rx="11" ry="11" style="stroke:#181818;stroke-width:1.0;"/><path d="M1553.9688,690.7085 Q1553.3906,691.0054 1552.75,691.146 Q1552.1094,691.3023 1551.4063,691.3023 Q1548.9063,691.3023 1547.5781,689.6617 Q1546.2656,688.0054 1546.2656,684.8804 Q1546.2656,681.7554 1547.5781,680.0992 Q1548.9063,678.4429 1551.4063,678.4429 Q1552.1094,678.4429 1552.75,678.5992 Q1553.4063,678.7554 1553.9688,679.0523 L1553.9688,681.771 Q1553.3438,681.1929 1552.75,680.9273 Q1552.1563,680.646 1551.5313,680.646 Q1550.1875,680.646 1549.5,681.7242 Q1548.8125,682.7867 1548.8125,684.8804 Q1548.8125,686.9742 1549.5,688.0523 Q1550.1875,689.1148 1551.5313,689.1148 Q1552.1563,689.1148 1552.75,688.8492 Q1553.3438,688.5679 1553.9688,687.9898 L1553.9688,690.7085 Z " fill="#000000"/><text fill="#000000" font-family="sans-serif" font-size="14" lengthAdjust="spacing" textLength="56" x="1565" y="690.4999">decision</text><line style="stroke:#181818;stroke-width:0.5;" x1="1537" x2="1623" y1="701.0679" y2="701.0679"/><line style="stroke:#181818;stroke-width:0.5;" x1="1537" x2="1623" y1="709.0679" y2="709.0679"/></g><!--class overarch_dataModel_element--><g id="elem_overarch_dataModel_element"><rect codeLine="47" fill="#F1F1F1" height="143.3396" id="overarch_dataModel_element" rx="2.5" ry="2.5" style="stroke:#181818;stroke-width:0.5;" width="133" x="1773.5" y="47.0679"/><ellipse cx="1811.45" cy="63.0679" fill="#A9DCDF" rx="11" ry="11" style="stroke:#181818;stroke-width:1.0;"/><path d="M1811.5594,58.4117 L1810.4031,63.4898 L1812.7313,63.4898 L1811.5594,58.4117 Z M1810.075,56.1773 L1813.0594,56.1773 L1816.4188,68.5679 L1813.9656,68.5679 L1813.2,65.5054 L1809.9188,65.5054 L1809.1688,68.5679 L1806.7313,68.5679 L1810.075,56.1773 Z " fill="#000000"/><text fill="#000000" font-family="sans-serif" font-size="14" font-style="italic" lengthAdjust="spacing" textLength="50" x="1830.55" y="68.4999">element</text><line style="stroke:#181818;stroke-width:0.5;" x1="1774.5" x2="1905.5" y1="79.0679" y2="79.0679"/><text fill="#000000" font-family="sans-serif" font-size="14" lengthAdjust="spacing" textLength="121" x="1779.5" y="98.0339">desc : string [0..1]</text><text fill="#000000" font-family="sans-serif" font-size="14" lengthAdjust="spacing" textLength="114" x="1779.5" y="117.1018">doc : string [0..1]</text><text fill="#000000" font-family="sans-serif" font-size="14" lengthAdjust="spacing" textLength="80" x="1779.5" y="136.1697">el : keyword</text><text fill="#000000" font-family="sans-serif" font-size="14" lengthAdjust="spacing" textLength="81" x="1779.5" y="155.2376">id : keyword</text><text fill="#000000" font-family="sans-serif" font-size="14" lengthAdjust="spacing" textLength="90" x="1779.5" y="174.3055">name : string</text><line style="stroke:#181818;stroke-width:0.5;" x1="1774.5" x2="1905.5" y1="182.4075" y2="182.4075"/></g><!--class overarch_dataModel_versionOf--><g id="elem_overarch_dataModel_versionOf"><rect codeLine="54" fill="#F1F1F1" height="48" id="overarch_dataModel_versionOf" rx="2.5" ry="2.5" style="stroke:#181818;stroke-width:0.5;" width="99" x="3001.5" y="669.0679"/><ellipse cx="3016.5" cy="685.0679" fill="#ADD1B2" rx="11" ry="11" style="stroke:#181818;stroke-width:1.0;"/><path d="M3019.4688,690.7085 Q3018.8906,691.0054 3018.25,691.146 Q3017.6094,691.3023 3016.9063,691.3023 Q3014.4063,691.3023 3013.0781,689.6617 Q3011.7656,688.0054 3011.7656,684.8804 Q3011.7656,681.7554 3013.0781,680.0992 Q3014.4063,678.4429 3016.9063,678.4429 Q3017.6094,678.4429 3018.25,678.5992 Q3018.9063,678.7554 3019.4688,679.0523 L3019.4688,681.771 Q3018.8438,681.1929 3018.25,680.9273 Q3017.6563,680.646 3017.0313,680.646 Q3015.6875,680.646 3015,681.7242 Q3014.3125,682.7867 3014.3125,684.8804 Q3014.3125,686.9742 3015,688.0523 Q3015.6875,689.1148 3017.0313,689.1148 Q3017.6563,689.1148 3018.25,688.8492 Q3018.8438,688.5679 3019.4688,687.9898 L3019.4688,690.7085 Z " fill="#000000"/><text fill="#000000" font-family="sans-serif" font-size="14" lengthAdjust="spacing" textLength="67" x="3030.5" y="690.4999">version-of</text><line style="stroke:#181818;stroke-width:0.5;" x1="3002.5" x2="3099.5" y1="701.0679" y2="701.0679"/><line style="stroke:#181818;stroke-width:0.5;" x1="3002.5" x2="3099.5" y1="709.0679" y2="709.0679"/></g><!--reverse link overarch_dataModel_processModelNode to overarch_dataModel_version--><g id="link_overarch_dataModel_processModelNode_overarch_dataModel_version"><path codeLine="55" d="M943.5353,612.2576 C922.9553,632.3976 906.12,648.8779 885.55,669.0079 " fill="none" id="overarch_dataModel_processModelNode-backto-overarch_dataModel_version" style="stroke:#181818;stroke-width:1.0;"/><polygon fill="none" points="956.4,599.6679,939.3387,607.9693,947.7318,616.5458,956.4,599.6679" style="stroke:#181818;stroke-width:1.0;"/></g><!--reverse link overarch_dataModel_modelNode to overarch_dataModel_processModelNode--><g id="link_overarch_dataModel_modelNode_overarch_dataModel_processModelNode"><path codeLine="56" d="M1365.5356,460.8509 C1285.5356,484.4509 1151.06,524.1179 1058.38,551.4479 " fill="none" id="overarch_dataModel_modelNode-backto-overarch_dataModel_processModelNode" style="stroke:#181818;stroke-width:1.0;"/><polygon fill="none" points="1382.8,455.7579,1363.8379,455.0961,1367.2332,466.6057,1382.8,455.7579" style="stroke:#181818;stroke-width:1.0;"/></g><!--reverse link overarch_dataModel_processModelNode to overarch_dataModel_knowledge--><g id="link_overarch_dataModel_processModelNode_overarch_dataModel_knowledge"><path codeLine="57" d="M914.5155,607.3158 C871.6055,627.4558 825.99,648.8779 783.11,669.0079 " fill="none" id="overarch_dataModel_processModelNode-backto-overarch_dataModel_knowledge" style="stroke:#181818;stroke-width:1.0;"/><polygon fill="none" points="930.81,599.6679,911.9662,601.8843,917.0648,612.7473,930.81,599.6679" style="stroke:#181818;stroke-width:1.0;"/></g><!--reverse link overarch_dataModel_element to overarch_dataModel_modelElement--><g id="link_overarch_dataModel_element_overarch_dataModel_modelElement"><path codeLine="58" d="M1840,208.2279 C1840,228.5079 1840,231.9879 1840,249.9579 " fill="none" id="overarch_dataModel_element-backto-overarch_dataModel_modelElement" style="stroke:#181818;stroke-width:1.0;"/><polygon fill="none" points="1840,190.2279,1834,208.2279,1846,208.2279,1840,190.2279" style="stroke:#181818;stroke-width:1.0;"/></g><!--reverse link overarch_dataModel_processModelRelation to overarch_dataModel_inputOf--><g id="link_overarch_dataModel_processModelRelation_overarch_dataModel_inputOf"><path codeLine="59" d="M2213.0888,611.3182 C2189.3688,631.4582 2168.85,648.8779 2145.15,669.0079 " fill="none" id="overarch_dataModel_processModelRelation-backto-overarch_dataModel_inputOf" style="stroke:#181818;stroke-width:1.0;"/><polygon fill="none" points="2226.81,599.6679,2209.2054,606.7445,2216.9722,615.8919,2226.81,599.6679" style="stroke:#181818;stroke-width:1.0;"/></g><!--reverse link overarch_dataModel_processModelNode to overarch_dataModel_information--><g id="link_overarch_dataModel_processModelNode_overarch_dataModel_information"><path codeLine="60" d="M883.4743,587.3798 C770.6443,600.7098 574.61,627.0279 396,669.0679 C390.31,670.4079 384.42,671.9679 378.56,673.6279 " fill="none" id="overarch_dataModel_processModelNode-backto-overarch_dataModel_information" style="stroke:#181818;stroke-width:1.0;"/><polygon fill="none" points="901.35,585.2679,882.7704,581.4212,884.1783,593.3384,901.35,585.2679" style="stroke:#181818;stroke-width:1.0;"/></g><!--reverse link overarch_dataModel_processModelNode to overarch_dataModel_test--><g id="link_overarch_dataModel_processModelNode_overarch_dataModel_test"><path codeLine="61" d="M1076.215,596.6563 C1147.855,612.5063 1238.41,635.2679 1329,669.0679 C1335.04,671.3179 1341.35,674.0979 1347.31,676.9279 " fill="none" id="overarch_dataModel_processModelNode-backto-overarch_dataModel_test" style="stroke:#181818;stroke-width:1.0;"/><polygon fill="none" points="1058.64,592.7679,1074.9189,602.5146,1077.5111,590.798,1058.64,592.7679" style="stroke:#181818;stroke-width:1.0;"/></g><!--reverse link overarch_dataModel_modelRelation to overarch_dataModel_processModelRelation--><g id="link_overarch_dataModel_modelRelation_overarch_dataModel_processModelRelation"><path codeLine="62" d="M2186.7694,495.9372 C2206.2694,518.7372 2217.9,532.3479 2234.12,551.3179 " fill="none" id="overarch_dataModel_modelRelation-backto-overarch_dataModel_processModelRelation" style="stroke:#181818;stroke-width:1.0;"/><polygon fill="none" points="2175.07,482.2579,2182.2096,499.837,2191.3292,492.0374,2175.07,482.2579" style="stroke:#181818;stroke-width:1.0;"/></g><!--reverse link overarch_dataModel_modelElement to overarch_dataModel_modelNode--><g id="link_overarch_dataModel_modelElement_overarch_dataModel_modelNode"><path codeLine="63" d="M1735.3842,331.3596 C1655.2042,359.9296 1556.14,395.2479 1489.16,419.1179 " fill="none" id="overarch_dataModel_modelElement-backto-overarch_dataModel_modelNode" style="stroke:#181818;stroke-width:1.0;"/><polygon fill="none" points="1752.34,325.3179,1733.3703,325.7077,1737.3982,337.0116,1752.34,325.3179" style="stroke:#181818;stroke-width:1.0;"/></g><!--reverse link overarch_dataModel_processModelNode to overarch_dataModel_process--><g id="link_overarch_dataModel_processModelNode_overarch_dataModel_process"><path codeLine="64" d="M980,617.6679 C980,637.8079 980,648.8779 980,669.0079 " fill="none" id="overarch_dataModel_processModelNode-backto-overarch_dataModel_process" style="stroke:#181818;stroke-width:1.0;"/><polygon fill="none" points="980,599.6679,974,617.6679,986,617.6679,980,599.6679" style="stroke:#181818;stroke-width:1.0;"/></g><!--reverse link overarch_dataModel_processModelElement to overarch_dataModel_processModelNode--><g id="link_overarch_dataModel_processModelElement_overarch_dataModel_processModelNode"><path codeLine="65" d="M1733.8262,456.6693 C1565.4762,482.9993 1219.15,537.1679 1058.68,562.2679 " fill="none" id="overarch_dataModel_processModelElement-backto-overarch_dataModel_processModelNode" style="stroke:#181818;stroke-width:1.0;"/><polygon fill="none" points="1751.61,453.8879,1732.8991,450.7414,1734.7533,462.5972,1751.61,453.8879" style="stroke:#181818;stroke-width:1.0;"/></g><!--reverse link overarch_dataModel_modelElement to overarch_dataModel_processModelElement--><g id="link_overarch_dataModel_modelElement_overarch_dataModel_processModelElement"><path codeLine="66" d="M1840,354.1079 C1840,379.8379 1840,393.7879 1840,414.9979 " fill="none" id="overarch_dataModel_modelElement-backto-overarch_dataModel_processModelElement" style="stroke:#181818;stroke-width:1.0;"/><polygon fill="none" points="1840,336.1079,1834,354.1079,1846,354.1079,1840,336.1079" style="stroke:#181818;stroke-width:1.0;"/></g><!--reverse link overarch_dataModel_processModelRelation to overarch_dataModel_controlFor--><g id="link_overarch_dataModel_processModelRelation_overarch_dataModel_controlFor"><path codeLine="67" d="M2184.2989,606.8362 C2137.4489,627.1762 2086.15,649.4479 2039.74,669.5979 " fill="none" id="overarch_dataModel_processModelRelation-backto-overarch_dataModel_controlFor" style="stroke:#181818;stroke-width:1.0;"/><polygon fill="none" points="2200.81,599.6679,2181.9095,601.3325,2186.6884,612.3399,2200.81,599.6679" style="stroke:#181818;stroke-width:1.0;"/></g><!--reverse link overarch_dataModel_processModelRelation to overarch_dataModel_regulationFor--><g id="link_overarch_dataModel_processModelRelation_overarch_dataModel_regulationFor"><path codeLine="68" d="M2148.1482,595.9544 C2056.9282,613.0544 1928.21,638.4979 1803,669.0679 C1797.18,670.4879 1791.14,672.0479 1785.11,673.6579 " fill="none" id="overarch_dataModel_processModelRelation-backto-overarch_dataModel_regulationFor" style="stroke:#181818;stroke-width:1.0;"/><polygon fill="none" points="2165.84,592.6379,2147.0427,590.0571,2149.2537,601.8517,2165.84,592.6379" style="stroke:#181818;stroke-width:1.0;"/></g><!--reverse link overarch_dataModel_processModelNode to overarch_dataModel_decision--><g id="link_overarch_dataModel_processModelNode_overarch_dataModel_decision"><path codeLine="69" d="M1076.8053,587.6958 C1182.5553,600.7058 1357.61,625.9279 1518,669.0679 C1523.88,670.6479 1529.98,672.5579 1535.96,674.5979 " fill="none" id="overarch_dataModel_processModelNode-backto-overarch_dataModel_decision" style="stroke:#181818;stroke-width:1.0;"/><polygon fill="none" points="1058.94,585.4979,1076.0727,593.6509,1077.5379,581.7407,1058.94,585.4979" style="stroke:#181818;stroke-width:1.0;"/></g><!--reverse link overarch_dataModel_processModelNode to overarch_dataModel_constraint--><g id="link_overarch_dataModel_processModelNode_overarch_dataModel_constraint"><path codeLine="70" d="M883.492,592.9354 C793.472,608.7654 659.81,634.3979 532,669.0679 C526.23,670.6379 520.23,672.4179 514.29,674.2879 " fill="none" id="overarch_dataModel_processModelNode-backto-overarch_dataModel_constraint" style="stroke:#181818;stroke-width:1.0;"/><polygon fill="none" points="901.22,589.8179,882.4529,587.0261,884.5312,598.8447,901.22,589.8179" style="stroke:#181818;stroke-width:1.0;"/></g><!--reverse link overarch_dataModel_modelElement to overarch_dataModel_modelRelation--><g id="link_overarch_dataModel_modelElement_overarch_dataModel_modelRelation"><path codeLine="71" d="M1943.5075,343.9177 C1991.2475,366.9077 2033.08,387.0579 2076.32,407.8779 " fill="none" id="overarch_dataModel_modelElement-backto-overarch_dataModel_modelRelation" style="stroke:#181818;stroke-width:1.0;"/><polygon fill="none" points="1927.29,336.1079,1940.9042,349.3236,1946.1108,338.5119,1927.29,336.1079" style="stroke:#181818;stroke-width:1.0;"/></g><!--reverse link overarch_dataModel_processModelNode to overarch_dataModel_regulation--><g id="link_overarch_dataModel_processModelNode_overarch_dataModel_regulation"><path codeLine="72" d="M1052.8388,606.5103 C1103.4488,627.3103 1160.57,650.7879 1209.64,670.9579 " fill="none" id="overarch_dataModel_processModelNode-backto-overarch_dataModel_regulation" style="stroke:#181818;stroke-width:1.0;"/><polygon fill="none" points="1036.19,599.6679,1050.558,612.0599,1055.1196,600.9607,1036.19,599.6679" style="stroke:#181818;stroke-width:1.0;"/></g><!--reverse link overarch_dataModel_processModelRelation to overarch_dataModel_roleIn--><g id="link_overarch_dataModel_processModelRelation_overarch_dataModel_roleIn"><path codeLine="73" d="M2360.1546,592.014 C2453.4946,606.584 2586.58,630.7479 2713,669.0679 C2718.83,670.8379 2724.9,672.9879 2730.79,675.2479 " fill="none" id="overarch_dataModel_processModelRelation-backto-overarch_dataModel_roleIn" style="stroke:#181818;stroke-width:1.0;"/><polygon fill="none" points="2342.37,589.2379,2359.2293,597.9422,2361.08,586.0858,2342.37,589.2379" style="stroke:#181818;stroke-width:1.0;"/></g><!--reverse link overarch_dataModel_processModelRelation to overarch_dataModel_versionOf--><g id="link_overarch_dataModel_processModelRelation_overarch_dataModel_versionOf"><path codeLine="74" d="M2360.0663,583.1514 C2498.3063,592.8014 2755.98,616.0679 2984,669.0679 C2989.63,670.3779 2995.45,671.9779 3001.2,673.7279 " fill="none" id="overarch_dataModel_processModelRelation-backto-overarch_dataModel_versionOf" style="stroke:#181818;stroke-width:1.0;"/><polygon fill="none" points="2342.11,581.8979,2359.6485,589.1368,2360.4841,577.1659,2342.11,581.8979" style="stroke:#181818;stroke-width:1.0;"/></g><!--reverse link overarch_dataModel_technicalElement to overarch_dataModel_artifact--><g id="link_overarch_dataModel_technicalElement_overarch_dataModel_artifact"><path codeLine="75" d="M78,627.3579 C78,646.2979 78,651.6779 78,668.7379 " fill="none" id="overarch_dataModel_technicalElement-backto-overarch_dataModel_artifact" style="stroke:#181818;stroke-width:1.0;"/><polygon fill="none" points="78,609.3579,72,627.3579,84,627.3579,78,609.3579" style="stroke:#181818;stroke-width:1.0;"/></g><!--reverse link overarch_dataModel_processModelRelation to overarch_dataModel_goalFor--><g id="link_overarch_dataModel_processModelRelation_overarch_dataModel_goalFor"><path codeLine="76" d="M2324.3299,606.7695 C2375.0799,628.5595 2433.62,653.6879 2480.36,673.7579 " fill="none" id="overarch_dataModel_processModelRelation-backto-overarch_dataModel_goalFor" style="stroke:#181818;stroke-width:1.0;"/><polygon fill="none" points="2307.79,599.6679,2321.9627,612.2828,2326.6971,601.2562,2307.79,599.6679" style="stroke:#181818;stroke-width:1.0;"/></g><!--reverse link overarch_dataModel_processModelNode to overarch_dataModel_requirement--><g id="link_overarch_dataModel_processModelNode_overarch_dataModel_requirement"><path codeLine="77" d="M1020.9112,611.3182 C1044.6312,631.4582 1065.15,648.8779 1088.85,669.0079 " fill="none" id="overarch_dataModel_processModelNode-backto-overarch_dataModel_requirement" style="stroke:#181818;stroke-width:1.0;"/><polygon fill="none" points="1007.19,599.6679,1017.0278,615.8919,1024.7946,606.7445,1007.19,599.6679" style="stroke:#181818;stroke-width:1.0;"/></g><!--reverse link overarch_dataModel_processModelNode to overarch_dataModel_goal--><g id="link_overarch_dataModel_processModelNode_overarch_dataModel_goal"><path codeLine="78" d="M1076.3616,589.8331 C1165.9316,603.2431 1298.18,627.1279 1422,669.0679 C1427.78,671.0279 1433.76,673.4979 1439.47,676.0979 " fill="none" id="overarch_dataModel_processModelNode-backto-overarch_dataModel_goal" style="stroke:#181818;stroke-width:1.0;"/><polygon fill="none" points="1058.56,587.1679,1075.4732,595.767,1077.25,583.8992,1058.56,587.1679" style="stroke:#181818;stroke-width:1.0;"/></g><!--reverse link overarch_dataModel_processModelRelation to overarch_dataModel_requiredFor--><g id="link_overarch_dataModel_processModelRelation_overarch_dataModel_requiredFor"><path codeLine="79" d="M2254,617.6679 C2254,637.8079 2254,648.8779 2254,669.0079 " fill="none" id="overarch_dataModel_processModelRelation-backto-overarch_dataModel_requiredFor" style="stroke:#181818;stroke-width:1.0;"/><polygon fill="none" points="2254,599.6679,2248,617.6679,2260,617.6679,2254,599.6679" style="stroke:#181818;stroke-width:1.0;"/></g><!--reverse link overarch_dataModel_processModelNode to overarch_dataModel_capability--><g id="link_overarch_dataModel_processModelNode_overarch_dataModel_capability"><path codeLine="80" d="M884.0959,603.264 C819.9559,621.354 744.43,643.2979 664,669.0679 C658.34,670.8779 652.43,672.8479 646.57,674.8279 " fill="none" id="overarch_dataModel_processModelNode-backto-overarch_dataModel_capability" style="stroke:#181818;stroke-width:1.0;"/><polygon fill="none" points="901.42,598.3779,882.4672,597.4893,885.7245,609.0387,901.42,598.3779" style="stroke:#181818;stroke-width:1.0;"/></g><!--reverse link overarch_dataModel_processModelRelation to overarch_dataModel_constraintFor--><g id="link_overarch_dataModel_processModelRelation_overarch_dataModel_constraintFor"><path codeLine="81" d="M2360.0395,589.7607 C2472.7695,604.4307 2655.77,630.8779 2825,669.0679 C2830.43,670.2979 2836.05,671.6779 2841.66,673.1479 " fill="none" id="overarch_dataModel_processModelRelation-backto-overarch_dataModel_constraintFor" style="stroke:#181818;stroke-width:1.0;"/><polygon fill="none" points="2342.19,587.4379,2359.2652,595.7106,2360.8138,583.8109,2342.19,587.4379" style="stroke:#181818;stroke-width:1.0;"/></g><!--reverse link overarch_dataModel_processModelNode to overarch_dataModel_control--><g id="link_overarch_dataModel_processModelNode_overarch_dataModel_control"><path codeLine="82" d="M883.2555,580.8651 C748.0555,588.0651 481.95,608.6579 250,669.0679 C244.32,670.5479 238.45,672.4479 232.73,674.5279 " fill="none" id="overarch_dataModel_processModelNode-backto-overarch_dataModel_control" style="stroke:#181818;stroke-width:1.0;"/><polygon fill="none" points="901.23,579.9079,882.9364,574.8736,883.5745,586.8567,901.23,579.9079" style="stroke:#181818;stroke-width:1.0;"/></g><!--reverse link overarch_dataModel_processModelRelation to overarch_dataModel_artifactOf--><g id="link_overarch_dataModel_processModelRelation_overarch_dataModel_artifactOf"><path codeLine="83" d="M2296.3561,611.0235 C2321.1261,631.1635 2342.9,648.8779 2367.65,669.0079 " fill="none" id="overarch_dataModel_processModelRelation-backto-overarch_dataModel_artifactOf" style="stroke:#181818;stroke-width:1.0;"/><polygon fill="none" points="2282.39,599.6679,2292.5709,615.6788,2300.1413,606.3681,2282.39,599.6679" style="stroke:#181818;stroke-width:1.0;"/></g><!--reverse link overarch_dataModel_processModelElement to overarch_dataModel_processModelRelation--><g id="link_overarch_dataModel_processModelElement_overarch_dataModel_processModelRelation"><path codeLine="84" d="M1928.2892,468.7495 C2004.3492,493.4595 2107.1,526.8379 2183.07,551.5279 " fill="none" id="overarch_dataModel_processModelElement-backto-overarch_dataModel_processModelRelation" style="stroke:#181818;stroke-width:1.0;"/><polygon fill="none" points="1911.17,463.1879,1926.4354,474.4559,1930.1431,463.0431,1911.17,463.1879" style="stroke:#181818;stroke-width:1.0;"/></g><!--reverse link overarch_dataModel_processModelNode to overarch_dataModel_artifact--><g id="link_overarch_dataModel_processModelNode_overarch_dataModel_artifact"><path codeLine="85" d="M883.3985,578.7296 C732.7385,583.3496 411.75,600.6079 136,669.0679 C130.11,670.5279 124.03,672.4479 118.11,674.5679 " fill="none" id="overarch_dataModel_processModelNode-backto-overarch_dataModel_artifact" style="stroke:#181818;stroke-width:1.0;"/><polygon fill="none" points="901.39,578.1779,883.2146,572.7324,883.5824,584.7268,901.39,578.1779" style="stroke:#181818;stroke-width:1.0;"/></g><!--reverse link overarch_dataModel_processModelRelation to overarch_dataModel_testFor--><g id="link_overarch_dataModel_processModelRelation_overarch_dataModel_testFor"><path codeLine="86" d="M2148.3055,602.5953 C2080.2955,619.8953 2001.66,641.3579 1919,669.0679 C1913.35,670.9579 1907.45,673.1079 1901.67,675.2979 " fill="none" id="overarch_dataModel_processModelRelation-backto-overarch_dataModel_testFor" style="stroke:#181818;stroke-width:1.0;"/><polygon fill="none" points="2165.75,598.1579,2146.8264,596.7805,2149.7847,608.4102,2165.75,598.1579" style="stroke:#181818;stroke-width:1.0;"/></g><!--reverse link overarch_dataModel_processModelRelation to overarch_dataModel_outputOf--><g id="link_overarch_dataModel_processModelRelation_overarch_dataModel_outputOf"><path codeLine="87" d="M2359.4758,604.2999 C2426.0058,622.1399 2501.98,643.3779 2583,669.0679 C2588.59,670.8379 2594.42,672.7779 2600.2,674.7479 " fill="none" id="overarch_dataModel_processModelRelation-backto-overarch_dataModel_outputOf" style="stroke:#181818;stroke-width:1.0;"/><polygon fill="none" points="2342.09,599.6379,2357.9218,610.0952,2361.0298,598.5046,2342.09,599.6379" style="stroke:#181818;stroke-width:1.0;"/></g><!--SRC=[hLXDRzmW4BtpAr3kZjfhrMihzP2swZMA8cAF7HGCMy2DehJ_lR36DcpCs16-h6JcpVZD9-Ert0gWFxMgmHXweneGz8k07gGrXDI2kTEhMachbRYYp53r1pJJzUDzmomxu- -3cBx-cnGqT8DWbYjPjKhdz1RKLwKZRQOjRrbjStgJF5AnO2psAYzFNn98Oqe1akfnwJJwC-kSNWJnYkp1MEtf1Wkz1rKm1ZbdummAYQ2lX59dRz3Slj1Fz0bUdfLkwEs7w-kFTqvcMMVSkG4xdKLqJuEjL9ldwkG_sZGmdY_FSriGQ-wTnbggThaPm3U9jmiLTc8FN3YlirHcn1eL2_MZv3NRf343uuZxGnzLgxditWJsIQfd0Kq7EPip87B8eGnIE46SDDBlWMjey3OQCUjDXEH-Wepfn_CetU-U97vtFzlMD0YqWsABlm8sygrJ36rSBq-ZeGQBzy48I1eXaDZW62TB2QXurYal_ePC12p4FHRRVJ7jqs2w0c-rwfTnuYjUHO-NDOZrJmHPlGMsRu3L0RGnd0CgpRIVzDWjS556M0b5q0PgZdNk95zBpyRiWMZaD63gDoF77QkrKtTJnydZJV8eMG-p4hcSG4Wd1CJO2dkw_VFVga8C4RISSygNRobYCezYWiG_fnpVn6JlhCeP2zTjaJVHUb5antS3sHmKUn8qWSdM8eF6k3ZD0KXsxXabfTU_rz1H1RJifCMcalMxAF3Jz2ioiWpqiZB2Yd4tcIKsvM4-N_l5PkQnJFRihpahqyfNJ2UiM8L1dhU68ZkUom7TC6_HPMKyVv4SqUlBYbFQMtvg53DQlXYE7BA7TEnXbHt-AYYsCtrH_0S0]--></g></svg>