<svg xmlns="http://www.w3.org/2000/svg" xmlns:xlink="http://www.w3.org/1999/xlink" contentStyleType="text/css" height="534px" preserveAspectRatio="none" style="width:1420px;height:534px;background:#FFFFFF;" version="1.1" viewBox="0 0 1420 534" width="1420px" zoomAndPan="magnify"><defs/><g><text fill="#000000" font-family="sans-serif" font-size="14" font-weight="bold" lengthAdjust="spacing" textLength="168" x="619.25" y="24.9659">Process Model Elements</text><!--class overarch_dataModel_element--><g id="elem_overarch_dataModel_element"><rect codeLine="9" fill="#F1F1F1" height="48" id="overarch_dataModel_element" rx="2.5" ry="2.5" style="stroke:#181818;stroke-width:0.5;" width="82" x="815.5" y="47.0679"/><ellipse cx="830.5" cy="63.0679" fill="#A9DCDF" rx="11" ry="11" style="stroke:#181818;stroke-width:1.0;"/><path d="M830.6094,58.4117 L829.4531,63.4898 L831.7813,63.4898 L830.6094,58.4117 Z M829.125,56.1773 L832.1094,56.1773 L835.4688,68.5679 L833.0156,68.5679 L832.25,65.5054 L828.9688,65.5054 L828.2188,68.5679 L825.7813,68.5679 L829.125,56.1773 Z " fill="#000000"/><text fill="#000000" font-family="sans-serif" font-size="14" font-style="italic" lengthAdjust="spacing" textLength="50" x="844.5" y="68.4999">element</text><line style="stroke:#181818;stroke-width:0.5;" x1="816.5" x2="896.5" y1="79.0679" y2="79.0679"/><line style="stroke:#181818;stroke-width:0.5;" x1="816.5" x2="896.5" y1="87.0679" y2="87.0679"/></g><!--class overarch_dataModel_information--><g id="elem_overarch_dataModel_information"><rect codeLine="10" fill="#F1F1F1" height="48" id="overarch_dataModel_information" rx="2.5" ry="2.5" style="stroke:#181818;stroke-width:0.5;" width="111" x="7" y="479.0679"/><ellipse cx="22" cy="495.0679" fill="#ADD1B2" rx="11" ry="11" style="stroke:#181818;stroke-width:1.0;"/><path d="M24.9688,500.7085 Q24.3906,501.0054 23.75,501.146 Q23.1094,501.3023 22.4063,501.3023 Q19.9063,501.3023 18.5781,499.6617 Q17.2656,498.0054 17.2656,494.8804 Q17.2656,491.7554 18.5781,490.0992 Q19.9063,488.4429 22.4063,488.4429 Q23.1094,488.4429 23.75,488.5992 Q24.4063,488.7554 24.9688,489.0523 L24.9688,491.771 Q24.3438,491.1929 23.75,490.9273 Q23.1563,490.646 22.5313,490.646 Q21.1875,490.646 20.5,491.7242 Q19.8125,492.7867 19.8125,494.8804 Q19.8125,496.9742 20.5,498.0523 Q21.1875,499.1148 22.5313,499.1148 Q23.1563,499.1148 23.75,498.8492 Q24.3438,498.5679 24.9688,497.9898 L24.9688,500.7085 Z " fill="#000000"/><text fill="#000000" font-family="sans-serif" font-size="14" lengthAdjust="spacing" textLength="79" x="36" y="500.4999">information</text><line style="stroke:#181818;stroke-width:0.5;" x1="8" x2="117" y1="511.0679" y2="511.0679"/><line style="stroke:#181818;stroke-width:0.5;" x1="8" x2="117" y1="519.0679" y2="519.0679"/></g><!--class overarch_dataModel_inputOf--><g id="elem_overarch_dataModel_inputOf"><rect codeLine="11" fill="#F1F1F1" height="48" id="overarch_dataModel_inputOf" rx="2.5" ry="2.5" style="stroke:#181818;stroke-width:0.5;" width="86" x="935.5" y="479.0679"/><ellipse cx="950.5" cy="495.0679" fill="#ADD1B2" rx="11" ry="11" style="stroke:#181818;stroke-width:1.0;"/><path d="M953.4688,500.7085 Q952.8906,501.0054 952.25,501.146 Q951.6094,501.3023 950.9063,501.3023 Q948.4063,501.3023 947.0781,499.6617 Q945.7656,498.0054 945.7656,494.8804 Q945.7656,491.7554 947.0781,490.0992 Q948.4063,488.4429 950.9063,488.4429 Q951.6094,488.4429 952.25,488.5992 Q952.9063,488.7554 953.4688,489.0523 L953.4688,491.771 Q952.8438,491.1929 952.25,490.9273 Q951.6563,490.646 951.0313,490.646 Q949.6875,490.646 949,491.7242 Q948.3125,492.7867 948.3125,494.8804 Q948.3125,496.9742 949,498.0523 Q949.6875,499.1148 951.0313,499.1148 Q951.6563,499.1148 952.25,498.8492 Q952.8438,498.5679 953.4688,497.9898 L953.4688,500.7085 Z " fill="#000000"/><text fill="#000000" font-family="sans-serif" font-size="14" lengthAdjust="spacing" textLength="54" x="964.5" y="500.4999">input-of</text><line style="stroke:#181818;stroke-width:0.5;" x1="936.5" x2="1020.5" y1="511.0679" y2="511.0679"/><line style="stroke:#181818;stroke-width:0.5;" x1="936.5" x2="1020.5" y1="519.0679" y2="519.0679"/></g><!--class overarch_dataModel_processModelElement--><g id="elem_overarch_dataModel_processModelElement"><rect codeLine="12" fill="#F1F1F1" height="48" id="overarch_dataModel_processModelElement" rx="2.5" ry="2.5" style="stroke:#181818;stroke-width:0.5;" width="176" x="768.5" y="263.0679"/><ellipse cx="783.5" cy="279.0679" fill="#A9DCDF" rx="11" ry="11" style="stroke:#181818;stroke-width:1.0;"/><path d="M783.6094,274.4117 L782.4531,279.4898 L784.7813,279.4898 L783.6094,274.4117 Z M782.125,272.1773 L785.1094,272.1773 L788.4688,284.5679 L786.0156,284.5679 L785.25,281.5054 L781.9688,281.5054 L781.2188,284.5679 L778.7813,284.5679 L782.125,272.1773 Z " fill="#000000"/><text fill="#000000" font-family="sans-serif" font-size="14" font-style="italic" lengthAdjust="spacing" textLength="144" x="797.5" y="284.4999">process-model-element</text><line style="stroke:#181818;stroke-width:0.5;" x1="769.5" x2="943.5" y1="295.0679" y2="295.0679"/><line style="stroke:#181818;stroke-width:0.5;" x1="769.5" x2="943.5" y1="303.0679" y2="303.0679"/></g><!--class overarch_dataModel_capability--><g id="elem_overarch_dataModel_capability"><rect codeLine="13" fill="#F1F1F1" height="48" id="overarch_dataModel_capability" rx="2.5" ry="2.5" style="stroke:#181818;stroke-width:0.5;" width="97" x="153" y="479.0679"/><ellipse cx="168" cy="495.0679" fill="#ADD1B2" rx="11" ry="11" style="stroke:#181818;stroke-width:1.0;"/><path d="M170.9688,500.7085 Q170.3906,501.0054 169.75,501.146 Q169.1094,501.3023 168.4063,501.3023 Q165.9063,501.3023 164.5781,499.6617 Q163.2656,498.0054 163.2656,494.8804 Q163.2656,491.7554 164.5781,490.0992 Q165.9063,488.4429 168.4063,488.4429 Q169.1094,488.4429 169.75,488.5992 Q170.4063,488.7554 170.9688,489.0523 L170.9688,491.771 Q170.3438,491.1929 169.75,490.9273 Q169.1563,490.646 168.5313,490.646 Q167.1875,490.646 166.5,491.7242 Q165.8125,492.7867 165.8125,494.8804 Q165.8125,496.9742 166.5,498.0523 Q167.1875,499.1148 168.5313,499.1148 Q169.1563,499.1148 169.75,498.8492 Q170.3438,498.5679 170.9688,497.9898 L170.9688,500.7085 Z " fill="#000000"/><text fill="#000000" font-family="sans-serif" font-size="14" lengthAdjust="spacing" textLength="65" x="182" y="500.4999">capability</text><line style="stroke:#181818;stroke-width:0.5;" x1="154" x2="249" y1="511.0679" y2="511.0679"/><line style="stroke:#181818;stroke-width:0.5;" x1="154" x2="249" y1="519.0679" y2="519.0679"/></g><!--class overarch_dataModel_knowledge--><g id="elem_overarch_dataModel_knowledge"><rect codeLine="14" fill="#F1F1F1" height="48" id="overarch_dataModel_knowledge" rx="2.5" ry="2.5" style="stroke:#181818;stroke-width:0.5;" width="105" x="285" y="479.0679"/><ellipse cx="300" cy="495.0679" fill="#ADD1B2" rx="11" ry="11" style="stroke:#181818;stroke-width:1.0;"/><path d="M302.9688,500.7085 Q302.3906,501.0054 301.75,501.146 Q301.1094,501.3023 300.4063,501.3023 Q297.9063,501.3023 296.5781,499.6617 Q295.2656,498.0054 295.2656,494.8804 Q295.2656,491.7554 296.5781,490.0992 Q297.9063,488.4429 300.4063,488.4429 Q301.1094,488.4429 301.75,488.5992 Q302.4063,488.7554 302.9688,489.0523 L302.9688,491.771 Q302.3438,491.1929 301.75,490.9273 Q301.1563,490.646 300.5313,490.646 Q299.1875,490.646 298.5,491.7242 Q297.8125,492.7867 297.8125,494.8804 Q297.8125,496.9742 298.5,498.0523 Q299.1875,499.1148 300.5313,499.1148 Q301.1563,499.1148 301.75,498.8492 Q302.3438,498.5679 302.9688,497.9898 L302.9688,500.7085 Z " fill="#000000"/><text fill="#000000" font-family="sans-serif" font-size="14" lengthAdjust="spacing" textLength="73" x="314" y="500.4999">knowledge</text><line style="stroke:#181818;stroke-width:0.5;" x1="286" x2="389" y1="511.0679" y2="511.0679"/><line style="stroke:#181818;stroke-width:0.5;" x1="286" x2="389" y1="519.0679" y2="519.0679"/></g><!--class overarch_dataModel_requiredFor--><g id="elem_overarch_dataModel_requiredFor"><rect codeLine="15" fill="#F1F1F1" height="48" id="overarch_dataModel_requiredFor" rx="2.5" ry="2.5" style="stroke:#181818;stroke-width:0.5;" width="115" x="1057" y="479.0679"/><ellipse cx="1072" cy="495.0679" fill="#ADD1B2" rx="11" ry="11" style="stroke:#181818;stroke-width:1.0;"/><path d="M1074.9688,500.7085 Q1074.3906,501.0054 1073.75,501.146 Q1073.1094,501.3023 1072.4063,501.3023 Q1069.9063,501.3023 1068.5781,499.6617 Q1067.2656,498.0054 1067.2656,494.8804 Q1067.2656,491.7554 1068.5781,490.0992 Q1069.9063,488.4429 1072.4063,488.4429 Q1073.1094,488.4429 1073.75,488.5992 Q1074.4063,488.7554 1074.9688,489.0523 L1074.9688,491.771 Q1074.3438,491.1929 1073.75,490.9273 Q1073.1563,490.646 1072.5313,490.646 Q1071.1875,490.646 1070.5,491.7242 Q1069.8125,492.7867 1069.8125,494.8804 Q1069.8125,496.9742 1070.5,498.0523 Q1071.1875,499.1148 1072.5313,499.1148 Q1073.1563,499.1148 1073.75,498.8492 Q1074.3438,498.5679 1074.9688,497.9898 L1074.9688,500.7085 Z " fill="#000000"/><text fill="#000000" font-family="sans-serif" font-size="14" lengthAdjust="spacing" textLength="83" x="1086" y="500.4999">required-for</text><line style="stroke:#181818;stroke-width:0.5;" x1="1058" x2="1171" y1="511.0679" y2="511.0679"/><line style="stroke:#181818;stroke-width:0.5;" x1="1058" x2="1171" y1="519.0679" y2="519.0679"/></g><!--class overarch_dataModel_processModelNode--><g id="elem_overarch_dataModel_processModelNode"><rect codeLine="16" fill="#F1F1F1" height="48" id="overarch_dataModel_processModelNode" rx="2.5" ry="2.5" style="stroke:#181818;stroke-width:0.5;" width="157" x="525" y="371.0679"/><ellipse cx="540" cy="387.0679" fill="#A9DCDF" rx="11" ry="11" style="stroke:#181818;stroke-width:1.0;"/><path d="M540.1094,382.4117 L538.9531,387.4898 L541.2813,387.4898 L540.1094,382.4117 Z M538.625,380.1773 L541.6094,380.1773 L544.9688,392.5679 L542.5156,392.5679 L541.75,389.5054 L538.4688,389.5054 L537.7188,392.5679 L535.2813,392.5679 L538.625,380.1773 Z " fill="#000000"/><text fill="#000000" font-family="sans-serif" font-size="14" font-style="italic" lengthAdjust="spacing" textLength="125" x="554" y="392.4999">process-model-node</text><line style="stroke:#181818;stroke-width:0.5;" x1="526" x2="681" y1="403.0679" y2="403.0679"/><line style="stroke:#181818;stroke-width:0.5;" x1="526" x2="681" y1="411.0679" y2="411.0679"/></g><!--class overarch_dataModel_processModelRelation--><g id="elem_overarch_dataModel_processModelRelation"><rect codeLine="17" fill="#F1F1F1" height="48" id="overarch_dataModel_processModelRelation" rx="2.5" ry="2.5" style="stroke:#181818;stroke-width:0.5;" width="176" x="958.5" y="371.0679"/><ellipse cx="973.5" cy="387.0679" fill="#A9DCDF" rx="11" ry="11" style="stroke:#181818;stroke-width:1.0;"/><path d="M973.6094,382.4117 L972.4531,387.4898 L974.7813,387.4898 L973.6094,382.4117 Z M972.125,380.1773 L975.1094,380.1773 L978.4688,392.5679 L976.0156,392.5679 L975.25,389.5054 L971.9688,389.5054 L971.2188,392.5679 L968.7813,392.5679 L972.125,380.1773 Z " fill="#000000"/><text fill="#000000" font-family="sans-serif" font-size="14" font-style="italic" lengthAdjust="spacing" textLength="144" x="987.5" y="392.4999">process-model-relation</text><line style="stroke:#181818;stroke-width:0.5;" x1="959.5" x2="1133.5" y1="403.0679" y2="403.0679"/><line style="stroke:#181818;stroke-width:0.5;" x1="959.5" x2="1133.5" y1="411.0679" y2="411.0679"/></g><!--class overarch_dataModel_outputOf--><g id="elem_overarch_dataModel_outputOf"><rect codeLine="18" fill="#F1F1F1" height="48" id="overarch_dataModel_outputOf" rx="2.5" ry="2.5" style="stroke:#181818;stroke-width:0.5;" width="95" x="1207" y="479.0679"/><ellipse cx="1222" cy="495.0679" fill="#ADD1B2" rx="11" ry="11" style="stroke:#181818;stroke-width:1.0;"/><path d="M1224.9688,500.7085 Q1224.3906,501.0054 1223.75,501.146 Q1223.1094,501.3023 1222.4063,501.3023 Q1219.9063,501.3023 1218.5781,499.6617 Q1217.2656,498.0054 1217.2656,494.8804 Q1217.2656,491.7554 1218.5781,490.0992 Q1219.9063,488.4429 1222.4063,488.4429 Q1223.1094,488.4429 1223.75,488.5992 Q1224.4063,488.7554 1224.9688,489.0523 L1224.9688,491.771 Q1224.3438,491.1929 1223.75,490.9273 Q1223.1563,490.646 1222.5313,490.646 Q1221.1875,490.646 1220.5,491.7242 Q1219.8125,492.7867 1219.8125,494.8804 Q1219.8125,496.9742 1220.5,498.0523 Q1221.1875,499.1148 1222.5313,499.1148 Q1223.1563,499.1148 1223.75,498.8492 Q1224.3438,498.5679 1224.9688,497.9898 L1224.9688,500.7085 Z " fill="#000000"/><text fill="#000000" font-family="sans-serif" font-size="14" lengthAdjust="spacing" textLength="63" x="1236" y="500.4999">output-of</text><line style="stroke:#181818;stroke-width:0.5;" x1="1208" x2="1301" y1="511.0679" y2="511.0679"/><line style="stroke:#181818;stroke-width:0.5;" x1="1208" x2="1301" y1="519.0679" y2="519.0679"/></g><!--class overarch_dataModel_process--><g id="elem_overarch_dataModel_process"><rect codeLine="19" fill="#F1F1F1" height="48" id="overarch_dataModel_process" rx="2.5" ry="2.5" style="stroke:#181818;stroke-width:0.5;" width="84" x="425.5" y="479.0679"/><ellipse cx="440.5" cy="495.0679" fill="#ADD1B2" rx="11" ry="11" style="stroke:#181818;stroke-width:1.0;"/><path d="M443.4688,500.7085 Q442.8906,501.0054 442.25,501.146 Q441.6094,501.3023 440.9063,501.3023 Q438.4063,501.3023 437.0781,499.6617 Q435.7656,498.0054 435.7656,494.8804 Q435.7656,491.7554 437.0781,490.0992 Q438.4063,488.4429 440.9063,488.4429 Q441.6094,488.4429 442.25,488.5992 Q442.9063,488.7554 443.4688,489.0523 L443.4688,491.771 Q442.8438,491.1929 442.25,490.9273 Q441.6563,490.646 441.0313,490.646 Q439.6875,490.646 439,491.7242 Q438.3125,492.7867 438.3125,494.8804 Q438.3125,496.9742 439,498.0523 Q439.6875,499.1148 441.0313,499.1148 Q441.6563,499.1148 442.25,498.8492 Q442.8438,498.5679 443.4688,497.9898 L443.4688,500.7085 Z " fill="#000000"/><text fill="#000000" font-family="sans-serif" font-size="14" lengthAdjust="spacing" textLength="52" x="454.5" y="500.4999">process</text><line style="stroke:#181818;stroke-width:0.5;" x1="426.5" x2="508.5" y1="511.0679" y2="511.0679"/><line style="stroke:#181818;stroke-width:0.5;" x1="426.5" x2="508.5" y1="519.0679" y2="519.0679"/></g><!--class overarch_dataModel_roleIn--><g id="elem_overarch_dataModel_roleIn"><rect codeLine="20" fill="#F1F1F1" height="48" id="overarch_dataModel_roleIn" rx="2.5" ry="2.5" style="stroke:#181818;stroke-width:0.5;" width="76" x="1337.5" y="479.0679"/><ellipse cx="1352.5" cy="495.0679" fill="#ADD1B2" rx="11" ry="11" style="stroke:#181818;stroke-width:1.0;"/><path d="M1355.4688,500.7085 Q1354.8906,501.0054 1354.25,501.146 Q1353.6094,501.3023 1352.9063,501.3023 Q1350.4063,501.3023 1349.0781,499.6617 Q1347.7656,498.0054 1347.7656,494.8804 Q1347.7656,491.7554 1349.0781,490.0992 Q1350.4063,488.4429 1352.9063,488.4429 Q1353.6094,488.4429 1354.25,488.5992 Q1354.9063,488.7554 1355.4688,489.0523 L1355.4688,491.771 Q1354.8438,491.1929 1354.25,490.9273 Q1353.6563,490.646 1353.0313,490.646 Q1351.6875,490.646 1351,491.7242 Q1350.3125,492.7867 1350.3125,494.8804 Q1350.3125,496.9742 1351,498.0523 Q1351.6875,499.1148 1353.0313,499.1148 Q1353.6563,499.1148 1354.25,498.8492 Q1354.8438,498.5679 1355.4688,497.9898 L1355.4688,500.7085 Z " fill="#000000"/><text fill="#000000" font-family="sans-serif" font-size="14" lengthAdjust="spacing" textLength="44" x="1366.5" y="500.4999">role-in</text><line style="stroke:#181818;stroke-width:0.5;" x1="1338.5" x2="1412.5" y1="511.0679" y2="511.0679"/><line style="stroke:#181818;stroke-width:0.5;" x1="1338.5" x2="1412.5" y1="519.0679" y2="519.0679"/></g><!--class overarch_dataModel_modelNode--><g id="elem_overarch_dataModel_modelNode"><rect codeLine="21" fill="#F1F1F1" height="48" id="overarch_dataModel_modelNode" rx="2.5" ry="2.5" style="stroke:#181818;stroke-width:0.5;" width="106" x="620.5" y="263.0679"/><ellipse cx="635.5" cy="279.0679" fill="#A9DCDF" rx="11" ry="11" style="stroke:#181818;stroke-width:1.0;"/><path d="M635.6094,274.4117 L634.4531,279.4898 L636.7813,279.4898 L635.6094,274.4117 Z M634.125,272.1773 L637.1094,272.1773 L640.4688,284.5679 L638.0156,284.5679 L637.25,281.5054 L633.9688,281.5054 L633.2188,284.5679 L630.7813,284.5679 L634.125,272.1773 Z " fill="#000000"/><text fill="#000000" font-family="sans-serif" font-size="14" font-style="italic" lengthAdjust="spacing" textLength="74" x="649.5" y="284.4999">model-node</text><line style="stroke:#181818;stroke-width:0.5;" x1="621.5" x2="725.5" y1="295.0679" y2="295.0679"/><line style="stroke:#181818;stroke-width:0.5;" x1="621.5" x2="725.5" y1="303.0679" y2="303.0679"/></g><!--class overarch_dataModel_requirement--><g id="elem_overarch_dataModel_requirement"><rect codeLine="22" fill="#F1F1F1" height="48" id="overarch_dataModel_requirement" rx="2.5" ry="2.5" style="stroke:#181818;stroke-width:0.5;" width="117" x="545" y="479.0679"/><ellipse cx="560" cy="495.0679" fill="#ADD1B2" rx="11" ry="11" style="stroke:#181818;stroke-width:1.0;"/><path d="M562.9688,500.7085 Q562.3906,501.0054 561.75,501.146 Q561.1094,501.3023 560.4063,501.3023 Q557.9063,501.3023 556.5781,499.6617 Q555.2656,498.0054 555.2656,494.8804 Q555.2656,491.7554 556.5781,490.0992 Q557.9063,488.4429 560.4063,488.4429 Q561.1094,488.4429 561.75,488.5992 Q562.4063,488.7554 562.9688,489.0523 L562.9688,491.771 Q562.3438,491.1929 561.75,490.9273 Q561.1563,490.646 560.5313,490.646 Q559.1875,490.646 558.5,491.7242 Q557.8125,492.7867 557.8125,494.8804 Q557.8125,496.9742 558.5,498.0523 Q559.1875,499.1148 560.5313,499.1148 Q561.1563,499.1148 561.75,498.8492 Q562.3438,498.5679 562.9688,497.9898 L562.9688,500.7085 Z " fill="#000000"/><text fill="#000000" font-family="sans-serif" font-size="14" lengthAdjust="spacing" textLength="85" x="574" y="500.4999">requirement</text><line style="stroke:#181818;stroke-width:0.5;" x1="546" x2="661" y1="511.0679" y2="511.0679"/><line style="stroke:#181818;stroke-width:0.5;" x1="546" x2="661" y1="519.0679" y2="519.0679"/></g><!--class overarch_dataModel_modelRelation--><g id="elem_overarch_dataModel_modelRelation"><rect codeLine="23" fill="#F1F1F1" height="48" id="overarch_dataModel_modelRelation" rx="2.5" ry="2.5" style="stroke:#181818;stroke-width:0.5;" width="125" x="982" y="263.0679"/><ellipse cx="997" cy="279.0679" fill="#A9DCDF" rx="11" ry="11" style="stroke:#181818;stroke-width:1.0;"/><path d="M997.1094,274.4117 L995.9531,279.4898 L998.2813,279.4898 L997.1094,274.4117 Z M995.625,272.1773 L998.6094,272.1773 L1001.9688,284.5679 L999.5156,284.5679 L998.75,281.5054 L995.4688,281.5054 L994.7188,284.5679 L992.2813,284.5679 L995.625,272.1773 Z " fill="#000000"/><text fill="#000000" font-family="sans-serif" font-size="14" font-style="italic" lengthAdjust="spacing" textLength="93" x="1011" y="284.4999">model-relation</text><line style="stroke:#181818;stroke-width:0.5;" x1="983" x2="1106" y1="295.0679" y2="295.0679"/><line style="stroke:#181818;stroke-width:0.5;" x1="983" x2="1106" y1="303.0679" y2="303.0679"/></g><!--class overarch_dataModel_modelElement--><g id="elem_overarch_dataModel_modelElement"><rect codeLine="24" fill="#F1F1F1" height="48" id="overarch_dataModel_modelElement" rx="2.5" ry="2.5" style="stroke:#181818;stroke-width:0.5;" width="125" x="794" y="155.0679"/><ellipse cx="809" cy="171.0679" fill="#A9DCDF" rx="11" ry="11" style="stroke:#181818;stroke-width:1.0;"/><path d="M809.1094,166.4117 L807.9531,171.4898 L810.2813,171.4898 L809.1094,166.4117 Z M807.625,164.1773 L810.6094,164.1773 L813.9688,176.5679 L811.5156,176.5679 L810.75,173.5054 L807.4688,173.5054 L806.7188,176.5679 L804.2813,176.5679 L807.625,164.1773 Z " fill="#000000"/><text fill="#000000" font-family="sans-serif" font-size="14" font-style="italic" lengthAdjust="spacing" textLength="93" x="823" y="176.4999">model-element</text><line style="stroke:#181818;stroke-width:0.5;" x1="795" x2="918" y1="187.0679" y2="187.0679"/><line style="stroke:#181818;stroke-width:0.5;" x1="795" x2="918" y1="195.0679" y2="195.0679"/></g><!--class overarch_dataModel_decision--><g id="elem_overarch_dataModel_decision"><rect codeLine="25" fill="#F1F1F1" height="48" id="overarch_dataModel_decision" rx="2.5" ry="2.5" style="stroke:#181818;stroke-width:0.5;" width="88" x="697.5" y="479.0679"/><ellipse cx="712.5" cy="495.0679" fill="#ADD1B2" rx="11" ry="11" style="stroke:#181818;stroke-width:1.0;"/><path d="M715.4688,500.7085 Q714.8906,501.0054 714.25,501.146 Q713.6094,501.3023 712.9063,501.3023 Q710.4063,501.3023 709.0781,499.6617 Q707.7656,498.0054 707.7656,494.8804 Q707.7656,491.7554 709.0781,490.0992 Q710.4063,488.4429 712.9063,488.4429 Q713.6094,488.4429 714.25,488.5992 Q714.9063,488.7554 715.4688,489.0523 L715.4688,491.771 Q714.8438,491.1929 714.25,490.9273 Q713.6563,490.646 713.0313,490.646 Q711.6875,490.646 711,491.7242 Q710.3125,492.7867 710.3125,494.8804 Q710.3125,496.9742 711,498.0523 Q711.6875,499.1148 713.0313,499.1148 Q713.6563,499.1148 714.25,498.8492 Q714.8438,498.5679 715.4688,497.9898 L715.4688,500.7085 Z " fill="#000000"/><text fill="#000000" font-family="sans-serif" font-size="14" lengthAdjust="spacing" textLength="56" x="726.5" y="500.4999">decision</text><line style="stroke:#181818;stroke-width:0.5;" x1="698.5" x2="784.5" y1="511.0679" y2="511.0679"/><line style="stroke:#181818;stroke-width:0.5;" x1="698.5" x2="784.5" y1="519.0679" y2="519.0679"/></g><!--class overarch_dataModel_artifact--><g id="elem_overarch_dataModel_artifact"><rect codeLine="26" fill="#F1F1F1" height="48" id="overarch_dataModel_artifact" rx="2.5" ry="2.5" style="stroke:#181818;stroke-width:0.5;" width="80" x="820.5" y="479.0679"/><ellipse cx="835.5" cy="495.0679" fill="#ADD1B2" rx="11" ry="11" style="stroke:#181818;stroke-width:1.0;"/><path d="M838.4688,500.7085 Q837.8906,501.0054 837.25,501.146 Q836.6094,501.3023 835.9063,501.3023 Q833.4063,501.3023 832.0781,499.6617 Q830.7656,498.0054 830.7656,494.8804 Q830.7656,491.7554 832.0781,490.0992 Q833.4063,488.4429 835.9063,488.4429 Q836.6094,488.4429 837.25,488.5992 Q837.9063,488.7554 838.4688,489.0523 L838.4688,491.771 Q837.8438,491.1929 837.25,490.9273 Q836.6563,490.646 836.0313,490.646 Q834.6875,490.646 834,491.7242 Q833.3125,492.7867 833.3125,494.8804 Q833.3125,496.9742 834,498.0523 Q834.6875,499.1148 836.0313,499.1148 Q836.6563,499.1148 837.25,498.8492 Q837.8438,498.5679 838.4688,497.9898 L838.4688,500.7085 Z " fill="#000000"/><text fill="#000000" font-family="sans-serif" font-size="14" lengthAdjust="spacing" textLength="48" x="849.5" y="500.4999">artifact</text><line style="stroke:#181818;stroke-width:0.5;" x1="821.5" x2="899.5" y1="511.0679" y2="511.0679"/><line style="stroke:#181818;stroke-width:0.5;" x1="821.5" x2="899.5" y1="519.0679" y2="519.0679"/></g><!--reverse link overarch_dataModel_modelNode to overarch_dataModel_processModelNode--><g id="link_overarch_dataModel_modelNode_overarch_dataModel_processModelNode"><path codeLine="27" d="M648.3922,326.0892 C636.7322,343.7492 630.61,353.0079 618.9,370.7479 " fill="none" id="overarch_dataModel_modelNode-backto-overarch_dataModel_processModelNode" style="stroke:#181818;stroke-width:1.0;"/><polygon fill="none" points="658.31,311.0679,643.3852,322.7832,653.3993,329.3951,658.31,311.0679" style="stroke:#181818;stroke-width:1.0;"/></g><!--reverse link overarch_dataModel_processModelNode to overarch_dataModel_knowledge--><g id="link_overarch_dataModel_processModelNode_overarch_dataModel_knowledge"><path codeLine="28" d="M529.0587,425.7311 C482.7587,444.1811 435.04,463.1979 390.14,481.0879 " fill="none" id="overarch_dataModel_processModelNode-backto-overarch_dataModel_knowledge" style="stroke:#181818;stroke-width:1.0;"/><polygon fill="none" points="545.78,419.0679,526.8376,420.1574,531.2798,431.3049,545.78,419.0679" style="stroke:#181818;stroke-width:1.0;"/></g><!--reverse link overarch_dataModel_element to overarch_dataModel_modelElement--><g id="link_overarch_dataModel_element_overarch_dataModel_modelElement"><path codeLine="29" d="M856.5,113.0679 C856.5,130.7279 856.5,137.0079 856.5,154.7479 " fill="none" id="overarch_dataModel_element-backto-overarch_dataModel_modelElement" style="stroke:#181818;stroke-width:1.0;"/><polygon fill="none" points="856.5,95.0679,850.5,113.0679,862.5,113.0679,856.5,95.0679" style="stroke:#181818;stroke-width:1.0;"/></g><!--reverse link overarch_dataModel_processModelRelation to overarch_dataModel_inputOf--><g id="link_overarch_dataModel_processModelRelation_overarch_dataModel_inputOf"><path codeLine="30" d="M1022.0302,434.218 C1010.7002,451.878 1004.84,461.0079 993.46,478.7479 " fill="none" id="overarch_dataModel_processModelRelation-backto-overarch_dataModel_inputOf" style="stroke:#181818;stroke-width:1.0;"/><polygon fill="none" points="1031.75,419.0679,1016.9802,430.9781,1027.0803,437.458,1031.75,419.0679" style="stroke:#181818;stroke-width:1.0;"/></g><!--reverse link overarch_dataModel_processModelNode to overarch_dataModel_information--><g id="link_overarch_dataModel_processModelNode_overarch_dataModel_information"><path codeLine="31" d="M506.7856,409.446 C413.2256,422.986 270.75,445.9179 135.5,479.0679 C129.82,480.4579 123.94,482.0479 118.09,483.7379 " fill="none" id="overarch_dataModel_processModelNode-backto-overarch_dataModel_information" style="stroke:#181818;stroke-width:1.0;"/><polygon fill="none" points="524.6,406.8679,505.9262,403.5079,507.645,415.3842,524.6,406.8679" style="stroke:#181818;stroke-width:1.0;"/></g><!--reverse link overarch_dataModel_modelRelation to overarch_dataModel_processModelRelation--><g id="link_overarch_dataModel_modelRelation_overarch_dataModel_processModelRelation"><path codeLine="32" d="M1045.2765,329.0646 C1045.6165,346.7246 1045.73,353.0079 1046.06,370.7479 " fill="none" id="overarch_dataModel_modelRelation-backto-overarch_dataModel_processModelRelation" style="stroke:#181818;stroke-width:1.0;"/><polygon fill="none" points="1044.93,311.0679,1039.2776,329.1801,1051.2754,328.9491,1044.93,311.0679" style="stroke:#181818;stroke-width:1.0;"/></g><!--reverse link overarch_dataModel_modelElement to overarch_dataModel_modelNode--><g id="link_overarch_dataModel_modelElement_overarch_dataModel_modelNode"><path codeLine="33" d="M801.2145,212.0904 C770.6245,229.8104 744.1,245.1779 713.45,262.9279 " fill="none" id="overarch_dataModel_modelElement-backto-overarch_dataModel_modelNode" style="stroke:#181818;stroke-width:1.0;"/><polygon fill="none" points="816.79,203.0679,798.207,206.8986,804.222,217.2822,816.79,203.0679" style="stroke:#181818;stroke-width:1.0;"/></g><!--reverse link overarch_dataModel_processModelNode to overarch_dataModel_process--><g id="link_overarch_dataModel_processModelNode_overarch_dataModel_process"><path codeLine="34" d="M559.7925,430.1327 C537.1325,447.7927 520.18,461.0079 497.42,478.7479 " fill="none" id="overarch_dataModel_processModelNode-backto-overarch_dataModel_process" style="stroke:#181818;stroke-width:1.0;"/><polygon fill="none" points="573.99,419.0679,556.1042,425.4002,563.4807,434.8652,573.99,419.0679" style="stroke:#181818;stroke-width:1.0;"/></g><!--reverse link overarch_dataModel_processModelElement to overarch_dataModel_processModelNode--><g id="link_overarch_dataModel_processModelElement_overarch_dataModel_processModelNode"><path codeLine="35" d="M784.9985,318.0242 C742.7085,335.7442 701.1,353.1779 658.73,370.9279 " fill="none" id="overarch_dataModel_processModelElement-backto-overarch_dataModel_processModelNode" style="stroke:#181818;stroke-width:1.0;"/><polygon fill="none" points="801.6,311.0679,782.6797,312.4903,787.3172,323.558,801.6,311.0679" style="stroke:#181818;stroke-width:1.0;"/></g><!--reverse link overarch_dataModel_modelElement to overarch_dataModel_processModelElement--><g id="link_overarch_dataModel_modelElement_overarch_dataModel_processModelElement"><path codeLine="36" d="M856.5,221.0679 C856.5,238.7279 856.5,245.0079 856.5,262.7479 " fill="none" id="overarch_dataModel_modelElement-backto-overarch_dataModel_processModelElement" style="stroke:#181818;stroke-width:1.0;"/><polygon fill="none" points="856.5,203.0679,850.5,221.0679,862.5,221.0679,856.5,203.0679" style="stroke:#181818;stroke-width:1.0;"/></g><!--reverse link overarch_dataModel_processModelNode to overarch_dataModel_decision--><g id="link_overarch_dataModel_processModelNode_overarch_dataModel_decision"><path codeLine="37" d="M647.7146,430.0331 C670.7046,447.6931 688.05,461.0079 711.14,478.7479 " fill="none" id="overarch_dataModel_processModelNode-backto-overarch_dataModel_decision" style="stroke:#181818;stroke-width:1.0;"/><polygon fill="none" points="633.44,419.0679,644.0596,434.7913,651.3697,425.2749,633.44,419.0679" style="stroke:#181818;stroke-width:1.0;"/></g><!--reverse link overarch_dataModel_modelElement to overarch_dataModel_modelRelation--><g id="link_overarch_dataModel_modelElement_overarch_dataModel_modelRelation"><path codeLine="38" d="M912.9697,211.908 C944.3997,229.628 971.98,245.1779 1003.46,262.9279 " fill="none" id="overarch_dataModel_modelElement-backto-overarch_dataModel_modelRelation" style="stroke:#181818;stroke-width:1.0;"/><polygon fill="none" points="897.29,203.0679,910.023,217.1346,915.9164,206.6814,897.29,203.0679" style="stroke:#181818;stroke-width:1.0;"/></g><!--reverse link overarch_dataModel_processModelRelation to overarch_dataModel_roleIn--><g id="link_overarch_dataModel_processModelRelation_overarch_dataModel_roleIn"><path codeLine="39" d="M1146.8902,424.0881 C1201.3302,439.7281 1256.51,456.6079 1319.5,479.0679 C1325.34,481.1479 1331.46,483.4979 1337.43,485.8679 " fill="none" id="overarch_dataModel_processModelRelation-backto-overarch_dataModel_roleIn" style="stroke:#181818;stroke-width:1.0;"/><polygon fill="none" points="1129.59,419.1179,1145.2335,429.8548,1148.5469,418.3213,1129.59,419.1179" style="stroke:#181818;stroke-width:1.0;"/></g><!--reverse link overarch_dataModel_processModelNode to overarch_dataModel_requirement--><g id="link_overarch_dataModel_processModelNode_overarch_dataModel_requirement"><path codeLine="40" d="M603.5,437.0679 C603.5,454.7279 603.5,461.0079 603.5,478.7479 " fill="none" id="overarch_dataModel_processModelNode-backto-overarch_dataModel_requirement" style="stroke:#181818;stroke-width:1.0;"/><polygon fill="none" points="603.5,419.0679,597.5,437.0679,609.5,437.0679,603.5,419.0679" style="stroke:#181818;stroke-width:1.0;"/></g><!--reverse link overarch_dataModel_processModelRelation to overarch_dataModel_requiredFor--><g id="link_overarch_dataModel_processModelRelation_overarch_dataModel_requiredFor"><path codeLine="41" d="M1070.9698,434.218 C1082.2998,451.878 1088.16,461.0079 1099.54,478.7479 " fill="none" id="overarch_dataModel_processModelRelation-backto-overarch_dataModel_requiredFor" style="stroke:#181818;stroke-width:1.0;"/><polygon fill="none" points="1061.25,419.0679,1065.9197,437.458,1076.0198,430.9781,1061.25,419.0679" style="stroke:#181818;stroke-width:1.0;"/></g><!--reverse link overarch_dataModel_processModelNode to overarch_dataModel_capability--><g id="link_overarch_dataModel_processModelNode_overarch_dataModel_capability"><path codeLine="42" d="M507.3161,417.2906 C438.8661,432.8206 354.76,453.1479 267.5,479.0679 C261.92,480.7279 256.11,482.5679 250.35,484.4779 " fill="none" id="overarch_dataModel_processModelNode-backto-overarch_dataModel_capability" style="stroke:#181818;stroke-width:1.0;"/><polygon fill="none" points="524.87,413.3079,505.9886,411.4393,508.6437,423.1418,524.87,413.3079" style="stroke:#181818;stroke-width:1.0;"/></g><!--reverse link overarch_dataModel_processModelElement to overarch_dataModel_processModelRelation--><g id="link_overarch_dataModel_processModelElement_overarch_dataModel_processModelRelation"><path codeLine="43" d="M913.4489,319.8381 C945.2089,337.5581 973.2,353.1779 1005.03,370.9279 " fill="none" id="overarch_dataModel_processModelElement-backto-overarch_dataModel_processModelRelation" style="stroke:#181818;stroke-width:1.0;"/><polygon fill="none" points="897.73,311.0679,910.5256,325.0777,916.3723,314.5984,897.73,311.0679" style="stroke:#181818;stroke-width:1.0;"/></g><!--reverse link overarch_dataModel_processModelNode to overarch_dataModel_artifact--><g id="link_overarch_dataModel_processModelNode_overarch_dataModel_artifact"><path codeLine="44" d="M675.91,425.9316 C724.47,445.9616 777.08,467.6579 820.37,485.5179 " fill="none" id="overarch_dataModel_processModelNode-backto-overarch_dataModel_artifact" style="stroke:#181818;stroke-width:1.0;"/><polygon fill="none" points="659.27,419.0679,673.6221,431.4783,678.1979,420.3849,659.27,419.0679" style="stroke:#181818;stroke-width:1.0;"/></g><!--reverse link overarch_dataModel_processModelRelation to overarch_dataModel_outputOf--><g id="link_overarch_dataModel_processModelRelation_overarch_dataModel_outputOf"><path codeLine="45" d="M1107.6674,427.2411 C1142.4374,444.9611 1174.26,461.1779 1209.1,478.9279 " fill="none" id="overarch_dataModel_processModelRelation-backto-overarch_dataModel_outputOf" style="stroke:#181818;stroke-width:1.0;"/><polygon fill="none" points="1091.63,419.0679,1104.943,432.5869,1110.3918,421.8953,1091.63,419.0679" style="stroke:#181818;stroke-width:1.0;"/></g><!--SRC=[hLNBRiCW4Bpp5IXt_g3NLEgX3_K78cAlMrGmBk1KLTj_BuuXncbuHFI2PEtCiZixNWmp7F2JaWreZUzb2nnlEGZeZKQ8xhLHj36uuTI6Dp17DfXgB0-Wg6fUToqrz4ZSkJ3- -a6EmFfEAa4DatsC541Mn64qH7Pnbeq_TXFZlCXXReQ82KWo9JlmyMFxf_o63dJFE3EVCVw226XllVpWqBv0Z7K212G5xoDJq18hHupdCRTIvJllxLdIzeCzyjaKyEGOmupF3Xjq9qUJ7kWCc2UwBY1pOoYXv41OjCGfVDTVQZKlc0YLMayiPQy04hyt9wqur_HocepJnMMBjz0mdRZSnmCALOPrzleOnSSdIbBAcsz2Ijo9IXmSItRwrr1YOyN8eMYerFMnP6vdLNKJR4kKjKg9lXwCSfP9IbGz9GT4XIkwnZdYsaI5yq_svt-ZEfbJmxhAYlCghEeeM6trvIplMbLDoslydqOgLJrPcb-ArLhvX_8N]--></g></svg>