<svg xmlns="http://www.w3.org/2000/svg" xmlns:xlink="http://www.w3.org/1999/xlink" contentStyleType="text/css" height="705px" preserveAspectRatio="none" style="width:555px;height:705px;background:#FFFFFF;" version="1.1" viewBox="0 0 555 705" width="555px" zoomAndPan="magnify"><defs/><g><text fill="#000000" font-family="sans-serif" font-size="14" font-weight="bold" lengthAdjust="spacing" textLength="145" x="198.25" y="24.9659">Role Model Elements</text><!--class overarch_dataModel_permission--><g id="elem_overarch_dataModel_permission"><rect codeLine="9" fill="#F1F1F1" height="48" id="overarch_dataModel_permission" rx="2.5" ry="2.5" style="stroke:#181818;stroke-width:0.5;" width="107" x="12.5" y="650.0679"/><ellipse cx="27.5" cy="666.0679" fill="#ADD1B2" rx="11" ry="11" style="stroke:#181818;stroke-width:1.0;"/><path d="M30.4688,671.7085 Q29.8906,672.0054 29.25,672.146 Q28.6094,672.3023 27.9063,672.3023 Q25.4063,672.3023 24.0781,670.6617 Q22.7656,669.0054 22.7656,665.8804 Q22.7656,662.7554 24.0781,661.0992 Q25.4063,659.4429 27.9063,659.4429 Q28.6094,659.4429 29.25,659.5992 Q29.9063,659.7554 30.4688,660.0523 L30.4688,662.771 Q29.8438,662.1929 29.25,661.9273 Q28.6563,661.646 28.0313,661.646 Q26.6875,661.646 26,662.7242 Q25.3125,663.7867 25.3125,665.8804 Q25.3125,667.9742 26,669.0523 Q26.6875,670.1148 28.0313,670.1148 Q28.6563,670.1148 29.25,669.8492 Q29.8438,669.5679 30.4688,668.9898 L30.4688,671.7085 Z " fill="#000000"/><text fill="#000000" font-family="sans-serif" font-size="14" lengthAdjust="spacing" textLength="75" x="41.5" y="671.4999">permission</text><line style="stroke:#181818;stroke-width:0.5;" x1="13.5" x2="118.5" y1="682.0679" y2="682.0679"/><line style="stroke:#181818;stroke-width:0.5;" x1="13.5" x2="118.5" y1="690.0679" y2="690.0679"/></g><!--class overarch_dataModel_modelElement--><g id="elem_overarch_dataModel_modelElement"><rect codeLine="10" fill="#F1F1F1" height="86.1358" id="overarch_dataModel_modelElement" rx="2.5" ry="2.5" style="stroke:#181818;stroke-width:0.5;" width="175" x="146.5" y="250.0679"/><ellipse cx="184" cy="266.0679" fill="#A9DCDF" rx="11" ry="11" style="stroke:#181818;stroke-width:1.0;"/><path d="M184.1094,261.4117 L182.9531,266.4898 L185.2813,266.4898 L184.1094,261.4117 Z M182.625,259.1773 L185.6094,259.1773 L188.9688,271.5679 L186.5156,271.5679 L185.75,268.5054 L182.4688,268.5054 L181.7188,271.5679 L179.2813,271.5679 L182.625,259.1773 Z " fill="#000000"/><text fill="#000000" font-family="sans-serif" font-size="14" font-style="italic" lengthAdjust="spacing" textLength="93" x="203" y="271.4999">model-element</text><line style="stroke:#181818;stroke-width:0.5;" x1="147.5" x2="320.5" y1="282.0679" y2="282.0679"/><text fill="#000000" font-family="sans-serif" font-size="14" lengthAdjust="spacing" textLength="163" x="152.5" y="301.0339">maturity : keyword [0..1]</text><text fill="#000000" font-family="sans-serif" font-size="14" lengthAdjust="spacing" textLength="99" x="152.5" y="320.1018">tags : set [0..1]</text><line style="stroke:#181818;stroke-width:0.5;" x1="147.5" x2="320.5" y1="328.2038" y2="328.2038"/></g><!--class overarch_dataModel_grantedFor--><g id="elem_overarch_dataModel_grantedFor"><rect codeLine="14" fill="#F1F1F1" height="48" id="overarch_dataModel_grantedFor" rx="2.5" ry="2.5" style="stroke:#181818;stroke-width:0.5;" width="110" x="278" y="650.0679"/><ellipse cx="293" cy="666.0679" fill="#ADD1B2" rx="11" ry="11" style="stroke:#181818;stroke-width:1.0;"/><path d="M295.9688,671.7085 Q295.3906,672.0054 294.75,672.146 Q294.1094,672.3023 293.4063,672.3023 Q290.9063,672.3023 289.5781,670.6617 Q288.2656,669.0054 288.2656,665.8804 Q288.2656,662.7554 289.5781,661.0992 Q290.9063,659.4429 293.4063,659.4429 Q294.1094,659.4429 294.75,659.5992 Q295.4063,659.7554 295.9688,660.0523 L295.9688,662.771 Q295.3438,662.1929 294.75,661.9273 Q294.1563,661.646 293.5313,661.646 Q292.1875,661.646 291.5,662.7242 Q290.8125,663.7867 290.8125,665.8804 Q290.8125,667.9742 291.5,669.0523 Q292.1875,670.1148 293.5313,670.1148 Q294.1563,670.1148 294.75,669.8492 Q295.3438,669.5679 295.9688,668.9898 L295.9688,671.7085 Z " fill="#000000"/><text fill="#000000" font-family="sans-serif" font-size="14" lengthAdjust="spacing" textLength="78" x="307" y="671.4999">granted-for</text><line style="stroke:#181818;stroke-width:0.5;" x1="279" x2="387" y1="682.0679" y2="682.0679"/><line style="stroke:#181818;stroke-width:0.5;" x1="279" x2="387" y1="690.0679" y2="690.0679"/></g><!--class overarch_dataModel_modelNode--><g id="elem_overarch_dataModel_modelNode"><rect codeLine="15" fill="#F1F1F1" height="48" id="overarch_dataModel_modelNode" rx="2.5" ry="2.5" style="stroke:#181818;stroke-width:0.5;" width="106" x="7" y="415.0679"/><ellipse cx="22" cy="431.0679" fill="#A9DCDF" rx="11" ry="11" style="stroke:#181818;stroke-width:1.0;"/><path d="M22.1094,426.4117 L20.9531,431.4898 L23.2813,431.4898 L22.1094,426.4117 Z M20.625,424.1773 L23.6094,424.1773 L26.9688,436.5679 L24.5156,436.5679 L23.75,433.5054 L20.4688,433.5054 L19.7188,436.5679 L17.2813,436.5679 L20.625,424.1773 Z " fill="#000000"/><text fill="#000000" font-family="sans-serif" font-size="14" font-style="italic" lengthAdjust="spacing" textLength="74" x="36" y="436.4999">model-node</text><line style="stroke:#181818;stroke-width:0.5;" x1="8" x2="112" y1="447.0679" y2="447.0679"/><line style="stroke:#181818;stroke-width:0.5;" x1="8" x2="112" y1="455.0679" y2="455.0679"/></g><!--class overarch_dataModel_roleModelRelation--><g id="elem_overarch_dataModel_roleModelRelation"><rect codeLine="16" fill="#F1F1F1" height="48" id="overarch_dataModel_roleModelRelation" rx="2.5" ry="2.5" style="stroke:#181818;stroke-width:0.5;" width="154" x="293" y="542.0679"/><ellipse cx="308" cy="558.0679" fill="#A9DCDF" rx="11" ry="11" style="stroke:#181818;stroke-width:1.0;"/><path d="M308.1094,553.4117 L306.9531,558.4898 L309.2813,558.4898 L308.1094,553.4117 Z M306.625,551.1773 L309.6094,551.1773 L312.9688,563.5679 L310.5156,563.5679 L309.75,560.5054 L306.4688,560.5054 L305.7188,563.5679 L303.2813,563.5679 L306.625,551.1773 Z " fill="#000000"/><text fill="#000000" font-family="sans-serif" font-size="14" font-style="italic" lengthAdjust="spacing" textLength="122" x="322" y="563.4999">role-model-relation</text><line style="stroke:#181818;stroke-width:0.5;" x1="294" x2="446" y1="574.0679" y2="574.0679"/><line style="stroke:#181818;stroke-width:0.5;" x1="294" x2="446" y1="582.0679" y2="582.0679"/></g><!--class overarch_dataModel_modelRelation--><g id="elem_overarch_dataModel_modelRelation"><rect codeLine="17" fill="#F1F1F1" height="86.1358" id="overarch_dataModel_modelRelation" rx="2.5" ry="2.5" style="stroke:#181818;stroke-width:0.5;" width="125" x="354.5" y="396.0679"/><ellipse cx="369.5" cy="412.0679" fill="#A9DCDF" rx="11" ry="11" style="stroke:#181818;stroke-width:1.0;"/><path d="M369.6094,407.4117 L368.4531,412.4898 L370.7813,412.4898 L369.6094,407.4117 Z M368.125,405.1773 L371.1094,405.1773 L374.4688,417.5679 L372.0156,417.5679 L371.25,414.5054 L367.9688,414.5054 L367.2188,417.5679 L364.7813,417.5679 L368.125,405.1773 Z " fill="#000000"/><text fill="#000000" font-family="sans-serif" font-size="14" font-style="italic" lengthAdjust="spacing" textLength="93" x="383.5" y="417.4999">model-relation</text><line style="stroke:#181818;stroke-width:0.5;" x1="355.5" x2="478.5" y1="428.0679" y2="428.0679"/><text fill="#000000" font-family="sans-serif" font-size="14" lengthAdjust="spacing" textLength="100" x="360.5" y="447.0339">from : keyword</text><text fill="#000000" font-family="sans-serif" font-size="14" lengthAdjust="spacing" textLength="81" x="360.5" y="466.1018">to : keyword</text><line style="stroke:#181818;stroke-width:0.5;" x1="355.5" x2="478.5" y1="474.2038" y2="474.2038"/></g><!--class overarch_dataModel_permissionOf--><g id="elem_overarch_dataModel_permissionOf"><rect codeLine="21" fill="#F1F1F1" height="48" id="overarch_dataModel_permissionOf" rx="2.5" ry="2.5" style="stroke:#181818;stroke-width:0.5;" width="125" x="423.5" y="650.0679"/><ellipse cx="438.5" cy="666.0679" fill="#ADD1B2" rx="11" ry="11" style="stroke:#181818;stroke-width:1.0;"/><path d="M441.4688,671.7085 Q440.8906,672.0054 440.25,672.146 Q439.6094,672.3023 438.9063,672.3023 Q436.4063,672.3023 435.0781,670.6617 Q433.7656,669.0054 433.7656,665.8804 Q433.7656,662.7554 435.0781,661.0992 Q436.4063,659.4429 438.9063,659.4429 Q439.6094,659.4429 440.25,659.5992 Q440.9063,659.7554 441.4688,660.0523 L441.4688,662.771 Q440.8438,662.1929 440.25,661.9273 Q439.6563,661.646 439.0313,661.646 Q437.6875,661.646 437,662.7242 Q436.3125,663.7867 436.3125,665.8804 Q436.3125,667.9742 437,669.0523 Q437.6875,670.1148 439.0313,670.1148 Q439.6563,670.1148 440.25,669.8492 Q440.8438,669.5679 441.4688,668.9898 L441.4688,671.7085 Z " fill="#000000"/><text fill="#000000" font-family="sans-serif" font-size="14" lengthAdjust="spacing" textLength="93" x="452.5" y="671.4999">permission-of</text><line style="stroke:#181818;stroke-width:0.5;" x1="424.5" x2="547.5" y1="682.0679" y2="682.0679"/><line style="stroke:#181818;stroke-width:0.5;" x1="424.5" x2="547.5" y1="690.0679" y2="690.0679"/></g><!--class overarch_dataModel_role--><g id="elem_overarch_dataModel_role"><rect codeLine="22" fill="#F1F1F1" height="48" id="overarch_dataModel_role" rx="2.5" ry="2.5" style="stroke:#181818;stroke-width:0.5;" width="58" x="155" y="650.0679"/><ellipse cx="170" cy="666.0679" fill="#ADD1B2" rx="11" ry="11" style="stroke:#181818;stroke-width:1.0;"/><path d="M172.9688,671.7085 Q172.3906,672.0054 171.75,672.146 Q171.1094,672.3023 170.4063,672.3023 Q167.9063,672.3023 166.5781,670.6617 Q165.2656,669.0054 165.2656,665.8804 Q165.2656,662.7554 166.5781,661.0992 Q167.9063,659.4429 170.4063,659.4429 Q171.1094,659.4429 171.75,659.5992 Q172.4063,659.7554 172.9688,660.0523 L172.9688,662.771 Q172.3438,662.1929 171.75,661.9273 Q171.1563,661.646 170.5313,661.646 Q169.1875,661.646 168.5,662.7242 Q167.8125,663.7867 167.8125,665.8804 Q167.8125,667.9742 168.5,669.0523 Q169.1875,670.1148 170.5313,670.1148 Q171.1563,670.1148 171.75,669.8492 Q172.3438,669.5679 172.9688,668.9898 L172.9688,671.7085 Z " fill="#000000"/><text fill="#000000" font-family="sans-serif" font-size="14" lengthAdjust="spacing" textLength="26" x="184" y="671.4999">role</text><line style="stroke:#181818;stroke-width:0.5;" x1="156" x2="212" y1="682.0679" y2="682.0679"/><line style="stroke:#181818;stroke-width:0.5;" x1="156" x2="212" y1="690.0679" y2="690.0679"/></g><!--class overarch_dataModel_roleModelElement--><g id="elem_overarch_dataModel_roleModelElement"><rect codeLine="23" fill="#F1F1F1" height="67.0679" id="overarch_dataModel_roleModelElement" rx="2.5" ry="2.5" style="stroke:#181818;stroke-width:0.5;" width="171" x="148.5" y="405.5679"/><ellipse cx="171.15" cy="421.5679" fill="#A9DCDF" rx="11" ry="11" style="stroke:#181818;stroke-width:1.0;"/><path d="M171.2594,416.9117 L170.1031,421.9898 L172.4313,421.9898 L171.2594,416.9117 Z M169.775,414.6773 L172.7594,414.6773 L176.1188,427.0679 L173.6656,427.0679 L172.9,424.0054 L169.6188,424.0054 L168.8688,427.0679 L166.4313,427.0679 L169.775,414.6773 Z " fill="#000000"/><text fill="#000000" font-family="sans-serif" font-size="14" font-style="italic" lengthAdjust="spacing" textLength="122" x="186.85" y="426.9999">role-model-element</text><line style="stroke:#181818;stroke-width:0.5;" x1="149.5" x2="318.5" y1="437.5679" y2="437.5679"/><text fill="#000000" font-family="sans-serif" font-size="14" lengthAdjust="spacing" textLength="159" x="154.5" y="456.5339">external : boolean [0..1]</text><line style="stroke:#181818;stroke-width:0.5;" x1="149.5" x2="318.5" y1="464.6358" y2="464.6358"/></g><!--class overarch_dataModel_element--><g id="elem_overarch_dataModel_element"><rect codeLine="26" fill="#F1F1F1" height="143.3396" id="overarch_dataModel_element" rx="2.5" ry="2.5" style="stroke:#181818;stroke-width:0.5;" width="133" x="167.5" y="47.0679"/><ellipse cx="205.45" cy="63.0679" fill="#A9DCDF" rx="11" ry="11" style="stroke:#181818;stroke-width:1.0;"/><path d="M205.5594,58.4117 L204.4031,63.4898 L206.7313,63.4898 L205.5594,58.4117 Z M204.075,56.1773 L207.0594,56.1773 L210.4188,68.5679 L207.9656,68.5679 L207.2,65.5054 L203.9188,65.5054 L203.1688,68.5679 L200.7313,68.5679 L204.075,56.1773 Z " fill="#000000"/><text fill="#000000" font-family="sans-serif" font-size="14" font-style="italic" lengthAdjust="spacing" textLength="50" x="224.55" y="68.4999">element</text><line style="stroke:#181818;stroke-width:0.5;" x1="168.5" x2="299.5" y1="79.0679" y2="79.0679"/><text fill="#000000" font-family="sans-serif" font-size="14" lengthAdjust="spacing" textLength="121" x="173.5" y="98.0339">desc : string [0..1]</text><text fill="#000000" font-family="sans-serif" font-size="14" lengthAdjust="spacing" textLength="114" x="173.5" y="117.1018">doc : string [0..1]</text><text fill="#000000" font-family="sans-serif" font-size="14" lengthAdjust="spacing" textLength="80" x="173.5" y="136.1697">el : keyword</text><text fill="#000000" font-family="sans-serif" font-size="14" lengthAdjust="spacing" textLength="81" x="173.5" y="155.2376">id : keyword</text><text fill="#000000" font-family="sans-serif" font-size="14" lengthAdjust="spacing" textLength="90" x="173.5" y="174.3055">name : string</text><line style="stroke:#181818;stroke-width:0.5;" x1="168.5" x2="299.5" y1="182.4075" y2="182.4075"/></g><!--class overarch_dataModel_roleModelNode--><g id="elem_overarch_dataModel_roleModelNode"><rect codeLine="33" fill="#F1F1F1" height="48" id="overarch_dataModel_roleModelNode" rx="2.5" ry="2.5" style="stroke:#181818;stroke-width:0.5;" width="135" x="79.5" y="542.0679"/><ellipse cx="94.5" cy="558.0679" fill="#A9DCDF" rx="11" ry="11" style="stroke:#181818;stroke-width:1.0;"/><path d="M94.6094,553.4117 L93.4531,558.4898 L95.7813,558.4898 L94.6094,553.4117 Z M93.125,551.1773 L96.1094,551.1773 L99.4688,563.5679 L97.0156,563.5679 L96.25,560.5054 L92.9688,560.5054 L92.2188,563.5679 L89.7813,563.5679 L93.125,551.1773 Z " fill="#000000"/><text fill="#000000" font-family="sans-serif" font-size="14" font-style="italic" lengthAdjust="spacing" textLength="103" x="108.5" y="563.4999">role-model-node</text><line style="stroke:#181818;stroke-width:0.5;" x1="80.5" x2="213.5" y1="574.0679" y2="574.0679"/><line style="stroke:#181818;stroke-width:0.5;" x1="80.5" x2="213.5" y1="582.0679" y2="582.0679"/></g><!--reverse link overarch_dataModel_element to overarch_dataModel_modelElement--><g id="link_overarch_dataModel_element_overarch_dataModel_modelElement"><path codeLine="34" d="M234,208.2279 C234,228.5079 234,231.9879 234,249.9579 " fill="none" id="overarch_dataModel_element-backto-overarch_dataModel_modelElement" style="stroke:#181818;stroke-width:1.0;"/><polygon fill="none" points="234,190.2279,228,208.2279,240,208.2279,234,190.2279" style="stroke:#181818;stroke-width:1.0;"/></g><!--reverse link overarch_dataModel_roleModelElement to overarch_dataModel_roleModelRelation--><g id="link_overarch_dataModel_roleModelElement_overarch_dataModel_roleModelRelation"><path codeLine="35" d="M282.6327,484.7685 C306.2427,506.4685 323.48,522.3079 344.68,541.7879 " fill="none" id="overarch_dataModel_roleModelElement-backto-overarch_dataModel_roleModelRelation" style="stroke:#181818;stroke-width:1.0;"/><polygon fill="none" points="269.38,472.5879,278.5725,489.1861,286.6929,480.3509,269.38,472.5879" style="stroke:#181818;stroke-width:1.0;"/></g><!--reverse link overarch_dataModel_roleModelNode to overarch_dataModel_permission--><g id="link_overarch_dataModel_roleModelNode_overarch_dataModel_permission"><path codeLine="36" d="M118.4934,604.3721 C105.0034,622.0321 97.38,632.0079 83.82,649.7479 " fill="none" id="overarch_dataModel_roleModelNode-backto-overarch_dataModel_permission" style="stroke:#181818;stroke-width:1.0;"/><polygon fill="none" points="129.42,590.0679,113.7254,600.7299,123.2615,608.0143,129.42,590.0679" style="stroke:#181818;stroke-width:1.0;"/></g><!--reverse link overarch_dataModel_modelElement to overarch_dataModel_modelNode--><g id="link_overarch_dataModel_modelElement_overarch_dataModel_modelNode"><path codeLine="37" d="M169.333,347.5842 C138.243,373.3142 113.5,393.7879 87.88,414.9979 " fill="none" id="overarch_dataModel_modelElement-backto-overarch_dataModel_modelNode" style="stroke:#181818;stroke-width:1.0;"/><polygon fill="none" points="183.2,336.1079,165.5075,342.9619,173.1584,352.2066,183.2,336.1079" style="stroke:#181818;stroke-width:1.0;"/></g><!--reverse link overarch_dataModel_modelElement to overarch_dataModel_modelRelation--><g id="link_overarch_dataModel_modelElement_overarch_dataModel_modelRelation"><path codeLine="38" d="M301.5674,347.2368 C325.5174,366.0768 339.55,377.1279 363.51,395.9779 " fill="none" id="overarch_dataModel_modelElement-backto-overarch_dataModel_modelRelation" style="stroke:#181818;stroke-width:1.0;"/><polygon fill="none" points="287.42,336.1079,297.8577,351.9526,305.277,342.521,287.42,336.1079" style="stroke:#181818;stroke-width:1.0;"/></g><!--reverse link overarch_dataModel_roleModelNode to overarch_dataModel_role--><g id="link_overarch_dataModel_roleModelNode_overarch_dataModel_role"><path codeLine="39" d="M160.9583,607.0637 C167.1183,624.7237 169.67,632.0079 175.86,649.7479 " fill="none" id="overarch_dataModel_roleModelNode-backto-overarch_dataModel_role" style="stroke:#181818;stroke-width:1.0;"/><polygon fill="none" points="155.03,590.0679,155.2931,609.0398,166.6235,605.0876,155.03,590.0679" style="stroke:#181818;stroke-width:1.0;"/></g><!--reverse link overarch_dataModel_modelRelation to overarch_dataModel_roleModelRelation--><g id="link_overarch_dataModel_modelRelation_overarch_dataModel_roleModelRelation"><path codeLine="40" d="M394.7521,499.2352 C387.2921,519.0652 385.03,525.0879 378.77,541.7379 " fill="none" id="overarch_dataModel_modelRelation-backto-overarch_dataModel_roleModelRelation" style="stroke:#181818;stroke-width:1.0;"/><polygon fill="none" points="401.09,482.3879,389.1363,497.1226,400.3679,501.3478,401.09,482.3879" style="stroke:#181818;stroke-width:1.0;"/></g><!--reverse link overarch_dataModel_modelElement to overarch_dataModel_roleModelElement--><g id="link_overarch_dataModel_modelElement_overarch_dataModel_roleModelElement"><path codeLine="41" d="M234,354.1079 C234,376.1879 234,384.8479 234,405.3679 " fill="none" id="overarch_dataModel_modelElement-backto-overarch_dataModel_roleModelElement" style="stroke:#181818;stroke-width:1.0;"/><polygon fill="none" points="234,336.1079,228,354.1079,240,354.1079,234,336.1079" style="stroke:#181818;stroke-width:1.0;"/></g><!--reverse link overarch_dataModel_roleModelRelation to overarch_dataModel_grantedFor--><g id="link_overarch_dataModel_roleModelRelation_overarch_dataModel_grantedFor"><path codeLine="42" d="M356.0417,607.0637 C349.8817,624.7237 347.33,632.0079 341.14,649.7479 " fill="none" id="overarch_dataModel_roleModelRelation-backto-overarch_dataModel_grantedFor" style="stroke:#181818;stroke-width:1.0;"/><polygon fill="none" points="361.97,590.0679,350.3765,605.0876,361.7069,609.0398,361.97,590.0679" style="stroke:#181818;stroke-width:1.0;"/></g><!--reverse link overarch_dataModel_modelNode to overarch_dataModel_roleModelNode--><g id="link_overarch_dataModel_modelNode_overarch_dataModel_roleModelNode"><path codeLine="43" d="M86.4448,478.0603 C102.0748,500.5103 115.33,519.5679 130.93,541.9779 " fill="none" id="overarch_dataModel_modelNode-backto-overarch_dataModel_roleModelNode" style="stroke:#181818;stroke-width:1.0;"/><polygon fill="none" points="76.16,463.2879,81.5206,481.4886,91.3689,474.6321,76.16,463.2879" style="stroke:#181818;stroke-width:1.0;"/></g><!--reverse link overarch_dataModel_roleModelElement to overarch_dataModel_roleModelNode--><g id="link_overarch_dataModel_roleModelElement_overarch_dataModel_roleModelNode"><path codeLine="44" d="M201.0843,487.3596 C185.9743,509.0596 176.76,522.3079 163.2,541.7879 " fill="none" id="overarch_dataModel_roleModelElement-backto-overarch_dataModel_roleModelNode" style="stroke:#181818;stroke-width:1.0;"/><polygon fill="none" points="211.37,472.5879,196.1604,483.931,206.0082,490.7882,211.37,472.5879" style="stroke:#181818;stroke-width:1.0;"/></g><!--reverse link overarch_dataModel_roleModelRelation to overarch_dataModel_permissionOf--><g id="link_overarch_dataModel_roleModelRelation_overarch_dataModel_permissionOf"><path codeLine="45" d="M408.4559,602.2123 C427.7759,619.8723 441.07,632.0079 460.48,649.7479 " fill="none" id="overarch_dataModel_roleModelRelation-backto-overarch_dataModel_permissionOf" style="stroke:#181818;stroke-width:1.0;"/><polygon fill="none" points="395.17,590.0679,404.4078,606.6409,412.504,597.7836,395.17,590.0679" style="stroke:#181818;stroke-width:1.0;"/></g><!--SRC=[fLHDRy8m3BtdLqJSYxRhjEjssoPndIPa6fTLomTol0_4-EzBeD0oI0BY4ZMfy-pt_69kMQESkB0yEOLQFcWqQDaBKMlmNeuMIARrldLs9C5BzuK4LBzF5J1ihapx2BbQ2vXv9gXPTlTDZAbm2vk2s0HrgULAI6c0FwdbfRoJ7xZyTgJawyruVFiM_Z7CVJZtoBkpzQxOEO5bL5NZA9Mg2tbqbAxMXZLRwdDOJbsd86IrnI3Km1dLOkZcQz85fiifGPb3c21HGyxqqaNDt62xFkvjvPfoUr-QMEE0QevRGPw28VRg34s1FunaGGSgCnS2mFO6-9-gW8y3M8M-ZdvYQksyjvbofqvH7-ZQgeEj1OFxIo8hGCvZU_OxdsKOtFzMLUb9YNCKJW4T6LKKAqv1zLOIfI6GfHMJN8TmFPSO9OgFyIfHpKNjEQVNnRhwwIYoiwzOJQf5bzkkY5GaDPnWVm00]--></g></svg>