<?xml version="1.0" encoding="us-ascii" standalone="no"?><svg xmlns="http://www.w3.org/2000/svg" xmlns:xlink="http://www.w3.org/1999/xlink" contentStyleType="text/css" height="816px" preserveAspectRatio="none" style="width:995px;height:816px;background:#FFFFFF;" version="1.1" viewBox="0 0 995 816" width="995px" zoomAndPan="magnify"><defs/><g><text fill="#000000" font-family="sans-serif" font-size="14" font-weight="bold" lengthAdjust="spacing" textLength="217" x="382" y="24.5332">State Machine Model Elements</text><!--class overarch_dataModel_fork--><g id="elem_overarch_dataModel_fork"><rect codeLine="9" fill="#F1F1F1" height="48" id="overarch_dataModel_fork" rx="2.5" ry="2.5" style="stroke:#181818;stroke-width:0.5;" width="56" x="7" y="752.6094"/><ellipse cx="22" cy="768.6094" fill="#ADD1B2" rx="11" ry="11" style="stroke:#181818;stroke-width:1.0;"/><path d="M24.7656,764.4844 Q24.9219,764.2656 25.1094,764.1563 Q25.2969,764.0469 25.5156,764.0469 Q25.8906,764.0469 26.125,764.3125 Q26.3594,764.5625 26.3594,765.1719 L26.3594,766.625 Q26.3594,767.2344 26.125,767.5 Q25.8906,767.7656 25.5156,767.7656 Q25.1719,767.7656 24.9688,767.5625 Q24.7656,767.375 24.6563,766.8594 Q24.6094,766.5 24.4219,766.3125 Q24.0938,765.9375 23.4844,765.7188 Q22.875,765.5 22.25,765.5 Q21.4844,765.5 20.8438,765.8281 Q20.2188,766.1563 19.7188,766.9063 Q19.2344,767.6563 19.2344,768.6875 L19.2344,769.7813 Q19.2344,771.0156 20.125,771.8438 Q21.0156,772.6563 22.6094,772.6563 Q23.5469,772.6563 24.2031,772.4063 Q24.5938,772.25 25.0156,771.8125 Q25.2813,771.5469 25.4219,771.4688 Q25.5781,771.3906 25.7813,771.3906 Q26.1094,771.3906 26.3594,771.6563 Q26.625,771.9063 26.625,772.25 Q26.625,772.5938 26.2813,773 Q25.7813,773.5781 24.9844,773.9063 Q23.9063,774.3594 22.6094,774.3594 Q21.0938,774.3594 19.8906,773.7344 Q18.9063,773.2344 18.2188,772.1719 Q17.5313,771.0938 17.5313,769.8125 L17.5313,768.6563 Q17.5313,767.3281 18.1406,766.1875 Q18.7656,765.0313 19.8594,764.4219 Q20.9531,763.7969 22.1875,763.7969 Q22.9219,763.7969 23.5625,763.9688 Q24.2188,764.125 24.7656,764.4844 Z " fill="#000000"/><text fill="#000000" font-family="sans-serif" font-size="14" lengthAdjust="spacing" textLength="24" x="36" y="774.3379">fork</text><line style="stroke:#181818;stroke-width:0.5;" x1="8" x2="62" y1="784.6094" y2="784.6094"/><line style="stroke:#181818;stroke-width:0.5;" x1="8" x2="62" y1="792.6094" y2="792.6094"/></g><!--class overarch_dataModel_stateMachine--><g id="elem_overarch_dataModel_stateMachine"><rect codeLine="10" fill="#F1F1F1" height="48" id="overarch_dataModel_stateMachine" rx="2.5" ry="2.5" style="stroke:#181818;stroke-width:0.5;" width="121" x="453.5" y="527.6094"/><ellipse cx="468.5" cy="543.6094" fill="#ADD1B2" rx="11" ry="11" style="stroke:#181818;stroke-width:1.0;"/><path d="M471.2656,539.4844 Q471.4219,539.2656 471.6094,539.1563 Q471.7969,539.0469 472.0156,539.0469 Q472.3906,539.0469 472.625,539.3125 Q472.8594,539.5625 472.8594,540.1719 L472.8594,541.625 Q472.8594,542.2344 472.625,542.5 Q472.3906,542.7656 472.0156,542.7656 Q471.6719,542.7656 471.4688,542.5625 Q471.2656,542.375 471.1563,541.8594 Q471.1094,541.5 470.9219,541.3125 Q470.5938,540.9375 469.9844,540.7188 Q469.375,540.5 468.75,540.5 Q467.9844,540.5 467.3438,540.8281 Q466.7188,541.1563 466.2188,541.9063 Q465.7344,542.6563 465.7344,543.6875 L465.7344,544.7813 Q465.7344,546.0156 466.625,546.8438 Q467.5156,547.6563 469.1094,547.6563 Q470.0469,547.6563 470.7031,547.4063 Q471.0938,547.25 471.5156,546.8125 Q471.7813,546.5469 471.9219,546.4688 Q472.0781,546.3906 472.2813,546.3906 Q472.6094,546.3906 472.8594,546.6563 Q473.125,546.9063 473.125,547.25 Q473.125,547.5938 472.7813,548 Q472.2813,548.5781 471.4844,548.9063 Q470.4063,549.3594 469.1094,549.3594 Q467.5938,549.3594 466.3906,548.7344 Q465.4063,548.2344 464.7188,547.1719 Q464.0313,546.0938 464.0313,544.8125 L464.0313,543.6563 Q464.0313,542.3281 464.6406,541.1875 Q465.2656,540.0313 466.3594,539.4219 Q467.4531,538.7969 468.6875,538.7969 Q469.4219,538.7969 470.0625,538.9688 Q470.7188,539.125 471.2656,539.4844 Z " fill="#000000"/><text fill="#000000" font-family="sans-serif" font-size="14" lengthAdjust="spacing" textLength="89" x="482.5" y="549.3379">state-machine</text><line style="stroke:#181818;stroke-width:0.5;" x1="454.5" x2="573.5" y1="559.6094" y2="559.6094"/><line style="stroke:#181818;stroke-width:0.5;" x1="454.5" x2="573.5" y1="567.6094" y2="567.6094"/></g><!--class overarch_dataModel_element--><g id="elem_overarch_dataModel_element"><rect codeLine="11" fill="#F1F1F1" height="136.0469" id="overarch_dataModel_element" rx="2.5" ry="2.5" style="stroke:#181818;stroke-width:0.5;" width="125" x="449.5" y="45.6094"/><ellipse cx="483.85" cy="61.6094" fill="#A9DCDF" rx="11" ry="11" style="stroke:#181818;stroke-width:1.0;"/><path d="M486.0375,63.375 L481.8969,63.375 L481.475,64.4063 L481.8969,64.4063 Q482.5063,64.4063 482.7719,64.6406 Q483.0375,64.875 483.0375,65.2656 Q483.0375,65.6406 482.7719,65.875 Q482.5063,66.1094 481.8969,66.1094 L479.6,66.1094 Q478.9906,66.1094 478.7406,65.875 Q478.475,65.6406 478.475,65.25 Q478.475,64.875 478.7563,64.6406 Q479.0219,64.3906 479.6469,64.4063 L482.3188,57.75 L481.2094,57.75 Q480.6,57.75 480.3344,57.5156 Q480.0688,57.2813 480.0688,56.8906 Q480.0688,56.5156 480.3344,56.2813 Q480.6,56.0469 481.2094,56.0469 L484.8813,56.0469 L488.2719,64.4063 Q488.8656,64.4063 489.0531,64.5469 Q489.4438,64.8125 489.4438,65.2656 Q489.4438,65.6406 489.1781,65.875 Q488.9281,66.1094 488.3188,66.1094 L486.0219,66.1094 Q485.4125,66.1094 485.1469,65.875 Q484.8813,65.6406 484.8813,65.25 Q484.8813,64.875 485.1469,64.6406 Q485.4125,64.4063 486.0219,64.4063 L486.4438,64.4063 L486.0375,63.375 Z M485.3188,61.6719 L483.9594,58.2969 L482.5844,61.6719 L485.3188,61.6719 Z " fill="#000000"/><text fill="#000000" font-family="sans-serif" font-size="14" font-style="italic" lengthAdjust="spacing" textLength="50" x="502.15" y="67.3379">element</text><line style="stroke:#181818;stroke-width:0.5;" x1="450.5" x2="573.5" y1="77.6094" y2="77.6094"/><text fill="#000000" font-family="sans-serif" font-size="14" lengthAdjust="spacing" textLength="113" x="455.5" y="96.1426">desc : string [0..1]</text><text fill="#000000" font-family="sans-serif" font-size="14" lengthAdjust="spacing" textLength="106" x="455.5" y="113.752">doc : string [0..1]</text><text fill="#000000" font-family="sans-serif" font-size="14" lengthAdjust="spacing" textLength="75" x="455.5" y="131.3613">el : keyword</text><text fill="#000000" font-family="sans-serif" font-size="14" lengthAdjust="spacing" textLength="75" x="455.5" y="148.9707">id : keyword</text><text fill="#000000" font-family="sans-serif" font-size="14" lengthAdjust="spacing" textLength="82" x="455.5" y="166.5801">name : string</text><line style="stroke:#181818;stroke-width:0.5;" x1="450.5" x2="573.5" y1="173.6563" y2="173.6563"/></g><!--class overarch_dataModel_historyState--><g id="elem_overarch_dataModel_historyState"><rect codeLine="18" fill="#F1F1F1" height="48" id="overarch_dataModel_historyState" rx="2.5" ry="2.5" style="stroke:#181818;stroke-width:0.5;" width="110" x="197" y="752.6094"/><ellipse cx="212" cy="768.6094" fill="#ADD1B2" rx="11" ry="11" style="stroke:#181818;stroke-width:1.0;"/><path d="M214.7656,764.4844 Q214.9219,764.2656 215.1094,764.1563 Q215.2969,764.0469 215.5156,764.0469 Q215.8906,764.0469 216.125,764.3125 Q216.3594,764.5625 216.3594,765.1719 L216.3594,766.625 Q216.3594,767.2344 216.125,767.5 Q215.8906,767.7656 215.5156,767.7656 Q215.1719,767.7656 214.9688,767.5625 Q214.7656,767.375 214.6563,766.8594 Q214.6094,766.5 214.4219,766.3125 Q214.0938,765.9375 213.4844,765.7188 Q212.875,765.5 212.25,765.5 Q211.4844,765.5 210.8438,765.8281 Q210.2188,766.1563 209.7188,766.9063 Q209.2344,767.6563 209.2344,768.6875 L209.2344,769.7813 Q209.2344,771.0156 210.125,771.8438 Q211.0156,772.6563 212.6094,772.6563 Q213.5469,772.6563 214.2031,772.4063 Q214.5938,772.25 215.0156,771.8125 Q215.2813,771.5469 215.4219,771.4688 Q215.5781,771.3906 215.7813,771.3906 Q216.1094,771.3906 216.3594,771.6563 Q216.625,771.9063 216.625,772.25 Q216.625,772.5938 216.2813,773 Q215.7813,773.5781 214.9844,773.9063 Q213.9063,774.3594 212.6094,774.3594 Q211.0938,774.3594 209.8906,773.7344 Q208.9063,773.2344 208.2188,772.1719 Q207.5313,771.0938 207.5313,769.8125 L207.5313,768.6563 Q207.5313,767.3281 208.1406,766.1875 Q208.7656,765.0313 209.8594,764.4219 Q210.9531,763.7969 212.1875,763.7969 Q212.9219,763.7969 213.5625,763.9688 Q214.2188,764.125 214.7656,764.4844 Z " fill="#000000"/><text fill="#000000" font-family="sans-serif" font-size="14" lengthAdjust="spacing" textLength="78" x="226" y="774.3379">history-state</text><line style="stroke:#181818;stroke-width:0.5;" x1="198" x2="306" y1="784.6094" y2="784.6094"/><line style="stroke:#181818;stroke-width:0.5;" x1="198" x2="306" y1="792.6094" y2="792.6094"/></g><!--class overarch_dataModel_stateMachineModelElement--><g id="elem_overarch_dataModel_stateMachineModelElement"><rect codeLine="19" fill="#F1F1F1" height="48" id="overarch_dataModel_stateMachineModelElement" rx="2.5" ry="2.5" style="stroke:#181818;stroke-width:0.5;" width="219" x="402.5" y="402.1094"/><ellipse cx="417.5" cy="418.1094" fill="#A9DCDF" rx="11" ry="11" style="stroke:#181818;stroke-width:1.0;"/><path d="M419.6875,419.875 L415.5469,419.875 L415.125,420.9063 L415.5469,420.9063 Q416.1563,420.9063 416.4219,421.1406 Q416.6875,421.375 416.6875,421.7656 Q416.6875,422.1406 416.4219,422.375 Q416.1563,422.6094 415.5469,422.6094 L413.25,422.6094 Q412.6406,422.6094 412.3906,422.375 Q412.125,422.1406 412.125,421.75 Q412.125,421.375 412.4063,421.1406 Q412.6719,420.8906 413.2969,420.9063 L415.9688,414.25 L414.8594,414.25 Q414.25,414.25 413.9844,414.0156 Q413.7188,413.7813 413.7188,413.3906 Q413.7188,413.0156 413.9844,412.7813 Q414.25,412.5469 414.8594,412.5469 L418.5313,412.5469 L421.9219,420.9063 Q422.5156,420.9063 422.7031,421.0469 Q423.0938,421.3125 423.0938,421.7656 Q423.0938,422.1406 422.8281,422.375 Q422.5781,422.6094 421.9688,422.6094 L419.6719,422.6094 Q419.0625,422.6094 418.7969,422.375 Q418.5313,422.1406 418.5313,421.75 Q418.5313,421.375 418.7969,421.1406 Q419.0625,420.9063 419.6719,420.9063 L420.0938,420.9063 L419.6875,419.875 Z M418.9688,418.1719 L417.6094,414.7969 L416.2344,418.1719 L418.9688,418.1719 Z " fill="#000000"/><text fill="#000000" font-family="sans-serif" font-size="14" font-style="italic" lengthAdjust="spacing" textLength="187" x="431.5" y="423.8379">state-machine-model-element</text><line style="stroke:#181818;stroke-width:0.5;" x1="403.5" x2="620.5" y1="434.1094" y2="434.1094"/><line style="stroke:#181818;stroke-width:0.5;" x1="403.5" x2="620.5" y1="442.1094" y2="442.1094"/></g><!--class overarch_dataModel_choice--><g id="elem_overarch_dataModel_choice"><rect codeLine="20" fill="#F1F1F1" height="65.6094" id="overarch_dataModel_choice" rx="2.5" ry="2.5" style="stroke:#181818;stroke-width:0.5;" width="116" x="342" y="743.6094"/><ellipse cx="376.35" cy="759.6094" fill="#ADD1B2" rx="11" ry="11" style="stroke:#181818;stroke-width:1.0;"/><path d="M379.1156,755.4844 Q379.2719,755.2656 379.4594,755.1563 Q379.6469,755.0469 379.8656,755.0469 Q380.2406,755.0469 380.475,755.3125 Q380.7094,755.5625 380.7094,756.1719 L380.7094,757.625 Q380.7094,758.2344 380.475,758.5 Q380.2406,758.7656 379.8656,758.7656 Q379.5219,758.7656 379.3188,758.5625 Q379.1156,758.375 379.0063,757.8594 Q378.9594,757.5 378.7719,757.3125 Q378.4438,756.9375 377.8344,756.7188 Q377.225,756.5 376.6,756.5 Q375.8344,756.5 375.1938,756.8281 Q374.5688,757.1563 374.0688,757.9063 Q373.5844,758.6563 373.5844,759.6875 L373.5844,760.7813 Q373.5844,762.0156 374.475,762.8438 Q375.3656,763.6563 376.9594,763.6563 Q377.8969,763.6563 378.5531,763.4063 Q378.9438,763.25 379.3656,762.8125 Q379.6313,762.5469 379.7719,762.4688 Q379.9281,762.3906 380.1313,762.3906 Q380.4594,762.3906 380.7094,762.6563 Q380.975,762.9063 380.975,763.25 Q380.975,763.5938 380.6313,764 Q380.1313,764.5781 379.3344,764.9063 Q378.2563,765.3594 376.9594,765.3594 Q375.4438,765.3594 374.2406,764.7344 Q373.2563,764.2344 372.5688,763.1719 Q371.8813,762.0938 371.8813,760.8125 L371.8813,759.6563 Q371.8813,758.3281 372.4906,757.1875 Q373.1156,756.0313 374.2094,755.4219 Q375.3031,754.7969 376.5375,754.7969 Q377.2719,754.7969 377.9125,754.9688 Q378.5688,755.125 379.1156,755.4844 Z " fill="#000000"/><text fill="#000000" font-family="sans-serif" font-size="14" lengthAdjust="spacing" textLength="41" x="394.65" y="765.3379">choice</text><line style="stroke:#181818;stroke-width:0.5;" x1="343" x2="457" y1="775.6094" y2="775.6094"/><text fill="#000000" font-family="sans-serif" font-size="14" lengthAdjust="spacing" textLength="104" x="348" y="794.1426">condition : string</text><line style="stroke:#181818;stroke-width:0.5;" x1="343" x2="457" y1="801.2188" y2="801.2188"/></g><!--class overarch_dataModel_deepHistoryState--><g id="elem_overarch_dataModel_deepHistoryState"><rect codeLine="23" fill="#F1F1F1" height="48" id="overarch_dataModel_deepHistoryState" rx="2.5" ry="2.5" style="stroke:#181818;stroke-width:0.5;" width="147" x="493.5" y="752.6094"/><ellipse cx="508.5" cy="768.6094" fill="#ADD1B2" rx="11" ry="11" style="stroke:#181818;stroke-width:1.0;"/><path d="M511.2656,764.4844 Q511.4219,764.2656 511.6094,764.1563 Q511.7969,764.0469 512.0156,764.0469 Q512.3906,764.0469 512.625,764.3125 Q512.8594,764.5625 512.8594,765.1719 L512.8594,766.625 Q512.8594,767.2344 512.625,767.5 Q512.3906,767.7656 512.0156,767.7656 Q511.6719,767.7656 511.4688,767.5625 Q511.2656,767.375 511.1563,766.8594 Q511.1094,766.5 510.9219,766.3125 Q510.5938,765.9375 509.9844,765.7188 Q509.375,765.5 508.75,765.5 Q507.9844,765.5 507.3438,765.8281 Q506.7188,766.1563 506.2188,766.9063 Q505.7344,767.6563 505.7344,768.6875 L505.7344,769.7813 Q505.7344,771.0156 506.625,771.8438 Q507.5156,772.6563 509.1094,772.6563 Q510.0469,772.6563 510.7031,772.4063 Q511.0938,772.25 511.5156,771.8125 Q511.7813,771.5469 511.9219,771.4688 Q512.0781,771.3906 512.2813,771.3906 Q512.6094,771.3906 512.8594,771.6563 Q513.125,771.9063 513.125,772.25 Q513.125,772.5938 512.7813,773 Q512.2813,773.5781 511.4844,773.9063 Q510.4063,774.3594 509.1094,774.3594 Q507.5938,774.3594 506.3906,773.7344 Q505.4063,773.2344 504.7188,772.1719 Q504.0313,771.0938 504.0313,769.8125 L504.0313,768.6563 Q504.0313,767.3281 504.6406,766.1875 Q505.2656,765.0313 506.3594,764.4219 Q507.4531,763.7969 508.6875,763.7969 Q509.4219,763.7969 510.0625,763.9688 Q510.7188,764.125 511.2656,764.4844 Z " fill="#000000"/><text fill="#000000" font-family="sans-serif" font-size="14" lengthAdjust="spacing" textLength="115" x="522.5" y="774.3379">deep-history-state</text><line style="stroke:#181818;stroke-width:0.5;" x1="494.5" x2="639.5" y1="784.6094" y2="784.6094"/><line style="stroke:#181818;stroke-width:0.5;" x1="494.5" x2="639.5" y1="792.6094" y2="792.6094"/></g><!--class overarch_dataModel_state--><g id="elem_overarch_dataModel_state"><rect codeLine="24" fill="#F1F1F1" height="48" id="overarch_dataModel_state" rx="2.5" ry="2.5" style="stroke:#181818;stroke-width:0.5;" width="63" x="98.5" y="752.6094"/><ellipse cx="113.5" cy="768.6094" fill="#ADD1B2" rx="11" ry="11" style="stroke:#181818;stroke-width:1.0;"/><path d="M116.2656,764.4844 Q116.4219,764.2656 116.6094,764.1563 Q116.7969,764.0469 117.0156,764.0469 Q117.3906,764.0469 117.625,764.3125 Q117.8594,764.5625 117.8594,765.1719 L117.8594,766.625 Q117.8594,767.2344 117.625,767.5 Q117.3906,767.7656 117.0156,767.7656 Q116.6719,767.7656 116.4688,767.5625 Q116.2656,767.375 116.1563,766.8594 Q116.1094,766.5 115.9219,766.3125 Q115.5938,765.9375 114.9844,765.7188 Q114.375,765.5 113.75,765.5 Q112.9844,765.5 112.3438,765.8281 Q111.7188,766.1563 111.2188,766.9063 Q110.7344,767.6563 110.7344,768.6875 L110.7344,769.7813 Q110.7344,771.0156 111.625,771.8438 Q112.5156,772.6563 114.1094,772.6563 Q115.0469,772.6563 115.7031,772.4063 Q116.0938,772.25 116.5156,771.8125 Q116.7813,771.5469 116.9219,771.4688 Q117.0781,771.3906 117.2813,771.3906 Q117.6094,771.3906 117.8594,771.6563 Q118.125,771.9063 118.125,772.25 Q118.125,772.5938 117.7813,773 Q117.2813,773.5781 116.4844,773.9063 Q115.4063,774.3594 114.1094,774.3594 Q112.5938,774.3594 111.3906,773.7344 Q110.4063,773.2344 109.7188,772.1719 Q109.0313,771.0938 109.0313,769.8125 L109.0313,768.6563 Q109.0313,767.3281 109.6406,766.1875 Q110.2656,765.0313 111.3594,764.4219 Q112.4531,763.7969 113.6875,763.7969 Q114.4219,763.7969 115.0625,763.9688 Q115.7188,764.125 116.2656,764.4844 Z " fill="#000000"/><text fill="#000000" font-family="sans-serif" font-size="14" lengthAdjust="spacing" textLength="31" x="127.5" y="774.3379">state</text><line style="stroke:#181818;stroke-width:0.5;" x1="99.5" x2="160.5" y1="784.6094" y2="784.6094"/><line style="stroke:#181818;stroke-width:0.5;" x1="99.5" x2="160.5" y1="792.6094" y2="792.6094"/></g><!--class overarch_dataModel_modelNode--><g id="elem_overarch_dataModel_modelNode"><rect codeLine="25" fill="#F1F1F1" height="48" id="overarch_dataModel_modelNode" rx="2.5" ry="2.5" style="stroke:#181818;stroke-width:0.5;" width="107" x="239.5" y="527.6094"/><ellipse cx="254.5" cy="543.6094" fill="#A9DCDF" rx="11" ry="11" style="stroke:#181818;stroke-width:1.0;"/><path d="M256.6875,545.375 L252.5469,545.375 L252.125,546.4063 L252.5469,546.4063 Q253.1563,546.4063 253.4219,546.6406 Q253.6875,546.875 253.6875,547.2656 Q253.6875,547.6406 253.4219,547.875 Q253.1563,548.1094 252.5469,548.1094 L250.25,548.1094 Q249.6406,548.1094 249.3906,547.875 Q249.125,547.6406 249.125,547.25 Q249.125,546.875 249.4063,546.6406 Q249.6719,546.3906 250.2969,546.4063 L252.9688,539.75 L251.8594,539.75 Q251.25,539.75 250.9844,539.5156 Q250.7188,539.2813 250.7188,538.8906 Q250.7188,538.5156 250.9844,538.2813 Q251.25,538.0469 251.8594,538.0469 L255.5313,538.0469 L258.9219,546.4063 Q259.5156,546.4063 259.7031,546.5469 Q260.0938,546.8125 260.0938,547.2656 Q260.0938,547.6406 259.8281,547.875 Q259.5781,548.1094 258.9688,548.1094 L256.6719,548.1094 Q256.0625,548.1094 255.7969,547.875 Q255.5313,547.6406 255.5313,547.25 Q255.5313,546.875 255.7969,546.6406 Q256.0625,546.4063 256.6719,546.4063 L257.0938,546.4063 L256.6875,545.375 Z M255.9688,543.6719 L254.6094,540.2969 L253.2344,543.6719 L255.9688,543.6719 Z " fill="#000000"/><text fill="#000000" font-family="sans-serif" font-size="14" font-style="italic" lengthAdjust="spacing" textLength="75" x="268.5" y="549.3379">model-node</text><line style="stroke:#181818;stroke-width:0.5;" x1="240.5" x2="345.5" y1="559.6094" y2="559.6094"/><line style="stroke:#181818;stroke-width:0.5;" x1="240.5" x2="345.5" y1="567.6094" y2="567.6094"/></g><!--class overarch_dataModel_modelRelation--><g id="elem_overarch_dataModel_modelRelation"><rect codeLine="26" fill="#F1F1F1" height="83.2188" id="overarch_dataModel_modelRelation" rx="2.5" ry="2.5" style="stroke:#181818;stroke-width:0.5;" width="122" x="657" y="384.6094"/><ellipse cx="672" cy="400.6094" fill="#A9DCDF" rx="11" ry="11" style="stroke:#181818;stroke-width:1.0;"/><path d="M674.1875,402.375 L670.0469,402.375 L669.625,403.4063 L670.0469,403.4063 Q670.6563,403.4063 670.9219,403.6406 Q671.1875,403.875 671.1875,404.2656 Q671.1875,404.6406 670.9219,404.875 Q670.6563,405.1094 670.0469,405.1094 L667.75,405.1094 Q667.1406,405.1094 666.8906,404.875 Q666.625,404.6406 666.625,404.25 Q666.625,403.875 666.9063,403.6406 Q667.1719,403.3906 667.7969,403.4063 L670.4688,396.75 L669.3594,396.75 Q668.75,396.75 668.4844,396.5156 Q668.2188,396.2813 668.2188,395.8906 Q668.2188,395.5156 668.4844,395.2813 Q668.75,395.0469 669.3594,395.0469 L673.0313,395.0469 L676.4219,403.4063 Q677.0156,403.4063 677.2031,403.5469 Q677.5938,403.8125 677.5938,404.2656 Q677.5938,404.6406 677.3281,404.875 Q677.0781,405.1094 676.4688,405.1094 L674.1719,405.1094 Q673.5625,405.1094 673.2969,404.875 Q673.0313,404.6406 673.0313,404.25 Q673.0313,403.875 673.2969,403.6406 Q673.5625,403.4063 674.1719,403.4063 L674.5938,403.4063 L674.1875,402.375 Z M673.4688,400.6719 L672.1094,397.2969 L670.7344,400.6719 L673.4688,400.6719 Z " fill="#000000"/><text fill="#000000" font-family="sans-serif" font-size="14" font-style="italic" lengthAdjust="spacing" textLength="90" x="686" y="406.3379">model-relation</text><line style="stroke:#181818;stroke-width:0.5;" x1="658" x2="778" y1="416.6094" y2="416.6094"/><text fill="#000000" font-family="sans-serif" font-size="14" lengthAdjust="spacing" textLength="92" x="663" y="435.1426">from : keyword</text><text fill="#000000" font-family="sans-serif" font-size="14" lengthAdjust="spacing" textLength="76" x="663" y="452.752">to : keyword</text><line style="stroke:#181818;stroke-width:0.5;" x1="658" x2="778" y1="459.8281" y2="459.8281"/></g><!--class overarch_dataModel_stateMachineModelRelation--><g id="elem_overarch_dataModel_stateMachineModelRelation"><rect codeLine="30" fill="#F1F1F1" height="48" id="overarch_dataModel_stateMachineModelRelation" rx="2.5" ry="2.5" style="stroke:#181818;stroke-width:0.5;" width="216" x="610" y="527.6094"/><ellipse cx="625" cy="543.6094" fill="#A9DCDF" rx="11" ry="11" style="stroke:#181818;stroke-width:1.0;"/><path d="M627.1875,545.375 L623.0469,545.375 L622.625,546.4063 L623.0469,546.4063 Q623.6563,546.4063 623.9219,546.6406 Q624.1875,546.875 624.1875,547.2656 Q624.1875,547.6406 623.9219,547.875 Q623.6563,548.1094 623.0469,548.1094 L620.75,548.1094 Q620.1406,548.1094 619.8906,547.875 Q619.625,547.6406 619.625,547.25 Q619.625,546.875 619.9063,546.6406 Q620.1719,546.3906 620.7969,546.4063 L623.4688,539.75 L622.3594,539.75 Q621.75,539.75 621.4844,539.5156 Q621.2188,539.2813 621.2188,538.8906 Q621.2188,538.5156 621.4844,538.2813 Q621.75,538.0469 622.3594,538.0469 L626.0313,538.0469 L629.4219,546.4063 Q630.0156,546.4063 630.2031,546.5469 Q630.5938,546.8125 630.5938,547.2656 Q630.5938,547.6406 630.3281,547.875 Q630.0781,548.1094 629.4688,548.1094 L627.1719,548.1094 Q626.5625,548.1094 626.2969,547.875 Q626.0313,547.6406 626.0313,547.25 Q626.0313,546.875 626.2969,546.6406 Q626.5625,546.4063 627.1719,546.4063 L627.5938,546.4063 L627.1875,545.375 Z M626.4688,543.6719 L625.1094,540.2969 L623.7344,543.6719 L626.4688,543.6719 Z " fill="#000000"/><text fill="#000000" font-family="sans-serif" font-size="14" font-style="italic" lengthAdjust="spacing" textLength="184" x="639" y="549.3379">state-machine-model-relation</text><line style="stroke:#181818;stroke-width:0.5;" x1="611" x2="825" y1="559.6094" y2="559.6094"/><line style="stroke:#181818;stroke-width:0.5;" x1="611" x2="825" y1="567.6094" y2="567.6094"/></g><!--class overarch_dataModel_modelElement--><g id="elem_overarch_dataModel_modelElement"><rect codeLine="31" fill="#F1F1F1" height="83.2188" id="overarch_dataModel_modelElement" rx="2.5" ry="2.5" style="stroke:#181818;stroke-width:0.5;" width="162" x="431" y="241.6094"/><ellipse cx="462.65" cy="257.6094" fill="#A9DCDF" rx="11" ry="11" style="stroke:#181818;stroke-width:1.0;"/><path d="M464.8375,259.375 L460.6969,259.375 L460.275,260.4063 L460.6969,260.4063 Q461.3063,260.4063 461.5719,260.6406 Q461.8375,260.875 461.8375,261.2656 Q461.8375,261.6406 461.5719,261.875 Q461.3063,262.1094 460.6969,262.1094 L458.4,262.1094 Q457.7906,262.1094 457.5406,261.875 Q457.275,261.6406 457.275,261.25 Q457.275,260.875 457.5563,260.6406 Q457.8219,260.3906 458.4469,260.4063 L461.1188,253.75 L460.0094,253.75 Q459.4,253.75 459.1344,253.5156 Q458.8688,253.2813 458.8688,252.8906 Q458.8688,252.5156 459.1344,252.2813 Q459.4,252.0469 460.0094,252.0469 L463.6813,252.0469 L467.0719,260.4063 Q467.6656,260.4063 467.8531,260.5469 Q468.2438,260.8125 468.2438,261.2656 Q468.2438,261.6406 467.9781,261.875 Q467.7281,262.1094 467.1188,262.1094 L464.8219,262.1094 Q464.2125,262.1094 463.9469,261.875 Q463.6813,261.6406 463.6813,261.25 Q463.6813,260.875 463.9469,260.6406 Q464.2125,260.4063 464.8219,260.4063 L465.2438,260.4063 L464.8375,259.375 Z M464.1188,257.6719 L462.7594,254.2969 L461.3844,257.6719 L464.1188,257.6719 Z " fill="#000000"/><text fill="#000000" font-family="sans-serif" font-size="14" font-style="italic" lengthAdjust="spacing" textLength="93" x="480.35" y="263.3379">model-element</text><line style="stroke:#181818;stroke-width:0.5;" x1="432" x2="592" y1="273.6094" y2="273.6094"/><text fill="#000000" font-family="sans-serif" font-size="14" lengthAdjust="spacing" textLength="150" x="437" y="292.1426">maturity : keyword [0..1]</text><text fill="#000000" font-family="sans-serif" font-size="14" lengthAdjust="spacing" textLength="94" x="437" y="309.752">tags : set [0..1]</text><line style="stroke:#181818;stroke-width:0.5;" x1="432" x2="592" y1="316.8281" y2="316.8281"/></g><!--class overarch_dataModel_transition--><g id="elem_overarch_dataModel_transition"><rect codeLine="35" fill="#F1F1F1" height="48" id="overarch_dataModel_transition" rx="2.5" ry="2.5" style="stroke:#181818;stroke-width:0.5;" width="90" x="673" y="635.6094"/><ellipse cx="688" cy="651.6094" fill="#ADD1B2" rx="11" ry="11" style="stroke:#181818;stroke-width:1.0;"/><path d="M690.7656,647.4844 Q690.9219,647.2656 691.1094,647.1563 Q691.2969,647.0469 691.5156,647.0469 Q691.8906,647.0469 692.125,647.3125 Q692.3594,647.5625 692.3594,648.1719 L692.3594,649.625 Q692.3594,650.2344 692.125,650.5 Q691.8906,650.7656 691.5156,650.7656 Q691.1719,650.7656 690.9688,650.5625 Q690.7656,650.375 690.6563,649.8594 Q690.6094,649.5 690.4219,649.3125 Q690.0938,648.9375 689.4844,648.7188 Q688.875,648.5 688.25,648.5 Q687.4844,648.5 686.8438,648.8281 Q686.2188,649.1563 685.7188,649.9063 Q685.2344,650.6563 685.2344,651.6875 L685.2344,652.7813 Q685.2344,654.0156 686.125,654.8438 Q687.0156,655.6563 688.6094,655.6563 Q689.5469,655.6563 690.2031,655.4063 Q690.5938,655.25 691.0156,654.8125 Q691.2813,654.5469 691.4219,654.4688 Q691.5781,654.3906 691.7813,654.3906 Q692.1094,654.3906 692.3594,654.6563 Q692.625,654.9063 692.625,655.25 Q692.625,655.5938 692.2813,656 Q691.7813,656.5781 690.9844,656.9063 Q689.9063,657.3594 688.6094,657.3594 Q687.0938,657.3594 685.8906,656.7344 Q684.9063,656.2344 684.2188,655.1719 Q683.5313,654.0938 683.5313,652.8125 L683.5313,651.6563 Q683.5313,650.3281 684.1406,649.1875 Q684.7656,648.0313 685.8594,647.4219 Q686.9531,646.7969 688.1875,646.7969 Q688.9219,646.7969 689.5625,646.9688 Q690.2188,647.125 690.7656,647.4844 Z " fill="#000000"/><text fill="#000000" font-family="sans-serif" font-size="14" lengthAdjust="spacing" textLength="58" x="702" y="657.3379">transition</text><line style="stroke:#181818;stroke-width:0.5;" x1="674" x2="762" y1="667.6094" y2="667.6094"/><line style="stroke:#181818;stroke-width:0.5;" x1="674" x2="762" y1="675.6094" y2="675.6094"/></g><!--class overarch_dataModel_join--><g id="elem_overarch_dataModel_join"><rect codeLine="36" fill="#F1F1F1" height="48" id="overarch_dataModel_join" rx="2.5" ry="2.5" style="stroke:#181818;stroke-width:0.5;" width="54" x="676" y="752.6094"/><ellipse cx="691" cy="768.6094" fill="#ADD1B2" rx="11" ry="11" style="stroke:#181818;stroke-width:1.0;"/><path d="M693.7656,764.4844 Q693.9219,764.2656 694.1094,764.1563 Q694.2969,764.0469 694.5156,764.0469 Q694.8906,764.0469 695.125,764.3125 Q695.3594,764.5625 695.3594,765.1719 L695.3594,766.625 Q695.3594,767.2344 695.125,767.5 Q694.8906,767.7656 694.5156,767.7656 Q694.1719,767.7656 693.9688,767.5625 Q693.7656,767.375 693.6563,766.8594 Q693.6094,766.5 693.4219,766.3125 Q693.0938,765.9375 692.4844,765.7188 Q691.875,765.5 691.25,765.5 Q690.4844,765.5 689.8438,765.8281 Q689.2188,766.1563 688.7188,766.9063 Q688.2344,767.6563 688.2344,768.6875 L688.2344,769.7813 Q688.2344,771.0156 689.125,771.8438 Q690.0156,772.6563 691.6094,772.6563 Q692.5469,772.6563 693.2031,772.4063 Q693.5938,772.25 694.0156,771.8125 Q694.2813,771.5469 694.4219,771.4688 Q694.5781,771.3906 694.7813,771.3906 Q695.1094,771.3906 695.3594,771.6563 Q695.625,771.9063 695.625,772.25 Q695.625,772.5938 695.2813,773 Q694.7813,773.5781 693.9844,773.9063 Q692.9063,774.3594 691.6094,774.3594 Q690.0938,774.3594 688.8906,773.7344 Q687.9063,773.2344 687.2188,772.1719 Q686.5313,771.0938 686.5313,769.8125 L686.5313,768.6563 Q686.5313,767.3281 687.1406,766.1875 Q687.7656,765.0313 688.8594,764.4219 Q689.9531,763.7969 691.1875,763.7969 Q691.9219,763.7969 692.5625,763.9688 Q693.2188,764.125 693.7656,764.4844 Z " fill="#000000"/><text fill="#000000" font-family="sans-serif" font-size="14" lengthAdjust="spacing" textLength="22" x="705" y="774.3379">join</text><line style="stroke:#181818;stroke-width:0.5;" x1="677" x2="729" y1="784.6094" y2="784.6094"/><line style="stroke:#181818;stroke-width:0.5;" x1="677" x2="729" y1="792.6094" y2="792.6094"/></g><!--class overarch_dataModel_endState--><g id="elem_overarch_dataModel_endState"><rect codeLine="37" fill="#F1F1F1" height="48" id="overarch_dataModel_endState" rx="2.5" ry="2.5" style="stroke:#181818;stroke-width:0.5;" width="92" x="765" y="752.6094"/><ellipse cx="780" cy="768.6094" fill="#ADD1B2" rx="11" ry="11" style="stroke:#181818;stroke-width:1.0;"/><path d="M782.7656,764.4844 Q782.9219,764.2656 783.1094,764.1563 Q783.2969,764.0469 783.5156,764.0469 Q783.8906,764.0469 784.125,764.3125 Q784.3594,764.5625 784.3594,765.1719 L784.3594,766.625 Q784.3594,767.2344 784.125,767.5 Q783.8906,767.7656 783.5156,767.7656 Q783.1719,767.7656 782.9688,767.5625 Q782.7656,767.375 782.6563,766.8594 Q782.6094,766.5 782.4219,766.3125 Q782.0938,765.9375 781.4844,765.7188 Q780.875,765.5 780.25,765.5 Q779.4844,765.5 778.8438,765.8281 Q778.2188,766.1563 777.7188,766.9063 Q777.2344,767.6563 777.2344,768.6875 L777.2344,769.7813 Q777.2344,771.0156 778.125,771.8438 Q779.0156,772.6563 780.6094,772.6563 Q781.5469,772.6563 782.2031,772.4063 Q782.5938,772.25 783.0156,771.8125 Q783.2813,771.5469 783.4219,771.4688 Q783.5781,771.3906 783.7813,771.3906 Q784.1094,771.3906 784.3594,771.6563 Q784.625,771.9063 784.625,772.25 Q784.625,772.5938 784.2813,773 Q783.7813,773.5781 782.9844,773.9063 Q781.9063,774.3594 780.6094,774.3594 Q779.0938,774.3594 777.8906,773.7344 Q776.9063,773.2344 776.2188,772.1719 Q775.5313,771.0938 775.5313,769.8125 L775.5313,768.6563 Q775.5313,767.3281 776.1406,766.1875 Q776.7656,765.0313 777.8594,764.4219 Q778.9531,763.7969 780.1875,763.7969 Q780.9219,763.7969 781.5625,763.9688 Q782.2188,764.125 782.7656,764.4844 Z " fill="#000000"/><text fill="#000000" font-family="sans-serif" font-size="14" lengthAdjust="spacing" textLength="60" x="794" y="774.3379">end-state</text><line style="stroke:#181818;stroke-width:0.5;" x1="766" x2="856" y1="784.6094" y2="784.6094"/><line style="stroke:#181818;stroke-width:0.5;" x1="766" x2="856" y1="792.6094" y2="792.6094"/></g><!--class overarch_dataModel_stateMachineModelNode--><g id="elem_overarch_dataModel_stateMachineModelNode"><rect codeLine="38" fill="#F1F1F1" height="48" id="overarch_dataModel_stateMachineModelNode" rx="2.5" ry="2.5" style="stroke:#181818;stroke-width:0.5;" width="201" x="299.5" y="635.6094"/><ellipse cx="314.5" cy="651.6094" fill="#A9DCDF" rx="11" ry="11" style="stroke:#181818;stroke-width:1.0;"/><path d="M316.6875,653.375 L312.5469,653.375 L312.125,654.4063 L312.5469,654.4063 Q313.1563,654.4063 313.4219,654.6406 Q313.6875,654.875 313.6875,655.2656 Q313.6875,655.6406 313.4219,655.875 Q313.1563,656.1094 312.5469,656.1094 L310.25,656.1094 Q309.6406,656.1094 309.3906,655.875 Q309.125,655.6406 309.125,655.25 Q309.125,654.875 309.4063,654.6406 Q309.6719,654.3906 310.2969,654.4063 L312.9688,647.75 L311.8594,647.75 Q311.25,647.75 310.9844,647.5156 Q310.7188,647.2813 310.7188,646.8906 Q310.7188,646.5156 310.9844,646.2813 Q311.25,646.0469 311.8594,646.0469 L315.5313,646.0469 L318.9219,654.4063 Q319.5156,654.4063 319.7031,654.5469 Q320.0938,654.8125 320.0938,655.2656 Q320.0938,655.6406 319.8281,655.875 Q319.5781,656.1094 318.9688,656.1094 L316.6719,656.1094 Q316.0625,656.1094 315.7969,655.875 Q315.5313,655.6406 315.5313,655.25 Q315.5313,654.875 315.7969,654.6406 Q316.0625,654.4063 316.6719,654.4063 L317.0938,654.4063 L316.6875,653.375 Z M315.9688,651.6719 L314.6094,648.2969 L313.2344,651.6719 L315.9688,651.6719 Z " fill="#000000"/><text fill="#000000" font-family="sans-serif" font-size="14" font-style="italic" lengthAdjust="spacing" textLength="169" x="328.5" y="657.3379">state-machine-model-node</text><line style="stroke:#181818;stroke-width:0.5;" x1="300.5" x2="499.5" y1="667.6094" y2="667.6094"/><line style="stroke:#181818;stroke-width:0.5;" x1="300.5" x2="499.5" y1="675.6094" y2="675.6094"/></g><!--class overarch_dataModel_startState--><g id="elem_overarch_dataModel_startState"><rect codeLine="39" fill="#F1F1F1" height="48" id="overarch_dataModel_startState" rx="2.5" ry="2.5" style="stroke:#181818;stroke-width:0.5;" width="96" x="892" y="752.6094"/><ellipse cx="907" cy="768.6094" fill="#ADD1B2" rx="11" ry="11" style="stroke:#181818;stroke-width:1.0;"/><path d="M909.7656,764.4844 Q909.9219,764.2656 910.1094,764.1563 Q910.2969,764.0469 910.5156,764.0469 Q910.8906,764.0469 911.125,764.3125 Q911.3594,764.5625 911.3594,765.1719 L911.3594,766.625 Q911.3594,767.2344 911.125,767.5 Q910.8906,767.7656 910.5156,767.7656 Q910.1719,767.7656 909.9688,767.5625 Q909.7656,767.375 909.6563,766.8594 Q909.6094,766.5 909.4219,766.3125 Q909.0938,765.9375 908.4844,765.7188 Q907.875,765.5 907.25,765.5 Q906.4844,765.5 905.8438,765.8281 Q905.2188,766.1563 904.7188,766.9063 Q904.2344,767.6563 904.2344,768.6875 L904.2344,769.7813 Q904.2344,771.0156 905.125,771.8438 Q906.0156,772.6563 907.6094,772.6563 Q908.5469,772.6563 909.2031,772.4063 Q909.5938,772.25 910.0156,771.8125 Q910.2813,771.5469 910.4219,771.4688 Q910.5781,771.3906 910.7813,771.3906 Q911.1094,771.3906 911.3594,771.6563 Q911.625,771.9063 911.625,772.25 Q911.625,772.5938 911.2813,773 Q910.7813,773.5781 909.9844,773.9063 Q908.9063,774.3594 907.6094,774.3594 Q906.0938,774.3594 904.8906,773.7344 Q903.9063,773.2344 903.2188,772.1719 Q902.5313,771.0938 902.5313,769.8125 L902.5313,768.6563 Q902.5313,767.3281 903.1406,766.1875 Q903.7656,765.0313 904.8594,764.4219 Q905.9531,763.7969 907.1875,763.7969 Q907.9219,763.7969 908.5625,763.9688 Q909.2188,764.125 909.7656,764.4844 Z " fill="#000000"/><text fill="#000000" font-family="sans-serif" font-size="14" lengthAdjust="spacing" textLength="64" x="921" y="774.3379">start-state</text><line style="stroke:#181818;stroke-width:0.5;" x1="893" x2="987" y1="784.6094" y2="784.6094"/><line style="stroke:#181818;stroke-width:0.5;" x1="893" x2="987" y1="792.6094" y2="792.6094"/></g><!--reverse link overarch_dataModel_stateMachineModelNode to overarch_dataModel_choice--><g id="link_overarch_dataModel_stateMachineModelNode_overarch_dataModel_choice"><path codeLine="40" d="M400,701.8794 C400,718.9494 400,724.3294 400,743.2194 " fill="none" id="overarch_dataModel_stateMachineModelNode-backto-overarch_dataModel_choice" style="stroke:#181818;stroke-width:1.0;"/><polygon fill="none" points="400,683.8794,394,701.8794,406,701.8794,400,683.8794" style="stroke:#181818;stroke-width:1.0;"/></g><!--reverse link overarch_dataModel_element to overarch_dataModel_modelElement--><g id="link_overarch_dataModel_element_overarch_dataModel_modelElement"><path codeLine="41" d="M512,199.7694 C512,219.9794 512,223.5294 512,241.4494 " fill="none" id="overarch_dataModel_element-backto-overarch_dataModel_modelElement" style="stroke:#181818;stroke-width:1.0;"/><polygon fill="none" points="512,181.7694,506,199.7694,518,199.7694,512,181.7694" style="stroke:#181818;stroke-width:1.0;"/></g><!--reverse link overarch_dataModel_modelElement to overarch_dataModel_modelNode--><g id="link_overarch_dataModel_modelElement_overarch_dataModel_modelNode"><path codeLine="42" d="M436.4531,335.5401 C414.0231,352.3401 403.92,362.3094 385,384.6094 C346.62,429.8294 316.73,493.5294 302.36,527.3594 " fill="none" id="overarch_dataModel_modelElement-backto-overarch_dataModel_modelNode" style="stroke:#181818;stroke-width:1.0;"/><polygon fill="none" points="450.86,324.7494,432.8561,330.7378,440.05,340.3424,450.86,324.7494" style="stroke:#181818;stroke-width:1.0;"/></g><!--reverse link overarch_dataModel_stateMachineModelRelation to overarch_dataModel_transition--><g id="link_overarch_dataModel_stateMachineModelRelation_overarch_dataModel_transition"><path codeLine="43" d="M718,593.6094 C718,611.2694 718,617.5494 718,635.2894 " fill="none" id="overarch_dataModel_stateMachineModelRelation-backto-overarch_dataModel_transition" style="stroke:#181818;stroke-width:1.0;"/><polygon fill="none" points="718,575.6094,712,593.6094,724,593.6094,718,575.6094" style="stroke:#181818;stroke-width:1.0;"/></g><!--reverse link overarch_dataModel_stateMachineModelElement to overarch_dataModel_stateMachine--><g id="link_overarch_dataModel_stateMachineModelElement_overarch_dataModel_stateMachine"><path codeLine="44" d="M512.6653,468.3371 C513.0153,490.4171 513.27,505.4394 513.63,527.4794 " fill="none" id="overarch_dataModel_stateMachineModelElement-backto-overarch_dataModel_stateMachine" style="stroke:#181818;stroke-width:1.0;"/><polygon fill="none" points="512.38,450.3394,506.666,468.4322,518.6645,468.242,512.38,450.3394" style="stroke:#181818;stroke-width:1.0;"/></g><!--reverse link overarch_dataModel_stateMachineModelNode to overarch_dataModel_endState--><g id="link_overarch_dataModel_stateMachineModelNode_overarch_dataModel_endState"><path codeLine="45" d="M518.5274,681.8846 C588.7474,695.7846 666.24,714.1994 747,743.6094 C754,746.1594 761.24,749.2694 768.22,752.5394 " fill="none" id="overarch_dataModel_stateMachineModelNode-backto-overarch_dataModel_endState" style="stroke:#181818;stroke-width:1.0;"/><polygon fill="none" points="500.87,678.3894,517.3623,687.7704,519.6925,675.9988,500.87,678.3894" style="stroke:#181818;stroke-width:1.0;"/></g><!--reverse link overarch_dataModel_stateMachineModelNode to overarch_dataModel_fork--><g id="link_overarch_dataModel_stateMachineModelNode_overarch_dataModel_fork"><path codeLine="46" d="M281.5241,680.9121 C217.1541,693.8721 150.66,711.5594 81,743.6094 C74.99,746.3694 68.93,749.9294 63.26,753.6594 " fill="none" id="overarch_dataModel_stateMachineModelNode-backto-overarch_dataModel_fork" style="stroke:#181818;stroke-width:1.0;"/><polygon fill="none" points="299.17,677.3594,280.3398,675.0302,282.7083,686.7941,299.17,677.3594" style="stroke:#181818;stroke-width:1.0;"/></g><!--reverse link overarch_dataModel_modelElement to overarch_dataModel_modelRelation--><g id="link_overarch_dataModel_modelElement_overarch_dataModel_modelRelation"><path codeLine="47" d="M586.1609,334.8705 C613.6109,353.6705 631.31,365.7694 658.75,384.5594 " fill="none" id="overarch_dataModel_modelElement-backto-overarch_dataModel_modelRelation" style="stroke:#181818;stroke-width:1.0;"/><polygon fill="none" points="571.31,324.6994,582.7705,339.8208,589.5513,329.9202,571.31,324.6994" style="stroke:#181818;stroke-width:1.0;"/></g><!--reverse link overarch_dataModel_stateMachineModelNode to overarch_dataModel_startState--><g id="link_overarch_dataModel_stateMachineModelNode_overarch_dataModel_startState"><path codeLine="48" d="M518.5995,671.801 C616.1495,682.661 749.45,702.6694 875,743.6094 C882.41,746.0294 890.05,749.1494 897.36,752.4994 " fill="none" id="overarch_dataModel_stateMachineModelNode-backto-overarch_dataModel_startState" style="stroke:#181818;stroke-width:1.0;"/><polygon fill="none" points="500.71,669.8094,517.9356,677.7641,519.2633,665.8378,500.71,669.8094" style="stroke:#181818;stroke-width:1.0;"/></g><!--reverse link overarch_dataModel_modelElement to overarch_dataModel_stateMachineModelElement--><g id="link_overarch_dataModel_modelElement_overarch_dataModel_stateMachineModelElement"><path codeLine="49" d="M512,342.8894 C512,367.9394 512,381.1194 512,401.9894 " fill="none" id="overarch_dataModel_modelElement-backto-overarch_dataModel_stateMachineModelElement" style="stroke:#181818;stroke-width:1.0;"/><polygon fill="none" points="512,324.8894,506,342.8894,518,342.8894,512,324.8894" style="stroke:#181818;stroke-width:1.0;"/></g><!--reverse link overarch_dataModel_stateMachineModelNode to overarch_dataModel_deepHistoryState--><g id="link_overarch_dataModel_stateMachineModelNode_overarch_dataModel_deepHistoryState"><path codeLine="50" d="M448.6146,694.0888 C477.6846,714.1088 504.57,732.6194 533.54,752.5694 " fill="none" id="overarch_dataModel_stateMachineModelNode-backto-overarch_dataModel_deepHistoryState" style="stroke:#181818;stroke-width:1.0;"/><polygon fill="none" points="433.79,683.8794,445.2114,699.0303,452.0177,689.1473,433.79,683.8794" style="stroke:#181818;stroke-width:1.0;"/></g><!--link overarch_dataModel_state to overarch_dataModel_stateMachineModelNode--><g id="link_overarch_dataModel_state_overarch_dataModel_stateMachineModelNode"><path codeLine="51" d="M172.007,758.1328 C183.607,751.6028 185.4,749.4894 197,743.6094 C244.53,719.5294 295.1318,700.5337 336.6218,685.6637 " fill="none" id="overarch_dataModel_state-overarch_dataModel_stateMachineModelNode" style="stroke:#181818;stroke-width:1.0;"/><polygon fill="#181818" points="161.55,764.0194,168.7407,764.5618,172.007,758.1328,164.8163,757.5904,161.55,764.0194" style="stroke:#181818;stroke-width:1.0;"/><polygon fill="#181818" points="342.27,683.6394,332.4482,682.9104,337.5632,685.3263,335.1472,690.4413,342.27,683.6394" style="stroke:#181818;stroke-width:1.0;"/><text fill="#000000" font-family="sans-serif" font-size="13" lengthAdjust="spacing" textLength="22" x="303.5171" y="704.9847">1..n</text></g><!--reverse link overarch_dataModel_stateMachineModelNode to overarch_dataModel_state--><g id="link_overarch_dataModel_stateMachineModelNode_overarch_dataModel_state"><path codeLine="58" d="M294.7298,689.1673 C248.6498,704.0373 209.53,719.5294 162,743.6094 C156.74,746.2694 151.35,749.3694 146.36,752.5694 " fill="none" id="overarch_dataModel_stateMachineModelNode-backto-overarch_dataModel_state" style="stroke:#181818;stroke-width:1.0;"/><polygon fill="none" points="311.86,683.6394,292.8872,683.4572,296.5725,694.8773,311.86,683.6394" style="stroke:#181818;stroke-width:1.0;"/></g><!--reverse link overarch_dataModel_modelRelation to overarch_dataModel_stateMachineModelRelation--><g id="link_overarch_dataModel_modelRelation_overarch_dataModel_stateMachineModelRelation"><path codeLine="52" d="M718,485.8894 C718,505.6994 718,510.7894 718,527.5194 " fill="none" id="overarch_dataModel_modelRelation-backto-overarch_dataModel_stateMachineModelRelation" style="stroke:#181818;stroke-width:1.0;"/><polygon fill="none" points="718,467.8894,712,485.8894,724,485.8894,718,467.8894" style="stroke:#181818;stroke-width:1.0;"/></g><!--reverse link overarch_dataModel_stateMachineModelElement to overarch_dataModel_stateMachineModelRelation--><g id="link_overarch_dataModel_stateMachineModelElement_overarch_dataModel_stateMachineModelRelation"><path codeLine="53" d="M566.1882,459.5948 C603.0182,481.6748 642.65,505.4394 679.43,527.4794 " fill="none" id="overarch_dataModel_stateMachineModelElement-backto-overarch_dataModel_stateMachineModelRelation" style="stroke:#181818;stroke-width:1.0;"/><polygon fill="none" points="550.75,450.3394,563.1031,464.7408,569.2733,454.4487,550.75,450.3394" style="stroke:#181818;stroke-width:1.0;"/></g><!--link overarch_dataModel_stateMachine to overarch_dataModel_stateMachineModelNode--><g id="link_overarch_dataModel_stateMachine_overarch_dataModel_stateMachineModelNode"><path codeLine="54" d="M480.4726,583.7814 C461.4826,601.4414 448.5541,613.4638 429.4741,631.2038 " fill="none" id="overarch_dataModel_stateMachine-overarch_dataModel_stateMachineModelNode" style="stroke:#181818;stroke-width:1.0;"/><polygon fill="#181818" points="489.26,575.6094,482.1423,576.7662,480.4726,583.7814,487.5903,582.6245,489.26,575.6094" style="stroke:#181818;stroke-width:1.0;"/><polygon fill="#181818" points="425.08,635.2894,434.3949,632.0905,428.7418,631.8848,428.9475,626.2317,425.08,635.2894" style="stroke:#181818;stroke-width:1.0;"/><text fill="#000000" font-family="sans-serif" font-size="13" lengthAdjust="spacing" textLength="22" x="406.512" y="624.9493">1..n</text></g><!--reverse link overarch_dataModel_modelNode to overarch_dataModel_stateMachineModelNode--><g id="link_overarch_dataModel_modelNode_overarch_dataModel_stateMachineModelNode"><path codeLine="55" d="M329.0052,588.2798 C346.8252,605.9398 358.55,617.5494 376.46,635.2894 " fill="none" id="overarch_dataModel_modelNode-backto-overarch_dataModel_stateMachineModelNode" style="stroke:#181818;stroke-width:1.0;"/><polygon fill="none" points="316.22,575.6094,324.7817,592.5415,333.2287,584.018,316.22,575.6094" style="stroke:#181818;stroke-width:1.0;"/></g><!--reverse link overarch_dataModel_stateMachineModelElement to overarch_dataModel_stateMachineModelNode--><g id="link_overarch_dataModel_stateMachineModelElement_overarch_dataModel_stateMachineModelNode"><path codeLine="56" d="M478.5937,463.6954 C461.6037,483.0454 450.31,498.5694 436,527.6094 C418.49,563.1494 408.46,608.4594 403.63,635.4094 " fill="none" id="overarch_dataModel_stateMachineModelElement-backto-overarch_dataModel_stateMachineModelNode" style="stroke:#181818;stroke-width:1.0;"/><polygon fill="none" points="490.47,450.1694,474.085,459.7366,483.1023,467.6542,490.47,450.1694" style="stroke:#181818;stroke-width:1.0;"/></g><!--reverse link overarch_dataModel_stateMachineModelNode to overarch_dataModel_historyState--><g id="link_overarch_dataModel_stateMachineModelNode_overarch_dataModel_historyState"><path codeLine="57" d="M355.8375,694.925 C330.0775,714.945 307.33,732.6194 281.65,752.5694 " fill="none" id="overarch_dataModel_stateMachineModelNode-backto-overarch_dataModel_historyState" style="stroke:#181818;stroke-width:1.0;"/><polygon fill="none" points="370.05,683.8794,352.1556,690.1875,359.5194,699.6625,370.05,683.8794" style="stroke:#181818;stroke-width:1.0;"/></g><!--reverse link overarch_dataModel_stateMachineModelNode to overarch_dataModel_join--><g id="link_overarch_dataModel_stateMachineModelNode_overarch_dataModel_join"><path codeLine="59" d="M512.3059,688.4634 C562.2659,702.4234 606.37,717.7294 658,743.6094 C664,746.6194 670.08,750.3694 675.75,754.2394 " fill="none" id="overarch_dataModel_stateMachineModelNode-backto-overarch_dataModel_join" style="stroke:#181818;stroke-width:1.0;"/><polygon fill="none" points="494.97,683.6194,510.6913,694.2421,513.9206,682.6848,494.97,683.6194" style="stroke:#181818;stroke-width:1.0;"/></g><!--SRC=[hLNBJiCm4BpxArOz8ZcYrmfngyG53d14g3A9snWI6zaBg2hyEtRURUF48RsqYhqxdfcTE2Wmu_2433dSipWLqlwhX6UmpdZE9Hf2uemP0ukjqkyBO0RK5zTCn-acOSYAuetRWyDlNMeS7irBF5zFKLIVQNlPgq7DOeGAX9S4VEtLDXm8GC9D32km_KBkuFawYfOlRbdrhLfjAtZd-s-b4_ieagD7oNBUD956KIeCAhsd1MaVfQgeTBD7qP4jD7SzT4HbrwHYPLtBRgZ5gHAnbrEvMxWKAva854hsw4iu_w118btbtOdGhhv19Nskb3v8- -jhBIeUx8-_NVECEMc348zLKU76LglyQFAeEezXmnixzMnwBGEVa94yv4SPiAnpXfzQuBxbtYOTsSwuMNEirvfHsPEb4KFSsuhEXD-Ky3QulKufbybma6p1f3TbA25dHjTfQV4qqh5yQcm81PznyqEf_xqZ0nUNhxCxOZ8MWK4GHv1CYgKFhWq3cN99-U2w3VEjheCq7ybznkPPNZivdqkRntypyirbFhdJZu0N4QuelGLOBAF8NXoXvvBH6pnOygI1J3Oq5Ft2Dem59mngllnWv472QKYGfhmtbu1nNxC_]--></g></svg>