<svg xmlns="http://www.w3.org/2000/svg" xmlns:xlink="http://www.w3.org/1999/xlink" contentStyleType="text/css" height="861px" preserveAspectRatio="none" style="width:1048px;height:861px;background:#FFFFFF;" version="1.1" viewBox="0 0 1048 861" width="1048px" zoomAndPan="magnify"><defs/><g><text fill="#000000" font-family="sans-serif" font-size="14" font-weight="bold" lengthAdjust="spacing" textLength="240" x="397" y="22.9951">State Machine Model Elements</text><!--class overarch_dataModel_fork--><g id="elem_overarch_dataModel_fork"><rect codeLine="9" fill="#F1F1F1" height="48" id="overarch_dataModel_fork" rx="2.5" ry="2.5" style="stroke:#181818;stroke-width:0.5;" width="58" x="109.5" y="798.2969"/><ellipse cx="124.5" cy="814.2969" fill="#ADD1B2" rx="11" ry="11" style="stroke:#181818;stroke-width:1.0;"/><path d="M127.4688,819.9375 Q126.8906,820.2344 126.25,820.375 Q125.6094,820.5313 124.9063,820.5313 Q122.4063,820.5313 121.0781,818.8906 Q119.7656,817.2344 119.7656,814.1094 Q119.7656,810.9844 121.0781,809.3281 Q122.4063,807.6719 124.9063,807.6719 Q125.6094,807.6719 126.25,807.8281 Q126.9063,807.9844 127.4688,808.2813 L127.4688,811 Q126.8438,810.4219 126.25,810.1563 Q125.6563,809.875 125.0313,809.875 Q123.6875,809.875 123,810.9531 Q122.3125,812.0156 122.3125,814.1094 Q122.3125,816.2031 123,817.2813 Q123.6875,818.3438 125.0313,818.3438 Q125.6563,818.3438 126.25,818.0781 Q126.8438,817.7969 127.4688,817.2188 L127.4688,819.9375 Z " fill="#000000"/><text fill="#000000" font-family="sans-serif" font-size="14" lengthAdjust="spacing" textLength="26" x="138.5" y="819.1436">fork</text><line style="stroke:#181818;stroke-width:0.5;" x1="110.5" x2="166.5" y1="830.2969" y2="830.2969"/><line style="stroke:#181818;stroke-width:0.5;" x1="110.5" x2="166.5" y1="838.2969" y2="838.2969"/></g><!--class overarch_dataModel_stateMachine--><g id="elem_overarch_dataModel_stateMachine"><rect codeLine="10" fill="#F1F1F1" height="48" id="overarch_dataModel_stateMachine" rx="2.5" ry="2.5" style="stroke:#181818;stroke-width:0.5;" width="131" x="300" y="574.2969"/><ellipse cx="315" cy="590.2969" fill="#ADD1B2" rx="11" ry="11" style="stroke:#181818;stroke-width:1.0;"/><path d="M317.9688,595.9375 Q317.3906,596.2344 316.75,596.375 Q316.1094,596.5313 315.4063,596.5313 Q312.9063,596.5313 311.5781,594.8906 Q310.2656,593.2344 310.2656,590.1094 Q310.2656,586.9844 311.5781,585.3281 Q312.9063,583.6719 315.4063,583.6719 Q316.1094,583.6719 316.75,583.8281 Q317.4063,583.9844 317.9688,584.2813 L317.9688,587 Q317.3438,586.4219 316.75,586.1563 Q316.1563,585.875 315.5313,585.875 Q314.1875,585.875 313.5,586.9531 Q312.8125,588.0156 312.8125,590.1094 Q312.8125,592.2031 313.5,593.2813 Q314.1875,594.3438 315.5313,594.3438 Q316.1563,594.3438 316.75,594.0781 Q317.3438,593.7969 317.9688,593.2188 L317.9688,595.9375 Z " fill="#000000"/><text fill="#000000" font-family="sans-serif" font-size="14" lengthAdjust="spacing" textLength="99" x="329" y="595.1436">state-machine</text><line style="stroke:#181818;stroke-width:0.5;" x1="301" x2="430" y1="606.2969" y2="606.2969"/><line style="stroke:#181818;stroke-width:0.5;" x1="301" x2="430" y1="614.2969" y2="614.2969"/></g><!--class overarch_dataModel_identifiableNamedElement--><g id="elem_overarch_dataModel_identifiableNamedElement"><rect codeLine="11" fill="#F1F1F1" height="48" id="overarch_dataModel_identifiableNamedElement" rx="2.5" ry="2.5" style="stroke:#181818;stroke-width:0.5;" width="221" x="369" y="325.2969"/><ellipse cx="384" cy="341.2969" fill="#A9DCDF" rx="11" ry="11" style="stroke:#181818;stroke-width:1.0;"/><path d="M384.1094,336.6406 L382.9531,341.7188 L385.2813,341.7188 L384.1094,336.6406 Z M382.625,334.4063 L385.6094,334.4063 L388.9688,346.7969 L386.5156,346.7969 L385.75,343.7344 L382.4688,343.7344 L381.7188,346.7969 L379.2813,346.7969 L382.625,334.4063 Z " fill="#000000"/><text fill="#000000" font-family="sans-serif" font-size="14" font-style="italic" lengthAdjust="spacing" textLength="189" x="398" y="346.1436">identifiable-named-element</text><line style="stroke:#181818;stroke-width:0.5;" x1="370" x2="589" y1="357.2969" y2="357.2969"/><line style="stroke:#181818;stroke-width:0.5;" x1="370" x2="589" y1="365.2969" y2="365.2969"/></g><!--class overarch_dataModel_historyState--><g id="elem_overarch_dataModel_historyState"><rect codeLine="12" fill="#F1F1F1" height="48" id="overarch_dataModel_historyState" rx="2.5" ry="2.5" style="stroke:#181818;stroke-width:0.5;" width="118" x="202.5" y="798.2969"/><ellipse cx="217.5" cy="814.2969" fill="#ADD1B2" rx="11" ry="11" style="stroke:#181818;stroke-width:1.0;"/><path d="M220.4688,819.9375 Q219.8906,820.2344 219.25,820.375 Q218.6094,820.5313 217.9063,820.5313 Q215.4063,820.5313 214.0781,818.8906 Q212.7656,817.2344 212.7656,814.1094 Q212.7656,810.9844 214.0781,809.3281 Q215.4063,807.6719 217.9063,807.6719 Q218.6094,807.6719 219.25,807.8281 Q219.9063,807.9844 220.4688,808.2813 L220.4688,811 Q219.8438,810.4219 219.25,810.1563 Q218.6563,809.875 218.0313,809.875 Q216.6875,809.875 216,810.9531 Q215.3125,812.0156 215.3125,814.1094 Q215.3125,816.2031 216,817.2813 Q216.6875,818.3438 218.0313,818.3438 Q218.6563,818.3438 219.25,818.0781 Q219.8438,817.7969 220.4688,817.2188 L220.4688,819.9375 Z " fill="#000000"/><text fill="#000000" font-family="sans-serif" font-size="14" lengthAdjust="spacing" textLength="86" x="231.5" y="819.1436">history-state</text><line style="stroke:#181818;stroke-width:0.5;" x1="203.5" x2="319.5" y1="830.2969" y2="830.2969"/><line style="stroke:#181818;stroke-width:0.5;" x1="203.5" x2="319.5" y1="838.2969" y2="838.2969"/></g><!--class overarch_dataModel_stateMachineModelElement--><g id="elem_overarch_dataModel_stateMachineModelElement"><rect codeLine="13" fill="#F1F1F1" height="48" id="overarch_dataModel_stateMachineModelElement" rx="2.5" ry="2.5" style="stroke:#181818;stroke-width:0.5;" width="240" x="348.5" y="449.7969"/><ellipse cx="363.5" cy="465.7969" fill="#A9DCDF" rx="11" ry="11" style="stroke:#181818;stroke-width:1.0;"/><path d="M363.6094,461.1406 L362.4531,466.2188 L364.7813,466.2188 L363.6094,461.1406 Z M362.125,458.9063 L365.1094,458.9063 L368.4688,471.2969 L366.0156,471.2969 L365.25,468.2344 L361.9688,468.2344 L361.2188,471.2969 L358.7813,471.2969 L362.125,458.9063 Z " fill="#000000"/><text fill="#000000" font-family="sans-serif" font-size="14" font-style="italic" lengthAdjust="spacing" textLength="208" x="377.5" y="470.6436">state-machine-model-element</text><line style="stroke:#181818;stroke-width:0.5;" x1="349.5" x2="587.5" y1="481.7969" y2="481.7969"/><line style="stroke:#181818;stroke-width:0.5;" x1="349.5" x2="587.5" y1="489.7969" y2="489.7969"/></g><!--class overarch_dataModel_element--><g id="elem_overarch_dataModel_element"><rect codeLine="14" fill="#F1F1F1" height="64.2969" id="overarch_dataModel_element" rx="2.5" ry="2.5" style="stroke:#181818;stroke-width:0.5;" width="95" x="527" y="44.2969"/><ellipse cx="544.7" cy="60.2969" fill="#A9DCDF" rx="11" ry="11" style="stroke:#181818;stroke-width:1.0;"/><path d="M544.8094,55.6406 L543.6531,60.7188 L545.9813,60.7188 L544.8094,55.6406 Z M543.325,53.4063 L546.3094,53.4063 L549.6688,65.7969 L547.2156,65.7969 L546.45,62.7344 L543.1688,62.7344 L542.4188,65.7969 L539.9813,65.7969 L543.325,53.4063 Z " fill="#000000"/><text fill="#000000" font-family="sans-serif" font-size="14" font-style="italic" lengthAdjust="spacing" textLength="57" x="559.3" y="65.1436">element</text><line style="stroke:#181818;stroke-width:0.5;" x1="528" x2="621" y1="76.2969" y2="76.2969"/><text fill="#000000" font-family="sans-serif" font-size="14" lengthAdjust="spacing" textLength="83" x="533" y="93.292">el : keyword</text><line style="stroke:#181818;stroke-width:0.5;" x1="528" x2="621" y1="100.5938" y2="100.5938"/></g><!--class overarch_dataModel_choice--><g id="elem_overarch_dataModel_choice"><rect codeLine="17" fill="#F1F1F1" height="64.2969" id="overarch_dataModel_choice" rx="2.5" ry="2.5" style="stroke:#181818;stroke-width:0.5;" width="128" x="355.5" y="790.2969"/><ellipse cx="393" cy="806.2969" fill="#ADD1B2" rx="11" ry="11" style="stroke:#181818;stroke-width:1.0;"/><path d="M395.9688,811.9375 Q395.3906,812.2344 394.75,812.375 Q394.1094,812.5313 393.4063,812.5313 Q390.9063,812.5313 389.5781,810.8906 Q388.2656,809.2344 388.2656,806.1094 Q388.2656,802.9844 389.5781,801.3281 Q390.9063,799.6719 393.4063,799.6719 Q394.1094,799.6719 394.75,799.8281 Q395.4063,799.9844 395.9688,800.2813 L395.9688,803 Q395.3438,802.4219 394.75,802.1563 Q394.1563,801.875 393.5313,801.875 Q392.1875,801.875 391.5,802.9531 Q390.8125,804.0156 390.8125,806.1094 Q390.8125,808.2031 391.5,809.2813 Q392.1875,810.3438 393.5313,810.3438 Q394.1563,810.3438 394.75,810.0781 Q395.3438,809.7969 395.9688,809.2188 L395.9688,811.9375 Z " fill="#000000"/><text fill="#000000" font-family="sans-serif" font-size="14" lengthAdjust="spacing" textLength="46" x="412" y="811.1436">choice</text><line style="stroke:#181818;stroke-width:0.5;" x1="356.5" x2="482.5" y1="822.2969" y2="822.2969"/><text fill="#000000" font-family="sans-serif" font-size="14" lengthAdjust="spacing" textLength="116" x="361.5" y="839.292">condition : string</text><line style="stroke:#181818;stroke-width:0.5;" x1="356.5" x2="482.5" y1="846.5938" y2="846.5938"/></g><!--class overarch_dataModel_deepHistoryState--><g id="elem_overarch_dataModel_deepHistoryState"><rect codeLine="20" fill="#F1F1F1" height="48" id="overarch_dataModel_deepHistoryState" rx="2.5" ry="2.5" style="stroke:#181818;stroke-width:0.5;" width="159" x="519" y="798.2969"/><ellipse cx="534" cy="814.2969" fill="#ADD1B2" rx="11" ry="11" style="stroke:#181818;stroke-width:1.0;"/><path d="M536.9688,819.9375 Q536.3906,820.2344 535.75,820.375 Q535.1094,820.5313 534.4063,820.5313 Q531.9063,820.5313 530.5781,818.8906 Q529.2656,817.2344 529.2656,814.1094 Q529.2656,810.9844 530.5781,809.3281 Q531.9063,807.6719 534.4063,807.6719 Q535.1094,807.6719 535.75,807.8281 Q536.4063,807.9844 536.9688,808.2813 L536.9688,811 Q536.3438,810.4219 535.75,810.1563 Q535.1563,809.875 534.5313,809.875 Q533.1875,809.875 532.5,810.9531 Q531.8125,812.0156 531.8125,814.1094 Q531.8125,816.2031 532.5,817.2813 Q533.1875,818.3438 534.5313,818.3438 Q535.1563,818.3438 535.75,818.0781 Q536.3438,817.7969 536.9688,817.2188 L536.9688,819.9375 Z " fill="#000000"/><text fill="#000000" font-family="sans-serif" font-size="14" lengthAdjust="spacing" textLength="127" x="548" y="819.1436">deep-history-state</text><line style="stroke:#181818;stroke-width:0.5;" x1="520" x2="677" y1="830.2969" y2="830.2969"/><line style="stroke:#181818;stroke-width:0.5;" x1="520" x2="677" y1="838.2969" y2="838.2969"/></g><!--class overarch_dataModel_relation--><g id="elem_overarch_dataModel_relation"><rect codeLine="21" fill="#F1F1F1" height="80.5938" id="overarch_dataModel_relation" rx="2.5" ry="2.5" style="stroke:#181818;stroke-width:0.5;" width="114" x="623.5" y="433.2969"/><ellipse cx="652.45" cy="449.2969" fill="#A9DCDF" rx="11" ry="11" style="stroke:#181818;stroke-width:1.0;"/><path d="M652.5594,444.6406 L651.4031,449.7188 L653.7313,449.7188 L652.5594,444.6406 Z M651.075,442.4063 L654.0594,442.4063 L657.4188,454.7969 L654.9656,454.7969 L654.2,451.7344 L650.9188,451.7344 L650.1688,454.7969 L647.7313,454.7969 L651.075,442.4063 Z " fill="#000000"/><text fill="#000000" font-family="sans-serif" font-size="14" font-style="italic" lengthAdjust="spacing" textLength="51" x="669.55" y="454.1436">relation</text><line style="stroke:#181818;stroke-width:0.5;" x1="624.5" x2="736.5" y1="465.2969" y2="465.2969"/><text fill="#000000" font-family="sans-serif" font-size="14" lengthAdjust="spacing" textLength="102" x="629.5" y="482.292">from : keyword</text><text fill="#000000" font-family="sans-serif" font-size="14" lengthAdjust="spacing" textLength="85" x="629.5" y="498.5889">to : keyword</text><line style="stroke:#181818;stroke-width:0.5;" x1="624.5" x2="736.5" y1="505.8906" y2="505.8906"/></g><!--class overarch_dataModel_state--><g id="elem_overarch_dataModel_state"><rect codeLine="25" fill="#F1F1F1" height="48" id="overarch_dataModel_state" rx="2.5" ry="2.5" style="stroke:#181818;stroke-width:0.5;" width="67" x="7" y="798.2969"/><ellipse cx="22" cy="814.2969" fill="#ADD1B2" rx="11" ry="11" style="stroke:#181818;stroke-width:1.0;"/><path d="M24.9688,819.9375 Q24.3906,820.2344 23.75,820.375 Q23.1094,820.5313 22.4063,820.5313 Q19.9063,820.5313 18.5781,818.8906 Q17.2656,817.2344 17.2656,814.1094 Q17.2656,810.9844 18.5781,809.3281 Q19.9063,807.6719 22.4063,807.6719 Q23.1094,807.6719 23.75,807.8281 Q24.4063,807.9844 24.9688,808.2813 L24.9688,811 Q24.3438,810.4219 23.75,810.1563 Q23.1563,809.875 22.5313,809.875 Q21.1875,809.875 20.5,810.9531 Q19.8125,812.0156 19.8125,814.1094 Q19.8125,816.2031 20.5,817.2813 Q21.1875,818.3438 22.5313,818.3438 Q23.1563,818.3438 23.75,818.0781 Q24.3438,817.7969 24.9688,817.2188 L24.9688,819.9375 Z " fill="#000000"/><text fill="#000000" font-family="sans-serif" font-size="14" lengthAdjust="spacing" textLength="35" x="36" y="819.1436">state</text><line style="stroke:#181818;stroke-width:0.5;" x1="8" x2="73" y1="830.2969" y2="830.2969"/><line style="stroke:#181818;stroke-width:0.5;" x1="8" x2="73" y1="838.2969" y2="838.2969"/></g><!--class overarch_dataModel_namedElement--><g id="elem_overarch_dataModel_namedElement"><rect codeLine="26" fill="#F1F1F1" height="96.8906" id="overarch_dataModel_namedElement" rx="2.5" ry="2.5" style="stroke:#181818;stroke-width:0.5;" width="142" x="408.5" y="168.2969"/><ellipse cx="423.5" cy="184.2969" fill="#A9DCDF" rx="11" ry="11" style="stroke:#181818;stroke-width:1.0;"/><path d="M423.6094,179.6406 L422.4531,184.7188 L424.7813,184.7188 L423.6094,179.6406 Z M422.125,177.4063 L425.1094,177.4063 L428.4688,189.7969 L426.0156,189.7969 L425.25,186.7344 L421.9688,186.7344 L421.2188,189.7969 L418.7813,189.7969 L422.125,177.4063 Z " fill="#000000"/><text fill="#000000" font-family="sans-serif" font-size="14" font-style="italic" lengthAdjust="spacing" textLength="110" x="437.5" y="189.1436">named-element</text><line style="stroke:#181818;stroke-width:0.5;" x1="409.5" x2="549.5" y1="200.2969" y2="200.2969"/><text fill="#000000" font-family="sans-serif" font-size="14" lengthAdjust="spacing" textLength="91" x="414.5" y="217.292">name : string</text><text fill="#000000" font-family="sans-serif" font-size="14" lengthAdjust="spacing" textLength="126" x="414.5" y="233.5889">desc : string [0..1]</text><text fill="#000000" font-family="sans-serif" font-size="14" lengthAdjust="spacing" textLength="118" x="414.5" y="249.8857">doc : string [0..1]</text><line style="stroke:#181818;stroke-width:0.5;" x1="409.5" x2="549.5" y1="257.1875" y2="257.1875"/></g><!--class overarch_dataModel_identifiableElement--><g id="elem_overarch_dataModel_identifiableElement"><rect codeLine="31" fill="#F1F1F1" height="64.2969" id="overarch_dataModel_identifiableElement" rx="2.5" ry="2.5" style="stroke:#181818;stroke-width:0.5;" width="168" x="585.5" y="184.7969"/><ellipse cx="600.5" cy="200.7969" fill="#A9DCDF" rx="11" ry="11" style="stroke:#181818;stroke-width:1.0;"/><path d="M600.6094,196.1406 L599.4531,201.2188 L601.7813,201.2188 L600.6094,196.1406 Z M599.125,193.9063 L602.1094,193.9063 L605.4688,206.2969 L603.0156,206.2969 L602.25,203.2344 L598.9688,203.2344 L598.2188,206.2969 L595.7813,206.2969 L599.125,193.9063 Z " fill="#000000"/><text fill="#000000" font-family="sans-serif" font-size="14" font-style="italic" lengthAdjust="spacing" textLength="136" x="614.5" y="205.6436">identifiable-element</text><line style="stroke:#181818;stroke-width:0.5;" x1="586.5" x2="752.5" y1="216.7969" y2="216.7969"/><text fill="#000000" font-family="sans-serif" font-size="14" lengthAdjust="spacing" textLength="83" x="591.5" y="233.792">id : keyword</text><line style="stroke:#181818;stroke-width:0.5;" x1="586.5" x2="752.5" y1="241.0938" y2="241.0938"/></g><!--class overarch_dataModel_stateMachineModelRelation--><g id="elem_overarch_dataModel_stateMachineModelRelation"><rect codeLine="34" fill="#F1F1F1" height="48" id="overarch_dataModel_stateMachineModelRelation" rx="2.5" ry="2.5" style="stroke:#181818;stroke-width:0.5;" width="234" x="548.5" y="574.2969"/><ellipse cx="563.5" cy="590.2969" fill="#A9DCDF" rx="11" ry="11" style="stroke:#181818;stroke-width:1.0;"/><path d="M563.6094,585.6406 L562.4531,590.7188 L564.7813,590.7188 L563.6094,585.6406 Z M562.125,583.4063 L565.1094,583.4063 L568.4688,595.7969 L566.0156,595.7969 L565.25,592.7344 L561.9688,592.7344 L561.2188,595.7969 L558.7813,595.7969 L562.125,583.4063 Z " fill="#000000"/><text fill="#000000" font-family="sans-serif" font-size="14" font-style="italic" lengthAdjust="spacing" textLength="202" x="577.5" y="595.1436">state-machine-model-relation</text><line style="stroke:#181818;stroke-width:0.5;" x1="549.5" x2="781.5" y1="606.2969" y2="606.2969"/><line style="stroke:#181818;stroke-width:0.5;" x1="549.5" x2="781.5" y1="614.2969" y2="614.2969"/></g><!--class overarch_dataModel_transition--><g id="elem_overarch_dataModel_transition"><rect codeLine="35" fill="#F1F1F1" height="48" id="overarch_dataModel_transition" rx="2.5" ry="2.5" style="stroke:#181818;stroke-width:0.5;" width="96" x="617.5" y="682.2969"/><ellipse cx="632.5" cy="698.2969" fill="#ADD1B2" rx="11" ry="11" style="stroke:#181818;stroke-width:1.0;"/><path d="M635.4688,703.9375 Q634.8906,704.2344 634.25,704.375 Q633.6094,704.5313 632.9063,704.5313 Q630.4063,704.5313 629.0781,702.8906 Q627.7656,701.2344 627.7656,698.1094 Q627.7656,694.9844 629.0781,693.3281 Q630.4063,691.6719 632.9063,691.6719 Q633.6094,691.6719 634.25,691.8281 Q634.9063,691.9844 635.4688,692.2813 L635.4688,695 Q634.8438,694.4219 634.25,694.1563 Q633.6563,693.875 633.0313,693.875 Q631.6875,693.875 631,694.9531 Q630.3125,696.0156 630.3125,698.1094 Q630.3125,700.2031 631,701.2813 Q631.6875,702.3438 633.0313,702.3438 Q633.6563,702.3438 634.25,702.0781 Q634.8438,701.7969 635.4688,701.2188 L635.4688,703.9375 Z " fill="#000000"/><text fill="#000000" font-family="sans-serif" font-size="14" lengthAdjust="spacing" textLength="64" x="646.5" y="703.1436">transition</text><line style="stroke:#181818;stroke-width:0.5;" x1="618.5" x2="712.5" y1="714.2969" y2="714.2969"/><line style="stroke:#181818;stroke-width:0.5;" x1="618.5" x2="712.5" y1="722.2969" y2="722.2969"/></g><!--class overarch_dataModel_join--><g id="elem_overarch_dataModel_join"><rect codeLine="36" fill="#F1F1F1" height="48" id="overarch_dataModel_join" rx="2.5" ry="2.5" style="stroke:#181818;stroke-width:0.5;" width="56" x="712.5" y="798.2969"/><ellipse cx="727.5" cy="814.2969" fill="#ADD1B2" rx="11" ry="11" style="stroke:#181818;stroke-width:1.0;"/><path d="M730.4688,819.9375 Q729.8906,820.2344 729.25,820.375 Q728.6094,820.5313 727.9063,820.5313 Q725.4063,820.5313 724.0781,818.8906 Q722.7656,817.2344 722.7656,814.1094 Q722.7656,810.9844 724.0781,809.3281 Q725.4063,807.6719 727.9063,807.6719 Q728.6094,807.6719 729.25,807.8281 Q729.9063,807.9844 730.4688,808.2813 L730.4688,811 Q729.8438,810.4219 729.25,810.1563 Q728.6563,809.875 728.0313,809.875 Q726.6875,809.875 726,810.9531 Q725.3125,812.0156 725.3125,814.1094 Q725.3125,816.2031 726,817.2813 Q726.6875,818.3438 728.0313,818.3438 Q728.6563,818.3438 729.25,818.0781 Q729.8438,817.7969 730.4688,817.2188 L730.4688,819.9375 Z " fill="#000000"/><text fill="#000000" font-family="sans-serif" font-size="14" lengthAdjust="spacing" textLength="24" x="741.5" y="819.1436">join</text><line style="stroke:#181818;stroke-width:0.5;" x1="713.5" x2="767.5" y1="830.2969" y2="830.2969"/><line style="stroke:#181818;stroke-width:0.5;" x1="713.5" x2="767.5" y1="838.2969" y2="838.2969"/></g><!--class overarch_dataModel_endState--><g id="elem_overarch_dataModel_endState"><rect codeLine="37" fill="#F1F1F1" height="48" id="overarch_dataModel_endState" rx="2.5" ry="2.5" style="stroke:#181818;stroke-width:0.5;" width="99" x="804" y="798.2969"/><ellipse cx="819" cy="814.2969" fill="#ADD1B2" rx="11" ry="11" style="stroke:#181818;stroke-width:1.0;"/><path d="M821.9688,819.9375 Q821.3906,820.2344 820.75,820.375 Q820.1094,820.5313 819.4063,820.5313 Q816.9063,820.5313 815.5781,818.8906 Q814.2656,817.2344 814.2656,814.1094 Q814.2656,810.9844 815.5781,809.3281 Q816.9063,807.6719 819.4063,807.6719 Q820.1094,807.6719 820.75,807.8281 Q821.4063,807.9844 821.9688,808.2813 L821.9688,811 Q821.3438,810.4219 820.75,810.1563 Q820.1563,809.875 819.5313,809.875 Q818.1875,809.875 817.5,810.9531 Q816.8125,812.0156 816.8125,814.1094 Q816.8125,816.2031 817.5,817.2813 Q818.1875,818.3438 819.5313,818.3438 Q820.1563,818.3438 820.75,818.0781 Q821.3438,817.7969 821.9688,817.2188 L821.9688,819.9375 Z " fill="#000000"/><text fill="#000000" font-family="sans-serif" font-size="14" lengthAdjust="spacing" textLength="67" x="833" y="819.1436">end-state</text><line style="stroke:#181818;stroke-width:0.5;" x1="805" x2="902" y1="830.2969" y2="830.2969"/><line style="stroke:#181818;stroke-width:0.5;" x1="805" x2="902" y1="838.2969" y2="838.2969"/></g><!--class overarch_dataModel_stateMachineModelNode--><g id="elem_overarch_dataModel_stateMachineModelNode"><rect codeLine="38" fill="#F1F1F1" height="48" id="overarch_dataModel_stateMachineModelNode" rx="2.5" ry="2.5" style="stroke:#181818;stroke-width:0.5;" width="219" x="310" y="682.2969"/><ellipse cx="325" cy="698.2969" fill="#A9DCDF" rx="11" ry="11" style="stroke:#181818;stroke-width:1.0;"/><path d="M325.1094,693.6406 L323.9531,698.7188 L326.2813,698.7188 L325.1094,693.6406 Z M323.625,691.4063 L326.6094,691.4063 L329.9688,703.7969 L327.5156,703.7969 L326.75,700.7344 L323.4688,700.7344 L322.7188,703.7969 L320.2813,703.7969 L323.625,691.4063 Z " fill="#000000"/><text fill="#000000" font-family="sans-serif" font-size="14" font-style="italic" lengthAdjust="spacing" textLength="187" x="339" y="703.1436">state-machine-model-node</text><line style="stroke:#181818;stroke-width:0.5;" x1="311" x2="528" y1="714.2969" y2="714.2969"/><line style="stroke:#181818;stroke-width:0.5;" x1="311" x2="528" y1="722.2969" y2="722.2969"/></g><!--class overarch_dataModel_startState--><g id="elem_overarch_dataModel_startState"><rect codeLine="39" fill="#F1F1F1" height="48" id="overarch_dataModel_startState" rx="2.5" ry="2.5" style="stroke:#181818;stroke-width:0.5;" width="103" x="938" y="798.2969"/><ellipse cx="953" cy="814.2969" fill="#ADD1B2" rx="11" ry="11" style="stroke:#181818;stroke-width:1.0;"/><path d="M955.9688,819.9375 Q955.3906,820.2344 954.75,820.375 Q954.1094,820.5313 953.4063,820.5313 Q950.9063,820.5313 949.5781,818.8906 Q948.2656,817.2344 948.2656,814.1094 Q948.2656,810.9844 949.5781,809.3281 Q950.9063,807.6719 953.4063,807.6719 Q954.1094,807.6719 954.75,807.8281 Q955.4063,807.9844 955.9688,808.2813 L955.9688,811 Q955.3438,810.4219 954.75,810.1563 Q954.1563,809.875 953.5313,809.875 Q952.1875,809.875 951.5,810.9531 Q950.8125,812.0156 950.8125,814.1094 Q950.8125,816.2031 951.5,817.2813 Q952.1875,818.3438 953.5313,818.3438 Q954.1563,818.3438 954.75,818.0781 Q955.3438,817.7969 955.9688,817.2188 L955.9688,819.9375 Z " fill="#000000"/><text fill="#000000" font-family="sans-serif" font-size="14" lengthAdjust="spacing" textLength="71" x="967" y="819.1436">start-state</text><line style="stroke:#181818;stroke-width:0.5;" x1="939" x2="1040" y1="830.2969" y2="830.2969"/><line style="stroke:#181818;stroke-width:0.5;" x1="939" x2="1040" y1="838.2969" y2="838.2969"/></g><!--reverse link overarch_dataModel_element to overarch_dataModel_identifiableElement--><g id="link_overarch_dataModel_element_overarch_dataModel_identifiableElement"><path codeLine="40" d="M606.0033,123.2194 C621.5433,145.8694 632.33,161.6069 647.92,184.3369 " fill="none" id="overarch_dataModel_element-backto-overarch_dataModel_identifiableElement" style="stroke:#181818;stroke-width:1.0;"/><polygon fill="none" points="595.82,108.3769,601.0558,126.6138,610.9508,119.8249,595.82,108.3769" style="stroke:#181818;stroke-width:1.0;"/></g><!--reverse link overarch_dataModel_element to overarch_dataModel_namedElement--><g id="link_overarch_dataModel_element_overarch_dataModel_namedElement"><path codeLine="41" d="M543,123.2217 C530.91,140.8517 525.71,148.4269 512.13,168.2269 " fill="none" id="overarch_dataModel_element-backto-overarch_dataModel_namedElement" style="stroke:#181818;stroke-width:1.0;"/><polygon fill="none" points="553.18,108.3769,538.0517,119.8283,547.9483,126.615,553.18,108.3769" style="stroke:#181818;stroke-width:1.0;"/></g><!--reverse link overarch_dataModel_identifiableElement to overarch_dataModel_identifiableNamedElement--><g id="link_overarch_dataModel_identifiableElement_overarch_dataModel_identifiableNamedElement"><path codeLine="42" d="M609.1529,259.2481 C575.0129,282.6981 543.87,304.0869 513.04,325.2669 " fill="none" id="overarch_dataModel_identifiableElement-backto-overarch_dataModel_identifiableNamedElement" style="stroke:#181818;stroke-width:1.0;"/><polygon fill="none" points="623.99,249.0569,605.7559,254.3024,612.55,264.1938,623.99,249.0569" style="stroke:#181818;stroke-width:1.0;"/></g><!--reverse link overarch_dataModel_namedElement to overarch_dataModel_identifiableNamedElement--><g id="link_overarch_dataModel_namedElement_overarch_dataModel_identifiableNamedElement"><path codeLine="43" d="M479.5,283.6469 C479.5,303.8769 479.5,308.4969 479.5,324.9569 " fill="none" id="overarch_dataModel_namedElement-backto-overarch_dataModel_identifiableNamedElement" style="stroke:#181818;stroke-width:1.0;"/><polygon fill="none" points="479.5,265.6469,473.5,283.6469,485.5,283.6469,479.5,265.6469" style="stroke:#181818;stroke-width:1.0;"/></g><!--reverse link overarch_dataModel_identifiableElement to overarch_dataModel_relation--><g id="link_overarch_dataModel_identifiableElement_overarch_dataModel_relation"><path codeLine="44" d="M671.6163,266.7901 C673.6163,313.1201 676.6,382.3769 678.79,433.2269 " fill="none" id="overarch_dataModel_identifiableElement-backto-overarch_dataModel_relation" style="stroke:#181818;stroke-width:1.0;"/><polygon fill="none" points="670.84,248.8069,665.6219,267.0489,677.6107,266.5314,670.84,248.8069" style="stroke:#181818;stroke-width:1.0;"/></g><!--reverse link overarch_dataModel_identifiableNamedElement to overarch_dataModel_stateMachineModelElement--><g id="link_overarch_dataModel_identifiableNamedElement_overarch_dataModel_stateMachineModelElement"><path codeLine="45" d="M475.8234,391.265 C473.8734,413.025 472.56,427.5769 470.6,449.4469 " fill="none" id="overarch_dataModel_identifiableNamedElement-backto-overarch_dataModel_stateMachineModelElement" style="stroke:#181818;stroke-width:1.0;"/><polygon fill="none" points="477.43,373.3369,469.8473,390.7295,481.7994,391.8006,477.43,373.3369" style="stroke:#181818;stroke-width:1.0;"/></g><!--reverse link overarch_dataModel_stateMachineModelElement to overarch_dataModel_stateMachineModelNode--><g id="link_overarch_dataModel_stateMachineModelElement_overarch_dataModel_stateMachineModelNode"><path codeLine="46" d="M465.311,515.7435 C462.851,544.9835 458.9,578.9469 448.5,622.2969 C443.55,642.9269 435.43,665.6269 429.03,682.0569 " fill="none" id="overarch_dataModel_stateMachineModelElement-backto-overarch_dataModel_stateMachineModelNode" style="stroke:#181818;stroke-width:1.0;"/><polygon fill="none" points="466.82,497.8069,459.3321,515.2405,471.2898,516.2465,466.82,497.8069" style="stroke:#181818;stroke-width:1.0;"/></g><!--reverse link overarch_dataModel_stateMachineModelElement to overarch_dataModel_stateMachineModelRelation--><g id="link_overarch_dataModel_stateMachineModelElement_overarch_dataModel_stateMachineModelRelation"><path codeLine="47" d="M520.8362,507.3412 C555.9462,529.1712 593.11,552.2869 628.28,574.1469 " fill="none" id="overarch_dataModel_stateMachineModelElement-backto-overarch_dataModel_stateMachineModelRelation" style="stroke:#181818;stroke-width:1.0;"/><polygon fill="none" points="505.55,497.8369,517.6681,512.4366,524.0043,502.2458,505.55,497.8369" style="stroke:#181818;stroke-width:1.0;"/></g><!--reverse link overarch_dataModel_relation to overarch_dataModel_stateMachineModelRelation--><g id="link_overarch_dataModel_relation_overarch_dataModel_stateMachineModelRelation"><path codeLine="48" d="M673.4443,532.4337 C671.0343,552.1337 670.39,557.3669 668.34,574.1369 " fill="none" id="overarch_dataModel_relation-backto-overarch_dataModel_stateMachineModelRelation" style="stroke:#181818;stroke-width:1.0;"/><polygon fill="none" points="675.63,514.5669,667.4887,531.7051,679.3999,533.1623,675.63,514.5669" style="stroke:#181818;stroke-width:1.0;"/></g><!--reverse link overarch_dataModel_stateMachineModelElement to overarch_dataModel_stateMachine--><g id="link_overarch_dataModel_stateMachineModelElement_overarch_dataModel_stateMachine"><path codeLine="49" d="M437.5445,511.6128 C419.2445,533.3728 403.52,552.0769 385.14,573.9469 " fill="none" id="overarch_dataModel_stateMachineModelElement-backto-overarch_dataModel_stateMachine" style="stroke:#181818;stroke-width:1.0;"/><polygon fill="none" points="449.13,497.8369,432.9525,507.751,442.1365,515.4746,449.13,497.8369" style="stroke:#181818;stroke-width:1.0;"/></g><!--link overarch_dataModel_stateMachine to overarch_dataModel_stateMachineModelNode--><g id="link_overarch_dataModel_stateMachine_overarch_dataModel_stateMachineModelNode"><path codeLine="50" d="M382.6639,632.991 C391.6539,650.651 395.8558,658.891 404.8958,676.631 " fill="none" id="overarch_dataModel_stateMachine-overarch_dataModel_stateMachineModelNode" style="stroke:#181818;stroke-width:1.0;"/><polygon fill="#181818" points="377.22,622.2969,376.3773,629.4586,382.6639,632.991,383.5067,625.8293,377.22,622.2969" style="stroke:#181818;stroke-width:1.0;"/><polygon fill="#181818" points="407.62,681.9769,407.0977,672.1419,405.3498,677.5219,399.9698,675.7741,407.62,681.9769" style="stroke:#181818;stroke-width:1.0;"/><text fill="#000000" font-family="sans-serif" font-size="13" lengthAdjust="spacing" textLength="24" x="377.7993" y="671.3038">1..n</text></g><!--reverse link overarch_dataModel_stateMachineModelNode to overarch_dataModel_startState--><g id="link_overarch_dataModel_stateMachineModelNode_overarch_dataModel_startState"><path codeLine="51" d="M546.8769,724.567 C671.5169,741.977 849.18,768.7669 920.5,790.2969 C927.67,792.4569 935.06,795.1969 942.23,798.1469 " fill="none" id="overarch_dataModel_stateMachineModelNode-backto-overarch_dataModel_startState" style="stroke:#181818;stroke-width:1.0;"/><polygon fill="none" points="529.05,722.0769,546.0469,730.5093,547.707,718.6247,529.05,722.0769" style="stroke:#181818;stroke-width:1.0;"/></g><!--reverse link overarch_dataModel_stateMachineModelNode to overarch_dataModel_state--><g id="link_overarch_dataModel_stateMachineModelNode_overarch_dataModel_state"><path codeLine="52" d="M292.1902,726.9867 C222.6702,740.2767 149.93,758.6669 74.5,790.2969 C69.15,792.5369 63.7,795.2869 58.63,798.2069 " fill="none" id="overarch_dataModel_stateMachineModelNode-backto-overarch_dataModel_state" style="stroke:#181818;stroke-width:1.0;"/><polygon fill="none" points="309.87,723.6069,291.0636,721.0934,293.3168,732.88,309.87,723.6069" style="stroke:#181818;stroke-width:1.0;"/></g><!--link overarch_dataModel_state to overarch_dataModel_stateMachineModelNode--><g id="link_overarch_dataModel_state_overarch_dataModel_stateMachineModelNode"><path codeLine="53" d="M84.7852,802.9633 C96.2352,796.6933 97.84,795.1869 109.5,790.2969 C173.96,763.2669 243.5141,744.7439 303.9541,731.2539 " fill="none" id="overarch_dataModel_state-overarch_dataModel_stateMachineModelNode" style="stroke:#181818;stroke-width:1.0;"/><polygon fill="#181818" points="74.26,808.7269,81.4438,809.3535,84.7852,802.9633,77.6014,802.3367,74.26,808.7269" style="stroke:#181818;stroke-width:1.0;"/><polygon fill="#181818" points="309.81,729.9469,300.1548,728.0035,304.9301,731.0361,301.8975,735.8113,309.81,729.9469" style="stroke:#181818;stroke-width:1.0;"/><text fill="#000000" font-family="sans-serif" font-size="13" lengthAdjust="spacing" textLength="24" x="278.0142" y="728.0526">1..n</text></g><!--reverse link overarch_dataModel_stateMachineModelNode to overarch_dataModel_endState--><g id="link_overarch_dataModel_stateMachineModelNode_overarch_dataModel_endState"><path codeLine="54" d="M546.8453,729.1681 C620.6753,743.1581 701.93,761.5269 786.5,790.2969 C793.17,792.5669 800.07,795.2969 806.79,798.1769 " fill="none" id="overarch_dataModel_stateMachineModelNode-backto-overarch_dataModel_endState" style="stroke:#181818;stroke-width:1.0;"/><polygon fill="none" points="529.16,725.8169,545.7282,735.0631,547.9624,723.273,529.16,725.8169" style="stroke:#181818;stroke-width:1.0;"/></g><!--reverse link overarch_dataModel_stateMachineModelNode to overarch_dataModel_fork--><g id="link_overarch_dataModel_stateMachineModelNode_overarch_dataModel_fork"><path codeLine="55" d="M321.1161,735.7674 C274.8561,750.2874 233.68,765.5469 184.5,790.2969 C178.82,793.1569 173.01,796.5969 167.52,800.1369 " fill="none" id="overarch_dataModel_stateMachineModelNode-backto-overarch_dataModel_fork" style="stroke:#181818;stroke-width:1.0;"/><polygon fill="none" points="338.29,730.3769,319.3193,730.0428,322.9129,741.492,338.29,730.3769" style="stroke:#181818;stroke-width:1.0;"/></g><!--reverse link overarch_dataModel_stateMachineModelNode to overarch_dataModel_join--><g id="link_overarch_dataModel_stateMachineModelNode_overarch_dataModel_join"><path codeLine="56" d="M540.7008,734.8663 C593.7008,748.6463 640.92,764.0869 695.5,790.2969 C701.14,793.0069 706.87,796.3769 712.26,799.8969 " fill="none" id="overarch_dataModel_stateMachineModelNode-backto-overarch_dataModel_join" style="stroke:#181818;stroke-width:1.0;"/><polygon fill="none" points="523.28,730.3369,539.191,740.6732,542.2106,729.0593,523.28,730.3369" style="stroke:#181818;stroke-width:1.0;"/></g><!--reverse link overarch_dataModel_stateMachineModelNode to overarch_dataModel_choice--><g id="link_overarch_dataModel_stateMachineModelNode_overarch_dataModel_choice"><path codeLine="57" d="M419.5,748.3669 C419.5,765.5469 419.5,771.1769 419.5,790.0469 " fill="none" id="overarch_dataModel_stateMachineModelNode-backto-overarch_dataModel_choice" style="stroke:#181818;stroke-width:1.0;"/><polygon fill="none" points="419.5,730.3669,413.5,748.3669,425.5,748.3669,419.5,730.3669" style="stroke:#181818;stroke-width:1.0;"/></g><!--reverse link overarch_dataModel_stateMachineModelNode to overarch_dataModel_historyState--><g id="link_overarch_dataModel_stateMachineModelNode_overarch_dataModel_historyState"><path codeLine="58" d="M372.9319,740.8975 C345.5119,760.6775 320.82,778.4969 293.43,798.2569 " fill="none" id="overarch_dataModel_stateMachineModelNode-backto-overarch_dataModel_historyState" style="stroke:#181818;stroke-width:1.0;"/><polygon fill="none" points="387.53,730.3669,369.4217,736.0315,376.4421,745.7636,387.53,730.3669" style="stroke:#181818;stroke-width:1.0;"/></g><!--reverse link overarch_dataModel_stateMachineModelNode to overarch_dataModel_deepHistoryState--><g id="link_overarch_dataModel_stateMachineModelNode_overarch_dataModel_deepHistoryState"><path codeLine="59" d="M470.9027,740.0357 C501.9627,759.8157 531.29,778.4969 562.33,798.2569 " fill="none" id="overarch_dataModel_stateMachineModelNode-backto-overarch_dataModel_deepHistoryState" style="stroke:#181818;stroke-width:1.0;"/><polygon fill="none" points="455.72,730.3669,467.6797,745.0966,474.1256,734.9748,455.72,730.3669" style="stroke:#181818;stroke-width:1.0;"/></g><!--reverse link overarch_dataModel_stateMachineModelRelation to overarch_dataModel_transition--><g id="link_overarch_dataModel_stateMachineModelRelation_overarch_dataModel_transition"><path codeLine="60" d="M665.5,640.2969 C665.5,657.9569 665.5,664.2369 665.5,681.9769 " fill="none" id="overarch_dataModel_stateMachineModelRelation-backto-overarch_dataModel_transition" style="stroke:#181818;stroke-width:1.0;"/><polygon fill="none" points="665.5,622.2969,659.5,640.2969,671.5,640.2969,665.5,622.2969" style="stroke:#181818;stroke-width:1.0;"/></g><!--SRC=[nPPDJmCX48Rl-oicFPgmiLTZl9buiOTwDAQXG2sw2mQ8fb7_kx2VR5kMNNUDbsqACm_l3CE0uIPZy62mON2FoPuB-oifo-0sOpaJHYS9oR3MiDX9zRe0h46-CuKLsMyeDhWmthWv-FokJRNZeRpaXNmAetfDwuktsYXC35GGJktoVCVnDcD8u9nHn4fD8QBliN8ELGoUiZtNHge3AXOFSIgZCYjdb7N2GxdpYKdpWor6F6d7-0YArPu9WDsdAtXbXm-fQD84IVQIas1qvMpXJgIWt70fBCLguEAvXL36tj2WT3dBkqZA5CkmMoZ4gESBMJibSoyk02FFXTahIeUK3AeaqQaUgy0Dj4a2e4oJvZyyNgRfyiaDozFHI6MFg6bV4AUTb0mfqTWUdDJekjcK9kTs4Q5v7wMryDnU90ywk3dFb0dQNsxMODJ95FOxEEIL_NGRcJ8eLcZAD89wpklr5q83T_Wt6Bzaau65D4JIAiBj79KvW6E4rYMTZBaDGh1GZqx6zFF1S5TfVqDUzoIbwREpq2PfZG7X0g4RWCKoJMtlc3MbnIdlqLWTw5bOFPZ_Yh3keDD9xjqtdU9kWEcKybqpdUE__gRJZXz7oQYBDqHjBzaV]--></g></svg>