<?xml version="1.0" encoding="us-ascii" standalone="no"?><svg xmlns="http://www.w3.org/2000/svg" xmlns:xlink="http://www.w3.org/1999/xlink" contentStyleType="text/css" height="854px" preserveAspectRatio="none" style="width:994px;height:854px;background:#FFFFFF;" version="1.1" viewBox="0 0 994 854" width="994px" zoomAndPan="magnify"><defs/><g><text fill="#000000" font-family="sans-serif" font-size="14" font-weight="bold" lengthAdjust="spacing" textLength="217" x="381.75" y="24.5332">State Machine Model Elements</text><!--class overarch_dataModel_element--><g id="elem_overarch_dataModel_element"><rect codeLine="8" fill="#F1F1F1" height="65.6094" id="overarch_dataModel_element" rx="2.5" ry="2.5" style="stroke:#181818;stroke-width:0.5;" width="87" x="509.5" y="45.6094"/><ellipse cx="526.75" cy="61.6094" fill="#A9DCDF" rx="11" ry="11" style="stroke:#181818;stroke-width:1.0;"/><path d="M528.9375,63.375 L524.7969,63.375 L524.375,64.4063 L524.7969,64.4063 Q525.4063,64.4063 525.6719,64.6406 Q525.9375,64.875 525.9375,65.2656 Q525.9375,65.6406 525.6719,65.875 Q525.4063,66.1094 524.7969,66.1094 L522.5,66.1094 Q521.8906,66.1094 521.6406,65.875 Q521.375,65.6406 521.375,65.25 Q521.375,64.875 521.6563,64.6406 Q521.9219,64.3906 522.5469,64.4063 L525.2188,57.75 L524.1094,57.75 Q523.5,57.75 523.2344,57.5156 Q522.9688,57.2813 522.9688,56.8906 Q522.9688,56.5156 523.2344,56.2813 Q523.5,56.0469 524.1094,56.0469 L527.7813,56.0469 L531.1719,64.4063 Q531.7656,64.4063 531.9531,64.5469 Q532.3438,64.8125 532.3438,65.2656 Q532.3438,65.6406 532.0781,65.875 Q531.8281,66.1094 531.2188,66.1094 L528.9219,66.1094 Q528.3125,66.1094 528.0469,65.875 Q527.7813,65.6406 527.7813,65.25 Q527.7813,64.875 528.0469,64.6406 Q528.3125,64.4063 528.9219,64.4063 L529.3438,64.4063 L528.9375,63.375 Z M528.2188,61.6719 L526.8594,58.2969 L525.4844,61.6719 L528.2188,61.6719 Z " fill="#000000"/><text fill="#000000" font-family="sans-serif" font-size="14" font-style="italic" lengthAdjust="spacing" textLength="50" x="541.25" y="67.3379">element</text><line style="stroke:#181818;stroke-width:0.5;" x1="510.5" x2="595.5" y1="77.6094" y2="77.6094"/><text fill="#000000" font-family="sans-serif" font-size="14" lengthAdjust="spacing" textLength="75" x="515.5" y="96.1426">el : keyword</text><line style="stroke:#181818;stroke-width:0.5;" x1="510.5" x2="595.5" y1="103.2188" y2="103.2188"/></g><!--class overarch_dataModel_identifiableElement--><g id="elem_overarch_dataModel_identifiableElement"><rect codeLine="11" fill="#F1F1F1" height="65.6094" id="overarch_dataModel_identifiableElement" rx="2.5" ry="2.5" style="stroke:#181818;stroke-width:0.5;" width="155" x="564.5" y="180.1094"/><ellipse cx="579.5" cy="196.1094" fill="#A9DCDF" rx="11" ry="11" style="stroke:#181818;stroke-width:1.0;"/><path d="M581.6875,197.875 L577.5469,197.875 L577.125,198.9063 L577.5469,198.9063 Q578.1563,198.9063 578.4219,199.1406 Q578.6875,199.375 578.6875,199.7656 Q578.6875,200.1406 578.4219,200.375 Q578.1563,200.6094 577.5469,200.6094 L575.25,200.6094 Q574.6406,200.6094 574.3906,200.375 Q574.125,200.1406 574.125,199.75 Q574.125,199.375 574.4063,199.1406 Q574.6719,198.8906 575.2969,198.9063 L577.9688,192.25 L576.8594,192.25 Q576.25,192.25 575.9844,192.0156 Q575.7188,191.7813 575.7188,191.3906 Q575.7188,191.0156 575.9844,190.7813 Q576.25,190.5469 576.8594,190.5469 L580.5313,190.5469 L583.9219,198.9063 Q584.5156,198.9063 584.7031,199.0469 Q585.0938,199.3125 585.0938,199.7656 Q585.0938,200.1406 584.8281,200.375 Q584.5781,200.6094 583.9688,200.6094 L581.6719,200.6094 Q581.0625,200.6094 580.7969,200.375 Q580.5313,200.1406 580.5313,199.75 Q580.5313,199.375 580.7969,199.1406 Q581.0625,198.9063 581.6719,198.9063 L582.0938,198.9063 L581.6875,197.875 Z M580.9688,196.1719 L579.6094,192.7969 L578.2344,196.1719 L580.9688,196.1719 Z " fill="#000000"/><text fill="#000000" font-family="sans-serif" font-size="14" font-style="italic" lengthAdjust="spacing" textLength="123" x="593.5" y="201.8379">identifiable-element</text><line style="stroke:#181818;stroke-width:0.5;" x1="565.5" x2="718.5" y1="212.1094" y2="212.1094"/><text fill="#000000" font-family="sans-serif" font-size="14" lengthAdjust="spacing" textLength="75" x="570.5" y="230.6426">id : keyword</text><line style="stroke:#181818;stroke-width:0.5;" x1="565.5" x2="718.5" y1="237.7188" y2="237.7188"/></g><!--class overarch_dataModel_namedElement--><g id="elem_overarch_dataModel_namedElement"><rect codeLine="14" fill="#F1F1F1" height="83.2188" id="overarch_dataModel_namedElement" rx="2.5" ry="2.5" style="stroke:#181818;stroke-width:0.5;" width="130" x="399" y="171.6094"/><ellipse cx="414" cy="187.6094" fill="#A9DCDF" rx="11" ry="11" style="stroke:#181818;stroke-width:1.0;"/><path d="M416.1875,189.375 L412.0469,189.375 L411.625,190.4063 L412.0469,190.4063 Q412.6563,190.4063 412.9219,190.6406 Q413.1875,190.875 413.1875,191.2656 Q413.1875,191.6406 412.9219,191.875 Q412.6563,192.1094 412.0469,192.1094 L409.75,192.1094 Q409.1406,192.1094 408.8906,191.875 Q408.625,191.6406 408.625,191.25 Q408.625,190.875 408.9063,190.6406 Q409.1719,190.3906 409.7969,190.4063 L412.4688,183.75 L411.3594,183.75 Q410.75,183.75 410.4844,183.5156 Q410.2188,183.2813 410.2188,182.8906 Q410.2188,182.5156 410.4844,182.2813 Q410.75,182.0469 411.3594,182.0469 L415.0313,182.0469 L418.4219,190.4063 Q419.0156,190.4063 419.2031,190.5469 Q419.5938,190.8125 419.5938,191.2656 Q419.5938,191.6406 419.3281,191.875 Q419.0781,192.1094 418.4688,192.1094 L416.1719,192.1094 Q415.5625,192.1094 415.2969,191.875 Q415.0313,191.6406 415.0313,191.25 Q415.0313,190.875 415.2969,190.6406 Q415.5625,190.4063 416.1719,190.4063 L416.5938,190.4063 L416.1875,189.375 Z M415.4688,187.6719 L414.1094,184.2969 L412.7344,187.6719 L415.4688,187.6719 Z " fill="#000000"/><text fill="#000000" font-family="sans-serif" font-size="14" font-style="italic" lengthAdjust="spacing" textLength="98" x="428" y="193.3379">named-element</text><line style="stroke:#181818;stroke-width:0.5;" x1="400" x2="528" y1="203.6094" y2="203.6094"/><text fill="#000000" font-family="sans-serif" font-size="14" lengthAdjust="spacing" textLength="82" x="405" y="222.1426">name : string</text><text fill="#000000" font-family="sans-serif" font-size="14" lengthAdjust="spacing" textLength="113" x="405" y="239.752">desc : string [0..1]</text><line style="stroke:#181818;stroke-width:0.5;" x1="400" x2="528" y1="246.8281" y2="246.8281"/></g><!--class overarch_dataModel_identifiableNamedElement--><g id="elem_overarch_dataModel_identifiableNamedElement"><rect codeLine="18" fill="#F1F1F1" height="48" id="overarch_dataModel_identifiableNamedElement" rx="2.5" ry="2.5" style="stroke:#181818;stroke-width:0.5;" width="203" x="362.5" y="314.6094"/><ellipse cx="377.5" cy="330.6094" fill="#A9DCDF" rx="11" ry="11" style="stroke:#181818;stroke-width:1.0;"/><path d="M379.6875,332.375 L375.5469,332.375 L375.125,333.4063 L375.5469,333.4063 Q376.1563,333.4063 376.4219,333.6406 Q376.6875,333.875 376.6875,334.2656 Q376.6875,334.6406 376.4219,334.875 Q376.1563,335.1094 375.5469,335.1094 L373.25,335.1094 Q372.6406,335.1094 372.3906,334.875 Q372.125,334.6406 372.125,334.25 Q372.125,333.875 372.4063,333.6406 Q372.6719,333.3906 373.2969,333.4063 L375.9688,326.75 L374.8594,326.75 Q374.25,326.75 373.9844,326.5156 Q373.7188,326.2813 373.7188,325.8906 Q373.7188,325.5156 373.9844,325.2813 Q374.25,325.0469 374.8594,325.0469 L378.5313,325.0469 L381.9219,333.4063 Q382.5156,333.4063 382.7031,333.5469 Q383.0938,333.8125 383.0938,334.2656 Q383.0938,334.6406 382.8281,334.875 Q382.5781,335.1094 381.9688,335.1094 L379.6719,335.1094 Q379.0625,335.1094 378.7969,334.875 Q378.5313,334.6406 378.5313,334.25 Q378.5313,333.875 378.7969,333.6406 Q379.0625,333.4063 379.6719,333.4063 L380.0938,333.4063 L379.6875,332.375 Z M378.9688,330.6719 L377.6094,327.2969 L376.2344,330.6719 L378.9688,330.6719 Z " fill="#000000"/><text fill="#000000" font-family="sans-serif" font-size="14" font-style="italic" lengthAdjust="spacing" textLength="171" x="391.5" y="336.3379">identifiable-named-element</text><line style="stroke:#181818;stroke-width:0.5;" x1="363.5" x2="564.5" y1="346.6094" y2="346.6094"/><line style="stroke:#181818;stroke-width:0.5;" x1="363.5" x2="564.5" y1="354.6094" y2="354.6094"/></g><!--class overarch_dataModel_relationalElement--><g id="elem_overarch_dataModel_relationalElement"><rect codeLine="19" fill="#F1F1F1" height="83.2188" id="overarch_dataModel_relationalElement" rx="2.5" ry="2.5" style="stroke:#181818;stroke-width:0.5;" width="145" x="589.5" y="422.6094"/><ellipse cx="604.5" cy="438.6094" fill="#A9DCDF" rx="11" ry="11" style="stroke:#181818;stroke-width:1.0;"/><path d="M606.6875,440.375 L602.5469,440.375 L602.125,441.4063 L602.5469,441.4063 Q603.1563,441.4063 603.4219,441.6406 Q603.6875,441.875 603.6875,442.2656 Q603.6875,442.6406 603.4219,442.875 Q603.1563,443.1094 602.5469,443.1094 L600.25,443.1094 Q599.6406,443.1094 599.3906,442.875 Q599.125,442.6406 599.125,442.25 Q599.125,441.875 599.4063,441.6406 Q599.6719,441.3906 600.2969,441.4063 L602.9688,434.75 L601.8594,434.75 Q601.25,434.75 600.9844,434.5156 Q600.7188,434.2813 600.7188,433.8906 Q600.7188,433.5156 600.9844,433.2813 Q601.25,433.0469 601.8594,433.0469 L605.5313,433.0469 L608.9219,441.4063 Q609.5156,441.4063 609.7031,441.5469 Q610.0938,441.8125 610.0938,442.2656 Q610.0938,442.6406 609.8281,442.875 Q609.5781,443.1094 608.9688,443.1094 L606.6719,443.1094 Q606.0625,443.1094 605.7969,442.875 Q605.5313,442.6406 605.5313,442.25 Q605.5313,441.875 605.7969,441.6406 Q606.0625,441.4063 606.6719,441.4063 L607.0938,441.4063 L606.6875,440.375 Z M605.9688,438.6719 L604.6094,435.2969 L603.2344,438.6719 L605.9688,438.6719 Z " fill="#000000"/><text fill="#000000" font-family="sans-serif" font-size="14" font-style="italic" lengthAdjust="spacing" textLength="113" x="618.5" y="444.3379">relational-element</text><line style="stroke:#181818;stroke-width:0.5;" x1="590.5" x2="733.5" y1="454.6094" y2="454.6094"/><text fill="#000000" font-family="sans-serif" font-size="14" lengthAdjust="spacing" textLength="92" x="595.5" y="473.1426">from : keyword</text><text fill="#000000" font-family="sans-serif" font-size="14" lengthAdjust="spacing" textLength="76" x="595.5" y="490.752">to : keyword</text><line style="stroke:#181818;stroke-width:0.5;" x1="590.5" x2="733.5" y1="497.8281" y2="497.8281"/></g><!--class overarch_dataModel_stateMachineModelElement--><g id="elem_overarch_dataModel_stateMachineModelElement"><rect codeLine="23" fill="#F1F1F1" height="48" id="overarch_dataModel_stateMachineModelElement" rx="2.5" ry="2.5" style="stroke:#181818;stroke-width:0.5;" width="219" x="335.5" y="440.1094"/><ellipse cx="350.5" cy="456.1094" fill="#A9DCDF" rx="11" ry="11" style="stroke:#181818;stroke-width:1.0;"/><path d="M352.6875,457.875 L348.5469,457.875 L348.125,458.9063 L348.5469,458.9063 Q349.1563,458.9063 349.4219,459.1406 Q349.6875,459.375 349.6875,459.7656 Q349.6875,460.1406 349.4219,460.375 Q349.1563,460.6094 348.5469,460.6094 L346.25,460.6094 Q345.6406,460.6094 345.3906,460.375 Q345.125,460.1406 345.125,459.75 Q345.125,459.375 345.4063,459.1406 Q345.6719,458.8906 346.2969,458.9063 L348.9688,452.25 L347.8594,452.25 Q347.25,452.25 346.9844,452.0156 Q346.7188,451.7813 346.7188,451.3906 Q346.7188,451.0156 346.9844,450.7813 Q347.25,450.5469 347.8594,450.5469 L351.5313,450.5469 L354.9219,458.9063 Q355.5156,458.9063 355.7031,459.0469 Q356.0938,459.3125 356.0938,459.7656 Q356.0938,460.1406 355.8281,460.375 Q355.5781,460.6094 354.9688,460.6094 L352.6719,460.6094 Q352.0625,460.6094 351.7969,460.375 Q351.5313,460.1406 351.5313,459.75 Q351.5313,459.375 351.7969,459.1406 Q352.0625,458.9063 352.6719,458.9063 L353.0938,458.9063 L352.6875,457.875 Z M351.9688,456.1719 L350.6094,452.7969 L349.2344,456.1719 L351.9688,456.1719 Z " fill="#000000"/><text fill="#000000" font-family="sans-serif" font-size="14" font-style="italic" lengthAdjust="spacing" textLength="187" x="364.5" y="461.8379">state-machine-model-element</text><line style="stroke:#181818;stroke-width:0.5;" x1="336.5" x2="553.5" y1="472.1094" y2="472.1094"/><line style="stroke:#181818;stroke-width:0.5;" x1="336.5" x2="553.5" y1="480.1094" y2="480.1094"/></g><!--class overarch_dataModel_stateMachineModelNode--><g id="elem_overarch_dataModel_stateMachineModelNode"><rect codeLine="24" fill="#F1F1F1" height="48" id="overarch_dataModel_stateMachineModelNode" rx="2.5" ry="2.5" style="stroke:#181818;stroke-width:0.5;" width="201" x="291.5" y="673.6094"/><ellipse cx="306.5" cy="689.6094" fill="#A9DCDF" rx="11" ry="11" style="stroke:#181818;stroke-width:1.0;"/><path d="M308.6875,691.375 L304.5469,691.375 L304.125,692.4063 L304.5469,692.4063 Q305.1563,692.4063 305.4219,692.6406 Q305.6875,692.875 305.6875,693.2656 Q305.6875,693.6406 305.4219,693.875 Q305.1563,694.1094 304.5469,694.1094 L302.25,694.1094 Q301.6406,694.1094 301.3906,693.875 Q301.125,693.6406 301.125,693.25 Q301.125,692.875 301.4063,692.6406 Q301.6719,692.3906 302.2969,692.4063 L304.9688,685.75 L303.8594,685.75 Q303.25,685.75 302.9844,685.5156 Q302.7188,685.2813 302.7188,684.8906 Q302.7188,684.5156 302.9844,684.2813 Q303.25,684.0469 303.8594,684.0469 L307.5313,684.0469 L310.9219,692.4063 Q311.5156,692.4063 311.7031,692.5469 Q312.0938,692.8125 312.0938,693.2656 Q312.0938,693.6406 311.8281,693.875 Q311.5781,694.1094 310.9688,694.1094 L308.6719,694.1094 Q308.0625,694.1094 307.7969,693.875 Q307.5313,693.6406 307.5313,693.25 Q307.5313,692.875 307.7969,692.6406 Q308.0625,692.4063 308.6719,692.4063 L309.0938,692.4063 L308.6875,691.375 Z M307.9688,689.6719 L306.6094,686.2969 L305.2344,689.6719 L307.9688,689.6719 Z " fill="#000000"/><text fill="#000000" font-family="sans-serif" font-size="14" font-style="italic" lengthAdjust="spacing" textLength="169" x="320.5" y="695.3379">state-machine-model-node</text><line style="stroke:#181818;stroke-width:0.5;" x1="292.5" x2="491.5" y1="705.6094" y2="705.6094"/><line style="stroke:#181818;stroke-width:0.5;" x1="292.5" x2="491.5" y1="713.6094" y2="713.6094"/></g><!--class overarch_dataModel_stateMachineModelRelation--><g id="elem_overarch_dataModel_stateMachineModelRelation"><rect codeLine="25" fill="#F1F1F1" height="48" id="overarch_dataModel_stateMachineModelRelation" rx="2.5" ry="2.5" style="stroke:#181818;stroke-width:0.5;" width="216" x="551" y="565.6094"/><ellipse cx="566" cy="581.6094" fill="#A9DCDF" rx="11" ry="11" style="stroke:#181818;stroke-width:1.0;"/><path d="M568.1875,583.375 L564.0469,583.375 L563.625,584.4063 L564.0469,584.4063 Q564.6563,584.4063 564.9219,584.6406 Q565.1875,584.875 565.1875,585.2656 Q565.1875,585.6406 564.9219,585.875 Q564.6563,586.1094 564.0469,586.1094 L561.75,586.1094 Q561.1406,586.1094 560.8906,585.875 Q560.625,585.6406 560.625,585.25 Q560.625,584.875 560.9063,584.6406 Q561.1719,584.3906 561.7969,584.4063 L564.4688,577.75 L563.3594,577.75 Q562.75,577.75 562.4844,577.5156 Q562.2188,577.2813 562.2188,576.8906 Q562.2188,576.5156 562.4844,576.2813 Q562.75,576.0469 563.3594,576.0469 L567.0313,576.0469 L570.4219,584.4063 Q571.0156,584.4063 571.2031,584.5469 Q571.5938,584.8125 571.5938,585.2656 Q571.5938,585.6406 571.3281,585.875 Q571.0781,586.1094 570.4688,586.1094 L568.1719,586.1094 Q567.5625,586.1094 567.2969,585.875 Q567.0313,585.6406 567.0313,585.25 Q567.0313,584.875 567.2969,584.6406 Q567.5625,584.4063 568.1719,584.4063 L568.5938,584.4063 L568.1875,583.375 Z M567.4688,581.6719 L566.1094,578.2969 L564.7344,581.6719 L567.4688,581.6719 Z " fill="#000000"/><text fill="#000000" font-family="sans-serif" font-size="14" font-style="italic" lengthAdjust="spacing" textLength="184" x="580" y="587.3379">state-machine-model-relation</text><line style="stroke:#181818;stroke-width:0.5;" x1="552" x2="766" y1="597.6094" y2="597.6094"/><line style="stroke:#181818;stroke-width:0.5;" x1="552" x2="766" y1="605.6094" y2="605.6094"/></g><!--class overarch_dataModel_stateMachine--><g id="elem_overarch_dataModel_stateMachine"><rect codeLine="26" fill="#F1F1F1" height="48" id="overarch_dataModel_stateMachine" rx="2.5" ry="2.5" style="stroke:#181818;stroke-width:0.5;" width="121" x="388.5" y="565.6094"/><ellipse cx="403.5" cy="581.6094" fill="#ADD1B2" rx="11" ry="11" style="stroke:#181818;stroke-width:1.0;"/><path d="M406.2656,577.4844 Q406.4219,577.2656 406.6094,577.1563 Q406.7969,577.0469 407.0156,577.0469 Q407.3906,577.0469 407.625,577.3125 Q407.8594,577.5625 407.8594,578.1719 L407.8594,579.625 Q407.8594,580.2344 407.625,580.5 Q407.3906,580.7656 407.0156,580.7656 Q406.6719,580.7656 406.4688,580.5625 Q406.2656,580.375 406.1563,579.8594 Q406.1094,579.5 405.9219,579.3125 Q405.5938,578.9375 404.9844,578.7188 Q404.375,578.5 403.75,578.5 Q402.9844,578.5 402.3438,578.8281 Q401.7188,579.1563 401.2188,579.9063 Q400.7344,580.6563 400.7344,581.6875 L400.7344,582.7813 Q400.7344,584.0156 401.625,584.8438 Q402.5156,585.6563 404.1094,585.6563 Q405.0469,585.6563 405.7031,585.4063 Q406.0938,585.25 406.5156,584.8125 Q406.7813,584.5469 406.9219,584.4688 Q407.0781,584.3906 407.2813,584.3906 Q407.6094,584.3906 407.8594,584.6563 Q408.125,584.9063 408.125,585.25 Q408.125,585.5938 407.7813,586 Q407.2813,586.5781 406.4844,586.9063 Q405.4063,587.3594 404.1094,587.3594 Q402.5938,587.3594 401.3906,586.7344 Q400.4063,586.2344 399.7188,585.1719 Q399.0313,584.0938 399.0313,582.8125 L399.0313,581.6563 Q399.0313,580.3281 399.6406,579.1875 Q400.2656,578.0313 401.3594,577.4219 Q402.4531,576.7969 403.6875,576.7969 Q404.4219,576.7969 405.0625,576.9688 Q405.7188,577.125 406.2656,577.4844 Z " fill="#000000"/><text fill="#000000" font-family="sans-serif" font-size="14" lengthAdjust="spacing" textLength="89" x="417.5" y="587.3379">state-machine</text><line style="stroke:#181818;stroke-width:0.5;" x1="389.5" x2="508.5" y1="597.6094" y2="597.6094"/><line style="stroke:#181818;stroke-width:0.5;" x1="389.5" x2="508.5" y1="605.6094" y2="605.6094"/></g><!--class overarch_dataModel_startState--><g id="elem_overarch_dataModel_startState"><rect codeLine="27" fill="#F1F1F1" height="48" id="overarch_dataModel_startState" rx="2.5" ry="2.5" style="stroke:#181818;stroke-width:0.5;" width="96" x="7" y="790.6094"/><ellipse cx="22" cy="806.6094" fill="#ADD1B2" rx="11" ry="11" style="stroke:#181818;stroke-width:1.0;"/><path d="M24.7656,802.4844 Q24.9219,802.2656 25.1094,802.1563 Q25.2969,802.0469 25.5156,802.0469 Q25.8906,802.0469 26.125,802.3125 Q26.3594,802.5625 26.3594,803.1719 L26.3594,804.625 Q26.3594,805.2344 26.125,805.5 Q25.8906,805.7656 25.5156,805.7656 Q25.1719,805.7656 24.9688,805.5625 Q24.7656,805.375 24.6563,804.8594 Q24.6094,804.5 24.4219,804.3125 Q24.0938,803.9375 23.4844,803.7188 Q22.875,803.5 22.25,803.5 Q21.4844,803.5 20.8438,803.8281 Q20.2188,804.1563 19.7188,804.9063 Q19.2344,805.6563 19.2344,806.6875 L19.2344,807.7813 Q19.2344,809.0156 20.125,809.8438 Q21.0156,810.6563 22.6094,810.6563 Q23.5469,810.6563 24.2031,810.4063 Q24.5938,810.25 25.0156,809.8125 Q25.2813,809.5469 25.4219,809.4688 Q25.5781,809.3906 25.7813,809.3906 Q26.1094,809.3906 26.3594,809.6563 Q26.625,809.9063 26.625,810.25 Q26.625,810.5938 26.2813,811 Q25.7813,811.5781 24.9844,811.9063 Q23.9063,812.3594 22.6094,812.3594 Q21.0938,812.3594 19.8906,811.7344 Q18.9063,811.2344 18.2188,810.1719 Q17.5313,809.0938 17.5313,807.8125 L17.5313,806.6563 Q17.5313,805.3281 18.1406,804.1875 Q18.7656,803.0313 19.8594,802.4219 Q20.9531,801.7969 22.1875,801.7969 Q22.9219,801.7969 23.5625,801.9688 Q24.2188,802.125 24.7656,802.4844 Z " fill="#000000"/><text fill="#000000" font-family="sans-serif" font-size="14" lengthAdjust="spacing" textLength="64" x="36" y="812.3379">start-state</text><line style="stroke:#181818;stroke-width:0.5;" x1="8" x2="102" y1="822.6094" y2="822.6094"/><line style="stroke:#181818;stroke-width:0.5;" x1="8" x2="102" y1="830.6094" y2="830.6094"/></g><!--class overarch_dataModel_state--><g id="elem_overarch_dataModel_state"><rect codeLine="28" fill="#F1F1F1" height="48" id="overarch_dataModel_state" rx="2.5" ry="2.5" style="stroke:#181818;stroke-width:0.5;" width="63" x="138.5" y="790.6094"/><ellipse cx="153.5" cy="806.6094" fill="#ADD1B2" rx="11" ry="11" style="stroke:#181818;stroke-width:1.0;"/><path d="M156.2656,802.4844 Q156.4219,802.2656 156.6094,802.1563 Q156.7969,802.0469 157.0156,802.0469 Q157.3906,802.0469 157.625,802.3125 Q157.8594,802.5625 157.8594,803.1719 L157.8594,804.625 Q157.8594,805.2344 157.625,805.5 Q157.3906,805.7656 157.0156,805.7656 Q156.6719,805.7656 156.4688,805.5625 Q156.2656,805.375 156.1563,804.8594 Q156.1094,804.5 155.9219,804.3125 Q155.5938,803.9375 154.9844,803.7188 Q154.375,803.5 153.75,803.5 Q152.9844,803.5 152.3438,803.8281 Q151.7188,804.1563 151.2188,804.9063 Q150.7344,805.6563 150.7344,806.6875 L150.7344,807.7813 Q150.7344,809.0156 151.625,809.8438 Q152.5156,810.6563 154.1094,810.6563 Q155.0469,810.6563 155.7031,810.4063 Q156.0938,810.25 156.5156,809.8125 Q156.7813,809.5469 156.9219,809.4688 Q157.0781,809.3906 157.2813,809.3906 Q157.6094,809.3906 157.8594,809.6563 Q158.125,809.9063 158.125,810.25 Q158.125,810.5938 157.7813,811 Q157.2813,811.5781 156.4844,811.9063 Q155.4063,812.3594 154.1094,812.3594 Q152.5938,812.3594 151.3906,811.7344 Q150.4063,811.2344 149.7188,810.1719 Q149.0313,809.0938 149.0313,807.8125 L149.0313,806.6563 Q149.0313,805.3281 149.6406,804.1875 Q150.2656,803.0313 151.3594,802.4219 Q152.4531,801.7969 153.6875,801.7969 Q154.4219,801.7969 155.0625,801.9688 Q155.7188,802.125 156.2656,802.4844 Z " fill="#000000"/><text fill="#000000" font-family="sans-serif" font-size="14" lengthAdjust="spacing" textLength="31" x="167.5" y="812.3379">state</text><line style="stroke:#181818;stroke-width:0.5;" x1="139.5" x2="200.5" y1="822.6094" y2="822.6094"/><line style="stroke:#181818;stroke-width:0.5;" x1="139.5" x2="200.5" y1="830.6094" y2="830.6094"/></g><!--class overarch_dataModel_endState--><g id="elem_overarch_dataModel_endState"><rect codeLine="29" fill="#F1F1F1" height="48" id="overarch_dataModel_endState" rx="2.5" ry="2.5" style="stroke:#181818;stroke-width:0.5;" width="92" x="237" y="790.6094"/><ellipse cx="252" cy="806.6094" fill="#ADD1B2" rx="11" ry="11" style="stroke:#181818;stroke-width:1.0;"/><path d="M254.7656,802.4844 Q254.9219,802.2656 255.1094,802.1563 Q255.2969,802.0469 255.5156,802.0469 Q255.8906,802.0469 256.125,802.3125 Q256.3594,802.5625 256.3594,803.1719 L256.3594,804.625 Q256.3594,805.2344 256.125,805.5 Q255.8906,805.7656 255.5156,805.7656 Q255.1719,805.7656 254.9688,805.5625 Q254.7656,805.375 254.6563,804.8594 Q254.6094,804.5 254.4219,804.3125 Q254.0938,803.9375 253.4844,803.7188 Q252.875,803.5 252.25,803.5 Q251.4844,803.5 250.8438,803.8281 Q250.2188,804.1563 249.7188,804.9063 Q249.2344,805.6563 249.2344,806.6875 L249.2344,807.7813 Q249.2344,809.0156 250.125,809.8438 Q251.0156,810.6563 252.6094,810.6563 Q253.5469,810.6563 254.2031,810.4063 Q254.5938,810.25 255.0156,809.8125 Q255.2813,809.5469 255.4219,809.4688 Q255.5781,809.3906 255.7813,809.3906 Q256.1094,809.3906 256.3594,809.6563 Q256.625,809.9063 256.625,810.25 Q256.625,810.5938 256.2813,811 Q255.7813,811.5781 254.9844,811.9063 Q253.9063,812.3594 252.6094,812.3594 Q251.0938,812.3594 249.8906,811.7344 Q248.9063,811.2344 248.2188,810.1719 Q247.5313,809.0938 247.5313,807.8125 L247.5313,806.6563 Q247.5313,805.3281 248.1406,804.1875 Q248.7656,803.0313 249.8594,802.4219 Q250.9531,801.7969 252.1875,801.7969 Q252.9219,801.7969 253.5625,801.9688 Q254.2188,802.125 254.7656,802.4844 Z " fill="#000000"/><text fill="#000000" font-family="sans-serif" font-size="14" lengthAdjust="spacing" textLength="60" x="266" y="812.3379">end-state</text><line style="stroke:#181818;stroke-width:0.5;" x1="238" x2="328" y1="822.6094" y2="822.6094"/><line style="stroke:#181818;stroke-width:0.5;" x1="238" x2="328" y1="830.6094" y2="830.6094"/></g><!--class overarch_dataModel_fork--><g id="elem_overarch_dataModel_fork"><rect codeLine="30" fill="#F1F1F1" height="48" id="overarch_dataModel_fork" rx="2.5" ry="2.5" style="stroke:#181818;stroke-width:0.5;" width="56" x="364" y="790.6094"/><ellipse cx="379" cy="806.6094" fill="#ADD1B2" rx="11" ry="11" style="stroke:#181818;stroke-width:1.0;"/><path d="M381.7656,802.4844 Q381.9219,802.2656 382.1094,802.1563 Q382.2969,802.0469 382.5156,802.0469 Q382.8906,802.0469 383.125,802.3125 Q383.3594,802.5625 383.3594,803.1719 L383.3594,804.625 Q383.3594,805.2344 383.125,805.5 Q382.8906,805.7656 382.5156,805.7656 Q382.1719,805.7656 381.9688,805.5625 Q381.7656,805.375 381.6563,804.8594 Q381.6094,804.5 381.4219,804.3125 Q381.0938,803.9375 380.4844,803.7188 Q379.875,803.5 379.25,803.5 Q378.4844,803.5 377.8438,803.8281 Q377.2188,804.1563 376.7188,804.9063 Q376.2344,805.6563 376.2344,806.6875 L376.2344,807.7813 Q376.2344,809.0156 377.125,809.8438 Q378.0156,810.6563 379.6094,810.6563 Q380.5469,810.6563 381.2031,810.4063 Q381.5938,810.25 382.0156,809.8125 Q382.2813,809.5469 382.4219,809.4688 Q382.5781,809.3906 382.7813,809.3906 Q383.1094,809.3906 383.3594,809.6563 Q383.625,809.9063 383.625,810.25 Q383.625,810.5938 383.2813,811 Q382.7813,811.5781 381.9844,811.9063 Q380.9063,812.3594 379.6094,812.3594 Q378.0938,812.3594 376.8906,811.7344 Q375.9063,811.2344 375.2188,810.1719 Q374.5313,809.0938 374.5313,807.8125 L374.5313,806.6563 Q374.5313,805.3281 375.1406,804.1875 Q375.7656,803.0313 376.8594,802.4219 Q377.9531,801.7969 379.1875,801.7969 Q379.9219,801.7969 380.5625,801.9688 Q381.2188,802.125 381.7656,802.4844 Z " fill="#000000"/><text fill="#000000" font-family="sans-serif" font-size="14" lengthAdjust="spacing" textLength="24" x="393" y="812.3379">fork</text><line style="stroke:#181818;stroke-width:0.5;" x1="365" x2="419" y1="822.6094" y2="822.6094"/><line style="stroke:#181818;stroke-width:0.5;" x1="365" x2="419" y1="830.6094" y2="830.6094"/></g><!--class overarch_dataModel_join--><g id="elem_overarch_dataModel_join"><rect codeLine="31" fill="#F1F1F1" height="48" id="overarch_dataModel_join" rx="2.5" ry="2.5" style="stroke:#181818;stroke-width:0.5;" width="54" x="455" y="790.6094"/><ellipse cx="470" cy="806.6094" fill="#ADD1B2" rx="11" ry="11" style="stroke:#181818;stroke-width:1.0;"/><path d="M472.7656,802.4844 Q472.9219,802.2656 473.1094,802.1563 Q473.2969,802.0469 473.5156,802.0469 Q473.8906,802.0469 474.125,802.3125 Q474.3594,802.5625 474.3594,803.1719 L474.3594,804.625 Q474.3594,805.2344 474.125,805.5 Q473.8906,805.7656 473.5156,805.7656 Q473.1719,805.7656 472.9688,805.5625 Q472.7656,805.375 472.6563,804.8594 Q472.6094,804.5 472.4219,804.3125 Q472.0938,803.9375 471.4844,803.7188 Q470.875,803.5 470.25,803.5 Q469.4844,803.5 468.8438,803.8281 Q468.2188,804.1563 467.7188,804.9063 Q467.2344,805.6563 467.2344,806.6875 L467.2344,807.7813 Q467.2344,809.0156 468.125,809.8438 Q469.0156,810.6563 470.6094,810.6563 Q471.5469,810.6563 472.2031,810.4063 Q472.5938,810.25 473.0156,809.8125 Q473.2813,809.5469 473.4219,809.4688 Q473.5781,809.3906 473.7813,809.3906 Q474.1094,809.3906 474.3594,809.6563 Q474.625,809.9063 474.625,810.25 Q474.625,810.5938 474.2813,811 Q473.7813,811.5781 472.9844,811.9063 Q471.9063,812.3594 470.6094,812.3594 Q469.0938,812.3594 467.8906,811.7344 Q466.9063,811.2344 466.2188,810.1719 Q465.5313,809.0938 465.5313,807.8125 L465.5313,806.6563 Q465.5313,805.3281 466.1406,804.1875 Q466.7656,803.0313 467.8594,802.4219 Q468.9531,801.7969 470.1875,801.7969 Q470.9219,801.7969 471.5625,801.9688 Q472.2188,802.125 472.7656,802.4844 Z " fill="#000000"/><text fill="#000000" font-family="sans-serif" font-size="14" lengthAdjust="spacing" textLength="22" x="484" y="812.3379">join</text><line style="stroke:#181818;stroke-width:0.5;" x1="456" x2="508" y1="822.6094" y2="822.6094"/><line style="stroke:#181818;stroke-width:0.5;" x1="456" x2="508" y1="830.6094" y2="830.6094"/></g><!--class overarch_dataModel_choice--><g id="elem_overarch_dataModel_choice"><rect codeLine="32" fill="#F1F1F1" height="65.6094" id="overarch_dataModel_choice" rx="2.5" ry="2.5" style="stroke:#181818;stroke-width:0.5;" width="116" x="544" y="781.6094"/><ellipse cx="578.35" cy="797.6094" fill="#ADD1B2" rx="11" ry="11" style="stroke:#181818;stroke-width:1.0;"/><path d="M581.1156,793.4844 Q581.2719,793.2656 581.4594,793.1563 Q581.6469,793.0469 581.8656,793.0469 Q582.2406,793.0469 582.475,793.3125 Q582.7094,793.5625 582.7094,794.1719 L582.7094,795.625 Q582.7094,796.2344 582.475,796.5 Q582.2406,796.7656 581.8656,796.7656 Q581.5219,796.7656 581.3188,796.5625 Q581.1156,796.375 581.0063,795.8594 Q580.9594,795.5 580.7719,795.3125 Q580.4438,794.9375 579.8344,794.7188 Q579.225,794.5 578.6,794.5 Q577.8344,794.5 577.1938,794.8281 Q576.5688,795.1563 576.0688,795.9063 Q575.5844,796.6563 575.5844,797.6875 L575.5844,798.7813 Q575.5844,800.0156 576.475,800.8438 Q577.3656,801.6563 578.9594,801.6563 Q579.8969,801.6563 580.5531,801.4063 Q580.9438,801.25 581.3656,800.8125 Q581.6313,800.5469 581.7719,800.4688 Q581.9281,800.3906 582.1313,800.3906 Q582.4594,800.3906 582.7094,800.6563 Q582.975,800.9063 582.975,801.25 Q582.975,801.5938 582.6313,802 Q582.1313,802.5781 581.3344,802.9063 Q580.2563,803.3594 578.9594,803.3594 Q577.4438,803.3594 576.2406,802.7344 Q575.2563,802.2344 574.5688,801.1719 Q573.8813,800.0938 573.8813,798.8125 L573.8813,797.6563 Q573.8813,796.3281 574.4906,795.1875 Q575.1156,794.0313 576.2094,793.4219 Q577.3031,792.7969 578.5375,792.7969 Q579.2719,792.7969 579.9125,792.9688 Q580.5688,793.125 581.1156,793.4844 Z " fill="#000000"/><text fill="#000000" font-family="sans-serif" font-size="14" lengthAdjust="spacing" textLength="41" x="596.65" y="803.3379">choice</text><line style="stroke:#181818;stroke-width:0.5;" x1="545" x2="659" y1="813.6094" y2="813.6094"/><text fill="#000000" font-family="sans-serif" font-size="14" lengthAdjust="spacing" textLength="104" x="550" y="832.1426">condition : string</text><line style="stroke:#181818;stroke-width:0.5;" x1="545" x2="659" y1="839.2188" y2="839.2188"/></g><!--class overarch_dataModel_historyState--><g id="elem_overarch_dataModel_historyState"><rect codeLine="35" fill="#F1F1F1" height="48" id="overarch_dataModel_historyState" rx="2.5" ry="2.5" style="stroke:#181818;stroke-width:0.5;" width="110" x="695" y="790.6094"/><ellipse cx="710" cy="806.6094" fill="#ADD1B2" rx="11" ry="11" style="stroke:#181818;stroke-width:1.0;"/><path d="M712.7656,802.4844 Q712.9219,802.2656 713.1094,802.1563 Q713.2969,802.0469 713.5156,802.0469 Q713.8906,802.0469 714.125,802.3125 Q714.3594,802.5625 714.3594,803.1719 L714.3594,804.625 Q714.3594,805.2344 714.125,805.5 Q713.8906,805.7656 713.5156,805.7656 Q713.1719,805.7656 712.9688,805.5625 Q712.7656,805.375 712.6563,804.8594 Q712.6094,804.5 712.4219,804.3125 Q712.0938,803.9375 711.4844,803.7188 Q710.875,803.5 710.25,803.5 Q709.4844,803.5 708.8438,803.8281 Q708.2188,804.1563 707.7188,804.9063 Q707.2344,805.6563 707.2344,806.6875 L707.2344,807.7813 Q707.2344,809.0156 708.125,809.8438 Q709.0156,810.6563 710.6094,810.6563 Q711.5469,810.6563 712.2031,810.4063 Q712.5938,810.25 713.0156,809.8125 Q713.2813,809.5469 713.4219,809.4688 Q713.5781,809.3906 713.7813,809.3906 Q714.1094,809.3906 714.3594,809.6563 Q714.625,809.9063 714.625,810.25 Q714.625,810.5938 714.2813,811 Q713.7813,811.5781 712.9844,811.9063 Q711.9063,812.3594 710.6094,812.3594 Q709.0938,812.3594 707.8906,811.7344 Q706.9063,811.2344 706.2188,810.1719 Q705.5313,809.0938 705.5313,807.8125 L705.5313,806.6563 Q705.5313,805.3281 706.1406,804.1875 Q706.7656,803.0313 707.8594,802.4219 Q708.9531,801.7969 710.1875,801.7969 Q710.9219,801.7969 711.5625,801.9688 Q712.2188,802.125 712.7656,802.4844 Z " fill="#000000"/><text fill="#000000" font-family="sans-serif" font-size="14" lengthAdjust="spacing" textLength="78" x="724" y="812.3379">history-state</text><line style="stroke:#181818;stroke-width:0.5;" x1="696" x2="804" y1="822.6094" y2="822.6094"/><line style="stroke:#181818;stroke-width:0.5;" x1="696" x2="804" y1="830.6094" y2="830.6094"/></g><!--class overarch_dataModel_deepHistoryState--><g id="elem_overarch_dataModel_deepHistoryState"><rect codeLine="36" fill="#F1F1F1" height="48" id="overarch_dataModel_deepHistoryState" rx="2.5" ry="2.5" style="stroke:#181818;stroke-width:0.5;" width="147" x="840.5" y="790.6094"/><ellipse cx="855.5" cy="806.6094" fill="#ADD1B2" rx="11" ry="11" style="stroke:#181818;stroke-width:1.0;"/><path d="M858.2656,802.4844 Q858.4219,802.2656 858.6094,802.1563 Q858.7969,802.0469 859.0156,802.0469 Q859.3906,802.0469 859.625,802.3125 Q859.8594,802.5625 859.8594,803.1719 L859.8594,804.625 Q859.8594,805.2344 859.625,805.5 Q859.3906,805.7656 859.0156,805.7656 Q858.6719,805.7656 858.4688,805.5625 Q858.2656,805.375 858.1563,804.8594 Q858.1094,804.5 857.9219,804.3125 Q857.5938,803.9375 856.9844,803.7188 Q856.375,803.5 855.75,803.5 Q854.9844,803.5 854.3438,803.8281 Q853.7188,804.1563 853.2188,804.9063 Q852.7344,805.6563 852.7344,806.6875 L852.7344,807.7813 Q852.7344,809.0156 853.625,809.8438 Q854.5156,810.6563 856.1094,810.6563 Q857.0469,810.6563 857.7031,810.4063 Q858.0938,810.25 858.5156,809.8125 Q858.7813,809.5469 858.9219,809.4688 Q859.0781,809.3906 859.2813,809.3906 Q859.6094,809.3906 859.8594,809.6563 Q860.125,809.9063 860.125,810.25 Q860.125,810.5938 859.7813,811 Q859.2813,811.5781 858.4844,811.9063 Q857.4063,812.3594 856.1094,812.3594 Q854.5938,812.3594 853.3906,811.7344 Q852.4063,811.2344 851.7188,810.1719 Q851.0313,809.0938 851.0313,807.8125 L851.0313,806.6563 Q851.0313,805.3281 851.6406,804.1875 Q852.2656,803.0313 853.3594,802.4219 Q854.4531,801.7969 855.6875,801.7969 Q856.4219,801.7969 857.0625,801.9688 Q857.7188,802.125 858.2656,802.4844 Z " fill="#000000"/><text fill="#000000" font-family="sans-serif" font-size="14" lengthAdjust="spacing" textLength="115" x="869.5" y="812.3379">deep-history-state</text><line style="stroke:#181818;stroke-width:0.5;" x1="841.5" x2="986.5" y1="822.6094" y2="822.6094"/><line style="stroke:#181818;stroke-width:0.5;" x1="841.5" x2="986.5" y1="830.6094" y2="830.6094"/></g><!--class overarch_dataModel_transition--><g id="elem_overarch_dataModel_transition"><rect codeLine="37" fill="#F1F1F1" height="48" id="overarch_dataModel_transition" rx="2.5" ry="2.5" style="stroke:#181818;stroke-width:0.5;" width="90" x="614" y="673.6094"/><ellipse cx="629" cy="689.6094" fill="#ADD1B2" rx="11" ry="11" style="stroke:#181818;stroke-width:1.0;"/><path d="M631.7656,685.4844 Q631.9219,685.2656 632.1094,685.1563 Q632.2969,685.0469 632.5156,685.0469 Q632.8906,685.0469 633.125,685.3125 Q633.3594,685.5625 633.3594,686.1719 L633.3594,687.625 Q633.3594,688.2344 633.125,688.5 Q632.8906,688.7656 632.5156,688.7656 Q632.1719,688.7656 631.9688,688.5625 Q631.7656,688.375 631.6563,687.8594 Q631.6094,687.5 631.4219,687.3125 Q631.0938,686.9375 630.4844,686.7188 Q629.875,686.5 629.25,686.5 Q628.4844,686.5 627.8438,686.8281 Q627.2188,687.1563 626.7188,687.9063 Q626.2344,688.6563 626.2344,689.6875 L626.2344,690.7813 Q626.2344,692.0156 627.125,692.8438 Q628.0156,693.6563 629.6094,693.6563 Q630.5469,693.6563 631.2031,693.4063 Q631.5938,693.25 632.0156,692.8125 Q632.2813,692.5469 632.4219,692.4688 Q632.5781,692.3906 632.7813,692.3906 Q633.1094,692.3906 633.3594,692.6563 Q633.625,692.9063 633.625,693.25 Q633.625,693.5938 633.2813,694 Q632.7813,694.5781 631.9844,694.9063 Q630.9063,695.3594 629.6094,695.3594 Q628.0938,695.3594 626.8906,694.7344 Q625.9063,694.2344 625.2188,693.1719 Q624.5313,692.0938 624.5313,690.8125 L624.5313,689.6563 Q624.5313,688.3281 625.1406,687.1875 Q625.7656,686.0313 626.8594,685.4219 Q627.9531,684.7969 629.1875,684.7969 Q629.9219,684.7969 630.5625,684.9688 Q631.2188,685.125 631.7656,685.4844 Z " fill="#000000"/><text fill="#000000" font-family="sans-serif" font-size="14" lengthAdjust="spacing" textLength="58" x="643" y="695.3379">transition</text><line style="stroke:#181818;stroke-width:0.5;" x1="615" x2="703" y1="705.6094" y2="705.6094"/><line style="stroke:#181818;stroke-width:0.5;" x1="615" x2="703" y1="713.6094" y2="713.6094"/></g><!--reverse link overarch_dataModel_element to overarch_dataModel_identifiableElement--><g id="link_overarch_dataModel_element_overarch_dataModel_identifiableElement"><path codeLine="38" d="M585.79,128.4194 C597.31,145.5794 609.97,164.4194 620.35,179.8694 " fill="none" id="overarch_dataModel_element-backto-overarch_dataModel_identifiableElement" style="stroke:#181818;stroke-width:1.0;"/><polygon fill="none" points="579.89,132.1894,574.54,111.6794,591.51,124.3794,579.89,132.1894" style="stroke:#181818;stroke-width:1.0;"/></g><!--reverse link overarch_dataModel_element to overarch_dataModel_namedElement--><g id="link_overarch_dataModel_element_overarch_dataModel_namedElement"><path codeLine="39" d="M520.06,128.6494 C510.64,142.6794 500.47,157.8094 491.42,171.2894 " fill="none" id="overarch_dataModel_element-backto-overarch_dataModel_namedElement" style="stroke:#181818;stroke-width:1.0;"/><polygon fill="none" points="514.49,124.3794,531.46,111.6794,526.11,132.1894,514.49,124.3794" style="stroke:#181818;stroke-width:1.0;"/></g><!--reverse link overarch_dataModel_identifiableElement to overarch_dataModel_identifiableNamedElement--><g id="link_overarch_dataModel_identifiableElement_overarch_dataModel_identifiableNamedElement"><path codeLine="40" d="M579.13,257.7294 C551.59,276.8394 520.39,298.4894 497.42,314.4194 " fill="none" id="overarch_dataModel_identifiableElement-backto-overarch_dataModel_identifiableNamedElement" style="stroke:#181818;stroke-width:1.0;"/><polygon fill="none" points="575.27,251.8894,595.7,246.2394,583.26,263.3894,575.27,251.8894" style="stroke:#181818;stroke-width:1.0;"/></g><!--reverse link overarch_dataModel_namedElement to overarch_dataModel_identifiableNamedElement--><g id="link_overarch_dataModel_namedElement_overarch_dataModel_identifiableNamedElement"><path codeLine="41" d="M464,275.1094 C464,289.1694 464,303.2794 464,314.5194 " fill="none" id="overarch_dataModel_namedElement-backto-overarch_dataModel_identifiableNamedElement" style="stroke:#181818;stroke-width:1.0;"/><polygon fill="none" points="457,274.8894,464,254.8894,471,274.8894,457,274.8894" style="stroke:#181818;stroke-width:1.0;"/></g><!--reverse link overarch_dataModel_identifiableElement to overarch_dataModel_relationalElement--><g id="link_overarch_dataModel_identifiableElement_overarch_dataModel_relationalElement"><path codeLine="42" d="M646.18,266.2094 C649.92,312.7294 655.32,379.8994 658.74,422.5294 " fill="none" id="overarch_dataModel_identifiableElement-backto-overarch_dataModel_relationalElement" style="stroke:#181818;stroke-width:1.0;"/><polygon fill="none" points="639.2,266.6494,644.57,246.1494,653.15,265.5294,639.2,266.6494" style="stroke:#181818;stroke-width:1.0;"/></g><!--reverse link overarch_dataModel_identifiableNamedElement to overarch_dataModel_stateMachineModelElement--><g id="link_overarch_dataModel_identifiableNamedElement_overarch_dataModel_stateMachineModelElement"><path codeLine="43" d="M457.38,382.6494 C454.41,401.9194 451.04,423.8794 448.56,439.9794 " fill="none" id="overarch_dataModel_identifiableNamedElement-backto-overarch_dataModel_stateMachineModelElement" style="stroke:#181818;stroke-width:1.0;"/><polygon fill="none" points="450.47,381.5394,460.43,362.8394,464.3,383.6694,450.47,381.5394" style="stroke:#181818;stroke-width:1.0;"/></g><!--reverse link overarch_dataModel_stateMachineModelElement to overarch_dataModel_stateMachineModelNode--><g id="link_overarch_dataModel_stateMachineModelElement_overarch_dataModel_stateMachineModelNode"><path codeLine="44" d="M407.98,503.2194 C393.47,520.7494 378.52,542.7194 371,565.6094 C359,602.1594 371.59,646.7694 381.8,673.3694 " fill="none" id="overarch_dataModel_stateMachineModelElement-backto-overarch_dataModel_stateMachineModelNode" style="stroke:#181818;stroke-width:1.0;"/><polygon fill="none" points="402.75,498.5694,421.22,488.1794,413.26,507.8194,402.75,498.5694" style="stroke:#181818;stroke-width:1.0;"/></g><!--reverse link overarch_dataModel_stateMachineModelElement to overarch_dataModel_stateMachineModelRelation--><g id="link_overarch_dataModel_stateMachineModelElement_overarch_dataModel_stateMachineModelRelation"><path codeLine="45" d="M502.41,498.2394 C539.19,519.4694 586.01,546.4894 618.83,565.4294 " fill="none" id="overarch_dataModel_stateMachineModelElement-backto-overarch_dataModel_stateMachineModelRelation" style="stroke:#181818;stroke-width:1.0;"/><polygon fill="none" points="498.82,504.2494,485,488.1894,505.82,492.1294,498.82,504.2494" style="stroke:#181818;stroke-width:1.0;"/></g><!--reverse link overarch_dataModel_relationalElement to overarch_dataModel_stateMachineModelRelation--><g id="link_overarch_dataModel_relationalElement_overarch_dataModel_stateMachineModelRelation"><path codeLine="46" d="M660.52,526.1094 C660.18,540.1694 659.83,554.2794 659.56,565.5194 " fill="none" id="overarch_dataModel_relationalElement-backto-overarch_dataModel_stateMachineModelRelation" style="stroke:#181818;stroke-width:1.0;"/><polygon fill="none" points="653.53,525.7094,661.01,505.8894,667.52,526.0494,653.53,525.7094" style="stroke:#181818;stroke-width:1.0;"/></g><!--reverse link overarch_dataModel_stateMachineModelElement to overarch_dataModel_stateMachine--><g id="link_overarch_dataModel_stateMachineModelElement_overarch_dataModel_stateMachine"><path codeLine="47" d="M446.4,508.4594 C447.03,527.6594 447.73,549.4694 448.25,565.4794 " fill="none" id="overarch_dataModel_stateMachineModelElement-backto-overarch_dataModel_stateMachine" style="stroke:#181818;stroke-width:1.0;"/><polygon fill="none" points="439.4,508.5594,445.75,488.3394,453.4,508.0994,439.4,508.5594" style="stroke:#181818;stroke-width:1.0;"/></g><!--link overarch_dataModel_stateMachine to overarch_dataModel_stateMachineModelNode--><g id="link_overarch_dataModel_stateMachine_overarch_dataModel_stateMachineModelNode"><path codeLine="48" d="M430.46,625.0794 C424.17,636.7894 417.12,649.8894 410.8,661.6394 " fill="none" id="overarch_dataModel_stateMachine-overarch_dataModel_stateMachineModelNode" style="stroke:#181818;stroke-width:1.0;"/><polygon fill="#181818" points="436.63,613.6094,430.2678,617.0039,430.9542,624.1822,437.3164,620.7877,436.63,613.6094" style="stroke:#181818;stroke-width:1.0;"/><polygon fill="#181818" points="404.54,673.2894,412.3238,667.2552,406.9069,668.8851,405.277,663.4681,404.54,673.2894" style="stroke:#181818;stroke-width:1.0;"/><line style="stroke:#181818;stroke-width:1.0;" x1="406.9069" x2="410.7" y1="668.8851" y2="661.8344"/><text fill="#000000" font-family="sans-serif" font-size="13" lengthAdjust="spacing" textLength="22" x="382.9154" y="662.9493">1..n</text></g><!--reverse link overarch_dataModel_stateMachineModelNode to overarch_dataModel_startState--><g id="link_overarch_dataModel_stateMachineModelNode_overarch_dataModel_startState"><path codeLine="49" d="M285.28,727.1694 C234.84,741.7094 174.17,760.7194 121,781.6094 C114.24,784.2594 107.22,787.3194 100.39,790.4694 " fill="none" id="overarch_dataModel_stateMachineModelNode-backto-overarch_dataModel_startState" style="stroke:#181818;stroke-width:1.0;"/><polygon fill="none" points="283.64,720.3594,304.79,721.6194,287.47,733.8294,283.64,720.3594" style="stroke:#181818;stroke-width:1.0;"/></g><!--reverse link overarch_dataModel_stateMachineModelNode to overarch_dataModel_state--><g id="link_overarch_dataModel_stateMachineModelNode_overarch_dataModel_state"><path codeLine="50" d="M306.23,729.7694 C272.88,744.5394 235.03,763.0094 202,781.6094 C197.13,784.3494 192.09,787.3894 187.35,790.4794 " fill="none" id="overarch_dataModel_stateMachineModelNode-backto-overarch_dataModel_state" style="stroke:#181818;stroke-width:1.0;"/><polygon fill="none" points="303.62,723.2694,324.76,721.7394,309.19,736.1194,303.62,723.2694" style="stroke:#181818;stroke-width:1.0;"/></g><!--link overarch_dataModel_state to overarch_dataModel_stateMachineModelNode--><g id="link_overarch_dataModel_state_overarch_dataModel_stateMachineModelNode"><path codeLine="51" d="M213.09,795.8594 C221.17,791.0294 229.3,785.9494 237,781.6094 C271.72,762.0494 311.77,742.6494 342.74,727.5294 " fill="none" id="overarch_dataModel_state-overarch_dataModel_stateMachineModelNode" style="stroke:#181818;stroke-width:1.0;"/><polygon fill="#181818" points="201.75,802.3994,208.9462,802.8631,212.142,796.3989,204.9459,795.9351,201.75,802.3994" style="stroke:#181818;stroke-width:1.0;"/><polygon fill="#181818" points="354.57,721.7394,344.7277,722.0996,350.0783,723.9358,348.242,729.2864,354.57,721.7394" style="stroke:#181818;stroke-width:1.0;"/><line style="stroke:#181818;stroke-width:1.0;" x1="350.0783" x2="342.89" y1="723.9358" y2="727.4594"/><text fill="#000000" font-family="sans-serif" font-size="13" lengthAdjust="spacing" textLength="22" x="320.7652" y="743.109">1..n</text></g><!--reverse link overarch_dataModel_stateMachineModelNode to overarch_dataModel_endState--><g id="link_overarch_dataModel_stateMachineModelNode_overarch_dataModel_endState"><path codeLine="52" d="M356.02,736.5694 C339.17,754.3494 319.64,774.9494 305.02,790.3694 " fill="none" id="overarch_dataModel_stateMachineModelNode-backto-overarch_dataModel_endState" style="stroke:#181818;stroke-width:1.0;"/><polygon fill="none" points="351.1,731.5794,369.94,721.8794,361.26,741.2094,351.1,731.5794" style="stroke:#181818;stroke-width:1.0;"/></g><!--reverse link overarch_dataModel_stateMachineModelNode to overarch_dataModel_fork--><g id="link_overarch_dataModel_stateMachineModelNode_overarch_dataModel_fork"><path codeLine="53" d="M392,742.0394 C392,758.4594 392,776.5094 392,790.3694 " fill="none" id="overarch_dataModel_stateMachineModelNode-backto-overarch_dataModel_fork" style="stroke:#181818;stroke-width:1.0;"/><polygon fill="none" points="385,741.8794,392,721.8794,399,741.8794,385,741.8794" style="stroke:#181818;stroke-width:1.0;"/></g><!--reverse link overarch_dataModel_stateMachineModelNode to overarch_dataModel_join--><g id="link_overarch_dataModel_stateMachineModelNode_overarch_dataModel_join"><path codeLine="54" d="M422.56,737.6494 C436.27,755.1794 451.99,775.2594 463.81,790.3694 " fill="none" id="overarch_dataModel_stateMachineModelNode-backto-overarch_dataModel_join" style="stroke:#181818;stroke-width:1.0;"/><polygon fill="none" points="417.03,741.9494,410.21,721.8794,428.05,733.3194,417.03,741.9494" style="stroke:#181818;stroke-width:1.0;"/></g><!--reverse link overarch_dataModel_stateMachineModelNode to overarch_dataModel_choice--><g id="link_overarch_dataModel_stateMachineModelNode_overarch_dataModel_choice"><path codeLine="55" d="M451.85,731.3794 C480.74,747.1994 515.26,766.1094 543.91,781.7994 " fill="none" id="overarch_dataModel_stateMachineModelNode-backto-overarch_dataModel_choice" style="stroke:#181818;stroke-width:1.0;"/><polygon fill="none" points="448.42,737.4894,434.24,721.7394,455.15,725.2094,448.42,737.4894" style="stroke:#181818;stroke-width:1.0;"/></g><!--reverse link overarch_dataModel_stateMachineModelNode to overarch_dataModel_historyState--><g id="link_overarch_dataModel_stateMachineModelNode_overarch_dataModel_historyState"><path codeLine="56" d="M502.72,726.9694 C556.23,741.6294 621.04,760.7894 678,781.6094 C685.32,784.2894 692.96,787.3594 700.39,790.5094 " fill="none" id="overarch_dataModel_stateMachineModelNode-backto-overarch_dataModel_historyState" style="stroke:#181818;stroke-width:1.0;"/><polygon fill="none" points="500.66,733.6594,483.18,721.6794,504.32,720.1494,500.66,733.6594" style="stroke:#181818;stroke-width:1.0;"/></g><!--reverse link overarch_dataModel_stateMachineModelNode to overarch_dataModel_deepHistoryState--><g id="link_overarch_dataModel_stateMachineModelNode_overarch_dataModel_deepHistoryState"><path codeLine="57" d="M512.67,716.9394 C599.69,731.3394 719.55,753.6294 823,781.6094 C832.54,784.1894 842.51,787.2794 852.22,790.5094 " fill="none" id="overarch_dataModel_stateMachineModelNode-backto-overarch_dataModel_deepHistoryState" style="stroke:#181818;stroke-width:1.0;"/><polygon fill="none" points="511.29,723.7994,492.68,713.6694,513.54,709.9894,511.29,723.7994" style="stroke:#181818;stroke-width:1.0;"/></g><!--reverse link overarch_dataModel_stateMachineModelRelation to overarch_dataModel_transition--><g id="link_overarch_dataModel_stateMachineModelRelation_overarch_dataModel_transition"><path codeLine="58" d="M659,633.6294 C659,647.1894 659,661.6494 659,673.2894 " fill="none" id="overarch_dataModel_stateMachineModelRelation-backto-overarch_dataModel_transition" style="stroke:#181818;stroke-width:1.0;"/><polygon fill="none" points="652,633.6094,659,613.6094,666,633.6094,652,633.6094" style="stroke:#181818;stroke-width:1.0;"/></g><!--SRC=[nPOzJyCm48Pt_ufJHoH7T4M8hH8B7M14g79jbnWI6zaMg0B-EtQIjcxQE0u9OacLtDrp7xBVgnMsuF1WYULmHsWkfFjLZ1UmA7Z9fJM8h8tLX5gW1J46Phmsp80OKEzS4qtp5IEML76hnWoV2C1Xhk2LRp-KPkZxX2IOSnGRGTO5nptOq7SHf10icaAIahC-TkKKGlq7XtKe8P_TE-E6xj_XyJBBvazz_IHb3YEMHrMSqZKlY1LAagAFUl0CczfeLGQp0h0gEZhZ3mKkwqE1Iq_kIro5DCUe-X9fvnnUkcSoU-aUgU3TH9BXzqs0Jt2Ecm8wZjKMLyP8fBRrHMpbZEOAdBbayHJEePrWe_Hhbxkt1QulIdJEpzi2LvehGJlBgAtLcQHACb7DUN_Rzf1S6AlqDjvIuzHkYt7-XfC0tlFsFCITAcb4xDWSF7nOH0ollp1ELBNVO481GudYcLBIieTx99nJ08SKUg9oQ8Z0Tb6x90mDaRjakDUmlo7l10mbxOT9iAEAxWF21SOt0BDvbhdhEEbigqKIgR6HvKbO4Sn_TRZR2kD9Vc6Cf_XTCfvIBvdnd731ZAUrjmqQz5-aYtfOGpy0]--></g></svg>