<svg xmlns="http://www.w3.org/2000/svg" xmlns:xlink="http://www.w3.org/1999/xlink" contentStyleType="text/css" height="832px" preserveAspectRatio="none" style="width:1035px;height:832px;background:#FFFFFF;" version="1.1" viewBox="0 0 1035 832" width="1035px" zoomAndPan="magnify"><defs/><g><text fill="#000000" font-family="sans-serif" font-size="14" font-weight="bold" lengthAdjust="spacing" textLength="213" x="404.25" y="24.9659">State Machine Model Elements</text><!--class overarch_dataModel_historyState--><g id="elem_overarch_dataModel_historyState"><rect codeLine="9" fill="#F1F1F1" height="48" id="overarch_dataModel_historyState" rx="2.5" ry="2.5" style="stroke:#181818;stroke-width:0.5;" width="116" x="7" y="767.5679"/><ellipse cx="22" cy="783.5679" fill="#ADD1B2" rx="11" ry="11" style="stroke:#181818;stroke-width:1.0;"/><path d="M24.9688,789.2085 Q24.3906,789.5054 23.75,789.646 Q23.1094,789.8023 22.4063,789.8023 Q19.9063,789.8023 18.5781,788.1617 Q17.2656,786.5054 17.2656,783.3804 Q17.2656,780.2554 18.5781,778.5992 Q19.9063,776.9429 22.4063,776.9429 Q23.1094,776.9429 23.75,777.0992 Q24.4063,777.2554 24.9688,777.5523 L24.9688,780.271 Q24.3438,779.6929 23.75,779.4273 Q23.1563,779.146 22.5313,779.146 Q21.1875,779.146 20.5,780.2242 Q19.8125,781.2867 19.8125,783.3804 Q19.8125,785.4742 20.5,786.5523 Q21.1875,787.6148 22.5313,787.6148 Q23.1563,787.6148 23.75,787.3492 Q24.3438,787.0679 24.9688,786.4898 L24.9688,789.2085 Z " fill="#000000"/><text fill="#000000" font-family="sans-serif" font-size="14" lengthAdjust="spacing" textLength="84" x="36" y="788.9999">history-state</text><line style="stroke:#181818;stroke-width:0.5;" x1="8" x2="122" y1="799.5679" y2="799.5679"/><line style="stroke:#181818;stroke-width:0.5;" x1="8" x2="122" y1="807.5679" y2="807.5679"/></g><!--class overarch_dataModel_stateMachineModelElement--><g id="elem_overarch_dataModel_stateMachineModelElement"><rect codeLine="10" fill="#F1F1F1" height="48" id="overarch_dataModel_stateMachineModelElement" rx="2.5" ry="2.5" style="stroke:#181818;stroke-width:0.5;" width="217" x="476.5" y="415.0679"/><ellipse cx="491.5" cy="431.0679" fill="#A9DCDF" rx="11" ry="11" style="stroke:#181818;stroke-width:1.0;"/><path d="M491.6094,426.4117 L490.4531,431.4898 L492.7813,431.4898 L491.6094,426.4117 Z M490.125,424.1773 L493.1094,424.1773 L496.4688,436.5679 L494.0156,436.5679 L493.25,433.5054 L489.9688,433.5054 L489.2188,436.5679 L486.7813,436.5679 L490.125,424.1773 Z " fill="#000000"/><text fill="#000000" font-family="sans-serif" font-size="14" font-style="italic" lengthAdjust="spacing" textLength="185" x="505.5" y="436.4999">state-machine-model-element</text><line style="stroke:#181818;stroke-width:0.5;" x1="477.5" x2="692.5" y1="447.0679" y2="447.0679"/><line style="stroke:#181818;stroke-width:0.5;" x1="477.5" x2="692.5" y1="455.0679" y2="455.0679"/></g><!--class overarch_dataModel_modelElement--><g id="elem_overarch_dataModel_modelElement"><rect codeLine="11" fill="#F1F1F1" height="86.1358" id="overarch_dataModel_modelElement" rx="2.5" ry="2.5" style="stroke:#181818;stroke-width:0.5;" width="175" x="497.5" y="250.0679"/><ellipse cx="535" cy="266.0679" fill="#A9DCDF" rx="11" ry="11" style="stroke:#181818;stroke-width:1.0;"/><path d="M535.1094,261.4117 L533.9531,266.4898 L536.2813,266.4898 L535.1094,261.4117 Z M533.625,259.1773 L536.6094,259.1773 L539.9688,271.5679 L537.5156,271.5679 L536.75,268.5054 L533.4688,268.5054 L532.7188,271.5679 L530.2813,271.5679 L533.625,259.1773 Z " fill="#000000"/><text fill="#000000" font-family="sans-serif" font-size="14" font-style="italic" lengthAdjust="spacing" textLength="93" x="554" y="271.4999">model-element</text><line style="stroke:#181818;stroke-width:0.5;" x1="498.5" x2="671.5" y1="282.0679" y2="282.0679"/><text fill="#000000" font-family="sans-serif" font-size="14" lengthAdjust="spacing" textLength="163" x="503.5" y="301.0339">maturity : keyword [0..1]</text><text fill="#000000" font-family="sans-serif" font-size="14" lengthAdjust="spacing" textLength="99" x="503.5" y="320.1018">tags : set [0..1]</text><line style="stroke:#181818;stroke-width:0.5;" x1="498.5" x2="671.5" y1="328.2038" y2="328.2038"/></g><!--class overarch_dataModel_deepHistoryState--><g id="elem_overarch_dataModel_deepHistoryState"><rect codeLine="15" fill="#F1F1F1" height="48" id="overarch_dataModel_deepHistoryState" rx="2.5" ry="2.5" style="stroke:#181818;stroke-width:0.5;" width="155" x="258.5" y="767.5679"/><ellipse cx="273.5" cy="783.5679" fill="#ADD1B2" rx="11" ry="11" style="stroke:#181818;stroke-width:1.0;"/><path d="M276.4688,789.2085 Q275.8906,789.5054 275.25,789.646 Q274.6094,789.8023 273.9063,789.8023 Q271.4063,789.8023 270.0781,788.1617 Q268.7656,786.5054 268.7656,783.3804 Q268.7656,780.2554 270.0781,778.5992 Q271.4063,776.9429 273.9063,776.9429 Q274.6094,776.9429 275.25,777.0992 Q275.9063,777.2554 276.4688,777.5523 L276.4688,780.271 Q275.8438,779.6929 275.25,779.4273 Q274.6563,779.146 274.0313,779.146 Q272.6875,779.146 272,780.2242 Q271.3125,781.2867 271.3125,783.3804 Q271.3125,785.4742 272,786.5523 Q272.6875,787.6148 274.0313,787.6148 Q274.6563,787.6148 275.25,787.3492 Q275.8438,787.0679 276.4688,786.4898 L276.4688,789.2085 Z " fill="#000000"/><text fill="#000000" font-family="sans-serif" font-size="14" lengthAdjust="spacing" textLength="123" x="287.5" y="788.9999">deep-history-state</text><line style="stroke:#181818;stroke-width:0.5;" x1="259.5" x2="412.5" y1="799.5679" y2="799.5679"/><line style="stroke:#181818;stroke-width:0.5;" x1="259.5" x2="412.5" y1="807.5679" y2="807.5679"/></g><!--class overarch_dataModel_choice--><g id="elem_overarch_dataModel_choice"><rect codeLine="16" fill="#F1F1F1" height="67.0679" id="overarch_dataModel_choice" rx="2.5" ry="2.5" style="stroke:#181818;stroke-width:0.5;" width="127" x="448.5" y="758.0679"/><ellipse cx="486.9" cy="774.0679" fill="#ADD1B2" rx="11" ry="11" style="stroke:#181818;stroke-width:1.0;"/><path d="M489.8688,779.7085 Q489.2906,780.0054 488.65,780.146 Q488.0094,780.3023 487.3063,780.3023 Q484.8063,780.3023 483.4781,778.6617 Q482.1656,777.0054 482.1656,773.8804 Q482.1656,770.7554 483.4781,769.0992 Q484.8063,767.4429 487.3063,767.4429 Q488.0094,767.4429 488.65,767.5992 Q489.3063,767.7554 489.8688,768.0523 L489.8688,770.771 Q489.2438,770.1929 488.65,769.9273 Q488.0563,769.646 487.4313,769.646 Q486.0875,769.646 485.4,770.7242 Q484.7125,771.7867 484.7125,773.8804 Q484.7125,775.9742 485.4,777.0523 Q486.0875,778.1148 487.4313,778.1148 Q488.0563,778.1148 488.65,777.8492 Q489.2438,777.5679 489.8688,776.9898 L489.8688,779.7085 Z " fill="#000000"/><text fill="#000000" font-family="sans-serif" font-size="14" lengthAdjust="spacing" textLength="43" x="506.1" y="779.4999">choice</text><line style="stroke:#181818;stroke-width:0.5;" x1="449.5" x2="574.5" y1="790.0679" y2="790.0679"/><text fill="#000000" font-family="sans-serif" font-size="14" lengthAdjust="spacing" textLength="115" x="454.5" y="809.0339">condition : string</text><line style="stroke:#181818;stroke-width:0.5;" x1="449.5" x2="574.5" y1="817.1358" y2="817.1358"/></g><!--class overarch_dataModel_state--><g id="elem_overarch_dataModel_state"><rect codeLine="19" fill="#F1F1F1" height="48" id="overarch_dataModel_state" rx="2.5" ry="2.5" style="stroke:#181818;stroke-width:0.5;" width="65" x="158.5" y="767.5679"/><ellipse cx="173.5" cy="783.5679" fill="#ADD1B2" rx="11" ry="11" style="stroke:#181818;stroke-width:1.0;"/><path d="M176.4688,789.2085 Q175.8906,789.5054 175.25,789.646 Q174.6094,789.8023 173.9063,789.8023 Q171.4063,789.8023 170.0781,788.1617 Q168.7656,786.5054 168.7656,783.3804 Q168.7656,780.2554 170.0781,778.5992 Q171.4063,776.9429 173.9063,776.9429 Q174.6094,776.9429 175.25,777.0992 Q175.9063,777.2554 176.4688,777.5523 L176.4688,780.271 Q175.8438,779.6929 175.25,779.4273 Q174.6563,779.146 174.0313,779.146 Q172.6875,779.146 172,780.2242 Q171.3125,781.2867 171.3125,783.3804 Q171.3125,785.4742 172,786.5523 Q172.6875,787.6148 174.0313,787.6148 Q174.6563,787.6148 175.25,787.3492 Q175.8438,787.0679 176.4688,786.4898 L176.4688,789.2085 Z " fill="#000000"/><text fill="#000000" font-family="sans-serif" font-size="14" lengthAdjust="spacing" textLength="33" x="187.5" y="788.9999">state</text><line style="stroke:#181818;stroke-width:0.5;" x1="159.5" x2="222.5" y1="799.5679" y2="799.5679"/><line style="stroke:#181818;stroke-width:0.5;" x1="159.5" x2="222.5" y1="807.5679" y2="807.5679"/></g><!--class overarch_dataModel_stateMachine--><g id="elem_overarch_dataModel_stateMachine"><rect codeLine="20" fill="#F1F1F1" height="48" id="overarch_dataModel_stateMachine" rx="2.5" ry="2.5" style="stroke:#181818;stroke-width:0.5;" width="128" x="448" y="542.0679"/><ellipse cx="463" cy="558.0679" fill="#ADD1B2" rx="11" ry="11" style="stroke:#181818;stroke-width:1.0;"/><path d="M465.9688,563.7085 Q465.3906,564.0054 464.75,564.146 Q464.1094,564.3023 463.4063,564.3023 Q460.9063,564.3023 459.5781,562.6617 Q458.2656,561.0054 458.2656,557.8804 Q458.2656,554.7554 459.5781,553.0992 Q460.9063,551.4429 463.4063,551.4429 Q464.1094,551.4429 464.75,551.5992 Q465.4063,551.7554 465.9688,552.0523 L465.9688,554.771 Q465.3438,554.1929 464.75,553.9273 Q464.1563,553.646 463.5313,553.646 Q462.1875,553.646 461.5,554.7242 Q460.8125,555.7867 460.8125,557.8804 Q460.8125,559.9742 461.5,561.0523 Q462.1875,562.1148 463.5313,562.1148 Q464.1563,562.1148 464.75,561.8492 Q465.3438,561.5679 465.9688,560.9898 L465.9688,563.7085 Z " fill="#000000"/><text fill="#000000" font-family="sans-serif" font-size="14" lengthAdjust="spacing" textLength="96" x="477" y="563.4999">state-machine</text><line style="stroke:#181818;stroke-width:0.5;" x1="449" x2="575" y1="574.0679" y2="574.0679"/><line style="stroke:#181818;stroke-width:0.5;" x1="449" x2="575" y1="582.0679" y2="582.0679"/></g><!--class overarch_dataModel_modelNode--><g id="elem_overarch_dataModel_modelNode"><rect codeLine="21" fill="#F1F1F1" height="48" id="overarch_dataModel_modelNode" rx="2.5" ry="2.5" style="stroke:#181818;stroke-width:0.5;" width="106" x="307" y="542.0679"/><ellipse cx="322" cy="558.0679" fill="#A9DCDF" rx="11" ry="11" style="stroke:#181818;stroke-width:1.0;"/><path d="M322.1094,553.4117 L320.9531,558.4898 L323.2813,558.4898 L322.1094,553.4117 Z M320.625,551.1773 L323.6094,551.1773 L326.9688,563.5679 L324.5156,563.5679 L323.75,560.5054 L320.4688,560.5054 L319.7188,563.5679 L317.2813,563.5679 L320.625,551.1773 Z " fill="#000000"/><text fill="#000000" font-family="sans-serif" font-size="14" font-style="italic" lengthAdjust="spacing" textLength="74" x="336" y="563.4999">model-node</text><line style="stroke:#181818;stroke-width:0.5;" x1="308" x2="412" y1="574.0679" y2="574.0679"/><line style="stroke:#181818;stroke-width:0.5;" x1="308" x2="412" y1="582.0679" y2="582.0679"/></g><!--class overarch_dataModel_modelRelation--><g id="elem_overarch_dataModel_modelRelation"><rect codeLine="22" fill="#F1F1F1" height="86.1358" id="overarch_dataModel_modelRelation" rx="2.5" ry="2.5" style="stroke:#181818;stroke-width:0.5;" width="125" x="728.5" y="396.0679"/><ellipse cx="743.5" cy="412.0679" fill="#A9DCDF" rx="11" ry="11" style="stroke:#181818;stroke-width:1.0;"/><path d="M743.6094,407.4117 L742.4531,412.4898 L744.7813,412.4898 L743.6094,407.4117 Z M742.125,405.1773 L745.1094,405.1773 L748.4688,417.5679 L746.0156,417.5679 L745.25,414.5054 L741.9688,414.5054 L741.2188,417.5679 L738.7813,417.5679 L742.125,405.1773 Z " fill="#000000"/><text fill="#000000" font-family="sans-serif" font-size="14" font-style="italic" lengthAdjust="spacing" textLength="93" x="757.5" y="417.4999">model-relation</text><line style="stroke:#181818;stroke-width:0.5;" x1="729.5" x2="852.5" y1="428.0679" y2="428.0679"/><text fill="#000000" font-family="sans-serif" font-size="14" lengthAdjust="spacing" textLength="100" x="734.5" y="447.0339">from : keyword</text><text fill="#000000" font-family="sans-serif" font-size="14" lengthAdjust="spacing" textLength="81" x="734.5" y="466.1018">to : keyword</text><line style="stroke:#181818;stroke-width:0.5;" x1="729.5" x2="852.5" y1="474.2038" y2="474.2038"/></g><!--class overarch_dataModel_join--><g id="elem_overarch_dataModel_join"><rect codeLine="26" fill="#F1F1F1" height="48" id="overarch_dataModel_join" rx="2.5" ry="2.5" style="stroke:#181818;stroke-width:0.5;" width="57" x="610.5" y="767.5679"/><ellipse cx="625.5" cy="783.5679" fill="#ADD1B2" rx="11" ry="11" style="stroke:#181818;stroke-width:1.0;"/><path d="M628.4688,789.2085 Q627.8906,789.5054 627.25,789.646 Q626.6094,789.8023 625.9063,789.8023 Q623.4063,789.8023 622.0781,788.1617 Q620.7656,786.5054 620.7656,783.3804 Q620.7656,780.2554 622.0781,778.5992 Q623.4063,776.9429 625.9063,776.9429 Q626.6094,776.9429 627.25,777.0992 Q627.9063,777.2554 628.4688,777.5523 L628.4688,780.271 Q627.8438,779.6929 627.25,779.4273 Q626.6563,779.146 626.0313,779.146 Q624.6875,779.146 624,780.2242 Q623.3125,781.2867 623.3125,783.3804 Q623.3125,785.4742 624,786.5523 Q624.6875,787.6148 626.0313,787.6148 Q626.6563,787.6148 627.25,787.3492 Q627.8438,787.0679 628.4688,786.4898 L628.4688,789.2085 Z " fill="#000000"/><text fill="#000000" font-family="sans-serif" font-size="14" lengthAdjust="spacing" textLength="25" x="639.5" y="788.9999">join</text><line style="stroke:#181818;stroke-width:0.5;" x1="611.5" x2="666.5" y1="799.5679" y2="799.5679"/><line style="stroke:#181818;stroke-width:0.5;" x1="611.5" x2="666.5" y1="807.5679" y2="807.5679"/></g><!--class overarch_dataModel_fork--><g id="elem_overarch_dataModel_fork"><rect codeLine="27" fill="#F1F1F1" height="48" id="overarch_dataModel_fork" rx="2.5" ry="2.5" style="stroke:#181818;stroke-width:0.5;" width="58" x="703" y="767.5679"/><ellipse cx="718" cy="783.5679" fill="#ADD1B2" rx="11" ry="11" style="stroke:#181818;stroke-width:1.0;"/><path d="M720.9688,789.2085 Q720.3906,789.5054 719.75,789.646 Q719.1094,789.8023 718.4063,789.8023 Q715.9063,789.8023 714.5781,788.1617 Q713.2656,786.5054 713.2656,783.3804 Q713.2656,780.2554 714.5781,778.5992 Q715.9063,776.9429 718.4063,776.9429 Q719.1094,776.9429 719.75,777.0992 Q720.4063,777.2554 720.9688,777.5523 L720.9688,780.271 Q720.3438,779.6929 719.75,779.4273 Q719.1563,779.146 718.5313,779.146 Q717.1875,779.146 716.5,780.2242 Q715.8125,781.2867 715.8125,783.3804 Q715.8125,785.4742 716.5,786.5523 Q717.1875,787.6148 718.5313,787.6148 Q719.1563,787.6148 719.75,787.3492 Q720.3438,787.0679 720.9688,786.4898 L720.9688,789.2085 Z " fill="#000000"/><text fill="#000000" font-family="sans-serif" font-size="14" lengthAdjust="spacing" textLength="26" x="732" y="788.9999">fork</text><line style="stroke:#181818;stroke-width:0.5;" x1="704" x2="760" y1="799.5679" y2="799.5679"/><line style="stroke:#181818;stroke-width:0.5;" x1="704" x2="760" y1="807.5679" y2="807.5679"/></g><!--class overarch_dataModel_stateMachineModelRelation--><g id="elem_overarch_dataModel_stateMachineModelRelation"><rect codeLine="28" fill="#F1F1F1" height="48" id="overarch_dataModel_stateMachineModelRelation" rx="2.5" ry="2.5" style="stroke:#181818;stroke-width:0.5;" width="217" x="682.5" y="542.0679"/><ellipse cx="697.5" cy="558.0679" fill="#A9DCDF" rx="11" ry="11" style="stroke:#181818;stroke-width:1.0;"/><path d="M697.6094,553.4117 L696.4531,558.4898 L698.7813,558.4898 L697.6094,553.4117 Z M696.125,551.1773 L699.1094,551.1773 L702.4688,563.5679 L700.0156,563.5679 L699.25,560.5054 L695.9688,560.5054 L695.2188,563.5679 L692.7813,563.5679 L696.125,551.1773 Z " fill="#000000"/><text fill="#000000" font-family="sans-serif" font-size="14" font-style="italic" lengthAdjust="spacing" textLength="185" x="711.5" y="563.4999">state-machine-model-relation</text><line style="stroke:#181818;stroke-width:0.5;" x1="683.5" x2="898.5" y1="574.0679" y2="574.0679"/><line style="stroke:#181818;stroke-width:0.5;" x1="683.5" x2="898.5" y1="582.0679" y2="582.0679"/></g><!--class overarch_dataModel_transition--><g id="elem_overarch_dataModel_transition"><rect codeLine="29" fill="#F1F1F1" height="48" id="overarch_dataModel_transition" rx="2.5" ry="2.5" style="stroke:#181818;stroke-width:0.5;" width="97" x="742.5" y="650.0679"/><ellipse cx="757.5" cy="666.0679" fill="#ADD1B2" rx="11" ry="11" style="stroke:#181818;stroke-width:1.0;"/><path d="M760.4688,671.7085 Q759.8906,672.0054 759.25,672.146 Q758.6094,672.3023 757.9063,672.3023 Q755.4063,672.3023 754.0781,670.6617 Q752.7656,669.0054 752.7656,665.8804 Q752.7656,662.7554 754.0781,661.0992 Q755.4063,659.4429 757.9063,659.4429 Q758.6094,659.4429 759.25,659.5992 Q759.9063,659.7554 760.4688,660.0523 L760.4688,662.771 Q759.8438,662.1929 759.25,661.9273 Q758.6563,661.646 758.0313,661.646 Q756.6875,661.646 756,662.7242 Q755.3125,663.7867 755.3125,665.8804 Q755.3125,667.9742 756,669.0523 Q756.6875,670.1148 758.0313,670.1148 Q758.6563,670.1148 759.25,669.8492 Q759.8438,669.5679 760.4688,668.9898 L760.4688,671.7085 Z " fill="#000000"/><text fill="#000000" font-family="sans-serif" font-size="14" lengthAdjust="spacing" textLength="65" x="771.5" y="671.4999">transition</text><line style="stroke:#181818;stroke-width:0.5;" x1="743.5" x2="838.5" y1="682.0679" y2="682.0679"/><line style="stroke:#181818;stroke-width:0.5;" x1="743.5" x2="838.5" y1="690.0679" y2="690.0679"/></g><!--class overarch_dataModel_endState--><g id="elem_overarch_dataModel_endState"><rect codeLine="30" fill="#F1F1F1" height="48" id="overarch_dataModel_endState" rx="2.5" ry="2.5" style="stroke:#181818;stroke-width:0.5;" width="96" x="796" y="767.5679"/><ellipse cx="811" cy="783.5679" fill="#ADD1B2" rx="11" ry="11" style="stroke:#181818;stroke-width:1.0;"/><path d="M813.9688,789.2085 Q813.3906,789.5054 812.75,789.646 Q812.1094,789.8023 811.4063,789.8023 Q808.9063,789.8023 807.5781,788.1617 Q806.2656,786.5054 806.2656,783.3804 Q806.2656,780.2554 807.5781,778.5992 Q808.9063,776.9429 811.4063,776.9429 Q812.1094,776.9429 812.75,777.0992 Q813.4063,777.2554 813.9688,777.5523 L813.9688,780.271 Q813.3438,779.6929 812.75,779.4273 Q812.1563,779.146 811.5313,779.146 Q810.1875,779.146 809.5,780.2242 Q808.8125,781.2867 808.8125,783.3804 Q808.8125,785.4742 809.5,786.5523 Q810.1875,787.6148 811.5313,787.6148 Q812.1563,787.6148 812.75,787.3492 Q813.3438,787.0679 813.9688,786.4898 L813.9688,789.2085 Z " fill="#000000"/><text fill="#000000" font-family="sans-serif" font-size="14" lengthAdjust="spacing" textLength="64" x="825" y="788.9999">end-state</text><line style="stroke:#181818;stroke-width:0.5;" x1="797" x2="891" y1="799.5679" y2="799.5679"/><line style="stroke:#181818;stroke-width:0.5;" x1="797" x2="891" y1="807.5679" y2="807.5679"/></g><!--class overarch_dataModel_stateMachineModelNode--><g id="elem_overarch_dataModel_stateMachineModelNode"><rect codeLine="31" fill="#F1F1F1" height="48" id="overarch_dataModel_stateMachineModelNode" rx="2.5" ry="2.5" style="stroke:#181818;stroke-width:0.5;" width="198" x="413" y="650.0679"/><ellipse cx="428" cy="666.0679" fill="#A9DCDF" rx="11" ry="11" style="stroke:#181818;stroke-width:1.0;"/><path d="M428.1094,661.4117 L426.9531,666.4898 L429.2813,666.4898 L428.1094,661.4117 Z M426.625,659.1773 L429.6094,659.1773 L432.9688,671.5679 L430.5156,671.5679 L429.75,668.5054 L426.4688,668.5054 L425.7188,671.5679 L423.2813,671.5679 L426.625,659.1773 Z " fill="#000000"/><text fill="#000000" font-family="sans-serif" font-size="14" font-style="italic" lengthAdjust="spacing" textLength="166" x="442" y="671.4999">state-machine-model-node</text><line style="stroke:#181818;stroke-width:0.5;" x1="414" x2="610" y1="682.0679" y2="682.0679"/><line style="stroke:#181818;stroke-width:0.5;" x1="414" x2="610" y1="690.0679" y2="690.0679"/></g><!--class overarch_dataModel_element--><g id="elem_overarch_dataModel_element"><rect codeLine="32" fill="#F1F1F1" height="143.3396" id="overarch_dataModel_element" rx="2.5" ry="2.5" style="stroke:#181818;stroke-width:0.5;" width="133" x="518.5" y="47.0679"/><ellipse cx="556.45" cy="63.0679" fill="#A9DCDF" rx="11" ry="11" style="stroke:#181818;stroke-width:1.0;"/><path d="M556.5594,58.4117 L555.4031,63.4898 L557.7313,63.4898 L556.5594,58.4117 Z M555.075,56.1773 L558.0594,56.1773 L561.4188,68.5679 L558.9656,68.5679 L558.2,65.5054 L554.9188,65.5054 L554.1688,68.5679 L551.7313,68.5679 L555.075,56.1773 Z " fill="#000000"/><text fill="#000000" font-family="sans-serif" font-size="14" font-style="italic" lengthAdjust="spacing" textLength="50" x="575.55" y="68.4999">element</text><line style="stroke:#181818;stroke-width:0.5;" x1="519.5" x2="650.5" y1="79.0679" y2="79.0679"/><text fill="#000000" font-family="sans-serif" font-size="14" lengthAdjust="spacing" textLength="121" x="524.5" y="98.0339">desc : string [0..1]</text><text fill="#000000" font-family="sans-serif" font-size="14" lengthAdjust="spacing" textLength="114" x="524.5" y="117.1018">doc : string [0..1]</text><text fill="#000000" font-family="sans-serif" font-size="14" lengthAdjust="spacing" textLength="80" x="524.5" y="136.1697">el : keyword</text><text fill="#000000" font-family="sans-serif" font-size="14" lengthAdjust="spacing" textLength="81" x="524.5" y="155.2376">id : keyword</text><text fill="#000000" font-family="sans-serif" font-size="14" lengthAdjust="spacing" textLength="90" x="524.5" y="174.3055">name : string</text><line style="stroke:#181818;stroke-width:0.5;" x1="519.5" x2="650.5" y1="182.4075" y2="182.4075"/></g><!--class overarch_dataModel_startState--><g id="elem_overarch_dataModel_startState"><rect codeLine="39" fill="#F1F1F1" height="48" id="overarch_dataModel_startState" rx="2.5" ry="2.5" style="stroke:#181818;stroke-width:0.5;" width="101" x="927.5" y="767.5679"/><ellipse cx="942.5" cy="783.5679" fill="#ADD1B2" rx="11" ry="11" style="stroke:#181818;stroke-width:1.0;"/><path d="M945.4688,789.2085 Q944.8906,789.5054 944.25,789.646 Q943.6094,789.8023 942.9063,789.8023 Q940.4063,789.8023 939.0781,788.1617 Q937.7656,786.5054 937.7656,783.3804 Q937.7656,780.2554 939.0781,778.5992 Q940.4063,776.9429 942.9063,776.9429 Q943.6094,776.9429 944.25,777.0992 Q944.9063,777.2554 945.4688,777.5523 L945.4688,780.271 Q944.8438,779.6929 944.25,779.4273 Q943.6563,779.146 943.0313,779.146 Q941.6875,779.146 941,780.2242 Q940.3125,781.2867 940.3125,783.3804 Q940.3125,785.4742 941,786.5523 Q941.6875,787.6148 943.0313,787.6148 Q943.6563,787.6148 944.25,787.3492 Q944.8438,787.0679 945.4688,786.4898 L945.4688,789.2085 Z " fill="#000000"/><text fill="#000000" font-family="sans-serif" font-size="14" lengthAdjust="spacing" textLength="69" x="956.5" y="788.9999">start-state</text><line style="stroke:#181818;stroke-width:0.5;" x1="928.5" x2="1027.5" y1="799.5679" y2="799.5679"/><line style="stroke:#181818;stroke-width:0.5;" x1="928.5" x2="1027.5" y1="807.5679" y2="807.5679"/></g><!--reverse link overarch_dataModel_stateMachineModelNode to overarch_dataModel_choice--><g id="link_overarch_dataModel_stateMachineModelNode_overarch_dataModel_choice"><path codeLine="40" d="M512,716.1679 C512,733.2779 512,738.8379 512,757.8879 " fill="none" id="overarch_dataModel_stateMachineModelNode-backto-overarch_dataModel_choice" style="stroke:#181818;stroke-width:1.0;"/><polygon fill="none" points="512,698.1679,506,716.1679,518,716.1679,512,698.1679" style="stroke:#181818;stroke-width:1.0;"/></g><!--reverse link overarch_dataModel_element to overarch_dataModel_modelElement--><g id="link_overarch_dataModel_element_overarch_dataModel_modelElement"><path codeLine="41" d="M585,208.2279 C585,228.5079 585,231.9879 585,249.9579 " fill="none" id="overarch_dataModel_element-backto-overarch_dataModel_modelElement" style="stroke:#181818;stroke-width:1.0;"/><polygon fill="none" points="585,190.2279,579,208.2279,591,208.2279,585,190.2279" style="stroke:#181818;stroke-width:1.0;"/></g><!--reverse link overarch_dataModel_modelElement to overarch_dataModel_modelNode--><g id="link_overarch_dataModel_modelElement_overarch_dataModel_modelNode"><path codeLine="42" d="M509.7803,347.2655 C487.7403,364.2755 477.9,374.0879 459,396.0679 C418.99,442.6079 386.18,507.5379 370.31,541.7879 " fill="none" id="overarch_dataModel_modelElement-backto-overarch_dataModel_modelNode" style="stroke:#181818;stroke-width:1.0;"/><polygon fill="none" points="524.03,336.2679,506.1145,342.5156,513.4462,352.0154,524.03,336.2679" style="stroke:#181818;stroke-width:1.0;"/></g><!--reverse link overarch_dataModel_stateMachineModelRelation to overarch_dataModel_transition--><g id="link_overarch_dataModel_stateMachineModelRelation_overarch_dataModel_transition"><path codeLine="43" d="M791,608.0679 C791,625.7279 791,632.0079 791,649.7479 " fill="none" id="overarch_dataModel_stateMachineModelRelation-backto-overarch_dataModel_transition" style="stroke:#181818;stroke-width:1.0;"/><polygon fill="none" points="791,590.0679,785,608.0679,797,608.0679,791,590.0679" style="stroke:#181818;stroke-width:1.0;"/></g><!--reverse link overarch_dataModel_stateMachineModelElement to overarch_dataModel_stateMachine--><g id="link_overarch_dataModel_stateMachineModelElement_overarch_dataModel_stateMachine"><path codeLine="44" d="M562.363,478.8317 C549.253,501.2817 538.57,519.5679 525.49,541.9779 " fill="none" id="overarch_dataModel_stateMachineModelElement-backto-overarch_dataModel_stateMachine" style="stroke:#181818;stroke-width:1.0;"/><polygon fill="none" points="571.44,463.2879,557.1818,475.806,567.5443,481.8573,571.44,463.2879" style="stroke:#181818;stroke-width:1.0;"/></g><!--reverse link overarch_dataModel_stateMachineModelNode to overarch_dataModel_endState--><g id="link_overarch_dataModel_stateMachineModelNode_overarch_dataModel_endState"><path codeLine="45" d="M614.9351,703.0811 C667.6551,718.1711 718.92,734.4679 778,758.0679 C785,760.8679 792.28,764.0979 799.33,767.4179 " fill="none" id="overarch_dataModel_stateMachineModelNode-backto-overarch_dataModel_endState" style="stroke:#181818;stroke-width:1.0;"/><polygon fill="none" points="597.63,698.1279,613.284,708.8495,616.5861,697.3128,597.63,698.1279" style="stroke:#181818;stroke-width:1.0;"/></g><!--reverse link overarch_dataModel_stateMachineModelNode to overarch_dataModel_fork--><g id="link_overarch_dataModel_stateMachineModelNode_overarch_dataModel_fork"><path codeLine="46" d="M582.1522,705.5776 C616.8922,721.1676 646.25,735.5679 685,758.0679 C690.92,761.5079 697.06,765.4479 702.88,769.3779 " fill="none" id="overarch_dataModel_stateMachineModelNode-backto-overarch_dataModel_fork" style="stroke:#181818;stroke-width:1.0;"/><polygon fill="none" points="565.73,698.2079,579.6956,711.0516,584.6087,700.1035,565.73,698.2079" style="stroke:#181818;stroke-width:1.0;"/></g><!--reverse link overarch_dataModel_modelElement to overarch_dataModel_modelRelation--><g id="link_overarch_dataModel_modelElement_overarch_dataModel_modelRelation"><path codeLine="47" d="M659.8944,346.4185 C686.8544,365.2585 703.82,377.1279 730.79,395.9779 " fill="none" id="overarch_dataModel_modelElement-backto-overarch_dataModel_modelRelation" style="stroke:#181818;stroke-width:1.0;"/><polygon fill="none" points="645.14,336.1079,656.4575,351.3366,663.3313,341.5003,645.14,336.1079" style="stroke:#181818;stroke-width:1.0;"/></g><!--reverse link overarch_dataModel_stateMachineModelNode to overarch_dataModel_startState--><g id="link_overarch_dataModel_stateMachineModelNode_overarch_dataModel_startState"><path codeLine="48" d="M628.9497,692.0578 C710.3097,705.1978 810.01,724.9179 909,758.0679 C916.91,760.7179 925.11,764.0279 932.97,767.5179 " fill="none" id="overarch_dataModel_stateMachineModelNode-backto-overarch_dataModel_startState" style="stroke:#181818;stroke-width:1.0;"/><polygon fill="none" points="611.18,689.1879,627.9931,697.9811,629.9064,686.1346,611.18,689.1879" style="stroke:#181818;stroke-width:1.0;"/></g><!--reverse link overarch_dataModel_modelElement to overarch_dataModel_stateMachineModelElement--><g id="link_overarch_dataModel_modelElement_overarch_dataModel_stateMachineModelElement"><path codeLine="49" d="M585,354.1079 C585,379.8379 585,393.7879 585,414.9979 " fill="none" id="overarch_dataModel_modelElement-backto-overarch_dataModel_stateMachineModelElement" style="stroke:#181818;stroke-width:1.0;"/><polygon fill="none" points="585,336.1079,579,354.1079,591,354.1079,585,336.1079" style="stroke:#181818;stroke-width:1.0;"/></g><!--reverse link overarch_dataModel_stateMachineModelNode to overarch_dataModel_deepHistoryState--><g id="link_overarch_dataModel_stateMachineModelNode_overarch_dataModel_deepHistoryState"><path codeLine="50" d="M461.7596,708.0414 C431.0596,728.1814 401.81,747.3779 371.13,767.5079 " fill="none" id="overarch_dataModel_stateMachineModelNode-backto-overarch_dataModel_deepHistoryState" style="stroke:#181818;stroke-width:1.0;"/><polygon fill="none" points="476.81,698.1679,458.4684,703.0246,465.0507,713.0582,476.81,698.1679" style="stroke:#181818;stroke-width:1.0;"/></g><!--link overarch_dataModel_state to overarch_dataModel_stateMachineModelNode--><g id="link_overarch_dataModel_state_overarch_dataModel_stateMachineModelNode"><path codeLine="51" d="M233.9683,772.0583 C245.4783,765.4283 247.27,763.5379 259,758.0679 C314.06,732.3579 373.2891,713.7445 423.8091,699.7045 " fill="none" id="overarch_dataModel_state-overarch_dataModel_stateMachineModelNode" style="stroke:#181818;stroke-width:1.0;"/><polygon fill="#181818" points="223.57,778.0479,230.7657,778.5192,233.9683,772.0583,226.7726,771.587,223.57,778.0479" style="stroke:#181818;stroke-width:1.0;"/><polygon fill="#181818" points="429.59,698.0979,419.8476,696.6538,424.7726,699.4367,421.9897,704.3617,429.59,698.0979" style="stroke:#181818;stroke-width:1.0;"/><text fill="#000000" font-family="sans-serif" font-size="13" lengthAdjust="spacing" textLength="21" x="385.9432" y="720.0102">1..n</text></g><!--reverse link overarch_dataModel_stateMachineModelNode to overarch_dataModel_state--><g id="link_overarch_dataModel_stateMachineModelNode_overarch_dataModel_state"><path codeLine="58" d="M395.3247,698.8024 C338.2547,712.8924 283.97,730.0679 224,758.0679 C218.18,760.7879 212.25,764.0879 206.84,767.5379 " fill="none" id="overarch_dataModel_stateMachineModelNode-backto-overarch_dataModel_state" style="stroke:#181818;stroke-width:1.0;"/><polygon fill="none" points="412.8,694.4879,393.8866,692.9773,396.7629,704.6275,412.8,694.4879" style="stroke:#181818;stroke-width:1.0;"/></g><!--reverse link overarch_dataModel_modelRelation to overarch_dataModel_stateMachineModelRelation--><g id="link_overarch_dataModel_modelRelation_overarch_dataModel_stateMachineModelRelation"><path codeLine="52" d="M791,500.3879 C791,520.2179 791,525.0879 791,541.7379 " fill="none" id="overarch_dataModel_modelRelation-backto-overarch_dataModel_stateMachineModelRelation" style="stroke:#181818;stroke-width:1.0;"/><polygon fill="none" points="791,482.3879,785,500.3879,797,500.3879,791,482.3879" style="stroke:#181818;stroke-width:1.0;"/></g><!--reverse link overarch_dataModel_stateMachineModelElement to overarch_dataModel_stateMachineModelRelation--><g id="link_overarch_dataModel_stateMachineModelElement_overarch_dataModel_stateMachineModelRelation"><path codeLine="53" d="M638.6499,472.6233 C675.6599,495.0733 716.01,519.5679 752.94,541.9779 " fill="none" id="overarch_dataModel_stateMachineModelElement-backto-overarch_dataModel_stateMachineModelRelation" style="stroke:#181818;stroke-width:1.0;"/><polygon fill="none" points="623.26,463.2879,635.5381,477.7533,641.7617,467.4934,623.26,463.2879" style="stroke:#181818;stroke-width:1.0;"/></g><!--link overarch_dataModel_stateMachine to overarch_dataModel_stateMachineModelNode--><g id="link_overarch_dataModel_stateMachine_overarch_dataModel_stateMachineModelNode"><path codeLine="54" d="M512,602.0679 C512,619.7279 512,626.0079 512,643.7479 " fill="none" id="overarch_dataModel_stateMachine-overarch_dataModel_stateMachineModelNode" style="stroke:#181818;stroke-width:1.0;"/><polygon fill="#181818" points="512,590.0679,508,596.0679,512,602.0679,516,596.0679,512,590.0679" style="stroke:#181818;stroke-width:1.0;"/><polygon fill="#181818" points="512,649.7479,516,640.7479,512,644.7479,508,640.7479,512,649.7479" style="stroke:#181818;stroke-width:1.0;"/><text fill="#000000" font-family="sans-serif" font-size="13" lengthAdjust="spacing" textLength="21" x="488.3094" y="638.3253">1..n</text></g><!--reverse link overarch_dataModel_modelNode to overarch_dataModel_stateMachineModelNode--><g id="link_overarch_dataModel_modelNode_overarch_dataModel_stateMachineModelNode"><path codeLine="55" d="M407.7444,600.3641 C433.1544,618.0841 453.36,632.1779 478.82,649.9279 " fill="none" id="overarch_dataModel_modelNode-backto-overarch_dataModel_stateMachineModelNode" style="stroke:#181818;stroke-width:1.0;"/><polygon fill="none" points="392.98,590.0679,404.3124,605.2856,411.1765,595.4426,392.98,590.0679" style="stroke:#181818;stroke-width:1.0;"/></g><!--reverse link overarch_dataModel_stateMachineModelElement to overarch_dataModel_stateMachineModelNode--><g id="link_overarch_dataModel_stateMachineModelElement_overarch_dataModel_stateMachineModelNode"><path codeLine="56" d="M596.7594,480.5724 C604.8394,510.9324 610.16,547.9179 593,590.0679 C583.21,614.1279 562.72,635.0079 544.79,649.8179 " fill="none" id="overarch_dataModel_stateMachineModelElement-backto-overarch_dataModel_stateMachineModelNode" style="stroke:#181818;stroke-width:1.0;"/><polygon fill="none" points="592.13,463.1779,590.9612,482.1155,602.5575,479.0293,592.13,463.1779" style="stroke:#181818;stroke-width:1.0;"/></g><!--reverse link overarch_dataModel_stateMachineModelNode to overarch_dataModel_historyState--><g id="link_overarch_dataModel_stateMachineModelNode_overarch_dataModel_historyState"><path codeLine="57" d="M394.9602,695.4754 C319.4702,709.6754 231.29,728.9379 141,758.0679 C132.67,760.7579 123.99,764.0079 115.61,767.4079 " fill="none" id="overarch_dataModel_stateMachineModelNode-backto-overarch_dataModel_historyState" style="stroke:#181818;stroke-width:1.0;"/><polygon fill="none" points="412.65,692.1479,393.8511,689.5789,396.0694,701.372,412.65,692.1479" style="stroke:#181818;stroke-width:1.0;"/></g><!--reverse link overarch_dataModel_stateMachineModelNode to overarch_dataModel_join--><g id="link_overarch_dataModel_stateMachineModelNode_overarch_dataModel_join"><path codeLine="59" d="M550.7178,710.2772 C572.8678,730.4172 591.51,747.3779 613.65,767.5079 " fill="none" id="overarch_dataModel_stateMachineModelNode-backto-overarch_dataModel_join" style="stroke:#181818;stroke-width:1.0;"/><polygon fill="none" points="537.4,698.1679,546.6814,714.7165,554.7543,705.8379,537.4,698.1679" style="stroke:#181818;stroke-width:1.0;"/></g><!--SRC=[hLPDJyCm3BtdLqGx8gLYLuIu8N610nmHcaAIhO4sGOa1JR3_JjBlVIHDwIwTcjZFzlEpEv1G2Fm450I-fooNolrgBWfyMuXIAB08iO9QYnUvjA3DbbXllC3KOlqb33KiNt4AjF9QDKOruCyEqLSBXZB03KZbJCew4Ycz3n5rf11avTBaLfqqcPs2Jm8izq0GnYM5JoDXYw_mkzX-QyFnysMMBL_S7T2DTUTMG7ksQmdXGdoG95QyvTq1Cmq8oxLaGSVwjagIQSKbIAryDc2aslIPH8FRWuXxBKWXFKoqSiyeom_k4NOteg2-eYZ4OsDKaR0skkoxvDkZ1wzTYMzQ1a7ztO2DjJRl8LD_bohYiLgELDpNrUNYWYWhOoYznS1DA1wNdpEOD92njXxL4Mhno12AmVnnOLcdwdxqk3vrwbRJK02IxxqgMehJ0sA0Z8s9WOwcvCglVma9JowAL1xo7AudDBQ-eY0-GJH9Yo6uNdTeoeOEmGqTvbFTodi-aX_uUPItJCxFfTVZlpCAzML-SeSVj20YlY3a1kF5CilSKakDYqO_1iabJsh8P49JqSzCmvXmqg3cbv-C74quJn7IbBav1up_c_07]--></g></svg>