<?xml version="1.0" encoding="us-ascii" standalone="no"?><svg xmlns="http://www.w3.org/2000/svg" xmlns:xlink="http://www.w3.org/1999/xlink" contentStyleType="text/css" height="737px" preserveAspectRatio="none" style="width:1179px;height:737px;background:#FFFFFF;" version="1.1" viewBox="0 0 1179 737" width="1179px" zoomAndPan="magnify"><defs/><g><text fill="#000000" font-family="sans-serif" font-size="14" font-weight="bold" lengthAdjust="spacing" textLength="240" x="462.75" y="22.9951">State Machine Model Elements</text><!--class overarch_dataModel_element--><g id="elem_overarch_dataModel_element"><rect codeLine="7" fill="#F1F1F1" height="64.2969" id="overarch_dataModel_element" rx="2.5" ry="2.5" style="stroke:#181818;stroke-width:0.5;" width="95" x="859" y="44.2969"/><ellipse cx="876.7" cy="60.2969" fill="#A9DCDF" rx="11" ry="11" style="stroke:#181818;stroke-width:1.0;"/><path d="M876.8094,55.6406 L875.6531,60.7188 L877.9813,60.7188 L876.8094,55.6406 Z M875.325,53.4063 L878.3094,53.4063 L881.6688,65.7969 L879.2156,65.7969 L878.45,62.7344 L875.1688,62.7344 L874.4188,65.7969 L871.9813,65.7969 L875.325,53.4063 Z " fill="#000000"/><text fill="#000000" font-family="sans-serif" font-size="14" font-style="italic" lengthAdjust="spacing" textLength="57" x="891.3" y="65.1436">element</text><line style="stroke:#181818;stroke-width:0.5;" x1="860" x2="953" y1="76.2969" y2="76.2969"/><text fill="#000000" font-family="sans-serif" font-size="14" lengthAdjust="spacing" textLength="83" x="865" y="93.292">el : keyword</text><line style="stroke:#181818;stroke-width:0.5;" x1="860" x2="953" y1="100.5938" y2="100.5938"/></g><!--class overarch_dataModel_identifiableElement--><g id="elem_overarch_dataModel_identifiableElement"><rect codeLine="10" fill="#F1F1F1" height="64.2969" id="overarch_dataModel_identifiableElement" rx="2.5" ry="2.5" style="stroke:#181818;stroke-width:0.5;" width="168" x="917.5" y="176.7969"/><ellipse cx="932.5" cy="192.7969" fill="#A9DCDF" rx="11" ry="11" style="stroke:#181818;stroke-width:1.0;"/><path d="M932.6094,188.1406 L931.4531,193.2188 L933.7813,193.2188 L932.6094,188.1406 Z M931.125,185.9063 L934.1094,185.9063 L937.4688,198.2969 L935.0156,198.2969 L934.25,195.2344 L930.9688,195.2344 L930.2188,198.2969 L927.7813,198.2969 L931.125,185.9063 Z " fill="#000000"/><text fill="#000000" font-family="sans-serif" font-size="14" font-style="italic" lengthAdjust="spacing" textLength="136" x="946.5" y="197.6436">identifiable-element</text><line style="stroke:#181818;stroke-width:0.5;" x1="918.5" x2="1084.5" y1="208.7969" y2="208.7969"/><text fill="#000000" font-family="sans-serif" font-size="14" lengthAdjust="spacing" textLength="83" x="923.5" y="225.792">id : keyword</text><line style="stroke:#181818;stroke-width:0.5;" x1="918.5" x2="1084.5" y1="233.0938" y2="233.0938"/></g><!--class overarch_dataModel_namedElement--><g id="elem_overarch_dataModel_namedElement"><rect codeLine="13" fill="#F1F1F1" height="80.5938" id="overarch_dataModel_namedElement" rx="2.5" ry="2.5" style="stroke:#181818;stroke-width:0.5;" width="142" x="740.5" y="168.2969"/><ellipse cx="755.5" cy="184.2969" fill="#A9DCDF" rx="11" ry="11" style="stroke:#181818;stroke-width:1.0;"/><path d="M755.6094,179.6406 L754.4531,184.7188 L756.7813,184.7188 L755.6094,179.6406 Z M754.125,177.4063 L757.1094,177.4063 L760.4688,189.7969 L758.0156,189.7969 L757.25,186.7344 L753.9688,186.7344 L753.2188,189.7969 L750.7813,189.7969 L754.125,177.4063 Z " fill="#000000"/><text fill="#000000" font-family="sans-serif" font-size="14" font-style="italic" lengthAdjust="spacing" textLength="110" x="769.5" y="189.1436">named-element</text><line style="stroke:#181818;stroke-width:0.5;" x1="741.5" x2="881.5" y1="200.2969" y2="200.2969"/><text fill="#000000" font-family="sans-serif" font-size="14" lengthAdjust="spacing" textLength="91" x="746.5" y="217.292">name : string</text><text fill="#000000" font-family="sans-serif" font-size="14" lengthAdjust="spacing" textLength="126" x="746.5" y="233.5889">desc : string [0..1]</text><line style="stroke:#181818;stroke-width:0.5;" x1="741.5" x2="881.5" y1="240.8906" y2="240.8906"/></g><!--class overarch_dataModel_identifiableNamedElement--><g id="elem_overarch_dataModel_identifiableNamedElement"><rect codeLine="17" fill="#F1F1F1" height="48" id="overarch_dataModel_identifiableNamedElement" rx="2.5" ry="2.5" style="stroke:#181818;stroke-width:0.5;" width="221" x="701" y="325.7969"/><ellipse cx="716" cy="341.7969" fill="#A9DCDF" rx="11" ry="11" style="stroke:#181818;stroke-width:1.0;"/><path d="M716.1094,337.1406 L714.9531,342.2188 L717.2813,342.2188 L716.1094,337.1406 Z M714.625,334.9063 L717.6094,334.9063 L720.9688,347.2969 L718.5156,347.2969 L717.75,344.2344 L714.4688,344.2344 L713.7188,347.2969 L711.2813,347.2969 L714.625,334.9063 Z " fill="#000000"/><text fill="#000000" font-family="sans-serif" font-size="14" font-style="italic" lengthAdjust="spacing" textLength="189" x="730" y="346.6436">identifiable-named-element</text><line style="stroke:#181818;stroke-width:0.5;" x1="702" x2="921" y1="357.7969" y2="357.7969"/><line style="stroke:#181818;stroke-width:0.5;" x1="702" x2="921" y1="365.7969" y2="365.7969"/></g><!--class overarch_dataModel_relationalElement--><g id="elem_overarch_dataModel_relationalElement"><rect codeLine="18" fill="#F1F1F1" height="80.5938" id="overarch_dataModel_relationalElement" rx="2.5" ry="2.5" style="stroke:#181818;stroke-width:0.5;" width="156" x="957.5" y="309.2969"/><ellipse cx="972.5" cy="325.2969" fill="#A9DCDF" rx="11" ry="11" style="stroke:#181818;stroke-width:1.0;"/><path d="M972.6094,320.6406 L971.4531,325.7188 L973.7813,325.7188 L972.6094,320.6406 Z M971.125,318.4063 L974.1094,318.4063 L977.4688,330.7969 L975.0156,330.7969 L974.25,327.7344 L970.9688,327.7344 L970.2188,330.7969 L967.7813,330.7969 L971.125,318.4063 Z " fill="#000000"/><text fill="#000000" font-family="sans-serif" font-size="14" font-style="italic" lengthAdjust="spacing" textLength="124" x="986.5" y="330.1436">relational-element</text><line style="stroke:#181818;stroke-width:0.5;" x1="958.5" x2="1112.5" y1="341.2969" y2="341.2969"/><text fill="#000000" font-family="sans-serif" font-size="14" lengthAdjust="spacing" textLength="102" x="963.5" y="358.292">from : keyword</text><text fill="#000000" font-family="sans-serif" font-size="14" lengthAdjust="spacing" textLength="85" x="963.5" y="374.5889">to : keyword</text><line style="stroke:#181818;stroke-width:0.5;" x1="958.5" x2="1112.5" y1="381.8906" y2="381.8906"/></g><!--class overarch_dataModel_stateMachineModelElement--><g id="elem_overarch_dataModel_stateMachineModelElement"><rect codeLine="22" fill="#F1F1F1" height="48" id="overarch_dataModel_stateMachineModelElement" rx="2.5" ry="2.5" style="stroke:#181818;stroke-width:0.5;" width="240" x="691.5" y="450.2969"/><ellipse cx="706.5" cy="466.2969" fill="#A9DCDF" rx="11" ry="11" style="stroke:#181818;stroke-width:1.0;"/><path d="M706.6094,461.6406 L705.4531,466.7188 L707.7813,466.7188 L706.6094,461.6406 Z M705.125,459.4063 L708.1094,459.4063 L711.4688,471.7969 L709.0156,471.7969 L708.25,468.7344 L704.9688,468.7344 L704.2188,471.7969 L701.7813,471.7969 L705.125,459.4063 Z " fill="#000000"/><text fill="#000000" font-family="sans-serif" font-size="14" font-style="italic" lengthAdjust="spacing" textLength="208" x="720.5" y="471.1436">state-machine-model-element</text><line style="stroke:#181818;stroke-width:0.5;" x1="692.5" x2="930.5" y1="482.2969" y2="482.2969"/><line style="stroke:#181818;stroke-width:0.5;" x1="692.5" x2="930.5" y1="490.2969" y2="490.2969"/></g><!--class overarch_dataModel_stateMachineModelNode--><g id="elem_overarch_dataModel_stateMachineModelNode"><rect codeLine="23" fill="#F1F1F1" height="48" id="overarch_dataModel_stateMachineModelNode" rx="2.5" ry="2.5" style="stroke:#181818;stroke-width:0.5;" width="219" x="347" y="558.2969"/><ellipse cx="362" cy="574.2969" fill="#A9DCDF" rx="11" ry="11" style="stroke:#181818;stroke-width:1.0;"/><path d="M362.1094,569.6406 L360.9531,574.7188 L363.2813,574.7188 L362.1094,569.6406 Z M360.625,567.4063 L363.6094,567.4063 L366.9688,579.7969 L364.5156,579.7969 L363.75,576.7344 L360.4688,576.7344 L359.7188,579.7969 L357.2813,579.7969 L360.625,567.4063 Z " fill="#000000"/><text fill="#000000" font-family="sans-serif" font-size="14" font-style="italic" lengthAdjust="spacing" textLength="187" x="376" y="579.1436">state-machine-model-node</text><line style="stroke:#181818;stroke-width:0.5;" x1="348" x2="565" y1="590.2969" y2="590.2969"/><line style="stroke:#181818;stroke-width:0.5;" x1="348" x2="565" y1="598.2969" y2="598.2969"/></g><!--class overarch_dataModel_stateMachineModelRelation--><g id="elem_overarch_dataModel_stateMachineModelRelation"><rect codeLine="24" fill="#F1F1F1" height="48" id="overarch_dataModel_stateMachineModelRelation" rx="2.5" ry="2.5" style="stroke:#181818;stroke-width:0.5;" width="234" x="918.5" y="558.2969"/><ellipse cx="933.5" cy="574.2969" fill="#A9DCDF" rx="11" ry="11" style="stroke:#181818;stroke-width:1.0;"/><path d="M933.6094,569.6406 L932.4531,574.7188 L934.7813,574.7188 L933.6094,569.6406 Z M932.125,567.4063 L935.1094,567.4063 L938.4688,579.7969 L936.0156,579.7969 L935.25,576.7344 L931.9688,576.7344 L931.2188,579.7969 L928.7813,579.7969 L932.125,567.4063 Z " fill="#000000"/><text fill="#000000" font-family="sans-serif" font-size="14" font-style="italic" lengthAdjust="spacing" textLength="202" x="947.5" y="579.1436">state-machine-model-relation</text><line style="stroke:#181818;stroke-width:0.5;" x1="919.5" x2="1151.5" y1="590.2969" y2="590.2969"/><line style="stroke:#181818;stroke-width:0.5;" x1="919.5" x2="1151.5" y1="598.2969" y2="598.2969"/></g><!--class overarch_dataModel_stateMachine--><g id="elem_overarch_dataModel_stateMachine"><rect codeLine="25" fill="#F1F1F1" height="48" id="overarch_dataModel_stateMachine" rx="2.5" ry="2.5" style="stroke:#181818;stroke-width:0.5;" width="131" x="391" y="450.2969"/><ellipse cx="406" cy="466.2969" fill="#ADD1B2" rx="11" ry="11" style="stroke:#181818;stroke-width:1.0;"/><path d="M408.9688,471.9375 Q408.3906,472.2344 407.75,472.375 Q407.1094,472.5313 406.4063,472.5313 Q403.9063,472.5313 402.5781,470.8906 Q401.2656,469.2344 401.2656,466.1094 Q401.2656,462.9844 402.5781,461.3281 Q403.9063,459.6719 406.4063,459.6719 Q407.1094,459.6719 407.75,459.8281 Q408.4063,459.9844 408.9688,460.2813 L408.9688,463 Q408.3438,462.4219 407.75,462.1563 Q407.1563,461.875 406.5313,461.875 Q405.1875,461.875 404.5,462.9531 Q403.8125,464.0156 403.8125,466.1094 Q403.8125,468.2031 404.5,469.2813 Q405.1875,470.3438 406.5313,470.3438 Q407.1563,470.3438 407.75,470.0781 Q408.3438,469.7969 408.9688,469.2188 L408.9688,471.9375 Z " fill="#000000"/><text fill="#000000" font-family="sans-serif" font-size="14" lengthAdjust="spacing" textLength="99" x="420" y="471.1436">state-machine</text><line style="stroke:#181818;stroke-width:0.5;" x1="392" x2="521" y1="482.2969" y2="482.2969"/><line style="stroke:#181818;stroke-width:0.5;" x1="392" x2="521" y1="490.2969" y2="490.2969"/></g><!--class overarch_dataModel_startState--><g id="elem_overarch_dataModel_startState"><rect codeLine="26" fill="#F1F1F1" height="48" id="overarch_dataModel_startState" rx="2.5" ry="2.5" style="stroke:#181818;stroke-width:0.5;" width="103" x="7" y="674.2969"/><ellipse cx="22" cy="690.2969" fill="#ADD1B2" rx="11" ry="11" style="stroke:#181818;stroke-width:1.0;"/><path d="M24.9688,695.9375 Q24.3906,696.2344 23.75,696.375 Q23.1094,696.5313 22.4063,696.5313 Q19.9063,696.5313 18.5781,694.8906 Q17.2656,693.2344 17.2656,690.1094 Q17.2656,686.9844 18.5781,685.3281 Q19.9063,683.6719 22.4063,683.6719 Q23.1094,683.6719 23.75,683.8281 Q24.4063,683.9844 24.9688,684.2813 L24.9688,687 Q24.3438,686.4219 23.75,686.1563 Q23.1563,685.875 22.5313,685.875 Q21.1875,685.875 20.5,686.9531 Q19.8125,688.0156 19.8125,690.1094 Q19.8125,692.2031 20.5,693.2813 Q21.1875,694.3438 22.5313,694.3438 Q23.1563,694.3438 23.75,694.0781 Q24.3438,693.7969 24.9688,693.2188 L24.9688,695.9375 Z " fill="#000000"/><text fill="#000000" font-family="sans-serif" font-size="14" lengthAdjust="spacing" textLength="71" x="36" y="695.1436">start-state</text><line style="stroke:#181818;stroke-width:0.5;" x1="8" x2="109" y1="706.2969" y2="706.2969"/><line style="stroke:#181818;stroke-width:0.5;" x1="8" x2="109" y1="714.2969" y2="714.2969"/></g><!--class overarch_dataModel_state--><g id="elem_overarch_dataModel_state"><rect codeLine="27" fill="#F1F1F1" height="48" id="overarch_dataModel_state" rx="2.5" ry="2.5" style="stroke:#181818;stroke-width:0.5;" width="67" x="145" y="674.2969"/><ellipse cx="160" cy="690.2969" fill="#ADD1B2" rx="11" ry="11" style="stroke:#181818;stroke-width:1.0;"/><path d="M162.9688,695.9375 Q162.3906,696.2344 161.75,696.375 Q161.1094,696.5313 160.4063,696.5313 Q157.9063,696.5313 156.5781,694.8906 Q155.2656,693.2344 155.2656,690.1094 Q155.2656,686.9844 156.5781,685.3281 Q157.9063,683.6719 160.4063,683.6719 Q161.1094,683.6719 161.75,683.8281 Q162.4063,683.9844 162.9688,684.2813 L162.9688,687 Q162.3438,686.4219 161.75,686.1563 Q161.1563,685.875 160.5313,685.875 Q159.1875,685.875 158.5,686.9531 Q157.8125,688.0156 157.8125,690.1094 Q157.8125,692.2031 158.5,693.2813 Q159.1875,694.3438 160.5313,694.3438 Q161.1563,694.3438 161.75,694.0781 Q162.3438,693.7969 162.9688,693.2188 L162.9688,695.9375 Z " fill="#000000"/><text fill="#000000" font-family="sans-serif" font-size="14" lengthAdjust="spacing" textLength="35" x="174" y="695.1436">state</text><line style="stroke:#181818;stroke-width:0.5;" x1="146" x2="211" y1="706.2969" y2="706.2969"/><line style="stroke:#181818;stroke-width:0.5;" x1="146" x2="211" y1="714.2969" y2="714.2969"/></g><!--class overarch_dataModel_endState--><g id="elem_overarch_dataModel_endState"><rect codeLine="28" fill="#F1F1F1" height="48" id="overarch_dataModel_endState" rx="2.5" ry="2.5" style="stroke:#181818;stroke-width:0.5;" width="99" x="247" y="674.2969"/><ellipse cx="262" cy="690.2969" fill="#ADD1B2" rx="11" ry="11" style="stroke:#181818;stroke-width:1.0;"/><path d="M264.9688,695.9375 Q264.3906,696.2344 263.75,696.375 Q263.1094,696.5313 262.4063,696.5313 Q259.9063,696.5313 258.5781,694.8906 Q257.2656,693.2344 257.2656,690.1094 Q257.2656,686.9844 258.5781,685.3281 Q259.9063,683.6719 262.4063,683.6719 Q263.1094,683.6719 263.75,683.8281 Q264.4063,683.9844 264.9688,684.2813 L264.9688,687 Q264.3438,686.4219 263.75,686.1563 Q263.1563,685.875 262.5313,685.875 Q261.1875,685.875 260.5,686.9531 Q259.8125,688.0156 259.8125,690.1094 Q259.8125,692.2031 260.5,693.2813 Q261.1875,694.3438 262.5313,694.3438 Q263.1563,694.3438 263.75,694.0781 Q264.3438,693.7969 264.9688,693.2188 L264.9688,695.9375 Z " fill="#000000"/><text fill="#000000" font-family="sans-serif" font-size="14" lengthAdjust="spacing" textLength="67" x="276" y="695.1436">end-state</text><line style="stroke:#181818;stroke-width:0.5;" x1="248" x2="345" y1="706.2969" y2="706.2969"/><line style="stroke:#181818;stroke-width:0.5;" x1="248" x2="345" y1="714.2969" y2="714.2969"/></g><!--class overarch_dataModel_fork--><g id="elem_overarch_dataModel_fork"><rect codeLine="29" fill="#F1F1F1" height="48" id="overarch_dataModel_fork" rx="2.5" ry="2.5" style="stroke:#181818;stroke-width:0.5;" width="58" x="381.5" y="674.2969"/><ellipse cx="396.5" cy="690.2969" fill="#ADD1B2" rx="11" ry="11" style="stroke:#181818;stroke-width:1.0;"/><path d="M399.4688,695.9375 Q398.8906,696.2344 398.25,696.375 Q397.6094,696.5313 396.9063,696.5313 Q394.4063,696.5313 393.0781,694.8906 Q391.7656,693.2344 391.7656,690.1094 Q391.7656,686.9844 393.0781,685.3281 Q394.4063,683.6719 396.9063,683.6719 Q397.6094,683.6719 398.25,683.8281 Q398.9063,683.9844 399.4688,684.2813 L399.4688,687 Q398.8438,686.4219 398.25,686.1563 Q397.6563,685.875 397.0313,685.875 Q395.6875,685.875 395,686.9531 Q394.3125,688.0156 394.3125,690.1094 Q394.3125,692.2031 395,693.2813 Q395.6875,694.3438 397.0313,694.3438 Q397.6563,694.3438 398.25,694.0781 Q398.8438,693.7969 399.4688,693.2188 L399.4688,695.9375 Z " fill="#000000"/><text fill="#000000" font-family="sans-serif" font-size="14" lengthAdjust="spacing" textLength="26" x="410.5" y="695.1436">fork</text><line style="stroke:#181818;stroke-width:0.5;" x1="382.5" x2="438.5" y1="706.2969" y2="706.2969"/><line style="stroke:#181818;stroke-width:0.5;" x1="382.5" x2="438.5" y1="714.2969" y2="714.2969"/></g><!--class overarch_dataModel_join--><g id="elem_overarch_dataModel_join"><rect codeLine="30" fill="#F1F1F1" height="48" id="overarch_dataModel_join" rx="2.5" ry="2.5" style="stroke:#181818;stroke-width:0.5;" width="56" x="474.5" y="674.2969"/><ellipse cx="489.5" cy="690.2969" fill="#ADD1B2" rx="11" ry="11" style="stroke:#181818;stroke-width:1.0;"/><path d="M492.4688,695.9375 Q491.8906,696.2344 491.25,696.375 Q490.6094,696.5313 489.9063,696.5313 Q487.4063,696.5313 486.0781,694.8906 Q484.7656,693.2344 484.7656,690.1094 Q484.7656,686.9844 486.0781,685.3281 Q487.4063,683.6719 489.9063,683.6719 Q490.6094,683.6719 491.25,683.8281 Q491.9063,683.9844 492.4688,684.2813 L492.4688,687 Q491.8438,686.4219 491.25,686.1563 Q490.6563,685.875 490.0313,685.875 Q488.6875,685.875 488,686.9531 Q487.3125,688.0156 487.3125,690.1094 Q487.3125,692.2031 488,693.2813 Q488.6875,694.3438 490.0313,694.3438 Q490.6563,694.3438 491.25,694.0781 Q491.8438,693.7969 492.4688,693.2188 L492.4688,695.9375 Z " fill="#000000"/><text fill="#000000" font-family="sans-serif" font-size="14" lengthAdjust="spacing" textLength="24" x="503.5" y="695.1436">join</text><line style="stroke:#181818;stroke-width:0.5;" x1="475.5" x2="529.5" y1="706.2969" y2="706.2969"/><line style="stroke:#181818;stroke-width:0.5;" x1="475.5" x2="529.5" y1="714.2969" y2="714.2969"/></g><!--class overarch_dataModel_choice--><g id="elem_overarch_dataModel_choice"><rect codeLine="31" fill="#F1F1F1" height="64.2969" id="overarch_dataModel_choice" rx="2.5" ry="2.5" style="stroke:#181818;stroke-width:0.5;" width="128" x="565.5" y="666.2969"/><ellipse cx="603" cy="682.2969" fill="#ADD1B2" rx="11" ry="11" style="stroke:#181818;stroke-width:1.0;"/><path d="M605.9688,687.9375 Q605.3906,688.2344 604.75,688.375 Q604.1094,688.5313 603.4063,688.5313 Q600.9063,688.5313 599.5781,686.8906 Q598.2656,685.2344 598.2656,682.1094 Q598.2656,678.9844 599.5781,677.3281 Q600.9063,675.6719 603.4063,675.6719 Q604.1094,675.6719 604.75,675.8281 Q605.4063,675.9844 605.9688,676.2813 L605.9688,679 Q605.3438,678.4219 604.75,678.1563 Q604.1563,677.875 603.5313,677.875 Q602.1875,677.875 601.5,678.9531 Q600.8125,680.0156 600.8125,682.1094 Q600.8125,684.2031 601.5,685.2813 Q602.1875,686.3438 603.5313,686.3438 Q604.1563,686.3438 604.75,686.0781 Q605.3438,685.7969 605.9688,685.2188 L605.9688,687.9375 Z " fill="#000000"/><text fill="#000000" font-family="sans-serif" font-size="14" lengthAdjust="spacing" textLength="46" x="622" y="687.1436">choice</text><line style="stroke:#181818;stroke-width:0.5;" x1="566.5" x2="692.5" y1="698.2969" y2="698.2969"/><text fill="#000000" font-family="sans-serif" font-size="14" lengthAdjust="spacing" textLength="116" x="571.5" y="715.292">condition : string</text><line style="stroke:#181818;stroke-width:0.5;" x1="566.5" x2="692.5" y1="722.5938" y2="722.5938"/></g><!--class overarch_dataModel_historyState--><g id="elem_overarch_dataModel_historyState"><rect codeLine="34" fill="#F1F1F1" height="48" id="overarch_dataModel_historyState" rx="2.5" ry="2.5" style="stroke:#181818;stroke-width:0.5;" width="118" x="728.5" y="674.2969"/><ellipse cx="743.5" cy="690.2969" fill="#ADD1B2" rx="11" ry="11" style="stroke:#181818;stroke-width:1.0;"/><path d="M746.4688,695.9375 Q745.8906,696.2344 745.25,696.375 Q744.6094,696.5313 743.9063,696.5313 Q741.4063,696.5313 740.0781,694.8906 Q738.7656,693.2344 738.7656,690.1094 Q738.7656,686.9844 740.0781,685.3281 Q741.4063,683.6719 743.9063,683.6719 Q744.6094,683.6719 745.25,683.8281 Q745.9063,683.9844 746.4688,684.2813 L746.4688,687 Q745.8438,686.4219 745.25,686.1563 Q744.6563,685.875 744.0313,685.875 Q742.6875,685.875 742,686.9531 Q741.3125,688.0156 741.3125,690.1094 Q741.3125,692.2031 742,693.2813 Q742.6875,694.3438 744.0313,694.3438 Q744.6563,694.3438 745.25,694.0781 Q745.8438,693.7969 746.4688,693.2188 L746.4688,695.9375 Z " fill="#000000"/><text fill="#000000" font-family="sans-serif" font-size="14" lengthAdjust="spacing" textLength="86" x="757.5" y="695.1436">history-state</text><line style="stroke:#181818;stroke-width:0.5;" x1="729.5" x2="845.5" y1="706.2969" y2="706.2969"/><line style="stroke:#181818;stroke-width:0.5;" x1="729.5" x2="845.5" y1="714.2969" y2="714.2969"/></g><!--class overarch_dataModel_deepHistoryState--><g id="elem_overarch_dataModel_deepHistoryState"><rect codeLine="35" fill="#F1F1F1" height="48" id="overarch_dataModel_deepHistoryState" rx="2.5" ry="2.5" style="stroke:#181818;stroke-width:0.5;" width="159" x="882" y="674.2969"/><ellipse cx="897" cy="690.2969" fill="#ADD1B2" rx="11" ry="11" style="stroke:#181818;stroke-width:1.0;"/><path d="M899.9688,695.9375 Q899.3906,696.2344 898.75,696.375 Q898.1094,696.5313 897.4063,696.5313 Q894.9063,696.5313 893.5781,694.8906 Q892.2656,693.2344 892.2656,690.1094 Q892.2656,686.9844 893.5781,685.3281 Q894.9063,683.6719 897.4063,683.6719 Q898.1094,683.6719 898.75,683.8281 Q899.4063,683.9844 899.9688,684.2813 L899.9688,687 Q899.3438,686.4219 898.75,686.1563 Q898.1563,685.875 897.5313,685.875 Q896.1875,685.875 895.5,686.9531 Q894.8125,688.0156 894.8125,690.1094 Q894.8125,692.2031 895.5,693.2813 Q896.1875,694.3438 897.5313,694.3438 Q898.1563,694.3438 898.75,694.0781 Q899.3438,693.7969 899.9688,693.2188 L899.9688,695.9375 Z " fill="#000000"/><text fill="#000000" font-family="sans-serif" font-size="14" lengthAdjust="spacing" textLength="127" x="911" y="695.1436">deep-history-state</text><line style="stroke:#181818;stroke-width:0.5;" x1="883" x2="1040" y1="706.2969" y2="706.2969"/><line style="stroke:#181818;stroke-width:0.5;" x1="883" x2="1040" y1="714.2969" y2="714.2969"/></g><!--class overarch_dataModel_transition--><g id="elem_overarch_dataModel_transition"><rect codeLine="36" fill="#F1F1F1" height="48" id="overarch_dataModel_transition" rx="2.5" ry="2.5" style="stroke:#181818;stroke-width:0.5;" width="96" x="1076.5" y="674.2969"/><ellipse cx="1091.5" cy="690.2969" fill="#ADD1B2" rx="11" ry="11" style="stroke:#181818;stroke-width:1.0;"/><path d="M1094.4688,695.9375 Q1093.8906,696.2344 1093.25,696.375 Q1092.6094,696.5313 1091.9063,696.5313 Q1089.4063,696.5313 1088.0781,694.8906 Q1086.7656,693.2344 1086.7656,690.1094 Q1086.7656,686.9844 1088.0781,685.3281 Q1089.4063,683.6719 1091.9063,683.6719 Q1092.6094,683.6719 1093.25,683.8281 Q1093.9063,683.9844 1094.4688,684.2813 L1094.4688,687 Q1093.8438,686.4219 1093.25,686.1563 Q1092.6563,685.875 1092.0313,685.875 Q1090.6875,685.875 1090,686.9531 Q1089.3125,688.0156 1089.3125,690.1094 Q1089.3125,692.2031 1090,693.2813 Q1090.6875,694.3438 1092.0313,694.3438 Q1092.6563,694.3438 1093.25,694.0781 Q1093.8438,693.7969 1094.4688,693.2188 L1094.4688,695.9375 Z " fill="#000000"/><text fill="#000000" font-family="sans-serif" font-size="14" lengthAdjust="spacing" textLength="64" x="1105.5" y="695.1436">transition</text><line style="stroke:#181818;stroke-width:0.5;" x1="1077.5" x2="1171.5" y1="706.2969" y2="706.2969"/><line style="stroke:#181818;stroke-width:0.5;" x1="1077.5" x2="1171.5" y1="714.2969" y2="714.2969"/></g><!--reverse link overarch_dataModel_element to overarch_dataModel_identifiableElement--><g id="link_overarch_dataModel_element_overarch_dataModel_identifiableElement"><path codeLine="37" d="M941.06,124.7669 C953.68,142.1069 967.62,161.2569 978.93,176.7969 " fill="none" id="overarch_dataModel_element-backto-overarch_dataModel_identifiableElement" style="stroke:#181818;stroke-width:1.0;"/><polygon fill="none" points="935.37,128.8469,929.25,108.5569,946.68,120.6069,935.37,128.8469" style="stroke:#181818;stroke-width:1.0;"/></g><!--reverse link overarch_dataModel_element to overarch_dataModel_namedElement--><g id="link_overarch_dataModel_element_overarch_dataModel_namedElement"><path codeLine="38" d="M871.8,124.9669 C861.54,139.0569 850.42,154.3369 840.55,167.8869 " fill="none" id="overarch_dataModel_element-backto-overarch_dataModel_namedElement" style="stroke:#181818;stroke-width:1.0;"/><polygon fill="none" points="866.32,120.6069,883.75,108.5569,877.63,128.8469,866.32,120.6069" style="stroke:#181818;stroke-width:1.0;"/></g><!--reverse link overarch_dataModel_identifiableElement to overarch_dataModel_identifiableNamedElement--><g id="link_overarch_dataModel_identifiableElement_overarch_dataModel_identifiableNamedElement"><path codeLine="39" d="M942.4,253.0269 C909.57,277.0469 870.03,305.9769 843.06,325.7069 " fill="none" id="overarch_dataModel_identifiableElement-backto-overarch_dataModel_identifiableNamedElement" style="stroke:#181818;stroke-width:1.0;"/><polygon fill="none" points="938.59,247.1469,958.86,240.9869,946.85,258.4469,938.59,247.1469" style="stroke:#181818;stroke-width:1.0;"/></g><!--reverse link overarch_dataModel_namedElement to overarch_dataModel_identifiableNamedElement--><g id="link_overarch_dataModel_namedElement_overarch_dataModel_identifiableNamedElement"><path codeLine="40" d="M811.5,269.8669 C811.5,289.5269 811.5,310.2169 811.5,325.4769 " fill="none" id="overarch_dataModel_namedElement-backto-overarch_dataModel_identifiableNamedElement" style="stroke:#181818;stroke-width:1.0;"/><polygon fill="none" points="804.5,269.6269,811.5,249.6269,818.5,269.6269,804.5,269.6269" style="stroke:#181818;stroke-width:1.0;"/></g><!--reverse link overarch_dataModel_identifiableElement to overarch_dataModel_relationalElement--><g id="link_overarch_dataModel_identifiableElement_overarch_dataModel_relationalElement"><path codeLine="41" d="M1013.92,260.5869 C1017.85,276.6269 1022.12,294.1069 1025.82,309.2369 " fill="none" id="overarch_dataModel_identifiableElement-backto-overarch_dataModel_relationalElement" style="stroke:#181818;stroke-width:1.0;"/><polygon fill="none" points="1007.08,262.0769,1009.13,240.9869,1020.68,258.7569,1007.08,262.0769" style="stroke:#181818;stroke-width:1.0;"/></g><!--reverse link overarch_dataModel_identifiableNamedElement to overarch_dataModel_stateMachineModelElement--><g id="link_overarch_dataModel_identifiableNamedElement_overarch_dataModel_stateMachineModelElement"><path codeLine="42" d="M811.5,393.9669 C811.5,412.7969 811.5,434.1369 811.5,449.9469 " fill="none" id="overarch_dataModel_identifiableNamedElement-backto-overarch_dataModel_stateMachineModelElement" style="stroke:#181818;stroke-width:1.0;"/><polygon fill="none" points="804.5,393.8369,811.5,373.8369,818.5,393.8369,804.5,393.8369" style="stroke:#181818;stroke-width:1.0;"/></g><!--reverse link overarch_dataModel_stateMachineModelElement to overarch_dataModel_stateMachineModelNode--><g id="link_overarch_dataModel_stateMachineModelElement_overarch_dataModel_stateMachineModelNode"><path codeLine="43" d="M714.97,504.1169 C658.01,521.1269 586.89,542.3669 533.69,558.2469 " fill="none" id="overarch_dataModel_stateMachineModelElement-backto-overarch_dataModel_stateMachineModelNode" style="stroke:#181818;stroke-width:1.0;"/><polygon fill="none" points="713.3,497.3169,734.47,498.2969,717.31,510.7269,713.3,497.3169" style="stroke:#181818;stroke-width:1.0;"/></g><!--reverse link overarch_dataModel_stateMachineModelElement to overarch_dataModel_stateMachineModelRelation--><g id="link_overarch_dataModel_stateMachineModelElement_overarch_dataModel_stateMachineModelRelation"><path codeLine="44" d="M878.58,507.0369 C913.31,523.4769 954.95,543.1769 986.6,558.1569 " fill="none" id="overarch_dataModel_stateMachineModelElement-backto-overarch_dataModel_stateMachineModelRelation" style="stroke:#181818;stroke-width:1.0;"/><polygon fill="none" points="875.19,513.1769,860.1,498.2969,881.18,500.5269,875.19,513.1769" style="stroke:#181818;stroke-width:1.0;"/></g><!--reverse link overarch_dataModel_relationalElement to overarch_dataModel_stateMachineModelRelation--><g id="link_overarch_dataModel_relationalElement_overarch_dataModel_stateMachineModelRelation"><path codeLine="45" d="M1035.5,410.5669 C1035.5,458.8269 1035.5,524.1269 1035.5,558.2969 " fill="none" id="overarch_dataModel_relationalElement-backto-overarch_dataModel_stateMachineModelRelation" style="stroke:#181818;stroke-width:1.0;"/><polygon fill="none" points="1028.5,410.4169,1035.5,390.4169,1042.5,410.4169,1028.5,410.4169" style="stroke:#181818;stroke-width:1.0;"/></g><!--link overarch_dataModel_stateMachine to overarch_dataModel_stateMachineModelNode--><g id="link_overarch_dataModel_stateMachine_overarch_dataModel_stateMachineModelNode"><path codeLine="46" d="M456.5,511.6369 C456.5,522.3069 456.5,533.9769 456.5,544.6569 " fill="none" id="overarch_dataModel_stateMachine-overarch_dataModel_stateMachineModelNode" style="stroke:#181818;stroke-width:1.0;"/><polygon fill="#181818" points="456.5,498.2969,452.5,504.2969,456.5,510.2969,460.5,504.2969,456.5,498.2969" style="stroke:#181818;stroke-width:1.0;"/><polygon fill="#181818" points="456.5,557.9769,460.5,548.9769,456.5,552.9769,452.5,548.9769,456.5,557.9769" style="stroke:#181818;stroke-width:1.0;"/><line style="stroke:#181818;stroke-width:1.0;" x1="456.5" x2="456.5" y1="552.9769" y2="544.9769"/><text fill="#000000" font-family="sans-serif" font-size="13" lengthAdjust="spacing" textLength="24" x="429.575" y="547.3038">1..n</text></g><!--reverse link overarch_dataModel_stateMachineModelNode to overarch_dataModel_startState--><g id="link_overarch_dataModel_stateMachineModelNode_overarch_dataModel_startState"><path codeLine="47" d="M327.08,610.4169 C265.83,624.6569 192.12,643.8269 127.5,666.2969 C120.8,668.6269 113.86,671.3569 107.07,674.2069 " fill="none" id="overarch_dataModel_stateMachineModelNode-backto-overarch_dataModel_startState" style="stroke:#181818;stroke-width:1.0;"/><polygon fill="none" points="325.86,603.5169,346.92,605.8769,328.99,617.1669,325.86,603.5169" style="stroke:#181818;stroke-width:1.0;"/></g><!--reverse link overarch_dataModel_stateMachineModelNode to overarch_dataModel_state--><g id="link_overarch_dataModel_stateMachineModelNode_overarch_dataModel_state"><path codeLine="48" d="M348.33,612.5769 C305.02,626.9569 255.47,645.6269 212.5,666.2969 C207.55,668.6769 202.47,671.3969 197.66,674.2269 " fill="none" id="overarch_dataModel_stateMachineModelNode-backto-overarch_dataModel_state" style="stroke:#181818;stroke-width:1.0;"/><polygon fill="none" points="346.24,605.8969,367.43,606.3769,350.56,619.2069,346.24,605.8969" style="stroke:#181818;stroke-width:1.0;"/></g><!--link overarch_dataModel_state to overarch_dataModel_stateMachineModelNode--><g id="link_overarch_dataModel_state_overarch_dataModel_stateMachineModelNode"><path codeLine="49" d="M223.77,679.0069 C231.73,674.5569 239.78,670.0069 247.5,666.2969 C292.22,644.7869 344.07,625.4369 385.14,610.8369 " fill="none" id="overarch_dataModel_state-overarch_dataModel_stateMachineModelNode" style="stroke:#181818;stroke-width:1.0;"/><polygon fill="#181818" points="212.2,685.3669,219.3844,685.9865,222.7196,679.593,215.5352,678.9734,212.2,685.3669" style="stroke:#181818;stroke-width:1.0;"/><polygon fill="#181818" points="397.52,606.4669,387.7017,605.6921,392.8054,608.1318,390.3656,613.2355,397.52,606.4669" style="stroke:#181818;stroke-width:1.0;"/><line style="stroke:#181818;stroke-width:1.0;" x1="392.8054" x2="385.265" y1="608.1318" y2="610.7969"/><text fill="#000000" font-family="sans-serif" font-size="13" lengthAdjust="spacing" textLength="24" x="356.2186" y="626.2695">1..n</text></g><!--reverse link overarch_dataModel_stateMachineModelNode to overarch_dataModel_endState--><g id="link_overarch_dataModel_stateMachineModelNode_overarch_dataModel_endState"><path codeLine="50" d="M407.77,618.0169 C382.16,636.2669 351.48,658.1269 328.83,674.2569 " fill="none" id="overarch_dataModel_stateMachineModelNode-backto-overarch_dataModel_endState" style="stroke:#181818;stroke-width:1.0;"/><polygon fill="none" points="403.77,612.2669,424.12,606.3669,411.9,623.6769,403.77,612.2669" style="stroke:#181818;stroke-width:1.0;"/></g><!--reverse link overarch_dataModel_stateMachineModelNode to overarch_dataModel_fork--><g id="link_overarch_dataModel_stateMachineModelNode_overarch_dataModel_fork"><path codeLine="51" d="M439.68,624.9769 C432.97,641.6169 425.5,660.1269 419.79,674.2569 " fill="none" id="overarch_dataModel_stateMachineModelNode-backto-overarch_dataModel_fork" style="stroke:#181818;stroke-width:1.0;"/><polygon fill="none" points="433.22,622.2969,447.19,606.3669,446.2,627.5369,433.22,622.2969" style="stroke:#181818;stroke-width:1.0;"/></g><!--reverse link overarch_dataModel_stateMachineModelNode to overarch_dataModel_join--><g id="link_overarch_dataModel_stateMachineModelNode_overarch_dataModel_join"><path codeLine="52" d="M473.32,624.9769 C480.03,641.6169 487.5,660.1269 493.21,674.2569 " fill="none" id="overarch_dataModel_stateMachineModelNode-backto-overarch_dataModel_join" style="stroke:#181818;stroke-width:1.0;"/><polygon fill="none" points="466.8,627.5369,465.81,606.3669,479.78,622.2969,466.8,627.5369" style="stroke:#181818;stroke-width:1.0;"/></g><!--reverse link overarch_dataModel_stateMachineModelNode to overarch_dataModel_choice--><g id="link_overarch_dataModel_stateMachineModelNode_overarch_dataModel_choice"><path codeLine="53" d="M508.53,617.5869 C532.01,633.0569 559.55,651.1969 582.41,666.2669 " fill="none" id="overarch_dataModel_stateMachineModelNode-backto-overarch_dataModel_choice" style="stroke:#181818;stroke-width:1.0;"/><polygon fill="none" points="504.36,623.2169,491.51,606.3669,512.06,611.5269,504.36,623.2169" style="stroke:#181818;stroke-width:1.0;"/></g><!--reverse link overarch_dataModel_stateMachineModelNode to overarch_dataModel_historyState--><g id="link_overarch_dataModel_stateMachineModelNode_overarch_dataModel_historyState"><path codeLine="54" d="M550.61,612.3969 C598.71,627.6869 658.01,647.1769 710.5,666.2969 C717.27,668.7669 724.33,671.4469 731.32,674.1769 " fill="none" id="overarch_dataModel_stateMachineModelNode-backto-overarch_dataModel_historyState" style="stroke:#181818;stroke-width:1.0;"/><polygon fill="none" points="548.38,619.0269,531.42,606.3269,552.6,605.6769,548.38,619.0269" style="stroke:#181818;stroke-width:1.0;"/></g><!--reverse link overarch_dataModel_stateMachineModelNode to overarch_dataModel_deepHistoryState--><g id="link_overarch_dataModel_stateMachineModelNode_overarch_dataModel_deepHistoryState"><path codeLine="55" d="M585.92,606.0869 C666.3,621.1369 771.48,642.4269 863.5,666.2969 C872.74,668.6969 882.4,671.4469 891.9,674.2869 " fill="none" id="overarch_dataModel_stateMachineModelNode-backto-overarch_dataModel_deepHistoryState" style="stroke:#181818;stroke-width:1.0;"/><polygon fill="none" points="584.43,612.9369,566.05,602.4069,586.99,599.1669,584.43,612.9369" style="stroke:#181818;stroke-width:1.0;"/></g><!--reverse link overarch_dataModel_stateMachineModelRelation to overarch_dataModel_transition--><g id="link_overarch_dataModel_stateMachineModelRelation_overarch_dataModel_transition"><path codeLine="56" d="M1065.93,622.2669 C1079.44,639.5769 1094.88,659.3569 1106.52,674.2569 " fill="none" id="overarch_dataModel_stateMachineModelRelation-backto-overarch_dataModel_transition" style="stroke:#181818;stroke-width:1.0;"/><polygon fill="none" points="1060.3,626.4369,1053.51,606.3669,1071.34,617.8269,1060.3,626.4369" style="stroke:#181818;stroke-width:1.0;"/></g><!--SRC=[nPP1JyCW5CVlV8gN7KretDKORqkyk8CUZLaOC8ksO81e5lMx2sstqMsbrDPuwTA-__iztWlycHMsuF1WYULmHsWkfFjLZ1UmA7Z9fJM8h8tLX5gW1J46PhmEp80OKEzS4qtp5IEML7ch9WoV2C1Xhk2LRp-KPkZxX2IO4ugD8Ek2unvig5q49GIBbf2avAoFNOb2gF_Wi0ubvBDxPzpG_JiyNcRP_AcldwJAOSQojOfJkkO5iK99KlHH3ygmgOrMPJ0h0AkYepD-K-2otXIuzEI-mbLAiusgBv5spk6bUoQpb-wH2jvD91b-toJu0kUuAQ1shhQu2aOojQqFub7DQAr0p2MBbt22um8RfL-xv3uMI5-Kw9oVZmLIcYj1EvTHHwizIPLaefhp_hJj8RamLkbjlAL6TDmMu_mD9m6yylOynEqgQKHisnmKFYrYXjTV62UwscymeO6XHFDCMTAoXziopYc0GnPwud9eYC5sKRii30snksIuzx2_8UyC32NT3vDWMzvtWV4Dm6oUPUxqJ3gAolSZ2svST19M1FDV7UvCV3p9-_juYhV-yPJwJXZF2U-3yRJZom4D-klGHJtS6Zy0]--></g></svg>