<svg xmlns="http://www.w3.org/2000/svg" xmlns:xlink="http://www.w3.org/1999/xlink" contentStyleType="text/css" height="724px" preserveAspectRatio="none" style="width:1067px;height:724px;background:#FFFFFF;" version="1.1" viewBox="0 0 1067 724" width="1067px" zoomAndPan="magnify"><defs/><g><text fill="#000000" font-family="sans-serif" font-size="14" font-weight="bold" lengthAdjust="spacing" textLength="177" x="438" y="24.9659">Use Case Model Elements</text><!--class overarch_dataModel_extends--><g id="elem_overarch_dataModel_extends"><rect codeLine="9" fill="#F1F1F1" height="48" id="overarch_dataModel_extends" rx="2.5" ry="2.5" style="stroke:#181818;stroke-width:0.5;" width="85" x="614" y="659.5679"/><ellipse cx="629" cy="675.5679" fill="#ADD1B2" rx="11" ry="11" style="stroke:#181818;stroke-width:1.0;"/><path d="M631.9688,681.2085 Q631.3906,681.5054 630.75,681.646 Q630.1094,681.8023 629.4063,681.8023 Q626.9063,681.8023 625.5781,680.1617 Q624.2656,678.5054 624.2656,675.3804 Q624.2656,672.2554 625.5781,670.5992 Q626.9063,668.9429 629.4063,668.9429 Q630.1094,668.9429 630.75,669.0992 Q631.4063,669.2554 631.9688,669.5523 L631.9688,672.271 Q631.3438,671.6929 630.75,671.4273 Q630.1563,671.146 629.5313,671.146 Q628.1875,671.146 627.5,672.2242 Q626.8125,673.2867 626.8125,675.3804 Q626.8125,677.4742 627.5,678.5523 Q628.1875,679.6148 629.5313,679.6148 Q630.1563,679.6148 630.75,679.3492 Q631.3438,679.0679 631.9688,678.4898 L631.9688,681.2085 Z " fill="#000000"/><text fill="#000000" font-family="sans-serif" font-size="14" lengthAdjust="spacing" textLength="53" x="643" y="680.9999">extends</text><line style="stroke:#181818;stroke-width:0.5;" x1="615" x2="698" y1="691.5679" y2="691.5679"/><line style="stroke:#181818;stroke-width:0.5;" x1="615" x2="698" y1="699.5679" y2="699.5679"/></g><!--class overarch_dataModel_modelElement--><g id="elem_overarch_dataModel_modelElement"><rect codeLine="10" fill="#F1F1F1" height="86.1358" id="overarch_dataModel_modelElement" rx="2.5" ry="2.5" style="stroke:#181818;stroke-width:0.5;" width="175" x="500" y="250.0679"/><ellipse cx="537.5" cy="266.0679" fill="#A9DCDF" rx="11" ry="11" style="stroke:#181818;stroke-width:1.0;"/><path d="M537.6094,261.4117 L536.4531,266.4898 L538.7813,266.4898 L537.6094,261.4117 Z M536.125,259.1773 L539.1094,259.1773 L542.4688,271.5679 L540.0156,271.5679 L539.25,268.5054 L535.9688,268.5054 L535.2188,271.5679 L532.7813,271.5679 L536.125,259.1773 Z " fill="#000000"/><text fill="#000000" font-family="sans-serif" font-size="14" font-style="italic" lengthAdjust="spacing" textLength="93" x="556.5" y="271.4999">model-element</text><line style="stroke:#181818;stroke-width:0.5;" x1="501" x2="674" y1="282.0679" y2="282.0679"/><text fill="#000000" font-family="sans-serif" font-size="14" lengthAdjust="spacing" textLength="163" x="506" y="301.0339">maturity : keyword [0..1]</text><text fill="#000000" font-family="sans-serif" font-size="14" lengthAdjust="spacing" textLength="99" x="506" y="320.1018">tags : set [0..1]</text><line style="stroke:#181818;stroke-width:0.5;" x1="501" x2="674" y1="328.2038" y2="328.2038"/></g><!--class overarch_dataModel_include--><g id="elem_overarch_dataModel_include"><rect codeLine="14" fill="#F1F1F1" height="48" id="overarch_dataModel_include" rx="2.5" ry="2.5" style="stroke:#181818;stroke-width:0.5;" width="82" x="734.5" y="659.5679"/><ellipse cx="749.5" cy="675.5679" fill="#ADD1B2" rx="11" ry="11" style="stroke:#181818;stroke-width:1.0;"/><path d="M752.4688,681.2085 Q751.8906,681.5054 751.25,681.646 Q750.6094,681.8023 749.9063,681.8023 Q747.4063,681.8023 746.0781,680.1617 Q744.7656,678.5054 744.7656,675.3804 Q744.7656,672.2554 746.0781,670.5992 Q747.4063,668.9429 749.9063,668.9429 Q750.6094,668.9429 751.25,669.0992 Q751.9063,669.2554 752.4688,669.5523 L752.4688,672.271 Q751.8438,671.6929 751.25,671.4273 Q750.6563,671.146 750.0313,671.146 Q748.6875,671.146 748,672.2242 Q747.3125,673.2867 747.3125,675.3804 Q747.3125,677.4742 748,678.5523 Q748.6875,679.6148 750.0313,679.6148 Q750.6563,679.6148 751.25,679.3492 Q751.8438,679.0679 752.4688,678.4898 L752.4688,681.2085 Z " fill="#000000"/><text fill="#000000" font-family="sans-serif" font-size="14" lengthAdjust="spacing" textLength="50" x="763.5" y="680.9999">include</text><line style="stroke:#181818;stroke-width:0.5;" x1="735.5" x2="815.5" y1="691.5679" y2="691.5679"/><line style="stroke:#181818;stroke-width:0.5;" x1="735.5" x2="815.5" y1="699.5679" y2="699.5679"/></g><!--class overarch_dataModel_useCase--><g id="elem_overarch_dataModel_useCase"><rect codeLine="15" fill="#F1F1F1" height="67.0679" id="overarch_dataModel_useCase" rx="2.5" ry="2.5" style="stroke:#181818;stroke-width:0.5;" width="111" x="7" y="650.0679"/><ellipse cx="31" cy="666.0679" fill="#ADD1B2" rx="11" ry="11" style="stroke:#181818;stroke-width:1.0;"/><path d="M33.9688,671.7085 Q33.3906,672.0054 32.75,672.146 Q32.1094,672.3023 31.4063,672.3023 Q28.9063,672.3023 27.5781,670.6617 Q26.2656,669.0054 26.2656,665.8804 Q26.2656,662.7554 27.5781,661.0992 Q28.9063,659.4429 31.4063,659.4429 Q32.1094,659.4429 32.75,659.5992 Q33.4063,659.7554 33.9688,660.0523 L33.9688,662.771 Q33.3438,662.1929 32.75,661.9273 Q32.1563,661.646 31.5313,661.646 Q30.1875,661.646 29.5,662.7242 Q28.8125,663.7867 28.8125,665.8804 Q28.8125,667.9742 29.5,669.0523 Q30.1875,670.1148 31.5313,670.1148 Q32.1563,670.1148 32.75,669.8492 Q33.3438,669.5679 33.9688,668.9898 L33.9688,671.7085 Z " fill="#000000"/><text fill="#000000" font-family="sans-serif" font-size="14" lengthAdjust="spacing" textLength="59" x="47" y="671.4999">use-case</text><line style="stroke:#181818;stroke-width:0.5;" x1="8" x2="117" y1="682.0679" y2="682.0679"/><text fill="#000000" font-family="sans-serif" font-size="14" lengthAdjust="spacing" textLength="99" x="13" y="701.0339">level : keyword</text><line style="stroke:#181818;stroke-width:0.5;" x1="8" x2="117" y1="709.1358" y2="709.1358"/></g><!--class overarch_dataModel_person--><g id="elem_overarch_dataModel_person"><rect codeLine="18" fill="#F1F1F1" height="48" id="overarch_dataModel_person" rx="2.5" ry="2.5" style="stroke:#181818;stroke-width:0.5;" width="79" x="153" y="659.5679"/><ellipse cx="168" cy="675.5679" fill="#ADD1B2" rx="11" ry="11" style="stroke:#181818;stroke-width:1.0;"/><path d="M170.9688,681.2085 Q170.3906,681.5054 169.75,681.646 Q169.1094,681.8023 168.4063,681.8023 Q165.9063,681.8023 164.5781,680.1617 Q163.2656,678.5054 163.2656,675.3804 Q163.2656,672.2554 164.5781,670.5992 Q165.9063,668.9429 168.4063,668.9429 Q169.1094,668.9429 169.75,669.0992 Q170.4063,669.2554 170.9688,669.5523 L170.9688,672.271 Q170.3438,671.6929 169.75,671.4273 Q169.1563,671.146 168.5313,671.146 Q167.1875,671.146 166.5,672.2242 Q165.8125,673.2867 165.8125,675.3804 Q165.8125,677.4742 166.5,678.5523 Q167.1875,679.6148 168.5313,679.6148 Q169.1563,679.6148 169.75,679.3492 Q170.3438,679.0679 170.9688,678.4898 L170.9688,681.2085 Z " fill="#000000"/><text fill="#000000" font-family="sans-serif" font-size="14" lengthAdjust="spacing" textLength="47" x="182" y="680.9999">person</text><line style="stroke:#181818;stroke-width:0.5;" x1="154" x2="231" y1="691.5679" y2="691.5679"/><line style="stroke:#181818;stroke-width:0.5;" x1="154" x2="231" y1="699.5679" y2="699.5679"/></g><!--class overarch_dataModel_generalizes--><g id="elem_overarch_dataModel_generalizes"><rect codeLine="19" fill="#F1F1F1" height="48" id="overarch_dataModel_generalizes" rx="2.5" ry="2.5" style="stroke:#181818;stroke-width:0.5;" width="110" x="851.5" y="659.5679"/><ellipse cx="866.5" cy="675.5679" fill="#ADD1B2" rx="11" ry="11" style="stroke:#181818;stroke-width:1.0;"/><path d="M869.4688,681.2085 Q868.8906,681.5054 868.25,681.646 Q867.6094,681.8023 866.9063,681.8023 Q864.4063,681.8023 863.0781,680.1617 Q861.7656,678.5054 861.7656,675.3804 Q861.7656,672.2554 863.0781,670.5992 Q864.4063,668.9429 866.9063,668.9429 Q867.6094,668.9429 868.25,669.0992 Q868.9063,669.2554 869.4688,669.5523 L869.4688,672.271 Q868.8438,671.6929 868.25,671.4273 Q867.6563,671.146 867.0313,671.146 Q865.6875,671.146 865,672.2242 Q864.3125,673.2867 864.3125,675.3804 Q864.3125,677.4742 865,678.5523 Q865.6875,679.6148 867.0313,679.6148 Q867.6563,679.6148 868.25,679.3492 Q868.8438,679.0679 869.4688,678.4898 L869.4688,681.2085 Z " fill="#000000"/><text fill="#000000" font-family="sans-serif" font-size="14" lengthAdjust="spacing" textLength="78" x="880.5" y="680.9999">generalizes</text><line style="stroke:#181818;stroke-width:0.5;" x1="852.5" x2="960.5" y1="691.5679" y2="691.5679"/><line style="stroke:#181818;stroke-width:0.5;" x1="852.5" x2="960.5" y1="699.5679" y2="699.5679"/></g><!--class overarch_dataModel_system--><g id="elem_overarch_dataModel_system"><rect codeLine="20" fill="#F1F1F1" height="48" id="overarch_dataModel_system" rx="2.5" ry="2.5" style="stroke:#181818;stroke-width:0.5;" width="79" x="267" y="659.5679"/><ellipse cx="282" cy="675.5679" fill="#ADD1B2" rx="11" ry="11" style="stroke:#181818;stroke-width:1.0;"/><path d="M284.9688,681.2085 Q284.3906,681.5054 283.75,681.646 Q283.1094,681.8023 282.4063,681.8023 Q279.9063,681.8023 278.5781,680.1617 Q277.2656,678.5054 277.2656,675.3804 Q277.2656,672.2554 278.5781,670.5992 Q279.9063,668.9429 282.4063,668.9429 Q283.1094,668.9429 283.75,669.0992 Q284.4063,669.2554 284.9688,669.5523 L284.9688,672.271 Q284.3438,671.6929 283.75,671.4273 Q283.1563,671.146 282.5313,671.146 Q281.1875,671.146 280.5,672.2242 Q279.8125,673.2867 279.8125,675.3804 Q279.8125,677.4742 280.5,678.5523 Q281.1875,679.6148 282.5313,679.6148 Q283.1563,679.6148 283.75,679.3492 Q284.3438,679.0679 284.9688,678.4898 L284.9688,681.2085 Z " fill="#000000"/><text fill="#000000" font-family="sans-serif" font-size="14" lengthAdjust="spacing" textLength="47" x="296" y="680.9999">system</text><line style="stroke:#181818;stroke-width:0.5;" x1="268" x2="345" y1="691.5679" y2="691.5679"/><line style="stroke:#181818;stroke-width:0.5;" x1="268" x2="345" y1="699.5679" y2="699.5679"/></g><!--class overarch_dataModel_container--><g id="elem_overarch_dataModel_container"><rect codeLine="21" fill="#F1F1F1" height="48" id="overarch_dataModel_container" rx="2.5" ry="2.5" style="stroke:#181818;stroke-width:0.5;" width="96" x="381.5" y="659.5679"/><ellipse cx="396.5" cy="675.5679" fill="#ADD1B2" rx="11" ry="11" style="stroke:#181818;stroke-width:1.0;"/><path d="M399.4688,681.2085 Q398.8906,681.5054 398.25,681.646 Q397.6094,681.8023 396.9063,681.8023 Q394.4063,681.8023 393.0781,680.1617 Q391.7656,678.5054 391.7656,675.3804 Q391.7656,672.2554 393.0781,670.5992 Q394.4063,668.9429 396.9063,668.9429 Q397.6094,668.9429 398.25,669.0992 Q398.9063,669.2554 399.4688,669.5523 L399.4688,672.271 Q398.8438,671.6929 398.25,671.4273 Q397.6563,671.146 397.0313,671.146 Q395.6875,671.146 395,672.2242 Q394.3125,673.2867 394.3125,675.3804 Q394.3125,677.4742 395,678.5523 Q395.6875,679.6148 397.0313,679.6148 Q397.6563,679.6148 398.25,679.3492 Q398.8438,679.0679 399.4688,678.4898 L399.4688,681.2085 Z " fill="#000000"/><text fill="#000000" font-family="sans-serif" font-size="14" lengthAdjust="spacing" textLength="64" x="410.5" y="680.9999">container</text><line style="stroke:#181818;stroke-width:0.5;" x1="382.5" x2="476.5" y1="691.5679" y2="691.5679"/><line style="stroke:#181818;stroke-width:0.5;" x1="382.5" x2="476.5" y1="699.5679" y2="699.5679"/></g><!--class overarch_dataModel_modelNode--><g id="elem_overarch_dataModel_modelNode"><rect codeLine="22" fill="#F1F1F1" height="48" id="overarch_dataModel_modelNode" rx="2.5" ry="2.5" style="stroke:#181818;stroke-width:0.5;" width="106" x="355.5" y="415.0679"/><ellipse cx="370.5" cy="431.0679" fill="#A9DCDF" rx="11" ry="11" style="stroke:#181818;stroke-width:1.0;"/><path d="M370.6094,426.4117 L369.4531,431.4898 L371.7813,431.4898 L370.6094,426.4117 Z M369.125,424.1773 L372.1094,424.1773 L375.4688,436.5679 L373.0156,436.5679 L372.25,433.5054 L368.9688,433.5054 L368.2188,436.5679 L365.7813,436.5679 L369.125,424.1773 Z " fill="#000000"/><text fill="#000000" font-family="sans-serif" font-size="14" font-style="italic" lengthAdjust="spacing" textLength="74" x="384.5" y="436.4999">model-node</text><line style="stroke:#181818;stroke-width:0.5;" x1="356.5" x2="460.5" y1="447.0679" y2="447.0679"/><line style="stroke:#181818;stroke-width:0.5;" x1="356.5" x2="460.5" y1="455.0679" y2="455.0679"/></g><!--class overarch_dataModel_modelRelation--><g id="elem_overarch_dataModel_modelRelation"><rect codeLine="23" fill="#F1F1F1" height="86.1358" id="overarch_dataModel_modelRelation" rx="2.5" ry="2.5" style="stroke:#181818;stroke-width:0.5;" width="125" x="713" y="396.0679"/><ellipse cx="728" cy="412.0679" fill="#A9DCDF" rx="11" ry="11" style="stroke:#181818;stroke-width:1.0;"/><path d="M728.1094,407.4117 L726.9531,412.4898 L729.2813,412.4898 L728.1094,407.4117 Z M726.625,405.1773 L729.6094,405.1773 L732.9688,417.5679 L730.5156,417.5679 L729.75,414.5054 L726.4688,414.5054 L725.7188,417.5679 L723.2813,417.5679 L726.625,405.1773 Z " fill="#000000"/><text fill="#000000" font-family="sans-serif" font-size="14" font-style="italic" lengthAdjust="spacing" textLength="93" x="742" y="417.4999">model-relation</text><line style="stroke:#181818;stroke-width:0.5;" x1="714" x2="837" y1="428.0679" y2="428.0679"/><text fill="#000000" font-family="sans-serif" font-size="14" lengthAdjust="spacing" textLength="100" x="719" y="447.0339">from : keyword</text><text fill="#000000" font-family="sans-serif" font-size="14" lengthAdjust="spacing" textLength="81" x="719" y="466.1018">to : keyword</text><line style="stroke:#181818;stroke-width:0.5;" x1="714" x2="837" y1="474.2038" y2="474.2038"/></g><!--class overarch_dataModel_useCaseModelRelation--><g id="elem_overarch_dataModel_useCaseModelRelation"><rect codeLine="27" fill="#F1F1F1" height="48" id="overarch_dataModel_useCaseModelRelation" rx="2.5" ry="2.5" style="stroke:#181818;stroke-width:0.5;" width="181" x="685" y="542.0679"/><ellipse cx="700" cy="558.0679" fill="#A9DCDF" rx="11" ry="11" style="stroke:#181818;stroke-width:1.0;"/><path d="M700.1094,553.4117 L698.9531,558.4898 L701.2813,558.4898 L700.1094,553.4117 Z M698.625,551.1773 L701.6094,551.1773 L704.9688,563.5679 L702.5156,563.5679 L701.75,560.5054 L698.4688,560.5054 L697.7188,563.5679 L695.2813,563.5679 L698.625,551.1773 Z " fill="#000000"/><text fill="#000000" font-family="sans-serif" font-size="14" font-style="italic" lengthAdjust="spacing" textLength="149" x="714" y="563.4999">use-case-model-relation</text><line style="stroke:#181818;stroke-width:0.5;" x1="686" x2="865" y1="574.0679" y2="574.0679"/><line style="stroke:#181818;stroke-width:0.5;" x1="686" x2="865" y1="582.0679" y2="582.0679"/></g><!--class overarch_dataModel_useCaseModelNode--><g id="elem_overarch_dataModel_useCaseModelNode"><rect codeLine="28" fill="#F1F1F1" height="48" id="overarch_dataModel_useCaseModelNode" rx="2.5" ry="2.5" style="stroke:#181818;stroke-width:0.5;" width="162" x="327.5" y="542.0679"/><ellipse cx="342.5" cy="558.0679" fill="#A9DCDF" rx="11" ry="11" style="stroke:#181818;stroke-width:1.0;"/><path d="M342.6094,553.4117 L341.4531,558.4898 L343.7813,558.4898 L342.6094,553.4117 Z M341.125,551.1773 L344.1094,551.1773 L347.4688,563.5679 L345.0156,563.5679 L344.25,560.5054 L340.9688,560.5054 L340.2188,563.5679 L337.7813,563.5679 L341.125,551.1773 Z " fill="#000000"/><text fill="#000000" font-family="sans-serif" font-size="14" font-style="italic" lengthAdjust="spacing" textLength="130" x="356.5" y="563.4999">use-case-model-node</text><line style="stroke:#181818;stroke-width:0.5;" x1="328.5" x2="488.5" y1="574.0679" y2="574.0679"/><line style="stroke:#181818;stroke-width:0.5;" x1="328.5" x2="488.5" y1="582.0679" y2="582.0679"/></g><!--class overarch_dataModel_uses--><g id="elem_overarch_dataModel_uses"><rect codeLine="29" fill="#F1F1F1" height="48" id="overarch_dataModel_uses" rx="2.5" ry="2.5" style="stroke:#181818;stroke-width:0.5;" width="63" x="997" y="659.5679"/><ellipse cx="1012" cy="675.5679" fill="#ADD1B2" rx="11" ry="11" style="stroke:#181818;stroke-width:1.0;"/><path d="M1014.9688,681.2085 Q1014.3906,681.5054 1013.75,681.646 Q1013.1094,681.8023 1012.4063,681.8023 Q1009.9063,681.8023 1008.5781,680.1617 Q1007.2656,678.5054 1007.2656,675.3804 Q1007.2656,672.2554 1008.5781,670.5992 Q1009.9063,668.9429 1012.4063,668.9429 Q1013.1094,668.9429 1013.75,669.0992 Q1014.4063,669.2554 1014.9688,669.5523 L1014.9688,672.271 Q1014.3438,671.6929 1013.75,671.4273 Q1013.1563,671.146 1012.5313,671.146 Q1011.1875,671.146 1010.5,672.2242 Q1009.8125,673.2867 1009.8125,675.3804 Q1009.8125,677.4742 1010.5,678.5523 Q1011.1875,679.6148 1012.5313,679.6148 Q1013.1563,679.6148 1013.75,679.3492 Q1014.3438,679.0679 1014.9688,678.4898 L1014.9688,681.2085 Z " fill="#000000"/><text fill="#000000" font-family="sans-serif" font-size="14" lengthAdjust="spacing" textLength="31" x="1026" y="680.9999">uses</text><line style="stroke:#181818;stroke-width:0.5;" x1="998" x2="1059" y1="691.5679" y2="691.5679"/><line style="stroke:#181818;stroke-width:0.5;" x1="998" x2="1059" y1="699.5679" y2="699.5679"/></g><!--class overarch_dataModel_role--><g id="elem_overarch_dataModel_role"><rect codeLine="30" fill="#F1F1F1" height="48" id="overarch_dataModel_role" rx="2.5" ry="2.5" style="stroke:#181818;stroke-width:0.5;" width="58" x="689.5" y="94.5679"/><ellipse cx="704.5" cy="110.5679" fill="#ADD1B2" rx="11" ry="11" style="stroke:#181818;stroke-width:1.0;"/><path d="M707.4688,116.2085 Q706.8906,116.5054 706.25,116.646 Q705.6094,116.8023 704.9063,116.8023 Q702.4063,116.8023 701.0781,115.1617 Q699.7656,113.5054 699.7656,110.3804 Q699.7656,107.2554 701.0781,105.5992 Q702.4063,103.9429 704.9063,103.9429 Q705.6094,103.9429 706.25,104.0992 Q706.9063,104.2554 707.4688,104.5523 L707.4688,107.271 Q706.8438,106.6929 706.25,106.4273 Q705.6563,106.146 705.0313,106.146 Q703.6875,106.146 703,107.2242 Q702.3125,108.2867 702.3125,110.3804 Q702.3125,112.4742 703,113.5523 Q703.6875,114.6148 705.0313,114.6148 Q705.6563,114.6148 706.25,114.3492 Q706.8438,114.0679 707.4688,113.4898 L707.4688,116.2085 Z " fill="#000000"/><text fill="#000000" font-family="sans-serif" font-size="14" lengthAdjust="spacing" textLength="26" x="718.5" y="115.9999">role</text><line style="stroke:#181818;stroke-width:0.5;" x1="690.5" x2="746.5" y1="126.5679" y2="126.5679"/><line style="stroke:#181818;stroke-width:0.5;" x1="690.5" x2="746.5" y1="134.5679" y2="134.5679"/></g><!--class overarch_dataModel_actor--><g id="elem_overarch_dataModel_actor"><rect codeLine="31" fill="#F1F1F1" height="48" id="overarch_dataModel_actor" rx="2.5" ry="2.5" style="stroke:#181818;stroke-width:0.5;" width="66" x="512.5" y="659.5679"/><ellipse cx="527.5" cy="675.5679" fill="#ADD1B2" rx="11" ry="11" style="stroke:#181818;stroke-width:1.0;"/><path d="M530.4688,681.2085 Q529.8906,681.5054 529.25,681.646 Q528.6094,681.8023 527.9063,681.8023 Q525.4063,681.8023 524.0781,680.1617 Q522.7656,678.5054 522.7656,675.3804 Q522.7656,672.2554 524.0781,670.5992 Q525.4063,668.9429 527.9063,668.9429 Q528.6094,668.9429 529.25,669.0992 Q529.9063,669.2554 530.4688,669.5523 L530.4688,672.271 Q529.8438,671.6929 529.25,671.4273 Q528.6563,671.146 528.0313,671.146 Q526.6875,671.146 526,672.2242 Q525.3125,673.2867 525.3125,675.3804 Q525.3125,677.4742 526,678.5523 Q526.6875,679.6148 528.0313,679.6148 Q528.6563,679.6148 529.25,679.3492 Q529.8438,679.0679 530.4688,678.4898 L530.4688,681.2085 Z " fill="#000000"/><text fill="#000000" font-family="sans-serif" font-size="14" lengthAdjust="spacing" textLength="34" x="541.5" y="680.9999">actor</text><line style="stroke:#181818;stroke-width:0.5;" x1="513.5" x2="577.5" y1="691.5679" y2="691.5679"/><line style="stroke:#181818;stroke-width:0.5;" x1="513.5" x2="577.5" y1="699.5679" y2="699.5679"/></g><!--class overarch_dataModel_useCaseModelElement--><g id="elem_overarch_dataModel_useCaseModelElement"><rect codeLine="32" fill="#F1F1F1" height="48" id="overarch_dataModel_useCaseModelElement" rx="2.5" ry="2.5" style="stroke:#181818;stroke-width:0.5;" width="181" x="497" y="415.0679"/><ellipse cx="512" cy="431.0679" fill="#A9DCDF" rx="11" ry="11" style="stroke:#181818;stroke-width:1.0;"/><path d="M512.1094,426.4117 L510.9531,431.4898 L513.2813,431.4898 L512.1094,426.4117 Z M510.625,424.1773 L513.6094,424.1773 L516.9688,436.5679 L514.5156,436.5679 L513.75,433.5054 L510.4688,433.5054 L509.7188,436.5679 L507.2813,436.5679 L510.625,424.1773 Z " fill="#000000"/><text fill="#000000" font-family="sans-serif" font-size="14" font-style="italic" lengthAdjust="spacing" textLength="149" x="526" y="436.4999">use-case-model-element</text><line style="stroke:#181818;stroke-width:0.5;" x1="498" x2="677" y1="447.0679" y2="447.0679"/><line style="stroke:#181818;stroke-width:0.5;" x1="498" x2="677" y1="455.0679" y2="455.0679"/></g><!--class overarch_dataModel_element--><g id="elem_overarch_dataModel_element"><rect codeLine="33" fill="#F1F1F1" height="143.3396" id="overarch_dataModel_element" rx="2.5" ry="2.5" style="stroke:#181818;stroke-width:0.5;" width="133" x="521" y="47.0679"/><ellipse cx="558.95" cy="63.0679" fill="#A9DCDF" rx="11" ry="11" style="stroke:#181818;stroke-width:1.0;"/><path d="M559.0594,58.4117 L557.9031,63.4898 L560.2313,63.4898 L559.0594,58.4117 Z M557.575,56.1773 L560.5594,56.1773 L563.9188,68.5679 L561.4656,68.5679 L560.7,65.5054 L557.4188,65.5054 L556.6688,68.5679 L554.2313,68.5679 L557.575,56.1773 Z " fill="#000000"/><text fill="#000000" font-family="sans-serif" font-size="14" font-style="italic" lengthAdjust="spacing" textLength="50" x="578.05" y="68.4999">element</text><line style="stroke:#181818;stroke-width:0.5;" x1="522" x2="653" y1="79.0679" y2="79.0679"/><text fill="#000000" font-family="sans-serif" font-size="14" lengthAdjust="spacing" textLength="121" x="527" y="98.0339">desc : string [0..1]</text><text fill="#000000" font-family="sans-serif" font-size="14" lengthAdjust="spacing" textLength="114" x="527" y="117.1018">doc : string [0..1]</text><text fill="#000000" font-family="sans-serif" font-size="14" lengthAdjust="spacing" textLength="80" x="527" y="136.1697">el : keyword</text><text fill="#000000" font-family="sans-serif" font-size="14" lengthAdjust="spacing" textLength="81" x="527" y="155.2376">id : keyword</text><text fill="#000000" font-family="sans-serif" font-size="14" lengthAdjust="spacing" textLength="90" x="527" y="174.3055">name : string</text><line style="stroke:#181818;stroke-width:0.5;" x1="522" x2="653" y1="182.4075" y2="182.4075"/></g><!--reverse link overarch_dataModel_useCaseModelRelation to overarch_dataModel_extends--><g id="link_overarch_dataModel_useCaseModelRelation_overarch_dataModel_extends"><path codeLine="40" d="M738.7836,602.7046 C718.0336,622.8446 701,639.3779 680.25,659.5079 " fill="none" id="overarch_dataModel_useCaseModelRelation-backto-overarch_dataModel_extends" style="stroke:#181818;stroke-width:1.0;"/><polygon fill="none" points="751.7,590.1679,734.6048,598.3991,742.9625,607.01,751.7,590.1679" style="stroke:#181818;stroke-width:1.0;"/></g><!--reverse link overarch_dataModel_element to overarch_dataModel_modelElement--><g id="link_overarch_dataModel_element_overarch_dataModel_modelElement"><path codeLine="41" d="M587.5,208.2279 C587.5,228.5079 587.5,231.9879 587.5,249.9579 " fill="none" id="overarch_dataModel_element-backto-overarch_dataModel_modelElement" style="stroke:#181818;stroke-width:1.0;"/><polygon fill="none" points="587.5,190.2279,581.5,208.2279,593.5,208.2279,587.5,190.2279" style="stroke:#181818;stroke-width:1.0;"/></g><!--reverse link overarch_dataModel_modelElement to overarch_dataModel_modelNode--><g id="link_overarch_dataModel_modelElement_overarch_dataModel_modelNode"><path codeLine="42" d="M521.2156,347.3914 C489.2356,373.1214 463.54,393.7879 437.18,414.9979 " fill="none" id="overarch_dataModel_modelElement-backto-overarch_dataModel_modelNode" style="stroke:#181818;stroke-width:1.0;"/><polygon fill="none" points="535.24,336.1079,517.4545,342.7166,524.9768,352.0662,535.24,336.1079" style="stroke:#181818;stroke-width:1.0;"/></g><!--reverse link overarch_dataModel_modelNode to overarch_dataModel_useCaseModelNode--><g id="link_overarch_dataModel_modelNode_overarch_dataModel_useCaseModelNode"><path codeLine="43" d="M408.5,481.2879 C408.5,503.7379 408.5,519.5679 408.5,541.9779 " fill="none" id="overarch_dataModel_modelNode-backto-overarch_dataModel_useCaseModelNode" style="stroke:#181818;stroke-width:1.0;"/><polygon fill="none" points="408.5,463.2879,402.5,481.2879,414.5,481.2879,408.5,463.2879" style="stroke:#181818;stroke-width:1.0;"/></g><!--reverse link overarch_dataModel_useCaseModelNode to overarch_dataModel_useCase--><g id="link_overarch_dataModel_useCaseModelNode_overarch_dataModel_useCase"><path codeLine="44" d="M309.9638,593.7868 C255.2038,609.2068 198.97,626.3979 135.5,650.0679 C129.78,652.1979 123.87,654.5579 118.01,657.0079 " fill="none" id="overarch_dataModel_useCaseModelNode-backto-overarch_dataModel_useCase" style="stroke:#181818;stroke-width:1.0;"/><polygon fill="none" points="327.29,588.9079,308.3375,588.0114,311.5901,599.5622,327.29,588.9079" style="stroke:#181818;stroke-width:1.0;"/></g><!--reverse link overarch_dataModel_useCaseModelNode to overarch_dataModel_system--><g id="link_overarch_dataModel_useCaseModelNode_overarch_dataModel_system"><path codeLine="45" d="M376.1835,603.6585 C358.3935,623.7985 344.64,639.3779 326.86,659.5079 " fill="none" id="overarch_dataModel_useCaseModelNode-backto-overarch_dataModel_system" style="stroke:#181818;stroke-width:1.0;"/><polygon fill="none" points="388.1,590.1679,371.6866,599.6864,380.6804,607.6307,388.1,590.1679" style="stroke:#181818;stroke-width:1.0;"/></g><!--reverse link overarch_dataModel_modelElement to overarch_dataModel_modelRelation--><g id="link_overarch_dataModel_modelElement_overarch_dataModel_modelRelation"><path codeLine="46" d="M656.6727,347.0496 C681.2827,365.8896 695.94,377.1279 720.55,395.9779 " fill="none" id="overarch_dataModel_modelElement-backto-overarch_dataModel_modelRelation" style="stroke:#181818;stroke-width:1.0;"/><polygon fill="none" points="642.38,336.1079,653.0255,351.8138,660.3199,342.2853,642.38,336.1079" style="stroke:#181818;stroke-width:1.0;"/></g><!--reverse link overarch_dataModel_useCaseModelNode to overarch_dataModel_person--><g id="link_overarch_dataModel_useCaseModelNode_overarch_dataModel_person"><path codeLine="47" d="M347.0185,598.4618 C315.0885,614.8618 287.49,629.3279 249.5,650.0679 C243.9,653.1279 238.02,656.3979 232.26,659.6479 " fill="none" id="overarch_dataModel_useCaseModelNode-backto-overarch_dataModel_person" style="stroke:#181818;stroke-width:1.0;"/><polygon fill="none" points="363.03,590.2379,344.2772,593.1246,349.7598,603.799,363.03,590.2379" style="stroke:#181818;stroke-width:1.0;"/></g><!--reverse link overarch_dataModel_useCaseModelNode to overarch_dataModel_actor--><g id="link_overarch_dataModel_useCaseModelNode_overarch_dataModel_actor"><path codeLine="48" d="M449.6545,601.767 C473.5545,621.907 494.27,639.3779 518.15,659.5079 " fill="none" id="overarch_dataModel_useCaseModelNode-backto-overarch_dataModel_actor" style="stroke:#181818;stroke-width:1.0;"/><polygon fill="none" points="435.89,590.1679,445.7882,606.3551,453.5209,597.1788,435.89,590.1679" style="stroke:#181818;stroke-width:1.0;"/></g><!--reverse link overarch_dataModel_useCaseModelNode to overarch_dataModel_container--><g id="link_overarch_dataModel_useCaseModelNode_overarch_dataModel_container"><path codeLine="49" d="M415.9184,607.8779 C419.5784,628.0179 421.65,639.3779 425.31,659.5079 " fill="none" id="overarch_dataModel_useCaseModelNode-backto-overarch_dataModel_container" style="stroke:#181818;stroke-width:1.0;"/><polygon fill="none" points="412.7,590.1679,410.0151,608.9507,421.8217,606.8051,412.7,590.1679" style="stroke:#181818;stroke-width:1.0;"/></g><!--reverse link overarch_dataModel_useCaseModelRelation to overarch_dataModel_include--><g id="link_overarch_dataModel_useCaseModelRelation_overarch_dataModel_include"><path codeLine="50" d="M775.5,608.1679 C775.5,628.3079 775.5,639.3779 775.5,659.5079 " fill="none" id="overarch_dataModel_useCaseModelRelation-backto-overarch_dataModel_include" style="stroke:#181818;stroke-width:1.0;"/><polygon fill="none" points="775.5,590.1679,769.5,608.1679,781.5,608.1679,775.5,590.1679" style="stroke:#181818;stroke-width:1.0;"/></g><!--reverse link overarch_dataModel_modelElement to overarch_dataModel_useCaseModelElement--><g id="link_overarch_dataModel_modelElement_overarch_dataModel_useCaseModelElement"><path codeLine="51" d="M587.5,354.1079 C587.5,379.8379 587.5,393.7879 587.5,414.9979 " fill="none" id="overarch_dataModel_modelElement-backto-overarch_dataModel_useCaseModelElement" style="stroke:#181818;stroke-width:1.0;"/><polygon fill="none" points="587.5,336.1079,581.5,354.1079,593.5,354.1079,587.5,336.1079" style="stroke:#181818;stroke-width:1.0;"/></g><!--reverse link overarch_dataModel_useCaseModelElement to overarch_dataModel_useCaseModelRelation--><g id="link_overarch_dataModel_useCaseModelElement_overarch_dataModel_useCaseModelRelation"><path codeLine="52" d="M637.4099,473.253 C671.1799,495.703 707.06,519.5679 740.77,541.9779 " fill="none" id="overarch_dataModel_useCaseModelElement-backto-overarch_dataModel_useCaseModelRelation" style="stroke:#181818;stroke-width:1.0;"/><polygon fill="none" points="622.42,463.2879,634.0882,478.2497,640.7316,468.2564,622.42,463.2879" style="stroke:#181818;stroke-width:1.0;"/></g><!--reverse link overarch_dataModel_useCaseModelElement to overarch_dataModel_useCaseModelNode--><g id="link_overarch_dataModel_useCaseModelElement_overarch_dataModel_useCaseModelNode"><path codeLine="53" d="M539.492,473.5933 C507.342,496.0433 473.66,519.5679 441.57,541.9779 " fill="none" id="overarch_dataModel_useCaseModelElement-backto-overarch_dataModel_useCaseModelNode" style="stroke:#181818;stroke-width:1.0;"/><polygon fill="none" points="554.25,463.2879,536.0569,468.6739,542.9271,478.5126,554.25,463.2879" style="stroke:#181818;stroke-width:1.0;"/></g><!--reverse link overarch_dataModel_modelRelation to overarch_dataModel_useCaseModelRelation--><g id="link_overarch_dataModel_modelRelation_overarch_dataModel_useCaseModelRelation"><path codeLine="54" d="M775.5,500.3879 C775.5,520.2179 775.5,525.0879 775.5,541.7379 " fill="none" id="overarch_dataModel_modelRelation-backto-overarch_dataModel_useCaseModelRelation" style="stroke:#181818;stroke-width:1.0;"/><polygon fill="none" points="775.5,482.3879,769.5,500.3879,781.5,500.3879,775.5,482.3879" style="stroke:#181818;stroke-width:1.0;"/></g><!--reverse link overarch_dataModel_useCaseModelRelation to overarch_dataModel_uses--><g id="link_overarch_dataModel_useCaseModelRelation_overarch_dataModel_uses"><path codeLine="55" d="M858.6399,596.4754 C899.2999,611.6054 935.04,626.5779 979.5,650.0679 C985.28,653.1179 991.23,656.6779 996.9,660.2979 " fill="none" id="overarch_dataModel_useCaseModelRelation-backto-overarch_dataModel_uses" style="stroke:#181818;stroke-width:1.0;"/><polygon fill="none" points="841.77,590.1979,856.5474,602.0987,860.7324,590.8521,841.77,590.1979" style="stroke:#181818;stroke-width:1.0;"/></g><!--reverse link overarch_dataModel_useCaseModelRelation to overarch_dataModel_generalizes--><g id="link_overarch_dataModel_useCaseModelRelation_overarch_dataModel_generalizes"><path codeLine="56" d="M815.1935,602.0699 C838.0435,622.2099 857.52,639.3779 880.35,659.5079 " fill="none" id="overarch_dataModel_useCaseModelRelation-backto-overarch_dataModel_generalizes" style="stroke:#181818;stroke-width:1.0;"/><polygon fill="none" points="801.69,590.1679,811.2261,606.571,819.1608,597.5687,801.69,590.1679" style="stroke:#181818;stroke-width:1.0;"/></g><!--SRC=[fLN1JiCm3BtdAwpTEy4LSKCSnm694q9JQCo8I1CKPuCnzk-aRTfbOsa3lKnQxFViFEUvJZg5y408Dzp_B8n01RSAAzIE62iL9u8PVZhKWcR02Sm6BRVbwr9mnvlyPGZ3Ri_uCpdBImS1MTK91RQ4ANoJ58h2ZW5KtAsjT5kuWZVSVXWhuF5YFhzyyZ77L-JF2Lrtjk_QbBfKQu6fCY5Sjna0QyAYzFTE8NoyaQNkIU76IzCtTAZwZfQCJb6qqQZc2hLFKl8Batf6AH6GjkImIc7QQ9HU6ksuz4GfH9-GdfisQJMRZ3lJwdaURb5n9zFQD5dt8QaH-SMQAjBOJziSINvQfnjWaLSmp7DnN7UKTaY6cB9Juy120x1ujjQeP8Kw5gNwDarofaqmuqOZXemlrVloD-a82qQE5aXbxLfdfLuTp2pCkTCZdm58SVHNymfxa7yJkNE-_YwAWUt51cwGWiQBYuqjja6I-kcmGPUbuASFaEKyqX6oIHpj9fecHpUqIOsqgtSIHUEdIGpzbftyJiFdwz_2dZ4ro_H-3cNkoFx2EUYAKS7-qrqEAKqcYJxmFm00]--></g></svg>