<?xml version="1.0" encoding="us-ascii" standalone="no"?><svg xmlns="http://www.w3.org/2000/svg" xmlns:xlink="http://www.w3.org/1999/xlink" contentStyleType="text/css" height="737px" preserveAspectRatio="none" style="width:952px;height:737px;background:#FFFFFF;" version="1.1" viewBox="0 0 952 737" width="952px" zoomAndPan="magnify"><defs/><g><text fill="#000000" font-family="sans-serif" font-size="14" font-weight="bold" lengthAdjust="spacing" textLength="203" x="367.75" y="22.9951">Use Case Model Elements</text><!--class overarch_dataModel_element--><g id="elem_overarch_dataModel_element"><rect codeLine="8" fill="#F1F1F1" height="64.2969" id="overarch_dataModel_element" rx="2.5" ry="2.5" style="stroke:#181818;stroke-width:0.5;" width="95" x="479" y="44.2969"/><ellipse cx="496.7" cy="60.2969" fill="#A9DCDF" rx="11" ry="11" style="stroke:#181818;stroke-width:1.0;"/><path d="M496.8094,55.6406 L495.6531,60.7188 L497.9813,60.7188 L496.8094,55.6406 Z M495.325,53.4063 L498.3094,53.4063 L501.6688,65.7969 L499.2156,65.7969 L498.45,62.7344 L495.1688,62.7344 L494.4188,65.7969 L491.9813,65.7969 L495.325,53.4063 Z " fill="#000000"/><text fill="#000000" font-family="sans-serif" font-size="14" font-style="italic" lengthAdjust="spacing" textLength="57" x="511.3" y="65.1436">element</text><line style="stroke:#181818;stroke-width:0.5;" x1="480" x2="573" y1="76.2969" y2="76.2969"/><text fill="#000000" font-family="sans-serif" font-size="14" lengthAdjust="spacing" textLength="83" x="485" y="93.292">el : keyword</text><line style="stroke:#181818;stroke-width:0.5;" x1="480" x2="573" y1="100.5938" y2="100.5938"/></g><!--class overarch_dataModel_identifiableElement--><g id="elem_overarch_dataModel_identifiableElement"><rect codeLine="11" fill="#F1F1F1" height="64.2969" id="overarch_dataModel_identifiableElement" rx="2.5" ry="2.5" style="stroke:#181818;stroke-width:0.5;" width="168" x="537.5" y="176.7969"/><ellipse cx="552.5" cy="192.7969" fill="#A9DCDF" rx="11" ry="11" style="stroke:#181818;stroke-width:1.0;"/><path d="M552.6094,188.1406 L551.4531,193.2188 L553.7813,193.2188 L552.6094,188.1406 Z M551.125,185.9063 L554.1094,185.9063 L557.4688,198.2969 L555.0156,198.2969 L554.25,195.2344 L550.9688,195.2344 L550.2188,198.2969 L547.7813,198.2969 L551.125,185.9063 Z " fill="#000000"/><text fill="#000000" font-family="sans-serif" font-size="14" font-style="italic" lengthAdjust="spacing" textLength="136" x="566.5" y="197.6436">identifiable-element</text><line style="stroke:#181818;stroke-width:0.5;" x1="538.5" x2="704.5" y1="208.7969" y2="208.7969"/><text fill="#000000" font-family="sans-serif" font-size="14" lengthAdjust="spacing" textLength="83" x="543.5" y="225.792">id : keyword</text><line style="stroke:#181818;stroke-width:0.5;" x1="538.5" x2="704.5" y1="233.0938" y2="233.0938"/></g><!--class overarch_dataModel_namedElement--><g id="elem_overarch_dataModel_namedElement"><rect codeLine="14" fill="#F1F1F1" height="80.5938" id="overarch_dataModel_namedElement" rx="2.5" ry="2.5" style="stroke:#181818;stroke-width:0.5;" width="142" x="360.5" y="168.2969"/><ellipse cx="375.5" cy="184.2969" fill="#A9DCDF" rx="11" ry="11" style="stroke:#181818;stroke-width:1.0;"/><path d="M375.6094,179.6406 L374.4531,184.7188 L376.7813,184.7188 L375.6094,179.6406 Z M374.125,177.4063 L377.1094,177.4063 L380.4688,189.7969 L378.0156,189.7969 L377.25,186.7344 L373.9688,186.7344 L373.2188,189.7969 L370.7813,189.7969 L374.125,177.4063 Z " fill="#000000"/><text fill="#000000" font-family="sans-serif" font-size="14" font-style="italic" lengthAdjust="spacing" textLength="110" x="389.5" y="189.1436">named-element</text><line style="stroke:#181818;stroke-width:0.5;" x1="361.5" x2="501.5" y1="200.2969" y2="200.2969"/><text fill="#000000" font-family="sans-serif" font-size="14" lengthAdjust="spacing" textLength="91" x="366.5" y="217.292">name : string</text><text fill="#000000" font-family="sans-serif" font-size="14" lengthAdjust="spacing" textLength="126" x="366.5" y="233.5889">desc : string [0..1]</text><line style="stroke:#181818;stroke-width:0.5;" x1="361.5" x2="501.5" y1="240.8906" y2="240.8906"/></g><!--class overarch_dataModel_identifiableNamedElement--><g id="elem_overarch_dataModel_identifiableNamedElement"><rect codeLine="18" fill="#F1F1F1" height="48" id="overarch_dataModel_identifiableNamedElement" rx="2.5" ry="2.5" style="stroke:#181818;stroke-width:0.5;" width="221" x="321" y="309.2969"/><ellipse cx="336" cy="325.2969" fill="#A9DCDF" rx="11" ry="11" style="stroke:#181818;stroke-width:1.0;"/><path d="M336.1094,320.6406 L334.9531,325.7188 L337.2813,325.7188 L336.1094,320.6406 Z M334.625,318.4063 L337.6094,318.4063 L340.9688,330.7969 L338.5156,330.7969 L337.75,327.7344 L334.4688,327.7344 L333.7188,330.7969 L331.2813,330.7969 L334.625,318.4063 Z " fill="#000000"/><text fill="#000000" font-family="sans-serif" font-size="14" font-style="italic" lengthAdjust="spacing" textLength="189" x="350" y="330.1436">identifiable-named-element</text><line style="stroke:#181818;stroke-width:0.5;" x1="322" x2="541" y1="341.2969" y2="341.2969"/><line style="stroke:#181818;stroke-width:0.5;" x1="322" x2="541" y1="349.2969" y2="349.2969"/></g><!--class overarch_dataModel_relationalElement--><g id="elem_overarch_dataModel_relationalElement"><rect codeLine="19" fill="#F1F1F1" height="80.5938" id="overarch_dataModel_relationalElement" rx="2.5" ry="2.5" style="stroke:#181818;stroke-width:0.5;" width="156" x="556.5" y="417.2969"/><ellipse cx="571.5" cy="433.2969" fill="#A9DCDF" rx="11" ry="11" style="stroke:#181818;stroke-width:1.0;"/><path d="M571.6094,428.6406 L570.4531,433.7188 L572.7813,433.7188 L571.6094,428.6406 Z M570.125,426.4063 L573.1094,426.4063 L576.4688,438.7969 L574.0156,438.7969 L573.25,435.7344 L569.9688,435.7344 L569.2188,438.7969 L566.7813,438.7969 L570.125,426.4063 Z " fill="#000000"/><text fill="#000000" font-family="sans-serif" font-size="14" font-style="italic" lengthAdjust="spacing" textLength="124" x="585.5" y="438.1436">relational-element</text><line style="stroke:#181818;stroke-width:0.5;" x1="557.5" x2="711.5" y1="449.2969" y2="449.2969"/><text fill="#000000" font-family="sans-serif" font-size="14" lengthAdjust="spacing" textLength="102" x="562.5" y="466.292">from : keyword</text><text fill="#000000" font-family="sans-serif" font-size="14" lengthAdjust="spacing" textLength="85" x="562.5" y="482.5889">to : keyword</text><line style="stroke:#181818;stroke-width:0.5;" x1="557.5" x2="711.5" y1="489.8906" y2="489.8906"/></g><!--class overarch_dataModel_useCaseModelElement--><g id="elem_overarch_dataModel_useCaseModelElement"><rect codeLine="23" fill="#F1F1F1" height="48" id="overarch_dataModel_useCaseModelElement" rx="2.5" ry="2.5" style="stroke:#181818;stroke-width:0.5;" width="204" x="317.5" y="433.7969"/><ellipse cx="332.5" cy="449.7969" fill="#A9DCDF" rx="11" ry="11" style="stroke:#181818;stroke-width:1.0;"/><path d="M332.6094,445.1406 L331.4531,450.2188 L333.7813,450.2188 L332.6094,445.1406 Z M331.125,442.9063 L334.1094,442.9063 L337.4688,455.2969 L335.0156,455.2969 L334.25,452.2344 L330.9688,452.2344 L330.2188,455.2969 L327.7813,455.2969 L331.125,442.9063 Z " fill="#000000"/><text fill="#000000" font-family="sans-serif" font-size="14" font-style="italic" lengthAdjust="spacing" textLength="172" x="346.5" y="454.6436">use-case-model-element</text><line style="stroke:#181818;stroke-width:0.5;" x1="318.5" x2="520.5" y1="465.7969" y2="465.7969"/><line style="stroke:#181818;stroke-width:0.5;" x1="318.5" x2="520.5" y1="473.7969" y2="473.7969"/></g><!--class overarch_dataModel_useCaseModelNode--><g id="elem_overarch_dataModel_useCaseModelNode"><rect codeLine="24" fill="#F1F1F1" height="48" id="overarch_dataModel_useCaseModelNode" rx="2.5" ry="2.5" style="stroke:#181818;stroke-width:0.5;" width="183" x="183" y="558.2969"/><ellipse cx="198" cy="574.2969" fill="#A9DCDF" rx="11" ry="11" style="stroke:#181818;stroke-width:1.0;"/><path d="M198.1094,569.6406 L196.9531,574.7188 L199.2813,574.7188 L198.1094,569.6406 Z M196.625,567.4063 L199.6094,567.4063 L202.9688,579.7969 L200.5156,579.7969 L199.75,576.7344 L196.4688,576.7344 L195.7188,579.7969 L193.2813,579.7969 L196.625,567.4063 Z " fill="#000000"/><text fill="#000000" font-family="sans-serif" font-size="14" font-style="italic" lengthAdjust="spacing" textLength="151" x="212" y="579.1436">use-case-model-node</text><line style="stroke:#181818;stroke-width:0.5;" x1="184" x2="365" y1="590.2969" y2="590.2969"/><line style="stroke:#181818;stroke-width:0.5;" x1="184" x2="365" y1="598.2969" y2="598.2969"/></g><!--class overarch_dataModel_useCaseModelRelation--><g id="elem_overarch_dataModel_useCaseModelRelation"><rect codeLine="25" fill="#F1F1F1" height="48" id="overarch_dataModel_useCaseModelRelation" rx="2.5" ry="2.5" style="stroke:#181818;stroke-width:0.5;" width="198" x="535.5" y="558.2969"/><ellipse cx="550.5" cy="574.2969" fill="#A9DCDF" rx="11" ry="11" style="stroke:#181818;stroke-width:1.0;"/><path d="M550.6094,569.6406 L549.4531,574.7188 L551.7813,574.7188 L550.6094,569.6406 Z M549.125,567.4063 L552.1094,567.4063 L555.4688,579.7969 L553.0156,579.7969 L552.25,576.7344 L548.9688,576.7344 L548.2188,579.7969 L545.7813,579.7969 L549.125,567.4063 Z " fill="#000000"/><text fill="#000000" font-family="sans-serif" font-size="14" font-style="italic" lengthAdjust="spacing" textLength="166" x="564.5" y="579.1436">use-case-model-relation</text><line style="stroke:#181818;stroke-width:0.5;" x1="536.5" x2="732.5" y1="590.2969" y2="590.2969"/><line style="stroke:#181818;stroke-width:0.5;" x1="536.5" x2="732.5" y1="598.2969" y2="598.2969"/></g><!--class overarch_dataModel_person--><g id="elem_overarch_dataModel_person"><rect codeLine="26" fill="#F1F1F1" height="48" id="overarch_dataModel_person" rx="2.5" ry="2.5" style="stroke:#181818;stroke-width:0.5;" width="81" x="7" y="674.2969"/><ellipse cx="22" cy="690.2969" fill="#ADD1B2" rx="11" ry="11" style="stroke:#181818;stroke-width:1.0;"/><path d="M24.9688,695.9375 Q24.3906,696.2344 23.75,696.375 Q23.1094,696.5313 22.4063,696.5313 Q19.9063,696.5313 18.5781,694.8906 Q17.2656,693.2344 17.2656,690.1094 Q17.2656,686.9844 18.5781,685.3281 Q19.9063,683.6719 22.4063,683.6719 Q23.1094,683.6719 23.75,683.8281 Q24.4063,683.9844 24.9688,684.2813 L24.9688,687 Q24.3438,686.4219 23.75,686.1563 Q23.1563,685.875 22.5313,685.875 Q21.1875,685.875 20.5,686.9531 Q19.8125,688.0156 19.8125,690.1094 Q19.8125,692.2031 20.5,693.2813 Q21.1875,694.3438 22.5313,694.3438 Q23.1563,694.3438 23.75,694.0781 Q24.3438,693.7969 24.9688,693.2188 L24.9688,695.9375 Z " fill="#000000"/><text fill="#000000" font-family="sans-serif" font-size="14" lengthAdjust="spacing" textLength="49" x="36" y="695.1436">person</text><line style="stroke:#181818;stroke-width:0.5;" x1="8" x2="87" y1="706.2969" y2="706.2969"/><line style="stroke:#181818;stroke-width:0.5;" x1="8" x2="87" y1="714.2969" y2="714.2969"/></g><!--class overarch_dataModel_system--><g id="elem_overarch_dataModel_system"><rect codeLine="27" fill="#F1F1F1" height="48" id="overarch_dataModel_system" rx="2.5" ry="2.5" style="stroke:#181818;stroke-width:0.5;" width="82" x="123.5" y="674.2969"/><ellipse cx="138.5" cy="690.2969" fill="#ADD1B2" rx="11" ry="11" style="stroke:#181818;stroke-width:1.0;"/><path d="M141.4688,695.9375 Q140.8906,696.2344 140.25,696.375 Q139.6094,696.5313 138.9063,696.5313 Q136.4063,696.5313 135.0781,694.8906 Q133.7656,693.2344 133.7656,690.1094 Q133.7656,686.9844 135.0781,685.3281 Q136.4063,683.6719 138.9063,683.6719 Q139.6094,683.6719 140.25,683.8281 Q140.9063,683.9844 141.4688,684.2813 L141.4688,687 Q140.8438,686.4219 140.25,686.1563 Q139.6563,685.875 139.0313,685.875 Q137.6875,685.875 137,686.9531 Q136.3125,688.0156 136.3125,690.1094 Q136.3125,692.2031 137,693.2813 Q137.6875,694.3438 139.0313,694.3438 Q139.6563,694.3438 140.25,694.0781 Q140.8438,693.7969 141.4688,693.2188 L141.4688,695.9375 Z " fill="#000000"/><text fill="#000000" font-family="sans-serif" font-size="14" lengthAdjust="spacing" textLength="50" x="152.5" y="695.1436">system</text><line style="stroke:#181818;stroke-width:0.5;" x1="124.5" x2="204.5" y1="706.2969" y2="706.2969"/><line style="stroke:#181818;stroke-width:0.5;" x1="124.5" x2="204.5" y1="714.2969" y2="714.2969"/></g><!--class overarch_dataModel_actor--><g id="elem_overarch_dataModel_actor"><rect codeLine="28" fill="#F1F1F1" height="48" id="overarch_dataModel_actor" rx="2.5" ry="2.5" style="stroke:#181818;stroke-width:0.5;" width="67" x="241" y="674.2969"/><ellipse cx="256" cy="690.2969" fill="#ADD1B2" rx="11" ry="11" style="stroke:#181818;stroke-width:1.0;"/><path d="M258.9688,695.9375 Q258.3906,696.2344 257.75,696.375 Q257.1094,696.5313 256.4063,696.5313 Q253.9063,696.5313 252.5781,694.8906 Q251.2656,693.2344 251.2656,690.1094 Q251.2656,686.9844 252.5781,685.3281 Q253.9063,683.6719 256.4063,683.6719 Q257.1094,683.6719 257.75,683.8281 Q258.4063,683.9844 258.9688,684.2813 L258.9688,687 Q258.3438,686.4219 257.75,686.1563 Q257.1563,685.875 256.5313,685.875 Q255.1875,685.875 254.5,686.9531 Q253.8125,688.0156 253.8125,690.1094 Q253.8125,692.2031 254.5,693.2813 Q255.1875,694.3438 256.5313,694.3438 Q257.1563,694.3438 257.75,694.0781 Q258.3438,693.7969 258.9688,693.2188 L258.9688,695.9375 Z " fill="#000000"/><text fill="#000000" font-family="sans-serif" font-size="14" lengthAdjust="spacing" textLength="35" x="270" y="695.1436">actor</text><line style="stroke:#181818;stroke-width:0.5;" x1="242" x2="307" y1="706.2969" y2="706.2969"/><line style="stroke:#181818;stroke-width:0.5;" x1="242" x2="307" y1="714.2969" y2="714.2969"/></g><!--class overarch_dataModel_useCase--><g id="elem_overarch_dataModel_useCase"><rect codeLine="29" fill="#F1F1F1" height="64.2969" id="overarch_dataModel_useCase" rx="2.5" ry="2.5" style="stroke:#181818;stroke-width:0.5;" width="114" x="343.5" y="666.2969"/><ellipse cx="366.6" cy="682.2969" fill="#ADD1B2" rx="11" ry="11" style="stroke:#181818;stroke-width:1.0;"/><path d="M369.5688,687.9375 Q368.9906,688.2344 368.35,688.375 Q367.7094,688.5313 367.0063,688.5313 Q364.5063,688.5313 363.1781,686.8906 Q361.8656,685.2344 361.8656,682.1094 Q361.8656,678.9844 363.1781,677.3281 Q364.5063,675.6719 367.0063,675.6719 Q367.7094,675.6719 368.35,675.8281 Q369.0063,675.9844 369.5688,676.2813 L369.5688,679 Q368.9438,678.4219 368.35,678.1563 Q367.7563,677.875 367.1313,677.875 Q365.7875,677.875 365.1,678.9531 Q364.4125,680.0156 364.4125,682.1094 Q364.4125,684.2031 365.1,685.2813 Q365.7875,686.3438 367.1313,686.3438 Q367.7563,686.3438 368.35,686.0781 Q368.9438,685.7969 369.5688,685.2188 L369.5688,687.9375 Z " fill="#000000"/><text fill="#000000" font-family="sans-serif" font-size="14" lengthAdjust="spacing" textLength="64" x="382.4" y="687.1436">use-case</text><line style="stroke:#181818;stroke-width:0.5;" x1="344.5" x2="456.5" y1="698.2969" y2="698.2969"/><text fill="#000000" font-family="sans-serif" font-size="14" lengthAdjust="spacing" textLength="102" x="349.5" y="715.292">level : keyword</text><line style="stroke:#181818;stroke-width:0.5;" x1="344.5" x2="456.5" y1="722.5938" y2="722.5938"/></g><!--class overarch_dataModel_uses--><g id="elem_overarch_dataModel_uses"><rect codeLine="32" fill="#F1F1F1" height="48" id="overarch_dataModel_uses" rx="2.5" ry="2.5" style="stroke:#181818;stroke-width:0.5;" width="66" x="492.5" y="674.2969"/><ellipse cx="507.5" cy="690.2969" fill="#ADD1B2" rx="11" ry="11" style="stroke:#181818;stroke-width:1.0;"/><path d="M510.4688,695.9375 Q509.8906,696.2344 509.25,696.375 Q508.6094,696.5313 507.9063,696.5313 Q505.4063,696.5313 504.0781,694.8906 Q502.7656,693.2344 502.7656,690.1094 Q502.7656,686.9844 504.0781,685.3281 Q505.4063,683.6719 507.9063,683.6719 Q508.6094,683.6719 509.25,683.8281 Q509.9063,683.9844 510.4688,684.2813 L510.4688,687 Q509.8438,686.4219 509.25,686.1563 Q508.6563,685.875 508.0313,685.875 Q506.6875,685.875 506,686.9531 Q505.3125,688.0156 505.3125,690.1094 Q505.3125,692.2031 506,693.2813 Q506.6875,694.3438 508.0313,694.3438 Q508.6563,694.3438 509.25,694.0781 Q509.8438,693.7969 510.4688,693.2188 L510.4688,695.9375 Z " fill="#000000"/><text fill="#000000" font-family="sans-serif" font-size="14" lengthAdjust="spacing" textLength="34" x="521.5" y="695.1436">uses</text><line style="stroke:#181818;stroke-width:0.5;" x1="493.5" x2="557.5" y1="706.2969" y2="706.2969"/><line style="stroke:#181818;stroke-width:0.5;" x1="493.5" x2="557.5" y1="714.2969" y2="714.2969"/></g><!--class overarch_dataModel_include--><g id="elem_overarch_dataModel_include"><rect codeLine="33" fill="#F1F1F1" height="48" id="overarch_dataModel_include" rx="2.5" ry="2.5" style="stroke:#181818;stroke-width:0.5;" width="82" x="593.5" y="674.2969"/><ellipse cx="608.5" cy="690.2969" fill="#ADD1B2" rx="11" ry="11" style="stroke:#181818;stroke-width:1.0;"/><path d="M611.4688,695.9375 Q610.8906,696.2344 610.25,696.375 Q609.6094,696.5313 608.9063,696.5313 Q606.4063,696.5313 605.0781,694.8906 Q603.7656,693.2344 603.7656,690.1094 Q603.7656,686.9844 605.0781,685.3281 Q606.4063,683.6719 608.9063,683.6719 Q609.6094,683.6719 610.25,683.8281 Q610.9063,683.9844 611.4688,684.2813 L611.4688,687 Q610.8438,686.4219 610.25,686.1563 Q609.6563,685.875 609.0313,685.875 Q607.6875,685.875 607,686.9531 Q606.3125,688.0156 606.3125,690.1094 Q606.3125,692.2031 607,693.2813 Q607.6875,694.3438 609.0313,694.3438 Q609.6563,694.3438 610.25,694.0781 Q610.8438,693.7969 611.4688,693.2188 L611.4688,695.9375 Z " fill="#000000"/><text fill="#000000" font-family="sans-serif" font-size="14" lengthAdjust="spacing" textLength="50" x="622.5" y="695.1436">include</text><line style="stroke:#181818;stroke-width:0.5;" x1="594.5" x2="674.5" y1="706.2969" y2="706.2969"/><line style="stroke:#181818;stroke-width:0.5;" x1="594.5" x2="674.5" y1="714.2969" y2="714.2969"/></g><!--class overarch_dataModel_extends--><g id="elem_overarch_dataModel_extends"><rect codeLine="34" fill="#F1F1F1" height="48" id="overarch_dataModel_extends" rx="2.5" ry="2.5" style="stroke:#181818;stroke-width:0.5;" width="88" x="710.5" y="674.2969"/><ellipse cx="725.5" cy="690.2969" fill="#ADD1B2" rx="11" ry="11" style="stroke:#181818;stroke-width:1.0;"/><path d="M728.4688,695.9375 Q727.8906,696.2344 727.25,696.375 Q726.6094,696.5313 725.9063,696.5313 Q723.4063,696.5313 722.0781,694.8906 Q720.7656,693.2344 720.7656,690.1094 Q720.7656,686.9844 722.0781,685.3281 Q723.4063,683.6719 725.9063,683.6719 Q726.6094,683.6719 727.25,683.8281 Q727.9063,683.9844 728.4688,684.2813 L728.4688,687 Q727.8438,686.4219 727.25,686.1563 Q726.6563,685.875 726.0313,685.875 Q724.6875,685.875 724,686.9531 Q723.3125,688.0156 723.3125,690.1094 Q723.3125,692.2031 724,693.2813 Q724.6875,694.3438 726.0313,694.3438 Q726.6563,694.3438 727.25,694.0781 Q727.8438,693.7969 728.4688,693.2188 L728.4688,695.9375 Z " fill="#000000"/><text fill="#000000" font-family="sans-serif" font-size="14" lengthAdjust="spacing" textLength="56" x="739.5" y="695.1436">extends</text><line style="stroke:#181818;stroke-width:0.5;" x1="711.5" x2="797.5" y1="706.2969" y2="706.2969"/><line style="stroke:#181818;stroke-width:0.5;" x1="711.5" x2="797.5" y1="714.2969" y2="714.2969"/></g><!--class overarch_dataModel_generalizes--><g id="elem_overarch_dataModel_generalizes"><rect codeLine="35" fill="#F1F1F1" height="48" id="overarch_dataModel_generalizes" rx="2.5" ry="2.5" style="stroke:#181818;stroke-width:0.5;" width="112" x="833.5" y="674.2969"/><ellipse cx="848.5" cy="690.2969" fill="#ADD1B2" rx="11" ry="11" style="stroke:#181818;stroke-width:1.0;"/><path d="M851.4688,695.9375 Q850.8906,696.2344 850.25,696.375 Q849.6094,696.5313 848.9063,696.5313 Q846.4063,696.5313 845.0781,694.8906 Q843.7656,693.2344 843.7656,690.1094 Q843.7656,686.9844 845.0781,685.3281 Q846.4063,683.6719 848.9063,683.6719 Q849.6094,683.6719 850.25,683.8281 Q850.9063,683.9844 851.4688,684.2813 L851.4688,687 Q850.8438,686.4219 850.25,686.1563 Q849.6563,685.875 849.0313,685.875 Q847.6875,685.875 847,686.9531 Q846.3125,688.0156 846.3125,690.1094 Q846.3125,692.2031 847,693.2813 Q847.6875,694.3438 849.0313,694.3438 Q849.6563,694.3438 850.25,694.0781 Q850.8438,693.7969 851.4688,693.2188 L851.4688,695.9375 Z " fill="#000000"/><text fill="#000000" font-family="sans-serif" font-size="14" lengthAdjust="spacing" textLength="80" x="862.5" y="695.1436">generalizes</text><line style="stroke:#181818;stroke-width:0.5;" x1="834.5" x2="944.5" y1="706.2969" y2="706.2969"/><line style="stroke:#181818;stroke-width:0.5;" x1="834.5" x2="944.5" y1="714.2969" y2="714.2969"/></g><!--reverse link overarch_dataModel_element to overarch_dataModel_identifiableElement--><g id="link_overarch_dataModel_element_overarch_dataModel_identifiableElement"><path codeLine="36" d="M561.06,124.7669 C573.68,142.1069 587.62,161.2569 598.93,176.7969 " fill="none" id="overarch_dataModel_element-backto-overarch_dataModel_identifiableElement" style="stroke:#181818;stroke-width:1.0;"/><polygon fill="none" points="555.37,128.8469,549.25,108.5569,566.68,120.6069,555.37,128.8469" style="stroke:#181818;stroke-width:1.0;"/></g><!--reverse link overarch_dataModel_element to overarch_dataModel_namedElement--><g id="link_overarch_dataModel_element_overarch_dataModel_namedElement"><path codeLine="37" d="M491.8,124.9669 C481.54,139.0569 470.42,154.3369 460.55,167.8869 " fill="none" id="overarch_dataModel_element-backto-overarch_dataModel_namedElement" style="stroke:#181818;stroke-width:1.0;"/><polygon fill="none" points="486.32,120.6069,503.75,108.5569,497.63,128.8469,486.32,120.6069" style="stroke:#181818;stroke-width:1.0;"/></g><!--reverse link overarch_dataModel_identifiableElement to overarch_dataModel_identifiableNamedElement--><g id="link_overarch_dataModel_identifiableElement_overarch_dataModel_identifiableNamedElement"><path codeLine="38" d="M556.13,251.9469 C526.34,271.1469 492.24,293.1369 467.25,309.2469 " fill="none" id="overarch_dataModel_identifiableElement-backto-overarch_dataModel_identifiableNamedElement" style="stroke:#181818;stroke-width:1.0;"/><polygon fill="none" points="552.46,245.9769,573.06,241.0269,560.05,257.7469,552.46,245.9769" style="stroke:#181818;stroke-width:1.0;"/></g><!--reverse link overarch_dataModel_namedElement to overarch_dataModel_identifiableNamedElement--><g id="link_overarch_dataModel_namedElement_overarch_dataModel_identifiableNamedElement"><path codeLine="39" d="M431.5,269.7169 C431.5,283.7469 431.5,297.8669 431.5,309.1369 " fill="none" id="overarch_dataModel_namedElement-backto-overarch_dataModel_identifiableNamedElement" style="stroke:#181818;stroke-width:1.0;"/><polygon fill="none" points="424.5,269.5669,431.5,249.5669,438.5,269.5669,424.5,269.5669" style="stroke:#181818;stroke-width:1.0;"/></g><!--reverse link overarch_dataModel_identifiableElement to overarch_dataModel_relationalElement--><g id="link_overarch_dataModel_identifiableElement_overarch_dataModel_relationalElement"><path codeLine="40" d="M624.2,261.0569 C626.64,307.4569 630.19,374.8369 632.42,417.2169 " fill="none" id="overarch_dataModel_identifiableElement-backto-overarch_dataModel_relationalElement" style="stroke:#181818;stroke-width:1.0;"/><polygon fill="none" points="617.21,261.4169,623.15,241.0769,631.19,260.6869,617.21,261.4169" style="stroke:#181818;stroke-width:1.0;"/></g><!--reverse link overarch_dataModel_identifiableNamedElement to overarch_dataModel_useCaseModelElement--><g id="link_overarch_dataModel_identifiableNamedElement_overarch_dataModel_useCaseModelElement"><path codeLine="41" d="M427.27,377.4669 C425.43,396.2969 423.34,417.6369 421.79,433.4469 " fill="none" id="overarch_dataModel_identifiableNamedElement-backto-overarch_dataModel_useCaseModelElement" style="stroke:#181818;stroke-width:1.0;"/><polygon fill="none" points="420.33,376.5569,429.24,357.3369,434.26,377.9269,420.33,376.5569" style="stroke:#181818;stroke-width:1.0;"/></g><!--reverse link overarch_dataModel_useCaseModelElement to overarch_dataModel_useCaseModelNode--><g id="link_overarch_dataModel_useCaseModelElement_overarch_dataModel_useCaseModelNode"><path codeLine="42" d="M376.91,494.7769 C352.77,515.1669 323.27,540.0969 302.14,557.9469 " fill="none" id="overarch_dataModel_useCaseModelElement-backto-overarch_dataModel_useCaseModelNode" style="stroke:#181818;stroke-width:1.0;"/><polygon fill="none" points="372.43,489.3969,392.23,481.8369,381.47,500.0969,372.43,489.3969" style="stroke:#181818;stroke-width:1.0;"/></g><!--reverse link overarch_dataModel_useCaseModelElement to overarch_dataModel_useCaseModelRelation--><g id="link_overarch_dataModel_useCaseModelElement_overarch_dataModel_useCaseModelRelation"><path codeLine="43" d="M477.37,491.7669 C514.2,512.7469 560.97,539.4069 593.88,558.1469 " fill="none" id="overarch_dataModel_useCaseModelElement-backto-overarch_dataModel_useCaseModelRelation" style="stroke:#181818;stroke-width:1.0;"/><polygon fill="none" points="473.85,497.8169,459.94,481.8369,480.78,485.6569,473.85,497.8169" style="stroke:#181818;stroke-width:1.0;"/></g><!--reverse link overarch_dataModel_relationalElement to overarch_dataModel_useCaseModelRelation--><g id="link_overarch_dataModel_relationalElement_overarch_dataModel_useCaseModelRelation"><path codeLine="44" d="M634.5,518.7169 C634.5,532.7469 634.5,546.8669 634.5,558.1369 " fill="none" id="overarch_dataModel_relationalElement-backto-overarch_dataModel_useCaseModelRelation" style="stroke:#181818;stroke-width:1.0;"/><polygon fill="none" points="627.5,518.5669,634.5,498.5669,641.5,518.5669,627.5,518.5669" style="stroke:#181818;stroke-width:1.0;"/></g><!--reverse link overarch_dataModel_useCaseModelNode to overarch_dataModel_actor--><g id="link_overarch_dataModel_useCaseModelNode_overarch_dataModel_actor"><path codeLine="45" d="M274.5,626.6169 C274.5,642.8269 274.5,660.5969 274.5,674.2569 " fill="none" id="overarch_dataModel_useCaseModelNode-backto-overarch_dataModel_actor" style="stroke:#181818;stroke-width:1.0;"/><polygon fill="none" points="267.5,626.3669,274.5,606.3669,281.5,626.3669,267.5,626.3669" style="stroke:#181818;stroke-width:1.0;"/></g><!--reverse link overarch_dataModel_useCaseModelNode to overarch_dataModel_person--><g id="link_overarch_dataModel_useCaseModelNode_overarch_dataModel_person"><path codeLine="46" d="M208.14,615.2369 C176.88,630.4469 139.14,649.0469 105.5,666.2969 C99.91,669.1569 94.05,672.2269 88.28,675.2769 " fill="none" id="overarch_dataModel_useCaseModelNode-backto-overarch_dataModel_person" style="stroke:#181818;stroke-width:1.0;"/><polygon fill="none" points="205.15,608.9069,226.2,606.4769,211.26,621.4969,205.15,608.9069" style="stroke:#181818;stroke-width:1.0;"/></g><!--reverse link overarch_dataModel_useCaseModelNode to overarch_dataModel_system--><g id="link_overarch_dataModel_useCaseModelNode_overarch_dataModel_system"><path codeLine="47" d="M238.19,620.9269 C221.19,638.5469 201.48,658.9669 186.73,674.2569 " fill="none" id="overarch_dataModel_useCaseModelNode-backto-overarch_dataModel_system" style="stroke:#181818;stroke-width:1.0;"/><polygon fill="none" points="233.32,615.8969,252.24,606.3669,243.39,625.6169,233.32,615.8969" style="stroke:#181818;stroke-width:1.0;"/></g><!--reverse link overarch_dataModel_useCaseModelNode to overarch_dataModel_useCase--><g id="link_overarch_dataModel_useCaseModelNode_overarch_dataModel_useCase"><path codeLine="48" d="M314.87,619.8269 C331.33,634.7169 350.16,651.7469 365.97,666.0469 " fill="none" id="overarch_dataModel_useCaseModelNode-backto-overarch_dataModel_useCase" style="stroke:#181818;stroke-width:1.0;"/><polygon fill="none" points="310.13,624.9769,300,606.3669,319.53,614.5969,310.13,624.9769" style="stroke:#181818;stroke-width:1.0;"/></g><!--reverse link overarch_dataModel_useCaseModelRelation to overarch_dataModel_uses--><g id="link_overarch_dataModel_useCaseModelRelation_overarch_dataModel_uses"><path codeLine="49" d="M598.52,620.9269 C581.67,638.5469 562.14,658.9669 547.52,674.2569 " fill="none" id="overarch_dataModel_useCaseModelRelation-backto-overarch_dataModel_uses" style="stroke:#181818;stroke-width:1.0;"/><polygon fill="none" points="593.56,615.9869,612.44,606.3669,603.68,625.6569,593.56,615.9869" style="stroke:#181818;stroke-width:1.0;"/></g><!--reverse link overarch_dataModel_useCaseModelRelation to overarch_dataModel_include--><g id="link_overarch_dataModel_useCaseModelRelation_overarch_dataModel_include"><path codeLine="50" d="M634.5,626.6169 C634.5,642.8269 634.5,660.5969 634.5,674.2569 " fill="none" id="overarch_dataModel_useCaseModelRelation-backto-overarch_dataModel_include" style="stroke:#181818;stroke-width:1.0;"/><polygon fill="none" points="627.5,626.3669,634.5,606.3669,641.5,626.3669,627.5,626.3669" style="stroke:#181818;stroke-width:1.0;"/></g><!--reverse link overarch_dataModel_useCaseModelRelation to overarch_dataModel_extends--><g id="link_overarch_dataModel_useCaseModelRelation_overarch_dataModel_extends"><path codeLine="51" d="M673.55,620.3969 C692.23,638.1369 714,658.8169 730.25,674.2569 " fill="none" id="overarch_dataModel_useCaseModelRelation-backto-overarch_dataModel_extends" style="stroke:#181818;stroke-width:1.0;"/><polygon fill="none" points="668.46,625.2169,658.78,606.3669,678.11,615.0669,668.46,625.2169" style="stroke:#181818;stroke-width:1.0;"/></g><!--reverse link overarch_dataModel_useCaseModelRelation to overarch_dataModel_generalizes--><g id="link_overarch_dataModel_useCaseModelRelation_overarch_dataModel_generalizes"><path codeLine="52" d="M704.37,614.5369 C746.61,633.4169 799.54,657.0769 837.97,674.2569 " fill="none" id="overarch_dataModel_useCaseModelRelation-backto-overarch_dataModel_generalizes" style="stroke:#181818;stroke-width:1.0;"/><polygon fill="none" points="701.5,620.9169,686.1,606.3669,707.22,608.1369,701.5,620.9169" style="stroke:#181818;stroke-width:1.0;"/></g><!--SRC=[hPHDJmCX48Rl_0hYVHkz6c-cHtimyMHCGvTf9R9WW5Rhnt-NtQLssfM5IYyaTDvvO7QtZnDE0dsmG6-PN-uq1qcd4XfGpXAsiCwmsj5QCclf1VI52yeirHimpDJFSyuSw_hceKm_2QKUSqrVOFkc3IVV0vBWFYYMWYqaL0aipaxH4OAF7g5O0pp5xa8OslxWiHubrChlETZwTqyVBoUJgwVKF5aduuxPmIs6T0EIEQ4LaodgFec7MXhTe6T5gTEZZsvjeQhzzr0rBJHrfa-t7q-t6HdY2AhycaES-IK3jniy1taViYqsq5x1s7XpNqLnkxKEcbYyhwAulxOsiNHNHE7TO8b9kXShONFqHzj3x0Z0elE4gkKw_Yv26JN0kmF5e_XGHWqhK3ubnKVyJYZIDex8vUQhgZ8jyHyC5WB9b57EbMO9xe68pW4yvQ83Qv1JX1MZ_k45agcF76GhXdFoTbOWMLej9GuK5mDsUYWYzFOgGlH6AqA48CbrymZ75aE2r8evmNN57AI_7m00]--></g></svg>