<svg xmlns="http://www.w3.org/2000/svg" xmlns:xlink="http://www.w3.org/1999/xlink" contentStyleType="text/css" height="753px" preserveAspectRatio="none" style="width:952px;height:753px;background:#FFFFFF;" version="1.1" viewBox="0 0 952 753" width="952px" zoomAndPan="magnify"><defs/><g><text fill="#000000" font-family="sans-serif" font-size="14" font-weight="bold" lengthAdjust="spacing" textLength="203" x="367.75" y="22.9951">Use Case Model Elements</text><!--class overarch_dataModel_identifiableNamedElement--><g id="elem_overarch_dataModel_identifiableNamedElement"><rect codeLine="9" fill="#F1F1F1" height="48" id="overarch_dataModel_identifiableNamedElement" rx="2.5" ry="2.5" style="stroke:#181818;stroke-width:0.5;" width="221" x="354" y="325.2969"/><ellipse cx="369" cy="341.2969" fill="#A9DCDF" rx="11" ry="11" style="stroke:#181818;stroke-width:1.0;"/><path d="M369.1094,336.6406 L367.9531,341.7188 L370.2813,341.7188 L369.1094,336.6406 Z M367.625,334.4063 L370.6094,334.4063 L373.9688,346.7969 L371.5156,346.7969 L370.75,343.7344 L367.4688,343.7344 L366.7188,346.7969 L364.2813,346.7969 L367.625,334.4063 Z " fill="#000000"/><text fill="#000000" font-family="sans-serif" font-size="14" font-style="italic" lengthAdjust="spacing" textLength="189" x="383" y="346.1436">identifiable-named-element</text><line style="stroke:#181818;stroke-width:0.5;" x1="355" x2="574" y1="357.2969" y2="357.2969"/><line style="stroke:#181818;stroke-width:0.5;" x1="355" x2="574" y1="365.2969" y2="365.2969"/></g><!--class overarch_dataModel_actor--><g id="elem_overarch_dataModel_actor"><rect codeLine="10" fill="#F1F1F1" height="48" id="overarch_dataModel_actor" rx="2.5" ry="2.5" style="stroke:#181818;stroke-width:0.5;" width="67" x="7" y="690.2969"/><ellipse cx="22" cy="706.2969" fill="#ADD1B2" rx="11" ry="11" style="stroke:#181818;stroke-width:1.0;"/><path d="M24.9688,711.9375 Q24.3906,712.2344 23.75,712.375 Q23.1094,712.5313 22.4063,712.5313 Q19.9063,712.5313 18.5781,710.8906 Q17.2656,709.2344 17.2656,706.1094 Q17.2656,702.9844 18.5781,701.3281 Q19.9063,699.6719 22.4063,699.6719 Q23.1094,699.6719 23.75,699.8281 Q24.4063,699.9844 24.9688,700.2813 L24.9688,703 Q24.3438,702.4219 23.75,702.1563 Q23.1563,701.875 22.5313,701.875 Q21.1875,701.875 20.5,702.9531 Q19.8125,704.0156 19.8125,706.1094 Q19.8125,708.2031 20.5,709.2813 Q21.1875,710.3438 22.5313,710.3438 Q23.1563,710.3438 23.75,710.0781 Q24.3438,709.7969 24.9688,709.2188 L24.9688,711.9375 Z " fill="#000000"/><text fill="#000000" font-family="sans-serif" font-size="14" lengthAdjust="spacing" textLength="35" x="36" y="711.1436">actor</text><line style="stroke:#181818;stroke-width:0.5;" x1="8" x2="73" y1="722.2969" y2="722.2969"/><line style="stroke:#181818;stroke-width:0.5;" x1="8" x2="73" y1="730.2969" y2="730.2969"/></g><!--class overarch_dataModel_system--><g id="elem_overarch_dataModel_system"><rect codeLine="11" fill="#F1F1F1" height="48" id="overarch_dataModel_system" rx="2.5" ry="2.5" style="stroke:#181818;stroke-width:0.5;" width="82" x="109.5" y="690.2969"/><ellipse cx="124.5" cy="706.2969" fill="#ADD1B2" rx="11" ry="11" style="stroke:#181818;stroke-width:1.0;"/><path d="M127.4688,711.9375 Q126.8906,712.2344 126.25,712.375 Q125.6094,712.5313 124.9063,712.5313 Q122.4063,712.5313 121.0781,710.8906 Q119.7656,709.2344 119.7656,706.1094 Q119.7656,702.9844 121.0781,701.3281 Q122.4063,699.6719 124.9063,699.6719 Q125.6094,699.6719 126.25,699.8281 Q126.9063,699.9844 127.4688,700.2813 L127.4688,703 Q126.8438,702.4219 126.25,702.1563 Q125.6563,701.875 125.0313,701.875 Q123.6875,701.875 123,702.9531 Q122.3125,704.0156 122.3125,706.1094 Q122.3125,708.2031 123,709.2813 Q123.6875,710.3438 125.0313,710.3438 Q125.6563,710.3438 126.25,710.0781 Q126.8438,709.7969 127.4688,709.2188 L127.4688,711.9375 Z " fill="#000000"/><text fill="#000000" font-family="sans-serif" font-size="14" lengthAdjust="spacing" textLength="50" x="138.5" y="711.1436">system</text><line style="stroke:#181818;stroke-width:0.5;" x1="110.5" x2="190.5" y1="722.2969" y2="722.2969"/><line style="stroke:#181818;stroke-width:0.5;" x1="110.5" x2="190.5" y1="730.2969" y2="730.2969"/></g><!--class overarch_dataModel_extends--><g id="elem_overarch_dataModel_extends"><rect codeLine="12" fill="#F1F1F1" height="48" id="overarch_dataModel_extends" rx="2.5" ry="2.5" style="stroke:#181818;stroke-width:0.5;" width="88" x="492.5" y="690.2969"/><ellipse cx="507.5" cy="706.2969" fill="#ADD1B2" rx="11" ry="11" style="stroke:#181818;stroke-width:1.0;"/><path d="M510.4688,711.9375 Q509.8906,712.2344 509.25,712.375 Q508.6094,712.5313 507.9063,712.5313 Q505.4063,712.5313 504.0781,710.8906 Q502.7656,709.2344 502.7656,706.1094 Q502.7656,702.9844 504.0781,701.3281 Q505.4063,699.6719 507.9063,699.6719 Q508.6094,699.6719 509.25,699.8281 Q509.9063,699.9844 510.4688,700.2813 L510.4688,703 Q509.8438,702.4219 509.25,702.1563 Q508.6563,701.875 508.0313,701.875 Q506.6875,701.875 506,702.9531 Q505.3125,704.0156 505.3125,706.1094 Q505.3125,708.2031 506,709.2813 Q506.6875,710.3438 508.0313,710.3438 Q508.6563,710.3438 509.25,710.0781 Q509.8438,709.7969 510.4688,709.2188 L510.4688,711.9375 Z " fill="#000000"/><text fill="#000000" font-family="sans-serif" font-size="14" lengthAdjust="spacing" textLength="56" x="521.5" y="711.1436">extends</text><line style="stroke:#181818;stroke-width:0.5;" x1="493.5" x2="579.5" y1="722.2969" y2="722.2969"/><line style="stroke:#181818;stroke-width:0.5;" x1="493.5" x2="579.5" y1="730.2969" y2="730.2969"/></g><!--class overarch_dataModel_include--><g id="elem_overarch_dataModel_include"><rect codeLine="13" fill="#F1F1F1" height="48" id="overarch_dataModel_include" rx="2.5" ry="2.5" style="stroke:#181818;stroke-width:0.5;" width="82" x="615.5" y="690.2969"/><ellipse cx="630.5" cy="706.2969" fill="#ADD1B2" rx="11" ry="11" style="stroke:#181818;stroke-width:1.0;"/><path d="M633.4688,711.9375 Q632.8906,712.2344 632.25,712.375 Q631.6094,712.5313 630.9063,712.5313 Q628.4063,712.5313 627.0781,710.8906 Q625.7656,709.2344 625.7656,706.1094 Q625.7656,702.9844 627.0781,701.3281 Q628.4063,699.6719 630.9063,699.6719 Q631.6094,699.6719 632.25,699.8281 Q632.9063,699.9844 633.4688,700.2813 L633.4688,703 Q632.8438,702.4219 632.25,702.1563 Q631.6563,701.875 631.0313,701.875 Q629.6875,701.875 629,702.9531 Q628.3125,704.0156 628.3125,706.1094 Q628.3125,708.2031 629,709.2813 Q629.6875,710.3438 631.0313,710.3438 Q631.6563,710.3438 632.25,710.0781 Q632.8438,709.7969 633.4688,709.2188 L633.4688,711.9375 Z " fill="#000000"/><text fill="#000000" font-family="sans-serif" font-size="14" lengthAdjust="spacing" textLength="50" x="644.5" y="711.1436">include</text><line style="stroke:#181818;stroke-width:0.5;" x1="616.5" x2="696.5" y1="722.2969" y2="722.2969"/><line style="stroke:#181818;stroke-width:0.5;" x1="616.5" x2="696.5" y1="730.2969" y2="730.2969"/></g><!--class overarch_dataModel_element--><g id="elem_overarch_dataModel_element"><rect codeLine="14" fill="#F1F1F1" height="64.2969" id="overarch_dataModel_element" rx="2.5" ry="2.5" style="stroke:#181818;stroke-width:0.5;" width="95" x="512" y="44.2969"/><ellipse cx="529.7" cy="60.2969" fill="#A9DCDF" rx="11" ry="11" style="stroke:#181818;stroke-width:1.0;"/><path d="M529.8094,55.6406 L528.6531,60.7188 L530.9813,60.7188 L529.8094,55.6406 Z M528.325,53.4063 L531.3094,53.4063 L534.6688,65.7969 L532.2156,65.7969 L531.45,62.7344 L528.1688,62.7344 L527.4188,65.7969 L524.9813,65.7969 L528.325,53.4063 Z " fill="#000000"/><text fill="#000000" font-family="sans-serif" font-size="14" font-style="italic" lengthAdjust="spacing" textLength="57" x="544.3" y="65.1436">element</text><line style="stroke:#181818;stroke-width:0.5;" x1="513" x2="606" y1="76.2969" y2="76.2969"/><text fill="#000000" font-family="sans-serif" font-size="14" lengthAdjust="spacing" textLength="83" x="518" y="93.292">el : keyword</text><line style="stroke:#181818;stroke-width:0.5;" x1="513" x2="606" y1="100.5938" y2="100.5938"/></g><!--class overarch_dataModel_generalizes--><g id="elem_overarch_dataModel_generalizes"><rect codeLine="17" fill="#F1F1F1" height="48" id="overarch_dataModel_generalizes" rx="2.5" ry="2.5" style="stroke:#181818;stroke-width:0.5;" width="112" x="732.5" y="690.2969"/><ellipse cx="747.5" cy="706.2969" fill="#ADD1B2" rx="11" ry="11" style="stroke:#181818;stroke-width:1.0;"/><path d="M750.4688,711.9375 Q749.8906,712.2344 749.25,712.375 Q748.6094,712.5313 747.9063,712.5313 Q745.4063,712.5313 744.0781,710.8906 Q742.7656,709.2344 742.7656,706.1094 Q742.7656,702.9844 744.0781,701.3281 Q745.4063,699.6719 747.9063,699.6719 Q748.6094,699.6719 749.25,699.8281 Q749.9063,699.9844 750.4688,700.2813 L750.4688,703 Q749.8438,702.4219 749.25,702.1563 Q748.6563,701.875 748.0313,701.875 Q746.6875,701.875 746,702.9531 Q745.3125,704.0156 745.3125,706.1094 Q745.3125,708.2031 746,709.2813 Q746.6875,710.3438 748.0313,710.3438 Q748.6563,710.3438 749.25,710.0781 Q749.8438,709.7969 750.4688,709.2188 L750.4688,711.9375 Z " fill="#000000"/><text fill="#000000" font-family="sans-serif" font-size="14" lengthAdjust="spacing" textLength="80" x="761.5" y="711.1436">generalizes</text><line style="stroke:#181818;stroke-width:0.5;" x1="733.5" x2="843.5" y1="722.2969" y2="722.2969"/><line style="stroke:#181818;stroke-width:0.5;" x1="733.5" x2="843.5" y1="730.2969" y2="730.2969"/></g><!--class overarch_dataModel_relation--><g id="elem_overarch_dataModel_relation"><rect codeLine="18" fill="#F1F1F1" height="80.5938" id="overarch_dataModel_relation" rx="2.5" ry="2.5" style="stroke:#181818;stroke-width:0.5;" width="114" x="599.5" y="433.2969"/><ellipse cx="628.45" cy="449.2969" fill="#A9DCDF" rx="11" ry="11" style="stroke:#181818;stroke-width:1.0;"/><path d="M628.5594,444.6406 L627.4031,449.7188 L629.7313,449.7188 L628.5594,444.6406 Z M627.075,442.4063 L630.0594,442.4063 L633.4188,454.7969 L630.9656,454.7969 L630.2,451.7344 L626.9188,451.7344 L626.1688,454.7969 L623.7313,454.7969 L627.075,442.4063 Z " fill="#000000"/><text fill="#000000" font-family="sans-serif" font-size="14" font-style="italic" lengthAdjust="spacing" textLength="51" x="645.55" y="454.1436">relation</text><line style="stroke:#181818;stroke-width:0.5;" x1="600.5" x2="712.5" y1="465.2969" y2="465.2969"/><text fill="#000000" font-family="sans-serif" font-size="14" lengthAdjust="spacing" textLength="102" x="605.5" y="482.292">from : keyword</text><text fill="#000000" font-family="sans-serif" font-size="14" lengthAdjust="spacing" textLength="85" x="605.5" y="498.5889">to : keyword</text><line style="stroke:#181818;stroke-width:0.5;" x1="600.5" x2="712.5" y1="505.8906" y2="505.8906"/></g><!--class overarch_dataModel_useCase--><g id="elem_overarch_dataModel_useCase"><rect codeLine="22" fill="#F1F1F1" height="64.2969" id="overarch_dataModel_useCase" rx="2.5" ry="2.5" style="stroke:#181818;stroke-width:0.5;" width="114" x="226.5" y="682.2969"/><ellipse cx="249.6" cy="698.2969" fill="#ADD1B2" rx="11" ry="11" style="stroke:#181818;stroke-width:1.0;"/><path d="M252.5688,703.9375 Q251.9906,704.2344 251.35,704.375 Q250.7094,704.5313 250.0063,704.5313 Q247.5063,704.5313 246.1781,702.8906 Q244.8656,701.2344 244.8656,698.1094 Q244.8656,694.9844 246.1781,693.3281 Q247.5063,691.6719 250.0063,691.6719 Q250.7094,691.6719 251.35,691.8281 Q252.0063,691.9844 252.5688,692.2813 L252.5688,695 Q251.9438,694.4219 251.35,694.1563 Q250.7563,693.875 250.1313,693.875 Q248.7875,693.875 248.1,694.9531 Q247.4125,696.0156 247.4125,698.1094 Q247.4125,700.2031 248.1,701.2813 Q248.7875,702.3438 250.1313,702.3438 Q250.7563,702.3438 251.35,702.0781 Q251.9438,701.7969 252.5688,701.2188 L252.5688,703.9375 Z " fill="#000000"/><text fill="#000000" font-family="sans-serif" font-size="14" lengthAdjust="spacing" textLength="64" x="265.4" y="703.1436">use-case</text><line style="stroke:#181818;stroke-width:0.5;" x1="227.5" x2="339.5" y1="714.2969" y2="714.2969"/><text fill="#000000" font-family="sans-serif" font-size="14" lengthAdjust="spacing" textLength="102" x="232.5" y="731.292">level : keyword</text><line style="stroke:#181818;stroke-width:0.5;" x1="227.5" x2="339.5" y1="738.5938" y2="738.5938"/></g><!--class overarch_dataModel_namedElement--><g id="elem_overarch_dataModel_namedElement"><rect codeLine="25" fill="#F1F1F1" height="96.8906" id="overarch_dataModel_namedElement" rx="2.5" ry="2.5" style="stroke:#181818;stroke-width:0.5;" width="142" x="393.5" y="168.2969"/><ellipse cx="408.5" cy="184.2969" fill="#A9DCDF" rx="11" ry="11" style="stroke:#181818;stroke-width:1.0;"/><path d="M408.6094,179.6406 L407.4531,184.7188 L409.7813,184.7188 L408.6094,179.6406 Z M407.125,177.4063 L410.1094,177.4063 L413.4688,189.7969 L411.0156,189.7969 L410.25,186.7344 L406.9688,186.7344 L406.2188,189.7969 L403.7813,189.7969 L407.125,177.4063 Z " fill="#000000"/><text fill="#000000" font-family="sans-serif" font-size="14" font-style="italic" lengthAdjust="spacing" textLength="110" x="422.5" y="189.1436">named-element</text><line style="stroke:#181818;stroke-width:0.5;" x1="394.5" x2="534.5" y1="200.2969" y2="200.2969"/><text fill="#000000" font-family="sans-serif" font-size="14" lengthAdjust="spacing" textLength="91" x="399.5" y="217.292">name : string</text><text fill="#000000" font-family="sans-serif" font-size="14" lengthAdjust="spacing" textLength="126" x="399.5" y="233.5889">desc : string [0..1]</text><text fill="#000000" font-family="sans-serif" font-size="14" lengthAdjust="spacing" textLength="118" x="399.5" y="249.8857">doc : string [0..1]</text><line style="stroke:#181818;stroke-width:0.5;" x1="394.5" x2="534.5" y1="257.1875" y2="257.1875"/></g><!--class overarch_dataModel_useCaseModelRelation--><g id="elem_overarch_dataModel_useCaseModelRelation"><rect codeLine="30" fill="#F1F1F1" height="48" id="overarch_dataModel_useCaseModelRelation" rx="2.5" ry="2.5" style="stroke:#181818;stroke-width:0.5;" width="198" x="557.5" y="574.2969"/><ellipse cx="572.5" cy="590.2969" fill="#A9DCDF" rx="11" ry="11" style="stroke:#181818;stroke-width:1.0;"/><path d="M572.6094,585.6406 L571.4531,590.7188 L573.7813,590.7188 L572.6094,585.6406 Z M571.125,583.4063 L574.1094,583.4063 L577.4688,595.7969 L575.0156,595.7969 L574.25,592.7344 L570.9688,592.7344 L570.2188,595.7969 L567.7813,595.7969 L571.125,583.4063 Z " fill="#000000"/><text fill="#000000" font-family="sans-serif" font-size="14" font-style="italic" lengthAdjust="spacing" textLength="166" x="586.5" y="595.1436">use-case-model-relation</text><line style="stroke:#181818;stroke-width:0.5;" x1="558.5" x2="754.5" y1="606.2969" y2="606.2969"/><line style="stroke:#181818;stroke-width:0.5;" x1="558.5" x2="754.5" y1="614.2969" y2="614.2969"/></g><!--class overarch_dataModel_useCaseModelNode--><g id="elem_overarch_dataModel_useCaseModelNode"><rect codeLine="31" fill="#F1F1F1" height="48" id="overarch_dataModel_useCaseModelNode" rx="2.5" ry="2.5" style="stroke:#181818;stroke-width:0.5;" width="183" x="192" y="574.2969"/><ellipse cx="207" cy="590.2969" fill="#A9DCDF" rx="11" ry="11" style="stroke:#181818;stroke-width:1.0;"/><path d="M207.1094,585.6406 L205.9531,590.7188 L208.2813,590.7188 L207.1094,585.6406 Z M205.625,583.4063 L208.6094,583.4063 L211.9688,595.7969 L209.5156,595.7969 L208.75,592.7344 L205.4688,592.7344 L204.7188,595.7969 L202.2813,595.7969 L205.625,583.4063 Z " fill="#000000"/><text fill="#000000" font-family="sans-serif" font-size="14" font-style="italic" lengthAdjust="spacing" textLength="151" x="221" y="595.1436">use-case-model-node</text><line style="stroke:#181818;stroke-width:0.5;" x1="193" x2="374" y1="606.2969" y2="606.2969"/><line style="stroke:#181818;stroke-width:0.5;" x1="193" x2="374" y1="614.2969" y2="614.2969"/></g><!--class overarch_dataModel_uses--><g id="elem_overarch_dataModel_uses"><rect codeLine="32" fill="#F1F1F1" height="48" id="overarch_dataModel_uses" rx="2.5" ry="2.5" style="stroke:#181818;stroke-width:0.5;" width="66" x="879.5" y="690.2969"/><ellipse cx="894.5" cy="706.2969" fill="#ADD1B2" rx="11" ry="11" style="stroke:#181818;stroke-width:1.0;"/><path d="M897.4688,711.9375 Q896.8906,712.2344 896.25,712.375 Q895.6094,712.5313 894.9063,712.5313 Q892.4063,712.5313 891.0781,710.8906 Q889.7656,709.2344 889.7656,706.1094 Q889.7656,702.9844 891.0781,701.3281 Q892.4063,699.6719 894.9063,699.6719 Q895.6094,699.6719 896.25,699.8281 Q896.9063,699.9844 897.4688,700.2813 L897.4688,703 Q896.8438,702.4219 896.25,702.1563 Q895.6563,701.875 895.0313,701.875 Q893.6875,701.875 893,702.9531 Q892.3125,704.0156 892.3125,706.1094 Q892.3125,708.2031 893,709.2813 Q893.6875,710.3438 895.0313,710.3438 Q895.6563,710.3438 896.25,710.0781 Q896.8438,709.7969 897.4688,709.2188 L897.4688,711.9375 Z " fill="#000000"/><text fill="#000000" font-family="sans-serif" font-size="14" lengthAdjust="spacing" textLength="34" x="908.5" y="711.1436">uses</text><line style="stroke:#181818;stroke-width:0.5;" x1="880.5" x2="944.5" y1="722.2969" y2="722.2969"/><line style="stroke:#181818;stroke-width:0.5;" x1="880.5" x2="944.5" y1="730.2969" y2="730.2969"/></g><!--class overarch_dataModel_identifiableElement--><g id="elem_overarch_dataModel_identifiableElement"><rect codeLine="33" fill="#F1F1F1" height="64.2969" id="overarch_dataModel_identifiableElement" rx="2.5" ry="2.5" style="stroke:#181818;stroke-width:0.5;" width="168" x="570.5" y="184.7969"/><ellipse cx="585.5" cy="200.7969" fill="#A9DCDF" rx="11" ry="11" style="stroke:#181818;stroke-width:1.0;"/><path d="M585.6094,196.1406 L584.4531,201.2188 L586.7813,201.2188 L585.6094,196.1406 Z M584.125,193.9063 L587.1094,193.9063 L590.4688,206.2969 L588.0156,206.2969 L587.25,203.2344 L583.9688,203.2344 L583.2188,206.2969 L580.7813,206.2969 L584.125,193.9063 Z " fill="#000000"/><text fill="#000000" font-family="sans-serif" font-size="14" font-style="italic" lengthAdjust="spacing" textLength="136" x="599.5" y="205.6436">identifiable-element</text><line style="stroke:#181818;stroke-width:0.5;" x1="571.5" x2="737.5" y1="216.7969" y2="216.7969"/><text fill="#000000" font-family="sans-serif" font-size="14" lengthAdjust="spacing" textLength="83" x="576.5" y="233.792">id : keyword</text><line style="stroke:#181818;stroke-width:0.5;" x1="571.5" x2="737.5" y1="241.0938" y2="241.0938"/></g><!--class overarch_dataModel_useCaseModelElement--><g id="elem_overarch_dataModel_useCaseModelElement"><rect codeLine="36" fill="#F1F1F1" height="48" id="overarch_dataModel_useCaseModelElement" rx="2.5" ry="2.5" style="stroke:#181818;stroke-width:0.5;" width="204" x="360.5" y="449.7969"/><ellipse cx="375.5" cy="465.7969" fill="#A9DCDF" rx="11" ry="11" style="stroke:#181818;stroke-width:1.0;"/><path d="M375.6094,461.1406 L374.4531,466.2188 L376.7813,466.2188 L375.6094,461.1406 Z M374.125,458.9063 L377.1094,458.9063 L380.4688,471.2969 L378.0156,471.2969 L377.25,468.2344 L373.9688,468.2344 L373.2188,471.2969 L370.7813,471.2969 L374.125,458.9063 Z " fill="#000000"/><text fill="#000000" font-family="sans-serif" font-size="14" font-style="italic" lengthAdjust="spacing" textLength="172" x="389.5" y="470.6436">use-case-model-element</text><line style="stroke:#181818;stroke-width:0.5;" x1="361.5" x2="563.5" y1="481.7969" y2="481.7969"/><line style="stroke:#181818;stroke-width:0.5;" x1="361.5" x2="563.5" y1="489.7969" y2="489.7969"/></g><!--class overarch_dataModel_person--><g id="elem_overarch_dataModel_person"><rect codeLine="37" fill="#F1F1F1" height="48" id="overarch_dataModel_person" rx="2.5" ry="2.5" style="stroke:#181818;stroke-width:0.5;" width="81" x="376" y="690.2969"/><ellipse cx="391" cy="706.2969" fill="#ADD1B2" rx="11" ry="11" style="stroke:#181818;stroke-width:1.0;"/><path d="M393.9688,711.9375 Q393.3906,712.2344 392.75,712.375 Q392.1094,712.5313 391.4063,712.5313 Q388.9063,712.5313 387.5781,710.8906 Q386.2656,709.2344 386.2656,706.1094 Q386.2656,702.9844 387.5781,701.3281 Q388.9063,699.6719 391.4063,699.6719 Q392.1094,699.6719 392.75,699.8281 Q393.4063,699.9844 393.9688,700.2813 L393.9688,703 Q393.3438,702.4219 392.75,702.1563 Q392.1563,701.875 391.5313,701.875 Q390.1875,701.875 389.5,702.9531 Q388.8125,704.0156 388.8125,706.1094 Q388.8125,708.2031 389.5,709.2813 Q390.1875,710.3438 391.5313,710.3438 Q392.1563,710.3438 392.75,710.0781 Q393.3438,709.7969 393.9688,709.2188 L393.9688,711.9375 Z " fill="#000000"/><text fill="#000000" font-family="sans-serif" font-size="14" lengthAdjust="spacing" textLength="49" x="405" y="711.1436">person</text><line style="stroke:#181818;stroke-width:0.5;" x1="377" x2="456" y1="722.2969" y2="722.2969"/><line style="stroke:#181818;stroke-width:0.5;" x1="377" x2="456" y1="730.2969" y2="730.2969"/></g><!--reverse link overarch_dataModel_element to overarch_dataModel_identifiableElement--><g id="link_overarch_dataModel_element_overarch_dataModel_identifiableElement"><path codeLine="38" d="M591.0033,123.2194 C606.5433,145.8694 617.33,161.6069 632.92,184.3369 " fill="none" id="overarch_dataModel_element-backto-overarch_dataModel_identifiableElement" style="stroke:#181818;stroke-width:1.0;"/><polygon fill="none" points="580.82,108.3769,586.0558,126.6138,595.9508,119.8249,580.82,108.3769" style="stroke:#181818;stroke-width:1.0;"/></g><!--reverse link overarch_dataModel_element to overarch_dataModel_namedElement--><g id="link_overarch_dataModel_element_overarch_dataModel_namedElement"><path codeLine="39" d="M528,123.2217 C515.91,140.8517 510.71,148.4269 497.13,168.2269 " fill="none" id="overarch_dataModel_element-backto-overarch_dataModel_namedElement" style="stroke:#181818;stroke-width:1.0;"/><polygon fill="none" points="538.18,108.3769,523.0517,119.8283,532.9483,126.615,538.18,108.3769" style="stroke:#181818;stroke-width:1.0;"/></g><!--reverse link overarch_dataModel_identifiableElement to overarch_dataModel_identifiableNamedElement--><g id="link_overarch_dataModel_identifiableElement_overarch_dataModel_identifiableNamedElement"><path codeLine="40" d="M594.1529,259.2481 C560.0129,282.6981 528.87,304.0869 498.04,325.2669 " fill="none" id="overarch_dataModel_identifiableElement-backto-overarch_dataModel_identifiableNamedElement" style="stroke:#181818;stroke-width:1.0;"/><polygon fill="none" points="608.99,249.0569,590.7559,254.3024,597.55,264.1938,608.99,249.0569" style="stroke:#181818;stroke-width:1.0;"/></g><!--reverse link overarch_dataModel_namedElement to overarch_dataModel_identifiableNamedElement--><g id="link_overarch_dataModel_namedElement_overarch_dataModel_identifiableNamedElement"><path codeLine="41" d="M464.5,283.6469 C464.5,303.8769 464.5,308.4969 464.5,324.9569 " fill="none" id="overarch_dataModel_namedElement-backto-overarch_dataModel_identifiableNamedElement" style="stroke:#181818;stroke-width:1.0;"/><polygon fill="none" points="464.5,265.6469,458.5,283.6469,470.5,283.6469,464.5,265.6469" style="stroke:#181818;stroke-width:1.0;"/></g><!--reverse link overarch_dataModel_identifiableElement to overarch_dataModel_relation--><g id="link_overarch_dataModel_identifiableElement_overarch_dataModel_relation"><path codeLine="42" d="M654.8837,266.8063 C655.2537,313.1363 655.79,382.3769 656.19,433.2269 " fill="none" id="overarch_dataModel_identifiableElement-backto-overarch_dataModel_relation" style="stroke:#181818;stroke-width:1.0;"/><polygon fill="none" points="654.74,248.8069,648.8839,266.8542,660.8836,266.7584,654.74,248.8069" style="stroke:#181818;stroke-width:1.0;"/></g><!--reverse link overarch_dataModel_identifiableNamedElement to overarch_dataModel_useCaseModelElement--><g id="link_overarch_dataModel_identifiableNamedElement_overarch_dataModel_useCaseModelElement"><path codeLine="43" d="M463.8305,391.3345 C463.4805,413.0945 463.24,427.5769 462.88,449.4469 " fill="none" id="overarch_dataModel_identifiableNamedElement-backto-overarch_dataModel_useCaseModelElement" style="stroke:#181818;stroke-width:1.0;"/><polygon fill="none" points="464.12,373.3369,457.8313,391.2381,469.8297,391.431,464.12,373.3369" style="stroke:#181818;stroke-width:1.0;"/></g><!--reverse link overarch_dataModel_useCaseModelElement to overarch_dataModel_useCaseModelNode--><g id="link_overarch_dataModel_useCaseModelElement_overarch_dataModel_useCaseModelNode"><path codeLine="44" d="M413.9753,508.0024 C382.0753,529.8324 349.27,552.2869 317.32,574.1469 " fill="none" id="overarch_dataModel_useCaseModelElement-backto-overarch_dataModel_useCaseModelNode" style="stroke:#181818;stroke-width:1.0;"/><polygon fill="none" points="428.83,497.8369,410.5868,503.0508,417.3638,512.9539,428.83,497.8369" style="stroke:#181818;stroke-width:1.0;"/></g><!--reverse link overarch_dataModel_useCaseModelElement to overarch_dataModel_useCaseModelRelation--><g id="link_overarch_dataModel_useCaseModelElement_overarch_dataModel_useCaseModelRelation"><path codeLine="45" d="M514.2095,507.4476 C548.7795,529.2776 585.22,552.2869 619.84,574.1469 " fill="none" id="overarch_dataModel_useCaseModelElement-backto-overarch_dataModel_useCaseModelRelation" style="stroke:#181818;stroke-width:1.0;"/><polygon fill="none" points="498.99,497.8369,511.006,512.5208,517.4131,502.3744,498.99,497.8369" style="stroke:#181818;stroke-width:1.0;"/></g><!--reverse link overarch_dataModel_relation to overarch_dataModel_useCaseModelRelation--><g id="link_overarch_dataModel_relation_overarch_dataModel_useCaseModelRelation"><path codeLine="46" d="M656.5,532.5669 C656.5,552.2669 656.5,557.3669 656.5,574.1369 " fill="none" id="overarch_dataModel_relation-backto-overarch_dataModel_useCaseModelRelation" style="stroke:#181818;stroke-width:1.0;"/><polygon fill="none" points="656.5,514.5669,650.5,532.5669,662.5,532.5669,656.5,514.5669" style="stroke:#181818;stroke-width:1.0;"/></g><!--reverse link overarch_dataModel_useCaseModelNode to overarch_dataModel_actor--><g id="link_overarch_dataModel_useCaseModelNode_overarch_dataModel_actor"><path codeLine="47" d="M207.8726,629.0792 C169.3826,644.7092 135.05,659.7869 91.5,682.2969 C85.79,685.2469 79.86,688.5869 74.14,691.9569 " fill="none" id="overarch_dataModel_useCaseModelNode-backto-overarch_dataModel_actor" style="stroke:#181818;stroke-width:1.0;"/><polygon fill="none" points="224.55,622.3069,205.6152,623.5201,210.1301,634.6384,224.55,622.3069" style="stroke:#181818;stroke-width:1.0;"/></g><!--reverse link overarch_dataModel_useCaseModelNode to overarch_dataModel_person--><g id="link_overarch_dataModel_useCaseModelNode_overarch_dataModel_person"><path codeLine="48" d="M324.0775,634.0801 C347.1575,653.8601 366.56,670.4969 389.63,690.2569 " fill="none" id="overarch_dataModel_useCaseModelNode-backto-overarch_dataModel_person" style="stroke:#181818;stroke-width:1.0;"/><polygon fill="none" points="310.41,622.3669,320.173,638.636,327.9819,629.5243,310.41,622.3669" style="stroke:#181818;stroke-width:1.0;"/></g><!--reverse link overarch_dataModel_useCaseModelNode to overarch_dataModel_system--><g id="link_overarch_dataModel_useCaseModelNode_overarch_dataModel_system"><path codeLine="49" d="M242.9225,634.0801 C219.8425,653.8601 200.44,670.4969 177.37,690.2569 " fill="none" id="overarch_dataModel_useCaseModelNode-backto-overarch_dataModel_system" style="stroke:#181818;stroke-width:1.0;"/><polygon fill="none" points="256.59,622.3669,239.0181,629.5243,246.827,638.636,256.59,622.3669" style="stroke:#181818;stroke-width:1.0;"/></g><!--reverse link overarch_dataModel_useCaseModelNode to overarch_dataModel_useCase--><g id="link_overarch_dataModel_useCaseModelNode_overarch_dataModel_useCase"><path codeLine="50" d="M283.5,640.3669 C283.5,657.5469 283.5,663.1769 283.5,682.0469 " fill="none" id="overarch_dataModel_useCaseModelNode-backto-overarch_dataModel_useCase" style="stroke:#181818;stroke-width:1.0;"/><polygon fill="none" points="283.5,622.3669,277.5,640.3669,289.5,640.3669,283.5,622.3669" style="stroke:#181818;stroke-width:1.0;"/></g><!--reverse link overarch_dataModel_useCaseModelRelation to overarch_dataModel_uses--><g id="link_overarch_dataModel_useCaseModelRelation_overarch_dataModel_uses"><path codeLine="51" d="M738.6616,628.5899 C779.8116,643.8899 816.76,659.1169 862.5,682.2969 C868.06,685.1169 873.81,688.3469 879.34,691.6369 " fill="none" id="overarch_dataModel_useCaseModelRelation-backto-overarch_dataModel_uses" style="stroke:#181818;stroke-width:1.0;"/><polygon fill="none" points="721.79,622.3169,736.5705,634.2137,740.7526,622.966,721.79,622.3169" style="stroke:#181818;stroke-width:1.0;"/></g><!--reverse link overarch_dataModel_useCaseModelRelation to overarch_dataModel_include--><g id="link_overarch_dataModel_useCaseModelRelation_overarch_dataModel_include"><path codeLine="52" d="M656.5,640.3669 C656.5,660.1469 656.5,670.4969 656.5,690.2569 " fill="none" id="overarch_dataModel_useCaseModelRelation-backto-overarch_dataModel_include" style="stroke:#181818;stroke-width:1.0;"/><polygon fill="none" points="656.5,622.3669,650.5,640.3669,662.5,640.3669,656.5,622.3669" style="stroke:#181818;stroke-width:1.0;"/></g><!--reverse link overarch_dataModel_useCaseModelRelation to overarch_dataModel_extends--><g id="link_overarch_dataModel_useCaseModelRelation_overarch_dataModel_extends"><path codeLine="53" d="M619.1703,634.7647 C598.3503,654.5447 581.56,670.4969 560.75,690.2569 " fill="none" id="overarch_dataModel_useCaseModelRelation-backto-overarch_dataModel_extends" style="stroke:#181818;stroke-width:1.0;"/><polygon fill="none" points="632.22,622.3669,615.0377,630.4148,623.3029,639.1146,632.22,622.3669" style="stroke:#181818;stroke-width:1.0;"/></g><!--reverse link overarch_dataModel_useCaseModelRelation to overarch_dataModel_generalizes--><g id="link_overarch_dataModel_useCaseModelRelation_overarch_dataModel_generalizes"><path codeLine="54" d="M696.832,634.133 C719.732,653.913 738.94,670.4969 761.83,690.2569 " fill="none" id="overarch_dataModel_useCaseModelRelation-backto-overarch_dataModel_generalizes" style="stroke:#181818;stroke-width:1.0;"/><polygon fill="none" points="683.21,622.3669,692.91,638.6736,700.754,629.5923,683.21,622.3669" style="stroke:#181818;stroke-width:1.0;"/></g><!--SRC=[hPPDRyCW38Rl_0hKUwhjEkqsxRWUAkqqJHKDReT6O0BQhVluxuDyZIOX8QENIc3xuRLZGmqp7F2Z1dn7xC-3fC3nFOS2XD48aQqsYkG6vvneZHUCsdssOsJB8HEa09f1vRp0H6Dv14LK_hAXn92IjV4ZLYwWXkEl7rH3BL-gK7nfz9prIHieGjwLrNE73mE2wf1_RVO2cCZvWK8mdShi0hgrcIW4D7aZZ6sDR_0hdDwbegWzUW_2Hd7s2K6zdikG10MS62P5ABonbo9sIXQU38oD759rq93bjZT2J6ilMySXEHmxgNKLHlMCEEiJotKR5cjHJEpjceBEspL-kbekhv_TjkplzYKq2MM5EooRgbcTNxbOj_MRn0f98GQvabKt_L7qIDZWLpyRoXdZw5UOqT7FrabkuX0_l_wulu7IuN9NLkS-CaEttraMcTr_C7x_eSWYnaXQJN3F-luIm3b2cpb0Soxn46oW0r1aeyGWtT1SahSUoRszCrD1lQaF0SidBubG3L4Iedf9an2r8ugzL4SuEXbIFzp9dFeVGpB7Uyb_0G00]--></g></svg>