<?xml version="1.0" encoding="us-ascii" standalone="no"?><svg xmlns="http://www.w3.org/2000/svg" xmlns:xlink="http://www.w3.org/1999/xlink" contentStyleType="text/css" height="708px" preserveAspectRatio="none" style="width:1032px;height:708px;background:#FFFFFF;" version="1.1" viewBox="0 0 1032 708" width="1032px" zoomAndPan="magnify"><defs/><g><text fill="#000000" font-family="sans-serif" font-size="14" font-weight="bold" lengthAdjust="spacing" textLength="183" x="417.5" y="24.5332">Use Case Model Elements</text><!--class overarch_dataModel_actor--><g id="elem_overarch_dataModel_actor"><rect codeLine="9" fill="#F1F1F1" height="48" id="overarch_dataModel_actor" rx="2.5" ry="2.5" style="stroke:#181818;stroke-width:0.5;" width="64" x="7" y="644.6094"/><ellipse cx="22" cy="660.6094" fill="#ADD1B2" rx="11" ry="11" style="stroke:#181818;stroke-width:1.0;"/><path d="M24.7656,656.4844 Q24.9219,656.2656 25.1094,656.1563 Q25.2969,656.0469 25.5156,656.0469 Q25.8906,656.0469 26.125,656.3125 Q26.3594,656.5625 26.3594,657.1719 L26.3594,658.625 Q26.3594,659.2344 26.125,659.5 Q25.8906,659.7656 25.5156,659.7656 Q25.1719,659.7656 24.9688,659.5625 Q24.7656,659.375 24.6563,658.8594 Q24.6094,658.5 24.4219,658.3125 Q24.0938,657.9375 23.4844,657.7188 Q22.875,657.5 22.25,657.5 Q21.4844,657.5 20.8438,657.8281 Q20.2188,658.1563 19.7188,658.9063 Q19.2344,659.6563 19.2344,660.6875 L19.2344,661.7813 Q19.2344,663.0156 20.125,663.8438 Q21.0156,664.6563 22.6094,664.6563 Q23.5469,664.6563 24.2031,664.4063 Q24.5938,664.25 25.0156,663.8125 Q25.2813,663.5469 25.4219,663.4688 Q25.5781,663.3906 25.7813,663.3906 Q26.1094,663.3906 26.3594,663.6563 Q26.625,663.9063 26.625,664.25 Q26.625,664.5938 26.2813,665 Q25.7813,665.5781 24.9844,665.9063 Q23.9063,666.3594 22.6094,666.3594 Q21.0938,666.3594 19.8906,665.7344 Q18.9063,665.2344 18.2188,664.1719 Q17.5313,663.0938 17.5313,661.8125 L17.5313,660.6563 Q17.5313,659.3281 18.1406,658.1875 Q18.7656,657.0313 19.8594,656.4219 Q20.9531,655.7969 22.1875,655.7969 Q22.9219,655.7969 23.5625,655.9688 Q24.2188,656.125 24.7656,656.4844 Z " fill="#000000"/><text fill="#000000" font-family="sans-serif" font-size="14" lengthAdjust="spacing" textLength="32" x="36" y="666.3379">actor</text><line style="stroke:#181818;stroke-width:0.5;" x1="8" x2="70" y1="676.6094" y2="676.6094"/><line style="stroke:#181818;stroke-width:0.5;" x1="8" x2="70" y1="684.6094" y2="684.6094"/></g><!--class overarch_dataModel_element--><g id="elem_overarch_dataModel_element"><rect codeLine="10" fill="#F1F1F1" height="136.0469" id="overarch_dataModel_element" rx="2.5" ry="2.5" style="stroke:#181818;stroke-width:0.5;" width="125" x="497.5" y="45.6094"/><ellipse cx="531.85" cy="61.6094" fill="#A9DCDF" rx="11" ry="11" style="stroke:#181818;stroke-width:1.0;"/><path d="M534.0375,63.375 L529.8969,63.375 L529.475,64.4063 L529.8969,64.4063 Q530.5063,64.4063 530.7719,64.6406 Q531.0375,64.875 531.0375,65.2656 Q531.0375,65.6406 530.7719,65.875 Q530.5063,66.1094 529.8969,66.1094 L527.6,66.1094 Q526.9906,66.1094 526.7406,65.875 Q526.475,65.6406 526.475,65.25 Q526.475,64.875 526.7563,64.6406 Q527.0219,64.3906 527.6469,64.4063 L530.3188,57.75 L529.2094,57.75 Q528.6,57.75 528.3344,57.5156 Q528.0688,57.2813 528.0688,56.8906 Q528.0688,56.5156 528.3344,56.2813 Q528.6,56.0469 529.2094,56.0469 L532.8813,56.0469 L536.2719,64.4063 Q536.8656,64.4063 537.0531,64.5469 Q537.4438,64.8125 537.4438,65.2656 Q537.4438,65.6406 537.1781,65.875 Q536.9281,66.1094 536.3188,66.1094 L534.0219,66.1094 Q533.4125,66.1094 533.1469,65.875 Q532.8813,65.6406 532.8813,65.25 Q532.8813,64.875 533.1469,64.6406 Q533.4125,64.4063 534.0219,64.4063 L534.4438,64.4063 L534.0375,63.375 Z M533.3188,61.6719 L531.9594,58.2969 L530.5844,61.6719 L533.3188,61.6719 Z " fill="#000000"/><text fill="#000000" font-family="sans-serif" font-size="14" font-style="italic" lengthAdjust="spacing" textLength="50" x="550.15" y="67.3379">element</text><line style="stroke:#181818;stroke-width:0.5;" x1="498.5" x2="621.5" y1="77.6094" y2="77.6094"/><text fill="#000000" font-family="sans-serif" font-size="14" lengthAdjust="spacing" textLength="113" x="503.5" y="96.1426">desc : string [0..1]</text><text fill="#000000" font-family="sans-serif" font-size="14" lengthAdjust="spacing" textLength="106" x="503.5" y="113.752">doc : string [0..1]</text><text fill="#000000" font-family="sans-serif" font-size="14" lengthAdjust="spacing" textLength="75" x="503.5" y="131.3613">el : keyword</text><text fill="#000000" font-family="sans-serif" font-size="14" lengthAdjust="spacing" textLength="75" x="503.5" y="148.9707">id : keyword</text><text fill="#000000" font-family="sans-serif" font-size="14" lengthAdjust="spacing" textLength="82" x="503.5" y="166.5801">name : string</text><line style="stroke:#181818;stroke-width:0.5;" x1="498.5" x2="621.5" y1="173.6563" y2="173.6563"/></g><!--class overarch_dataModel_extends--><g id="elem_overarch_dataModel_extends"><rect codeLine="17" fill="#F1F1F1" height="48" id="overarch_dataModel_extends" rx="2.5" ry="2.5" style="stroke:#181818;stroke-width:0.5;" width="81" x="595.5" y="644.6094"/><ellipse cx="610.5" cy="660.6094" fill="#ADD1B2" rx="11" ry="11" style="stroke:#181818;stroke-width:1.0;"/><path d="M613.2656,656.4844 Q613.4219,656.2656 613.6094,656.1563 Q613.7969,656.0469 614.0156,656.0469 Q614.3906,656.0469 614.625,656.3125 Q614.8594,656.5625 614.8594,657.1719 L614.8594,658.625 Q614.8594,659.2344 614.625,659.5 Q614.3906,659.7656 614.0156,659.7656 Q613.6719,659.7656 613.4688,659.5625 Q613.2656,659.375 613.1563,658.8594 Q613.1094,658.5 612.9219,658.3125 Q612.5938,657.9375 611.9844,657.7188 Q611.375,657.5 610.75,657.5 Q609.9844,657.5 609.3438,657.8281 Q608.7188,658.1563 608.2188,658.9063 Q607.7344,659.6563 607.7344,660.6875 L607.7344,661.7813 Q607.7344,663.0156 608.625,663.8438 Q609.5156,664.6563 611.1094,664.6563 Q612.0469,664.6563 612.7031,664.4063 Q613.0938,664.25 613.5156,663.8125 Q613.7813,663.5469 613.9219,663.4688 Q614.0781,663.3906 614.2813,663.3906 Q614.6094,663.3906 614.8594,663.6563 Q615.125,663.9063 615.125,664.25 Q615.125,664.5938 614.7813,665 Q614.2813,665.5781 613.4844,665.9063 Q612.4063,666.3594 611.1094,666.3594 Q609.5938,666.3594 608.3906,665.7344 Q607.4063,665.2344 606.7188,664.1719 Q606.0313,663.0938 606.0313,661.8125 L606.0313,660.6563 Q606.0313,659.3281 606.6406,658.1875 Q607.2656,657.0313 608.3594,656.4219 Q609.4531,655.7969 610.6875,655.7969 Q611.4219,655.7969 612.0625,655.9688 Q612.7188,656.125 613.2656,656.4844 Z " fill="#000000"/><text fill="#000000" font-family="sans-serif" font-size="14" lengthAdjust="spacing" textLength="49" x="624.5" y="666.3379">extends</text><line style="stroke:#181818;stroke-width:0.5;" x1="596.5" x2="675.5" y1="676.6094" y2="676.6094"/><line style="stroke:#181818;stroke-width:0.5;" x1="596.5" x2="675.5" y1="684.6094" y2="684.6094"/></g><!--class overarch_dataModel_include--><g id="elem_overarch_dataModel_include"><rect codeLine="18" fill="#F1F1F1" height="48" id="overarch_dataModel_include" rx="2.5" ry="2.5" style="stroke:#181818;stroke-width:0.5;" width="77" x="711.5" y="644.6094"/><ellipse cx="726.5" cy="660.6094" fill="#ADD1B2" rx="11" ry="11" style="stroke:#181818;stroke-width:1.0;"/><path d="M729.2656,656.4844 Q729.4219,656.2656 729.6094,656.1563 Q729.7969,656.0469 730.0156,656.0469 Q730.3906,656.0469 730.625,656.3125 Q730.8594,656.5625 730.8594,657.1719 L730.8594,658.625 Q730.8594,659.2344 730.625,659.5 Q730.3906,659.7656 730.0156,659.7656 Q729.6719,659.7656 729.4688,659.5625 Q729.2656,659.375 729.1563,658.8594 Q729.1094,658.5 728.9219,658.3125 Q728.5938,657.9375 727.9844,657.7188 Q727.375,657.5 726.75,657.5 Q725.9844,657.5 725.3438,657.8281 Q724.7188,658.1563 724.2188,658.9063 Q723.7344,659.6563 723.7344,660.6875 L723.7344,661.7813 Q723.7344,663.0156 724.625,663.8438 Q725.5156,664.6563 727.1094,664.6563 Q728.0469,664.6563 728.7031,664.4063 Q729.0938,664.25 729.5156,663.8125 Q729.7813,663.5469 729.9219,663.4688 Q730.0781,663.3906 730.2813,663.3906 Q730.6094,663.3906 730.8594,663.6563 Q731.125,663.9063 731.125,664.25 Q731.125,664.5938 730.7813,665 Q730.2813,665.5781 729.4844,665.9063 Q728.4063,666.3594 727.1094,666.3594 Q725.5938,666.3594 724.3906,665.7344 Q723.4063,665.2344 722.7188,664.1719 Q722.0313,663.0938 722.0313,661.8125 L722.0313,660.6563 Q722.0313,659.3281 722.6406,658.1875 Q723.2656,657.0313 724.3594,656.4219 Q725.4531,655.7969 726.6875,655.7969 Q727.4219,655.7969 728.0625,655.9688 Q728.7188,656.125 729.2656,656.4844 Z " fill="#000000"/><text fill="#000000" font-family="sans-serif" font-size="14" lengthAdjust="spacing" textLength="45" x="740.5" y="666.3379">include</text><line style="stroke:#181818;stroke-width:0.5;" x1="712.5" x2="787.5" y1="676.6094" y2="676.6094"/><line style="stroke:#181818;stroke-width:0.5;" x1="712.5" x2="787.5" y1="684.6094" y2="684.6094"/></g><!--class overarch_dataModel_generalizes--><g id="elem_overarch_dataModel_generalizes"><rect codeLine="19" fill="#F1F1F1" height="48" id="overarch_dataModel_generalizes" rx="2.5" ry="2.5" style="stroke:#181818;stroke-width:0.5;" width="104" x="824" y="644.6094"/><ellipse cx="839" cy="660.6094" fill="#ADD1B2" rx="11" ry="11" style="stroke:#181818;stroke-width:1.0;"/><path d="M841.7656,656.4844 Q841.9219,656.2656 842.1094,656.1563 Q842.2969,656.0469 842.5156,656.0469 Q842.8906,656.0469 843.125,656.3125 Q843.3594,656.5625 843.3594,657.1719 L843.3594,658.625 Q843.3594,659.2344 843.125,659.5 Q842.8906,659.7656 842.5156,659.7656 Q842.1719,659.7656 841.9688,659.5625 Q841.7656,659.375 841.6563,658.8594 Q841.6094,658.5 841.4219,658.3125 Q841.0938,657.9375 840.4844,657.7188 Q839.875,657.5 839.25,657.5 Q838.4844,657.5 837.8438,657.8281 Q837.2188,658.1563 836.7188,658.9063 Q836.2344,659.6563 836.2344,660.6875 L836.2344,661.7813 Q836.2344,663.0156 837.125,663.8438 Q838.0156,664.6563 839.6094,664.6563 Q840.5469,664.6563 841.2031,664.4063 Q841.5938,664.25 842.0156,663.8125 Q842.2813,663.5469 842.4219,663.4688 Q842.5781,663.3906 842.7813,663.3906 Q843.1094,663.3906 843.3594,663.6563 Q843.625,663.9063 843.625,664.25 Q843.625,664.5938 843.2813,665 Q842.7813,665.5781 841.9844,665.9063 Q840.9063,666.3594 839.6094,666.3594 Q838.0938,666.3594 836.8906,665.7344 Q835.9063,665.2344 835.2188,664.1719 Q834.5313,663.0938 834.5313,661.8125 L834.5313,660.6563 Q834.5313,659.3281 835.1406,658.1875 Q835.7656,657.0313 836.8594,656.4219 Q837.9531,655.7969 839.1875,655.7969 Q839.9219,655.7969 840.5625,655.9688 Q841.2188,656.125 841.7656,656.4844 Z " fill="#000000"/><text fill="#000000" font-family="sans-serif" font-size="14" lengthAdjust="spacing" textLength="72" x="853" y="666.3379">generalizes</text><line style="stroke:#181818;stroke-width:0.5;" x1="825" x2="927" y1="676.6094" y2="676.6094"/><line style="stroke:#181818;stroke-width:0.5;" x1="825" x2="927" y1="684.6094" y2="684.6094"/></g><!--class overarch_dataModel_useCase--><g id="elem_overarch_dataModel_useCase"><rect codeLine="20" fill="#F1F1F1" height="65.6094" id="overarch_dataModel_useCase" rx="2.5" ry="2.5" style="stroke:#181818;stroke-width:0.5;" width="105" x="106.5" y="635.6094"/><ellipse cx="128.25" cy="651.6094" fill="#ADD1B2" rx="11" ry="11" style="stroke:#181818;stroke-width:1.0;"/><path d="M131.0156,647.4844 Q131.1719,647.2656 131.3594,647.1563 Q131.5469,647.0469 131.7656,647.0469 Q132.1406,647.0469 132.375,647.3125 Q132.6094,647.5625 132.6094,648.1719 L132.6094,649.625 Q132.6094,650.2344 132.375,650.5 Q132.1406,650.7656 131.7656,650.7656 Q131.4219,650.7656 131.2188,650.5625 Q131.0156,650.375 130.9063,649.8594 Q130.8594,649.5 130.6719,649.3125 Q130.3438,648.9375 129.7344,648.7188 Q129.125,648.5 128.5,648.5 Q127.7344,648.5 127.0938,648.8281 Q126.4688,649.1563 125.9688,649.9063 Q125.4844,650.6563 125.4844,651.6875 L125.4844,652.7813 Q125.4844,654.0156 126.375,654.8438 Q127.2656,655.6563 128.8594,655.6563 Q129.7969,655.6563 130.4531,655.4063 Q130.8438,655.25 131.2656,654.8125 Q131.5313,654.5469 131.6719,654.4688 Q131.8281,654.3906 132.0313,654.3906 Q132.3594,654.3906 132.6094,654.6563 Q132.875,654.9063 132.875,655.25 Q132.875,655.5938 132.5313,656 Q132.0313,656.5781 131.2344,656.9063 Q130.1563,657.3594 128.8594,657.3594 Q127.3438,657.3594 126.1406,656.7344 Q125.1563,656.2344 124.4688,655.1719 Q123.7813,654.0938 123.7813,652.8125 L123.7813,651.6563 Q123.7813,650.3281 124.3906,649.1875 Q125.0156,648.0313 126.1094,647.4219 Q127.2031,646.7969 128.4375,646.7969 Q129.1719,646.7969 129.8125,646.9688 Q130.4688,647.125 131.0156,647.4844 Z " fill="#000000"/><text fill="#000000" font-family="sans-serif" font-size="14" lengthAdjust="spacing" textLength="58" x="143.75" y="657.3379">use-case</text><line style="stroke:#181818;stroke-width:0.5;" x1="107.5" x2="210.5" y1="667.6094" y2="667.6094"/><text fill="#000000" font-family="sans-serif" font-size="14" lengthAdjust="spacing" textLength="93" x="112.5" y="686.1426">level : keyword</text><line style="stroke:#181818;stroke-width:0.5;" x1="107.5" x2="210.5" y1="693.2188" y2="693.2188"/></g><!--class overarch_dataModel_modelNode--><g id="elem_overarch_dataModel_modelNode"><rect codeLine="23" fill="#F1F1F1" height="48" id="overarch_dataModel_modelNode" rx="2.5" ry="2.5" style="stroke:#181818;stroke-width:0.5;" width="107" x="323.5" y="402.1094"/><ellipse cx="338.5" cy="418.1094" fill="#A9DCDF" rx="11" ry="11" style="stroke:#181818;stroke-width:1.0;"/><path d="M340.6875,419.875 L336.5469,419.875 L336.125,420.9063 L336.5469,420.9063 Q337.1563,420.9063 337.4219,421.1406 Q337.6875,421.375 337.6875,421.7656 Q337.6875,422.1406 337.4219,422.375 Q337.1563,422.6094 336.5469,422.6094 L334.25,422.6094 Q333.6406,422.6094 333.3906,422.375 Q333.125,422.1406 333.125,421.75 Q333.125,421.375 333.4063,421.1406 Q333.6719,420.8906 334.2969,420.9063 L336.9688,414.25 L335.8594,414.25 Q335.25,414.25 334.9844,414.0156 Q334.7188,413.7813 334.7188,413.3906 Q334.7188,413.0156 334.9844,412.7813 Q335.25,412.5469 335.8594,412.5469 L339.5313,412.5469 L342.9219,420.9063 Q343.5156,420.9063 343.7031,421.0469 Q344.0938,421.3125 344.0938,421.7656 Q344.0938,422.1406 343.8281,422.375 Q343.5781,422.6094 342.9688,422.6094 L340.6719,422.6094 Q340.0625,422.6094 339.7969,422.375 Q339.5313,422.1406 339.5313,421.75 Q339.5313,421.375 339.7969,421.1406 Q340.0625,420.9063 340.6719,420.9063 L341.0938,420.9063 L340.6875,419.875 Z M339.9688,418.1719 L338.6094,414.7969 L337.2344,418.1719 L339.9688,418.1719 Z " fill="#000000"/><text fill="#000000" font-family="sans-serif" font-size="14" font-style="italic" lengthAdjust="spacing" textLength="75" x="352.5" y="423.8379">model-node</text><line style="stroke:#181818;stroke-width:0.5;" x1="324.5" x2="429.5" y1="434.1094" y2="434.1094"/><line style="stroke:#181818;stroke-width:0.5;" x1="324.5" x2="429.5" y1="442.1094" y2="442.1094"/></g><!--class overarch_dataModel_useCaseModelRelation--><g id="elem_overarch_dataModel_useCaseModelRelation"><rect codeLine="24" fill="#F1F1F1" height="48" id="overarch_dataModel_useCaseModelRelation" rx="2.5" ry="2.5" style="stroke:#181818;stroke-width:0.5;" width="185" x="657.5" y="527.6094"/><ellipse cx="672.5" cy="543.6094" fill="#A9DCDF" rx="11" ry="11" style="stroke:#181818;stroke-width:1.0;"/><path d="M674.6875,545.375 L670.5469,545.375 L670.125,546.4063 L670.5469,546.4063 Q671.1563,546.4063 671.4219,546.6406 Q671.6875,546.875 671.6875,547.2656 Q671.6875,547.6406 671.4219,547.875 Q671.1563,548.1094 670.5469,548.1094 L668.25,548.1094 Q667.6406,548.1094 667.3906,547.875 Q667.125,547.6406 667.125,547.25 Q667.125,546.875 667.4063,546.6406 Q667.6719,546.3906 668.2969,546.4063 L670.9688,539.75 L669.8594,539.75 Q669.25,539.75 668.9844,539.5156 Q668.7188,539.2813 668.7188,538.8906 Q668.7188,538.5156 668.9844,538.2813 Q669.25,538.0469 669.8594,538.0469 L673.5313,538.0469 L676.9219,546.4063 Q677.5156,546.4063 677.7031,546.5469 Q678.0938,546.8125 678.0938,547.2656 Q678.0938,547.6406 677.8281,547.875 Q677.5781,548.1094 676.9688,548.1094 L674.6719,548.1094 Q674.0625,548.1094 673.7969,547.875 Q673.5313,547.6406 673.5313,547.25 Q673.5313,546.875 673.7969,546.6406 Q674.0625,546.4063 674.6719,546.4063 L675.0938,546.4063 L674.6875,545.375 Z M673.9688,543.6719 L672.6094,540.2969 L671.2344,543.6719 L673.9688,543.6719 Z " fill="#000000"/><text fill="#000000" font-family="sans-serif" font-size="14" font-style="italic" lengthAdjust="spacing" textLength="153" x="686.5" y="549.3379">use-case-model-relation</text><line style="stroke:#181818;stroke-width:0.5;" x1="658.5" x2="841.5" y1="559.6094" y2="559.6094"/><line style="stroke:#181818;stroke-width:0.5;" x1="658.5" x2="841.5" y1="567.6094" y2="567.6094"/></g><!--class overarch_dataModel_modelRelation--><g id="elem_overarch_dataModel_modelRelation"><rect codeLine="25" fill="#F1F1F1" height="83.2188" id="overarch_dataModel_modelRelation" rx="2.5" ry="2.5" style="stroke:#181818;stroke-width:0.5;" width="122" x="689" y="384.6094"/><ellipse cx="704" cy="400.6094" fill="#A9DCDF" rx="11" ry="11" style="stroke:#181818;stroke-width:1.0;"/><path d="M706.1875,402.375 L702.0469,402.375 L701.625,403.4063 L702.0469,403.4063 Q702.6563,403.4063 702.9219,403.6406 Q703.1875,403.875 703.1875,404.2656 Q703.1875,404.6406 702.9219,404.875 Q702.6563,405.1094 702.0469,405.1094 L699.75,405.1094 Q699.1406,405.1094 698.8906,404.875 Q698.625,404.6406 698.625,404.25 Q698.625,403.875 698.9063,403.6406 Q699.1719,403.3906 699.7969,403.4063 L702.4688,396.75 L701.3594,396.75 Q700.75,396.75 700.4844,396.5156 Q700.2188,396.2813 700.2188,395.8906 Q700.2188,395.5156 700.4844,395.2813 Q700.75,395.0469 701.3594,395.0469 L705.0313,395.0469 L708.4219,403.4063 Q709.0156,403.4063 709.2031,403.5469 Q709.5938,403.8125 709.5938,404.2656 Q709.5938,404.6406 709.3281,404.875 Q709.0781,405.1094 708.4688,405.1094 L706.1719,405.1094 Q705.5625,405.1094 705.2969,404.875 Q705.0313,404.6406 705.0313,404.25 Q705.0313,403.875 705.2969,403.6406 Q705.5625,403.4063 706.1719,403.4063 L706.5938,403.4063 L706.1875,402.375 Z M705.4688,400.6719 L704.1094,397.2969 L702.7344,400.6719 L705.4688,400.6719 Z " fill="#000000"/><text fill="#000000" font-family="sans-serif" font-size="14" font-style="italic" lengthAdjust="spacing" textLength="90" x="718" y="406.3379">model-relation</text><line style="stroke:#181818;stroke-width:0.5;" x1="690" x2="810" y1="416.6094" y2="416.6094"/><text fill="#000000" font-family="sans-serif" font-size="14" lengthAdjust="spacing" textLength="92" x="695" y="435.1426">from : keyword</text><text fill="#000000" font-family="sans-serif" font-size="14" lengthAdjust="spacing" textLength="76" x="695" y="452.752">to : keyword</text><line style="stroke:#181818;stroke-width:0.5;" x1="690" x2="810" y1="459.8281" y2="459.8281"/></g><!--class overarch_dataModel_useCaseModelNode--><g id="elem_overarch_dataModel_useCaseModelNode"><rect codeLine="29" fill="#F1F1F1" height="48" id="overarch_dataModel_useCaseModelNode" rx="2.5" ry="2.5" style="stroke:#181818;stroke-width:0.5;" width="170" x="292" y="527.6094"/><ellipse cx="307" cy="543.6094" fill="#A9DCDF" rx="11" ry="11" style="stroke:#181818;stroke-width:1.0;"/><path d="M309.1875,545.375 L305.0469,545.375 L304.625,546.4063 L305.0469,546.4063 Q305.6563,546.4063 305.9219,546.6406 Q306.1875,546.875 306.1875,547.2656 Q306.1875,547.6406 305.9219,547.875 Q305.6563,548.1094 305.0469,548.1094 L302.75,548.1094 Q302.1406,548.1094 301.8906,547.875 Q301.625,547.6406 301.625,547.25 Q301.625,546.875 301.9063,546.6406 Q302.1719,546.3906 302.7969,546.4063 L305.4688,539.75 L304.3594,539.75 Q303.75,539.75 303.4844,539.5156 Q303.2188,539.2813 303.2188,538.8906 Q303.2188,538.5156 303.4844,538.2813 Q303.75,538.0469 304.3594,538.0469 L308.0313,538.0469 L311.4219,546.4063 Q312.0156,546.4063 312.2031,546.5469 Q312.5938,546.8125 312.5938,547.2656 Q312.5938,547.6406 312.3281,547.875 Q312.0781,548.1094 311.4688,548.1094 L309.1719,548.1094 Q308.5625,548.1094 308.2969,547.875 Q308.0313,547.6406 308.0313,547.25 Q308.0313,546.875 308.2969,546.6406 Q308.5625,546.4063 309.1719,546.4063 L309.5938,546.4063 L309.1875,545.375 Z M308.4688,543.6719 L307.1094,540.2969 L305.7344,543.6719 L308.4688,543.6719 Z " fill="#000000"/><text fill="#000000" font-family="sans-serif" font-size="14" font-style="italic" lengthAdjust="spacing" textLength="138" x="321" y="549.3379">use-case-model-node</text><line style="stroke:#181818;stroke-width:0.5;" x1="293" x2="461" y1="559.6094" y2="559.6094"/><line style="stroke:#181818;stroke-width:0.5;" x1="293" x2="461" y1="567.6094" y2="567.6094"/></g><!--class overarch_dataModel_uses--><g id="elem_overarch_dataModel_uses"><rect codeLine="30" fill="#F1F1F1" height="48" id="overarch_dataModel_uses" rx="2.5" ry="2.5" style="stroke:#181818;stroke-width:0.5;" width="62" x="963" y="644.6094"/><ellipse cx="978" cy="660.6094" fill="#ADD1B2" rx="11" ry="11" style="stroke:#181818;stroke-width:1.0;"/><path d="M980.7656,656.4844 Q980.9219,656.2656 981.1094,656.1563 Q981.2969,656.0469 981.5156,656.0469 Q981.8906,656.0469 982.125,656.3125 Q982.3594,656.5625 982.3594,657.1719 L982.3594,658.625 Q982.3594,659.2344 982.125,659.5 Q981.8906,659.7656 981.5156,659.7656 Q981.1719,659.7656 980.9688,659.5625 Q980.7656,659.375 980.6563,658.8594 Q980.6094,658.5 980.4219,658.3125 Q980.0938,657.9375 979.4844,657.7188 Q978.875,657.5 978.25,657.5 Q977.4844,657.5 976.8438,657.8281 Q976.2188,658.1563 975.7188,658.9063 Q975.2344,659.6563 975.2344,660.6875 L975.2344,661.7813 Q975.2344,663.0156 976.125,663.8438 Q977.0156,664.6563 978.6094,664.6563 Q979.5469,664.6563 980.2031,664.4063 Q980.5938,664.25 981.0156,663.8125 Q981.2813,663.5469 981.4219,663.4688 Q981.5781,663.3906 981.7813,663.3906 Q982.1094,663.3906 982.3594,663.6563 Q982.625,663.9063 982.625,664.25 Q982.625,664.5938 982.2813,665 Q981.7813,665.5781 980.9844,665.9063 Q979.9063,666.3594 978.6094,666.3594 Q977.0938,666.3594 975.8906,665.7344 Q974.9063,665.2344 974.2188,664.1719 Q973.5313,663.0938 973.5313,661.8125 L973.5313,660.6563 Q973.5313,659.3281 974.1406,658.1875 Q974.7656,657.0313 975.8594,656.4219 Q976.9531,655.7969 978.1875,655.7969 Q978.9219,655.7969 979.5625,655.9688 Q980.2188,656.125 980.7656,656.4844 Z " fill="#000000"/><text fill="#000000" font-family="sans-serif" font-size="14" lengthAdjust="spacing" textLength="30" x="992" y="666.3379">uses</text><line style="stroke:#181818;stroke-width:0.5;" x1="964" x2="1024" y1="676.6094" y2="676.6094"/><line style="stroke:#181818;stroke-width:0.5;" x1="964" x2="1024" y1="684.6094" y2="684.6094"/></g><!--class overarch_dataModel_system--><g id="elem_overarch_dataModel_system"><rect codeLine="31" fill="#F1F1F1" height="48" id="overarch_dataModel_system" rx="2.5" ry="2.5" style="stroke:#181818;stroke-width:0.5;" width="76" x="247" y="644.6094"/><ellipse cx="262" cy="660.6094" fill="#ADD1B2" rx="11" ry="11" style="stroke:#181818;stroke-width:1.0;"/><path d="M264.7656,656.4844 Q264.9219,656.2656 265.1094,656.1563 Q265.2969,656.0469 265.5156,656.0469 Q265.8906,656.0469 266.125,656.3125 Q266.3594,656.5625 266.3594,657.1719 L266.3594,658.625 Q266.3594,659.2344 266.125,659.5 Q265.8906,659.7656 265.5156,659.7656 Q265.1719,659.7656 264.9688,659.5625 Q264.7656,659.375 264.6563,658.8594 Q264.6094,658.5 264.4219,658.3125 Q264.0938,657.9375 263.4844,657.7188 Q262.875,657.5 262.25,657.5 Q261.4844,657.5 260.8438,657.8281 Q260.2188,658.1563 259.7188,658.9063 Q259.2344,659.6563 259.2344,660.6875 L259.2344,661.7813 Q259.2344,663.0156 260.125,663.8438 Q261.0156,664.6563 262.6094,664.6563 Q263.5469,664.6563 264.2031,664.4063 Q264.5938,664.25 265.0156,663.8125 Q265.2813,663.5469 265.4219,663.4688 Q265.5781,663.3906 265.7813,663.3906 Q266.1094,663.3906 266.3594,663.6563 Q266.625,663.9063 266.625,664.25 Q266.625,664.5938 266.2813,665 Q265.7813,665.5781 264.9844,665.9063 Q263.9063,666.3594 262.6094,666.3594 Q261.0938,666.3594 259.8906,665.7344 Q258.9063,665.2344 258.2188,664.1719 Q257.5313,663.0938 257.5313,661.8125 L257.5313,660.6563 Q257.5313,659.3281 258.1406,658.1875 Q258.7656,657.0313 259.8594,656.4219 Q260.9531,655.7969 262.1875,655.7969 Q262.9219,655.7969 263.5625,655.9688 Q264.2188,656.125 264.7656,656.4844 Z " fill="#000000"/><text fill="#000000" font-family="sans-serif" font-size="14" lengthAdjust="spacing" textLength="44" x="276" y="666.3379">system</text><line style="stroke:#181818;stroke-width:0.5;" x1="248" x2="322" y1="676.6094" y2="676.6094"/><line style="stroke:#181818;stroke-width:0.5;" x1="248" x2="322" y1="684.6094" y2="684.6094"/></g><!--class overarch_dataModel_modelElement--><g id="elem_overarch_dataModel_modelElement"><rect codeLine="32" fill="#F1F1F1" height="83.2188" id="overarch_dataModel_modelElement" rx="2.5" ry="2.5" style="stroke:#181818;stroke-width:0.5;" width="162" x="479" y="241.6094"/><ellipse cx="510.65" cy="257.6094" fill="#A9DCDF" rx="11" ry="11" style="stroke:#181818;stroke-width:1.0;"/><path d="M512.8375,259.375 L508.6969,259.375 L508.275,260.4063 L508.6969,260.4063 Q509.3063,260.4063 509.5719,260.6406 Q509.8375,260.875 509.8375,261.2656 Q509.8375,261.6406 509.5719,261.875 Q509.3063,262.1094 508.6969,262.1094 L506.4,262.1094 Q505.7906,262.1094 505.5406,261.875 Q505.275,261.6406 505.275,261.25 Q505.275,260.875 505.5563,260.6406 Q505.8219,260.3906 506.4469,260.4063 L509.1188,253.75 L508.0094,253.75 Q507.4,253.75 507.1344,253.5156 Q506.8688,253.2813 506.8688,252.8906 Q506.8688,252.5156 507.1344,252.2813 Q507.4,252.0469 508.0094,252.0469 L511.6813,252.0469 L515.0719,260.4063 Q515.6656,260.4063 515.8531,260.5469 Q516.2438,260.8125 516.2438,261.2656 Q516.2438,261.6406 515.9781,261.875 Q515.7281,262.1094 515.1188,262.1094 L512.8219,262.1094 Q512.2125,262.1094 511.9469,261.875 Q511.6813,261.6406 511.6813,261.25 Q511.6813,260.875 511.9469,260.6406 Q512.2125,260.4063 512.8219,260.4063 L513.2438,260.4063 L512.8375,259.375 Z M512.1188,257.6719 L510.7594,254.2969 L509.3844,257.6719 L512.1188,257.6719 Z " fill="#000000"/><text fill="#000000" font-family="sans-serif" font-size="14" font-style="italic" lengthAdjust="spacing" textLength="93" x="528.35" y="263.3379">model-element</text><line style="stroke:#181818;stroke-width:0.5;" x1="480" x2="640" y1="273.6094" y2="273.6094"/><text fill="#000000" font-family="sans-serif" font-size="14" lengthAdjust="spacing" textLength="150" x="485" y="292.1426">maturity : keyword [0..1]</text><text fill="#000000" font-family="sans-serif" font-size="14" lengthAdjust="spacing" textLength="94" x="485" y="309.752">tags : set [0..1]</text><line style="stroke:#181818;stroke-width:0.5;" x1="480" x2="640" y1="316.8281" y2="316.8281"/></g><!--class overarch_dataModel_useCaseModelElement--><g id="elem_overarch_dataModel_useCaseModelElement"><rect codeLine="36" fill="#F1F1F1" height="48" id="overarch_dataModel_useCaseModelElement" rx="2.5" ry="2.5" style="stroke:#181818;stroke-width:0.5;" width="188" x="466" y="402.1094"/><ellipse cx="481" cy="418.1094" fill="#A9DCDF" rx="11" ry="11" style="stroke:#181818;stroke-width:1.0;"/><path d="M483.1875,419.875 L479.0469,419.875 L478.625,420.9063 L479.0469,420.9063 Q479.6563,420.9063 479.9219,421.1406 Q480.1875,421.375 480.1875,421.7656 Q480.1875,422.1406 479.9219,422.375 Q479.6563,422.6094 479.0469,422.6094 L476.75,422.6094 Q476.1406,422.6094 475.8906,422.375 Q475.625,422.1406 475.625,421.75 Q475.625,421.375 475.9063,421.1406 Q476.1719,420.8906 476.7969,420.9063 L479.4688,414.25 L478.3594,414.25 Q477.75,414.25 477.4844,414.0156 Q477.2188,413.7813 477.2188,413.3906 Q477.2188,413.0156 477.4844,412.7813 Q477.75,412.5469 478.3594,412.5469 L482.0313,412.5469 L485.4219,420.9063 Q486.0156,420.9063 486.2031,421.0469 Q486.5938,421.3125 486.5938,421.7656 Q486.5938,422.1406 486.3281,422.375 Q486.0781,422.6094 485.4688,422.6094 L483.1719,422.6094 Q482.5625,422.6094 482.2969,422.375 Q482.0313,422.1406 482.0313,421.75 Q482.0313,421.375 482.2969,421.1406 Q482.5625,420.9063 483.1719,420.9063 L483.5938,420.9063 L483.1875,419.875 Z M482.4688,418.1719 L481.1094,414.7969 L479.7344,418.1719 L482.4688,418.1719 Z " fill="#000000"/><text fill="#000000" font-family="sans-serif" font-size="14" font-style="italic" lengthAdjust="spacing" textLength="156" x="495" y="423.8379">use-case-model-element</text><line style="stroke:#181818;stroke-width:0.5;" x1="467" x2="653" y1="434.1094" y2="434.1094"/><line style="stroke:#181818;stroke-width:0.5;" x1="467" x2="653" y1="442.1094" y2="442.1094"/></g><!--class overarch_dataModel_person--><g id="elem_overarch_dataModel_person"><rect codeLine="37" fill="#F1F1F1" height="48" id="overarch_dataModel_person" rx="2.5" ry="2.5" style="stroke:#181818;stroke-width:0.5;" width="76" x="358" y="644.6094"/><ellipse cx="373" cy="660.6094" fill="#ADD1B2" rx="11" ry="11" style="stroke:#181818;stroke-width:1.0;"/><path d="M375.7656,656.4844 Q375.9219,656.2656 376.1094,656.1563 Q376.2969,656.0469 376.5156,656.0469 Q376.8906,656.0469 377.125,656.3125 Q377.3594,656.5625 377.3594,657.1719 L377.3594,658.625 Q377.3594,659.2344 377.125,659.5 Q376.8906,659.7656 376.5156,659.7656 Q376.1719,659.7656 375.9688,659.5625 Q375.7656,659.375 375.6563,658.8594 Q375.6094,658.5 375.4219,658.3125 Q375.0938,657.9375 374.4844,657.7188 Q373.875,657.5 373.25,657.5 Q372.4844,657.5 371.8438,657.8281 Q371.2188,658.1563 370.7188,658.9063 Q370.2344,659.6563 370.2344,660.6875 L370.2344,661.7813 Q370.2344,663.0156 371.125,663.8438 Q372.0156,664.6563 373.6094,664.6563 Q374.5469,664.6563 375.2031,664.4063 Q375.5938,664.25 376.0156,663.8125 Q376.2813,663.5469 376.4219,663.4688 Q376.5781,663.3906 376.7813,663.3906 Q377.1094,663.3906 377.3594,663.6563 Q377.625,663.9063 377.625,664.25 Q377.625,664.5938 377.2813,665 Q376.7813,665.5781 375.9844,665.9063 Q374.9063,666.3594 373.6094,666.3594 Q372.0938,666.3594 370.8906,665.7344 Q369.9063,665.2344 369.2188,664.1719 Q368.5313,663.0938 368.5313,661.8125 L368.5313,660.6563 Q368.5313,659.3281 369.1406,658.1875 Q369.7656,657.0313 370.8594,656.4219 Q371.9531,655.7969 373.1875,655.7969 Q373.9219,655.7969 374.5625,655.9688 Q375.2188,656.125 375.7656,656.4844 Z " fill="#000000"/><text fill="#000000" font-family="sans-serif" font-size="14" lengthAdjust="spacing" textLength="44" x="387" y="666.3379">person</text><line style="stroke:#181818;stroke-width:0.5;" x1="359" x2="433" y1="676.6094" y2="676.6094"/><line style="stroke:#181818;stroke-width:0.5;" x1="359" x2="433" y1="684.6094" y2="684.6094"/></g><!--class overarch_dataModel_container--><g id="elem_overarch_dataModel_container"><rect codeLine="38" fill="#F1F1F1" height="48" id="overarch_dataModel_container" rx="2.5" ry="2.5" style="stroke:#181818;stroke-width:0.5;" width="91" x="469.5" y="644.6094"/><ellipse cx="484.5" cy="660.6094" fill="#ADD1B2" rx="11" ry="11" style="stroke:#181818;stroke-width:1.0;"/><path d="M487.2656,656.4844 Q487.4219,656.2656 487.6094,656.1563 Q487.7969,656.0469 488.0156,656.0469 Q488.3906,656.0469 488.625,656.3125 Q488.8594,656.5625 488.8594,657.1719 L488.8594,658.625 Q488.8594,659.2344 488.625,659.5 Q488.3906,659.7656 488.0156,659.7656 Q487.6719,659.7656 487.4688,659.5625 Q487.2656,659.375 487.1563,658.8594 Q487.1094,658.5 486.9219,658.3125 Q486.5938,657.9375 485.9844,657.7188 Q485.375,657.5 484.75,657.5 Q483.9844,657.5 483.3438,657.8281 Q482.7188,658.1563 482.2188,658.9063 Q481.7344,659.6563 481.7344,660.6875 L481.7344,661.7813 Q481.7344,663.0156 482.625,663.8438 Q483.5156,664.6563 485.1094,664.6563 Q486.0469,664.6563 486.7031,664.4063 Q487.0938,664.25 487.5156,663.8125 Q487.7813,663.5469 487.9219,663.4688 Q488.0781,663.3906 488.2813,663.3906 Q488.6094,663.3906 488.8594,663.6563 Q489.125,663.9063 489.125,664.25 Q489.125,664.5938 488.7813,665 Q488.2813,665.5781 487.4844,665.9063 Q486.4063,666.3594 485.1094,666.3594 Q483.5938,666.3594 482.3906,665.7344 Q481.4063,665.2344 480.7188,664.1719 Q480.0313,663.0938 480.0313,661.8125 L480.0313,660.6563 Q480.0313,659.3281 480.6406,658.1875 Q481.2656,657.0313 482.3594,656.4219 Q483.4531,655.7969 484.6875,655.7969 Q485.4219,655.7969 486.0625,655.9688 Q486.7188,656.125 487.2656,656.4844 Z " fill="#000000"/><text fill="#000000" font-family="sans-serif" font-size="14" lengthAdjust="spacing" textLength="59" x="498.5" y="666.3379">container</text><line style="stroke:#181818;stroke-width:0.5;" x1="470.5" x2="559.5" y1="676.6094" y2="676.6094"/><line style="stroke:#181818;stroke-width:0.5;" x1="470.5" x2="559.5" y1="684.6094" y2="684.6094"/></g><!--reverse link overarch_dataModel_useCaseModelRelation to overarch_dataModel_extends--><g id="link_overarch_dataModel_useCaseModelRelation_overarch_dataModel_extends"><path codeLine="39" d="M714.2567,588.6616 C694.4767,608.6116 678.8,624.4294 659.04,644.3694 " fill="none" id="overarch_dataModel_useCaseModelRelation-backto-overarch_dataModel_extends" style="stroke:#181818;stroke-width:1.0;"/><polygon fill="none" points="726.93,575.8794,709.9959,584.4372,718.5174,592.8861,726.93,575.8794" style="stroke:#181818;stroke-width:1.0;"/></g><!--reverse link overarch_dataModel_element to overarch_dataModel_modelElement--><g id="link_overarch_dataModel_element_overarch_dataModel_modelElement"><path codeLine="40" d="M560,199.7694 C560,219.9794 560,223.5294 560,241.4494 " fill="none" id="overarch_dataModel_element-backto-overarch_dataModel_modelElement" style="stroke:#181818;stroke-width:1.0;"/><polygon fill="none" points="560,181.7694,554,199.7694,566,199.7694,560,181.7694" style="stroke:#181818;stroke-width:1.0;"/></g><!--reverse link overarch_dataModel_modelElement to overarch_dataModel_modelNode--><g id="link_overarch_dataModel_modelElement_overarch_dataModel_modelNode"><path codeLine="41" d="M492.8117,335.8758 C460.3017,360.9258 434.09,381.1194 407.01,401.9894 " fill="none" id="overarch_dataModel_modelElement-backto-overarch_dataModel_modelNode" style="stroke:#181818;stroke-width:1.0;"/><polygon fill="none" points="507.07,324.8894,489.1496,331.1231,496.4739,340.6286,507.07,324.8894" style="stroke:#181818;stroke-width:1.0;"/></g><!--reverse link overarch_dataModel_modelNode to overarch_dataModel_useCaseModelNode--><g id="link_overarch_dataModel_modelNode_overarch_dataModel_useCaseModelNode"><path codeLine="42" d="M377,468.3394 C377,490.4194 377,505.4394 377,527.4794 " fill="none" id="overarch_dataModel_modelNode-backto-overarch_dataModel_useCaseModelNode" style="stroke:#181818;stroke-width:1.0;"/><polygon fill="none" points="377,450.3394,371,468.3394,383,468.3394,377,450.3394" style="stroke:#181818;stroke-width:1.0;"/></g><!--reverse link overarch_dataModel_useCaseModelNode to overarch_dataModel_useCase--><g id="link_overarch_dataModel_useCaseModelNode_overarch_dataModel_useCase"><path codeLine="43" d="M317.2294,584.1378 C282.1594,602.6378 248.82,620.2294 211.63,639.8494 " fill="none" id="overarch_dataModel_useCaseModelNode-backto-overarch_dataModel_useCase" style="stroke:#181818;stroke-width:1.0;"/><polygon fill="none" points="333.15,575.7394,314.4299,578.8309,320.0288,589.4447,333.15,575.7394" style="stroke:#181818;stroke-width:1.0;"/></g><!--reverse link overarch_dataModel_useCaseModelNode to overarch_dataModel_system--><g id="link_overarch_dataModel_useCaseModelNode_overarch_dataModel_system"><path codeLine="44" d="M347.1355,589.935 C331.1755,609.885 319.54,624.4294 303.59,644.3694 " fill="none" id="overarch_dataModel_useCaseModelNode-backto-overarch_dataModel_system" style="stroke:#181818;stroke-width:1.0;"/><polygon fill="none" points="358.38,575.8794,342.4503,586.1868,351.8207,593.6832,358.38,575.8794" style="stroke:#181818;stroke-width:1.0;"/></g><!--reverse link overarch_dataModel_modelElement to overarch_dataModel_modelRelation--><g id="link_overarch_dataModel_modelElement_overarch_dataModel_modelRelation"><path codeLine="45" d="M629.1539,335.4271 C654.4839,354.2271 670.04,365.7694 695.36,384.5594 " fill="none" id="overarch_dataModel_modelElement-backto-overarch_dataModel_modelRelation" style="stroke:#181818;stroke-width:1.0;"/><polygon fill="none" points="614.7,324.6994,625.578,340.2451,632.7298,330.6091,614.7,324.6994" style="stroke:#181818;stroke-width:1.0;"/></g><!--reverse link overarch_dataModel_useCaseModelNode to overarch_dataModel_person--><g id="link_overarch_dataModel_useCaseModelNode_overarch_dataModel_person"><path codeLine="46" d="M383.7775,593.6381 C387.0775,613.5881 388.87,624.4294 392.16,644.3694 " fill="none" id="overarch_dataModel_useCaseModelNode-backto-overarch_dataModel_person" style="stroke:#181818;stroke-width:1.0;"/><polygon fill="none" points="380.84,575.8794,377.858,594.6172,389.6971,592.6589,380.84,575.8794" style="stroke:#181818;stroke-width:1.0;"/></g><!--reverse link overarch_dataModel_useCaseModelNode to overarch_dataModel_actor--><g id="link_overarch_dataModel_useCaseModelNode_overarch_dataModel_actor"><path codeLine="47" d="M274.3403,574.4396 C215.7603,588.2496 154.54,605.9494 89,635.6094 C82.99,638.3294 76.86,641.6894 71.05,645.1994 " fill="none" id="overarch_dataModel_useCaseModelNode-backto-overarch_dataModel_actor" style="stroke:#181818;stroke-width:1.0;"/><polygon fill="none" points="291.86,570.3094,272.9635,568.5997,275.717,580.2795,291.86,570.3094" style="stroke:#181818;stroke-width:1.0;"/></g><!--reverse link overarch_dataModel_useCaseModelNode to overarch_dataModel_container--><g id="link_overarch_dataModel_useCaseModelNode_overarch_dataModel_container"><path codeLine="48" d="M418.758,587.4027 C442.698,607.3527 463.18,624.4294 487.12,644.3694 " fill="none" id="overarch_dataModel_useCaseModelNode-backto-overarch_dataModel_container" style="stroke:#181818;stroke-width:1.0;"/><polygon fill="none" points="404.93,575.8794,414.9169,592.012,422.5991,582.7934,404.93,575.8794" style="stroke:#181818;stroke-width:1.0;"/></g><!--reverse link overarch_dataModel_useCaseModelRelation to overarch_dataModel_include--><g id="link_overarch_dataModel_useCaseModelRelation_overarch_dataModel_include"><path codeLine="49" d="M750,593.8794 C750,613.8294 750,624.4294 750,644.3694 " fill="none" id="overarch_dataModel_useCaseModelRelation-backto-overarch_dataModel_include" style="stroke:#181818;stroke-width:1.0;"/><polygon fill="none" points="750,575.8794,744,593.8794,756,593.8794,750,575.8794" style="stroke:#181818;stroke-width:1.0;"/></g><!--reverse link overarch_dataModel_modelElement to overarch_dataModel_useCaseModelElement--><g id="link_overarch_dataModel_modelElement_overarch_dataModel_useCaseModelElement"><path codeLine="50" d="M560,342.8894 C560,367.9394 560,381.1194 560,401.9894 " fill="none" id="overarch_dataModel_modelElement-backto-overarch_dataModel_useCaseModelElement" style="stroke:#181818;stroke-width:1.0;"/><polygon fill="none" points="560,324.8894,554,342.8894,566,342.8894,560,324.8894" style="stroke:#181818;stroke-width:1.0;"/></g><!--reverse link overarch_dataModel_useCaseModelElement to overarch_dataModel_useCaseModelRelation--><g id="link_overarch_dataModel_useCaseModelElement_overarch_dataModel_useCaseModelRelation"><path codeLine="51" d="M610.8321,460.149 C644.8021,482.229 680.51,505.4394 714.42,527.4794 " fill="none" id="overarch_dataModel_useCaseModelElement-backto-overarch_dataModel_useCaseModelRelation" style="stroke:#181818;stroke-width:1.0;"/><polygon fill="none" points="595.74,450.3394,607.5622,465.1797,614.102,455.1183,595.74,450.3394" style="stroke:#181818;stroke-width:1.0;"/></g><!--reverse link overarch_dataModel_useCaseModelElement to overarch_dataModel_useCaseModelNode--><g id="link_overarch_dataModel_useCaseModelElement_overarch_dataModel_useCaseModelNode"><path codeLine="52" d="M510.6595,460.408 C477.9395,482.488 443.93,505.4394 411.27,527.4794 " fill="none" id="overarch_dataModel_useCaseModelElement-backto-overarch_dataModel_useCaseModelNode" style="stroke:#181818;stroke-width:1.0;"/><polygon fill="none" points="525.58,450.3394,507.3032,455.4345,514.0157,465.3815,525.58,450.3394" style="stroke:#181818;stroke-width:1.0;"/></g><!--reverse link overarch_dataModel_modelRelation to overarch_dataModel_useCaseModelRelation--><g id="link_overarch_dataModel_modelRelation_overarch_dataModel_useCaseModelRelation"><path codeLine="53" d="M750,485.8894 C750,505.6994 750,510.7894 750,527.5194 " fill="none" id="overarch_dataModel_modelRelation-backto-overarch_dataModel_useCaseModelRelation" style="stroke:#181818;stroke-width:1.0;"/><polygon fill="none" points="750,467.8894,744,485.8894,756,485.8894,750,467.8894" style="stroke:#181818;stroke-width:1.0;"/></g><!--reverse link overarch_dataModel_useCaseModelRelation to overarch_dataModel_uses--><g id="link_overarch_dataModel_useCaseModelRelation_overarch_dataModel_uses"><path codeLine="54" d="M829.5121,582.2335 C868.6821,597.4935 902.9,612.3794 946,635.6094 C951.55,638.5994 957.28,642.0594 962.76,645.5694 " fill="none" id="overarch_dataModel_useCaseModelRelation-backto-overarch_dataModel_uses" style="stroke:#181818;stroke-width:1.0;"/><polygon fill="none" points="812.74,575.6994,827.3341,587.8242,831.6902,576.6428,812.74,575.6994" style="stroke:#181818;stroke-width:1.0;"/></g><!--reverse link overarch_dataModel_useCaseModelRelation to overarch_dataModel_generalizes--><g id="link_overarch_dataModel_useCaseModelRelation_overarch_dataModel_generalizes"><path codeLine="55" d="M788.7955,588.0132 C810.6555,607.9632 828.69,624.4294 850.54,644.3694 " fill="none" id="overarch_dataModel_useCaseModelRelation-backto-overarch_dataModel_generalizes" style="stroke:#181818;stroke-width:1.0;"/><polygon fill="none" points="775.5,575.8794,784.7509,592.445,792.8401,583.5814,775.5,575.8794" style="stroke:#181818;stroke-width:1.0;"/></g><!--SRC=[fLN1JiCm3BtdAwBTEy5ruePsX0CI9uIcq9eHaIOezWPZxDz9cxPBnvAMzJ8fiT_hyxEza2G5_161tmhtSsSAK7ofe0HDo5Yk12AVYPoCdN61t6p12fk_hGf1eivUrK6-Fp3nWcJTYJSey3GnN1FcUyPv0PZp1NTugTVywMe-ltwkhisvMwTmmTzXzsbiuOwow1srAA43iKDR0dmHw0AZOdouAgC1I9shJG4nG1CE06lGBal9RuX-9KW9W1k4B7Vknr0kNZUdCah1jbV-NzVB2fDf4vTUPzmRB_uKteh9F8y59KWQFQ2jFZmqkUTenx6LVHfNxwirPQ-zP9BLdyXFsH1ARzquic025ZOFTqXGnf9zD6x8m8hKISjWJqf16ojfT_JWk1OarbWDFb1xDsZFmET3XpeLNUKVO37UIXyDqdEZIKWt_p54br21nexQpK-M9VQP9VvtOj3GT3RKb2H9DLKikO0n-EbiiZ7pEq0sYSCFyZGxsgPD4kBdQX95_M1DOkX6TVASDi_8nSQUML4sSfF7K8vjsNyuarinQDWbwiQGucIIu77_1G00]--></g></svg>