<?xml version="1.0" encoding="us-ascii" standalone="no"?><svg xmlns="http://www.w3.org/2000/svg" xmlns:xlink="http://www.w3.org/1999/xlink" contentStyleType="text/css" height="1028px" preserveAspectRatio="none" style="width:977px;height:1028px;background:#FFFFFF;" version="1.1" viewBox="0 0 977 1028" width="977px" zoomAndPan="magnify"><defs/><g><text fill="#000000" font-family="sans-serif" font-size="14" font-weight="bold" lengthAdjust="spacing" textLength="168" x="397.5" y="22.9951">View Model Elements</text><!--class overarch_dataModel_element--><g id="elem_overarch_dataModel_element"><rect codeLine="8" fill="#F1F1F1" height="64.2969" id="overarch_dataModel_element" rx="2.5" ry="2.5" style="stroke:#181818;stroke-width:0.5;" width="95" x="10" y="675.2969"/><ellipse cx="27.7" cy="691.2969" fill="#A9DCDF" rx="11" ry="11" style="stroke:#181818;stroke-width:1.0;"/><path d="M27.8094,686.6406 L26.6531,691.7188 L28.9813,691.7188 L27.8094,686.6406 Z M26.325,684.4063 L29.3094,684.4063 L32.6688,696.7969 L30.2156,696.7969 L29.45,693.7344 L26.1688,693.7344 L25.4188,696.7969 L22.9813,696.7969 L26.325,684.4063 Z " fill="#000000"/><text fill="#000000" font-family="sans-serif" font-size="14" font-style="italic" lengthAdjust="spacing" textLength="57" x="42.3" y="696.1436">element</text><line style="stroke:#181818;stroke-width:0.5;" x1="11" x2="104" y1="707.2969" y2="707.2969"/><text fill="#000000" font-family="sans-serif" font-size="14" lengthAdjust="spacing" textLength="83" x="16" y="724.292">el : keyword</text><line style="stroke:#181818;stroke-width:0.5;" x1="11" x2="104" y1="731.5938" y2="731.5938"/></g><!--class overarch_dataModel_identifiableElement--><g id="elem_overarch_dataModel_identifiableElement"><rect codeLine="11" fill="#F1F1F1" height="64.2969" id="overarch_dataModel_identifiableElement" rx="2.5" ry="2.5" style="stroke:#181818;stroke-width:0.5;" width="168" x="168" y="675.2969"/><ellipse cx="183" cy="691.2969" fill="#A9DCDF" rx="11" ry="11" style="stroke:#181818;stroke-width:1.0;"/><path d="M183.1094,686.6406 L181.9531,691.7188 L184.2813,691.7188 L183.1094,686.6406 Z M181.625,684.4063 L184.6094,684.4063 L187.9688,696.7969 L185.5156,696.7969 L184.75,693.7344 L181.4688,693.7344 L180.7188,696.7969 L178.2813,696.7969 L181.625,684.4063 Z " fill="#000000"/><text fill="#000000" font-family="sans-serif" font-size="14" font-style="italic" lengthAdjust="spacing" textLength="136" x="197" y="696.1436">identifiable-element</text><line style="stroke:#181818;stroke-width:0.5;" x1="169" x2="335" y1="707.2969" y2="707.2969"/><text fill="#000000" font-family="sans-serif" font-size="14" lengthAdjust="spacing" textLength="83" x="174" y="724.292">id : keyword</text><line style="stroke:#181818;stroke-width:0.5;" x1="169" x2="335" y1="731.5938" y2="731.5938"/></g><!--class overarch_dataModel_architectureModelElement--><g id="elem_overarch_dataModel_architectureModelElement"><rect codeLine="14" fill="#F1F1F1" height="64.2969" id="overarch_dataModel_architectureModelElement" rx="2.5" ry="2.5" style="stroke:#181818;stroke-width:0.5;" width="225" x="745" y="44.2969"/><ellipse cx="760" cy="60.2969" fill="#A9DCDF" rx="11" ry="11" style="stroke:#181818;stroke-width:1.0;"/><path d="M760.1094,55.6406 L758.9531,60.7188 L761.2813,60.7188 L760.1094,55.6406 Z M758.625,53.4063 L761.6094,53.4063 L764.9688,65.7969 L762.5156,65.7969 L761.75,62.7344 L758.4688,62.7344 L757.7188,65.7969 L755.2813,65.7969 L758.625,53.4063 Z " fill="#000000"/><text fill="#000000" font-family="sans-serif" font-size="14" font-style="italic" lengthAdjust="spacing" textLength="193" x="774" y="65.1436">architecture-model-element</text><line style="stroke:#181818;stroke-width:0.5;" x1="746" x2="969" y1="76.2969" y2="76.2969"/><text fill="#000000" font-family="sans-serif" font-size="14" lengthAdjust="spacing" textLength="164" x="751" y="93.292">external : boolean [0..1]</text><line style="stroke:#181818;stroke-width:0.5;" x1="746" x2="969" y1="100.5938" y2="100.5938"/></g><!--class overarch_dataModel_deploymentModelElement--><g id="elem_overarch_dataModel_deploymentModelElement"><rect codeLine="17" fill="#F1F1F1" height="48" id="overarch_dataModel_deploymentModelElement" rx="2.5" ry="2.5" style="stroke:#181818;stroke-width:0.5;" width="225" x="745" y="558.2969"/><ellipse cx="760" cy="574.2969" fill="#A9DCDF" rx="11" ry="11" style="stroke:#181818;stroke-width:1.0;"/><path d="M760.1094,569.6406 L758.9531,574.7188 L761.2813,574.7188 L760.1094,569.6406 Z M758.625,567.4063 L761.6094,567.4063 L764.9688,579.7969 L762.5156,579.7969 L761.75,576.7344 L758.4688,576.7344 L757.7188,579.7969 L755.2813,579.7969 L758.625,567.4063 Z " fill="#000000"/><text fill="#000000" font-family="sans-serif" font-size="14" font-style="italic" lengthAdjust="spacing" textLength="193" x="774" y="579.1436">deployment-model-element</text><line style="stroke:#181818;stroke-width:0.5;" x1="746" x2="969" y1="590.2969" y2="590.2969"/><line style="stroke:#181818;stroke-width:0.5;" x1="746" x2="969" y1="598.2969" y2="598.2969"/></g><!--class overarch_dataModel_classModelElement--><g id="elem_overarch_dataModel_classModelElement"><rect codeLine="18" fill="#F1F1F1" height="48" id="overarch_dataModel_classModelElement" rx="2.5" ry="2.5" style="stroke:#181818;stroke-width:0.5;" width="175" x="770" y="641.2969"/><ellipse cx="785" cy="657.2969" fill="#A9DCDF" rx="11" ry="11" style="stroke:#181818;stroke-width:1.0;"/><path d="M785.1094,652.6406 L783.9531,657.7188 L786.2813,657.7188 L785.1094,652.6406 Z M783.625,650.4063 L786.6094,650.4063 L789.9688,662.7969 L787.5156,662.7969 L786.75,659.7344 L783.4688,659.7344 L782.7188,662.7969 L780.2813,662.7969 L783.625,650.4063 Z " fill="#000000"/><text fill="#000000" font-family="sans-serif" font-size="14" font-style="italic" lengthAdjust="spacing" textLength="143" x="799" y="662.1436">class-model-element</text><line style="stroke:#181818;stroke-width:0.5;" x1="771" x2="944" y1="673.2969" y2="673.2969"/><line style="stroke:#181818;stroke-width:0.5;" x1="771" x2="944" y1="681.2969" y2="681.2969"/></g><!--class overarch_dataModel_useCaseModelElement--><g id="elem_overarch_dataModel_useCaseModelElement"><rect codeLine="19" fill="#F1F1F1" height="48" id="overarch_dataModel_useCaseModelElement" rx="2.5" ry="2.5" style="stroke:#181818;stroke-width:0.5;" width="204" x="755.5" y="807.2969"/><ellipse cx="770.5" cy="823.2969" fill="#A9DCDF" rx="11" ry="11" style="stroke:#181818;stroke-width:1.0;"/><path d="M770.6094,818.6406 L769.4531,823.7188 L771.7813,823.7188 L770.6094,818.6406 Z M769.125,816.4063 L772.1094,816.4063 L775.4688,828.7969 L773.0156,828.7969 L772.25,825.7344 L768.9688,825.7344 L768.2188,828.7969 L765.7813,828.7969 L769.125,816.4063 Z " fill="#000000"/><text fill="#000000" font-family="sans-serif" font-size="14" font-style="italic" lengthAdjust="spacing" textLength="172" x="784.5" y="828.1436">use-case-model-element</text><line style="stroke:#181818;stroke-width:0.5;" x1="756.5" x2="958.5" y1="839.2969" y2="839.2969"/><line style="stroke:#181818;stroke-width:0.5;" x1="756.5" x2="958.5" y1="847.2969" y2="847.2969"/></g><!--class overarch_dataModel_stateMachine--><g id="elem_overarch_dataModel_stateMachine"><rect codeLine="20" fill="#F1F1F1" height="48" id="overarch_dataModel_stateMachine" rx="2.5" ry="2.5" style="stroke:#181818;stroke-width:0.5;" width="131" x="792" y="724.2969"/><ellipse cx="807" cy="740.2969" fill="#ADD1B2" rx="11" ry="11" style="stroke:#181818;stroke-width:1.0;"/><path d="M809.9688,745.9375 Q809.3906,746.2344 808.75,746.375 Q808.1094,746.5313 807.4063,746.5313 Q804.9063,746.5313 803.5781,744.8906 Q802.2656,743.2344 802.2656,740.1094 Q802.2656,736.9844 803.5781,735.3281 Q804.9063,733.6719 807.4063,733.6719 Q808.1094,733.6719 808.75,733.8281 Q809.4063,733.9844 809.9688,734.2813 L809.9688,737 Q809.3438,736.4219 808.75,736.1563 Q808.1563,735.875 807.5313,735.875 Q806.1875,735.875 805.5,736.9531 Q804.8125,738.0156 804.8125,740.1094 Q804.8125,742.2031 805.5,743.2813 Q806.1875,744.3438 807.5313,744.3438 Q808.1563,744.3438 808.75,744.0781 Q809.3438,743.7969 809.9688,743.2188 L809.9688,745.9375 Z " fill="#000000"/><text fill="#000000" font-family="sans-serif" font-size="14" lengthAdjust="spacing" textLength="99" x="821" y="745.1436">state-machine</text><line style="stroke:#181818;stroke-width:0.5;" x1="793" x2="922" y1="756.2969" y2="756.2969"/><line style="stroke:#181818;stroke-width:0.5;" x1="793" x2="922" y1="764.2969" y2="764.2969"/></g><!--class overarch_dataModel_conceptModelElement--><g id="elem_overarch_dataModel_conceptModelElement"><rect codeLine="21" fill="#F1F1F1" height="48" id="overarch_dataModel_conceptModelElement" rx="2.5" ry="2.5" style="stroke:#181818;stroke-width:0.5;" width="199" x="758" y="931.2969"/><ellipse cx="773" cy="947.2969" fill="#A9DCDF" rx="11" ry="11" style="stroke:#181818;stroke-width:1.0;"/><path d="M773.1094,942.6406 L771.9531,947.7188 L774.2813,947.7188 L773.1094,942.6406 Z M771.625,940.4063 L774.6094,940.4063 L777.9688,952.7969 L775.5156,952.7969 L774.75,949.7344 L771.4688,949.7344 L770.7188,952.7969 L768.2813,952.7969 L771.625,940.4063 Z " fill="#000000"/><text fill="#000000" font-family="sans-serif" font-size="14" font-style="italic" lengthAdjust="spacing" textLength="167" x="787" y="952.1436">concept-model-element</text><line style="stroke:#181818;stroke-width:0.5;" x1="759" x2="956" y1="963.2969" y2="963.2969"/><line style="stroke:#181818;stroke-width:0.5;" x1="759" x2="956" y1="971.2969" y2="971.2969"/></g><!--class overarch_dataModel_ref--><g id="elem_overarch_dataModel_ref"><rect codeLine="22" fill="#F1F1F1" height="64.2969" id="overarch_dataModel_ref" rx="2.5" ry="2.5" style="stroke:#181818;stroke-width:0.5;" width="101" x="7" y="576.2969"/><ellipse cx="44.95" cy="592.2969" fill="#ADD1B2" rx="11" ry="11" style="stroke:#181818;stroke-width:1.0;"/><path d="M47.9188,597.9375 Q47.3406,598.2344 46.7,598.375 Q46.0594,598.5313 45.3563,598.5313 Q42.8563,598.5313 41.5281,596.8906 Q40.2156,595.2344 40.2156,592.1094 Q40.2156,588.9844 41.5281,587.3281 Q42.8563,585.6719 45.3563,585.6719 Q46.0594,585.6719 46.7,585.8281 Q47.3563,585.9844 47.9188,586.2813 L47.9188,589 Q47.2938,588.4219 46.7,588.1563 Q46.1063,587.875 45.4813,587.875 Q44.1375,587.875 43.45,588.9531 Q42.7625,590.0156 42.7625,592.1094 Q42.7625,594.2031 43.45,595.2813 Q44.1375,596.3438 45.4813,596.3438 Q46.1063,596.3438 46.7,596.0781 Q47.2938,595.7969 47.9188,595.2188 L47.9188,597.9375 Z " fill="#000000"/><text fill="#000000" font-family="sans-serif" font-size="14" lengthAdjust="spacing" textLength="18" x="64.05" y="597.1436">ref</text><line style="stroke:#181818;stroke-width:0.5;" x1="8" x2="107" y1="608.2969" y2="608.2969"/><text fill="#000000" font-family="sans-serif" font-size="14" lengthAdjust="spacing" textLength="89" x="13" y="625.292">ref : keyword</text><line style="stroke:#181818;stroke-width:0.5;" x1="8" x2="107" y1="632.5938" y2="632.5938"/></g><!--class overarch_dataModel_view--><g id="elem_overarch_dataModel_view"><rect codeLine="25" fill="#F1F1F1" height="64.2969" id="overarch_dataModel_view" rx="2.5" ry="2.5" style="stroke:#181818;stroke-width:0.5;" width="63" x="396" y="675.2969"/><ellipse cx="411" cy="691.2969" fill="#A9DCDF" rx="11" ry="11" style="stroke:#181818;stroke-width:1.0;"/><path d="M411.1094,686.6406 L409.9531,691.7188 L412.2813,691.7188 L411.1094,686.6406 Z M409.625,684.4063 L412.6094,684.4063 L415.9688,696.7969 L413.5156,696.7969 L412.75,693.7344 L409.4688,693.7344 L408.7188,696.7969 L406.2813,696.7969 L409.625,684.4063 Z " fill="#000000"/><text fill="#000000" font-family="sans-serif" font-size="14" font-style="italic" lengthAdjust="spacing" textLength="31" x="425" y="696.1436">view</text><line style="stroke:#181818;stroke-width:0.5;" x1="397" x2="458" y1="707.2969" y2="707.2969"/><text fill="#000000" font-family="sans-serif" font-size="14" lengthAdjust="spacing" textLength="25" x="402" y="724.292">title</text><line style="stroke:#181818;stroke-width:0.5;" x1="397" x2="458" y1="731.5938" y2="731.5938"/></g><!--class overarch_dataModel_renderingSpec--><g id="elem_overarch_dataModel_renderingSpec"><rect codeLine="28" fill="#F1F1F1" height="48" id="overarch_dataModel_renderingSpec" rx="2.5" ry="2.5" style="stroke:#181818;stroke-width:0.5;" width="66" x="569" y="268.2969"/><ellipse cx="584" cy="284.2969" fill="#ADD1B2" rx="11" ry="11" style="stroke:#181818;stroke-width:1.0;"/><path d="M586.9688,289.9375 Q586.3906,290.2344 585.75,290.375 Q585.1094,290.5313 584.4063,290.5313 Q581.9063,290.5313 580.5781,288.8906 Q579.2656,287.2344 579.2656,284.1094 Q579.2656,280.9844 580.5781,279.3281 Q581.9063,277.6719 584.4063,277.6719 Q585.1094,277.6719 585.75,277.8281 Q586.4063,277.9844 586.9688,278.2813 L586.9688,281 Q586.3438,280.4219 585.75,280.1563 Q585.1563,279.875 584.5313,279.875 Q583.1875,279.875 582.5,280.9531 Q581.8125,282.0156 581.8125,284.1094 Q581.8125,286.2031 582.5,287.2813 Q583.1875,288.3438 584.5313,288.3438 Q585.1563,288.3438 585.75,288.0781 Q586.3438,287.7969 586.9688,287.2188 L586.9688,289.9375 Z " fill="#000000"/><text fill="#000000" font-family="sans-serif" font-size="14" lengthAdjust="spacing" textLength="34" x="598" y="289.1436">spec</text><line style="stroke:#181818;stroke-width:0.5;" x1="570" x2="634" y1="300.2969" y2="300.2969"/><line style="stroke:#181818;stroke-width:0.5;" x1="570" x2="634" y1="308.2969" y2="308.2969"/></g><!--class overarch_dataModel_architectureView--><g id="elem_overarch_dataModel_architectureView"><rect codeLine="29" fill="#F1F1F1" height="48" id="overarch_dataModel_architectureView" rx="2.5" ry="2.5" style="stroke:#181818;stroke-width:0.5;" width="151" x="526.5" y="351.2969"/><ellipse cx="541.5" cy="367.2969" fill="#A9DCDF" rx="11" ry="11" style="stroke:#181818;stroke-width:1.0;"/><path d="M541.6094,362.6406 L540.4531,367.7188 L542.7813,367.7188 L541.6094,362.6406 Z M540.125,360.4063 L543.1094,360.4063 L546.4688,372.7969 L544.0156,372.7969 L543.25,369.7344 L539.9688,369.7344 L539.2188,372.7969 L536.7813,372.7969 L540.125,360.4063 Z " fill="#000000"/><text fill="#000000" font-family="sans-serif" font-size="14" font-style="italic" lengthAdjust="spacing" textLength="119" x="555.5" y="372.1436">architecture-view</text><line style="stroke:#181818;stroke-width:0.5;" x1="527.5" x2="676.5" y1="383.2969" y2="383.2969"/><line style="stroke:#181818;stroke-width:0.5;" x1="527.5" x2="676.5" y1="391.2969" y2="391.2969"/></g><!--class overarch_dataModel_systemLandscapeView--><g id="elem_overarch_dataModel_systemLandscapeView"><rect codeLine="30" fill="#F1F1F1" height="48" id="overarch_dataModel_systemLandscapeView" rx="2.5" ry="2.5" style="stroke:#181818;stroke-width:0.5;" width="193" x="761" y="143.2969"/><ellipse cx="776" cy="159.2969" fill="#ADD1B2" rx="11" ry="11" style="stroke:#181818;stroke-width:1.0;"/><path d="M778.9688,164.9375 Q778.3906,165.2344 777.75,165.375 Q777.1094,165.5313 776.4063,165.5313 Q773.9063,165.5313 772.5781,163.8906 Q771.2656,162.2344 771.2656,159.1094 Q771.2656,155.9844 772.5781,154.3281 Q773.9063,152.6719 776.4063,152.6719 Q777.1094,152.6719 777.75,152.8281 Q778.4063,152.9844 778.9688,153.2813 L778.9688,156 Q778.3438,155.4219 777.75,155.1563 Q777.1563,154.875 776.5313,154.875 Q775.1875,154.875 774.5,155.9531 Q773.8125,157.0156 773.8125,159.1094 Q773.8125,161.2031 774.5,162.2813 Q775.1875,163.3438 776.5313,163.3438 Q777.1563,163.3438 777.75,163.0781 Q778.3438,162.7969 778.9688,162.2188 L778.9688,164.9375 Z " fill="#000000"/><text fill="#000000" font-family="sans-serif" font-size="14" lengthAdjust="spacing" textLength="161" x="790" y="164.1436">system-landscape-view</text><line style="stroke:#181818;stroke-width:0.5;" x1="762" x2="953" y1="175.2969" y2="175.2969"/><line style="stroke:#181818;stroke-width:0.5;" x1="762" x2="953" y1="183.2969" y2="183.2969"/></g><!--class overarch_dataModel_contextView--><g id="elem_overarch_dataModel_contextView"><rect codeLine="31" fill="#F1F1F1" height="48" id="overarch_dataModel_contextView" rx="2.5" ry="2.5" style="stroke:#181818;stroke-width:0.5;" width="119" x="798" y="226.2969"/><ellipse cx="813" cy="242.2969" fill="#ADD1B2" rx="11" ry="11" style="stroke:#181818;stroke-width:1.0;"/><path d="M815.9688,247.9375 Q815.3906,248.2344 814.75,248.375 Q814.1094,248.5313 813.4063,248.5313 Q810.9063,248.5313 809.5781,246.8906 Q808.2656,245.2344 808.2656,242.1094 Q808.2656,238.9844 809.5781,237.3281 Q810.9063,235.6719 813.4063,235.6719 Q814.1094,235.6719 814.75,235.8281 Q815.4063,235.9844 815.9688,236.2813 L815.9688,239 Q815.3438,238.4219 814.75,238.1563 Q814.1563,237.875 813.5313,237.875 Q812.1875,237.875 811.5,238.9531 Q810.8125,240.0156 810.8125,242.1094 Q810.8125,244.2031 811.5,245.2813 Q812.1875,246.3438 813.5313,246.3438 Q814.1563,246.3438 814.75,246.0781 Q815.3438,245.7969 815.9688,245.2188 L815.9688,247.9375 Z " fill="#000000"/><text fill="#000000" font-family="sans-serif" font-size="14" lengthAdjust="spacing" textLength="87" x="827" y="247.1436">context-view</text><line style="stroke:#181818;stroke-width:0.5;" x1="799" x2="916" y1="258.2969" y2="258.2969"/><line style="stroke:#181818;stroke-width:0.5;" x1="799" x2="916" y1="266.2969" y2="266.2969"/></g><!--class overarch_dataModel_containerView--><g id="elem_overarch_dataModel_containerView"><rect codeLine="32" fill="#F1F1F1" height="48" id="overarch_dataModel_containerView" rx="2.5" ry="2.5" style="stroke:#181818;stroke-width:0.5;" width="132" x="791.5" y="309.2969"/><ellipse cx="806.5" cy="325.2969" fill="#ADD1B2" rx="11" ry="11" style="stroke:#181818;stroke-width:1.0;"/><path d="M809.4688,330.9375 Q808.8906,331.2344 808.25,331.375 Q807.6094,331.5313 806.9063,331.5313 Q804.4063,331.5313 803.0781,329.8906 Q801.7656,328.2344 801.7656,325.1094 Q801.7656,321.9844 803.0781,320.3281 Q804.4063,318.6719 806.9063,318.6719 Q807.6094,318.6719 808.25,318.8281 Q808.9063,318.9844 809.4688,319.2813 L809.4688,322 Q808.8438,321.4219 808.25,321.1563 Q807.6563,320.875 807.0313,320.875 Q805.6875,320.875 805,321.9531 Q804.3125,323.0156 804.3125,325.1094 Q804.3125,327.2031 805,328.2813 Q805.6875,329.3438 807.0313,329.3438 Q807.6563,329.3438 808.25,329.0781 Q808.8438,328.7969 809.4688,328.2188 L809.4688,330.9375 Z " fill="#000000"/><text fill="#000000" font-family="sans-serif" font-size="14" lengthAdjust="spacing" textLength="100" x="820.5" y="330.1436">container-view</text><line style="stroke:#181818;stroke-width:0.5;" x1="792.5" x2="922.5" y1="341.2969" y2="341.2969"/><line style="stroke:#181818;stroke-width:0.5;" x1="792.5" x2="922.5" y1="349.2969" y2="349.2969"/></g><!--class overarch_dataModel_componentView--><g id="elem_overarch_dataModel_componentView"><rect codeLine="33" fill="#F1F1F1" height="48" id="overarch_dataModel_componentView" rx="2.5" ry="2.5" style="stroke:#181818;stroke-width:0.5;" width="147" x="784" y="392.2969"/><ellipse cx="799" cy="408.2969" fill="#ADD1B2" rx="11" ry="11" style="stroke:#181818;stroke-width:1.0;"/><path d="M801.9688,413.9375 Q801.3906,414.2344 800.75,414.375 Q800.1094,414.5313 799.4063,414.5313 Q796.9063,414.5313 795.5781,412.8906 Q794.2656,411.2344 794.2656,408.1094 Q794.2656,404.9844 795.5781,403.3281 Q796.9063,401.6719 799.4063,401.6719 Q800.1094,401.6719 800.75,401.8281 Q801.4063,401.9844 801.9688,402.2813 L801.9688,405 Q801.3438,404.4219 800.75,404.1563 Q800.1563,403.875 799.5313,403.875 Q798.1875,403.875 797.5,404.9531 Q796.8125,406.0156 796.8125,408.1094 Q796.8125,410.2031 797.5,411.2813 Q798.1875,412.3438 799.5313,412.3438 Q800.1563,412.3438 800.75,412.0781 Q801.3438,411.7969 801.9688,411.2188 L801.9688,413.9375 Z " fill="#000000"/><text fill="#000000" font-family="sans-serif" font-size="14" lengthAdjust="spacing" textLength="115" x="813" y="413.1436">component-view</text><line style="stroke:#181818;stroke-width:0.5;" x1="785" x2="930" y1="424.2969" y2="424.2969"/><line style="stroke:#181818;stroke-width:0.5;" x1="785" x2="930" y1="432.2969" y2="432.2969"/></g><!--class overarch_dataModel_deploymentView--><g id="elem_overarch_dataModel_deploymentView"><rect codeLine="34" fill="#F1F1F1" height="48" id="overarch_dataModel_deploymentView" rx="2.5" ry="2.5" style="stroke:#181818;stroke-width:0.5;" width="149" x="527.5" y="558.2969"/><ellipse cx="542.5" cy="574.2969" fill="#ADD1B2" rx="11" ry="11" style="stroke:#181818;stroke-width:1.0;"/><path d="M545.4688,579.9375 Q544.8906,580.2344 544.25,580.375 Q543.6094,580.5313 542.9063,580.5313 Q540.4063,580.5313 539.0781,578.8906 Q537.7656,577.2344 537.7656,574.1094 Q537.7656,570.9844 539.0781,569.3281 Q540.4063,567.6719 542.9063,567.6719 Q543.6094,567.6719 544.25,567.8281 Q544.9063,567.9844 545.4688,568.2813 L545.4688,571 Q544.8438,570.4219 544.25,570.1563 Q543.6563,569.875 543.0313,569.875 Q541.6875,569.875 541,570.9531 Q540.3125,572.0156 540.3125,574.1094 Q540.3125,576.2031 541,577.2813 Q541.6875,578.3438 543.0313,578.3438 Q543.6563,578.3438 544.25,578.0781 Q544.8438,577.7969 545.4688,577.2188 L545.4688,579.9375 Z " fill="#000000"/><text fill="#000000" font-family="sans-serif" font-size="14" lengthAdjust="spacing" textLength="117" x="556.5" y="579.1436">deployment-view</text><line style="stroke:#181818;stroke-width:0.5;" x1="528.5" x2="675.5" y1="590.2969" y2="590.2969"/><line style="stroke:#181818;stroke-width:0.5;" x1="528.5" x2="675.5" y1="598.2969" y2="598.2969"/></g><!--class overarch_dataModel_dynamicView--><g id="elem_overarch_dataModel_dynamicView"><rect codeLine="35" fill="#F1F1F1" height="48" id="overarch_dataModel_dynamicView" rx="2.5" ry="2.5" style="stroke:#181818;stroke-width:0.5;" width="124" x="795.5" y="475.2969"/><ellipse cx="810.5" cy="491.2969" fill="#ADD1B2" rx="11" ry="11" style="stroke:#181818;stroke-width:1.0;"/><path d="M813.4688,496.9375 Q812.8906,497.2344 812.25,497.375 Q811.6094,497.5313 810.9063,497.5313 Q808.4063,497.5313 807.0781,495.8906 Q805.7656,494.2344 805.7656,491.1094 Q805.7656,487.9844 807.0781,486.3281 Q808.4063,484.6719 810.9063,484.6719 Q811.6094,484.6719 812.25,484.8281 Q812.9063,484.9844 813.4688,485.2813 L813.4688,488 Q812.8438,487.4219 812.25,487.1563 Q811.6563,486.875 811.0313,486.875 Q809.6875,486.875 809,487.9531 Q808.3125,489.0156 808.3125,491.1094 Q808.3125,493.2031 809,494.2813 Q809.6875,495.3438 811.0313,495.3438 Q811.6563,495.3438 812.25,495.0781 Q812.8438,494.7969 813.4688,494.2188 L813.4688,496.9375 Z " fill="#000000"/><text fill="#000000" font-family="sans-serif" font-size="14" lengthAdjust="spacing" textLength="92" x="824.5" y="496.1436">dynamic-view</text><line style="stroke:#181818;stroke-width:0.5;" x1="796.5" x2="918.5" y1="507.2969" y2="507.2969"/><line style="stroke:#181818;stroke-width:0.5;" x1="796.5" x2="918.5" y1="515.2969" y2="515.2969"/></g><!--class overarch_dataModel_classView--><g id="elem_overarch_dataModel_classView"><rect codeLine="36" fill="#F1F1F1" height="48" id="overarch_dataModel_classView" rx="2.5" ry="2.5" style="stroke:#181818;stroke-width:0.5;" width="102" x="551" y="641.2969"/><ellipse cx="566" cy="657.2969" fill="#ADD1B2" rx="11" ry="11" style="stroke:#181818;stroke-width:1.0;"/><path d="M568.9688,662.9375 Q568.3906,663.2344 567.75,663.375 Q567.1094,663.5313 566.4063,663.5313 Q563.9063,663.5313 562.5781,661.8906 Q561.2656,660.2344 561.2656,657.1094 Q561.2656,653.9844 562.5781,652.3281 Q563.9063,650.6719 566.4063,650.6719 Q567.1094,650.6719 567.75,650.8281 Q568.4063,650.9844 568.9688,651.2813 L568.9688,654 Q568.3438,653.4219 567.75,653.1563 Q567.1563,652.875 566.5313,652.875 Q565.1875,652.875 564.5,653.9531 Q563.8125,655.0156 563.8125,657.1094 Q563.8125,659.2031 564.5,660.2813 Q565.1875,661.3438 566.5313,661.3438 Q567.1563,661.3438 567.75,661.0781 Q568.3438,660.7969 568.9688,660.2188 L568.9688,662.9375 Z " fill="#000000"/><text fill="#000000" font-family="sans-serif" font-size="14" lengthAdjust="spacing" textLength="70" x="580" y="662.1436">class-view</text><line style="stroke:#181818;stroke-width:0.5;" x1="552" x2="652" y1="673.2969" y2="673.2969"/><line style="stroke:#181818;stroke-width:0.5;" x1="552" x2="652" y1="681.2969" y2="681.2969"/></g><!--class overarch_dataModel_stateMachineView--><g id="elem_overarch_dataModel_stateMachineView"><rect codeLine="37" fill="#F1F1F1" height="48" id="overarch_dataModel_stateMachineView" rx="2.5" ry="2.5" style="stroke:#181818;stroke-width:0.5;" width="166" x="519" y="724.2969"/><ellipse cx="534" cy="740.2969" fill="#ADD1B2" rx="11" ry="11" style="stroke:#181818;stroke-width:1.0;"/><path d="M536.9688,745.9375 Q536.3906,746.2344 535.75,746.375 Q535.1094,746.5313 534.4063,746.5313 Q531.9063,746.5313 530.5781,744.8906 Q529.2656,743.2344 529.2656,740.1094 Q529.2656,736.9844 530.5781,735.3281 Q531.9063,733.6719 534.4063,733.6719 Q535.1094,733.6719 535.75,733.8281 Q536.4063,733.9844 536.9688,734.2813 L536.9688,737 Q536.3438,736.4219 535.75,736.1563 Q535.1563,735.875 534.5313,735.875 Q533.1875,735.875 532.5,736.9531 Q531.8125,738.0156 531.8125,740.1094 Q531.8125,742.2031 532.5,743.2813 Q533.1875,744.3438 534.5313,744.3438 Q535.1563,744.3438 535.75,744.0781 Q536.3438,743.7969 536.9688,743.2188 L536.9688,745.9375 Z " fill="#000000"/><text fill="#000000" font-family="sans-serif" font-size="14" lengthAdjust="spacing" textLength="134" x="548" y="745.1436">state-machine-view</text><line style="stroke:#181818;stroke-width:0.5;" x1="520" x2="684" y1="756.2969" y2="756.2969"/><line style="stroke:#181818;stroke-width:0.5;" x1="520" x2="684" y1="764.2969" y2="764.2969"/></g><!--class overarch_dataModel_useCaseView--><g id="elem_overarch_dataModel_useCaseView"><rect codeLine="38" fill="#F1F1F1" height="48" id="overarch_dataModel_useCaseView" rx="2.5" ry="2.5" style="stroke:#181818;stroke-width:0.5;" width="131" x="536.5" y="807.2969"/><ellipse cx="551.5" cy="823.2969" fill="#ADD1B2" rx="11" ry="11" style="stroke:#181818;stroke-width:1.0;"/><path d="M554.4688,828.9375 Q553.8906,829.2344 553.25,829.375 Q552.6094,829.5313 551.9063,829.5313 Q549.4063,829.5313 548.0781,827.8906 Q546.7656,826.2344 546.7656,823.1094 Q546.7656,819.9844 548.0781,818.3281 Q549.4063,816.6719 551.9063,816.6719 Q552.6094,816.6719 553.25,816.8281 Q553.9063,816.9844 554.4688,817.2813 L554.4688,820 Q553.8438,819.4219 553.25,819.1563 Q552.6563,818.875 552.0313,818.875 Q550.6875,818.875 550,819.9531 Q549.3125,821.0156 549.3125,823.1094 Q549.3125,825.2031 550,826.2813 Q550.6875,827.3438 552.0313,827.3438 Q552.6563,827.3438 553.25,827.0781 Q553.8438,826.7969 554.4688,826.2188 L554.4688,828.9375 Z " fill="#000000"/><text fill="#000000" font-family="sans-serif" font-size="14" lengthAdjust="spacing" textLength="99" x="565.5" y="828.1436">use-case-view</text><line style="stroke:#181818;stroke-width:0.5;" x1="537.5" x2="666.5" y1="839.2969" y2="839.2969"/><line style="stroke:#181818;stroke-width:0.5;" x1="537.5" x2="666.5" y1="847.2969" y2="847.2969"/></g><!--class overarch_dataModel_conceptView--><g id="elem_overarch_dataModel_conceptView"><rect codeLine="39" fill="#F1F1F1" height="48" id="overarch_dataModel_conceptView" rx="2.5" ry="2.5" style="stroke:#181818;stroke-width:0.5;" width="124" x="540" y="890.2969"/><ellipse cx="555" cy="906.2969" fill="#ADD1B2" rx="11" ry="11" style="stroke:#181818;stroke-width:1.0;"/><path d="M557.9688,911.9375 Q557.3906,912.2344 556.75,912.375 Q556.1094,912.5313 555.4063,912.5313 Q552.9063,912.5313 551.5781,910.8906 Q550.2656,909.2344 550.2656,906.1094 Q550.2656,902.9844 551.5781,901.3281 Q552.9063,899.6719 555.4063,899.6719 Q556.1094,899.6719 556.75,899.8281 Q557.4063,899.9844 557.9688,900.2813 L557.9688,903 Q557.3438,902.4219 556.75,902.1563 Q556.1563,901.875 555.5313,901.875 Q554.1875,901.875 553.5,902.9531 Q552.8125,904.0156 552.8125,906.1094 Q552.8125,908.2031 553.5,909.2813 Q554.1875,910.3438 555.5313,910.3438 Q556.1563,910.3438 556.75,910.0781 Q557.3438,909.7969 557.9688,909.2188 L557.9688,911.9375 Z " fill="#000000"/><text fill="#000000" font-family="sans-serif" font-size="14" lengthAdjust="spacing" textLength="92" x="569" y="911.1436">concept-view</text><line style="stroke:#181818;stroke-width:0.5;" x1="541" x2="663" y1="922.2969" y2="922.2969"/><line style="stroke:#181818;stroke-width:0.5;" x1="541" x2="663" y1="930.2969" y2="930.2969"/></g><!--class overarch_dataModel_glossaryView--><g id="elem_overarch_dataModel_glossaryView"><rect codeLine="40" fill="#F1F1F1" height="48" id="overarch_dataModel_glossaryView" rx="2.5" ry="2.5" style="stroke:#181818;stroke-width:0.5;" width="124" x="540" y="973.2969"/><ellipse cx="555" cy="989.2969" fill="#ADD1B2" rx="11" ry="11" style="stroke:#181818;stroke-width:1.0;"/><path d="M557.9688,994.9375 Q557.3906,995.2344 556.75,995.375 Q556.1094,995.5313 555.4063,995.5313 Q552.9063,995.5313 551.5781,993.8906 Q550.2656,992.2344 550.2656,989.1094 Q550.2656,985.9844 551.5781,984.3281 Q552.9063,982.6719 555.4063,982.6719 Q556.1094,982.6719 556.75,982.8281 Q557.4063,982.9844 557.9688,983.2813 L557.9688,986 Q557.3438,985.4219 556.75,985.1563 Q556.1563,984.875 555.5313,984.875 Q554.1875,984.875 553.5,985.9531 Q552.8125,987.0156 552.8125,989.1094 Q552.8125,991.2031 553.5,992.2813 Q554.1875,993.3438 555.5313,993.3438 Q556.1563,993.3438 556.75,993.0781 Q557.3438,992.7969 557.9688,992.2188 L557.9688,994.9375 Z " fill="#000000"/><text fill="#000000" font-family="sans-serif" font-size="14" lengthAdjust="spacing" textLength="92" x="569" y="994.1436">glossary-view</text><line style="stroke:#181818;stroke-width:0.5;" x1="541" x2="663" y1="1005.2969" y2="1005.2969"/><line style="stroke:#181818;stroke-width:0.5;" x1="541" x2="663" y1="1013.2969" y2="1013.2969"/></g><!--reverse link overarch_dataModel_element to overarch_dataModel_identifiableElement--><g id="link_overarch_dataModel_element_overarch_dataModel_identifiableElement"><path codeLine="41" d="M125.19,707.2969 C138.99,707.2969 153.69,707.2969 167.99,707.2969 " fill="none" id="overarch_dataModel_element-backto-overarch_dataModel_identifiableElement" style="stroke:#181818;stroke-width:1.0;"/><polygon fill="none" points="125.1,714.2969,105.1,707.2969,125.1,700.2969,125.1,714.2969" style="stroke:#181818;stroke-width:1.0;"/></g><!--reverse link overarch_dataModel_identifiableElement to overarch_dataModel_view--><g id="link_overarch_dataModel_identifiableElement_overarch_dataModel_view"><path codeLine="42" d="M356.5,707.2969 C370.7,707.2969 384.27,707.2969 395.62,707.2969 " fill="none" id="overarch_dataModel_identifiableElement-backto-overarch_dataModel_view" style="stroke:#181818;stroke-width:1.0;"/><polygon fill="none" points="356.19,714.2969,336.19,707.2969,356.19,700.2969,356.19,714.2969" style="stroke:#181818;stroke-width:1.0;"/></g><!--link overarch_dataModel_view to overarch_dataModel_renderingSpec--><g id="link_overarch_dataModel_view_overarch_dataModel_renderingSpec"><path codeLine="43" d="M427.72,661.8669 C428.76,585.7169 441.16,431.0969 519,333.2969 C528.56,321.2869 542.56,312.5069 556.3,306.2269 " fill="none" id="overarch_dataModel_view-overarch_dataModel_renderingSpec" style="stroke:#181818;stroke-width:1.0;"/><polygon fill="none" points="427.65,675.1369,431.6829,669.1589,427.7159,663.1371,423.683,669.115,427.65,675.1369" style="stroke:#181818;stroke-width:1.0;"/><polygon fill="#181818" points="568.7,301.1369,558.8554,300.8478,564.0733,303.0326,561.8886,308.2505,568.7,301.1369" style="stroke:#181818;stroke-width:1.0;"/><line style="stroke:#181818;stroke-width:1.0;" x1="564.0733" x2="556.675" y1="303.0326" y2="306.0669"/><text fill="#000000" font-family="sans-serif" font-size="13" lengthAdjust="spacing" textLength="24" x="536.9141" y="316.0236">0..1</text></g><!--reverse link overarch_dataModel_view to overarch_dataModel_architectureView--><g id="link_overarch_dataModel_view_overarch_dataModel_architectureView"><path codeLine="44" d="M454.5,657.2569 C492.11,584.8669 560.27,453.6769 588.37,399.6069 " fill="none" id="overarch_dataModel_view-backto-overarch_dataModel_architectureView" style="stroke:#181818;stroke-width:1.0;"/><polygon fill="none" points="460.63,660.6369,445.2,675.1569,448.21,654.1869,460.63,660.6369" style="stroke:#181818;stroke-width:1.0;"/></g><!--link overarch_dataModel_architectureView to overarch_dataModel_architectureModelElement--><g id="link_overarch_dataModel_architectureView_overarch_dataModel_architectureModelElement"><path codeLine="45" d="M675.17,343.1969 C678.75,340.1569 682.06,336.8569 685,333.2969 C746.18,259.0369 681.65,197.7069 745,125.2969 C747.82,122.0769 750.89,119.0569 754.16,116.2269 " fill="none" id="overarch_dataModel_architectureView-overarch_dataModel_architectureModelElement" style="stroke:#181818;stroke-width:1.0;"/><polygon fill="none" points="664.52,351.1069,671.7215,350.7354,674.1484,343.9449,666.9469,344.3164,664.52,351.1069" style="stroke:#181818;stroke-width:1.0;"/><polygon fill="#181818" points="764.48,108.3069,754.9048,110.6122,760.5132,111.3506,759.7748,116.9591,764.48,108.3069" style="stroke:#181818;stroke-width:1.0;"/><line style="stroke:#181818;stroke-width:1.0;" x1="760.5132" x2="754.16" y1="111.3506" y2="116.2169"/><text fill="#000000" font-family="sans-serif" font-size="13" lengthAdjust="spacing" textLength="24" x="718.8196" y="128.5058">1..n</text></g><!--reverse link overarch_dataModel_architectureView to overarch_dataModel_systemLandscapeView--><g id="link_overarch_dataModel_architectureView_overarch_dataModel_systemLandscapeView"><path codeLine="46" d="M678.35,339.4769 C680.68,337.5069 682.91,335.4469 685,333.2969 C728.01,289.1669 699.4,249.7469 745,208.2969 C752.33,201.6369 760.82,196.0369 769.8,191.3269 " fill="none" id="overarch_dataModel_architectureView-backto-overarch_dataModel_systemLandscapeView" style="stroke:#181818;stroke-width:1.0;"/><polygon fill="none" points="682.18,345.3469,661.82,351.2269,674.07,333.9269,682.18,345.3469" style="stroke:#181818;stroke-width:1.0;"/></g><!--reverse link overarch_dataModel_architectureView to overarch_dataModel_contextView--><g id="link_overarch_dataModel_architectureView_overarch_dataModel_contextView"><path codeLine="47" d="M670.29,341.7869 C675.31,338.9969 680.26,336.1469 685,333.2969 C712.88,316.5069 716.15,306.3769 745,291.2969 C761.63,282.6069 780.53,274.9069 797.98,268.6069 " fill="none" id="overarch_dataModel_architectureView-backto-overarch_dataModel_contextView" style="stroke:#181818;stroke-width:1.0;"/><polygon fill="none" points="673.53,347.9969,652.6,351.2769,666.91,335.6569,673.53,347.9969" style="stroke:#181818;stroke-width:1.0;"/></g><!--reverse link overarch_dataModel_architectureView to overarch_dataModel_containerView--><g id="link_overarch_dataModel_architectureView_overarch_dataModel_containerView"><path codeLine="48" d="M697.71,359.6069 C728.91,354.4369 762.88,348.8069 791.37,344.0869 " fill="none" id="overarch_dataModel_architectureView-backto-overarch_dataModel_containerView" style="stroke:#181818;stroke-width:1.0;"/><polygon fill="none" points="698.56,366.5569,677.69,362.9269,696.27,352.7469,698.56,366.5569" style="stroke:#181818;stroke-width:1.0;"/></g><!--reverse link overarch_dataModel_architectureView to overarch_dataModel_componentView--><g id="link_overarch_dataModel_architectureView_overarch_dataModel_componentView"><path codeLine="49" d="M697.45,390.5769 C725.95,395.1869 756.79,400.1669 783.66,404.5169 " fill="none" id="overarch_dataModel_architectureView-backto-overarch_dataModel_componentView" style="stroke:#181818;stroke-width:1.0;"/><polygon fill="none" points="696.31,397.4769,677.69,387.3769,698.55,383.6569,696.31,397.4769" style="stroke:#181818;stroke-width:1.0;"/></g><!--reverse link overarch_dataModel_architectureView to overarch_dataModel_dynamicView--><g id="link_overarch_dataModel_architectureView_overarch_dataModel_dynamicView"><path codeLine="50" d="M657.97,409.8469 C683.85,425.3769 715.45,443.3169 745,457.2969 C760.99,464.8569 778.73,472.0569 795.28,478.2869 " fill="none" id="overarch_dataModel_architectureView-backto-overarch_dataModel_dynamicView" style="stroke:#181818;stroke-width:1.0;"/><polygon fill="none" points="654.1,415.6869,640.66,399.3069,661.38,403.7369,654.1,415.6869" style="stroke:#181818;stroke-width:1.0;"/></g><!--reverse link overarch_dataModel_view to overarch_dataModel_deploymentView--><g id="link_overarch_dataModel_view_overarch_dataModel_deploymentView"><path codeLine="51" d="M473.6,660.7269 C487.47,647.7369 503.25,634.2069 519,623.2969 C527.77,617.2269 537.56,611.5169 547.24,606.4069 " fill="none" id="overarch_dataModel_view-backto-overarch_dataModel_deploymentView" style="stroke:#181818;stroke-width:1.0;"/><polygon fill="none" points="478.09,666.1169,458.85,674.9969,468.36,656.0569,478.09,666.1169" style="stroke:#181818;stroke-width:1.0;"/></g><!--link overarch_dataModel_deploymentView to overarch_dataModel_deploymentModelElement--><g id="link_overarch_dataModel_deploymentView_overarch_dataModel_deploymentModelElement"><path codeLine="52" d="M689.69,582.2969 C703.29,582.2969 717.59,582.2969 731.85,582.2969 " fill="none" id="overarch_dataModel_deploymentView-overarch_dataModel_deploymentModelElement" style="stroke:#181818;stroke-width:1.0;"/><polygon fill="none" points="676.66,582.2969,682.66,586.2969,688.66,582.2969,682.66,578.2969,676.66,582.2969" style="stroke:#181818;stroke-width:1.0;"/><polygon fill="#181818" points="744.91,582.2969,735.91,578.2969,739.91,582.2969,735.91,586.2969,744.91,582.2969" style="stroke:#181818;stroke-width:1.0;"/><line style="stroke:#181818;stroke-width:1.0;" x1="739.91" x2="731.91" y1="582.2969" y2="582.2969"/><text fill="#000000" font-family="sans-serif" font-size="13" lengthAdjust="spacing" textLength="24" x="712.9285" y="594.8485">1..n</text></g><!--reverse link overarch_dataModel_view to overarch_dataModel_classView--><g id="link_overarch_dataModel_view_overarch_dataModel_classView"><path codeLine="53" d="M478.79,695.0569 C501.46,689.5369 528.16,683.0269 550.82,677.5169 " fill="none" id="overarch_dataModel_view-backto-overarch_dataModel_classView" style="stroke:#181818;stroke-width:1.0;"/><polygon fill="none" points="480.43,701.8569,459.34,699.7869,477.12,688.2569,480.43,701.8569" style="stroke:#181818;stroke-width:1.0;"/></g><!--link overarch_dataModel_classView to overarch_dataModel_classModelElement--><g id="link_overarch_dataModel_classView_overarch_dataModel_classModelElement"><path codeLine="54" d="M666.47,665.2969 C693.7,665.2969 726.18,665.2969 756.51,665.2969 " fill="none" id="overarch_dataModel_classView-overarch_dataModel_classModelElement" style="stroke:#181818;stroke-width:1.0;"/><polygon fill="none" points="653.08,665.2969,659.08,669.2969,665.08,665.2969,659.08,661.2969,653.08,665.2969" style="stroke:#181818;stroke-width:1.0;"/><polygon fill="#181818" points="769.81,665.2969,760.81,661.2969,764.81,665.2969,760.81,669.2969,769.81,665.2969" style="stroke:#181818;stroke-width:1.0;"/><line style="stroke:#181818;stroke-width:1.0;" x1="764.81" x2="756.81" y1="665.2969" y2="665.2969"/><text fill="#000000" font-family="sans-serif" font-size="13" lengthAdjust="spacing" textLength="24" x="737.866" y="677.9667">1..n</text></g><!--reverse link overarch_dataModel_view to overarch_dataModel_stateMachineView--><g id="link_overarch_dataModel_view_overarch_dataModel_stateMachineView"><path codeLine="55" d="M479.05,719.3069 C491.59,722.2969 505.36,725.5669 518.98,728.8069 " fill="none" id="overarch_dataModel_view-backto-overarch_dataModel_stateMachineView" style="stroke:#181818;stroke-width:1.0;"/><polygon fill="none" points="477.18,726.0669,459.34,714.6269,480.42,712.4369,477.18,726.0669" style="stroke:#181818;stroke-width:1.0;"/></g><!--link overarch_dataModel_stateMachineView to overarch_dataModel_stateMachine--><g id="link_overarch_dataModel_stateMachineView_overarch_dataModel_stateMachine"><path codeLine="56" d="M698.47,748.2969 C724.9,748.2969 753.25,748.2969 778.55,748.2969 " fill="none" id="overarch_dataModel_stateMachineView-overarch_dataModel_stateMachine" style="stroke:#181818;stroke-width:1.0;"/><polygon fill="none" points="685.3,748.2969,691.3,752.2969,697.3,748.2969,691.3,744.2969,685.3,748.2969" style="stroke:#181818;stroke-width:1.0;"/><polygon fill="#181818" points="791.86,748.2969,782.86,744.2969,786.86,748.2969,782.86,752.2969,791.86,748.2969" style="stroke:#181818;stroke-width:1.0;"/><line style="stroke:#181818;stroke-width:1.0;" x1="786.86" x2="778.86" y1="748.2969" y2="748.2969"/><text fill="#000000" font-family="sans-serif" font-size="13" lengthAdjust="spacing" textLength="8" x="775.8079" y="761.2386">1</text></g><!--reverse link overarch_dataModel_view to overarch_dataModel_useCaseView--><g id="link_overarch_dataModel_view_overarch_dataModel_useCaseView"><path codeLine="57" d="M473.8,752.6069 C487.68,765.2769 503.41,778.5269 519,789.2969 C528.21,795.6669 538.52,801.6869 548.63,807.0769 " fill="none" id="overarch_dataModel_view-backto-overarch_dataModel_useCaseView" style="stroke:#181818;stroke-width:1.0;"/><polygon fill="none" points="468.79,757.4969,459.03,738.6869,478.39,747.3069,468.79,757.4969" style="stroke:#181818;stroke-width:1.0;"/></g><!--link overarch_dataModel_useCaseView to overarch_dataModel_useCaseModelElement--><g id="link_overarch_dataModel_useCaseView_overarch_dataModel_useCaseModelElement"><path codeLine="58" d="M680.73,831.2969 C700.06,831.2969 721.19,831.2969 741.88,831.2969 " fill="none" id="overarch_dataModel_useCaseView-overarch_dataModel_useCaseModelElement" style="stroke:#181818;stroke-width:1.0;"/><polygon fill="none" points="667.62,831.2969,673.62,835.2969,679.62,831.2969,673.62,827.2969,667.62,831.2969" style="stroke:#181818;stroke-width:1.0;"/><polygon fill="#181818" points="755.04,831.2969,746.04,827.2969,750.04,831.2969,746.04,835.2969,755.04,831.2969" style="stroke:#181818;stroke-width:1.0;"/><line style="stroke:#181818;stroke-width:1.0;" x1="750.04" x2="742.04" y1="831.2969" y2="831.2969"/><text fill="#000000" font-family="sans-serif" font-size="13" lengthAdjust="spacing" textLength="24" x="723.3497" y="843.8721">1..n</text></g><!--reverse link overarch_dataModel_view to overarch_dataModel_conceptView--><g id="link_overarch_dataModel_view_overarch_dataModel_conceptView"><path codeLine="59" d="M447.12,758.3969 C462.12,793.8869 486.14,840.3569 519,872.2969 C526,879.0969 534.31,885.0469 542.93,890.1569 " fill="none" id="overarch_dataModel_view-backto-overarch_dataModel_conceptView" style="stroke:#181818;stroke-width:1.0;"/><polygon fill="none" points="440.48,760.6369,439.52,739.4669,453.47,755.4269,440.48,760.6369" style="stroke:#181818;stroke-width:1.0;"/></g><!--link overarch_dataModel_conceptView to overarch_dataModel_conceptModelElement--><g id="link_overarch_dataModel_conceptView_overarch_dataModel_conceptModelElement"><path codeLine="60" d="M676.94,926.2569 C698.19,929.6969 721.85,933.5169 744.84,937.2369 " fill="none" id="overarch_dataModel_conceptView-overarch_dataModel_conceptModelElement" style="stroke:#181818;stroke-width:1.0;"/><polygon fill="none" points="664.04,924.1669,669.3257,929.0722,675.8866,926.0797,670.6009,921.1745,664.04,924.1669" style="stroke:#181818;stroke-width:1.0;"/><polygon fill="#181818" points="757.9,939.3469,749.6527,933.9634,752.9639,938.5498,748.3775,941.8611,757.9,939.3469" style="stroke:#181818;stroke-width:1.0;"/><line style="stroke:#181818;stroke-width:1.0;" x1="752.9639" x2="745.065" y1="938.5498" y2="937.2769"/><text fill="#000000" font-family="sans-serif" font-size="13" lengthAdjust="spacing" textLength="24" x="726.0531" y="950.8243">1..n</text></g><!--reverse link overarch_dataModel_view to overarch_dataModel_glossaryView--><g id="link_overarch_dataModel_view_overarch_dataModel_glossaryView"><path codeLine="61" d="M436.09,759.6569 C446.4,814.2069 469.57,899.3569 519,955.2969 C525.14,962.2469 532.71,968.2069 540.74,973.2669 " fill="none" id="overarch_dataModel_view-backto-overarch_dataModel_glossaryView" style="stroke:#181818;stroke-width:1.0;"/><polygon fill="none" points="429.15,760.5969,432.63,739.6969,442.94,758.2069,429.15,760.5969" style="stroke:#181818;stroke-width:1.0;"/></g><!--link overarch_dataModel_glossaryView to overarch_dataModel_conceptModelElement--><g id="link_overarch_dataModel_glossaryView_overarch_dataModel_conceptModelElement"><path codeLine="62" d="M676.94,985.0469 C698.19,981.5269 721.85,977.6069 744.84,973.7969 " fill="none" id="overarch_dataModel_glossaryView-overarch_dataModel_conceptModelElement" style="stroke:#181818;stroke-width:1.0;"/><polygon fill="none" points="664.04,987.1869,670.6138,990.1508,675.8781,985.2226,669.3043,982.2587,664.04,987.1869" style="stroke:#181818;stroke-width:1.0;"/><polygon fill="#181818" points="757.9,971.6369,748.3666,969.164,752.9674,972.4553,749.6761,977.0561,757.9,971.6369" style="stroke:#181818;stroke-width:1.0;"/><line style="stroke:#181818;stroke-width:1.0;" x1="752.9674" x2="745.075" y1="972.4553" y2="973.7569"/><text fill="#000000" font-family="sans-serif" font-size="13" lengthAdjust="spacing" textLength="24" x="726.0531" y="985.3847">1..n</text></g><!--SRC=[fLPDR-CW5BppAv3lZhRNLRMNghVjQQMzh5OLWPSKBGOBw8UrxNyl42SXs83Tv68fdfdtp6C61EmijWfhld-oc74Dr78baVjPRWNWtnnUyODY8F2zW0waDOXiZTM4Mam5CGOtS7ZHO6AmUW5DD7rwPCIIm7iSN-F_26Cdynt_W-5LQOO-9agSEI3VSR8Lq5PaO-nzL8ApOWclmgtxp6SDRUULQeLYHlWdhWPl5hGa_hEsIWaW4l_vjjdS_9qfpQ0NQl3KPONF-CkoK-NmM2OQe3MzPmCj9MRX0ZdqdGEdegEMiSGw8U8MKK9E8e0U3fZP3rIIGhzmtKPmfXyDknpHlGf3zS_I7dfnfiXf-7T19FW7dPUX1vglAnbeBlU_76ZkyoysRQbw30pMZUOm60jTAuXaXfA-h7C0_pnY4octmDPj_AB2Y9bX4ZTZNUK6r8JTzKfw_vJP8ofXH_OhqS-mb3z8qd5Q9XymQT_1diMUFI8TM6oSyhGYzoGY9oUN-AE1fxCAdgjCocCIvbueOuWUYjGZwCWjd1otxssxy0X02q-AdAJl6ELihThs1yQDp_UcwkEiIgvqwbsqnDzZIpURZMpM75wBn7ETpgJ3LNfHLbojSygDAvMY3BbAAKg4rJlYCefGFQngks7-Hh6whrDQeMAKrRgPN4LMDv867reIZiUscfhYwdQY74MLcAsjpSoTQlsOpk6CAjbT7TNqIhMwdJZmKUr0-493dm00]--></g></svg>