<?xml version="1.0" encoding="us-ascii" standalone="no"?><svg xmlns="http://www.w3.org/2000/svg" xmlns:xlink="http://www.w3.org/1999/xlink" contentStyleType="text/css" height="1606px" preserveAspectRatio="none" style="width:1032px;height:1606px;background:#FFFFFF;" version="1.1" viewBox="0 0 1032 1606" width="1032px" zoomAndPan="magnify"><defs/><g><text fill="#000000" font-family="sans-serif" font-size="14" font-weight="bold" lengthAdjust="spacing" textLength="150" x="434" y="24.5332">View Model Elements</text><!--class overarch_dataModel_conceptView--><g id="elem_overarch_dataModel_conceptView"><rect codeLine="9" fill="#F1F1F1" height="48" id="overarch_dataModel_conceptView" rx="2.5" ry="2.5" style="stroke:#181818;stroke-width:0.5;" width="114" x="377" y="929.6094"/><ellipse cx="392" cy="945.6094" fill="#ADD1B2" rx="11" ry="11" style="stroke:#181818;stroke-width:1.0;"/><path d="M394.7656,941.4844 Q394.9219,941.2656 395.1094,941.1563 Q395.2969,941.0469 395.5156,941.0469 Q395.8906,941.0469 396.125,941.3125 Q396.3594,941.5625 396.3594,942.1719 L396.3594,943.625 Q396.3594,944.2344 396.125,944.5 Q395.8906,944.7656 395.5156,944.7656 Q395.1719,944.7656 394.9688,944.5625 Q394.7656,944.375 394.6563,943.8594 Q394.6094,943.5 394.4219,943.3125 Q394.0938,942.9375 393.4844,942.7188 Q392.875,942.5 392.25,942.5 Q391.4844,942.5 390.8438,942.8281 Q390.2188,943.1563 389.7188,943.9063 Q389.2344,944.6563 389.2344,945.6875 L389.2344,946.7813 Q389.2344,948.0156 390.125,948.8438 Q391.0156,949.6563 392.6094,949.6563 Q393.5469,949.6563 394.2031,949.4063 Q394.5938,949.25 395.0156,948.8125 Q395.2813,948.5469 395.4219,948.4688 Q395.5781,948.3906 395.7813,948.3906 Q396.1094,948.3906 396.3594,948.6563 Q396.625,948.9063 396.625,949.25 Q396.625,949.5938 396.2813,950 Q395.7813,950.5781 394.9844,950.9063 Q393.9063,951.3594 392.6094,951.3594 Q391.0938,951.3594 389.8906,950.7344 Q388.9063,950.2344 388.2188,949.1719 Q387.5313,948.0938 387.5313,946.8125 L387.5313,945.6563 Q387.5313,944.3281 388.1406,943.1875 Q388.7656,942.0313 389.8594,941.4219 Q390.9531,940.7969 392.1875,940.7969 Q392.9219,940.7969 393.5625,940.9688 Q394.2188,941.125 394.7656,941.4844 Z " fill="#000000"/><text fill="#000000" font-family="sans-serif" font-size="14" lengthAdjust="spacing" textLength="82" x="406" y="951.3379">concept-view</text><line style="stroke:#181818;stroke-width:0.5;" x1="378" x2="490" y1="961.6094" y2="961.6094"/><line style="stroke:#181818;stroke-width:0.5;" x1="378" x2="490" y1="969.6094" y2="969.6094"/></g><!--class overarch_dataModel_stateMachine--><g id="elem_overarch_dataModel_stateMachine"><rect codeLine="10" fill="#F1F1F1" height="48" id="overarch_dataModel_stateMachine" rx="2.5" ry="2.5" style="stroke:#181818;stroke-width:0.5;" width="121" x="658.5" y="680.6094"/><ellipse cx="673.5" cy="696.6094" fill="#ADD1B2" rx="11" ry="11" style="stroke:#181818;stroke-width:1.0;"/><path d="M676.2656,692.4844 Q676.4219,692.2656 676.6094,692.1563 Q676.7969,692.0469 677.0156,692.0469 Q677.3906,692.0469 677.625,692.3125 Q677.8594,692.5625 677.8594,693.1719 L677.8594,694.625 Q677.8594,695.2344 677.625,695.5 Q677.3906,695.7656 677.0156,695.7656 Q676.6719,695.7656 676.4688,695.5625 Q676.2656,695.375 676.1563,694.8594 Q676.1094,694.5 675.9219,694.3125 Q675.5938,693.9375 674.9844,693.7188 Q674.375,693.5 673.75,693.5 Q672.9844,693.5 672.3438,693.8281 Q671.7188,694.1563 671.2188,694.9063 Q670.7344,695.6563 670.7344,696.6875 L670.7344,697.7813 Q670.7344,699.0156 671.625,699.8438 Q672.5156,700.6563 674.1094,700.6563 Q675.0469,700.6563 675.7031,700.4063 Q676.0938,700.25 676.5156,699.8125 Q676.7813,699.5469 676.9219,699.4688 Q677.0781,699.3906 677.2813,699.3906 Q677.6094,699.3906 677.8594,699.6563 Q678.125,699.9063 678.125,700.25 Q678.125,700.5938 677.7813,701 Q677.2813,701.5781 676.4844,701.9063 Q675.4063,702.3594 674.1094,702.3594 Q672.5938,702.3594 671.3906,701.7344 Q670.4063,701.2344 669.7188,700.1719 Q669.0313,699.0938 669.0313,697.8125 L669.0313,696.6563 Q669.0313,695.3281 669.6406,694.1875 Q670.2656,693.0313 671.3594,692.4219 Q672.4531,691.7969 673.6875,691.7969 Q674.4219,691.7969 675.0625,691.9688 Q675.7188,692.125 676.2656,692.4844 Z " fill="#000000"/><text fill="#000000" font-family="sans-serif" font-size="14" lengthAdjust="spacing" textLength="89" x="687.5" y="702.3379">state-machine</text><line style="stroke:#181818;stroke-width:0.5;" x1="659.5" x2="778.5" y1="712.6094" y2="712.6094"/><line style="stroke:#181818;stroke-width:0.5;" x1="659.5" x2="778.5" y1="720.6094" y2="720.6094"/></g><!--class overarch_dataModel_conceptModelElement--><g id="elem_overarch_dataModel_conceptModelElement"><rect codeLine="11" fill="#F1F1F1" height="48" id="overarch_dataModel_conceptModelElement" rx="2.5" ry="2.5" style="stroke:#181818;stroke-width:0.5;" width="180" x="629" y="888.6094"/><ellipse cx="644" cy="904.6094" fill="#A9DCDF" rx="11" ry="11" style="stroke:#181818;stroke-width:1.0;"/><path d="M646.1875,906.375 L642.0469,906.375 L641.625,907.4063 L642.0469,907.4063 Q642.6563,907.4063 642.9219,907.6406 Q643.1875,907.875 643.1875,908.2656 Q643.1875,908.6406 642.9219,908.875 Q642.6563,909.1094 642.0469,909.1094 L639.75,909.1094 Q639.1406,909.1094 638.8906,908.875 Q638.625,908.6406 638.625,908.25 Q638.625,907.875 638.9063,907.6406 Q639.1719,907.3906 639.7969,907.4063 L642.4688,900.75 L641.3594,900.75 Q640.75,900.75 640.4844,900.5156 Q640.2188,900.2813 640.2188,899.8906 Q640.2188,899.5156 640.4844,899.2813 Q640.75,899.0469 641.3594,899.0469 L645.0313,899.0469 L648.4219,907.4063 Q649.0156,907.4063 649.2031,907.5469 Q649.5938,907.8125 649.5938,908.2656 Q649.5938,908.6406 649.3281,908.875 Q649.0781,909.1094 648.4688,909.1094 L646.1719,909.1094 Q645.5625,909.1094 645.2969,908.875 Q645.0313,908.6406 645.0313,908.25 Q645.0313,907.875 645.2969,907.6406 Q645.5625,907.4063 646.1719,907.4063 L646.5938,907.4063 L646.1875,906.375 Z M645.4688,904.6719 L644.1094,901.2969 L642.7344,904.6719 L645.4688,904.6719 Z " fill="#000000"/><text fill="#000000" font-family="sans-serif" font-size="14" font-style="italic" lengthAdjust="spacing" textLength="148" x="658" y="910.3379">concept-model-element</text><line style="stroke:#181818;stroke-width:0.5;" x1="630" x2="808" y1="920.6094" y2="920.6094"/><line style="stroke:#181818;stroke-width:0.5;" x1="630" x2="808" y1="928.6094" y2="928.6094"/></g><!--class overarch_dataModel_element--><g id="elem_overarch_dataModel_element"><rect codeLine="12" fill="#F1F1F1" height="136.0469" id="overarch_dataModel_element" rx="2.5" ry="2.5" style="stroke:#181818;stroke-width:0.5;" width="125" x="7" y="681.6094"/><ellipse cx="41.35" cy="697.6094" fill="#A9DCDF" rx="11" ry="11" style="stroke:#181818;stroke-width:1.0;"/><path d="M43.5375,699.375 L39.3969,699.375 L38.975,700.4063 L39.3969,700.4063 Q40.0063,700.4063 40.2719,700.6406 Q40.5375,700.875 40.5375,701.2656 Q40.5375,701.6406 40.2719,701.875 Q40.0063,702.1094 39.3969,702.1094 L37.1,702.1094 Q36.4906,702.1094 36.2406,701.875 Q35.975,701.6406 35.975,701.25 Q35.975,700.875 36.2563,700.6406 Q36.5219,700.3906 37.1469,700.4063 L39.8188,693.75 L38.7094,693.75 Q38.1,693.75 37.8344,693.5156 Q37.5688,693.2813 37.5688,692.8906 Q37.5688,692.5156 37.8344,692.2813 Q38.1,692.0469 38.7094,692.0469 L42.3813,692.0469 L45.7719,700.4063 Q46.3656,700.4063 46.5531,700.5469 Q46.9438,700.8125 46.9438,701.2656 Q46.9438,701.6406 46.6781,701.875 Q46.4281,702.1094 45.8188,702.1094 L43.5219,702.1094 Q42.9125,702.1094 42.6469,701.875 Q42.3813,701.6406 42.3813,701.25 Q42.3813,700.875 42.6469,700.6406 Q42.9125,700.4063 43.5219,700.4063 L43.9438,700.4063 L43.5375,699.375 Z M42.8188,697.6719 L41.4594,694.2969 L40.0844,697.6719 L42.8188,697.6719 Z " fill="#000000"/><text fill="#000000" font-family="sans-serif" font-size="14" font-style="italic" lengthAdjust="spacing" textLength="50" x="59.65" y="703.3379">element</text><line style="stroke:#181818;stroke-width:0.5;" x1="8" x2="131" y1="713.6094" y2="713.6094"/><text fill="#000000" font-family="sans-serif" font-size="14" lengthAdjust="spacing" textLength="113" x="13" y="732.1426">desc : string [0..1]</text><text fill="#000000" font-family="sans-serif" font-size="14" lengthAdjust="spacing" textLength="106" x="13" y="749.752">doc : string [0..1]</text><text fill="#000000" font-family="sans-serif" font-size="14" lengthAdjust="spacing" textLength="75" x="13" y="767.3613">el : keyword</text><text fill="#000000" font-family="sans-serif" font-size="14" lengthAdjust="spacing" textLength="75" x="13" y="784.9707">id : keyword</text><text fill="#000000" font-family="sans-serif" font-size="14" lengthAdjust="spacing" textLength="82" x="13" y="802.5801">name : string</text><line style="stroke:#181818;stroke-width:0.5;" x1="8" x2="131" y1="809.6563" y2="809.6563"/></g><!--class overarch_dataModel_modelView--><g id="elem_overarch_dataModel_modelView"><rect codeLine="19" fill="#F1F1F1" height="48" id="overarch_dataModel_modelView" rx="2.5" ry="2.5" style="stroke:#181818;stroke-width:0.5;" width="102" x="383" y="597.6094"/><ellipse cx="398" cy="613.6094" fill="#ADD1B2" rx="11" ry="11" style="stroke:#181818;stroke-width:1.0;"/><path d="M400.7656,609.4844 Q400.9219,609.2656 401.1094,609.1563 Q401.2969,609.0469 401.5156,609.0469 Q401.8906,609.0469 402.125,609.3125 Q402.3594,609.5625 402.3594,610.1719 L402.3594,611.625 Q402.3594,612.2344 402.125,612.5 Q401.8906,612.7656 401.5156,612.7656 Q401.1719,612.7656 400.9688,612.5625 Q400.7656,612.375 400.6563,611.8594 Q400.6094,611.5 400.4219,611.3125 Q400.0938,610.9375 399.4844,610.7188 Q398.875,610.5 398.25,610.5 Q397.4844,610.5 396.8438,610.8281 Q396.2188,611.1563 395.7188,611.9063 Q395.2344,612.6563 395.2344,613.6875 L395.2344,614.7813 Q395.2344,616.0156 396.125,616.8438 Q397.0156,617.6563 398.6094,617.6563 Q399.5469,617.6563 400.2031,617.4063 Q400.5938,617.25 401.0156,616.8125 Q401.2813,616.5469 401.4219,616.4688 Q401.5781,616.3906 401.7813,616.3906 Q402.1094,616.3906 402.3594,616.6563 Q402.625,616.9063 402.625,617.25 Q402.625,617.5938 402.2813,618 Q401.7813,618.5781 400.9844,618.9063 Q399.9063,619.3594 398.6094,619.3594 Q397.0938,619.3594 395.8906,618.7344 Q394.9063,618.2344 394.2188,617.1719 Q393.5313,616.0938 393.5313,614.8125 L393.5313,613.6563 Q393.5313,612.3281 394.1406,611.1875 Q394.7656,610.0313 395.8594,609.4219 Q396.9531,608.7969 398.1875,608.7969 Q398.9219,608.7969 399.5625,608.9688 Q400.2188,609.125 400.7656,609.4844 Z " fill="#000000"/><text fill="#000000" font-family="sans-serif" font-size="14" lengthAdjust="spacing" textLength="70" x="412" y="619.3379">model-view</text><line style="stroke:#181818;stroke-width:0.5;" x1="384" x2="484" y1="629.6094" y2="629.6094"/><line style="stroke:#181818;stroke-width:0.5;" x1="384" x2="484" y1="637.6094" y2="637.6094"/></g><!--class overarch_dataModel_glossaryView--><g id="elem_overarch_dataModel_glossaryView"><rect codeLine="20" fill="#F1F1F1" height="48" id="overarch_dataModel_glossaryView" rx="2.5" ry="2.5" style="stroke:#181818;stroke-width:0.5;" width="117" x="375.5" y="846.6094"/><ellipse cx="390.5" cy="862.6094" fill="#ADD1B2" rx="11" ry="11" style="stroke:#181818;stroke-width:1.0;"/><path d="M393.2656,858.4844 Q393.4219,858.2656 393.6094,858.1563 Q393.7969,858.0469 394.0156,858.0469 Q394.3906,858.0469 394.625,858.3125 Q394.8594,858.5625 394.8594,859.1719 L394.8594,860.625 Q394.8594,861.2344 394.625,861.5 Q394.3906,861.7656 394.0156,861.7656 Q393.6719,861.7656 393.4688,861.5625 Q393.2656,861.375 393.1563,860.8594 Q393.1094,860.5 392.9219,860.3125 Q392.5938,859.9375 391.9844,859.7188 Q391.375,859.5 390.75,859.5 Q389.9844,859.5 389.3438,859.8281 Q388.7188,860.1563 388.2188,860.9063 Q387.7344,861.6563 387.7344,862.6875 L387.7344,863.7813 Q387.7344,865.0156 388.625,865.8438 Q389.5156,866.6563 391.1094,866.6563 Q392.0469,866.6563 392.7031,866.4063 Q393.0938,866.25 393.5156,865.8125 Q393.7813,865.5469 393.9219,865.4688 Q394.0781,865.3906 394.2813,865.3906 Q394.6094,865.3906 394.8594,865.6563 Q395.125,865.9063 395.125,866.25 Q395.125,866.5938 394.7813,867 Q394.2813,867.5781 393.4844,867.9063 Q392.4063,868.3594 391.1094,868.3594 Q389.5938,868.3594 388.3906,867.7344 Q387.4063,867.2344 386.7188,866.1719 Q386.0313,865.0938 386.0313,863.8125 L386.0313,862.6563 Q386.0313,861.3281 386.6406,860.1875 Q387.2656,859.0313 388.3594,858.4219 Q389.4531,857.7969 390.6875,857.7969 Q391.4219,857.7969 392.0625,857.9688 Q392.7188,858.125 393.2656,858.4844 Z " fill="#000000"/><text fill="#000000" font-family="sans-serif" font-size="14" lengthAdjust="spacing" textLength="85" x="404.5" y="868.3379">glossary-view</text><line style="stroke:#181818;stroke-width:0.5;" x1="376.5" x2="491.5" y1="878.6094" y2="878.6094"/><line style="stroke:#181818;stroke-width:0.5;" x1="376.5" x2="491.5" y1="886.6094" y2="886.6094"/></g><!--class overarch_dataModel_technicalArchitectureModelNode--><g id="elem_overarch_dataModel_technicalArchitectureModelNode"><rect codeLine="21" fill="#F1F1F1" height="65.6094" id="overarch_dataModel_technicalArchitectureModelNode" rx="2.5" ry="2.5" style="stroke:#181818;stroke-width:0.5;" width="248" x="595" y="1367.6094"/><ellipse cx="610" cy="1383.6094" fill="#A9DCDF" rx="11" ry="11" style="stroke:#181818;stroke-width:1.0;"/><path d="M612.1875,1385.375 L608.0469,1385.375 L607.625,1386.4063 L608.0469,1386.4063 Q608.6563,1386.4063 608.9219,1386.6406 Q609.1875,1386.875 609.1875,1387.2656 Q609.1875,1387.6406 608.9219,1387.875 Q608.6563,1388.1094 608.0469,1388.1094 L605.75,1388.1094 Q605.1406,1388.1094 604.8906,1387.875 Q604.625,1387.6406 604.625,1387.25 Q604.625,1386.875 604.9063,1386.6406 Q605.1719,1386.3906 605.7969,1386.4063 L608.4688,1379.75 L607.3594,1379.75 Q606.75,1379.75 606.4844,1379.5156 Q606.2188,1379.2813 606.2188,1378.8906 Q606.2188,1378.5156 606.4844,1378.2813 Q606.75,1378.0469 607.3594,1378.0469 L611.0313,1378.0469 L614.4219,1386.4063 Q615.0156,1386.4063 615.2031,1386.5469 Q615.5938,1386.8125 615.5938,1387.2656 Q615.5938,1387.6406 615.3281,1387.875 Q615.0781,1388.1094 614.4688,1388.1094 L612.1719,1388.1094 Q611.5625,1388.1094 611.2969,1387.875 Q611.0313,1387.6406 611.0313,1387.25 Q611.0313,1386.875 611.2969,1386.6406 Q611.5625,1386.4063 612.1719,1386.4063 L612.5938,1386.4063 L612.1875,1385.375 Z M611.4688,1383.6719 L610.1094,1380.2969 L608.7344,1383.6719 L611.4688,1383.6719 Z " fill="#000000"/><text fill="#000000" font-family="sans-serif" font-size="14" font-style="italic" lengthAdjust="spacing" textLength="216" x="624" y="1389.3379">technical-architecture-model-node</text><line style="stroke:#181818;stroke-width:0.5;" x1="596" x2="842" y1="1399.6094" y2="1399.6094"/><text fill="#000000" font-family="sans-serif" font-size="14" lengthAdjust="spacing" textLength="133" x="601" y="1418.1426">subtype : string [0..1]</text><line style="stroke:#181818;stroke-width:0.5;" x1="596" x2="842" y1="1425.2188" y2="1425.2188"/></g><!--class overarch_dataModel_deploymentStructureView--><g id="elem_overarch_dataModel_deploymentStructureView"><rect codeLine="24" fill="#F1F1F1" height="48" id="overarch_dataModel_deploymentStructureView" rx="2.5" ry="2.5" style="stroke:#181818;stroke-width:0.5;" width="198" x="335" y="1095.6094"/><ellipse cx="350" cy="1111.6094" fill="#ADD1B2" rx="11" ry="11" style="stroke:#181818;stroke-width:1.0;"/><path d="M352.7656,1107.4844 Q352.9219,1107.2656 353.1094,1107.1563 Q353.2969,1107.0469 353.5156,1107.0469 Q353.8906,1107.0469 354.125,1107.3125 Q354.3594,1107.5625 354.3594,1108.1719 L354.3594,1109.625 Q354.3594,1110.2344 354.125,1110.5 Q353.8906,1110.7656 353.5156,1110.7656 Q353.1719,1110.7656 352.9688,1110.5625 Q352.7656,1110.375 352.6563,1109.8594 Q352.6094,1109.5 352.4219,1109.3125 Q352.0938,1108.9375 351.4844,1108.7188 Q350.875,1108.5 350.25,1108.5 Q349.4844,1108.5 348.8438,1108.8281 Q348.2188,1109.1563 347.7188,1109.9063 Q347.2344,1110.6563 347.2344,1111.6875 L347.2344,1112.7813 Q347.2344,1114.0156 348.125,1114.8438 Q349.0156,1115.6563 350.6094,1115.6563 Q351.5469,1115.6563 352.2031,1115.4063 Q352.5938,1115.25 353.0156,1114.8125 Q353.2813,1114.5469 353.4219,1114.4688 Q353.5781,1114.3906 353.7813,1114.3906 Q354.1094,1114.3906 354.3594,1114.6563 Q354.625,1114.9063 354.625,1115.25 Q354.625,1115.5938 354.2813,1116 Q353.7813,1116.5781 352.9844,1116.9063 Q351.9063,1117.3594 350.6094,1117.3594 Q349.0938,1117.3594 347.8906,1116.7344 Q346.9063,1116.2344 346.2188,1115.1719 Q345.5313,1114.0938 345.5313,1112.8125 L345.5313,1111.6563 Q345.5313,1110.3281 346.1406,1109.1875 Q346.7656,1108.0313 347.8594,1107.4219 Q348.9531,1106.7969 350.1875,1106.7969 Q350.9219,1106.7969 351.5625,1106.9688 Q352.2188,1107.125 352.7656,1107.4844 Z " fill="#000000"/><text fill="#000000" font-family="sans-serif" font-size="14" lengthAdjust="spacing" textLength="166" x="364" y="1117.3379">deployment-structure-view</text><line style="stroke:#181818;stroke-width:0.5;" x1="336" x2="532" y1="1127.6094" y2="1127.6094"/><line style="stroke:#181818;stroke-width:0.5;" x1="336" x2="532" y1="1135.6094" y2="1135.6094"/></g><!--class overarch_dataModel_containerView--><g id="elem_overarch_dataModel_containerView"><rect codeLine="25" fill="#F1F1F1" height="48" id="overarch_dataModel_containerView" rx="2.5" ry="2.5" style="stroke:#181818;stroke-width:0.5;" width="123" x="657.5" y="478.6094"/><ellipse cx="672.5" cy="494.6094" fill="#ADD1B2" rx="11" ry="11" style="stroke:#181818;stroke-width:1.0;"/><path d="M675.2656,490.4844 Q675.4219,490.2656 675.6094,490.1563 Q675.7969,490.0469 676.0156,490.0469 Q676.3906,490.0469 676.625,490.3125 Q676.8594,490.5625 676.8594,491.1719 L676.8594,492.625 Q676.8594,493.2344 676.625,493.5 Q676.3906,493.7656 676.0156,493.7656 Q675.6719,493.7656 675.4688,493.5625 Q675.2656,493.375 675.1563,492.8594 Q675.1094,492.5 674.9219,492.3125 Q674.5938,491.9375 673.9844,491.7188 Q673.375,491.5 672.75,491.5 Q671.9844,491.5 671.3438,491.8281 Q670.7188,492.1563 670.2188,492.9063 Q669.7344,493.6563 669.7344,494.6875 L669.7344,495.7813 Q669.7344,497.0156 670.625,497.8438 Q671.5156,498.6563 673.1094,498.6563 Q674.0469,498.6563 674.7031,498.4063 Q675.0938,498.25 675.5156,497.8125 Q675.7813,497.5469 675.9219,497.4688 Q676.0781,497.3906 676.2813,497.3906 Q676.6094,497.3906 676.8594,497.6563 Q677.125,497.9063 677.125,498.25 Q677.125,498.5938 676.7813,499 Q676.2813,499.5781 675.4844,499.9063 Q674.4063,500.3594 673.1094,500.3594 Q671.5938,500.3594 670.3906,499.7344 Q669.4063,499.2344 668.7188,498.1719 Q668.0313,497.0938 668.0313,495.8125 L668.0313,494.6563 Q668.0313,493.3281 668.6406,492.1875 Q669.2656,491.0313 670.3594,490.4219 Q671.4531,489.7969 672.6875,489.7969 Q673.4219,489.7969 674.0625,489.9688 Q674.7188,490.125 675.2656,490.4844 Z " fill="#000000"/><text fill="#000000" font-family="sans-serif" font-size="14" lengthAdjust="spacing" textLength="91" x="686.5" y="500.3379">container-view</text><line style="stroke:#181818;stroke-width:0.5;" x1="658.5" x2="779.5" y1="510.6094" y2="510.6094"/><line style="stroke:#181818;stroke-width:0.5;" x1="658.5" x2="779.5" y1="518.6094" y2="518.6094"/></g><!--class overarch_dataModel_renderingSpec--><g id="elem_overarch_dataModel_renderingSpec"><rect codeLine="26" fill="#F1F1F1" height="171.2656" id="overarch_dataModel_renderingSpec" rx="2.5" ry="2.5" style="stroke:#181818;stroke-width:0.5;" width="125" x="371.5" y="1179.1094"/><ellipse cx="414.85" cy="1195.1094" fill="#ADD1B2" rx="11" ry="11" style="stroke:#181818;stroke-width:1.0;"/><path d="M417.6156,1190.9844 Q417.7719,1190.7656 417.9594,1190.6563 Q418.1469,1190.5469 418.3656,1190.5469 Q418.7406,1190.5469 418.975,1190.8125 Q419.2094,1191.0625 419.2094,1191.6719 L419.2094,1193.125 Q419.2094,1193.7344 418.975,1194 Q418.7406,1194.2656 418.3656,1194.2656 Q418.0219,1194.2656 417.8188,1194.0625 Q417.6156,1193.875 417.5063,1193.3594 Q417.4594,1193 417.2719,1192.8125 Q416.9438,1192.4375 416.3344,1192.2188 Q415.725,1192 415.1,1192 Q414.3344,1192 413.6938,1192.3281 Q413.0688,1192.6563 412.5688,1193.4063 Q412.0844,1194.1563 412.0844,1195.1875 L412.0844,1196.2813 Q412.0844,1197.5156 412.975,1198.3438 Q413.8656,1199.1563 415.4594,1199.1563 Q416.3969,1199.1563 417.0531,1198.9063 Q417.4438,1198.75 417.8656,1198.3125 Q418.1313,1198.0469 418.2719,1197.9688 Q418.4281,1197.8906 418.6313,1197.8906 Q418.9594,1197.8906 419.2094,1198.1563 Q419.475,1198.4063 419.475,1198.75 Q419.475,1199.0938 419.1313,1199.5 Q418.6313,1200.0781 417.8344,1200.4063 Q416.7563,1200.8594 415.4594,1200.8594 Q413.9438,1200.8594 412.7406,1200.2344 Q411.7563,1199.7344 411.0688,1198.6719 Q410.3813,1197.5938 410.3813,1196.3125 L410.3813,1195.1563 Q410.3813,1193.8281 410.9906,1192.6875 Q411.6156,1191.5313 412.7094,1190.9219 Q413.8031,1190.2969 415.0375,1190.2969 Q415.7719,1190.2969 416.4125,1190.4688 Q417.0688,1190.625 417.6156,1190.9844 Z " fill="#000000"/><text fill="#000000" font-family="sans-serif" font-size="14" lengthAdjust="spacing" textLength="30" x="435.15" y="1200.8379">spec</text><line style="stroke:#181818;stroke-width:0.5;" x1="372.5" x2="495.5" y1="1211.1094" y2="1211.1094"/><text fill="#000000" font-family="sans-serif" font-size="14" lengthAdjust="spacing" textLength="109" x="377.5" y="1229.6426">include : keyword</text><text fill="#000000" font-family="sans-serif" font-size="14" lengthAdjust="spacing" textLength="102" x="377.5" y="1247.252">layout : keyword</text><text fill="#000000" font-family="sans-serif" font-size="14" lengthAdjust="spacing" textLength="113" x="377.5" y="1264.8613">linetype : keyword</text><text fill="#000000" font-family="sans-serif" font-size="14" lengthAdjust="spacing" textLength="111" x="377.5" y="1282.4707">selection : criteria</text><text fill="#000000" font-family="sans-serif" font-size="14" lengthAdjust="spacing" textLength="104" x="377.5" y="1300.0801">sketch : boolean</text><text fill="#000000" font-family="sans-serif" font-size="14" lengthAdjust="spacing" textLength="75" x="377.5" y="1317.6895">styles : map</text><text fill="#000000" font-family="sans-serif" font-size="14" lengthAdjust="spacing" textLength="78" x="377.5" y="1335.2988">theme : map</text><line style="stroke:#181818;stroke-width:0.5;" x1="372.5" x2="495.5" y1="1342.375" y2="1342.375"/></g><!--class overarch_dataModel_systemStructureView--><g id="elem_overarch_dataModel_systemStructureView"><rect codeLine="35" fill="#F1F1F1" height="48" id="overarch_dataModel_systemStructureView" rx="2.5" ry="2.5" style="stroke:#181818;stroke-width:0.5;" width="169" x="349.5" y="1385.6094"/><ellipse cx="364.5" cy="1401.6094" fill="#ADD1B2" rx="11" ry="11" style="stroke:#181818;stroke-width:1.0;"/><path d="M367.2656,1397.4844 Q367.4219,1397.2656 367.6094,1397.1563 Q367.7969,1397.0469 368.0156,1397.0469 Q368.3906,1397.0469 368.625,1397.3125 Q368.8594,1397.5625 368.8594,1398.1719 L368.8594,1399.625 Q368.8594,1400.2344 368.625,1400.5 Q368.3906,1400.7656 368.0156,1400.7656 Q367.6719,1400.7656 367.4688,1400.5625 Q367.2656,1400.375 367.1563,1399.8594 Q367.1094,1399.5 366.9219,1399.3125 Q366.5938,1398.9375 365.9844,1398.7188 Q365.375,1398.5 364.75,1398.5 Q363.9844,1398.5 363.3438,1398.8281 Q362.7188,1399.1563 362.2188,1399.9063 Q361.7344,1400.6563 361.7344,1401.6875 L361.7344,1402.7813 Q361.7344,1404.0156 362.625,1404.8438 Q363.5156,1405.6563 365.1094,1405.6563 Q366.0469,1405.6563 366.7031,1405.4063 Q367.0938,1405.25 367.5156,1404.8125 Q367.7813,1404.5469 367.9219,1404.4688 Q368.0781,1404.3906 368.2813,1404.3906 Q368.6094,1404.3906 368.8594,1404.6563 Q369.125,1404.9063 369.125,1405.25 Q369.125,1405.5938 368.7813,1406 Q368.2813,1406.5781 367.4844,1406.9063 Q366.4063,1407.3594 365.1094,1407.3594 Q363.5938,1407.3594 362.3906,1406.7344 Q361.4063,1406.2344 360.7188,1405.1719 Q360.0313,1404.0938 360.0313,1402.8125 L360.0313,1401.6563 Q360.0313,1400.3281 360.6406,1399.1875 Q361.2656,1398.0313 362.3594,1397.4219 Q363.4531,1396.7969 364.6875,1396.7969 Q365.4219,1396.7969 366.0625,1396.9688 Q366.7188,1397.125 367.2656,1397.4844 Z " fill="#000000"/><text fill="#000000" font-family="sans-serif" font-size="14" lengthAdjust="spacing" textLength="137" x="378.5" y="1407.3379">system-structure-view</text><line style="stroke:#181818;stroke-width:0.5;" x1="350.5" x2="517.5" y1="1417.6094" y2="1417.6094"/><line style="stroke:#181818;stroke-width:0.5;" x1="350.5" x2="517.5" y1="1425.6094" y2="1425.6094"/></g><!--class overarch_dataModel_deploymentModelNode--><g id="elem_overarch_dataModel_deploymentModelNode"><rect codeLine="36" fill="#F1F1F1" height="48" id="overarch_dataModel_deploymentModelNode" rx="2.5" ry="2.5" style="stroke:#181818;stroke-width:0.5;" width="185" x="626.5" y="1095.6094"/><ellipse cx="641.5" cy="1111.6094" fill="#A9DCDF" rx="11" ry="11" style="stroke:#181818;stroke-width:1.0;"/><path d="M643.6875,1113.375 L639.5469,1113.375 L639.125,1114.4063 L639.5469,1114.4063 Q640.1563,1114.4063 640.4219,1114.6406 Q640.6875,1114.875 640.6875,1115.2656 Q640.6875,1115.6406 640.4219,1115.875 Q640.1563,1116.1094 639.5469,1116.1094 L637.25,1116.1094 Q636.6406,1116.1094 636.3906,1115.875 Q636.125,1115.6406 636.125,1115.25 Q636.125,1114.875 636.4063,1114.6406 Q636.6719,1114.3906 637.2969,1114.4063 L639.9688,1107.75 L638.8594,1107.75 Q638.25,1107.75 637.9844,1107.5156 Q637.7188,1107.2813 637.7188,1106.8906 Q637.7188,1106.5156 637.9844,1106.2813 Q638.25,1106.0469 638.8594,1106.0469 L642.5313,1106.0469 L645.9219,1114.4063 Q646.5156,1114.4063 646.7031,1114.5469 Q647.0938,1114.8125 647.0938,1115.2656 Q647.0938,1115.6406 646.8281,1115.875 Q646.5781,1116.1094 645.9688,1116.1094 L643.6719,1116.1094 Q643.0625,1116.1094 642.7969,1115.875 Q642.5313,1115.6406 642.5313,1115.25 Q642.5313,1114.875 642.7969,1114.6406 Q643.0625,1114.4063 643.6719,1114.4063 L644.0938,1114.4063 L643.6875,1113.375 Z M642.9688,1111.6719 L641.6094,1108.2969 L640.2344,1111.6719 L642.9688,1111.6719 Z " fill="#000000"/><text fill="#000000" font-family="sans-serif" font-size="14" font-style="italic" lengthAdjust="spacing" textLength="153" x="655.5" y="1117.3379">deployment-model-node</text><line style="stroke:#181818;stroke-width:0.5;" x1="627.5" x2="810.5" y1="1127.6094" y2="1127.6094"/><line style="stroke:#181818;stroke-width:0.5;" x1="627.5" x2="810.5" y1="1135.6094" y2="1135.6094"/></g><!--class overarch_dataModel_contextView--><g id="elem_overarch_dataModel_contextView"><rect codeLine="37" fill="#F1F1F1" height="48" id="overarch_dataModel_contextView" rx="2.5" ry="2.5" style="stroke:#181818;stroke-width:0.5;" width="109" x="664.5" y="45.6094"/><ellipse cx="679.5" cy="61.6094" fill="#ADD1B2" rx="11" ry="11" style="stroke:#181818;stroke-width:1.0;"/><path d="M682.2656,57.4844 Q682.4219,57.2656 682.6094,57.1563 Q682.7969,57.0469 683.0156,57.0469 Q683.3906,57.0469 683.625,57.3125 Q683.8594,57.5625 683.8594,58.1719 L683.8594,59.625 Q683.8594,60.2344 683.625,60.5 Q683.3906,60.7656 683.0156,60.7656 Q682.6719,60.7656 682.4688,60.5625 Q682.2656,60.375 682.1563,59.8594 Q682.1094,59.5 681.9219,59.3125 Q681.5938,58.9375 680.9844,58.7188 Q680.375,58.5 679.75,58.5 Q678.9844,58.5 678.3438,58.8281 Q677.7188,59.1563 677.2188,59.9063 Q676.7344,60.6563 676.7344,61.6875 L676.7344,62.7813 Q676.7344,64.0156 677.625,64.8438 Q678.5156,65.6563 680.1094,65.6563 Q681.0469,65.6563 681.7031,65.4063 Q682.0938,65.25 682.5156,64.8125 Q682.7813,64.5469 682.9219,64.4688 Q683.0781,64.3906 683.2813,64.3906 Q683.6094,64.3906 683.8594,64.6563 Q684.125,64.9063 684.125,65.25 Q684.125,65.5938 683.7813,66 Q683.2813,66.5781 682.4844,66.9063 Q681.4063,67.3594 680.1094,67.3594 Q678.5938,67.3594 677.3906,66.7344 Q676.4063,66.2344 675.7188,65.1719 Q675.0313,64.0938 675.0313,62.8125 L675.0313,61.6563 Q675.0313,60.3281 675.6406,59.1875 Q676.2656,58.0313 677.3594,57.4219 Q678.4531,56.7969 679.6875,56.7969 Q680.4219,56.7969 681.0625,56.9688 Q681.7188,57.125 682.2656,57.4844 Z " fill="#000000"/><text fill="#000000" font-family="sans-serif" font-size="14" lengthAdjust="spacing" textLength="77" x="693.5" y="67.3379">context-view</text><line style="stroke:#181818;stroke-width:0.5;" x1="665.5" x2="772.5" y1="77.6094" y2="77.6094"/><line style="stroke:#181818;stroke-width:0.5;" x1="665.5" x2="772.5" y1="85.6094" y2="85.6094"/></g><!--class overarch_dataModel_dynamicView--><g id="elem_overarch_dataModel_dynamicView"><rect codeLine="38" fill="#F1F1F1" height="48" id="overarch_dataModel_dynamicView" rx="2.5" ry="2.5" style="stroke:#181818;stroke-width:0.5;" width="116" x="661" y="128.6094"/><ellipse cx="676" cy="144.6094" fill="#ADD1B2" rx="11" ry="11" style="stroke:#181818;stroke-width:1.0;"/><path d="M678.7656,140.4844 Q678.9219,140.2656 679.1094,140.1563 Q679.2969,140.0469 679.5156,140.0469 Q679.8906,140.0469 680.125,140.3125 Q680.3594,140.5625 680.3594,141.1719 L680.3594,142.625 Q680.3594,143.2344 680.125,143.5 Q679.8906,143.7656 679.5156,143.7656 Q679.1719,143.7656 678.9688,143.5625 Q678.7656,143.375 678.6563,142.8594 Q678.6094,142.5 678.4219,142.3125 Q678.0938,141.9375 677.4844,141.7188 Q676.875,141.5 676.25,141.5 Q675.4844,141.5 674.8438,141.8281 Q674.2188,142.1563 673.7188,142.9063 Q673.2344,143.6563 673.2344,144.6875 L673.2344,145.7813 Q673.2344,147.0156 674.125,147.8438 Q675.0156,148.6563 676.6094,148.6563 Q677.5469,148.6563 678.2031,148.4063 Q678.5938,148.25 679.0156,147.8125 Q679.2813,147.5469 679.4219,147.4688 Q679.5781,147.3906 679.7813,147.3906 Q680.1094,147.3906 680.3594,147.6563 Q680.625,147.9063 680.625,148.25 Q680.625,148.5938 680.2813,149 Q679.7813,149.5781 678.9844,149.9063 Q677.9063,150.3594 676.6094,150.3594 Q675.0938,150.3594 673.8906,149.7344 Q672.9063,149.2344 672.2188,148.1719 Q671.5313,147.0938 671.5313,145.8125 L671.5313,144.6563 Q671.5313,143.3281 672.1406,142.1875 Q672.7656,141.0313 673.8594,140.4219 Q674.9531,139.7969 676.1875,139.7969 Q676.9219,139.7969 677.5625,139.9688 Q678.2188,140.125 678.7656,140.4844 Z " fill="#000000"/><text fill="#000000" font-family="sans-serif" font-size="14" lengthAdjust="spacing" textLength="84" x="690" y="150.3379">dynamic-view</text><line style="stroke:#181818;stroke-width:0.5;" x1="662" x2="776" y1="160.6094" y2="160.6094"/><line style="stroke:#181818;stroke-width:0.5;" x1="662" x2="776" y1="168.6094" y2="168.6094"/></g><!--class overarch_dataModel_useCaseView--><g id="elem_overarch_dataModel_useCaseView"><rect codeLine="39" fill="#F1F1F1" height="48" id="overarch_dataModel_useCaseView" rx="2.5" ry="2.5" style="stroke:#181818;stroke-width:0.5;" width="122" x="373" y="1468.6094"/><ellipse cx="388" cy="1484.6094" fill="#ADD1B2" rx="11" ry="11" style="stroke:#181818;stroke-width:1.0;"/><path d="M390.7656,1480.4844 Q390.9219,1480.2656 391.1094,1480.1563 Q391.2969,1480.0469 391.5156,1480.0469 Q391.8906,1480.0469 392.125,1480.3125 Q392.3594,1480.5625 392.3594,1481.1719 L392.3594,1482.625 Q392.3594,1483.2344 392.125,1483.5 Q391.8906,1483.7656 391.5156,1483.7656 Q391.1719,1483.7656 390.9688,1483.5625 Q390.7656,1483.375 390.6563,1482.8594 Q390.6094,1482.5 390.4219,1482.3125 Q390.0938,1481.9375 389.4844,1481.7188 Q388.875,1481.5 388.25,1481.5 Q387.4844,1481.5 386.8438,1481.8281 Q386.2188,1482.1563 385.7188,1482.9063 Q385.2344,1483.6563 385.2344,1484.6875 L385.2344,1485.7813 Q385.2344,1487.0156 386.125,1487.8438 Q387.0156,1488.6563 388.6094,1488.6563 Q389.5469,1488.6563 390.2031,1488.4063 Q390.5938,1488.25 391.0156,1487.8125 Q391.2813,1487.5469 391.4219,1487.4688 Q391.5781,1487.3906 391.7813,1487.3906 Q392.1094,1487.3906 392.3594,1487.6563 Q392.625,1487.9063 392.625,1488.25 Q392.625,1488.5938 392.2813,1489 Q391.7813,1489.5781 390.9844,1489.9063 Q389.9063,1490.3594 388.6094,1490.3594 Q387.0938,1490.3594 385.8906,1489.7344 Q384.9063,1489.2344 384.2188,1488.1719 Q383.5313,1487.0938 383.5313,1485.8125 L383.5313,1484.6563 Q383.5313,1483.3281 384.1406,1482.1875 Q384.7656,1481.0313 385.8594,1480.4219 Q386.9531,1479.7969 388.1875,1479.7969 Q388.9219,1479.7969 389.5625,1479.9688 Q390.2188,1480.125 390.7656,1480.4844 Z " fill="#000000"/><text fill="#000000" font-family="sans-serif" font-size="14" lengthAdjust="spacing" textLength="90" x="402" y="1490.3379">use-case-view</text><line style="stroke:#181818;stroke-width:0.5;" x1="374" x2="494" y1="1500.6094" y2="1500.6094"/><line style="stroke:#181818;stroke-width:0.5;" x1="374" x2="494" y1="1508.6094" y2="1508.6094"/></g><!--class overarch_dataModel_deploymentView--><g id="elem_overarch_dataModel_deploymentView"><rect codeLine="40" fill="#F1F1F1" height="48" id="overarch_dataModel_deploymentView" rx="2.5" ry="2.5" style="stroke:#181818;stroke-width:0.5;" width="137" x="365.5" y="1551.6094"/><ellipse cx="380.5" cy="1567.6094" fill="#ADD1B2" rx="11" ry="11" style="stroke:#181818;stroke-width:1.0;"/><path d="M383.2656,1563.4844 Q383.4219,1563.2656 383.6094,1563.1563 Q383.7969,1563.0469 384.0156,1563.0469 Q384.3906,1563.0469 384.625,1563.3125 Q384.8594,1563.5625 384.8594,1564.1719 L384.8594,1565.625 Q384.8594,1566.2344 384.625,1566.5 Q384.3906,1566.7656 384.0156,1566.7656 Q383.6719,1566.7656 383.4688,1566.5625 Q383.2656,1566.375 383.1563,1565.8594 Q383.1094,1565.5 382.9219,1565.3125 Q382.5938,1564.9375 381.9844,1564.7188 Q381.375,1564.5 380.75,1564.5 Q379.9844,1564.5 379.3438,1564.8281 Q378.7188,1565.1563 378.2188,1565.9063 Q377.7344,1566.6563 377.7344,1567.6875 L377.7344,1568.7813 Q377.7344,1570.0156 378.625,1570.8438 Q379.5156,1571.6563 381.1094,1571.6563 Q382.0469,1571.6563 382.7031,1571.4063 Q383.0938,1571.25 383.5156,1570.8125 Q383.7813,1570.5469 383.9219,1570.4688 Q384.0781,1570.3906 384.2813,1570.3906 Q384.6094,1570.3906 384.8594,1570.6563 Q385.125,1570.9063 385.125,1571.25 Q385.125,1571.5938 384.7813,1572 Q384.2813,1572.5781 383.4844,1572.9063 Q382.4063,1573.3594 381.1094,1573.3594 Q379.5938,1573.3594 378.3906,1572.7344 Q377.4063,1572.2344 376.7188,1571.1719 Q376.0313,1570.0938 376.0313,1568.8125 L376.0313,1567.6563 Q376.0313,1566.3281 376.6406,1565.1875 Q377.2656,1564.0313 378.3594,1563.4219 Q379.4531,1562.7969 380.6875,1562.7969 Q381.4219,1562.7969 382.0625,1562.9688 Q382.7188,1563.125 383.2656,1563.4844 Z " fill="#000000"/><text fill="#000000" font-family="sans-serif" font-size="14" lengthAdjust="spacing" textLength="105" x="394.5" y="1573.3379">deployment-view</text><line style="stroke:#181818;stroke-width:0.5;" x1="366.5" x2="501.5" y1="1583.6094" y2="1583.6094"/><line style="stroke:#181818;stroke-width:0.5;" x1="366.5" x2="501.5" y1="1591.6094" y2="1591.6094"/></g><!--class overarch_dataModel_modelNode--><g id="elem_overarch_dataModel_modelNode"><rect codeLine="41" fill="#F1F1F1" height="48" id="overarch_dataModel_modelNode" rx="2.5" ry="2.5" style="stroke:#181818;stroke-width:0.5;" width="107" x="910.5" y="529.6094"/><ellipse cx="925.5" cy="545.6094" fill="#A9DCDF" rx="11" ry="11" style="stroke:#181818;stroke-width:1.0;"/><path d="M927.6875,547.375 L923.5469,547.375 L923.125,548.4063 L923.5469,548.4063 Q924.1563,548.4063 924.4219,548.6406 Q924.6875,548.875 924.6875,549.2656 Q924.6875,549.6406 924.4219,549.875 Q924.1563,550.1094 923.5469,550.1094 L921.25,550.1094 Q920.6406,550.1094 920.3906,549.875 Q920.125,549.6406 920.125,549.25 Q920.125,548.875 920.4063,548.6406 Q920.6719,548.3906 921.2969,548.4063 L923.9688,541.75 L922.8594,541.75 Q922.25,541.75 921.9844,541.5156 Q921.7188,541.2813 921.7188,540.8906 Q921.7188,540.5156 921.9844,540.2813 Q922.25,540.0469 922.8594,540.0469 L926.5313,540.0469 L929.9219,548.4063 Q930.5156,548.4063 930.7031,548.5469 Q931.0938,548.8125 931.0938,549.2656 Q931.0938,549.6406 930.8281,549.875 Q930.5781,550.1094 929.9688,550.1094 L927.6719,550.1094 Q927.0625,550.1094 926.7969,549.875 Q926.5313,549.6406 926.5313,549.25 Q926.5313,548.875 926.7969,548.6406 Q927.0625,548.4063 927.6719,548.4063 L928.0938,548.4063 L927.6875,547.375 Z M926.9688,545.6719 L925.6094,542.2969 L924.2344,545.6719 L926.9688,545.6719 Z " fill="#000000"/><text fill="#000000" font-family="sans-serif" font-size="14" font-style="italic" lengthAdjust="spacing" textLength="75" x="939.5" y="551.3379">model-node</text><line style="stroke:#181818;stroke-width:0.5;" x1="911.5" x2="1016.5" y1="561.6094" y2="561.6094"/><line style="stroke:#181818;stroke-width:0.5;" x1="911.5" x2="1016.5" y1="569.6094" y2="569.6094"/></g><!--class overarch_dataModel_view--><g id="elem_overarch_dataModel_view"><rect codeLine="42" fill="#F1F1F1" height="65.6094" id="overarch_dataModel_view" rx="2.5" ry="2.5" style="stroke:#181818;stroke-width:0.5;" width="81" x="192" y="920.6094"/><ellipse cx="217.35" cy="936.6094" fill="#A9DCDF" rx="11" ry="11" style="stroke:#181818;stroke-width:1.0;"/><path d="M219.5375,938.375 L215.3969,938.375 L214.975,939.4063 L215.3969,939.4063 Q216.0063,939.4063 216.2719,939.6406 Q216.5375,939.875 216.5375,940.2656 Q216.5375,940.6406 216.2719,940.875 Q216.0063,941.1094 215.3969,941.1094 L213.1,941.1094 Q212.4906,941.1094 212.2406,940.875 Q211.975,940.6406 211.975,940.25 Q211.975,939.875 212.2563,939.6406 Q212.5219,939.3906 213.1469,939.4063 L215.8188,932.75 L214.7094,932.75 Q214.1,932.75 213.8344,932.5156 Q213.5688,932.2813 213.5688,931.8906 Q213.5688,931.5156 213.8344,931.2813 Q214.1,931.0469 214.7094,931.0469 L218.3813,931.0469 L221.7719,939.4063 Q222.3656,939.4063 222.5531,939.5469 Q222.9438,939.8125 222.9438,940.2656 Q222.9438,940.6406 222.6781,940.875 Q222.4281,941.1094 221.8188,941.1094 L219.5219,941.1094 Q218.9125,941.1094 218.6469,940.875 Q218.3813,940.6406 218.3813,940.25 Q218.3813,939.875 218.6469,939.6406 Q218.9125,939.4063 219.5219,939.4063 L219.9438,939.4063 L219.5375,938.375 Z M218.8188,936.6719 L217.4594,933.2969 L216.0844,936.6719 L218.8188,936.6719 Z " fill="#000000"/><text fill="#000000" font-family="sans-serif" font-size="14" font-style="italic" lengthAdjust="spacing" textLength="26" x="233.65" y="942.3379">view</text><line style="stroke:#181818;stroke-width:0.5;" x1="193" x2="272" y1="952.6094" y2="952.6094"/><text fill="#000000" font-family="sans-serif" font-size="14" lengthAdjust="spacing" textLength="69" x="198" y="971.1426">title : string</text><line style="stroke:#181818;stroke-width:0.5;" x1="193" x2="272" y1="978.2188" y2="978.2188"/></g><!--class overarch_dataModel_systemLandscapeView--><g id="elem_overarch_dataModel_systemLandscapeView"><rect codeLine="45" fill="#F1F1F1" height="48" id="overarch_dataModel_systemLandscapeView" rx="2.5" ry="2.5" style="stroke:#181818;stroke-width:0.5;" width="178" x="630" y="211.6094"/><ellipse cx="645" cy="227.6094" fill="#ADD1B2" rx="11" ry="11" style="stroke:#181818;stroke-width:1.0;"/><path d="M647.7656,223.4844 Q647.9219,223.2656 648.1094,223.1563 Q648.2969,223.0469 648.5156,223.0469 Q648.8906,223.0469 649.125,223.3125 Q649.3594,223.5625 649.3594,224.1719 L649.3594,225.625 Q649.3594,226.2344 649.125,226.5 Q648.8906,226.7656 648.5156,226.7656 Q648.1719,226.7656 647.9688,226.5625 Q647.7656,226.375 647.6563,225.8594 Q647.6094,225.5 647.4219,225.3125 Q647.0938,224.9375 646.4844,224.7188 Q645.875,224.5 645.25,224.5 Q644.4844,224.5 643.8438,224.8281 Q643.2188,225.1563 642.7188,225.9063 Q642.2344,226.6563 642.2344,227.6875 L642.2344,228.7813 Q642.2344,230.0156 643.125,230.8438 Q644.0156,231.6563 645.6094,231.6563 Q646.5469,231.6563 647.2031,231.4063 Q647.5938,231.25 648.0156,230.8125 Q648.2813,230.5469 648.4219,230.4688 Q648.5781,230.3906 648.7813,230.3906 Q649.1094,230.3906 649.3594,230.6563 Q649.625,230.9063 649.625,231.25 Q649.625,231.5938 649.2813,232 Q648.7813,232.5781 647.9844,232.9063 Q646.9063,233.3594 645.6094,233.3594 Q644.0938,233.3594 642.8906,232.7344 Q641.9063,232.2344 641.2188,231.1719 Q640.5313,230.0938 640.5313,228.8125 L640.5313,227.6563 Q640.5313,226.3281 641.1406,225.1875 Q641.7656,224.0313 642.8594,223.4219 Q643.9531,222.7969 645.1875,222.7969 Q645.9219,222.7969 646.5625,222.9688 Q647.2188,223.125 647.7656,223.4844 Z " fill="#000000"/><text fill="#000000" font-family="sans-serif" font-size="14" lengthAdjust="spacing" textLength="146" x="659" y="233.3379">system-landscape-view</text><line style="stroke:#181818;stroke-width:0.5;" x1="631" x2="807" y1="243.6094" y2="243.6094"/><line style="stroke:#181818;stroke-width:0.5;" x1="631" x2="807" y1="251.6094" y2="251.6094"/></g><!--class overarch_dataModel_modelRelation--><g id="elem_overarch_dataModel_modelRelation"><rect codeLine="46" fill="#F1F1F1" height="83.2188" id="overarch_dataModel_modelRelation" rx="2.5" ry="2.5" style="stroke:#181818;stroke-width:0.5;" width="122" x="903" y="613.1094"/><ellipse cx="918" cy="629.1094" fill="#A9DCDF" rx="11" ry="11" style="stroke:#181818;stroke-width:1.0;"/><path d="M920.1875,630.875 L916.0469,630.875 L915.625,631.9063 L916.0469,631.9063 Q916.6563,631.9063 916.9219,632.1406 Q917.1875,632.375 917.1875,632.7656 Q917.1875,633.1406 916.9219,633.375 Q916.6563,633.6094 916.0469,633.6094 L913.75,633.6094 Q913.1406,633.6094 912.8906,633.375 Q912.625,633.1406 912.625,632.75 Q912.625,632.375 912.9063,632.1406 Q913.1719,631.8906 913.7969,631.9063 L916.4688,625.25 L915.3594,625.25 Q914.75,625.25 914.4844,625.0156 Q914.2188,624.7813 914.2188,624.3906 Q914.2188,624.0156 914.4844,623.7813 Q914.75,623.5469 915.3594,623.5469 L919.0313,623.5469 L922.4219,631.9063 Q923.0156,631.9063 923.2031,632.0469 Q923.5938,632.3125 923.5938,632.7656 Q923.5938,633.1406 923.3281,633.375 Q923.0781,633.6094 922.4688,633.6094 L920.1719,633.6094 Q919.5625,633.6094 919.2969,633.375 Q919.0313,633.1406 919.0313,632.75 Q919.0313,632.375 919.2969,632.1406 Q919.5625,631.9063 920.1719,631.9063 L920.5938,631.9063 L920.1875,630.875 Z M919.4688,629.1719 L918.1094,625.7969 L916.7344,629.1719 L919.4688,629.1719 Z " fill="#000000"/><text fill="#000000" font-family="sans-serif" font-size="14" font-style="italic" lengthAdjust="spacing" textLength="90" x="932" y="634.8379">model-relation</text><line style="stroke:#181818;stroke-width:0.5;" x1="904" x2="1024" y1="645.1094" y2="645.1094"/><text fill="#000000" font-family="sans-serif" font-size="14" lengthAdjust="spacing" textLength="92" x="909" y="663.6426">from : keyword</text><text fill="#000000" font-family="sans-serif" font-size="14" lengthAdjust="spacing" textLength="76" x="909" y="681.252">to : keyword</text><line style="stroke:#181818;stroke-width:0.5;" x1="904" x2="1024" y1="688.3281" y2="688.3281"/></g><!--class overarch_dataModel_stateMachineView--><g id="elem_overarch_dataModel_stateMachineView"><rect codeLine="50" fill="#F1F1F1" height="48" id="overarch_dataModel_stateMachineView" rx="2.5" ry="2.5" style="stroke:#181818;stroke-width:0.5;" width="153" x="357.5" y="680.6094"/><ellipse cx="372.5" cy="696.6094" fill="#ADD1B2" rx="11" ry="11" style="stroke:#181818;stroke-width:1.0;"/><path d="M375.2656,692.4844 Q375.4219,692.2656 375.6094,692.1563 Q375.7969,692.0469 376.0156,692.0469 Q376.3906,692.0469 376.625,692.3125 Q376.8594,692.5625 376.8594,693.1719 L376.8594,694.625 Q376.8594,695.2344 376.625,695.5 Q376.3906,695.7656 376.0156,695.7656 Q375.6719,695.7656 375.4688,695.5625 Q375.2656,695.375 375.1563,694.8594 Q375.1094,694.5 374.9219,694.3125 Q374.5938,693.9375 373.9844,693.7188 Q373.375,693.5 372.75,693.5 Q371.9844,693.5 371.3438,693.8281 Q370.7188,694.1563 370.2188,694.9063 Q369.7344,695.6563 369.7344,696.6875 L369.7344,697.7813 Q369.7344,699.0156 370.625,699.8438 Q371.5156,700.6563 373.1094,700.6563 Q374.0469,700.6563 374.7031,700.4063 Q375.0938,700.25 375.5156,699.8125 Q375.7813,699.5469 375.9219,699.4688 Q376.0781,699.3906 376.2813,699.3906 Q376.6094,699.3906 376.8594,699.6563 Q377.125,699.9063 377.125,700.25 Q377.125,700.5938 376.7813,701 Q376.2813,701.5781 375.4844,701.9063 Q374.4063,702.3594 373.1094,702.3594 Q371.5938,702.3594 370.3906,701.7344 Q369.4063,701.2344 368.7188,700.1719 Q368.0313,699.0938 368.0313,697.8125 L368.0313,696.6563 Q368.0313,695.3281 368.6406,694.1875 Q369.2656,693.0313 370.3594,692.4219 Q371.4531,691.7969 372.6875,691.7969 Q373.4219,691.7969 374.0625,691.9688 Q374.7188,692.125 375.2656,692.4844 Z " fill="#000000"/><text fill="#000000" font-family="sans-serif" font-size="14" lengthAdjust="spacing" textLength="121" x="386.5" y="702.3379">state-machine-view</text><line style="stroke:#181818;stroke-width:0.5;" x1="358.5" x2="509.5" y1="712.6094" y2="712.6094"/><line style="stroke:#181818;stroke-width:0.5;" x1="358.5" x2="509.5" y1="720.6094" y2="720.6094"/></g><!--class overarch_dataModel_organizationStructureView--><g id="elem_overarch_dataModel_organizationStructureView"><rect codeLine="51" fill="#F1F1F1" height="48" id="overarch_dataModel_organizationStructureView" rx="2.5" ry="2.5" style="stroke:#181818;stroke-width:0.5;" width="202" x="333" y="763.6094"/><ellipse cx="348" cy="779.6094" fill="#ADD1B2" rx="11" ry="11" style="stroke:#181818;stroke-width:1.0;"/><path d="M350.7656,775.4844 Q350.9219,775.2656 351.1094,775.1563 Q351.2969,775.0469 351.5156,775.0469 Q351.8906,775.0469 352.125,775.3125 Q352.3594,775.5625 352.3594,776.1719 L352.3594,777.625 Q352.3594,778.2344 352.125,778.5 Q351.8906,778.7656 351.5156,778.7656 Q351.1719,778.7656 350.9688,778.5625 Q350.7656,778.375 350.6563,777.8594 Q350.6094,777.5 350.4219,777.3125 Q350.0938,776.9375 349.4844,776.7188 Q348.875,776.5 348.25,776.5 Q347.4844,776.5 346.8438,776.8281 Q346.2188,777.1563 345.7188,777.9063 Q345.2344,778.6563 345.2344,779.6875 L345.2344,780.7813 Q345.2344,782.0156 346.125,782.8438 Q347.0156,783.6563 348.6094,783.6563 Q349.5469,783.6563 350.2031,783.4063 Q350.5938,783.25 351.0156,782.8125 Q351.2813,782.5469 351.4219,782.4688 Q351.5781,782.3906 351.7813,782.3906 Q352.1094,782.3906 352.3594,782.6563 Q352.625,782.9063 352.625,783.25 Q352.625,783.5938 352.2813,784 Q351.7813,784.5781 350.9844,784.9063 Q349.9063,785.3594 348.6094,785.3594 Q347.0938,785.3594 345.8906,784.7344 Q344.9063,784.2344 344.2188,783.1719 Q343.5313,782.0938 343.5313,780.8125 L343.5313,779.6563 Q343.5313,778.3281 344.1406,777.1875 Q344.7656,776.0313 345.8594,775.4219 Q346.9531,774.7969 348.1875,774.7969 Q348.9219,774.7969 349.5625,774.9688 Q350.2188,775.125 350.7656,775.4844 Z " fill="#000000"/><text fill="#000000" font-family="sans-serif" font-size="14" lengthAdjust="spacing" textLength="170" x="362" y="785.3379">organization-structure-view</text><line style="stroke:#181818;stroke-width:0.5;" x1="334" x2="534" y1="795.6094" y2="795.6094"/><line style="stroke:#181818;stroke-width:0.5;" x1="334" x2="534" y1="803.6094" y2="803.6094"/></g><!--class overarch_dataModel_deploymentModelElement--><g id="elem_overarch_dataModel_deploymentModelElement"><rect codeLine="52" fill="#F1F1F1" height="48" id="overarch_dataModel_deploymentModelElement" rx="2.5" ry="2.5" style="stroke:#181818;stroke-width:0.5;" width="203" x="617.5" y="1551.6094"/><ellipse cx="632.5" cy="1567.6094" fill="#A9DCDF" rx="11" ry="11" style="stroke:#181818;stroke-width:1.0;"/><path d="M634.6875,1569.375 L630.5469,1569.375 L630.125,1570.4063 L630.5469,1570.4063 Q631.1563,1570.4063 631.4219,1570.6406 Q631.6875,1570.875 631.6875,1571.2656 Q631.6875,1571.6406 631.4219,1571.875 Q631.1563,1572.1094 630.5469,1572.1094 L628.25,1572.1094 Q627.6406,1572.1094 627.3906,1571.875 Q627.125,1571.6406 627.125,1571.25 Q627.125,1570.875 627.4063,1570.6406 Q627.6719,1570.3906 628.2969,1570.4063 L630.9688,1563.75 L629.8594,1563.75 Q629.25,1563.75 628.9844,1563.5156 Q628.7188,1563.2813 628.7188,1562.8906 Q628.7188,1562.5156 628.9844,1562.2813 Q629.25,1562.0469 629.8594,1562.0469 L633.5313,1562.0469 L636.9219,1570.4063 Q637.5156,1570.4063 637.7031,1570.5469 Q638.0938,1570.8125 638.0938,1571.2656 Q638.0938,1571.6406 637.8281,1571.875 Q637.5781,1572.1094 636.9688,1572.1094 L634.6719,1572.1094 Q634.0625,1572.1094 633.7969,1571.875 Q633.5313,1571.6406 633.5313,1571.25 Q633.5313,1570.875 633.7969,1570.6406 Q634.0625,1570.4063 634.6719,1570.4063 L635.0938,1570.4063 L634.6875,1569.375 Z M633.9688,1567.6719 L632.6094,1564.2969 L631.2344,1567.6719 L633.9688,1567.6719 Z " fill="#000000"/><text fill="#000000" font-family="sans-serif" font-size="14" font-style="italic" lengthAdjust="spacing" textLength="171" x="646.5" y="1573.3379">deployment-model-element</text><line style="stroke:#181818;stroke-width:0.5;" x1="618.5" x2="819.5" y1="1583.6094" y2="1583.6094"/><line style="stroke:#181818;stroke-width:0.5;" x1="618.5" x2="819.5" y1="1591.6094" y2="1591.6094"/></g><!--class overarch_dataModel_architectureModelElement--><g id="elem_overarch_dataModel_architectureModelElement"><rect codeLine="53" fill="#F1F1F1" height="65.6094" id="overarch_dataModel_architectureModelElement" rx="2.5" ry="2.5" style="stroke:#181818;stroke-width:0.5;" width="205" x="616.5" y="294.6094"/><ellipse cx="631.5" cy="310.6094" fill="#A9DCDF" rx="11" ry="11" style="stroke:#181818;stroke-width:1.0;"/><path d="M633.6875,312.375 L629.5469,312.375 L629.125,313.4063 L629.5469,313.4063 Q630.1563,313.4063 630.4219,313.6406 Q630.6875,313.875 630.6875,314.2656 Q630.6875,314.6406 630.4219,314.875 Q630.1563,315.1094 629.5469,315.1094 L627.25,315.1094 Q626.6406,315.1094 626.3906,314.875 Q626.125,314.6406 626.125,314.25 Q626.125,313.875 626.4063,313.6406 Q626.6719,313.3906 627.2969,313.4063 L629.9688,306.75 L628.8594,306.75 Q628.25,306.75 627.9844,306.5156 Q627.7188,306.2813 627.7188,305.8906 Q627.7188,305.5156 627.9844,305.2813 Q628.25,305.0469 628.8594,305.0469 L632.5313,305.0469 L635.9219,313.4063 Q636.5156,313.4063 636.7031,313.5469 Q637.0938,313.8125 637.0938,314.2656 Q637.0938,314.6406 636.8281,314.875 Q636.5781,315.1094 635.9688,315.1094 L633.6719,315.1094 Q633.0625,315.1094 632.7969,314.875 Q632.5313,314.6406 632.5313,314.25 Q632.5313,313.875 632.7969,313.6406 Q633.0625,313.4063 633.6719,313.4063 L634.0938,313.4063 L633.6875,312.375 Z M632.9688,310.6719 L631.6094,307.2969 L630.2344,310.6719 L632.9688,310.6719 Z " fill="#000000"/><text fill="#000000" font-family="sans-serif" font-size="14" font-style="italic" lengthAdjust="spacing" textLength="173" x="645.5" y="316.3379">architecture-model-element</text><line style="stroke:#181818;stroke-width:0.5;" x1="617.5" x2="820.5" y1="326.6094" y2="326.6094"/><text fill="#000000" font-family="sans-serif" font-size="14" lengthAdjust="spacing" textLength="149" x="622.5" y="345.1426">external : boolean [0..1]</text><line style="stroke:#181818;stroke-width:0.5;" x1="617.5" x2="820.5" y1="352.2188" y2="352.2188"/></g><!--class overarch_dataModel_modelElement--><g id="elem_overarch_dataModel_modelElement"><rect codeLine="56" fill="#F1F1F1" height="83.2188" id="overarch_dataModel_modelElement" rx="2.5" ry="2.5" style="stroke:#181818;stroke-width:0.5;" width="162" x="638" y="562.1094"/><ellipse cx="669.65" cy="578.1094" fill="#A9DCDF" rx="11" ry="11" style="stroke:#181818;stroke-width:1.0;"/><path d="M671.8375,579.875 L667.6969,579.875 L667.275,580.9063 L667.6969,580.9063 Q668.3063,580.9063 668.5719,581.1406 Q668.8375,581.375 668.8375,581.7656 Q668.8375,582.1406 668.5719,582.375 Q668.3063,582.6094 667.6969,582.6094 L665.4,582.6094 Q664.7906,582.6094 664.5406,582.375 Q664.275,582.1406 664.275,581.75 Q664.275,581.375 664.5563,581.1406 Q664.8219,580.8906 665.4469,580.9063 L668.1188,574.25 L667.0094,574.25 Q666.4,574.25 666.1344,574.0156 Q665.8688,573.7813 665.8688,573.3906 Q665.8688,573.0156 666.1344,572.7813 Q666.4,572.5469 667.0094,572.5469 L670.6813,572.5469 L674.0719,580.9063 Q674.6656,580.9063 674.8531,581.0469 Q675.2438,581.3125 675.2438,581.7656 Q675.2438,582.1406 674.9781,582.375 Q674.7281,582.6094 674.1188,582.6094 L671.8219,582.6094 Q671.2125,582.6094 670.9469,582.375 Q670.6813,582.1406 670.6813,581.75 Q670.6813,581.375 670.9469,581.1406 Q671.2125,580.9063 671.8219,580.9063 L672.2438,580.9063 L671.8375,579.875 Z M671.1188,578.1719 L669.7594,574.7969 L668.3844,578.1719 L671.1188,578.1719 Z " fill="#000000"/><text fill="#000000" font-family="sans-serif" font-size="14" font-style="italic" lengthAdjust="spacing" textLength="93" x="687.35" y="583.8379">model-element</text><line style="stroke:#181818;stroke-width:0.5;" x1="639" x2="799" y1="594.1094" y2="594.1094"/><text fill="#000000" font-family="sans-serif" font-size="14" lengthAdjust="spacing" textLength="150" x="644" y="612.6426">maturity : keyword [0..1]</text><text fill="#000000" font-family="sans-serif" font-size="14" lengthAdjust="spacing" textLength="94" x="644" y="630.252">tags : set [0..1]</text><line style="stroke:#181818;stroke-width:0.5;" x1="639" x2="799" y1="637.3281" y2="637.3281"/></g><!--class overarch_dataModel_architectureView--><g id="elem_overarch_dataModel_architectureView"><rect codeLine="60" fill="#F1F1F1" height="48" id="overarch_dataModel_architectureView" rx="2.5" ry="2.5" style="stroke:#181818;stroke-width:0.5;" width="138" x="365" y="303.6094"/><ellipse cx="380" cy="319.6094" fill="#A9DCDF" rx="11" ry="11" style="stroke:#181818;stroke-width:1.0;"/><path d="M382.1875,321.375 L378.0469,321.375 L377.625,322.4063 L378.0469,322.4063 Q378.6563,322.4063 378.9219,322.6406 Q379.1875,322.875 379.1875,323.2656 Q379.1875,323.6406 378.9219,323.875 Q378.6563,324.1094 378.0469,324.1094 L375.75,324.1094 Q375.1406,324.1094 374.8906,323.875 Q374.625,323.6406 374.625,323.25 Q374.625,322.875 374.9063,322.6406 Q375.1719,322.3906 375.7969,322.4063 L378.4688,315.75 L377.3594,315.75 Q376.75,315.75 376.4844,315.5156 Q376.2188,315.2813 376.2188,314.8906 Q376.2188,314.5156 376.4844,314.2813 Q376.75,314.0469 377.3594,314.0469 L381.0313,314.0469 L384.4219,322.4063 Q385.0156,322.4063 385.2031,322.5469 Q385.5938,322.8125 385.5938,323.2656 Q385.5938,323.6406 385.3281,323.875 Q385.0781,324.1094 384.4688,324.1094 L382.1719,324.1094 Q381.5625,324.1094 381.2969,323.875 Q381.0313,323.6406 381.0313,323.25 Q381.0313,322.875 381.2969,322.6406 Q381.5625,322.4063 382.1719,322.4063 L382.5938,322.4063 L382.1875,321.375 Z M381.4688,319.6719 L380.1094,316.2969 L378.7344,319.6719 L381.4688,319.6719 Z " fill="#000000"/><text fill="#000000" font-family="sans-serif" font-size="14" font-style="italic" lengthAdjust="spacing" textLength="106" x="394" y="325.3379">architecture-view</text><line style="stroke:#181818;stroke-width:0.5;" x1="366" x2="502" y1="335.6094" y2="335.6094"/><line style="stroke:#181818;stroke-width:0.5;" x1="366" x2="502" y1="343.6094" y2="343.6094"/></g><!--class overarch_dataModel_useCaseModelElement--><g id="elem_overarch_dataModel_useCaseModelElement"><rect codeLine="61" fill="#F1F1F1" height="48" id="overarch_dataModel_useCaseModelElement" rx="2.5" ry="2.5" style="stroke:#181818;stroke-width:0.5;" width="188" x="625" y="1468.6094"/><ellipse cx="640" cy="1484.6094" fill="#A9DCDF" rx="11" ry="11" style="stroke:#181818;stroke-width:1.0;"/><path d="M642.1875,1486.375 L638.0469,1486.375 L637.625,1487.4063 L638.0469,1487.4063 Q638.6563,1487.4063 638.9219,1487.6406 Q639.1875,1487.875 639.1875,1488.2656 Q639.1875,1488.6406 638.9219,1488.875 Q638.6563,1489.1094 638.0469,1489.1094 L635.75,1489.1094 Q635.1406,1489.1094 634.8906,1488.875 Q634.625,1488.6406 634.625,1488.25 Q634.625,1487.875 634.9063,1487.6406 Q635.1719,1487.3906 635.7969,1487.4063 L638.4688,1480.75 L637.3594,1480.75 Q636.75,1480.75 636.4844,1480.5156 Q636.2188,1480.2813 636.2188,1479.8906 Q636.2188,1479.5156 636.4844,1479.2813 Q636.75,1479.0469 637.3594,1479.0469 L641.0313,1479.0469 L644.4219,1487.4063 Q645.0156,1487.4063 645.2031,1487.5469 Q645.5938,1487.8125 645.5938,1488.2656 Q645.5938,1488.6406 645.3281,1488.875 Q645.0781,1489.1094 644.4688,1489.1094 L642.1719,1489.1094 Q641.5625,1489.1094 641.2969,1488.875 Q641.0313,1488.6406 641.0313,1488.25 Q641.0313,1487.875 641.2969,1487.6406 Q641.5625,1487.4063 642.1719,1487.4063 L642.5938,1487.4063 L642.1875,1486.375 Z M641.4688,1484.6719 L640.1094,1481.2969 L638.7344,1484.6719 L641.4688,1484.6719 Z " fill="#000000"/><text fill="#000000" font-family="sans-serif" font-size="14" font-style="italic" lengthAdjust="spacing" textLength="156" x="654" y="1490.3379">use-case-model-element</text><line style="stroke:#181818;stroke-width:0.5;" x1="626" x2="812" y1="1500.6094" y2="1500.6094"/><line style="stroke:#181818;stroke-width:0.5;" x1="626" x2="812" y1="1508.6094" y2="1508.6094"/></g><!--class overarch_dataModel_componentView--><g id="elem_overarch_dataModel_componentView"><rect codeLine="62" fill="#F1F1F1" height="48" id="overarch_dataModel_componentView" rx="2.5" ry="2.5" style="stroke:#181818;stroke-width:0.5;" width="134" x="652" y="395.6094"/><ellipse cx="667" cy="411.6094" fill="#ADD1B2" rx="11" ry="11" style="stroke:#181818;stroke-width:1.0;"/><path d="M669.7656,407.4844 Q669.9219,407.2656 670.1094,407.1563 Q670.2969,407.0469 670.5156,407.0469 Q670.8906,407.0469 671.125,407.3125 Q671.3594,407.5625 671.3594,408.1719 L671.3594,409.625 Q671.3594,410.2344 671.125,410.5 Q670.8906,410.7656 670.5156,410.7656 Q670.1719,410.7656 669.9688,410.5625 Q669.7656,410.375 669.6563,409.8594 Q669.6094,409.5 669.4219,409.3125 Q669.0938,408.9375 668.4844,408.7188 Q667.875,408.5 667.25,408.5 Q666.4844,408.5 665.8438,408.8281 Q665.2188,409.1563 664.7188,409.9063 Q664.2344,410.6563 664.2344,411.6875 L664.2344,412.7813 Q664.2344,414.0156 665.125,414.8438 Q666.0156,415.6563 667.6094,415.6563 Q668.5469,415.6563 669.2031,415.4063 Q669.5938,415.25 670.0156,414.8125 Q670.2813,414.5469 670.4219,414.4688 Q670.5781,414.3906 670.7813,414.3906 Q671.1094,414.3906 671.3594,414.6563 Q671.625,414.9063 671.625,415.25 Q671.625,415.5938 671.2813,416 Q670.7813,416.5781 669.9844,416.9063 Q668.9063,417.3594 667.6094,417.3594 Q666.0938,417.3594 664.8906,416.7344 Q663.9063,416.2344 663.2188,415.1719 Q662.5313,414.0938 662.5313,412.8125 L662.5313,411.6563 Q662.5313,410.3281 663.1406,409.1875 Q663.7656,408.0313 664.8594,407.4219 Q665.9531,406.7969 667.1875,406.7969 Q667.9219,406.7969 668.5625,406.9688 Q669.2188,407.125 669.7656,407.4844 Z " fill="#000000"/><text fill="#000000" font-family="sans-serif" font-size="14" lengthAdjust="spacing" textLength="102" x="681" y="417.3379">component-view</text><line style="stroke:#181818;stroke-width:0.5;" x1="653" x2="785" y1="427.6094" y2="427.6094"/><line style="stroke:#181818;stroke-width:0.5;" x1="653" x2="785" y1="435.6094" y2="435.6094"/></g><!--class overarch_dataModel_codeView--><g id="elem_overarch_dataModel_codeView"><rect codeLine="63" fill="#F1F1F1" height="48" id="overarch_dataModel_codeView" rx="2.5" ry="2.5" style="stroke:#181818;stroke-width:0.5;" width="95" x="386.5" y="1012.6094"/><ellipse cx="401.5" cy="1028.6094" fill="#ADD1B2" rx="11" ry="11" style="stroke:#181818;stroke-width:1.0;"/><path d="M404.2656,1024.4844 Q404.4219,1024.2656 404.6094,1024.1563 Q404.7969,1024.0469 405.0156,1024.0469 Q405.3906,1024.0469 405.625,1024.3125 Q405.8594,1024.5625 405.8594,1025.1719 L405.8594,1026.625 Q405.8594,1027.2344 405.625,1027.5 Q405.3906,1027.7656 405.0156,1027.7656 Q404.6719,1027.7656 404.4688,1027.5625 Q404.2656,1027.375 404.1563,1026.8594 Q404.1094,1026.5 403.9219,1026.3125 Q403.5938,1025.9375 402.9844,1025.7188 Q402.375,1025.5 401.75,1025.5 Q400.9844,1025.5 400.3438,1025.8281 Q399.7188,1026.1563 399.2188,1026.9063 Q398.7344,1027.6563 398.7344,1028.6875 L398.7344,1029.7813 Q398.7344,1031.0156 399.625,1031.8438 Q400.5156,1032.6563 402.1094,1032.6563 Q403.0469,1032.6563 403.7031,1032.4063 Q404.0938,1032.25 404.5156,1031.8125 Q404.7813,1031.5469 404.9219,1031.4688 Q405.0781,1031.3906 405.2813,1031.3906 Q405.6094,1031.3906 405.8594,1031.6563 Q406.125,1031.9063 406.125,1032.25 Q406.125,1032.5938 405.7813,1033 Q405.2813,1033.5781 404.4844,1033.9063 Q403.4063,1034.3594 402.1094,1034.3594 Q400.5938,1034.3594 399.3906,1033.7344 Q398.4063,1033.2344 397.7188,1032.1719 Q397.0313,1031.0938 397.0313,1029.8125 L397.0313,1028.6563 Q397.0313,1027.3281 397.6406,1026.1875 Q398.2656,1025.0313 399.3594,1024.4219 Q400.4531,1023.7969 401.6875,1023.7969 Q402.4219,1023.7969 403.0625,1023.9688 Q403.7188,1024.125 404.2656,1024.4844 Z " fill="#000000"/><text fill="#000000" font-family="sans-serif" font-size="14" lengthAdjust="spacing" textLength="63" x="415.5" y="1034.3379">code-view</text><line style="stroke:#181818;stroke-width:0.5;" x1="387.5" x2="480.5" y1="1044.6094" y2="1044.6094"/><line style="stroke:#181818;stroke-width:0.5;" x1="387.5" x2="480.5" y1="1052.6094" y2="1052.6094"/></g><!--class overarch_dataModel_codeModelElement--><g id="elem_overarch_dataModel_codeModelElement"><rect codeLine="64" fill="#F1F1F1" height="48" id="overarch_dataModel_codeModelElement" rx="2.5" ry="2.5" style="stroke:#181818;stroke-width:0.5;" width="161" x="638.5" y="1012.6094"/><ellipse cx="653.5" cy="1028.6094" fill="#A9DCDF" rx="11" ry="11" style="stroke:#181818;stroke-width:1.0;"/><path d="M655.6875,1030.375 L651.5469,1030.375 L651.125,1031.4063 L651.5469,1031.4063 Q652.1563,1031.4063 652.4219,1031.6406 Q652.6875,1031.875 652.6875,1032.2656 Q652.6875,1032.6406 652.4219,1032.875 Q652.1563,1033.1094 651.5469,1033.1094 L649.25,1033.1094 Q648.6406,1033.1094 648.3906,1032.875 Q648.125,1032.6406 648.125,1032.25 Q648.125,1031.875 648.4063,1031.6406 Q648.6719,1031.3906 649.2969,1031.4063 L651.9688,1024.75 L650.8594,1024.75 Q650.25,1024.75 649.9844,1024.5156 Q649.7188,1024.2813 649.7188,1023.8906 Q649.7188,1023.5156 649.9844,1023.2813 Q650.25,1023.0469 650.8594,1023.0469 L654.5313,1023.0469 L657.9219,1031.4063 Q658.5156,1031.4063 658.7031,1031.5469 Q659.0938,1031.8125 659.0938,1032.2656 Q659.0938,1032.6406 658.8281,1032.875 Q658.5781,1033.1094 657.9688,1033.1094 L655.6719,1033.1094 Q655.0625,1033.1094 654.7969,1032.875 Q654.5313,1032.6406 654.5313,1032.25 Q654.5313,1031.875 654.7969,1031.6406 Q655.0625,1031.4063 655.6719,1031.4063 L656.0938,1031.4063 L655.6875,1030.375 Z M654.9688,1028.6719 L653.6094,1025.2969 L652.2344,1028.6719 L654.9688,1028.6719 Z " fill="#000000"/><text fill="#000000" font-family="sans-serif" font-size="14" font-style="italic" lengthAdjust="spacing" textLength="129" x="667.5" y="1034.3379">code-model-element</text><line style="stroke:#181818;stroke-width:0.5;" x1="639.5" x2="798.5" y1="1044.6094" y2="1044.6094"/><line style="stroke:#181818;stroke-width:0.5;" x1="639.5" x2="798.5" y1="1052.6094" y2="1052.6094"/></g><!--class overarch_dataModel_organizationModelNode--><g id="elem_overarch_dataModel_organizationModelNode"><rect codeLine="65" fill="#F1F1F1" height="48" id="overarch_dataModel_organizationModelNode" rx="2.5" ry="2.5" style="stroke:#181818;stroke-width:0.5;" width="190" x="624" y="763.6094"/><ellipse cx="639" cy="779.6094" fill="#A9DCDF" rx="11" ry="11" style="stroke:#181818;stroke-width:1.0;"/><path d="M641.1875,781.375 L637.0469,781.375 L636.625,782.4063 L637.0469,782.4063 Q637.6563,782.4063 637.9219,782.6406 Q638.1875,782.875 638.1875,783.2656 Q638.1875,783.6406 637.9219,783.875 Q637.6563,784.1094 637.0469,784.1094 L634.75,784.1094 Q634.1406,784.1094 633.8906,783.875 Q633.625,783.6406 633.625,783.25 Q633.625,782.875 633.9063,782.6406 Q634.1719,782.3906 634.7969,782.4063 L637.4688,775.75 L636.3594,775.75 Q635.75,775.75 635.4844,775.5156 Q635.2188,775.2813 635.2188,774.8906 Q635.2188,774.5156 635.4844,774.2813 Q635.75,774.0469 636.3594,774.0469 L640.0313,774.0469 L643.4219,782.4063 Q644.0156,782.4063 644.2031,782.5469 Q644.5938,782.8125 644.5938,783.2656 Q644.5938,783.6406 644.3281,783.875 Q644.0781,784.1094 643.4688,784.1094 L641.1719,784.1094 Q640.5625,784.1094 640.2969,783.875 Q640.0313,783.6406 640.0313,783.25 Q640.0313,782.875 640.2969,782.6406 Q640.5625,782.4063 641.1719,782.4063 L641.5938,782.4063 L641.1875,781.375 Z M640.4688,779.6719 L639.1094,776.2969 L637.7344,779.6719 L640.4688,779.6719 Z " fill="#000000"/><text fill="#000000" font-family="sans-serif" font-size="14" font-style="italic" lengthAdjust="spacing" textLength="158" x="653" y="785.3379">organization-model-node</text><line style="stroke:#181818;stroke-width:0.5;" x1="625" x2="813" y1="795.6094" y2="795.6094"/><line style="stroke:#181818;stroke-width:0.5;" x1="625" x2="813" y1="803.6094" y2="803.6094"/></g><!--link overarch_dataModel_codeView to overarch_dataModel_codeModelElement--><g id="link_overarch_dataModel_codeView_overarch_dataModel_codeModelElement"><path codeLine="66" d="M493.73,1036.6094 C536.2,1036.6094 581.74,1036.6094 632.24,1036.6094 " fill="none" id="overarch_dataModel_codeView-overarch_dataModel_codeModelElement" style="stroke:#181818;stroke-width:1.0;"/><polygon fill="none" points="481.73,1036.6094,487.73,1040.6094,493.73,1036.6094,487.73,1032.6094,481.73,1036.6094" style="stroke:#181818;stroke-width:1.0;"/><polygon fill="#181818" points="638.24,1036.6094,629.24,1032.6094,633.24,1036.6094,629.24,1040.6094,638.24,1036.6094" style="stroke:#181818;stroke-width:1.0;"/><text fill="#000000" font-family="sans-serif" font-size="13" lengthAdjust="spacing" textLength="22" x="608.6411" y="1050.7815">1..n</text></g><!--reverse link overarch_dataModel_architectureView to overarch_dataModel_dynamicView--><g id="link_overarch_dataModel_architectureView_overarch_dataModel_dynamicView"><path codeLine="67" d="M470.7273,290.5711 C500.0473,260.9711 540.75,223.9194 595,193.6094 C615.34,182.2494 639.34,173.3694 660.71,166.8294 " fill="none" id="overarch_dataModel_architectureView-backto-overarch_dataModel_dynamicView" style="stroke:#181818;stroke-width:1.0;"/><polygon fill="none" points="458.06,303.3594,474.99,294.7935,466.4645,286.3487,458.06,303.3594" style="stroke:#181818;stroke-width:1.0;"/></g><!--reverse link overarch_dataModel_element to overarch_dataModel_modelElement--><g id="link_overarch_dataModel_element_overarch_dataModel_modelElement"><path codeLine="68" d="M146.2179,683.8879 C196.3979,643.4679 257.08,602.9394 333,580.6094 C434.98,550.6194 558.53,566.6694 637.68,583.1894 " fill="none" id="overarch_dataModel_element-backto-overarch_dataModel_modelElement" style="stroke:#181818;stroke-width:1.0;"/><polygon fill="none" points="132.2,695.1794,149.9818,688.5606,142.4541,679.2153,132.2,695.1794" style="stroke:#181818;stroke-width:1.0;"/></g><!--reverse link overarch_dataModel_view to overarch_dataModel_systemStructureView--><g id="link_overarch_dataModel_view_overarch_dataModel_systemStructureView"><path codeLine="69" d="M239.908,1004.7495 C251.298,1092.4595 283.45,1309.3194 333,1367.6094 C338.98,1374.6394 346.33,1380.5194 354.31,1385.4294 " fill="none" id="overarch_dataModel_view-backto-overarch_dataModel_systemStructureView" style="stroke:#181818;stroke-width:1.0;"/><polygon fill="none" points="237.59,986.8994,233.958,1005.5222,245.8581,1003.9768,237.59,986.8994" style="stroke:#181818;stroke-width:1.0;"/></g><!--reverse link overarch_dataModel_architectureView to overarch_dataModel_systemLandscapeView--><g id="link_overarch_dataModel_architectureView_overarch_dataModel_systemLandscapeView"><path codeLine="70" d="M520.2673,299.8918 C562.7873,286.0618 600.41,273.8394 643.99,259.6694 " fill="none" id="overarch_dataModel_architectureView-backto-overarch_dataModel_systemLandscapeView" style="stroke:#181818;stroke-width:1.0;"/><polygon fill="none" points="503.15,305.4594,522.1232,305.5976,518.4115,294.1861,503.15,305.4594" style="stroke:#181818;stroke-width:1.0;"/></g><!--reverse link overarch_dataModel_modelElement to overarch_dataModel_modelNode--><g id="link_overarch_dataModel_modelElement_overarch_dataModel_modelNode"><path codeLine="71" d="M817.8709,583.4729 C854.0909,576.0229 878.23,571.0494 910.39,564.4394 " fill="none" id="overarch_dataModel_modelElement-backto-overarch_dataModel_modelNode" style="stroke:#181818;stroke-width:1.0;"/><polygon fill="none" points="800.24,587.0994,819.0797,589.3499,816.6621,577.596,800.24,587.0994" style="stroke:#181818;stroke-width:1.0;"/></g><!--reverse link overarch_dataModel_view to overarch_dataModel_organizationStructureView--><g id="link_overarch_dataModel_view_overarch_dataModel_organizationStructureView"><path codeLine="72" d="M263.202,905.4518 C281.102,878.0018 299.83,854.6194 333,829.6094 C342.1,822.7494 352.48,816.7894 363.03,811.6794 " fill="none" id="overarch_dataModel_view-backto-overarch_dataModel_organizationStructureView" style="stroke:#181818;stroke-width:1.0;"/><polygon fill="none" points="253.37,920.5294,268.2278,908.7292,258.1761,902.1745,253.37,920.5294" style="stroke:#181818;stroke-width:1.0;"/></g><!--reverse link overarch_dataModel_element to overarch_dataModel_view--><g id="link_overarch_dataModel_element_overarch_dataModel_view"><path codeLine="73" d="M135.4829,831.9478 C162.7329,866.4678 183.41,892.6794 205.26,920.3594 " fill="none" id="overarch_dataModel_element-backto-overarch_dataModel_view" style="stroke:#181818;stroke-width:1.0;"/><polygon fill="none" points="124.33,817.8194,130.7735,835.6654,140.1924,828.2301,124.33,817.8194" style="stroke:#181818;stroke-width:1.0;"/></g><!--reverse link overarch_dataModel_view to overarch_dataModel_stateMachineView--><g id="link_overarch_dataModel_view_overarch_dataModel_stateMachineView"><path codeLine="74" d="M246.2567,903.1775 C258.6567,858.2275 281.85,795.2394 333,746.6094 C340.37,739.5994 349.08,733.6794 358.24,728.6994 " fill="none" id="overarch_dataModel_view-backto-overarch_dataModel_stateMachineView" style="stroke:#181818;stroke-width:1.0;"/><polygon fill="none" points="241.47,920.5294,252.0407,904.7731,240.4728,901.5819,241.47,920.5294" style="stroke:#181818;stroke-width:1.0;"/></g><!--reverse link overarch_dataModel_view to overarch_dataModel_deploymentView--><g id="link_overarch_dataModel_view_overarch_dataModel_deploymentView"><path codeLine="75" d="M235.9749,1004.9151 C241.7149,1115.2851 264.2,1448.7694 333,1534.6094 C341.45,1545.1494 353.06,1553.0094 365.38,1558.8494 " fill="none" id="overarch_dataModel_view-backto-overarch_dataModel_deploymentView" style="stroke:#181818;stroke-width:1.0;"/><polygon fill="none" points="235.04,986.9394,229.983,1005.2267,241.9668,1004.6035,235.04,986.9394" style="stroke:#181818;stroke-width:1.0;"/></g><!--link overarch_dataModel_conceptView to overarch_dataModel_conceptModelElement--><g id="link_overarch_dataModel_conceptView_overarch_dataModel_conceptModelElement"><path codeLine="76" d="M503.1259,943.7382 C542.4559,938.0382 577.9818,932.8884 623.0518,926.3684 " fill="none" id="overarch_dataModel_conceptView-overarch_dataModel_conceptModelElement" style="stroke:#181818;stroke-width:1.0;"/><polygon fill="none" points="491.25,945.4594,497.7617,948.5574,503.1259,943.7382,496.6142,940.6402,491.25,945.4594" style="stroke:#181818;stroke-width:1.0;"/><polygon fill="#181818" points="628.99,925.5094,619.51,922.8391,624.0415,926.2252,620.6554,930.7567,628.99,925.5094" style="stroke:#181818;stroke-width:1.0;"/><text fill="#000000" font-family="sans-serif" font-size="13" lengthAdjust="spacing" textLength="22" x="598.9408" y="940.684">1..n</text></g><!--reverse link overarch_dataModel_architectureView to overarch_dataModel_containerView--><g id="link_overarch_dataModel_architectureView_overarch_dataModel_containerView"><path codeLine="77" d="M471.1439,364.5713 C500.5939,393.9013 541.13,430.3894 595,460.6094 C614.29,471.4294 636.83,480.1194 657.31,486.7294 " fill="none" id="overarch_dataModel_architectureView-backto-overarch_dataModel_containerView" style="stroke:#181818;stroke-width:1.0;"/><polygon fill="none" points="458.39,351.8694,466.9099,368.8226,475.3779,360.32,458.39,351.8694" style="stroke:#181818;stroke-width:1.0;"/></g><!--reverse link overarch_dataModel_architectureView to overarch_dataModel_componentView--><g id="link_overarch_dataModel_architectureView_overarch_dataModel_componentView"><path codeLine="78" d="M520.2676,355.3262 C565.4076,370.0062 607.19,383.5894 651.91,398.1194 " fill="none" id="overarch_dataModel_architectureView-backto-overarch_dataModel_componentView" style="stroke:#181818;stroke-width:1.0;"/><polygon fill="none" points="503.15,349.7594,518.412,361.032,522.1232,349.6203,503.15,349.7594" style="stroke:#181818;stroke-width:1.0;"/></g><!--reverse link overarch_dataModel_view to overarch_dataModel_codeView--><g id="link_overarch_dataModel_view_overarch_dataModel_codeView"><path codeLine="79" d="M289.7355,977.4773 C307.9455,985.1873 313.26,987.3994 333,995.6094 C350.41,1002.8494 369.56,1010.7294 386.41,1017.6194 " fill="none" id="overarch_dataModel_view-backto-overarch_dataModel_codeView" style="stroke:#181818;stroke-width:1.0;"/><polygon fill="none" points="273.16,970.4594,287.3962,983.0025,292.0749,971.9522,273.16,970.4594" style="stroke:#181818;stroke-width:1.0;"/></g><!--link overarch_dataModel_architectureView to overarch_dataModel_architectureModelElement--><g id="link_overarch_dataModel_architectureView_overarch_dataModel_architectureModelElement"><path codeLine="80" d="M515.15,327.6094 C549.08,327.6094 572.8,327.6094 610.42,327.6094 " fill="none" id="overarch_dataModel_architectureView-overarch_dataModel_architectureModelElement" style="stroke:#181818;stroke-width:1.0;"/><polygon fill="none" points="503.15,327.6094,509.15,331.6094,515.15,327.6094,509.15,323.6094,503.15,327.6094" style="stroke:#181818;stroke-width:1.0;"/><polygon fill="#181818" points="616.42,327.6094,607.42,323.6094,611.42,327.6094,607.42,331.6094,616.42,327.6094" style="stroke:#181818;stroke-width:1.0;"/><text fill="#000000" font-family="sans-serif" font-size="13" lengthAdjust="spacing" textLength="22" x="586.4339" y="341.6931">1..n</text></g><!--reverse link overarch_dataModel_modelElement to overarch_dataModel_modelRelation--><g id="link_overarch_dataModel_modelElement_overarch_dataModel_modelRelation"><path codeLine="81" d="M817.8565,624.1454 C851.3165,631.1654 871.89,635.4894 902.86,641.9894 " fill="none" id="overarch_dataModel_modelElement-backto-overarch_dataModel_modelRelation" style="stroke:#181818;stroke-width:1.0;"/><polygon fill="none" points="800.24,620.4494,816.6245,630.0175,819.0885,618.2732,800.24,620.4494" style="stroke:#181818;stroke-width:1.0;"/></g><!--link overarch_dataModel_organizationStructureView to overarch_dataModel_organizationModelNode--><g id="link_overarch_dataModel_organizationStructureView_overarch_dataModel_organizationModelNode"><path codeLine="82" d="M547.17,787.6094 C575.95,787.6094 589.23,787.6094 617.65,787.6094 " fill="none" id="overarch_dataModel_organizationStructureView-overarch_dataModel_organizationModelNode" style="stroke:#181818;stroke-width:1.0;"/><polygon fill="none" points="535.17,787.6094,541.17,791.6094,547.17,787.6094,541.17,783.6094,535.17,787.6094" style="stroke:#181818;stroke-width:1.0;"/><polygon fill="#181818" points="623.65,787.6094,614.65,783.6094,618.65,787.6094,614.65,791.6094,623.65,787.6094" style="stroke:#181818;stroke-width:1.0;"/><text fill="#000000" font-family="sans-serif" font-size="13" lengthAdjust="spacing" textLength="22" x="593.8399" y="801.7049">1..n</text></g><!--reverse link overarch_dataModel_view to overarch_dataModel_conceptView--><g id="link_overarch_dataModel_view_overarch_dataModel_conceptView"><path codeLine="83" d="M291.39,953.6094 C321.07,953.6094 343.97,953.6094 376.93,953.6094 " fill="none" id="overarch_dataModel_view-backto-overarch_dataModel_conceptView" style="stroke:#181818;stroke-width:1.0;"/><polygon fill="none" points="273.39,953.6094,291.39,959.6094,291.39,947.6094,273.39,953.6094" style="stroke:#181818;stroke-width:1.0;"/></g><!--reverse link overarch_dataModel_view to overarch_dataModel_useCaseView--><g id="link_overarch_dataModel_view_overarch_dataModel_useCaseView"><path codeLine="84" d="M237.5741,1004.5864 C245.9041,1103.9264 273.62,1379.5794 333,1451.6094 C343.26,1464.0594 357.92,1472.7694 372.85,1478.8494 " fill="none" id="overarch_dataModel_view-backto-overarch_dataModel_useCaseView" style="stroke:#181818;stroke-width:1.0;"/><polygon fill="none" points="236.07,986.6494,231.5951,1005.0878,243.5531,1004.0851,236.07,986.6494" style="stroke:#181818;stroke-width:1.0;"/></g><!--link overarch_dataModel_systemStructureView to overarch_dataModel_technicalArchitectureModelNode--><g id="link_overarch_dataModel_systemStructureView_overarch_dataModel_technicalArchitectureModelNode"><path codeLine="85" d="M530.7539,1406.5677 C554.6339,1405.8077 563.163,1405.5283 588.873,1404.7183 " fill="none" id="overarch_dataModel_systemStructureView-overarch_dataModel_technicalArchitectureModelNode" style="stroke:#181818;stroke-width:1.0;"/><polygon fill="none" points="518.76,1406.9494,524.8842,1410.7565,530.7539,1406.5677,524.6297,1402.7605,518.76,1406.9494" style="stroke:#181818;stroke-width:1.0;"/><polygon fill="#181818" points="594.87,1404.5294,585.7485,1400.8148,589.8725,1404.6868,586.0004,1408.8108,594.87,1404.5294" style="stroke:#181818;stroke-width:1.0;"/><text fill="#000000" font-family="sans-serif" font-size="13" lengthAdjust="spacing" textLength="22" x="565.0578" y="1418.7351">1..n</text></g><!--link overarch_dataModel_deploymentView to overarch_dataModel_deploymentModelElement--><g id="link_overarch_dataModel_deploymentView_overarch_dataModel_deploymentModelElement"><path codeLine="86" d="M514.79,1575.6094 C549.04,1575.6094 573.3,1575.6094 611.27,1575.6094 " fill="none" id="overarch_dataModel_deploymentView-overarch_dataModel_deploymentModelElement" style="stroke:#181818;stroke-width:1.0;"/><polygon fill="none" points="502.79,1575.6094,508.79,1579.6094,514.79,1575.6094,508.79,1571.6094,502.79,1575.6094" style="stroke:#181818;stroke-width:1.0;"/><polygon fill="#181818" points="617.27,1575.6094,608.27,1571.6094,612.27,1575.6094,608.27,1579.6094,617.27,1575.6094" style="stroke:#181818;stroke-width:1.0;"/><text fill="#000000" font-family="sans-serif" font-size="13" lengthAdjust="spacing" textLength="22" x="587.3437" y="1589.6794">1..n</text></g><!--reverse link overarch_dataModel_view to overarch_dataModel_deploymentStructureView--><g id="link_overarch_dataModel_view_overarch_dataModel_deploymentStructureView"><path codeLine="87" d="M262.8087,1001.9038 C280.6287,1029.6438 299.5,1053.4694 333,1078.6094 C341.63,1085.0894 351.43,1090.7194 361.43,1095.5694 " fill="none" id="overarch_dataModel_view-backto-overarch_dataModel_deploymentStructureView" style="stroke:#181818;stroke-width:1.0;"/><polygon fill="none" points="253.08,986.7594,257.7605,1005.1467,267.8568,998.6609,253.08,986.7594" style="stroke:#181818;stroke-width:1.0;"/></g><!--link overarch_dataModel_modelView to overarch_dataModel_modelElement--><g id="link_overarch_dataModel_modelView_overarch_dataModel_modelElement"><path codeLine="88" d="M497.2458,617.6483 C539.5758,614.9583 582.9321,612.2001 632.0021,609.0801 " fill="none" id="overarch_dataModel_modelView-overarch_dataModel_modelElement" style="stroke:#181818;stroke-width:1.0;"/><polygon fill="none" points="485.27,618.4094,491.5116,622.0208,497.2458,617.6483,491.0042,614.0369,485.27,618.4094" style="stroke:#181818;stroke-width:1.0;"/><polygon fill="#181818" points="637.99,608.6994,628.7543,605.2785,633.0001,609.0166,629.262,613.2624,637.99,608.6994" style="stroke:#181818;stroke-width:1.0;"/><text fill="#000000" font-family="sans-serif" font-size="13" lengthAdjust="spacing" textLength="22" x="608.0829" y="623.3251">1..n</text></g><!--link overarch_dataModel_stateMachineView to overarch_dataModel_stateMachine--><g id="link_overarch_dataModel_stateMachineView_overarch_dataModel_stateMachine"><path codeLine="89" d="M522.84,704.6094 C569.01,704.6094 609.16,704.6094 652.1,704.6094 " fill="none" id="overarch_dataModel_stateMachineView-overarch_dataModel_stateMachine" style="stroke:#181818;stroke-width:1.0;"/><polygon fill="none" points="510.84,704.6094,516.84,708.6094,522.84,704.6094,516.84,700.6094,510.84,704.6094" style="stroke:#181818;stroke-width:1.0;"/><polygon fill="#181818" points="658.1,704.6094,649.1,700.6094,653.1,704.6094,649.1,708.6094,658.1,704.6094" style="stroke:#181818;stroke-width:1.0;"/><text fill="#000000" font-family="sans-serif" font-size="13" lengthAdjust="spacing" textLength="7" x="643.6538" y="719.0498">1</text></g><!--link overarch_dataModel_view to overarch_dataModel_renderingSpec--><g id="link_overarch_dataModel_view_overarch_dataModel_renderingSpec"><path codeLine="90" d="M249.7446,997.9522 C265.9846,1040.5522 293.3,1104.6194 333,1161.6094 C344.11,1177.5594 353.6038,1189.0029 367.1738,1203.2629 " fill="none" id="overarch_dataModel_view-overarch_dataModel_renderingSpec" style="stroke:#181818;stroke-width:1.0;"/><polygon fill="none" points="245.47,986.7394,243.8697,993.7707,249.7446,997.9522,251.3449,990.9209,245.47,986.7394" style="stroke:#181818;stroke-width:1.0;"/><polygon fill="#181818" points="371.31,1207.6094,368.0034,1198.3322,367.8632,1203.9873,362.2081,1203.8471,371.31,1207.6094" style="stroke:#181818;stroke-width:1.0;"/><text fill="#000000" font-family="sans-serif" font-size="13" lengthAdjust="spacing" textLength="22" x="341.7107" y="1216.0558">0..1</text></g><!--reverse link overarch_dataModel_view to overarch_dataModel_glossaryView--><g id="link_overarch_dataModel_view_overarch_dataModel_glossaryView"><path codeLine="91" d="M290.0113,930.1004 C319.2413,917.9504 342.72,908.1694 375.41,894.5694 " fill="none" id="overarch_dataModel_view-backto-overarch_dataModel_glossaryView" style="stroke:#181818;stroke-width:1.0;"/><polygon fill="none" points="273.39,937.0094,292.3142,935.6409,287.7083,924.56,273.39,937.0094" style="stroke:#181818;stroke-width:1.0;"/></g><!--link overarch_dataModel_deploymentStructureView to overarch_dataModel_deploymentModelNode--><g id="link_overarch_dataModel_deploymentStructureView_overarch_dataModel_deploymentModelNode"><path codeLine="92" d="M545.19,1119.6094 C575.36,1119.6094 590.44,1119.6094 620.17,1119.6094 " fill="none" id="overarch_dataModel_deploymentStructureView-overarch_dataModel_deploymentModelNode" style="stroke:#181818;stroke-width:1.0;"/><polygon fill="none" points="533.19,1119.6094,539.19,1123.6094,545.19,1119.6094,539.19,1115.6094,533.19,1119.6094" style="stroke:#181818;stroke-width:1.0;"/><polygon fill="#181818" points="626.17,1119.6094,617.17,1115.6094,621.17,1119.6094,617.17,1123.6094,626.17,1119.6094" style="stroke:#181818;stroke-width:1.0;"/><text fill="#000000" font-family="sans-serif" font-size="13" lengthAdjust="spacing" textLength="22" x="596.545" y="1133.7049">1..n</text></g><!--reverse link overarch_dataModel_view to overarch_dataModel_modelView--><g id="link_overarch_dataModel_view_overarch_dataModel_modelView"><path codeLine="93" d="M238.1068,902.555 C244.5268,843.545 263.93,737.4794 333,663.6094 C346.31,649.3694 365.2,639.7794 382.99,633.4094 " fill="none" id="overarch_dataModel_view-backto-overarch_dataModel_modelView" style="stroke:#181818;stroke-width:1.0;"/><polygon fill="none" points="236.16,920.4494,244.0716,903.2039,232.142,901.906,236.16,920.4494" style="stroke:#181818;stroke-width:1.0;"/></g><!--reverse link overarch_dataModel_architectureView to overarch_dataModel_contextView--><g id="link_overarch_dataModel_architectureView_overarch_dataModel_contextView"><path codeLine="94" d="M454.6143,287.1669 C476.9943,242.5069 522.5,163.3194 595,110.6094 C615.39,95.7894 641.48,86.0894 664.38,79.8594 " fill="none" id="overarch_dataModel_architectureView-backto-overarch_dataModel_contextView" style="stroke:#181818;stroke-width:1.0;"/><polygon fill="none" points="446.55,303.2594,459.9784,289.855,449.2501,284.4788,446.55,303.2594" style="stroke:#181818;stroke-width:1.0;"/></g><!--link overarch_dataModel_glossaryView to overarch_dataModel_conceptModelElement--><g id="link_overarch_dataModel_glossaryView_overarch_dataModel_conceptModelElement"><path codeLine="95" d="M504.4798,880.9221 C543.6698,886.7421 578.495,891.9086 623.035,898.5186 " fill="none" id="overarch_dataModel_glossaryView-overarch_dataModel_conceptModelElement" style="stroke:#181818;stroke-width:1.0;"/><polygon fill="none" points="492.61,879.1594,497.9573,883.9974,504.4798,880.9221,499.1325,876.0841,492.61,879.1594" style="stroke:#181818;stroke-width:1.0;"/><polygon fill="#181818" points="628.97,899.3994,620.6547,894.1215,624.0242,898.6654,619.4803,902.0349,628.97,899.3994" style="stroke:#181818;stroke-width:1.0;"/><text fill="#000000" font-family="sans-serif" font-size="13" lengthAdjust="spacing" textLength="22" x="598.9192" y="912.4933">1..n</text></g><!--reverse link overarch_dataModel_view to overarch_dataModel_architectureView--><g id="link_overarch_dataModel_view_overarch_dataModel_architectureView"><path codeLine="96" d="M244.9967,903.0079 C260.0767,837.4779 292.23,704.2494 333,580.6094 C361.25,494.9394 403.01,396.2694 422.4,351.6894 " fill="none" id="overarch_dataModel_view-backto-overarch_dataModel_architectureView" style="stroke:#181818;stroke-width:1.0;"/><polygon fill="none" points="240.96,920.5494,250.8439,904.3534,239.1495,901.6623,240.96,920.5494" style="stroke:#181818;stroke-width:1.0;"/></g><!--link overarch_dataModel_useCaseView to overarch_dataModel_useCaseModelElement--><g id="link_overarch_dataModel_useCaseView_overarch_dataModel_useCaseModelElement"><path codeLine="97" d="M507.02,1492.6094 C544.74,1492.6094 576.18,1492.6094 618.92,1492.6094 " fill="none" id="overarch_dataModel_useCaseView-overarch_dataModel_useCaseModelElement" style="stroke:#181818;stroke-width:1.0;"/><polygon fill="none" points="495.02,1492.6094,501.02,1496.6094,507.02,1492.6094,501.02,1488.6094,495.02,1492.6094" style="stroke:#181818;stroke-width:1.0;"/><polygon fill="#181818" points="624.92,1492.6094,615.92,1488.6094,619.92,1492.6094,615.92,1496.6094,624.92,1492.6094" style="stroke:#181818;stroke-width:1.0;"/><text fill="#000000" font-family="sans-serif" font-size="13" lengthAdjust="spacing" textLength="22" x="594.8748" y="1506.7305">1..n</text></g><!--SRC=[hLXBRniX4BxpAv3lQpNNgAfKLRarFJHIBrKL4NPYex1W0NQwVVpt0judtcLsu_fW2Jp3p7mpymrOmhEZJbCZTdj7Is60Ew4LyHydd0JwJS0hlTSbI7edeGBbB25SCclfXcl5uU2AavVPK6QfFe5XXkyVI-POL7fiPE8nl_-scjOn1qN5-5uec5EDGlTdcQ3BdgmpZ3kQcA-2T05dxn0_ug89PEfCv1HeDGcb9LXERwdN5sf7lx_RRcz-X6qzjUlXkwKlKBzgK_gbA4TBnIheb4Y7qZcm7BfH8i5s9xMrpDHPnLQerKrnSC3tId0cYw0e_D8T3JHGA_yzTt2d-76W5t_wuhyYSFRuvEe3NA3KHL32GUew05ruYUFPT2wQNk6XbKz0yUbtpDUHmOhrB9MMwm7ud8u1LK88uy4BnVY4ul9OmYZ3ajNwwCPRtb23GxzfVON53lIxt7ZyZ61X-mKSt_kz9wqbC1MsN2t1-gsA7VpIxI7MK5ZrVjVMGRKGnBFm1O1fPGoIWrT3BpmeWL5Iu2VA7q4cIKXP-vOHF5yKPvb4ysYXuCpceV12dxnCQhIFV5anpa68urODqKhLSyPFqMIeXyZUbvpIb8HaghIS7PQKnETMDX-F0Sb2vMPZ-je8HH-VZQv6rUy7KR-S7XPvVmSJ8qcUDZkcnAzeV65335NMjmKoIPBEo8oa2G96pcOfzTuDnfPl9Z2AoPvCUlwTJYnYhKejLCmR5gxkSzdFGSTsWRCik7cheu1p2HeApkMbw_T5iJIDdwQauwlge1NM_vtKnGWg0L4iPyE8oWilEYLW9JLg1foDXk8Z7iy5eOlY0wMRc-tMCy82FycI1B__KnG8rvFCjMrElKByEELiJypDgsAP85s2jLqsi92jrL7DajzRy3tDwELnJSXyzG7ZGKoGnmbUhnSFYAlIFBfhNddIW71MezGsx28NC93c9izr1TnU6iYg8OtvEibgRu2lAw7LkeDh9bbu8SU2oZ-_27vTnGnCtrkkw4sKNFetBkORHkCNryFsm0t6FxFnDIU4gym6VHskHcduIYShthqha_Ycmk_ISZKBDiyxWlrDyPyOEXjLwZX1NeUOJnCNody0]--></g></svg>