<?xml version="1.0" encoding="us-ascii" standalone="no"?><svg xmlns="http://www.w3.org/2000/svg" xmlns:xlink="http://www.w3.org/1999/xlink" contentStyleType="text/css" height="544px" preserveAspectRatio="none" style="width:558px;height:544px;background:#FFFFFF;" version="1.1" viewBox="0 0 558 544" width="558px" zoomAndPan="magnify"><defs/><g><text fill="#000000" font-family="sans-serif" font-size="14" font-weight="bold" lengthAdjust="spacing" textLength="217" x="163.5" y="22.9951">Use Case View of Overarch</text><!--entity overarch_roles_modeller--><g id="elem_overarch_roles_modeller"><ellipse cx="86" cy="104.2969" fill="#F1F1F1" rx="8" ry="8" style="stroke:#181818;stroke-width:0.5;"/><path d="M86,112.2969 L86,139.2969 M73,120.2969 L99,120.2969 M86,139.2969 L73,154.2969 M86,139.2969 L99,154.2969 " fill="none" style="stroke:#181818;stroke-width:0.5;"/><text fill="#000000" font-family="sans-serif" font-size="14" lengthAdjust="spacing" textLength="59" x="56.5" y="168.792">Modeller</text></g><!--entity overarch_architecture_editor--><g id="elem_overarch_architecture_editor"><ellipse cx="517" cy="65.2969" fill="#F1F1F1" rx="8" ry="8" style="stroke:#181818;stroke-width:0.5;"/><path d="M517,73.2969 L517,100.2969 M504,81.2969 L530,81.2969 M517,100.2969 L504,115.2969 M517,100.2969 L530,115.2969 " fill="none" style="stroke:#181818;stroke-width:0.5;"/><text fill="#000000" font-family="sans-serif" font-size="14" lengthAdjust="spacing" textLength="68" x="483" y="129.792">Editor/IDE</text></g><g id="elem_overarch_useCase_modelSystem"><ellipse cx="350.5529" cy="60.0075" fill="#BBBBFF" rx="71.5529" ry="16.7106" style="stroke:#181818;stroke-width:0.5;"/><text fill="#000000" font-family="sans-serif" font-size="14" lengthAdjust="spacing" textLength="97" x="299.0529" y="63.755">model system</text></g><g id="elem_overarch_useCase_defineViews"><ellipse cx="350.6678" cy="127.6304" fill="#BBBBFF" rx="67.1678" ry="15.8336" style="stroke:#181818;stroke-width:0.5;"/><text fill="#000000" font-family="sans-serif" font-size="14" lengthAdjust="spacing" textLength="85" x="305.1678" y="131.378">define views</text></g><g id="elem_overarch_useCase_exportModel"><ellipse cx="350.3288" cy="242.5626" fill="#BBBBFF" rx="69.3288" ry="16.2658" style="stroke:#181818;stroke-width:0.5;"/><text fill="#000000" font-family="sans-serif" font-size="14" lengthAdjust="spacing" textLength="91" x="301.8288" y="246.3102">export model</text></g><g id="elem_overarch_useCase_exportJson"><ellipse cx="85.7655" cy="236.85" fill="#8888DD" rx="65.7655" ry="15.5531" style="stroke:#181818;stroke-width:0.5;"/><text fill="#000000" font-family="sans-serif" font-size="14" lengthAdjust="spacing" textLength="81" x="42.2655" y="240.5975">export JSON</text></g><g id="elem_overarch_useCase_exportStructurizr"><ellipse cx="86.1963" cy="305.7361" fill="#8888DD" rx="80.1963" ry="18.4393" style="stroke:#181818;stroke-width:0.5;"/><text fill="#000000" font-family="sans-serif" font-size="14" lengthAdjust="spacing" textLength="119" x="25.1039" y="309.0948">export Structurizr</text></g><g id="elem_overarch_useCase_renderViews"><ellipse cx="350.74" cy="413.8449" fill="#BBBBFF" rx="68.24" ry="16.048" style="stroke:#181818;stroke-width:0.5;"/><text fill="#000000" font-family="sans-serif" font-size="14" lengthAdjust="spacing" textLength="88" x="303.74" y="417.5924">render views</text></g><g id="elem_overarch_useCase_renderPlantuml"><ellipse cx="85.7532" cy="377.7475" fill="#8888DD" rx="77.7532" ry="17.9506" style="stroke:#181818;stroke-width:0.5;"/><text fill="#000000" font-family="sans-serif" font-size="14" lengthAdjust="spacing" textLength="113" x="26.6994" y="381.3777">render PlantUML</text></g><g id="elem_overarch_useCase_renderMarkdown"><ellipse cx="86.1963" cy="449.7361" fill="#8888DD" rx="80.1963" ry="18.4393" style="stroke:#181818;stroke-width:0.5;"/><text fill="#000000" font-family="sans-serif" font-size="14" lengthAdjust="spacing" textLength="119" x="25.1039" y="453.0948">export Markdown</text></g><g id="elem_overarch_useCase_renderGraphviz"><ellipse cx="86.0612" cy="521.0091" fill="#8888DD" rx="76.5612" ry="17.7122" style="stroke:#181818;stroke-width:0.5;"/><text fill="#000000" font-family="sans-serif" font-size="14" lengthAdjust="spacing" textLength="110" x="28.0612" y="524.7567">export GraphViz</text></g><!--link overarch_roles_modeller to overarch_useCase_modelSystem--><g id="link_overarch_roles_modeller_overarch_useCase_modelSystem"><path d="M115.59,125.7369 C159.71,113.2969 244.95,89.2669 299.45,73.9069 " fill="none" id="overarch_roles_modeller-to-overarch_useCase_modelSystem" style="stroke:#181818;stroke-width:1.0;"/><polygon fill="#181818" points="304.29,72.5369,294.5423,71.1288,299.4776,73.8935,296.7129,78.8287,304.29,72.5369" style="stroke:#181818;stroke-width:1.0;"/></g><!--link overarch_useCase_defineViews to overarch_architecture_editor--><g id="link_overarch_useCase_defineViews_overarch_architecture_editor"><path d="M402.65,117.5369 C426.85,112.6769 455.26,106.9769 477.59,102.5069 " fill="none" id="overarch_useCase_defineViews-to-overarch_architecture_editor" style="stroke:#181818;stroke-width:1.0;"/><polygon fill="#181818" points="482.54,101.5069,472.9279,99.3604,477.6382,102.493,474.5056,107.2033,482.54,101.5069" style="stroke:#181818;stroke-width:1.0;"/></g><!--link overarch_roles_modeller to overarch_useCase_defineViews--><g id="link_overarch_roles_modeller_overarch_useCase_defineViews"><path d="M115.59,133.1469 C154.4,132.2569 225.05,130.6369 278.59,129.4169 " fill="none" id="overarch_roles_modeller-to-overarch_useCase_defineViews" style="stroke:#181818;stroke-width:1.0;"/><polygon fill="#181818" points="283.71,129.2969,274.6209,125.5036,278.7113,129.4111,274.8038,133.5015,283.71,129.2969" style="stroke:#181818;stroke-width:1.0;"/></g><!--link overarch_roles_modeller to overarch_useCase_renderViews--><g id="link_overarch_roles_modeller_overarch_useCase_renderViews"><path d="M115.66,144.0669 C150.77,157.8369 210.33,185.2269 249,224.7969 C255.56,231.5069 314.38,345.3669 338.87,393.0569 " fill="none" id="overarch_roles_modeller-to-overarch_useCase_renderViews" style="stroke:#181818;stroke-width:1.0;"/><polygon fill="#181818" points="341.27,397.7269,340.7096,387.894,338.9826,393.2808,333.5958,391.5538,341.27,397.7269" style="stroke:#181818;stroke-width:1.0;"/></g><!--link overarch_useCase_exportJson to overarch_useCase_exportModel--><g id="link_overarch_useCase_exportJson_overarch_useCase_exportModel"><path d="M151.89,238.2769 C189.52,239.1369 237.03,240.2269 276.03,241.1169 " fill="none" id="overarch_useCase_exportJson-to-overarch_useCase_exportModel" style="stroke:#181818;stroke-width:1.0;stroke-dasharray:7.0,7.0;"/><polygon fill="#181818" points="281.24,241.2369,272.334,237.0317,276.2413,241.1223,272.1507,245.0296,281.24,241.2369" style="stroke:#181818;stroke-width:1.0;"/><text fill="#000000" font-family="sans-serif" font-size="13" lengthAdjust="spacing" textLength="51" x="197" y="235.8638">extends</text></g><!--link overarch_useCase_renderMarkdown to overarch_useCase_renderViews--><g id="link_overarch_useCase_renderMarkdown_overarch_useCase_renderViews"><path d="M165.16,446.5469 C191.86,444.7669 221.83,442.0169 249,437.7969 C266.03,435.1469 284.43,431.1069 300.77,427.0969 " fill="none" id="overarch_useCase_renderMarkdown-to-overarch_useCase_renderViews" style="stroke:#181818;stroke-width:1.0;stroke-dasharray:7.0,7.0;"/><polygon fill="#181818" points="305.77,425.8569,296.0733,424.1323,300.9159,427.0561,297.9921,431.8987,305.77,425.8569" style="stroke:#181818;stroke-width:1.0;"/><text fill="#000000" font-family="sans-serif" font-size="13" lengthAdjust="spacing" textLength="51" x="197" y="433.8638">extends</text></g><!--link overarch_roles_modeller to overarch_useCase_exportModel--><g id="link_overarch_roles_modeller_overarch_useCase_exportModel"><path d="M115.52,140.4669 C148.45,148.6469 203.88,163.9169 249,183.7969 C274.82,195.1769 302.33,211.6669 322.03,224.3169 " fill="none" id="overarch_roles_modeller-to-overarch_useCase_exportModel" style="stroke:#181818;stroke-width:1.0;"/><polygon fill="#181818" points="326.36,227.1269,320.9722,218.8824,322.1606,224.413,316.63,225.6014,326.36,227.1269" style="stroke:#181818;stroke-width:1.0;"/></g><!--link overarch_useCase_modelSystem to overarch_architecture_editor--><g id="link_overarch_useCase_modelSystem_overarch_architecture_editor"><path d="M403.55,70.8669 C427.7,76.0069 455.89,82.0069 478,86.7169 " fill="none" id="overarch_useCase_modelSystem-to-overarch_architecture_editor" style="stroke:#181818;stroke-width:1.0;"/><polygon fill="#181818" points="482.91,87.7569,474.9433,81.9663,478.0202,86.7131,473.2733,89.79,482.91,87.7569" style="stroke:#181818;stroke-width:1.0;"/></g><!--link overarch_useCase_renderGraphviz to overarch_useCase_renderViews--><g id="link_overarch_useCase_renderGraphviz_overarch_useCase_renderViews"><path d="M136.44,507.5769 C168.99,498.2369 212.22,484.5969 249,468.7969 C274.15,457.9969 301.29,442.9169 321.03,431.2769 " fill="none" id="overarch_useCase_renderGraphviz-to-overarch_useCase_renderViews" style="stroke:#181818;stroke-width:1.0;stroke-dasharray:7.0,7.0;"/><polygon fill="#181818" points="325.37,428.6969,315.59,429.8591,321.0725,431.2525,319.679,436.7351,325.37,428.6969" style="stroke:#181818;stroke-width:1.0;"/><text fill="#000000" font-family="sans-serif" font-size="13" lengthAdjust="spacing" textLength="51" x="197" y="464.8638">extends</text></g><!--link overarch_useCase_renderPlantuml to overarch_useCase_renderViews--><g id="link_overarch_useCase_renderPlantuml_overarch_useCase_renderViews"><path d="M153.58,386.9269 C194.28,392.5069 246.05,399.6069 286.14,405.1069 " fill="none" id="overarch_useCase_renderPlantuml-to-overarch_useCase_renderViews" style="stroke:#181818;stroke-width:1.0;stroke-dasharray:7.0,7.0;"/><polygon fill="#181818" points="291.47,405.8369,283.103,400.6414,286.5172,405.1518,282.0068,408.5659,291.47,405.8369" style="stroke:#181818;stroke-width:1.0;"/><text fill="#000000" font-family="sans-serif" font-size="13" lengthAdjust="spacing" textLength="51" x="197" y="389.8638">extends</text></g><!--link overarch_useCase_exportStructurizr to overarch_useCase_exportModel--><g id="link_overarch_useCase_exportStructurizr_overarch_useCase_exportModel"><path d="M142.03,292.5869 C187.19,281.7469 250.79,266.4869 295.63,255.7269 " fill="none" id="overarch_useCase_exportStructurizr-to-overarch_useCase_exportModel" style="stroke:#181818;stroke-width:1.0;stroke-dasharray:7.0,7.0;"/><polygon fill="#181818" points="300.73,254.4969,291.043,252.7185,295.8694,255.6691,292.9187,260.4955,300.73,254.4969" style="stroke:#181818;stroke-width:1.0;"/><text fill="#000000" font-family="sans-serif" font-size="13" lengthAdjust="spacing" textLength="51" x="197" y="264.8638">extends</text></g><!--SRC=[fPD1Jm8n48Nl-oicUD43U3KUF2XW928c1AwasHtSnh8bqrb0VhtTBiWIsiRL7hg7llTDP_fMuPA1DP3yo1aoIPYor4LY5qjM23E3y2JiDfUu1Rs4oGP9K9ed8cLDq1dh39L2we0me0-72z8ApM9rE3jg1vcqtzkN_k1SNMsIRUcIS85Eb9G6qwfknq70V1d6bRDT__YifhfRNMVg53TmzMZNS7W2PBYK1SB6Dc02W5fIjMWy0DojDJ6uAW50BN6p20D6qybRr3yokh3sExlw_GlxbAciHYJt5AKqT1uOOP4XHQTHIqBJE03UbIXuDdwDCfoeNAbmKsD1dvdU5b7CKHJ6F9DOvtEvZsASQ2Ft9qmWhz3jFa0iPKaiGUTkNxPRbMsGsnaRpvX40WUzdiVS23JS0-xOmZoOy_VnenhtyA5-qqhZDadiNLgCtX-DFtNWp_o_K1T_SejN-WO0]--></g></svg>