<svg xmlns="http://www.w3.org/2000/svg" xmlns:xlink="http://www.w3.org/1999/xlink" contentStyleType="text/css" height="579px" preserveAspectRatio="none" style="width:613px;height:579px;background:#FFFFFF;" version="1.1" viewBox="0 0 613 579" width="613px" zoomAndPan="magnify"><defs/><g><text fill="#000000" font-family="sans-serif" font-size="14" font-weight="bold" lengthAdjust="spacing" textLength="217" x="191.1963" y="22.9951">Use Case View of Overarch</text><!--entity overarch_architecture_editor--><g id="elem_overarch_architecture_editor"><ellipse cx="527" cy="418.2969" fill="#F1F1F1" rx="8" ry="8" style="stroke:#181818;stroke-width:0.5;"/><path d="M527,426.2969 L527,453.2969 M514,434.2969 L540,434.2969 M527,453.2969 L514,468.2969 M527,453.2969 L540,468.2969 " fill="none" style="stroke:#181818;stroke-width:0.5;"/><text fill="#000000" font-family="sans-serif" font-size="14" lengthAdjust="spacing" textLength="68" x="493" y="482.792">Editor/IDE</text></g><g id="elem_overarch_useCase_defineViews"><ellipse cx="253.1678" cy="416.6304" fill="#BBBBFF" rx="67.1678" ry="15.8336" style="stroke:#181818;stroke-width:0.5;"/><text fill="#000000" font-family="sans-serif" font-size="14" lengthAdjust="spacing" textLength="85" x="207.6678" y="420.378">define views</text></g><g id="elem_overarch_useCase_generateArtifacts"><ellipse cx="253.0271" cy="346.9023" fill="#BBBBFF" rx="81.0271" ry="18.6054" style="stroke:#181818;stroke-width:0.5;"/><text fill="#000000" font-family="sans-serif" font-size="14" lengthAdjust="spacing" textLength="121" x="191.2415" y="350.1686">generate artifacts</text></g><g id="elem_overarch_useCase_renderPlantuml"><ellipse cx="526.7532" cy="276.7475" fill="#8888DD" rx="77.7532" ry="17.9506" style="stroke:#181818;stroke-width:0.5;"/><text fill="#000000" font-family="sans-serif" font-size="14" lengthAdjust="spacing" textLength="113" x="467.6994" y="280.3777">render PlantUML</text></g><g id="elem_overarch_useCase_exportModel"><ellipse cx="252.8288" cy="124.5626" fill="#BBBBFF" rx="69.3288" ry="16.2658" style="stroke:#181818;stroke-width:0.5;"/><text fill="#000000" font-family="sans-serif" font-size="14" lengthAdjust="spacing" textLength="91" x="204.3288" y="128.3102">export model</text></g><g id="elem_overarch_useCase_renderViews"><ellipse cx="253.24" cy="276.8449" fill="#BBBBFF" rx="68.24" ry="16.048" style="stroke:#181818;stroke-width:0.5;"/><text fill="#000000" font-family="sans-serif" font-size="14" lengthAdjust="spacing" textLength="88" x="206.24" y="280.5924">render views</text></g><!--entity overarch_roles_modeller--><g id="elem_overarch_roles_modeller"><ellipse cx="35.5" cy="317.2969" fill="#F1F1F1" rx="8" ry="8" style="stroke:#181818;stroke-width:0.5;"/><path d="M35.5,325.2969 L35.5,352.2969 M22.5,333.2969 L48.5,333.2969 M35.5,352.2969 L22.5,367.2969 M35.5,352.2969 L48.5,367.2969 " fill="none" style="stroke:#181818;stroke-width:0.5;"/><text fill="#000000" font-family="sans-serif" font-size="14" lengthAdjust="spacing" textLength="59" x="6" y="381.792">Modeller</text></g><g id="elem_overarch_useCase_exportJson"><ellipse cx="526.7655" cy="130.85" fill="#8888DD" rx="65.7655" ry="15.5531" style="stroke:#181818;stroke-width:0.5;"/><text fill="#000000" font-family="sans-serif" font-size="14" lengthAdjust="spacing" textLength="81" x="483.2655" y="134.5975">export JSON</text></g><g id="elem_overarch_useCase_queryModel"><ellipse cx="253.0233" cy="192.7015" fill="#BBBBFF" rx="67.5233" ry="15.9047" style="stroke:#181818;stroke-width:0.5;"/><text fill="#000000" font-family="sans-serif" font-size="14" lengthAdjust="spacing" textLength="86" x="207.0233" y="196.4491">query model</text></g><g id="elem_overarch_useCase_createTemplates"><ellipse cx="252.8735" cy="486.5716" fill="#BBBBFF" rx="79.3735" ry="18.2747" style="stroke:#181818;stroke-width:0.5;"/><text fill="#000000" font-family="sans-serif" font-size="14" lengthAdjust="spacing" textLength="117" x="192.4676" y="490.0217">create templates</text></g><g id="elem_overarch_useCase_renderGraphviz"><ellipse cx="527.0612" cy="348.0091" fill="#8888DD" rx="76.5612" ry="17.7122" style="stroke:#181818;stroke-width:0.5;"/><text fill="#000000" font-family="sans-serif" font-size="14" lengthAdjust="spacing" textLength="110" x="469.0612" y="351.7567">export GraphViz</text></g><g id="elem_overarch_useCase_modelSystem"><ellipse cx="253.0529" cy="557.0075" fill="#BBBBFF" rx="71.5529" ry="16.7106" style="stroke:#181818;stroke-width:0.5;"/><text fill="#000000" font-family="sans-serif" font-size="14" lengthAdjust="spacing" textLength="97" x="201.5529" y="560.755">model system</text></g><g id="elem_overarch_useCase_renderMarkdown"><ellipse cx="527.1963" cy="204.7361" fill="#8888DD" rx="80.1963" ry="18.4393" style="stroke:#181818;stroke-width:0.5;"/><text fill="#000000" font-family="sans-serif" font-size="14" lengthAdjust="spacing" textLength="119" x="466.1039" y="208.0948">export Markdown</text></g><g id="elem_overarch_useCase_exportStructurizr"><ellipse cx="527.1963" cy="61.7361" fill="#8888DD" rx="80.1963" ry="18.4393" style="stroke:#181818;stroke-width:0.5;"/><text fill="#000000" font-family="sans-serif" font-size="14" lengthAdjust="spacing" textLength="119" x="466.1039" y="65.0948">export Structurizr</text></g><!--link overarch_roles_modeller to overarch_useCase_generateArtifacts--><g id="link_overarch_roles_modeller_overarch_useCase_generateArtifacts"><path d="M65.12,346.7969 C92.25,346.7969 128.31,346.7969 165.66,346.7969 " fill="none" id="overarch_roles_modeller-to-overarch_useCase_generateArtifacts" style="stroke:#181818;stroke-width:1.0;"/><polygon fill="#181818" points="171.66,346.7969,162.66,342.7969,166.66,346.7969,162.66,350.7969,171.66,346.7969" style="stroke:#181818;stroke-width:1.0;"/></g><!--link overarch_roles_modeller to overarch_useCase_modelSystem--><g id="link_overarch_roles_modeller_overarch_useCase_modelSystem"><path d="M56.66,384.8069 C79.6,424.5969 120.62,486.2469 172,522.7969 C183.81,531.1969 192.4485,535.8252 205.5885,541.1452 " fill="none" id="overarch_roles_modeller-to-overarch_useCase_modelSystem" style="stroke:#181818;stroke-width:1.0;"/><polygon fill="#181818" points="211.15,543.3969,204.3089,536.3117,206.5154,541.5205,201.3067,543.727,211.15,543.3969" style="stroke:#181818;stroke-width:1.0;"/></g><!--link overarch_useCase_defineViews to overarch_architecture_editor--><g id="link_overarch_useCase_defineViews_overarch_architecture_editor"><path d="M313.69,423.5969 C368.74,429.8769 442.4787,438.2769 486.9287,443.3469 " fill="none" id="overarch_useCase_defineViews-to-overarch_architecture_editor" style="stroke:#181818;stroke-width:1.0;"/><polygon fill="#181818" points="492.89,444.0269,484.4013,439.0327,487.9222,443.4602,483.4947,446.9812,492.89,444.0269" style="stroke:#181818;stroke-width:1.0;"/></g><!--link overarch_roles_modeller to overarch_useCase_queryModel--><g id="link_overarch_roles_modeller_overarch_useCase_queryModel"><path d="M59.12,308.6669 C68.85,294.5369 81.17,279.1969 95,267.7969 C130.19,238.7769 172.8505,219.9452 206.5505,207.7052 " fill="none" id="overarch_roles_modeller-to-overarch_useCase_queryModel" style="stroke:#181818;stroke-width:1.0;"/><polygon fill="#181818" points="212.19,205.6569,202.3651,204.9696,207.4904,207.3638,205.0962,212.489,212.19,205.6569" style="stroke:#181818;stroke-width:1.0;"/></g><!--link overarch_roles_modeller to overarch_useCase_defineViews--><g id="link_overarch_roles_modeller_overarch_useCase_defineViews"><path d="M65.12,356.0969 C103.01,368.4069 164.3135,388.3133 206.9535,402.1633 " fill="none" id="overarch_roles_modeller-to-overarch_useCase_defineViews" style="stroke:#181818;stroke-width:1.0;"/><polygon fill="#181818" points="212.66,404.0169,205.3359,397.4322,207.9046,402.4723,202.8645,405.0409,212.66,404.0169" style="stroke:#181818;stroke-width:1.0;"/></g><!--link overarch_roles_modeller to overarch_useCase_renderViews--><g id="link_overarch_roles_modeller_overarch_useCase_renderViews"><path d="M65.24,319.4469 C74.16,312.3269 84.45,305.3669 95,300.7969 C123.33,288.5169 150.9625,283.0101 179.7825,280.0001 " fill="none" id="overarch_roles_modeller-to-overarch_useCase_renderViews" style="stroke:#181818;stroke-width:1.0;"/><polygon fill="#181818" points="185.75,279.3769,176.3832,276.3334,180.777,279.8963,177.2142,284.2901,185.75,279.3769" style="stroke:#181818;stroke-width:1.0;"/></g><!--link overarch_roles_modeller to overarch_useCase_createTemplates--><g id="link_overarch_roles_modeller_overarch_useCase_createTemplates"><path d="M65.06,371.4369 C91.63,393.6169 132.88,426.2669 172,449.7969 C184.85,457.5269 194.1199,462.2914 207.4099,468.2814 " fill="none" id="overarch_roles_modeller-to-overarch_useCase_createTemplates" style="stroke:#181818;stroke-width:1.0;"/><polygon fill="#181818" points="212.88,470.7469,206.3185,463.402,208.3216,468.6923,203.0313,470.6954,212.88,470.7469" style="stroke:#181818;stroke-width:1.0;"/></g><!--reverse link overarch_useCase_exportModel to overarch_useCase_exportJson--><g id="link_overarch_useCase_exportModel_overarch_useCase_exportJson"><path d="M328.2886,126.4382 C370.7686,127.3682 419.1,128.4369 460.97,129.3669 " fill="none" id="overarch_useCase_exportModel-backto-overarch_useCase_exportJson" style="stroke:#181818;stroke-width:1.0;stroke-dasharray:7.0,7.0;"/><polygon fill="#181818" points="322.29,126.3069,331.2003,130.5029,327.2888,126.4163,331.3754,122.5048,322.29,126.3069" style="stroke:#181818;stroke-width:1.0;"/><text fill="#000000" font-family="sans-serif" font-size="13" lengthAdjust="spacing" textLength="51" x="365" y="123.8638">extends</text></g><!--reverse link overarch_useCase_renderViews to overarch_useCase_renderMarkdown--><g id="link_overarch_useCase_renderViews_overarch_useCase_renderMarkdown"><path d="M304.7202,263.3716 C352.7002,250.6716 422.88,232.0969 473.57,218.6769 " fill="none" id="overarch_useCase_renderViews-backto-overarch_useCase_renderMarkdown" style="stroke:#181818;stroke-width:1.0;stroke-dasharray:7.0,7.0;"/><polygon fill="#181818" points="298.92,264.9069,308.6439,266.4708,303.7535,263.6275,306.5968,258.7371,298.92,264.9069" style="stroke:#181818;stroke-width:1.0;"/><text fill="#000000" font-family="sans-serif" font-size="13" lengthAdjust="spacing" textLength="51" x="365" y="230.8638">extends</text></g><!--link overarch_roles_modeller to overarch_useCase_exportModel--><g id="link_overarch_roles_modeller_overarch_useCase_exportModel"><path d="M50.77,308.7769 C60.99,284.3069 76.23,252.5669 95,227.7969 C122.76,191.1769 133.22,183.4469 172,158.7969 C184.61,150.7769 193.8698,146.1316 207.3098,140.6816 " fill="none" id="overarch_roles_modeller-to-overarch_useCase_exportModel" style="stroke:#181818;stroke-width:1.0;"/><polygon fill="#181818" points="212.87,138.4269,203.0265,138.1021,208.2365,140.3058,206.0328,145.5158,212.87,138.4269" style="stroke:#181818;stroke-width:1.0;"/></g><!--link overarch_useCase_modelSystem to overarch_architecture_editor--><g id="link_overarch_useCase_modelSystem_overarch_architecture_editor"><path d="M289.56,542.5469 C342.55,521.3069 435.9406,483.8888 487.4206,463.2588 " fill="none" id="overarch_useCase_modelSystem-to-overarch_architecture_editor" style="stroke:#181818;stroke-width:1.0;"/><polygon fill="#181818" points="492.99,461.0269,483.1479,460.6617,488.3488,462.8868,486.1238,468.0877,492.99,461.0269" style="stroke:#181818;stroke-width:1.0;"/></g><!--reverse link overarch_useCase_renderViews to overarch_useCase_renderGraphviz--><g id="link_overarch_useCase_renderViews_overarch_useCase_renderGraphviz"><path d="M305.0254,290.1127 C353.6654,302.8127 425.02,321.4369 475.58,334.6369 " fill="none" id="overarch_useCase_renderViews-backto-overarch_useCase_renderGraphviz" style="stroke:#181818;stroke-width:1.0;stroke-dasharray:7.0,7.0;"/><polygon fill="#181818" points="299.22,288.5969,306.9175,294.7408,304.0578,289.86,308.9386,287.0003,299.22,288.5969" style="stroke:#181818;stroke-width:1.0;"/><text fill="#000000" font-family="sans-serif" font-size="13" lengthAdjust="spacing" textLength="51" x="365" y="302.8638">extends</text></g><!--reverse link overarch_useCase_renderViews to overarch_useCase_renderPlantuml--><g id="link_overarch_useCase_renderViews_overarch_useCase_renderPlantuml"><path d="M327.24,276.7969 C365.94,276.7969 408.72,276.7969 448.96,276.7969 " fill="none" id="overarch_useCase_renderViews-backto-overarch_useCase_renderPlantuml" style="stroke:#181818;stroke-width:1.0;stroke-dasharray:7.0,7.0;"/><polygon fill="#181818" points="321.24,276.7969,330.24,280.7969,326.24,276.7969,330.24,272.7969,321.24,276.7969" style="stroke:#181818;stroke-width:1.0;"/><text fill="#000000" font-family="sans-serif" font-size="13" lengthAdjust="spacing" textLength="51" x="365" y="272.8638">extends</text></g><!--reverse link overarch_useCase_queryModel to overarch_useCase_generateArtifacts--><g id="link_overarch_useCase_queryModel_overarch_useCase_generateArtifacts"><path d="M212.2708,208.8302 C160.4408,230.9302 79.13,274.3369 117,320.2969 C130.61,336.8169 151.2,345.0569 172.26,348.7769 " fill="none" id="overarch_useCase_queryModel-backto-overarch_useCase_generateArtifacts" style="stroke:#181818;stroke-width:1.0;stroke-dasharray:7.0,7.0;"/><polygon fill="#181818" points="217.79,206.4769,207.9423,206.3274,213.1907,208.438,211.0801,213.6864,217.79,206.4769" style="stroke:#181818;stroke-width:1.0;"/><text fill="#000000" font-family="sans-serif" font-size="13" lengthAdjust="spacing" textLength="45" x="96" y="316.3638">include</text></g><!--reverse link overarch_useCase_queryModel to overarch_useCase_renderViews--><g id="link_overarch_useCase_queryModel_overarch_useCase_renderViews"><path d="M253,214.9469 C253,229.8069 253,245.7269 253,260.5969 " fill="none" id="overarch_useCase_queryModel-backto-overarch_useCase_renderViews" style="stroke:#181818;stroke-width:1.0;stroke-dasharray:7.0,7.0;"/><polygon fill="#181818" points="253,208.9469,249,217.9469,253,213.9469,257,217.9469,253,208.9469" style="stroke:#181818;stroke-width:1.0;"/><text fill="#000000" font-family="sans-serif" font-size="13" lengthAdjust="spacing" textLength="45" x="219" y="239.3638">include</text></g><!--reverse link overarch_useCase_exportModel to overarch_useCase_exportStructurizr--><g id="link_overarch_useCase_exportModel_overarch_useCase_exportStructurizr"><path d="M309.1052,112.0329 C355.9452,101.1829 420.52,86.2269 469.59,74.8569 " fill="none" id="overarch_useCase_exportModel-backto-overarch_useCase_exportStructurizr" style="stroke:#181818;stroke-width:1.0;stroke-dasharray:7.0,7.0;"/><polygon fill="#181818" points="303.26,113.3869,312.9305,115.2527,308.131,112.2586,311.1252,107.4591,303.26,113.3869" style="stroke:#181818;stroke-width:1.0;"/><text fill="#000000" font-family="sans-serif" font-size="13" lengthAdjust="spacing" textLength="51" x="365" y="83.8638">extends</text></g><!--SRC=[fPLDKy8m48Rl-HKxUD43U7KyEAC2Zeo8CmXNfjCkaZ4qk4dv-lMcATW2IRJIGzkPlllatUnkAd2gGKiW_Z7Ja732M7EPCiOqrm9Xf10U8tCRSro1dC9WYHHHF6CiYhKaQ7GIRfxNp-rE0o85SlTzaj-uDhYCS89Mn3A5SGvh93ZbASBIG9KDk_o9CvfymKaXoPTLLt3nOAvkjmHyO6hq6Y4YpQV6YW-p5zxlTGuOOPeWmPk8KZtgltX8XSgAihamc1jpjTib1jSBIHhcCa7XOHIIVgxm-mZjIY4vsfLT9InM81tMWQH0DPdllfsuxGq7hq6pFILJHx9V6T8ccAjL-5AD2VFgQPmlX7dnfLl8tlSg1sYNnXD5YzcORuFRPaLBldMaOnC1jL76aOTX9KEhyFleH_IPo5KQzB4N-Njeg2dB9uTlALYSYgw4UKeFpUOT_3uVzS8hcy928tmOxJeRQYrRzbQzk8gZUe6LkQiNUDJ1B31bqCeMBGUYScZ0BU1Q6oyEq65l-M2LH5omlwHKySD23L6Zvkuv_MSExWFxJDZ9d41Bc7zdAzYS1iZJM6G9ik2wPw9Epe9QdVGD]--></g></svg>