<svg xmlns="http://www.w3.org/2000/svg" xmlns:xlink="http://www.w3.org/1999/xlink" contentStyleType="text/css" height="752px" preserveAspectRatio="none" style="width:664px;height:752px;background:#FFFFFF;" version="1.1" viewBox="0 0 664 752" width="664px" zoomAndPan="magnify"><defs/><g><text fill="#000000" font-family="sans-serif" font-size="14" font-weight="bold" lengthAdjust="spacing" textLength="217" x="216.5271" y="22.9951">Use Case View of Overarch</text><!--entity overarch_architecture_editor--><g id="elem_overarch_architecture_editor"><ellipse cx="577" cy="609.2969" fill="#F1F1F1" rx="8" ry="8" style="stroke:#181818;stroke-width:0.5;"/><path d="M577,617.2969 L577,644.2969 M564,625.2969 L590,625.2969 M577,644.2969 L564,659.2969 M577,644.2969 L590,659.2969 " fill="none" style="stroke:#181818;stroke-width:0.5;"/><text fill="#000000" font-family="sans-serif" font-size="14" lengthAdjust="spacing" textLength="68" x="543" y="673.792">Editor/IDE</text></g><g id="elem_overarch_useCase_defineViews"><ellipse cx="302.1678" cy="638.6304" fill="#BBBBFF" rx="67.1678" ry="15.8336" style="stroke:#181818;stroke-width:0.5;"/><text fill="#000000" font-family="sans-serif" font-size="14" lengthAdjust="spacing" textLength="85" x="256.6678" y="642.378">define views</text></g><g id="elem_overarch_useCase_generateArtifacts"><ellipse cx="302.0271" cy="428.9023" fill="#BBBBFF" rx="81.0271" ry="18.6054" style="stroke:#181818;stroke-width:0.5;"/><text fill="#000000" font-family="sans-serif" font-size="14" lengthAdjust="spacing" textLength="121" x="240.2415" y="432.1686">generate artifacts</text></g><g id="elem_overarch_useCase_renderPlantuml"><ellipse cx="576.7532" cy="271.7475" fill="#8888DD" rx="77.7532" ry="17.9506" style="stroke:#181818;stroke-width:0.5;"/><text fill="#000000" font-family="sans-serif" font-size="14" lengthAdjust="spacing" textLength="113" x="517.6994" y="275.3777">render PlantUML</text></g><g id="elem_overarch_useCase_exportModel"><ellipse cx="301.8288" cy="127.5626" fill="#BBBBFF" rx="69.3288" ry="16.2658" style="stroke:#181818;stroke-width:0.5;"/><text fill="#000000" font-family="sans-serif" font-size="14" lengthAdjust="spacing" textLength="91" x="253.3288" y="131.3102">export model</text></g><g id="elem_overarch_useCase_renderGraphviz"><ellipse cx="576.8536" cy="342.6676" fill="#8888DD" rx="77.3536" ry="17.8707" style="stroke:#181818;stroke-width:0.5;"/><text fill="#000000" font-family="sans-serif" font-size="14" lengthAdjust="spacing" textLength="112" x="518.1333" y="346.3422">render GraphViz</text></g><g id="elem_overarch_useCase_renderViews"><ellipse cx="302.24" cy="328.8449" fill="#BBBBFF" rx="68.24" ry="16.048" style="stroke:#181818;stroke-width:0.5;"/><text fill="#000000" font-family="sans-serif" font-size="14" lengthAdjust="spacing" textLength="88" x="255.24" y="332.5924">render views</text></g><!--entity overarch_roles_modeller--><g id="elem_overarch_roles_modeller"><ellipse cx="83" cy="443.2969" fill="#F1F1F1" rx="8" ry="8" style="stroke:#181818;stroke-width:0.5;"/><path d="M83,451.2969 L83,478.2969 M70,459.2969 L96,459.2969 M83,478.2969 L70,493.2969 M83,478.2969 L96,493.2969 " fill="none" style="stroke:#181818;stroke-width:0.5;"/><text fill="#000000" font-family="sans-serif" font-size="14" lengthAdjust="spacing" textLength="59" x="53.5" y="507.792">Modeller</text></g><g id="elem_overarch_useCase_exportJson"><ellipse cx="576.7655" cy="58.85" fill="#8888DD" rx="65.7655" ry="15.5531" style="stroke:#181818;stroke-width:0.5;"/><text fill="#000000" font-family="sans-serif" font-size="14" lengthAdjust="spacing" textLength="81" x="533.2655" y="62.5975">export JSON</text></g><g id="elem_overarch_useCase_queryModel"><ellipse cx="577.0233" cy="442.7015" fill="#BBBBFF" rx="67.5233" ry="15.9047" style="stroke:#181818;stroke-width:0.5;"/><text fill="#000000" font-family="sans-serif" font-size="14" lengthAdjust="spacing" textLength="86" x="531.0233" y="446.4491">query model</text></g><!--entity overarch_roles_templateProgrammer--><g id="elem_overarch_roles_templateProgrammer"><ellipse cx="83" cy="679.2969" fill="#F1F1F1" rx="8" ry="8" style="stroke:#181818;stroke-width:0.5;"/><path d="M83,687.2969 L83,714.2969 M70,695.2969 L96,695.2969 M83,714.2969 L70,729.2969 M83,714.2969 L96,729.2969 " fill="none" style="stroke:#181818;stroke-width:0.5;"/><text fill="#000000" font-family="sans-serif" font-size="14" lengthAdjust="spacing" textLength="154" x="6" y="743.792">Template Programmer</text></g><g id="elem_overarch_useCase_renderMarkdown"><ellipse cx="577.0271" cy="199.9023" fill="#8888DD" rx="81.0271" ry="18.6054" style="stroke:#181818;stroke-width:0.5;"/><text fill="#000000" font-family="sans-serif" font-size="14" lengthAdjust="spacing" textLength="121" x="515.2415" y="203.1686">render Markdown</text></g><g id="elem_overarch_useCase_createTemplates"><ellipse cx="301.8735" cy="708.5716" fill="#BBBBFF" rx="79.3735" ry="18.2747" style="stroke:#181818;stroke-width:0.5;"/><text fill="#000000" font-family="sans-serif" font-size="14" lengthAdjust="spacing" textLength="117" x="241.4676" y="712.0217">create templates</text></g><g id="elem_overarch_useCase_modelSystem"><ellipse cx="302.0529" cy="571.0075" fill="#BBBBFF" rx="71.5529" ry="16.7106" style="stroke:#181818;stroke-width:0.5;"/><text fill="#000000" font-family="sans-serif" font-size="14" lengthAdjust="spacing" textLength="97" x="250.5529" y="574.755">model system</text></g><g id="elem_overarch_useCase_exportStructurizr"><ellipse cx="577.1963" cy="127.7361" fill="#8888DD" rx="80.1963" ry="18.4393" style="stroke:#181818;stroke-width:0.5;"/><text fill="#000000" font-family="sans-serif" font-size="14" lengthAdjust="spacing" textLength="119" x="516.1039" y="131.0948">export Structurizr</text></g><!--link overarch_roles_modeller to overarch_useCase_generateArtifacts--><g id="link_overarch_roles_modeller_overarch_useCase_generateArtifacts"><path d="M112.82,466.9569 C145.33,460.3569 193.2297,450.6493 234.9997,442.1793 " fill="none" id="overarch_roles_modeller-to-overarch_useCase_generateArtifacts" style="stroke:#181818;stroke-width:1.0;"/><polygon fill="#181818" points="240.88,440.9869,231.2646,438.8553,235.9797,441.9805,232.8544,446.6957,240.88,440.9869" style="stroke:#181818;stroke-width:1.0;"/></g><!--link overarch_useCase_createTemplates to overarch_architecture_editor--><g id="link_overarch_useCase_createTemplates_overarch_architecture_editor"><path d="M356.29,695.1369 C411.53,680.9669 490.358,660.7571 536.808,648.8471 " fill="none" id="overarch_useCase_createTemplates-to-overarch_architecture_editor" style="stroke:#181818;stroke-width:1.0;"/><polygon fill="#181818" points="542.62,647.3569,532.9085,645.7175,537.7767,648.5987,534.8955,653.4669,542.62,647.3569" style="stroke:#181818;stroke-width:1.0;"/></g><!--link overarch_roles_modeller to overarch_useCase_modelSystem--><g id="link_overarch_roles_modeller_overarch_useCase_modelSystem"><path d="M112.89,488.4369 C134,499.6469 163.46,514.8069 190,526.7969 C214.09,537.6769 236.1035,546.4998 257.7735,554.7598 " fill="none" id="overarch_roles_modeller-to-overarch_useCase_modelSystem" style="stroke:#181818;stroke-width:1.0;"/><polygon fill="#181818" points="263.38,556.8969,256.3949,549.9536,258.7079,555.116,253.5455,557.429,263.38,556.8969" style="stroke:#181818;stroke-width:1.0;"/></g><!--link overarch_useCase_defineViews to overarch_architecture_editor--><g id="link_overarch_useCase_defineViews_overarch_architecture_editor"><path d="M369.09,638.7969 C424,638.7969 493.86,638.7969 536.81,638.7969 " fill="none" id="overarch_useCase_defineViews-to-overarch_architecture_editor" style="stroke:#181818;stroke-width:1.0;"/><polygon fill="#181818" points="542.81,638.7969,533.81,634.7969,537.81,638.7969,533.81,642.7969,542.81,638.7969" style="stroke:#181818;stroke-width:1.0;"/></g><!--link overarch_roles_modeller to overarch_useCase_queryModel--><g id="link_overarch_roles_modeller_overarch_useCase_queryModel"><path d="M112.9,472.8069 C166.31,472.6369 284.04,471.4769 383,464.7969 C420.02,462.2969 429.13,459.9769 466,455.7969 C482.34,453.9469 494.0711,452.5779 510.3911,450.6579 " fill="none" id="overarch_roles_modeller-to-overarch_useCase_queryModel" style="stroke:#181818;stroke-width:1.0;"/><polygon fill="#181818" points="516.35,449.9569,506.9443,447.0358,511.3842,450.5411,507.879,454.981,516.35,449.9569" style="stroke:#181818;stroke-width:1.0;"/></g><!--link overarch_roles_modeller to overarch_useCase_defineViews--><g id="link_overarch_roles_modeller_overarch_useCase_defineViews"><path d="M112.73,506.7369 C138.68,535.7569 179.13,577.1069 221,604.7969 C233.71,613.2069 243.2814,618.0329 256.9414,623.5129 " fill="none" id="overarch_roles_modeller-to-overarch_useCase_defineViews" style="stroke:#181818;stroke-width:1.0;"/><polygon fill="#181818" points="262.51,625.7469,255.6464,618.6835,257.8695,623.8852,252.6678,626.1083,262.51,625.7469" style="stroke:#181818;stroke-width:1.0;"/></g><!--link overarch_roles_modeller to overarch_useCase_renderViews--><g id="link_overarch_roles_modeller_overarch_useCase_renderViews"><path d="M112.82,453.6769 C156.51,424.6769 233.6307,373.5046 273.3507,347.1446 " fill="none" id="overarch_roles_modeller-to-overarch_useCase_renderViews" style="stroke:#181818;stroke-width:1.0;"/><polygon fill="#181818" points="278.35,343.8269,268.6393,345.4706,274.1839,346.5917,273.0629,352.1363,278.35,343.8269" style="stroke:#181818;stroke-width:1.0;"/></g><!--reverse link overarch_useCase_exportModel to overarch_useCase_exportJson--><g id="link_overarch_useCase_exportModel_overarch_useCase_exportJson"><path d="M356.0572,114.3871 C406.8772,101.5471 481.27,82.7369 531.15,70.1369 " fill="none" id="overarch_useCase_exportModel-backto-overarch_useCase_exportJson" style="stroke:#181818;stroke-width:1.0;stroke-dasharray:7.0,7.0;"/><polygon fill="#181818" points="350.24,115.8569,359.9456,117.5304,355.0877,114.6321,357.986,109.7741,350.24,115.8569" style="stroke:#181818;stroke-width:1.0;"/><text fill="#000000" font-family="sans-serif" font-size="13" lengthAdjust="spacing" textLength="51" x="414" y="83.8638">extends</text></g><!--reverse link overarch_useCase_renderViews to overarch_useCase_renderMarkdown--><g id="link_overarch_useCase_renderViews_overarch_useCase_renderMarkdown"><path d="M335.1058,311.0509 C357.2058,298.9809 384.2,284.6369 413,270.7969 C454.73,250.7369 503.52,229.8169 536.77,215.9169 " fill="none" id="overarch_useCase_renderViews-backto-overarch_useCase_renderMarkdown" style="stroke:#181818;stroke-width:1.0;stroke-dasharray:7.0,7.0;"/><polygon fill="#181818" points="329.84,313.9269,339.656,313.1235,334.2282,311.5302,335.8214,306.1024,329.84,313.9269" style="stroke:#181818;stroke-width:1.0;"/><text fill="#000000" font-family="sans-serif" font-size="13" lengthAdjust="spacing" textLength="51" x="414" y="244.8638">extends</text></g><!--link overarch_roles_templateProgrammer to overarch_useCase_createTemplates--><g id="link_overarch_roles_templateProgrammer_overarch_useCase_createTemplates"><path d="M160.2,708.7969 C180.35,708.7969 196.14,708.7969 216.41,708.7969 " fill="none" id="overarch_roles_templateProgrammer-to-overarch_useCase_createTemplates" style="stroke:#181818;stroke-width:1.0;"/><polygon fill="#181818" points="222.41,708.7969,213.41,704.7969,217.41,708.7969,213.41,712.7969,222.41,708.7969" style="stroke:#181818;stroke-width:1.0;"/></g><!--link overarch_roles_modeller to overarch_useCase_exportModel--><g id="link_overarch_roles_modeller_overarch_useCase_exportModel"><path d="M108.05,434.5569 C155.17,359.6469 254.7058,201.4059 287.5158,149.2359 " fill="none" id="overarch_roles_modeller-to-overarch_useCase_exportModel" style="stroke:#181818;stroke-width:1.0;"/><polygon fill="#181818" points="290.71,144.1569,282.5326,149.646,288.0481,148.3894,289.3047,153.905,290.71,144.1569" style="stroke:#181818;stroke-width:1.0;"/></g><!--link overarch_useCase_modelSystem to overarch_architecture_editor--><g id="link_overarch_useCase_modelSystem_overarch_architecture_editor"><path d="M351.18,582.7969 C406.28,596.5269 489.2277,617.1874 537.0677,629.0974 " fill="none" id="overarch_useCase_modelSystem-to-overarch_architecture_editor" style="stroke:#181818;stroke-width:1.0;"/><polygon fill="#181818" points="542.89,630.5469,535.1229,624.4911,538.0381,629.339,533.1903,632.2542,542.89,630.5469" style="stroke:#181818;stroke-width:1.0;"/></g><!--reverse link overarch_useCase_renderViews to overarch_useCase_renderGraphviz--><g id="link_overarch_useCase_renderViews_overarch_useCase_renderGraphviz"><path d="M374.7321,332.4747 C414.6421,334.5247 459.73,336.8369 501.19,338.9569 " fill="none" id="overarch_useCase_renderViews-backto-overarch_useCase_renderGraphviz" style="stroke:#181818;stroke-width:1.0;stroke-dasharray:7.0,7.0;"/><polygon fill="#181818" points="368.74,332.1669,377.523,336.6233,373.7334,332.4234,377.9333,328.6338,368.74,332.1669" style="stroke:#181818;stroke-width:1.0;"/><text fill="#000000" font-family="sans-serif" font-size="13" lengthAdjust="spacing" textLength="51" x="414" y="330.8638">extends</text></g><!--reverse link overarch_useCase_renderViews to overarch_useCase_renderPlantuml--><g id="link_overarch_useCase_renderViews_overarch_useCase_renderPlantuml"><path d="M359.2633,317.0501 C405.9433,307.3001 469.47,294.0369 518.34,283.8369 " fill="none" id="overarch_useCase_renderViews-backto-overarch_useCase_renderPlantuml" style="stroke:#181818;stroke-width:1.0;stroke-dasharray:7.0,7.0;"/><polygon fill="#181818" points="353.39,318.2769,363.0177,320.3523,358.2844,317.2546,361.3821,312.5213,353.39,318.2769" style="stroke:#181818;stroke-width:1.0;"/><text fill="#000000" font-family="sans-serif" font-size="13" lengthAdjust="spacing" textLength="51" x="414" y="291.8638">extends</text></g><!--link overarch_useCase_generateArtifacts to overarch_useCase_queryModel--><g id="link_overarch_useCase_generateArtifacts_overarch_useCase_queryModel"><path d="M365.92,440.2169 C381.27,442.5369 397.68,444.6169 413,445.7969 C445.31,448.2769 475.3343,448.1632 505.2743,447.0332 " fill="none" id="overarch_useCase_generateArtifacts-to-overarch_useCase_queryModel" style="stroke:#181818;stroke-width:1.0;stroke-dasharray:7.0,7.0;"/><polygon fill="#181818" points="511.27,446.8069,502.1255,443.1492,506.2736,446.9955,502.4273,451.1435,511.27,446.8069" style="stroke:#181818;stroke-width:1.0;"/><text fill="#000000" font-family="sans-serif" font-size="13" lengthAdjust="spacing" textLength="45" x="417" y="441.8638">include</text></g><!--link overarch_useCase_renderViews to overarch_useCase_queryModel--><g id="link_overarch_useCase_renderViews_overarch_useCase_queryModel"><path d="M336.2,342.6569 C388.64,364.5569 484.5132,404.5952 537.0632,426.5352 " fill="none" id="overarch_useCase_renderViews-to-overarch_useCase_queryModel" style="stroke:#181818;stroke-width:1.0;stroke-dasharray:7.0,7.0;"/><polygon fill="#181818" points="542.6,428.8469,535.8359,421.6882,537.986,426.9205,532.7537,429.0706,542.6,428.8469" style="stroke:#181818;stroke-width:1.0;"/><text fill="#000000" font-family="sans-serif" font-size="13" lengthAdjust="spacing" textLength="45" x="417" y="371.8638">include</text></g><!--reverse link overarch_useCase_exportModel to overarch_useCase_exportStructurizr--><g id="link_overarch_useCase_exportModel_overarch_useCase_exportStructurizr"><path d="M377.54,127.7969 C415.6,127.7969 457.13,127.7969 496.79,127.7969 " fill="none" id="overarch_useCase_exportModel-backto-overarch_useCase_exportStructurizr" style="stroke:#181818;stroke-width:1.0;stroke-dasharray:7.0,7.0;"/><polygon fill="#181818" points="371.54,127.7969,380.54,131.7969,376.54,127.7969,380.54,123.7969,371.54,127.7969" style="stroke:#181818;stroke-width:1.0;"/><text fill="#000000" font-family="sans-serif" font-size="13" lengthAdjust="spacing" textLength="51" x="414" y="123.8638">extends</text></g><!--SRC=[hPLDJ-Cm48Rl_XMZxWKETA-8mqhB5j0Y2aW5hfMLJ5jhdRYCdGBzzTXEiabRsoX03kaXhvzvvykLk31W591OhWpaWZ0pGfMCCIECH7ZK27-uVJq9V06rWBiD4gTinHZFZ28ONUJ2_lxyExaO0TUWckzpznB6uYh2ENeHgpHc3ZRASI5AX8s5Qd_iwFyvgt41vxN4XTN7yEFSFfUN7M29fTKR14v6BAoL6AOL_cvr0HXXcIF1lUIbUPpUH4YroekgGbhCgNqcamw3hsj51WgLeummQidKAU8-heYlLqzYc_JXHHkn3VXeCAdYrfAzuZODzUuaqcuxIKdKywBvTf3qzUpkDfdpjLPbmEjpXVIMB9bNx5MiSVg0nLgw8RWdjIHU567Jff5rgeDQJJdzozLBcInNAmgaaH4w7ssaMDbhMMixD8g-4g3Vj4L585uoyue0eEd7p53bLaziATcMdgvBAz9qE3dv1Hyl6FiexLrEw9uOPA1N3vQwHRuvR3UNmyxr70qxsDjPbbWo65VhSU1ux-g1Cy1NOt41qEwens0zBo5ORE_2YUsDnx2gzD9YgT4OqFtmHVl9KeJ_FRu8EzWv6BjkZPDZQe6Yp6IL8ql6_IBgu5uPD93l]--></g></svg>