<?xml version="1.0" encoding="UTF-8" standalone="no"?>
<!DOCTYPE svg PUBLIC "-//W3C//DTD SVG 1.1//EN"
 "http://www.w3.org/Graphics/SVG/1.1/DTD/svg11.dtd">
<!-- Generated by graphviz version 2.44.1 (20200629.0800)
 -->
<!-- Title: Concept Map for Overarch Pages: 1 -->
<svg width="2560pt" height="676pt"
 viewBox="0.00 0.00 2560.30 676.00" xmlns="http://www.w3.org/2000/svg" xmlns:xlink="http://www.w3.org/1999/xlink">
<g id="graph0" class="graph" transform="scale(1 1) rotate(0) translate(4 672)">
<title>Concept Map for Overarch</title>
<polygon fill="white" stroke="transparent" points="-4,4 -4,-672 2556.3,-672 2556.3,4 -4,4"/>
<text text-anchor="middle" x="1276.15" y="-652.8" font-family="Times New Roman,serif" font-size="14.00">Concept Map for Overarch</text>
<!-- overarch_concepts_actor -->
<g id="node1" class="node">
<title>overarch_concepts_actor</title>
<ellipse fill="#dddddd" stroke="black" cx="512.3" cy="-453" rx="31.7" ry="18"/>
<text text-anchor="middle" x="512.3" y="-449.3" font-family="Times New Roman,serif" font-size="14.00">Actor</text>
</g>
<!-- overarch_concepts_useCase -->
<g id="node39" class="node">
<title>overarch_concepts_useCase</title>
<ellipse fill="#dddddd" stroke="black" cx="507.3" cy="-279" rx="45.49" ry="18"/>
<text text-anchor="middle" x="507.3" y="-275.3" font-family="Times New Roman,serif" font-size="14.00">Use Case</text>
</g>
<!-- overarch_concepts_actor&#45;&gt;overarch_concepts_useCase -->
<g id="edge1" class="edge">
<title>overarch_concepts_actor&#45;&gt;overarch_concepts_useCase</title>
<path fill="none" stroke="black" d="M515.84,-434.97C520.69,-408.92 527.97,-357.68 520.3,-315 519.78,-312.13 519.04,-309.19 518.18,-306.28"/>
<polygon fill="black" stroke="black" points="521.46,-305.06 514.89,-296.75 514.84,-307.34 521.46,-305.06"/>
<text text-anchor="middle" x="536.8" y="-362.3" font-family="Times New Roman,serif" font-size="14.00">uses</text>
</g>
<!-- overarch_concepts_annotation -->
<g id="node2" class="node">
<title>overarch_concepts_annotation</title>
<ellipse fill="#dddddd" stroke="black" cx="2161.3" cy="-279" rx="50.89" ry="18"/>
<text text-anchor="middle" x="2161.3" y="-275.3" font-family="Times New Roman,serif" font-size="14.00">Annotation</text>
</g>
<!-- overarch_concepts_artifact -->
<g id="node3" class="node">
<title>overarch_concepts_artifact</title>
<ellipse fill="#dddddd" stroke="black" cx="259.3" cy="-366" rx="38.19" ry="18"/>
<text text-anchor="middle" x="259.3" y="-362.3" font-family="Times New Roman,serif" font-size="14.00">Artifact</text>
</g>
<!-- overarch_concepts_process -->
<g id="node30" class="node">
<title>overarch_concepts_process</title>
<ellipse fill="#dddddd" stroke="black" cx="234.3" cy="-279" rx="40.09" ry="18"/>
<text text-anchor="middle" x="234.3" y="-275.3" font-family="Times New Roman,serif" font-size="14.00">Process</text>
</g>
<!-- overarch_concepts_artifact&#45;&gt;overarch_concepts_process -->
<g id="edge2" class="edge">
<title>overarch_concepts_artifact&#45;&gt;overarch_concepts_process</title>
<path fill="none" stroke="black" d="M261.34,-347.94C261.94,-338.08 261.69,-325.58 258.3,-315 257.15,-311.42 255.5,-307.88 253.61,-304.5"/>
<polygon fill="black" stroke="black" points="256.52,-302.56 248.17,-296.03 250.63,-306.34 256.52,-302.56"/>
<text text-anchor="middle" x="283.3" y="-318.8" font-family="Times New Roman,serif" font-size="14.00">input of</text>
</g>
<!-- overarch_concepts_artifact&#45;&gt;overarch_concepts_process -->
<g id="edge3" class="edge">
<title>overarch_concepts_artifact&#45;&gt;overarch_concepts_process</title>
<path fill="none" stroke="black" d="M230.01,-354.25C219.31,-348.74 208.36,-340.84 202.3,-330 197.13,-320.77 201.25,-310.91 208.03,-302.4"/>
<polygon fill="black" stroke="black" points="210.62,-304.76 214.83,-295.03 205.48,-300.01 210.62,-304.76"/>
<text text-anchor="middle" x="228.3" y="-318.8" font-family="Times New Roman,serif" font-size="14.00">output of</text>
</g>
<!-- overarch_concepts_capability -->
<g id="node4" class="node">
<title>overarch_concepts_capability</title>
<ellipse fill="#dddddd" stroke="black" cx="405.3" cy="-192" rx="47.39" ry="18"/>
<text text-anchor="middle" x="405.3" y="-188.3" font-family="Times New Roman,serif" font-size="14.00">Capability</text>
</g>
<!-- overarch_concepts_choice -->
<g id="node5" class="node">
<title>overarch_concepts_choice</title>
<ellipse fill="#dddddd" stroke="black" cx="1604.3" cy="-279" rx="36.29" ry="18"/>
<text text-anchor="middle" x="1604.3" y="-275.3" font-family="Times New Roman,serif" font-size="14.00">Choice</text>
</g>
<!-- overarch_concepts_state -->
<g id="node34" class="node">
<title>overarch_concepts_state</title>
<ellipse fill="#dddddd" stroke="black" cx="1455.3" cy="-192" rx="28.7" ry="18"/>
<text text-anchor="middle" x="1455.3" y="-188.3" font-family="Times New Roman,serif" font-size="14.00">State</text>
</g>
<!-- overarch_concepts_choice&#45;&gt;overarch_concepts_state -->
<g id="edge4" class="edge">
<title>overarch_concepts_choice&#45;&gt;overarch_concepts_state</title>
<path fill="none" stroke="black" d="M1581.34,-264.91C1555.52,-250.18 1513.51,-226.21 1485.16,-210.04"/>
<polygon fill="black" stroke="black" points="1486.53,-206.79 1476.11,-204.87 1483.06,-212.87 1486.53,-206.79"/>
<text text-anchor="middle" x="1547.8" y="-231.8" font-family="Times New Roman,serif" font-size="14.00">is a</text>
</g>
<!-- overarch_concepts_class -->
<g id="node6" class="node">
<title>overarch_concepts_class</title>
<ellipse fill="#dddddd" stroke="black" cx="2260.3" cy="-279" rx="30.59" ry="18"/>
<text text-anchor="middle" x="2260.3" y="-275.3" font-family="Times New Roman,serif" font-size="14.00">Class</text>
</g>
<!-- overarch_concepts_class&#45;&gt;overarch_concepts_class -->
<g id="edge8" class="edge">
<title>overarch_concepts_class&#45;&gt;overarch_concepts_class</title>
<path fill="none" stroke="black" d="M2288.23,-286.83C2299.44,-287.27 2308.84,-284.66 2308.84,-279 2308.84,-275.2 2304.6,-272.77 2298.41,-271.72"/>
<polygon fill="black" stroke="black" points="2298.41,-268.22 2288.23,-271.17 2298.03,-275.21 2298.41,-268.22"/>
<text text-anchor="middle" x="2338.84" y="-275.3" font-family="Times New Roman,serif" font-size="14.00">inheritance</text>
</g>
<!-- overarch_concepts_field -->
<g id="node14" class="node">
<title>overarch_concepts_field</title>
<ellipse fill="#dddddd" stroke="black" cx="2350.3" cy="-192" rx="28.7" ry="18"/>
<text text-anchor="middle" x="2350.3" y="-188.3" font-family="Times New Roman,serif" font-size="14.00">Field</text>
</g>
<!-- overarch_concepts_class&#45;&gt;overarch_concepts_field -->
<g id="edge5" class="edge">
<title>overarch_concepts_class&#45;&gt;overarch_concepts_field</title>
<path fill="none" stroke="black" d="M2275.97,-263.19C2290.25,-249.71 2311.52,-229.62 2327.65,-214.39"/>
<polygon fill="black" stroke="black" points="2330.23,-216.76 2335.1,-207.35 2325.42,-211.67 2330.23,-216.76"/>
<text text-anchor="middle" x="2333.8" y="-231.8" font-family="Times New Roman,serif" font-size="14.00">contains</text>
</g>
<!-- overarch_concepts_interface -->
<g id="node19" class="node">
<title>overarch_concepts_interface</title>
<ellipse fill="#dddddd" stroke="black" cx="2156.3" cy="-192" rx="42.49" ry="18"/>
<text text-anchor="middle" x="2156.3" y="-188.3" font-family="Times New Roman,serif" font-size="14.00">Interface</text>
</g>
<!-- overarch_concepts_class&#45;&gt;overarch_concepts_interface -->
<g id="edge7" class="edge">
<title>overarch_concepts_class&#45;&gt;overarch_concepts_interface</title>
<path fill="none" stroke="black" d="M2236.99,-267.22C2231.87,-265.03 2226.44,-262.84 2221.3,-261 2193.46,-251.07 2175.37,-266.37 2157.3,-243 2152.35,-236.6 2150.87,-228.24 2150.99,-220.19"/>
<polygon fill="black" stroke="black" points="2154.5,-220.25 2151.91,-209.97 2147.52,-219.62 2154.5,-220.25"/>
<text text-anchor="middle" x="2199.8" y="-231.8" font-family="Times New Roman,serif" font-size="14.00">implementation</text>
</g>
<!-- overarch_concepts_method -->
<g id="node22" class="node">
<title>overarch_concepts_method</title>
<ellipse fill="#dddddd" stroke="black" cx="2256.3" cy="-105" rx="38.99" ry="18"/>
<text text-anchor="middle" x="2256.3" y="-101.3" font-family="Times New Roman,serif" font-size="14.00">Method</text>
</g>
<!-- overarch_concepts_class&#45;&gt;overarch_concepts_method -->
<g id="edge6" class="edge">
<title>overarch_concepts_class&#45;&gt;overarch_concepts_method</title>
<path fill="none" stroke="black" d="M2259.9,-260.88C2259.2,-231 2257.76,-169.11 2256.93,-133.27"/>
<polygon fill="black" stroke="black" points="2260.42,-132.97 2256.69,-123.05 2253.43,-133.13 2260.42,-132.97"/>
<text text-anchor="middle" x="2281.8" y="-188.3" font-family="Times New Roman,serif" font-size="14.00">contains</text>
</g>
<!-- overarch_concepts_component -->
<g id="node7" class="node">
<title>overarch_concepts_component</title>
<ellipse fill="#dddddd" stroke="black" cx="1491.3" cy="-453" rx="53.89" ry="18"/>
<text text-anchor="middle" x="1491.3" y="-449.3" font-family="Times New Roman,serif" font-size="14.00">Component</text>
</g>
<!-- overarch_concepts_namespace -->
<g id="node23" class="node">
<title>overarch_concepts_namespace</title>
<ellipse fill="#dddddd" stroke="black" cx="2439.3" cy="-279" rx="52.79" ry="18"/>
<text text-anchor="middle" x="2439.3" y="-275.3" font-family="Times New Roman,serif" font-size="14.00">Namespace</text>
</g>
<!-- overarch_concepts_component&#45;&gt;overarch_concepts_namespace -->
<g id="edge9" class="edge">
<title>overarch_concepts_component&#45;&gt;overarch_concepts_namespace</title>
<path fill="none" stroke="black" d="M1545.41,-451.26C1660.25,-448.65 1936.17,-436.9 2160.3,-384 2248.63,-363.15 2347.03,-321.98 2400.14,-298.17"/>
<polygon fill="black" stroke="black" points="2401.84,-301.24 2409.52,-293.94 2398.96,-294.86 2401.84,-301.24"/>
<text text-anchor="middle" x="2300.8" y="-362.3" font-family="Times New Roman,serif" font-size="14.00">contains</text>
</g>
<!-- overarch_concepts_package -->
<g id="node27" class="node">
<title>overarch_concepts_package</title>
<ellipse fill="#dddddd" stroke="black" cx="2045.3" cy="-366" rx="40.89" ry="18"/>
<text text-anchor="middle" x="2045.3" y="-362.3" font-family="Times New Roman,serif" font-size="14.00">Package</text>
</g>
<!-- overarch_concepts_component&#45;&gt;overarch_concepts_package -->
<g id="edge10" class="edge">
<title>overarch_concepts_component&#45;&gt;overarch_concepts_package</title>
<path fill="none" stroke="black" d="M1539.49,-444.61C1644.45,-428.5 1892.69,-390.41 1997.39,-374.35"/>
<polygon fill="black" stroke="black" points="1998.01,-377.8 2007.36,-372.82 1996.94,-370.88 1998.01,-377.8"/>
<text text-anchor="middle" x="1824.8" y="-405.8" font-family="Times New Roman,serif" font-size="14.00">contains</text>
</g>
<!-- overarch_concepts_technicalArchitectureNode -->
<g id="node38" class="node">
<title>overarch_concepts_technicalArchitectureNode</title>
<ellipse fill="#dddddd" stroke="black" cx="860.3" cy="-366" rx="115.08" ry="18"/>
<text text-anchor="middle" x="860.3" y="-362.3" font-family="Times New Roman,serif" font-size="14.00">Technical Architecture Node</text>
</g>
<!-- overarch_concepts_component&#45;&gt;overarch_concepts_technicalArchitectureNode -->
<g id="edge11" class="edge">
<title>overarch_concepts_component&#45;&gt;overarch_concepts_technicalArchitectureNode</title>
<path fill="none" stroke="black" d="M1442.31,-445.4C1337.64,-431.3 1090.69,-398.04 954.51,-379.69"/>
<polygon fill="black" stroke="black" points="954.88,-376.21 944.5,-378.34 953.95,-383.15 954.88,-376.21"/>
<text text-anchor="middle" x="1222.8" y="-405.8" font-family="Times New Roman,serif" font-size="14.00">is a</text>
</g>
<!-- overarch_concepts_container -->
<g id="node8" class="node">
<title>overarch_concepts_container</title>
<ellipse fill="#dddddd" stroke="black" cx="968.3" cy="-540" rx="46.29" ry="18"/>
<text text-anchor="middle" x="968.3" y="-536.3" font-family="Times New Roman,serif" font-size="14.00">Container</text>
</g>
<!-- overarch_concepts_container&#45;&gt;overarch_concepts_component -->
<g id="edge12" class="edge">
<title>overarch_concepts_container&#45;&gt;overarch_concepts_component</title>
<path fill="none" stroke="black" d="M1010.21,-532.19C1103.43,-517.04 1328.05,-480.53 1434.07,-463.3"/>
<polygon fill="black" stroke="black" points="1434.64,-466.75 1443.95,-461.69 1433.52,-459.84 1434.64,-466.75"/>
<text text-anchor="middle" x="1283.8" y="-492.8" font-family="Times New Roman,serif" font-size="14.00">contains</text>
</g>
<!-- overarch_concepts_node -->
<g id="node24" class="node">
<title>overarch_concepts_node</title>
<ellipse fill="#dddddd" stroke="black" cx="1006.3" cy="-453" rx="30.59" ry="18"/>
<text text-anchor="middle" x="1006.3" y="-449.3" font-family="Times New Roman,serif" font-size="14.00">Node</text>
</g>
<!-- overarch_concepts_container&#45;&gt;overarch_concepts_node -->
<g id="edge13" class="edge">
<title>overarch_concepts_container&#45;&gt;overarch_concepts_node</title>
<path fill="none" stroke="black" d="M975.8,-522.21C981.16,-510.22 988.48,-493.85 994.6,-480.16"/>
<polygon fill="black" stroke="black" points="997.92,-481.32 998.8,-470.76 991.53,-478.46 997.92,-481.32"/>
<text text-anchor="middle" x="1024.3" y="-492.8" font-family="Times New Roman,serif" font-size="14.00">deployed on</text>
</g>
<!-- overarch_concepts_container&#45;&gt;overarch_concepts_technicalArchitectureNode -->
<g id="edge14" class="edge">
<title>overarch_concepts_container&#45;&gt;overarch_concepts_technicalArchitectureNode</title>
<path fill="none" stroke="black" d="M963.58,-521.95C955.37,-494.5 936.39,-439.78 906.3,-402 903.02,-397.89 899.16,-393.99 895.08,-390.4"/>
<polygon fill="black" stroke="black" points="897.06,-387.49 887.1,-383.87 892.63,-392.91 897.06,-387.49"/>
<text text-anchor="middle" x="953.8" y="-449.3" font-family="Times New Roman,serif" font-size="14.00">is a</text>
</g>
<!-- overarch_concepts_decision -->
<g id="node9" class="node">
<title>overarch_concepts_decision</title>
<ellipse fill="#dddddd" stroke="black" cx="982.3" cy="-279" rx="42.49" ry="18"/>
<text text-anchor="middle" x="982.3" y="-275.3" font-family="Times New Roman,serif" font-size="14.00">Decision</text>
</g>
<!-- overarch_concepts_deepHistoryState -->
<g id="node10" class="node">
<title>overarch_concepts_deepHistoryState</title>
<ellipse fill="#dddddd" stroke="black" cx="1738.3" cy="-279" rx="79.09" ry="18"/>
<text text-anchor="middle" x="1738.3" y="-275.3" font-family="Times New Roman,serif" font-size="14.00">Deep History State</text>
</g>
<!-- overarch_concepts_deepHistoryState&#45;&gt;overarch_concepts_state -->
<g id="edge15" class="edge">
<title>overarch_concepts_deepHistoryState&#45;&gt;overarch_concepts_state</title>
<path fill="none" stroke="black" d="M1692.51,-264.25C1636.05,-247.29 1541.31,-218.83 1490.31,-203.52"/>
<polygon fill="black" stroke="black" points="1491.31,-200.16 1480.72,-200.64 1489.29,-206.87 1491.31,-200.16"/>
<text text-anchor="middle" x="1622.8" y="-231.8" font-family="Times New Roman,serif" font-size="14.00">is a</text>
</g>
<!-- overarch_concepts_endState -->
<g id="node11" class="node">
<title>overarch_concepts_endState</title>
<ellipse fill="#dddddd" stroke="black" cx="1881.3" cy="-279" rx="46.29" ry="18"/>
<text text-anchor="middle" x="1881.3" y="-275.3" font-family="Times New Roman,serif" font-size="14.00">End State</text>
</g>
<!-- overarch_concepts_endState&#45;&gt;overarch_concepts_state -->
<g id="edge16" class="edge">
<title>overarch_concepts_endState&#45;&gt;overarch_concepts_state</title>
<path fill="none" stroke="black" d="M1847.14,-266.76C1840.28,-264.69 1833.09,-262.67 1826.3,-261 1705.86,-231.46 1560.6,-208.41 1493.14,-198.42"/>
<polygon fill="black" stroke="black" points="1493.39,-194.92 1482.99,-196.93 1492.38,-201.84 1493.39,-194.92"/>
<text text-anchor="middle" x="1754.8" y="-231.8" font-family="Times New Roman,serif" font-size="14.00">is a</text>
</g>
<!-- overarch_concepts_enum -->
<g id="node12" class="node">
<title>overarch_concepts_enum</title>
<ellipse fill="#dddddd" stroke="black" cx="1977.3" cy="-279" rx="31.7" ry="18"/>
<text text-anchor="middle" x="1977.3" y="-275.3" font-family="Times New Roman,serif" font-size="14.00">Enum</text>
</g>
<!-- overarch_concepts_enumValue -->
<g id="node13" class="node">
<title>overarch_concepts_enumValue</title>
<ellipse fill="#dddddd" stroke="black" cx="1977.3" cy="-192" rx="54.69" ry="18"/>
<text text-anchor="middle" x="1977.3" y="-188.3" font-family="Times New Roman,serif" font-size="14.00">Enum Value</text>
</g>
<!-- overarch_concepts_enum&#45;&gt;overarch_concepts_enumValue -->
<g id="edge17" class="edge">
<title>overarch_concepts_enum&#45;&gt;overarch_concepts_enumValue</title>
<path fill="none" stroke="black" d="M1977.3,-260.8C1977.3,-249.16 1977.3,-233.55 1977.3,-220.24"/>
<polygon fill="black" stroke="black" points="1980.8,-220.18 1977.3,-210.18 1973.8,-220.18 1980.8,-220.18"/>
<text text-anchor="middle" x="2000.8" y="-231.8" font-family="Times New Roman,serif" font-size="14.00">contains</text>
</g>
<!-- overarch_concepts_fork -->
<g id="node15" class="node">
<title>overarch_concepts_fork</title>
<ellipse fill="#dddddd" stroke="black" cx="1202.3" cy="-279" rx="28.7" ry="18"/>
<text text-anchor="middle" x="1202.3" y="-275.3" font-family="Times New Roman,serif" font-size="14.00">Fork</text>
</g>
<!-- overarch_concepts_fork&#45;&gt;overarch_concepts_state -->
<g id="edge18" class="edge">
<title>overarch_concepts_fork&#45;&gt;overarch_concepts_state</title>
<path fill="none" stroke="black" d="M1224.41,-267.29C1229.26,-265.1 1234.41,-262.88 1239.3,-261 1301.62,-236.98 1376.34,-214.9 1419.57,-202.75"/>
<polygon fill="black" stroke="black" points="1420.64,-206.09 1429.33,-200.03 1418.76,-199.35 1420.64,-206.09"/>
<text text-anchor="middle" x="1341.8" y="-231.8" font-family="Times New Roman,serif" font-size="14.00">is a</text>
</g>
<!-- overarch_concepts_function -->
<g id="node16" class="node">
<title>overarch_concepts_function</title>
<ellipse fill="#dddddd" stroke="black" cx="2439.3" cy="-105" rx="42.79" ry="18"/>
<text text-anchor="middle" x="2439.3" y="-101.3" font-family="Times New Roman,serif" font-size="14.00">Function</text>
</g>
<!-- overarch_concepts_parameter -->
<g id="node28" class="node">
<title>overarch_concepts_parameter</title>
<ellipse fill="#dddddd" stroke="black" cx="2347.3" cy="-18" rx="46.59" ry="18"/>
<text text-anchor="middle" x="2347.3" y="-14.3" font-family="Times New Roman,serif" font-size="14.00">Parameter</text>
</g>
<!-- overarch_concepts_function&#45;&gt;overarch_concepts_parameter -->
<g id="edge19" class="edge">
<title>overarch_concepts_function&#45;&gt;overarch_concepts_parameter</title>
<path fill="none" stroke="black" d="M2422.42,-88.41C2408.24,-75.31 2387.8,-56.42 2371.82,-41.65"/>
<polygon fill="black" stroke="black" points="2374.09,-38.99 2364.37,-34.78 2369.34,-44.14 2374.09,-38.99"/>
<text text-anchor="middle" x="2421.8" y="-57.8" font-family="Times New Roman,serif" font-size="14.00">contains</text>
</g>
<!-- overarch_concepts_historyState -->
<g id="node17" class="node">
<title>overarch_concepts_historyState</title>
<ellipse fill="#dddddd" stroke="black" cx="1306.3" cy="-279" rx="57.69" ry="18"/>
<text text-anchor="middle" x="1306.3" y="-275.3" font-family="Times New Roman,serif" font-size="14.00">History State</text>
</g>
<!-- overarch_concepts_historyState&#45;&gt;overarch_concepts_state -->
<g id="edge20" class="edge">
<title>overarch_concepts_historyState&#45;&gt;overarch_concepts_state</title>
<path fill="none" stroke="black" d="M1332.93,-262.8C1358.99,-247.94 1398.6,-225.35 1425.64,-209.92"/>
<polygon fill="black" stroke="black" points="1427.69,-212.78 1434.64,-204.78 1424.22,-206.7 1427.69,-212.78"/>
<text text-anchor="middle" x="1398.8" y="-231.8" font-family="Times New Roman,serif" font-size="14.00">is a</text>
</g>
<!-- overarch_concepts_information -->
<g id="node18" class="node">
<title>overarch_concepts_information</title>
<ellipse fill="#dddddd" stroke="black" cx="53.3" cy="-366" rx="53.09" ry="18"/>
<text text-anchor="middle" x="53.3" y="-362.3" font-family="Times New Roman,serif" font-size="14.00">Information</text>
</g>
<!-- overarch_concepts_knowledge -->
<g id="node21" class="node">
<title>overarch_concepts_knowledge</title>
<ellipse fill="#dddddd" stroke="black" cx="84.3" cy="-279" rx="51.99" ry="18"/>
<text text-anchor="middle" x="84.3" y="-275.3" font-family="Times New Roman,serif" font-size="14.00">Knowledge</text>
</g>
<!-- overarch_concepts_information&#45;&gt;overarch_concepts_knowledge -->
<g id="edge22" class="edge">
<title>overarch_concepts_information&#45;&gt;overarch_concepts_knowledge</title>
<path fill="none" stroke="black" d="M30.44,-349.74C18.94,-340.08 8.87,-327.17 16.3,-315 21.17,-307.01 28.52,-300.76 36.6,-295.91"/>
<polygon fill="black" stroke="black" points="38.38,-298.93 45.59,-291.17 35.11,-292.74 38.38,-298.93"/>
<text text-anchor="middle" x="49.8" y="-318.8" font-family="Times New Roman,serif" font-size="14.00">required for</text>
</g>
<!-- overarch_concepts_information&#45;&gt;overarch_concepts_process -->
<g id="edge21" class="edge">
<title>overarch_concepts_information&#45;&gt;overarch_concepts_process</title>
<path fill="none" stroke="black" d="M66.99,-348.37C76.86,-337.41 91.07,-323.55 106.3,-315 130.93,-301.17 161.32,-292.56 186.31,-287.34"/>
<polygon fill="black" stroke="black" points="187.17,-290.74 196.31,-285.37 185.82,-283.87 187.17,-290.74"/>
<text text-anchor="middle" x="132.3" y="-318.8" font-family="Times New Roman,serif" font-size="14.00">output of</text>
</g>
<!-- overarch_concepts_interface&#45;&gt;overarch_concepts_method -->
<g id="edge23" class="edge">
<title>overarch_concepts_interface&#45;&gt;overarch_concepts_method</title>
<path fill="none" stroke="black" d="M2166.83,-174.34C2173.99,-163.91 2184.15,-150.67 2195.3,-141 2202.96,-134.35 2212.08,-128.33 2220.9,-123.23"/>
<polygon fill="black" stroke="black" points="2222.84,-126.15 2229.91,-118.26 2219.46,-120.02 2222.84,-126.15"/>
<text text-anchor="middle" x="2218.8" y="-144.8" font-family="Times New Roman,serif" font-size="14.00">contains</text>
</g>
<!-- overarch_concepts_join -->
<g id="node20" class="node">
<title>overarch_concepts_join</title>
<ellipse fill="#dddddd" stroke="black" cx="1409.3" cy="-279" rx="27" ry="18"/>
<text text-anchor="middle" x="1409.3" y="-275.3" font-family="Times New Roman,serif" font-size="14.00">Join</text>
</g>
<!-- overarch_concepts_join&#45;&gt;overarch_concepts_state -->
<g id="edge24" class="edge">
<title>overarch_concepts_join&#45;&gt;overarch_concepts_state</title>
<path fill="none" stroke="black" d="M1418.16,-261.61C1424.78,-249.38 1433.95,-232.44 1441.52,-218.46"/>
<polygon fill="black" stroke="black" points="1444.77,-219.8 1446.45,-209.34 1438.62,-216.47 1444.77,-219.8"/>
<text text-anchor="middle" x="1443.8" y="-231.8" font-family="Times New Roman,serif" font-size="14.00">is a</text>
</g>
<!-- overarch_concepts_knowledge&#45;&gt;overarch_concepts_capability -->
<g id="edge25" class="edge">
<title>overarch_concepts_knowledge&#45;&gt;overarch_concepts_capability</title>
<path fill="none" stroke="black" d="M119.38,-265.52C150.6,-254.7 197.62,-239.08 239.3,-228 277.21,-217.92 320.62,-208.85 353.54,-202.47"/>
<polygon fill="black" stroke="black" points="354.23,-205.9 363.4,-200.58 352.92,-199.03 354.23,-205.9"/>
<text text-anchor="middle" x="272.8" y="-231.8" font-family="Times New Roman,serif" font-size="14.00">required for</text>
</g>
<!-- overarch_concepts_method&#45;&gt;overarch_concepts_parameter -->
<g id="edge26" class="edge">
<title>overarch_concepts_method&#45;&gt;overarch_concepts_parameter</title>
<path fill="none" stroke="black" d="M2272.99,-88.41C2286.92,-75.39 2306.98,-56.66 2322.74,-41.93"/>
<polygon fill="black" stroke="black" points="2325.17,-44.45 2330.09,-35.07 2320.39,-39.34 2325.17,-44.45"/>
<text text-anchor="middle" x="2329.8" y="-57.8" font-family="Times New Roman,serif" font-size="14.00">contains</text>
</g>
<!-- overarch_concepts_namespace&#45;&gt;overarch_concepts_field -->
<g id="edge27" class="edge">
<title>overarch_concepts_namespace&#45;&gt;overarch_concepts_field</title>
<path fill="none" stroke="black" d="M2414.22,-263.1C2405.55,-257.37 2396.07,-250.41 2388.3,-243 2380.24,-235.33 2372.58,-225.83 2366.26,-217.18"/>
<polygon fill="black" stroke="black" points="2369.06,-215.08 2360.44,-208.92 2363.34,-219.11 2369.06,-215.08"/>
<text text-anchor="middle" x="2411.8" y="-231.8" font-family="Times New Roman,serif" font-size="14.00">contains</text>
</g>
<!-- overarch_concepts_namespace&#45;&gt;overarch_concepts_function -->
<g id="edge28" class="edge">
<title>overarch_concepts_namespace&#45;&gt;overarch_concepts_function</title>
<path fill="none" stroke="black" d="M2469.6,-264.07C2477.81,-258.72 2485.69,-251.74 2490.3,-243 2511.42,-202.89 2511.42,-181.11 2490.3,-141 2486.97,-134.68 2481.93,-129.28 2476.29,-124.75"/>
<polygon fill="black" stroke="black" points="2477.92,-121.62 2467.72,-118.73 2473.89,-127.35 2477.92,-121.62"/>
<text text-anchor="middle" x="2528.8" y="-188.3" font-family="Times New Roman,serif" font-size="14.00">contains</text>
</g>
<!-- overarch_concepts_protocol -->
<g id="node31" class="node">
<title>overarch_concepts_protocol</title>
<ellipse fill="#dddddd" stroke="black" cx="2439.3" cy="-192" rx="42.49" ry="18"/>
<text text-anchor="middle" x="2439.3" y="-188.3" font-family="Times New Roman,serif" font-size="14.00">Protocol</text>
</g>
<!-- overarch_concepts_namespace&#45;&gt;overarch_concepts_protocol -->
<g id="edge29" class="edge">
<title>overarch_concepts_namespace&#45;&gt;overarch_concepts_protocol</title>
<path fill="none" stroke="black" d="M2439.3,-260.8C2439.3,-249.16 2439.3,-233.55 2439.3,-220.24"/>
<polygon fill="black" stroke="black" points="2442.8,-220.18 2439.3,-210.18 2435.8,-220.18 2442.8,-220.18"/>
<text text-anchor="middle" x="2462.8" y="-231.8" font-family="Times New Roman,serif" font-size="14.00">contains</text>
</g>
<!-- overarch_concepts_node&#45;&gt;overarch_concepts_node -->
<g id="edge30" class="edge">
<title>overarch_concepts_node&#45;&gt;overarch_concepts_node</title>
<path fill="none" stroke="black" d="M1036.16,-456.94C1046.5,-456.98 1054.84,-455.67 1054.84,-453 1054.84,-451.29 1051.42,-450.14 1046.24,-449.54"/>
<polygon fill="black" stroke="black" points="1046.32,-446.04 1036.16,-449.06 1045.98,-453.04 1046.32,-446.04"/>
<text text-anchor="middle" x="1078.34" y="-449.3" font-family="Times New Roman,serif" font-size="14.00">contains</text>
</g>
<!-- overarch_concepts_node&#45;&gt;overarch_concepts_node -->
<g id="edge31" class="edge">
<title>overarch_concepts_node&#45;&gt;overarch_concepts_node</title>
<path fill="none" stroke="black" d="M1034.87,-459.42C1064.35,-462.65 1101.84,-460.51 1101.84,-453 1101.84,-446.34 1072.37,-443.91 1045.13,-445.69"/>
<polygon fill="black" stroke="black" points="1044.53,-442.23 1034.87,-446.58 1045.13,-449.2 1044.53,-442.23"/>
<text text-anchor="middle" x="1111.84" y="-449.3" font-family="Times New Roman,serif" font-size="14.00">link</text>
</g>
<!-- overarch_concepts_orgUnit -->
<g id="node25" class="node">
<title>overarch_concepts_orgUnit</title>
<ellipse fill="#dddddd" stroke="black" cx="719.3" cy="-453" rx="79.89" ry="18"/>
<text text-anchor="middle" x="719.3" y="-449.3" font-family="Times New Roman,serif" font-size="14.00">Organizational Unit</text>
</g>
<!-- overarch_concepts_orgUnit&#45;&gt;overarch_concepts_capability -->
<g id="edge33" class="edge">
<title>overarch_concepts_orgUnit&#45;&gt;overarch_concepts_capability</title>
<path fill="none" stroke="black" d="M671.41,-438.5C597.15,-416.52 459.78,-371.29 431.3,-330 408.64,-297.17 404.38,-249.85 404.22,-220.29"/>
<polygon fill="black" stroke="black" points="407.72,-220.3 404.32,-210.26 400.72,-220.23 407.72,-220.3"/>
<text text-anchor="middle" x="473.8" y="-318.8" font-family="Times New Roman,serif" font-size="14.00">responsible for</text>
</g>
<!-- overarch_concepts_orgUnit&#45;&gt;overarch_concepts_orgUnit -->
<g id="edge32" class="edge">
<title>overarch_concepts_orgUnit&#45;&gt;overarch_concepts_orgUnit</title>
<path fill="none" stroke="black" d="M791.91,-460.57C806.67,-459.75 817.24,-457.22 817.24,-453 817.24,-449.83 811.29,-447.62 802.09,-446.36"/>
<polygon fill="black" stroke="black" points="802.19,-442.86 791.91,-445.43 801.54,-449.83 802.19,-442.86"/>
<text text-anchor="middle" x="840.74" y="-449.3" font-family="Times New Roman,serif" font-size="14.00">contains</text>
</g>
<!-- overarch_concepts_orgUnit&#45;&gt;overarch_concepts_technicalArchitectureNode -->
<g id="edge34" class="edge">
<title>overarch_concepts_orgUnit&#45;&gt;overarch_concepts_technicalArchitectureNode</title>
<path fill="none" stroke="black" d="M742.19,-435.55C756.59,-425.45 775.72,-412.48 793.3,-402 801.24,-397.26 809.89,-392.48 818.26,-388.03"/>
<polygon fill="black" stroke="black" points="819.94,-391.1 827.17,-383.36 816.69,-384.9 819.94,-391.1"/>
<text text-anchor="middle" x="835.8" y="-405.8" font-family="Times New Roman,serif" font-size="14.00">responsible for</text>
</g>
<!-- overarch_concepts_organization -->
<g id="node26" class="node">
<title>overarch_concepts_organization</title>
<ellipse fill="#dddddd" stroke="black" cx="719.3" cy="-540" rx="56.59" ry="18"/>
<text text-anchor="middle" x="719.3" y="-536.3" font-family="Times New Roman,serif" font-size="14.00">Organization</text>
</g>
<!-- overarch_concepts_organization&#45;&gt;overarch_concepts_orgUnit -->
<g id="edge35" class="edge">
<title>overarch_concepts_organization&#45;&gt;overarch_concepts_orgUnit</title>
<path fill="none" stroke="black" d="M719.3,-521.8C719.3,-510.16 719.3,-494.55 719.3,-481.24"/>
<polygon fill="black" stroke="black" points="722.8,-481.18 719.3,-471.18 715.8,-481.18 722.8,-481.18"/>
<text text-anchor="middle" x="742.8" y="-492.8" font-family="Times New Roman,serif" font-size="14.00">contains</text>
</g>
<!-- overarch_concepts_package&#45;&gt;overarch_concepts_annotation -->
<g id="edge36" class="edge">
<title>overarch_concepts_package&#45;&gt;overarch_concepts_annotation</title>
<path fill="none" stroke="black" d="M2065.5,-350.19C2083.87,-336.73 2111.2,-316.71 2131.97,-301.49"/>
<polygon fill="black" stroke="black" points="2134.15,-304.23 2140.15,-295.5 2130.01,-298.59 2134.15,-304.23"/>
<text text-anchor="middle" x="2132.8" y="-318.8" font-family="Times New Roman,serif" font-size="14.00">contains</text>
</g>
<!-- overarch_concepts_package&#45;&gt;overarch_concepts_class -->
<g id="edge37" class="edge">
<title>overarch_concepts_package&#45;&gt;overarch_concepts_class</title>
<path fill="none" stroke="black" d="M2079.78,-356.14C2102.9,-349.8 2133.84,-340.55 2160.3,-330 2184.31,-320.42 2210.41,-307.27 2229.92,-296.86"/>
<polygon fill="black" stroke="black" points="2231.79,-299.83 2238.93,-292 2228.47,-293.67 2231.79,-299.83"/>
<text text-anchor="middle" x="2216.8" y="-318.8" font-family="Times New Roman,serif" font-size="14.00">contains</text>
</g>
<!-- overarch_concepts_package&#45;&gt;overarch_concepts_enum -->
<g id="edge38" class="edge">
<title>overarch_concepts_package&#45;&gt;overarch_concepts_enum</title>
<path fill="none" stroke="black" d="M2014.48,-354.08C2003.25,-348.57 1991.54,-340.72 1984.3,-330 1979.79,-323.34 1977.61,-315.02 1976.68,-307.1"/>
<polygon fill="black" stroke="black" points="1980.17,-306.85 1976.07,-297.08 1973.18,-307.28 1980.17,-306.85"/>
<text text-anchor="middle" x="2007.8" y="-318.8" font-family="Times New Roman,serif" font-size="14.00">contains</text>
</g>
<!-- overarch_concepts_package&#45;&gt;overarch_concepts_interface -->
<g id="edge39" class="edge">
<title>overarch_concepts_package&#45;&gt;overarch_concepts_interface</title>
<path fill="none" stroke="black" d="M2042.48,-347.8C2039.83,-325.99 2038.32,-287.98 2054.3,-261 2068.34,-237.28 2094.27,-220.16 2116.48,-209.03"/>
<polygon fill="black" stroke="black" points="2118.2,-212.09 2125.72,-204.62 2115.19,-205.77 2118.2,-212.09"/>
<text text-anchor="middle" x="2077.8" y="-275.3" font-family="Times New Roman,serif" font-size="14.00">contains</text>
</g>
<!-- overarch_concepts_package&#45;&gt;overarch_concepts_package -->
<g id="edge40" class="edge">
<title>overarch_concepts_package&#45;&gt;overarch_concepts_package</title>
<path fill="none" stroke="black" d="M2082.14,-373.88C2094.42,-373.88 2104.24,-371.25 2104.24,-366 2104.24,-362.31 2099.38,-359.91 2092.23,-358.82"/>
<polygon fill="black" stroke="black" points="2092.35,-355.32 2082.14,-358.12 2091.87,-362.3 2092.35,-355.32"/>
<text text-anchor="middle" x="2127.74" y="-362.3" font-family="Times New Roman,serif" font-size="14.00">contains</text>
</g>
<!-- overarch_concepts_person -->
<g id="node29" class="node">
<title>overarch_concepts_person</title>
<ellipse fill="#dddddd" stroke="black" cx="582.3" cy="-540" rx="36.29" ry="18"/>
<text text-anchor="middle" x="582.3" y="-536.3" font-family="Times New Roman,serif" font-size="14.00">Person</text>
</g>
<!-- overarch_concepts_person&#45;&gt;overarch_concepts_actor -->
<g id="edge41" class="edge">
<title>overarch_concepts_person&#45;&gt;overarch_concepts_actor</title>
<path fill="none" stroke="black" d="M562.13,-524.67C554.72,-518.79 546.6,-511.59 540.3,-504 534.26,-496.74 528.86,-487.99 524.44,-479.86"/>
<polygon fill="black" stroke="black" points="527.42,-478.01 519.73,-470.72 521.2,-481.21 527.42,-478.01"/>
<text text-anchor="middle" x="553.3" y="-492.8" font-family="Times New Roman,serif" font-size="14.00">is an</text>
</g>
<!-- overarch_concepts_person&#45;&gt;overarch_concepts_orgUnit -->
<g id="edge42" class="edge">
<title>overarch_concepts_person&#45;&gt;overarch_concepts_orgUnit</title>
<path fill="none" stroke="black" d="M604,-525.53C625.6,-512.13 659.09,-491.36 684.42,-475.64"/>
<polygon fill="black" stroke="black" points="686.35,-478.56 693,-470.31 682.66,-472.61 686.35,-478.56"/>
<text text-anchor="middle" x="676.8" y="-492.8" font-family="Times New Roman,serif" font-size="14.00">role in</text>
</g>
<!-- overarch_concepts_person&#45;&gt;overarch_concepts_process -->
<g id="edge43" class="edge">
<title>overarch_concepts_person&#45;&gt;overarch_concepts_process</title>
<path fill="none" stroke="black" d="M555.22,-527.75C470.16,-492.38 213.85,-385.73 212.3,-384 191.28,-360.56 183.65,-343.83 196.3,-315 198.45,-310.09 201.66,-305.57 205.33,-301.52"/>
<polygon fill="black" stroke="black" points="208.01,-303.8 212.77,-294.34 203.15,-298.77 208.01,-303.8"/>
<text text-anchor="middle" x="307.8" y="-405.8" font-family="Times New Roman,serif" font-size="14.00">role in</text>
</g>
<!-- overarch_concepts_person&#45;&gt;overarch_concepts_technicalArchitectureNode -->
<g id="edge44" class="edge">
<title>overarch_concepts_person&#45;&gt;overarch_concepts_technicalArchitectureNode</title>
<path fill="none" stroke="black" d="M577.94,-522.04C573.22,-499.43 568.87,-459.44 589.3,-435 611.68,-408.21 694.55,-390.05 762.82,-379.29"/>
<polygon fill="black" stroke="black" points="763.43,-382.73 772.78,-377.75 762.36,-375.82 763.43,-382.73"/>
<text text-anchor="middle" x="609.8" y="-449.3" font-family="Times New Roman,serif" font-size="14.00">request</text>
</g>
<!-- overarch_concepts_process&#45;&gt;overarch_concepts_capability -->
<g id="edge45" class="edge">
<title>overarch_concepts_process&#45;&gt;overarch_concepts_capability</title>
<path fill="none" stroke="black" d="M260.27,-265.09C289.09,-250.76 335.85,-227.52 368.45,-211.32"/>
<polygon fill="black" stroke="black" points="370.26,-214.32 377.66,-206.74 367.15,-208.05 370.26,-214.32"/>
<text text-anchor="middle" x="363.8" y="-231.8" font-family="Times New Roman,serif" font-size="14.00">required for</text>
</g>
<!-- overarch_concepts_protocol&#45;&gt;overarch_concepts_function -->
<g id="edge46" class="edge">
<title>overarch_concepts_protocol&#45;&gt;overarch_concepts_function</title>
<path fill="none" stroke="black" d="M2439.3,-173.8C2439.3,-162.16 2439.3,-146.55 2439.3,-133.24"/>
<polygon fill="black" stroke="black" points="2442.8,-133.18 2439.3,-123.18 2435.8,-133.18 2442.8,-133.18"/>
<text text-anchor="middle" x="2462.8" y="-144.8" font-family="Times New Roman,serif" font-size="14.00">contains</text>
</g>
<!-- overarch_concepts_requirement -->
<g id="node32" class="node">
<title>overarch_concepts_requirement</title>
<ellipse fill="#dddddd" stroke="black" cx="1099.3" cy="-279" rx="56.59" ry="18"/>
<text text-anchor="middle" x="1099.3" y="-275.3" font-family="Times New Roman,serif" font-size="14.00">Requirement</text>
</g>
<!-- overarch_concepts_startState -->
<g id="node33" class="node">
<title>overarch_concepts_startState</title>
<ellipse fill="#dddddd" stroke="black" cx="1502.3" cy="-279" rx="48.19" ry="18"/>
<text text-anchor="middle" x="1502.3" y="-275.3" font-family="Times New Roman,serif" font-size="14.00">Start State</text>
</g>
<!-- overarch_concepts_startState&#45;&gt;overarch_concepts_state -->
<g id="edge47" class="edge">
<title>overarch_concepts_startState&#45;&gt;overarch_concepts_state</title>
<path fill="none" stroke="black" d="M1493.01,-261.21C1486.23,-248.94 1476.92,-232.1 1469.24,-218.22"/>
<polygon fill="black" stroke="black" points="1472.14,-216.24 1464.24,-209.18 1466.02,-219.63 1472.14,-216.24"/>
<text text-anchor="middle" x="1490.8" y="-231.8" font-family="Times New Roman,serif" font-size="14.00">is a</text>
</g>
<!-- overarch_concepts_state&#45;&gt;overarch_concepts_state -->
<g id="edge48" class="edge">
<title>overarch_concepts_state&#45;&gt;overarch_concepts_state</title>
<path fill="none" stroke="black" d="M1483.5,-195.93C1493.63,-196.02 1501.89,-194.71 1501.89,-192 1501.89,-190.31 1498.67,-189.16 1493.77,-188.56"/>
<polygon fill="black" stroke="black" points="1493.66,-185.05 1483.5,-188.07 1493.32,-192.04 1493.66,-185.05"/>
<text text-anchor="middle" x="1550.39" y="-188.3" font-family="Times New Roman,serif" font-size="14.00">contains substate</text>
</g>
<!-- overarch_concepts_state&#45;&gt;overarch_concepts_state -->
<g id="edge50" class="edge">
<title>overarch_concepts_state&#45;&gt;overarch_concepts_state</title>
<path fill="none" stroke="black" d="M1482.82,-197.52C1525.87,-201.96 1598.89,-200.12 1598.89,-192 1598.89,-184.48 1536.31,-182.35 1492.86,-185.6"/>
<polygon fill="black" stroke="black" points="1492.48,-182.12 1482.82,-186.48 1493.09,-189.09 1492.48,-182.12"/>
<text text-anchor="middle" x="1624.89" y="-188.3" font-family="Times New Roman,serif" font-size="14.00">transition</text>
</g>
<!-- overarch_concepts_stateMachine -->
<g id="node35" class="node">
<title>overarch_concepts_stateMachine</title>
<ellipse fill="#dddddd" stroke="black" cx="860.3" cy="-279" rx="61.99" ry="18"/>
<text text-anchor="middle" x="860.3" y="-275.3" font-family="Times New Roman,serif" font-size="14.00">State Machine</text>
</g>
<!-- overarch_concepts_stateMachine&#45;&gt;overarch_concepts_state -->
<g id="edge49" class="edge">
<title>overarch_concepts_stateMachine&#45;&gt;overarch_concepts_state</title>
<path fill="none" stroke="black" d="M905.21,-266.49C913.84,-264.49 922.82,-262.56 931.3,-261 1111.65,-227.8 1329.87,-204.99 1416.83,-196.58"/>
<polygon fill="black" stroke="black" points="1417.39,-200.04 1427.01,-195.61 1416.73,-193.08 1417.39,-200.04"/>
<text text-anchor="middle" x="1154.8" y="-231.8" font-family="Times New Roman,serif" font-size="14.00">contains</text>
</g>
<!-- overarch_concepts_stereotype -->
<g id="node36" class="node">
<title>overarch_concepts_stereotype</title>
<ellipse fill="#dddddd" stroke="black" cx="998.3" cy="-627" rx="50.09" ry="18"/>
<text text-anchor="middle" x="998.3" y="-623.3" font-family="Times New Roman,serif" font-size="14.00">Stereotype</text>
</g>
<!-- overarch_concepts_system -->
<g id="node37" class="node">
<title>overarch_concepts_system</title>
<ellipse fill="#dddddd" stroke="black" cx="892.3" cy="-627" rx="37.89" ry="18"/>
<text text-anchor="middle" x="892.3" y="-623.3" font-family="Times New Roman,serif" font-size="14.00">System</text>
</g>
<!-- overarch_concepts_system&#45;&gt;overarch_concepts_actor -->
<g id="edge52" class="edge">
<title>overarch_concepts_system&#45;&gt;overarch_concepts_actor</title>
<path fill="none" stroke="black" d="M854.73,-625.16C767.42,-622.32 554.92,-610.1 511.3,-558 493.6,-536.87 497.36,-503.97 503.28,-480.84"/>
<polygon fill="black" stroke="black" points="506.72,-481.56 506.09,-470.98 499.98,-479.64 506.72,-481.56"/>
<text text-anchor="middle" x="524.3" y="-536.3" font-family="Times New Roman,serif" font-size="14.00">is an</text>
</g>
<!-- overarch_concepts_system&#45;&gt;overarch_concepts_container -->
<g id="edge51" class="edge">
<title>overarch_concepts_system&#45;&gt;overarch_concepts_container</title>
<path fill="none" stroke="black" d="M906.59,-610.01C917.98,-597.27 934.11,-579.24 947.02,-564.8"/>
<polygon fill="black" stroke="black" points="949.75,-566.99 953.81,-557.21 944.53,-562.33 949.75,-566.99"/>
<text text-anchor="middle" x="957.8" y="-579.8" font-family="Times New Roman,serif" font-size="14.00">contains</text>
</g>
<!-- overarch_concepts_system&#45;&gt;overarch_concepts_technicalArchitectureNode -->
<g id="edge53" class="edge">
<title>overarch_concepts_system&#45;&gt;overarch_concepts_technicalArchitectureNode</title>
<path fill="none" stroke="black" d="M893.58,-608.75C895.92,-570.65 898.88,-476.76 878.3,-402 877.51,-399.16 876.48,-396.28 875.31,-393.46"/>
<polygon fill="black" stroke="black" points="878.38,-391.77 870.94,-384.23 872.06,-394.76 878.38,-391.77"/>
<text text-anchor="middle" x="902.8" y="-492.8" font-family="Times New Roman,serif" font-size="14.00">is a</text>
</g>
<!-- overarch_concepts_technicalArchitectureNode&#45;&gt;overarch_concepts_capability -->
<g id="edge59" class="edge">
<title>overarch_concepts_technicalArchitectureNode&#45;&gt;overarch_concepts_capability</title>
<path fill="none" stroke="black" d="M819.39,-349.05C790.84,-336.94 752.58,-318.7 722.3,-297 703.9,-283.82 706.03,-272.07 686.3,-261 615.07,-221.03 520.85,-204.4 461.65,-197.58"/>
<polygon fill="black" stroke="black" points="461.7,-194.07 451.38,-196.46 460.94,-201.03 461.7,-194.07"/>
<text text-anchor="middle" x="755.8" y="-275.3" font-family="Times New Roman,serif" font-size="14.00">required for</text>
</g>
<!-- overarch_concepts_technicalArchitectureNode&#45;&gt;overarch_concepts_decision -->
<g id="edge54" class="edge">
<title>overarch_concepts_technicalArchitectureNode&#45;&gt;overarch_concepts_decision</title>
<path fill="none" stroke="black" d="M896.29,-348.76C906.95,-343.36 918.4,-336.93 928.3,-330 939.41,-322.21 950.6,-312.27 959.89,-303.31"/>
<polygon fill="black" stroke="black" points="962.55,-305.61 967.2,-296.09 957.63,-300.63 962.55,-305.61"/>
<text text-anchor="middle" x="977.3" y="-318.8" font-family="Times New Roman,serif" font-size="14.00">implements</text>
</g>
<!-- overarch_concepts_technicalArchitectureNode&#45;&gt;overarch_concepts_process -->
<g id="edge55" class="edge">
<title>overarch_concepts_technicalArchitectureNode&#45;&gt;overarch_concepts_process</title>
<path fill="none" stroke="black" d="M754.76,-358.71C610.6,-349.99 367.67,-334.76 348.3,-330 340.25,-328.02 300.91,-310.46 270.67,-296.7"/>
<polygon fill="black" stroke="black" points="271.78,-293.36 261.23,-292.4 268.87,-299.73 271.78,-293.36"/>
<text text-anchor="middle" x="380.3" y="-318.8" font-family="Times New Roman,serif" font-size="14.00">implements</text>
</g>
<!-- overarch_concepts_technicalArchitectureNode&#45;&gt;overarch_concepts_requirement -->
<g id="edge56" class="edge">
<title>overarch_concepts_technicalArchitectureNode&#45;&gt;overarch_concepts_requirement</title>
<path fill="none" stroke="black" d="M935.98,-352.41C961.08,-347 988.83,-339.65 1013.3,-330 1032.37,-322.48 1052.24,-311.18 1068.07,-301.23"/>
<polygon fill="black" stroke="black" points="1070.37,-303.91 1076.89,-295.56 1066.59,-298.02 1070.37,-303.91"/>
<text text-anchor="middle" x="1074.3" y="-318.8" font-family="Times New Roman,serif" font-size="14.00">implements</text>
</g>
<!-- overarch_concepts_technicalArchitectureNode&#45;&gt;overarch_concepts_stateMachine -->
<g id="edge57" class="edge">
<title>overarch_concepts_technicalArchitectureNode&#45;&gt;overarch_concepts_stateMachine</title>
<path fill="none" stroke="black" d="M860.3,-347.8C860.3,-336.16 860.3,-320.55 860.3,-307.24"/>
<polygon fill="black" stroke="black" points="863.8,-307.18 860.3,-297.18 856.8,-307.18 863.8,-307.18"/>
<text text-anchor="middle" x="892.3" y="-318.8" font-family="Times New Roman,serif" font-size="14.00">implements</text>
</g>
<!-- overarch_concepts_technicalArchitectureNode&#45;&gt;overarch_concepts_useCase -->
<g id="edge58" class="edge">
<title>overarch_concepts_technicalArchitectureNode&#45;&gt;overarch_concepts_useCase</title>
<path fill="none" stroke="black" d="M767.94,-355.25C726.89,-349.74 678.24,-341.58 635.3,-330 604.04,-321.57 569.97,-308.04 544.84,-297.17"/>
<polygon fill="black" stroke="black" points="546.23,-293.96 535.67,-293.15 543.42,-300.37 546.23,-293.96"/>
<text text-anchor="middle" x="667.3" y="-318.8" font-family="Times New Roman,serif" font-size="14.00">implements</text>
</g>
<!-- overarch_concepts_useCase&#45;&gt;overarch_concepts_useCase -->
<g id="edge60" class="edge">
<title>overarch_concepts_useCase&#45;&gt;overarch_concepts_useCase</title>
<path fill="none" stroke="black" d="M551.8,-282.88C562.69,-282.59 570.79,-281.3 570.79,-279 570.79,-277.49 567.3,-276.42 561.83,-275.78"/>
<polygon fill="black" stroke="black" points="562.01,-272.28 551.8,-275.12 561.55,-279.27 562.01,-272.28"/>
<text text-anchor="middle" x="592.29" y="-275.3" font-family="Times New Roman,serif" font-size="14.00">extends</text>
</g>
<!-- overarch_concepts_useCase&#45;&gt;overarch_concepts_useCase -->
<g id="edge61" class="edge">
<title>overarch_concepts_useCase&#45;&gt;overarch_concepts_useCase</title>
<path fill="none" stroke="black" d="M549.3,-286.16C580.23,-288.22 613.79,-285.83 613.79,-279 613.79,-272.92 587.17,-270.36 559.49,-271.32"/>
<polygon fill="black" stroke="black" points="559.11,-267.84 549.3,-271.84 559.46,-274.83 559.11,-267.84"/>
<text text-anchor="middle" x="636.79" y="-275.3" font-family="Times New Roman,serif" font-size="14.00">includes</text>
</g>
</g>
</svg>
